{"accessors":[{"bufferView":0,"componentType":5126,"count":28,"max":[1,0,7.105427357601002e-15,0,3.552713678800501e-15,0,1,0,0,-1,0,0,35.490989685058594,0,15.980300903320312,1],"min":[1,0,-3.552713678800501e-15,0,-7.105427357601002e-15,0,1,0,0,-1.0000001192092896,0,0,-35.490966796875,-84.81111907958984,-50.4476432800293,1],"type":"MAT4","byteOffset":0}],"asset":{"generator":"Khronos Blender glTF 2.0 exporter","version":"2.0"},"bufferViews":[{"buffer":0,"byteLength":1792,"byteOffset":0},{"buffer":0,"byteOffset":1792,"byteLength":199711},{"buffer":0,"byteOffset":201503,"byteLength":9927}],"buffers":[{"byteLength":211430,"uri":"buffer.bin"}],"images":[{"name":"pm0117_00_Body1","uri":"pm0117_00_Body1.png"},{"name":"pm0117_00_Eye1","uri":"pm0117_00_Eye1.png"}],"materials":[{"name":"BodyTattu01_mat","pbrMetallicRoughness":{"baseColorFactor":[0.6400000190734865,0.6400000190734865,0.6400000190734865,1],"baseColorTexture":{"index":0},"metallicFactor":0}},{"name":"Eye_mat","pbrMetallicRoughness":{"baseColorFactor":[0.6400000190734865,0.6400000190734865,0.6400000190734865,1],"baseColorTexture":{"index":1},"metallicFactor":0}}],"meshes":[{"name":"mesh_1_Eye","primitives":[{"material":0,"extensions":{"ALI_amc_mesh_compression":{"bufferView":1}}},{"material":1,"extensions":{"ALI_amc_mesh_compression":{"bufferView":2}}}]}],"nodes":[{"children":[3,4],"name":"Armature","rotation":[0.7071068286895752,0,0,0.7071067094802856]},{"name":"Camera","rotation":[0.483536034822464,0.33687159419059753,-0.20870360732078552,0.7804827094078064],"translation":[7.481131553649902,5.34366512298584,6.5076398849487305]},{"name":"Lamp","rotation":[0.16907575726509094,0.7558802962303162,-0.27217137813568115,0.570947527885437],"scale":[1,1,0.9999999403953552],"translation":[4.076245307922363,5.903861999511719,-1.0054539442062378]},{"mesh":0,"name":"vsn_mesh_1_Eye","skin":0},{"children":[5,30,31],"name":"Armature_pm0117_00","rotation":[-0.7071068286895752,0,0,0.7071068286895752]},{"children":[6],"name":"Armature_Origin"},{"children":[7,25,29],"name":"Armature_Waist","translation":[0,49.86595916748047,8.794716835021973]},{"children":[8,14,19,24],"name":"Armature_Spine"},{"children":[9,12,13],"name":"Armature_Head","translation":[0.000006067079993954394,19.327049255371094,3.113204002380371]},{"children":[10],"name":"Armature_Nose1","translation":[0.0000033009200706146657,10.515296936035156,19.201887130737305]},{"children":[11],"name":"Armature_Nose2","translation":[-4.0062968764686957e-7,-1.2762451171875,8.61842155456543]},{"name":"Armature_Nose3","translation":[-4.983103281119838e-7,-1.5873489379882812,10.719413757324219]},{"name":"Armature_LEar","translation":[16.04660415649414,15.618072509765625,-2.4058303833007812]},{"name":"Armature_REar","translation":[-16.04659652709961,15.618110656738281,-2.4058284759521484]},{"children":[15],"name":"Armature_LFeelerA1","translation":[12.809380531311035,13.790325164794922,0.611821174621582]},{"children":[16,17,18],"name":"Armature_LFeelerA2","rotation":[0,1.7763568394002505e-15,0,1],"translation":[10.897208213806152,4.133075714111328,-12.254591941833496]},{"name":"Armature_LFeelerB","rotation":[0,-1.7763568394002505e-15,0,1],"translation":[10.376239776611328,4.1840362548828125,-12.2140474319458]},{"name":"Armature_LFeelerC","translation":[6.643680572509766,16.208251953125,-9.471216201782227]},{"name":"Armature_LFeelerD","rotation":[0,1.7763568394002505e-15,0,1],"translation":[11.784378051757812,-8.795246124267578,-13.132246971130371]},{"children":[20],"name":"Armature_RFeelerA1","translation":[-12.809391021728516,13.79034423828125,0.6118345260620117]},{"children":[21,22,23],"name":"Armature_RFeelerA2","translation":[-10.897199630737305,4.133087158203125,-12.254594802856445]},{"name":"Armature_RFeelerB","rotation":[0,3.552713678800501e-15,0,1],"translation":[-10.376199722290039,4.18402099609375,-12.214056015014648]},{"name":"Armature_RFeelerC","rotation":[0,-1.7763568394002505e-15,0,1],"translation":[-6.643711090087891,16.208213806152344,-9.471256256103516]},{"name":"Armature_RFeelerD","translation":[-11.784399032592773,-8.795211791992188,-13.132257461547852]},{"name":"Armature_FeelerB","translation":[0.000006728730113536585,21.448348999023438,-7.203222751617432]},{"children":[26],"name":"Armature_Hips"},{"children":[27],"name":"Armature_Tail1","translation":[-0.000006777239832445048,-9.807937622070312,-10.482735633850098]},{"children":[28],"name":"Armature_Tail2","scale":[1,0.9999999403953552,1],"translation":[-0.000009840860002441332,-15.217401504516602,-3.252182960510254]},{"name":"Armature_Tail3","rotation":[0,-2.710505431213761e-20,0,1],"translation":[-0.000008682402039994486,-14.32004165649414,8.097825050354004]},{"name":"Armature_FeelerA","translation":[-5.622509888780769e-7,-1.7910690307617188,8.697623252868652]},{"name":"Armature_pm0117_00_BodySkin"},{"name":"Armature_pm0117_00_IrisSkin"}],"samplers":[{}],"scene":0,"scenes":[{"name":"Scene","nodes":[0,2,1]}],"skins":[{"inverseBindMatrices":0,"joints":[4,5,6,7,8,9,10,11,12,13,14,15,16,17,18,19,20,21,22,23,24,25,26,27,28,29,30,31],"skeleton":0}],"textures":[{"sampler":0,"source":0},{"sampler":0,"source":1}],"extensionsUsed":["ALI_amc_mesh_compression"],"extensionsRequired":["ALI_amc_mesh_compression"]}