{
    "accessors" : [
        {
            "bufferView" : 0,
            "componentType" : 5123,
            "count" : 14640,
            "max" : [
                3476
            ],
            "min" : [
                0
            ],
            "type" : "SCALAR"
        },
        {
            "bufferView" : 1,
            "componentType" : 5126,
            "count" : 3477,
            "max" : [
                63.92905044555664,
                60.49375915527344,
                0.479422003030777
            ],
            "min" : [
                -63.92905044555664,
                -52.29951858520508,
                -121.9968032836914
            ],
            "type" : "VEC3"
        },
        {
            "bufferView" : 2,
            "componentType" : 5126,
            "count" : 3477,
            "max" : [
                0.999969482421875,
                0.9981383681297302,
                0.999359130859375
            ],
            "min" : [
                -0.999969482421875,
                -0.9989013075828552,
                -0.9988707900047302
            ],
            "type" : "VEC3"
        },
        {
            "bufferView" : 3,
            "componentType" : 5126,
            "count" : 3477,
            "max" : [
                1.0,
                0.9997920393943787,
                0.9999986290931702,
                1.0
            ],
            "min" : [
                -0.9999542236328125,
                -0.9997920989990234,
                -0.9999986290931702,
                1.0
            ],
            "type" : "VEC4"
        },
        {
            "bufferView" : 4,
            "componentType" : 5126,
            "count" : 3477,
            "max" : [
                0.9954439997673035,
                0.9947750568389893
            ],
            "min" : [
                0.004556000232696533,
                0.006443977355957031
            ],
            "type" : "VEC2"
        },
        {
            "bufferView" : 5,
            "componentType" : 5126,
            "count" : 3477,
            "max" : [
                1.0,
                1.0,
                1.0,
                1.0
            ],
            "min" : [
                1.0,
                1.0,
                1.0,
                1.0
            ],
            "type" : "VEC4"
        },
        {
            "bufferView" : 6,
            "componentType" : 5126,
            "count" : 3477,
            "max" : [
                1.0,
                1.0,
                1.0,
                1.0
            ],
            "min" : [
                1.0,
                1.0,
                1.0,
                1.0
            ],
            "type" : "VEC4"
        },
        {
            "bufferView" : 7,
            "componentType" : 5123,
            "count" : 3477,
            "max" : [
                24,
                24,
                25,
                25
            ],
            "min" : [
                3,
                0,
                0,
                0
            ],
            "type" : "VEC4"
        },
        {
            "bufferView" : 8,
            "componentType" : 5126,
            "count" : 3477,
            "max" : [
                1.0,
                0.9882352948188782,
                0.9490196108818054,
                0.9490196108818054
            ],
            "min" : [
                0.011764699593186378,
                0.0,
                0.0,
                0.0
            ],
            "type" : "VEC4"
        },
        {
            "bufferView" : 9,
            "componentType" : 5123,
            "count" : 876,
            "max" : [
                169
            ],
            "min" : [
                0
            ],
            "type" : "SCALAR"
        },
        {
            "bufferView" : 10,
            "componentType" : 5126,
            "count" : 170,
            "max" : [
                17.014970779418945,
                32.73295974731445,
                -80.05313110351562
            ],
            "min" : [
                -17.014970779418945,
                12.274880409240723,
                -102.56069946289062
            ],
            "type" : "VEC3"
        },
        {
            "bufferView" : 11,
            "componentType" : 5126,
            "count" : 170,
            "max" : [
                0.9895016551017761,
                0.8193609714508057,
                0.23645740747451782
            ],
            "min" : [
                -0.9895016551017761,
                0.10473952442407608,
                -0.7160252928733826
            ],
            "type" : "VEC3"
        },
        {
            "bufferView" : 12,
            "componentType" : 5126,
            "count" : 170,
            "max" : [
                0.7502159476280212,
                0.9749841094017029,
                0.34610164165496826,
                1.0
            ],
            "min" : [
                0.12185928970575333,
                -0.9749841094017029,
                -0.34610164165496826,
                1.0
            ],
            "type" : "VEC4"
        },
        {
            "bufferView" : 13,
            "componentType" : 5126,
            "count" : 170,
            "max" : [
                0.491067111492157,
                -0.7872389554977417
            ],
            "min" : [
                0.008933006785809994,
                -0.9693969488143921
            ],
            "type" : "VEC2"
        },
        {
            "bufferView" : 14,
            "componentType" : 5126,
            "count" : 170,
            "max" : [
                1.0,
                1.0,
                1.0,
                1.0
            ],
            "min" : [
                1.0,
                1.0,
                1.0,
                1.0
            ],
            "type" : "VEC4"
        },
        {
            "bufferView" : 15,
            "componentType" : 5126,
            "count" : 170,
            "max" : [
                1.0,
                1.0,
                1.0,
                1.0
            ],
            "min" : [
                1.0,
                1.0,
                1.0,
                1.0
            ],
            "type" : "VEC4"
        },
        {
            "bufferView" : 16,
            "componentType" : 5123,
            "count" : 170,
            "max" : [
                4,
                5,
                0,
                0
            ],
            "min" : [
                4,
                0,
                0,
                0
            ],
            "type" : "VEC4"
        },
        {
            "bufferView" : 17,
            "componentType" : 5126,
            "count" : 170,
            "max" : [
                1.0,
                0.047058820724487305,
                0.0,
                0.0
            ],
            "min" : [
                0.9529411792755127,
                0.0,
                0.0,
                0.0
            ],
            "type" : "VEC4"
        },
        {
            "bufferView" : 18,
            "componentType" : 5126,
            "count" : 28,
            "max" : [
                1.0,
                0.0,
                7.105427357601002e-15,
                0.0,
                3.552713678800501e-15,
                0.0,
                1.0,
                0.0,
                0.0,
                -1.0,
                0.0,
                0.0,
                35.490989685058594,
                0.0,
                15.980300903320312,
                1.0
            ],
            "min" : [
                1.0,
                0.0,
                -3.552713678800501e-15,
                0.0,
                -7.105427357601002e-15,
                0.0,
                1.0,
                0.0,
                0.0,
                -1.0000001192092896,
                0.0,
                0.0,
                -35.490966796875,
                -84.81111907958984,
                -50.4476432800293,
                1.0
            ],
            "type" : "MAT4"
        }
    ],
    "asset" : {
        "generator" : "Khronos Blender glTF 2.0 exporter",
        "version" : "2.0"
    },
    "bufferViews" : [
        {
            "buffer" : 0,
            "byteLength" : 29280,
            "byteOffset" : 0,
            "target" : 34963
        },
        {
            "buffer" : 0,
            "byteLength" : 41724,
            "byteOffset" : 29280,
            "target" : 34962
        },
        {
            "buffer" : 0,
            "byteLength" : 41724,
            "byteOffset" : 71004,
            "target" : 34962
        },
        {
            "buffer" : 0,
            "byteLength" : 55632,
            "byteOffset" : 112728,
            "target" : 34962
        },
        {
            "buffer" : 0,
            "byteLength" : 27816,
            "byteOffset" : 168360,
            "target" : 34962
        },
        {
            "buffer" : 0,
            "byteLength" : 55632,
            "byteOffset" : 196176,
            "target" : 34962
        },
        {
            "buffer" : 0,
            "byteLength" : 55632,
            "byteOffset" : 251808,
            "target" : 34962
        },
        {
            "buffer" : 0,
            "byteLength" : 27816,
            "byteOffset" : 307440,
            "target" : 34962
        },
        {
            "buffer" : 0,
            "byteLength" : 55632,
            "byteOffset" : 335256,
            "target" : 34962
        },
        {
            "buffer" : 0,
            "byteLength" : 1752,
            "byteOffset" : 390888,
            "target" : 34963
        },
        {
            "buffer" : 0,
            "byteLength" : 2040,
            "byteOffset" : 392640,
            "target" : 34962
        },
        {
            "buffer" : 0,
            "byteLength" : 2040,
            "byteOffset" : 394680,
            "target" : 34962
        },
        {
            "buffer" : 0,
            "byteLength" : 2720,
            "byteOffset" : 396720,
            "target" : 34962
        },
        {
            "buffer" : 0,
            "byteLength" : 1360,
            "byteOffset" : 399440,
            "target" : 34962
        },
        {
            "buffer" : 0,
            "byteLength" : 2720,
            "byteOffset" : 400800,
            "target" : 34962
        },
        {
            "buffer" : 0,
            "byteLength" : 2720,
            "byteOffset" : 403520,
            "target" : 34962
        },
        {
            "buffer" : 0,
            "byteLength" : 1360,
            "byteOffset" : 406240,
            "target" : 34962
        },
        {
            "buffer" : 0,
            "byteLength" : 2720,
            "byteOffset" : 407600,
            "target" : 34962
        },
        {
            "buffer" : 0,
            "byteLength" : 1792,
            "byteOffset" : 410320
        }
    ],
    "buffers" : [
        {
            "byteLength" : 412112,
            "uri" : "origin.bin"
        }
    ],
    "images" : [
        {
            "name" : "pm0117_00_Body1",
            "uri" : "pm0117_00_Body1.png"
        },
        {
            "name" : "pm0117_00_Eye1",
            "uri" : "pm0117_00_Eye1.png"
        }
    ],
    "materials" : [
        {
            "name" : "BodyTattu01_mat",
            "pbrMetallicRoughness" : {
                "baseColorFactor" : [
                    0.6400000190734865,
                    0.6400000190734865,
                    0.6400000190734865,
                    1.0
                ],
                "baseColorTexture" : {
                    "index" : 0
                },
                "metallicFactor" : 0.0
            }
        },
        {
            "name" : "Eye_mat",
            "pbrMetallicRoughness" : {
                "baseColorFactor" : [
                    0.6400000190734865,
                    0.6400000190734865,
                    0.6400000190734865,
                    1.0
                ],
                "baseColorTexture" : {
                    "index" : 1
                },
                "metallicFactor" : 0.0
            }
        }
    ],
    "meshes" : [
        {
            "name" : "mesh_1_Eye",
            "primitives" : [
                {
                    "attributes" : {
                        "COLOR_0" : 5,
                        "COLOR_1" : 6,
                        "JOINTS_0" : 7,
                        "NORMAL" : 2,
                        "POSITION" : 1,
                        "TANGENT" : 3,
                        "TEXCOORD_0" : 4,
                        "WEIGHTS_0" : 8
                    },
                    "indices" : 0,
                    "material" : 0
                },
                {
                    "attributes" : {
                        "COLOR_0" : 14,
                        "COLOR_1" : 15,
                        "JOINTS_0" : 16,
                        "NORMAL" : 11,
                        "POSITION" : 10,
                        "TANGENT" : 12,
                        "TEXCOORD_0" : 13,
                        "WEIGHTS_0" : 17
                    },
                    "indices" : 9,
                    "material" : 1
                }
            ]
        }
    ],
    "nodes" : [
        {
            "children" : [
                3,
                4
            ],
            "name" : "Armature",
            "rotation" : [
                0.7071068286895752,
                0.0,
                -0.0,
                0.7071067094802856
            ]
        },
        {
            "name" : "Camera",
            "rotation" : [
                0.483536034822464,
                0.33687159419059753,
                -0.20870360732078552,
                0.7804827094078064
            ],
            "translation" : [
                7.481131553649902,
                5.34366512298584,
                6.5076398849487305
            ]
        },
        {
            "name" : "Lamp",
            "rotation" : [
                0.16907575726509094,
                0.7558802962303162,
                -0.27217137813568115,
                0.570947527885437
            ],
            "scale" : [
                1.0,
                1.0,
                0.9999999403953552
            ],
            "translation" : [
                4.076245307922363,
                5.903861999511719,
                -1.0054539442062378
            ]
        },
        {
            "mesh" : 0,
            "name" : "vsn_mesh_1_Eye",
            "skin" : 0
        },
        {
            "children" : [
                5,
                30,
                31
            ],
            "name" : "Armature_pm0117_00",
            "rotation" : [
                -0.7071068286895752,
                0.0,
                0.0,
                0.7071068286895752
            ]
        },
        {
            "children" : [
                6
            ],
            "name" : "Armature_Origin"
        },
        {
            "children" : [
                7,
                25,
                29
            ],
            "name" : "Armature_Waist",
            "translation" : [
                0.0,
                49.86595916748047,
                8.794716835021973
            ]
        },
        {
            "children" : [
                8,
                14,
                19,
                24
            ],
            "name" : "Armature_Spine"
        },
        {
            "children" : [
                9,
                12,
                13
            ],
            "name" : "Armature_Head",
            "translation" : [
                6.067079993954394e-06,
                19.327049255371094,
                3.113204002380371
            ]
        },
        {
            "children" : [
                10
            ],
            "name" : "Armature_Nose1",
            "translation" : [
                3.3009200706146657e-06,
                10.515296936035156,
                19.201887130737305
            ]
        },
        {
            "children" : [
                11
            ],
            "name" : "Armature_Nose2",
            "translation" : [
                -4.0062968764686957e-07,
                -1.2762451171875,
                8.61842155456543
            ]
        },
        {
            "name" : "Armature_Nose3",
            "translation" : [
                -4.983103281119838e-07,
                -1.5873489379882812,
                10.719413757324219
            ]
        },
        {
            "name" : "Armature_LEar",
            "translation" : [
                16.04660415649414,
                15.618072509765625,
                -2.4058303833007812
            ]
        },
        {
            "name" : "Armature_REar",
            "translation" : [
                -16.04659652709961,
                15.618110656738281,
                -2.4058284759521484
            ]
        },
        {
            "children" : [
                15
            ],
            "name" : "Armature_LFeelerA1",
            "translation" : [
                12.809380531311035,
                13.790325164794922,
                0.611821174621582
            ]
        },
        {
            "children" : [
                16,
                17,
                18
            ],
            "name" : "Armature_LFeelerA2",
            "rotation" : [
                0.0,
                1.7763568394002505e-15,
                0.0,
                1.0
            ],
            "translation" : [
                10.897208213806152,
                4.133075714111328,
                -12.254591941833496
            ]
        },
        {
            "name" : "Armature_LFeelerB",
            "rotation" : [
                0.0,
                -1.7763568394002505e-15,
                0.0,
                1.0
            ],
            "translation" : [
                10.376239776611328,
                4.1840362548828125,
                -12.2140474319458
            ]
        },
        {
            "name" : "Armature_LFeelerC",
            "translation" : [
                6.643680572509766,
                16.208251953125,
                -9.471216201782227
            ]
        },
        {
            "name" : "Armature_LFeelerD",
            "rotation" : [
                0.0,
                1.7763568394002505e-15,
                0.0,
                1.0
            ],
            "translation" : [
                11.784378051757812,
                -8.795246124267578,
                -13.132246971130371
            ]
        },
        {
            "children" : [
                20
            ],
            "name" : "Armature_RFeelerA1",
            "translation" : [
                -12.809391021728516,
                13.79034423828125,
                0.6118345260620117
            ]
        },
        {
            "children" : [
                21,
                22,
                23
            ],
            "name" : "Armature_RFeelerA2",
            "translation" : [
                -10.897199630737305,
                4.133087158203125,
                -12.254594802856445
            ]
        },
        {
            "name" : "Armature_RFeelerB",
            "rotation" : [
                0.0,
                3.552713678800501e-15,
                0.0,
                1.0
            ],
            "translation" : [
                -10.376199722290039,
                4.18402099609375,
                -12.214056015014648
            ]
        },
        {
            "name" : "Armature_RFeelerC",
            "rotation" : [
                0.0,
                -1.7763568394002505e-15,
                0.0,
                1.0
            ],
            "translation" : [
                -6.643711090087891,
                16.208213806152344,
                -9.471256256103516
            ]
        },
        {
            "name" : "Armature_RFeelerD",
            "translation" : [
                -11.784399032592773,
                -8.795211791992188,
                -13.132257461547852
            ]
        },
        {
            "name" : "Armature_FeelerB",
            "translation" : [
                6.728730113536585e-06,
                21.448348999023438,
                -7.203222751617432
            ]
        },
        {
            "children" : [
                26
            ],
            "name" : "Armature_Hips"
        },
        {
            "children" : [
                27
            ],
            "name" : "Armature_Tail1",
            "translation" : [
                -6.777239832445048e-06,
                -9.807937622070312,
                -10.482735633850098
            ]
        },
        {
            "children" : [
                28
            ],
            "name" : "Armature_Tail2",
            "scale" : [
                1.0,
                0.9999999403953552,
                1.0
            ],
            "translation" : [
                -9.840860002441332e-06,
                -15.217401504516602,
                -3.252182960510254
            ]
        },
        {
            "name" : "Armature_Tail3",
            "rotation" : [
                0.0,
                -2.710505431213761e-20,
                0.0,
                1.0
            ],
            "translation" : [
                -8.682402039994486e-06,
                -14.32004165649414,
                8.097825050354004
            ]
        },
        {
            "name" : "Armature_FeelerA",
            "translation" : [
                -5.622509888780769e-07,
                -1.7910690307617188,
                8.697623252868652
            ]
        },
        {
            "name" : "Armature_pm0117_00_BodySkin"
        },
        {
            "name" : "Armature_pm0117_00_IrisSkin"
        }
    ],
    "samplers" : [
        {}
    ],
    "scene" : 0,
    "scenes" : [
        {
            "name" : "Scene",
            "nodes" : [
                0,
                2,
                1
            ]
        }
    ],
    "skins" : [
        {
            "inverseBindMatrices" : 18,
            "joints" : [
                4,
                5,
                6,
                7,
                8,
                9,
                10,
                11,
                12,
                13,
                14,
                15,
                16,
                17,
                18,
                19,
                20,
                21,
                22,
                23,
                24,
                25,
                26,
                27,
                28,
                29,
                30,
                31
            ],
            "skeleton" : 0
        }
    ],
    "textures" : [
        {
            "sampler" : 0,
            "source" : 0
        },
        {
            "sampler" : 0,
            "source" : 1
        }
    ]
}
