{"accessors":[{"bufferView":0,"componentType":5126,"count":87,"max":[0.9997830390930176,7.725671480329765e-8,0.9997426867485046,0,0.0000011469460332591552,1.000000238418579,0.000001847249222919345,0,1,5.333359354153799e-7,0.9997830390930176,0,84.8856430053711,70.29471588134766,162.22666931152344,1],"min":[-0.9999999403953552,-5.224898202982331e-8,-1,0,-4.3301437813170196e-7,1,-0.0000010192381978413323,0,-0.9997426867485046,-0.000001886987547550234,-0.9999999403953552,0,-186.0586395263672,-16.907426834106445,-190.1273651123047,1],"type":"MAT4","byteOffset":0}],"asset":{"generator":"Khronos Blender glTF 2.0 exporter","version":"2.0"},"bufferViews":[{"buffer":0,"byteLength":5568,"byteOffset":0},{"buffer":0,"byteOffset":5568,"byteLength":2235},{"buffer":0,"byteOffset":7803,"byteLength":60837},{"buffer":0,"byteOffset":68640,"byteLength":2235},{"buffer":0,"byteOffset":70875,"byteLength":2235},{"buffer":0,"byteOffset":73110,"byteLength":108481}],"buffers":[{"byteLength":181591,"uri":"buffer.bin"}],"images":[{"name":"pm0085_01_Body1","uri":"pm0085_01_Body1.png"},{"name":"pm0085_00_Eye1","uri":"pm0085_00_Eye1.png"}],"materials":[{"alphaMode":"OPAQUE","name":"Body","pbrMetallicRoughness":{"baseColorFactor":[0.6400000190734865,0.6400000190734865,0.6400000190734865,1],"baseColorTexture":{"index":0},"metallicFactor":0}},{"alphaMode":"OPAQUE","name":"BodyFur","pbrMetallicRoughness":{"baseColorFactor":[0.6400000190734865,0.6400000190734865,0.6400000190734865,1],"baseColorTexture":{"index":0},"metallicFactor":0}},{"alphaMode":"OPAQUE","name":"EyeA","pbrMetallicRoughness":{"baseColorFactor":[0.6400000190734865,0.6400000190734865,0.6400000190734865,1],"baseColorTexture":{"index":2},"metallicFactor":0}},{"alphaMode":"OPAQUE","name":"EyeB","pbrMetallicRoughness":{"baseColorFactor":[0.6400000190734865,0.6400000190734865,0.6400000190734865,1],"baseColorTexture":{"index":2},"metallicFactor":0}},{"alphaMode":"OPAQUE","name":"EyeC","pbrMetallicRoughness":{"baseColorFactor":[0.6400000190734865,0.6400000190734865,0.6400000190734865,1],"baseColorTexture":{"index":2},"metallicFactor":0}}],"meshes":[{"name":"DodrioF","primitives":[{"material":3,"extensions":{"ALI_amc_mesh_compression":{"bufferView":1}}},{"material":1,"extensions":{"ALI_amc_mesh_compression":{"bufferView":2}}},{"material":2,"extensions":{"ALI_amc_mesh_compression":{"bufferView":3}}},{"material":4,"extensions":{"ALI_amc_mesh_compression":{"bufferView":4}}},{"material":0,"extensions":{"ALI_amc_mesh_compression":{"bufferView":5}}}]}],"nodes":[{"name":"Camera","rotation":[0.483536034822464,0.33687159419059753,-0.20870360732078552,0.7804827094078064],"translation":[7.481131553649902,5.34366512298584,6.5076398849487305]},{"mesh":0,"name":"DodrioF","rotation":[-0.7071065902709961,0,0,0.7071069478988647],"skin":0},{"name":"EndHairA","translation":[7.819443225860596,0,0]},{"name":"EndHairB","translation":[7.819443225860596,0.000003814699994109105,0.0000019073499970545527]},{"name":"EndHairC","translation":[7.818999767303467,0.000003814699994109105,0.0000019073499970545527]},{"name":"EndHeadA","translation":[25.60770034790039,0,2.9103799231711136e-11]},{"name":"EndHeadB","translation":[29.163890838623047,-0.0000019073499970545527,0.000003814699994109105]},{"name":"EndHeadC","translation":[29.163999557495117,-0.0000019073499970545527,0.000003814699994109105]},{"name":"EndLFoot","translation":[12.94851016998291,0,0.0000019073499970545527]},{"name":"EndLHairA","translation":[21.326509475708008,0.00001525879997643642,-0.000003814699994109105]},{"name":"EndLHairB","translation":[21.32649040222168,0,0]},{"name":"EndLHairC","translation":[21.326499938964844,-0.00007629390165675431,-0.00009155269799521193]},{"name":"EndLowerBeakA","translation":[35.089900970458984,0,0]},{"name":"EndLowerBeakB","translation":[35.089900970458984,0,0]},{"name":"EndLowerBeakC","translation":[35.089900970458984,0,0]},{"name":"EndLToeA2","translation":[12.678099632263184,0.0000014305099966804846,-9.536739753457368e-7]},{"name":"EndLToeB","translation":[11.731800079345703,-4.768369876728684e-7,0]},{"name":"EndLToeC2","translation":[12.486900329589844,0,9.536739753457368e-7]},{"name":"EndLToeD2","translation":[13.119810104370117,-9.536739753457368e-7,-4.768369876728684e-7]},{"name":"EndRFoot","translation":[12.948399543762207,0,9.536739753457368e-7]},{"name":"EndRHairA","translation":[21.32649040222168,-0.00006103519990574569,-0.000011444099982327316]},{"name":"EndRHairB","translation":[21.32649040222168,-0.00007629390165675431,-0.000045776399929309264]},{"name":"EndRHairC","translation":[21.326480865478516,-0.00006103519990574569,0.00003051759995287284]},{"name":"EndRToeA2","translation":[12.678000450134277,-0.000020980800400138833,-0.000004768370217789197]},{"name":"EndRToeB","translation":[11.731800079345703,-0.000006198879873409169,0]},{"name":"EndRToeC2","translation":[12.487000465393066,0.000014782000107516069,0.000011444099982327316]},{"name":"EndRToeD2","translation":[13.119799613952637,-9.536739753457368e-7,0.000010013600331149064]},{"name":"EndTail3","translation":[21.203290939331055,-9.536739753457368e-7,0]},{"name":"EndTongueA","translation":[12.486410140991211,0.00001525879997643642,1.1641500263781523e-10]},{"name":"EndTongueB","translation":[12.48639965057373,-0.00001525879997643642,0.0000019073499970545527]},{"name":"EndTongueC","translation":[12.486410140991211,-0.00009155269799521193,0]},{"name":"EndUpperBeakA","translation":[42.778221130371094,0.00001525879997643642,0]},{"name":"EndUpperBeakB","translation":[42.7782096862793,0,0]},{"name":"EndUpperBeakC","translation":[42.77840042114258,-0.0007019040058366954,9.536739753457368e-7]},{"name":"EndWaist","translation":[19.91670036315918,2.3841900542720396e-7,0]},{"name":"EnvironmentAmbientLight","scale":[0.02539999969303608,0.02539999969303608,0.02539999969303608]},{"name":"Lamp","rotation":[0.16907575726509094,0.7558802962303162,-0.27217137813568115,0.570947527885437],"scale":[1,1,0.9999999403953552],"translation":[4.076245307922363,5.903861999511719,-1.0054539442062378]},{"children":[1,43],"name":"Origin"},{"name":"pm0085_00_BodySkin"},{"children":[37,41,42],"name":"pm0085_00_dodorio","rotation":[0.7071065902709961,0,0,0.7071069478988647],"scale":[0.02539999969303608,0.02539999969303608,0.02539999969303608]},{"name":"pm0085_01_BodySkin"},{"children":[38],"name":"VriTex00"},{"children":[40],"name":"VriTex01"},{"children":[44,45,60,77,94,111,126],"name":"Origin_Waist","rotation":[-0.49999919533729553,-0.5000008940696716,0.5000008940696716,0.49999919533729553],"scale":[1,0.9999999403953552,1],"translation":[2.9416816205163343e-10,99.52040100097656,-1.5310312509536743]},{"name":"Origin_EndWaist","rotation":[0,-1.1368683772161603e-13,0,1],"translation":[19.916702270507812,0.000005841255187988281,0.000007122769602574408]},{"children":[46],"name":"Origin_LThigh","rotation":[0,-0.999916672706604,0,0.01290934719145298],"translation":[-14.858309745788574,-1.2233753204345703,-9.75180435180664]},{"children":[47],"name":"Origin_LLeg","rotation":[0,-0.031163446605205536,0,0.9995143413543701],"translation":[39.04263687133789,1.008551836013794,1.0082197189331055]},{"children":[48,49,52,54,57],"name":"Origin_LFoot","rotation":[0,-0.7015373706817627,0,0.7126327157020569],"scale":[0.9999999403953552,1,0.9999999403953552],"translation":[37.52373504638672,-1.3718630075454712,-1.3709511756896973]},{"name":"Origin_EndLFoot","rotation":[0,-8.381903171539307e-9,0,1],"scale":[1,0.9999999403953552,1],"translation":[0.00002302229404449463,-12.948512077331543,-0.000013977289199829102]},{"children":[50],"name":"Origin_LToeA1","rotation":[0,0.05620087683200836,0,0.9984195828437805],"scale":[0.9999999403953552,0.9999999403953552,0.9999999403953552],"translation":[-0.2764216959476471,-4.345886707305908,-4.111182689666748]},{"children":[51],"name":"Origin_LToeA2","rotation":[0,0.06401918083429337,0,0.9979487061500549],"scale":[1.0000001192092896,1,1.0000001192092896],"translation":[0.10071349143981934,-8.635995864868164,-0.7918820977210999]},{"name":"Origin_EndLToeA2","rotation":[-1.768336125604022e-16,1.4901161193847656e-8,2.676826227343554e-8,1],"translation":[0.6434682607650757,-12.371796607971191,-2.6942543983459473]},{"children":[53],"name":"Origin_LToeB","rotation":[0,0.21974636614322662,0,0.9755570292472839],"scale":[1,0.9999999403953552,1],"translation":[-0.2547347843647003,5.360246181488037,-3.6505126953125]},{"name":"Origin_EndLToeB","scale":[1,0.9999999403953552,1],"translation":[1.970569133758545,10.70124340057373,-4.385822772979736]},{"children":[55],"name":"Origin_LToeC1","rotation":[0,0.04135780408978462,0,0.999144434928894],"scale":[0.9999998807907104,0.9999999403953552,0.9999998807907104],"translation":[7.094263553619385,-3.214306592941284,-4.111172676086426]},{"children":[56],"name":"Origin_LToeC2","rotation":[0,0.09857773035764694,0,0.9951293468475342],"scale":[0.9999999403953552,1,0.9999999403953552],"translation":[3.2883689403533936,-6.218897819519043,-0.23406314849853516]},{"name":"Origin_EndLToeC2","rotation":[0,7.450580596923828e-9,0,1],"translation":[6.231028079986572,-10.688440322875977,-1.6894564628601074]},{"children":[58],"name":"Origin_LToeD1","rotation":[0,0.05933861806988716,0,0.9982379078865051],"scale":[0.9999998807907104,0.9999999403953552,0.9999998807907104],"translation":[-6.366716384887695,-4.353618144989014,-4.111207962036133]},{"children":[59],"name":"Origin_LToeD2","rotation":[3.562333716899957e-8,0.06155092641711235,2.1968147301265617e-9,0.9981039762496948],"scale":[0.9999999403953552,1,0.9999999403953552],"translation":[-2.3043923377990723,-5.0737128257751465,-0.5330600738525391]},{"name":"Origin_EndLToeD2","rotation":[-3.5691002153726004e-8,-7.450580596923828e-9,-1.6653345369377348e-16,1],"scale":[1,0.9999999403953552,1],"translation":[-4.6775970458984375,-11.680330276489258,-3.7174508571624756]},{"children":[61],"name":"Origin_NeckA1","rotation":[0,-1.1368683772161603e-13,0,1],"translation":[13.866996765136719,-15.057499885559082,0.000004959241778124124]},{"children":[62],"name":"Origin_NeckA2","translation":[15.054008483886719,0.000003814697265625,0.000005383735697250813]},{"children":[63],"name":"Origin_NeckA3","translation":[14.346893310546875,0.00000286102294921875,0.00000513084523845464]},{"children":[64,65,71,75],"name":"Origin_HeadA","rotation":[-5.446015817131555e-13,0,0,1],"translation":[14.146102905273438,0.000003814697265625,0.0000050590315368026495]},{"name":"Origin_EndHeadA","rotation":[2.178406326852622e-12,0,-2.0679515313825692e-25,1],"translation":[25.607696533203125,0.00000667572021484375,0.000009158029570244253]},{"children":[66,67,69],"name":"Origin_HairA","rotation":[2.178406326852622e-12,0,-2.0679515313825692e-25,1],"translation":[19.3795166015625,-10.790398597717285,0.000006930585186637472]},{"name":"Origin_EndHairA","rotation":[-1.3615040084929975e-12,5.83076305066179e-19,3.5691010680238833e-7,1],"translation":[7.8194427490234375,-3.552713678800501e-15,0.000002796491799017531]},{"children":[68],"name":"Origin_LHairA","rotation":[-1.5873752090556081e-7,0.5559436678886414,2.373366498886753e-7,0.8312199711799622],"translation":[11.491375923156738,8.65276050567627,-5.377841472625732]},{"name":"Origin_EndLHairA","rotation":[7.138203272916144e-7,1.4901158529312397e-8,-2.8552813091664575e-7,1],"translation":[11.252986907958984,15.642127990722656,9.138631820678711]},{"children":[70],"name":"Origin_RHairA","rotation":[-6.9125242418977e-8,0.2420961558818817,2.7703424620995065e-7,0.970252275466919],"scale":[0.9999999403953552,1,0.9999999403953552],"translation":[11.49096965789795,8.652796745300293,5.377875328063965]},{"name":"Origin_EndRHairA","rotation":[3.295459608324003e-15,-1.4901161193847656e-8,1.7537376715767716e-15,1],"translation":[8.002729415893555,15.642162322998047,12.087109565734863]},{"children":[72,73],"name":"Origin_LowerBeakA","rotation":[1.34805545632527e-12,-0.7069834470748901,-1.347585237843063e-12,0.7072300910949707],"translation":[5.2801666259765625,-13.008301734924316,0.0000018881839878304163]},{"name":"Origin_EndLowerBeakA","rotation":[7.115904018328033e-24,0,1.3615018400886525e-12,1],"translation":[0.0000042101241888303775,-35.08990478515625,-0.012115397490561008]},{"children":[74],"name":"Origin_TongueA","rotation":[-1.9943978881442724e-22,-0.9987607002258301,3.2766079384115637e-19,0.04976999759674072],"translation":[0.0007365021738223732,2.570323944091797,-2.132904052734375]},{"name":"Origin_EndTongueA","rotation":[1.7726480527011383e-21,-1.4901161193847656e-8,2.895235541512166e-21,1],"translation":[0.12424807250499725,-12.424116134643555,-1.2394973039627075]},{"children":[76],"name":"Origin_UpperBeakA","rotation":[1.1179154390389412e-12,0.7292563915252686,1.1914628355105816e-12,0.6842405200004578],"translation":[9.419357299804688,-13.93999195098877,0.000003368476427567657]},{"name":"Origin_EndUpperBeakA","rotation":[3.2121931781148305e-7,-1.1175870895385742e-8,2.007620558686085e-8,1],"scale":[1,0.9999999403953552,1],"translation":[0.17321553826332092,-42.69152069091797,-2.716644048690796]},{"children":[78],"name":"Origin_NeckB1","rotation":[0,-1.1368683772161603e-13,0,1],"translation":[9.004300117492676,-15.057499885559082,-14.499996185302734]},{"children":[79],"name":"Origin_NeckB2","translation":[16.086200714111328,0.0000019073486328125,0.000008726230589672923]},{"children":[80],"name":"Origin_NeckB3","translation":[13.02550220489502,0.000003814697265625,0.0000028265349101275206]},{"children":[81,82,88,92],"name":"Origin_HeadB","translation":[10.879483222961426,0.0000019073486328125,0.000005137408152222633]},{"name":"Origin_EndHeadB","translation":[29.163890838623047,0.00001049041748046875,0.000006653426680713892]},{"children":[83,84,86],"name":"Origin_HairB","translation":[22.93581771850586,-10.790397644042969,0.000008640578016638756]},{"name":"Origin_EndHairB","translation":[7.81943941116333,-0.0000019073486328125,0.0000012720702216029167]},{"children":[85],"name":"Origin_LHairB","rotation":[0,0.6132413148880005,0,0.7898956537246704],"translation":[11.491403579711914,8.652822494506836,-5.377854824066162]},{"name":"Origin_EndLHairB","rotation":[0,1.4901161193847656e-8,0,1],"translation":[9.853626251220703,15.64212703704834,10.632466316223145]},{"children":[87],"name":"Origin_RHairB","rotation":[0,0.16251640021800995,0,0.9867058396339417],"scale":[0.9999999403953552,1,0.9999999403953552],"translation":[11.491302490234375,8.652752876281738,5.3778462409973145]},{"name":"Origin_EndRHairB","rotation":[0,-1.4901161193847656e-8,0,1],"translation":[9.853553771972656,15.642181396484375,10.632462501525879]},{"children":[89,90],"name":"Origin_LowerBeakB","rotation":[0,-0.7069834470748901,0,0.7072300910949707],"translation":[8.83654499053955,-13.008295059204102,0.000004819885361939669]},{"name":"Origin_EndLowerBeakB","translation":[0.000003721565008163452,-35.08990478515625,-0.012118545360863209]},{"children":[91],"name":"Origin_TongueB","rotation":[0,-0.9987605810165405,0,0.049772340804338455],"translation":[0.0007295385003089905,2.570302963256836,-2.1329376697540283]},{"name":"Origin_EndTongueB","rotation":[0,1.1175870895385742e-8,0,1],"scale":[1,0.9999999403953552,1],"translation":[0.12425506114959717,-12.424100875854492,-1.2395113706588745]},{"children":[93],"name":"Origin_UpperBeakB","rotation":[0,0.7292567491531372,0,0.6842401623725891],"translation":[13.177746772766113,-14.076700210571289,0.05071798339486122]},{"name":"Origin_EndUpperBeakB","rotation":[0,1.4901161193847656e-8,0,1],"scale":[1,0.9999999403953552,1],"translation":[0.17321395874023438,-42.691497802734375,-2.7166130542755127]},{"children":[95],"name":"Origin_NeckC1","rotation":[0,-1.1368683772161603e-13,0,1],"translation":[9.004595756530762,-15.057499885559082,14.499995231628418]},{"children":[96],"name":"Origin_NeckC2","translation":[16.085994720458984,0.000003814697265625,0.0000049115915317088366]},{"children":[97],"name":"Origin_NeckC3","translation":[13.025019645690918,0.0000019073486328125,0.000008550268830731511]},{"children":[98,99,105,109],"name":"Origin_HeadC","translation":[10.879992485046387,0.00000286102294921875,0.000011813128367066383]},{"name":"Origin_EndHeadC","translation":[29.164005279541016,0.00001049041748046875,0.000006653019227087498]},{"children":[100,101,103],"name":"Origin_HairC","translation":[22.936023712158203,-10.790297508239746,0.000008639937732368708]},{"name":"Origin_EndHairC","translation":[7.819003582000732,-0.000003814697265625,0.0000012728851288557053]},{"children":[102],"name":"Origin_LHairC","rotation":[0,0.16251640021800995,0,0.9867058396339417],"scale":[0.9999999403953552,1,0.9999999403953552],"translation":[11.491018295288086,8.652726173400879,5.377813816070557]},{"name":"Origin_EndLHairC","rotation":[0,-1.4901161193847656e-8,0,1],"translation":[9.853537559509277,15.642191886901855,10.632492065429688]},{"children":[104],"name":"Origin_RHairC","rotation":[0,0.6132413148880005,0,0.7898956537246704],"translation":[11.490982055664062,8.652689933776855,-5.377854824066162]},{"name":"Origin_EndRHairC","rotation":[-7.138200999179389e-7,-1.4901161193847656e-8,1.4276403703661344e-7,1],"translation":[9.853607177734375,15.642166137695312,10.632411003112793]},{"children":[106,107],"name":"Origin_LowerBeakC","rotation":[0,-0.7069834470748901,0,0.7072300910949707],"translation":[8.836047172546387,-13.008299827575684,-0.000007576192729175091]},{"name":"Origin_EndLowerBeakC","rotation":[2.9305618909347686e-7,0,2.7109951616921535e-8,1],"translation":[0.000006414949893951416,-35.08991241455078,-0.012127522379159927]},{"children":[108],"name":"Origin_TongueC","rotation":[4.128493102939501e-8,-0.9987607002258301,-2.8382501682244765e-7,0.0497705303132534],"translation":[0.0007408708333969116,2.5703296661376953,-2.1331145763397217]},{"name":"Origin_EndTongueC","rotation":[5.889014005333593e-7,2.6077040971017595e-8,8.365077519556507e-8,1],"scale":[1,0.9999999403953552,1],"translation":[0.12426016479730606,-12.42410659790039,-1.239600419998169]},{"children":[110],"name":"Origin_UpperBeakC","rotation":[0,0.7292582988739014,0,0.6842384934425354],"scale":[0.9999999403953552,1,0.9999999403953552],"translation":[13.177935600280762,-14.076594352722168,-0.05070432648062706]},{"name":"Origin_EndUpperBeakC","rotation":[0,-2.9802322387695312e-8,0,1],"scale":[1,0.9999999403953552,1],"translation":[0.17325496673583984,-42.69165802001953,-2.7173027992248535]},{"children":[112],"name":"Origin_RThigh","rotation":[0,-0.999916672706604,0,0.01290934719145298],"translation":[-14.858304023742676,-1.2233753204345703,9.75179386138916]},{"children":[113],"name":"Origin_RLeg","rotation":[0,-0.031163446605205536,0,0.9995143413543701],"translation":[39.04266357421875,1.0085570812225342,1.0082201957702637]},{"children":[114,115,118,120,123],"name":"Origin_RFoot","rotation":[0,-0.7015373706817627,0,0.7126327157020569],"scale":[0.9999999403953552,1,0.9999999403953552],"translation":[37.52373123168945,-1.3718663454055786,-1.3709495067596436]},{"name":"Origin_EndRFoot","rotation":[0,-7.450580596923828e-9,0,1],"scale":[1,0.9999999403953552,1],"translation":[0.000022143125534057617,-12.948402404785156,-0.000013872981071472168]},{"children":[116],"name":"Origin_RToeA1","rotation":[0,0.05668460205197334,0,0.9983922243118286],"scale":[1,0.9999999403953552,1],"translation":[0.27644145488739014,-4.345895767211914,-4.111183166503906]},{"children":[117],"name":"Origin_RToeA2","rotation":[0,0.06402063369750977,0,0.9979485869407654],"scale":[0.9999998807907104,1,0.9999998807907104],"translation":[0.04605519771575928,-8.636033058166504,-0.7969284057617188]},{"name":"Origin_EndRToeA2","rotation":[0,-1.4901161193847656e-8,0,1],"translation":[0.5667345523834229,-12.37169361114502,-2.7114365100860596]},{"children":[119],"name":"Origin_RToeB","rotation":[0,0.2197462022304535,0,0.9755570888519287],"scale":[0.9999999403953552,0.9999999403953552,0.9999999403953552],"translation":[0.2547239661216736,5.360235691070557,-3.650514841079712]},{"name":"Origin_EndRToeB","rotation":[0,1.4901161193847656e-8,0,1],"scale":[1,0.9999999403953552,1],"translation":[1.9705703258514404,10.701240539550781,-4.385829448699951]},{"children":[121],"name":"Origin_RToeC1","rotation":[0,0.041777223348617554,0,0.9991269707679749],"scale":[0.9999999403953552,0.9999999403953552,0.9999999403953552],"translation":[-7.09428596496582,-3.2143490314483643,-4.1111931800842285]},{"children":[122],"name":"Origin_RToeC2","rotation":[0,0.10251782089471817,0,0.9947312474250793],"translation":[-3.233668565750122,-6.218874931335449,-0.6411089897155762]},{"name":"Origin_EndRToeC2","translation":[-4.533496379852295,-10.688533782958984,-4.596524715423584]},{"children":[124],"name":"Origin_RToeD1","rotation":[0,0.028805097565054893,0,0.9995850920677185],"scale":[0.9999999403953552,0.9999999403953552,0.9999999403953552],"translation":[6.3667426109313965,-4.353595733642578,-4.111196041107178]},{"children":[125],"name":"Origin_RToeD2","rotation":[0,0.07689588516950607,0,0.9970391988754272],"scale":[0.9999998807907104,0.9999999403953552,0.9999998807907104],"translation":[2.3551056385040283,-5.0737128257751465,-0.21874789893627167]},{"name":"Origin_EndRToeD2","rotation":[0,-1.4901161193847656e-8,0,1],"translation":[5.774527549743652,-11.68033218383789,-1.5342522859573364]},{"children":[127],"name":"Origin_Tail1","rotation":[0,0.9978971481323242,0,0.06481731683015823],"translation":[-17.74341583251953,15.376397132873535,-0.000006345071597024798]},{"children":[128],"name":"Origin_Tail2","rotation":[0,0.05349549278616905,0,0.9985681176185608],"scale":[0.9999999403953552,1,0.9999999403953552],"translation":[20.023054122924805,-2.634232521057129,-2.612107753753662]},{"children":[129],"name":"Origin_Tail3","rotation":[0,0.029633115977048874,0,0.9995609521865845],"scale":[1,0.9999999403953552,1],"translation":[15.586779594421387,-0.35367488861083984,-0.3535747528076172]},{"name":"Origin_EndTail3","rotation":[0,1.862645149230957e-9,0,1],"translation":[21.17491340637207,0.7757558822631836,0.7752315998077393]}],"samplers":[{}],"scene":0,"scenes":[{"name":"Scene","nodes":[27,26,25,24,23,19,33,30,14,22,11,4,7,32,29,13,21,10,3,6,31,28,12,20,9,2,5,18,17,16,15,8,34,39,35,36,0]}],"skins":[{"inverseBindMatrices":0,"joints":[43,44,45,46,47,48,49,50,51,52,53,54,55,56,57,58,59,60,61,62,63,64,65,66,67,68,69,70,71,72,73,74,75,76,77,78,79,80,81,82,83,84,85,86,87,88,89,90,91,92,93,94,95,96,97,98,99,100,101,102,103,104,105,106,107,108,109,110,111,112,113,114,115,116,117,118,119,120,121,122,123,124,125,126,127,128,129],"skeleton":37}],"textures":[{"sampler":0,"source":0},{"sampler":0,"source":0},{"sampler":0,"source":1},{"sampler":0,"source":1},{"sampler":0,"source":1}],"extensionsUsed":["ALI_amc_mesh_compression"],"extensionsRequired":["ALI_amc_mesh_compression"]}