{"accessors":[{"bufferView":0,"componentType":5126,"count":74,"max":[0.000002849038537533488,-0.9999999403953552,0.0000037383308608696098,0,0.763150691986084,0.000003797592626142432,0.9999794960021973,0,0.9545392990112305,6.034955646327944e-9,0.763150691986084,0,43.49248504638672,30.840600967407227,24.838308334350586,1],"min":[-0.0000037734198485850357,-1.0000001192092896,-0.0000035666205349116353,0,-1.0000001192092896,0.0000037383681501523824,-0.9545391798019409,0,-0.9999796152114868,-6.902989291290851e-10,-1.0000001192092896,0,-67.57377624511719,-30.84063720703125,-45.186920166015625,1],"type":"MAT4","byteOffset":0}],"asset":{"generator":"Khronos Blender glTF 2.0 exporter","version":"2.0"},"bufferViews":[{"buffer":0,"byteLength":4736,"byteOffset":0},{"buffer":0,"byteOffset":4736,"byteLength":117765},{"buffer":0,"byteOffset":122501,"byteLength":1231}],"buffers":[{"byteLength":123732,"uri":"buffer.bin"}],"images":[{"name":"pm0069_00_Body1","uri":"pm0069_00_Body1.png"},{"name":"pm0069_00_Eye1","uri":"pm0069_00_Eye1.png"}],"materials":[{"alphaMode":"OPAQUE","name":"Body00","pbrMetallicRoughness":{"baseColorFactor":[0.6400000190734865,0.6400000190734865,0.6400000190734865,1],"baseColorTexture":{"index":0},"metallicFactor":0}},{"alphaMode":"OPAQUE","name":"Eye","pbrMetallicRoughness":{"baseColorFactor":[0.6400000190734865,0.6400000190734865,0.6400000190734865,1],"baseColorTexture":{"index":1},"metallicFactor":0}}],"meshes":[{"name":"Bellsprout","primitives":[{"material":0,"extensions":{"ALI_amc_mesh_compression":{"bufferView":1}}},{"material":1,"extensions":{"ALI_amc_mesh_compression":{"bufferView":2}}}]}],"nodes":[{"children":[1,26],"name":"_01_pm0069_00","rotation":[0.7071068286895752,0,0,0.7071067094802856],"scale":[0.02539999783039093,0.02539999969303608,0.02539999969303608]},{"children":[2],"name":"_02_Origin"},{"children":[27,30,68],"name":"_03_Waist","rotation":[0.04834439605474472,0.7054535746574402,0.04834422096610069,0.7054508924484253],"scale":[0.9999999403953552,1.0000001192092896,1],"translation":[0,-1.1763499975204468,-25.618799209594727]},{"name":"_05_EndHips","translation":[4.788361072540283,0,0]},{"name":"_12_EndLFoot2","translation":[4.397970199584961,-1.1920899822825959e-7,-9.536739753457368e-7]},{"name":"_16_EndLToeA3","translation":[3.050088882446289,9.536739753457368e-7,-9.536739753457368e-7]},{"name":"_18_EndLToeA4","translation":[2.5402801036834717,0,0.0000028610199933609692]},{"name":"_22_EndLToeB3","translation":[4.020771026611328,9.536739753457368e-7,0.0000028610199933609692]},{"name":"_29_EndRFoot2","translation":[3.9759299755096436,0.0000019073499970545527,-0.000025749199267011136]},{"name":"_31_EndRToeC","translation":[1.345960021018982,-3.576280107608909e-7,0.0000019073499970545527]},{"name":"_35_EndRToeA3","translation":[3.0500800609588623,0.000010728799679782242,-0.00003528589877532795]},{"name":"_39_EndRToeB3","translation":[2.3157310485839844,9.536739753457368e-7,0.00000667572021484375]},{"name":"_41_EndRToeB4","translation":[1.030817985534668,-4.768369876728684e-7,0]},{"name":"_49_EndLHand","translation":[5.875199794769287,0.000003814699994109105,1.1920899822825959e-7]},{"name":"_54_EndRHand","translation":[5.875125885009766,-0.00006484989717137069,-3.576280107608909e-7]},{"name":"_59_EndHead","translation":[18.368209838867188,0,4.365570058229018e-11]},{"children":[17],"name":"_60_Jaw","rotation":[0.6108865141868591,0.7917181849479675,8.293253017654934e-7,8.550403549634211e-7],"scale":[0.9999999403953552,0.9999999403953552,1],"translation":[3.629265069961548,16.874300003051758,-0.037488289177417755]},{"name":"_61_EndJaw","rotation":[3.2994232346261754e-10,4.3222318085733846e-11,0,1],"scale":[0.9999999403953552,0.9999999403953552,1],"translation":[2.510143280029297,-9.5367431640625e-7,7.450580596923828e-9]},{"name":"_63_EndFeelerA","translation":[1.8539539575576782,-0.000005722049991163658,-3.725290076417309e-9]},{"name":"_65_EndFeelerB","translation":[2.1235198974609375,-0.000003814699994109105,1.1175900205273592e-8]},{"name":"_67_EndLFeeler","translation":[1.6647590398788452,0.000003814699994109105,-0.000007629389983776491]},{"name":"_69_EndLFeelerA","translation":[1.6647570133209229,-0.000003814699994109105,0]},{"name":"_71_EndLFeelerB","translation":[2.1235198974609375,0.000003814699994109105,0]},{"name":"_73_EndRFeeler","translation":[1.6647599935531616,0,-0.000007629389983776491]},{"name":"_75_EndRFeelerA","translation":[1.6647549867630005,-0.000013351400411920622,-0.000003814699994109105]},{"name":"_77_EndRFeelerB","translation":[2.123547077178955,-0.00002670290086825844,0.00003051759995287284]},{"name":"_78_pm0069_00_Skin"},{"mesh":0,"name":"Bellsprout","rotation":[0.4646447002887726,-0.5330151915550232,0.4646466374397278,0.5330138206481934],"scale":[1,0.9999999403953552,1],"skin":0,"translation":[-25.21882438659668,4.660228252410889,-0.00009576542652212083]},{"name":"Camera","rotation":[0.483536034822464,0.33687159419059753,-0.20870360732078552,0.7804827094078064],"translation":[7.481131553649902,5.34366512298584,6.5076398849487305]},{"name":"Lamp","rotation":[0.16907575726509094,0.7558802962303162,-0.27217137813568115,0.570947527885437],"scale":[1,1,0.9999999403953552],"translation":[4.076245307922363,5.903861999511719,-1.0054539442062378]},{"children":[31,32,49],"name":"_03_Waist__04_Hips","rotation":[-0.5914178490638733,0.38758862018585205,-0.38758862018585205,0.5914178490638733],"translation":[-20.55859375,29.879051208496094,-0.00008782603981671855]},{"name":"_03_Waist__05_EndHips","translation":[4.088735580444336,0,-2.4921140670776367]},{"children":[33],"name":"_03_Waist__06_LThigh","rotation":[0,-0.9636425971984863,0,0.2671949565410614],"scale":[0.9999999403953552,1,0.9999999403953552],"translation":[3.3041954040527344,-0.9221764802932739,-1.29071044921875]},{"children":[34],"name":"_03_Waist__07_LLeg1","translation":[-3.6932530403137207,-2.140993595123291,0.027400970458984375]},{"children":[35],"name":"_03_Waist__08_LLeg2","rotation":[0,5.960464477539063e-8,0,1],"translation":[-4.321673393249512,-2.5052826404571533,0.032059669494628906]},{"children":[36,39,45],"name":"_03_Waist__09_LLeg3","rotation":[0,-5.960465188081798e-8,0,1],"scale":[0.9999999403953552,1,0.9999999403953552],"translation":[-3.152296543121338,-1.8273868560791016,0.02338731288909912]},{"children":[37],"name":"_03_Waist__10_LFoot1","rotation":[0,7.450580596923828e-9,0,1],"translation":[-3.0674211978912354,-1.7781920433044434,0.022757768630981445]},{"children":[38],"name":"_03_Waist__11_LFoot2","rotation":[0,7.450580596923828e-9,0,1],"translation":[-2.3984150886535645,-1.3903608322143555,0.01779317855834961]},{"name":"_03_Waist__12_EndLFoot2","rotation":[0,7.450580596923828e-9,0,1],"translation":[-3.804797410964966,-2.2056474685668945,0.02822774648666382]},{"children":[40],"name":"_03_Waist__13_LToeA1","rotation":[0,-0.4176689386367798,0,0.908599317073822],"translation":[-0.9258260726928711,-0.5113544464111328,0.6595969200134277]},{"children":[41,43],"name":"_03_Waist__14_LToeA2","rotation":[0,0.019419413059949875,0,0.9998114109039307],"translation":[0.9318275451660156,-1.3512201309204102,3.851628303527832]},{"children":[42],"name":"_03_Waist__15_LToeA3","rotation":[0,2.682209014892578e-7,0,1],"translation":[0.3314371109008789,-0.7418632507324219,2.043646812438965]},{"name":"_03_Waist__16_EndLToeA3","translation":[0.4596576690673828,-1.0288658142089844,2.834289073944092]},{"children":[44],"name":"_03_Waist__17_LToeA4","rotation":[0,0.38590970635414124,0,0.9225365519523621],"translation":[-1.3792896270751953,-1.1284475326538086,1.3872194290161133]},{"name":"_03_Waist__18_EndLToeA4","rotation":[0,3.725290742551124e-9,0,1],"scale":[0.9999999403953552,1,0.9999999403953552],"translation":[-2.1931231021881104,-1.2692375183105469,0.1796441674232483]},{"children":[46],"name":"_03_Waist__19_LToeB1","rotation":[0,0.4115625321865082,0,0.9113815426826477],"scale":[1.0000001192092896,1,1.0000001192092896],"translation":[-0.9077277183532715,-0.49474668502807617,-0.7812217473983765]},{"children":[47],"name":"_03_Waist__20_LToeB2","rotation":[0,-2.2351738948600541e-7,0,1],"scale":[1.0000001192092896,1,1.0000001192092896],"translation":[0.44490814208984375,-0.8601346015930176,-2.395195960998535]},{"children":[48],"name":"_03_Waist__21_LToeB3","rotation":[0,2.8312206268310547e-7,0,1],"translation":[0.45068979263305664,-0.8714456558227539,-2.425079345703125]},{"name":"_03_Waist__22_EndLToeB3","translation":[0.6925473213195801,-1.338984489440918,-3.72747802734375]},{"children":[50],"name":"_03_Waist__23_RThigh","rotation":[0,-0.9636387825012207,0,0.2672085762023926],"translation":[3.304202079772949,0.9221304655075073,-1.2907066345214844]},{"children":[51],"name":"_03_Waist__24_RLeg1","rotation":[0,-0.0000035762786865234375,0,1],"translation":[-3.6933088302612305,2.140946626663208,0.02727532386779785]},{"children":[52],"name":"_03_Waist__25_RLeg2","rotation":[0,-0.0000053048138397571165,0,1],"scale":[0.9999999403953552,1,0.9999999403953552],"translation":[-4.3217010498046875,2.505221366882324,0.03195762634277344]},{"children":[53,58,62],"name":"_03_Waist__26_RLeg3","rotation":[0,-0.000009715558007883374,0,1],"scale":[0.9999998807907104,1,0.9999998807907104],"translation":[-3.1523239612579346,1.827352523803711,0.023343443870544434]},{"children":[54],"name":"_03_Waist__27_RFoot1","rotation":[0,-5.21540641784668e-8,0,1],"translation":[-3.2626900672912598,1.891350269317627,0.024217844009399414]},{"children":[55,56],"name":"_03_Waist__28_RFoot2","rotation":[0,1.1175870895385742e-7,0,1],"translation":[-2.56826114654541,1.4888105392456055,0.01906287670135498]},{"name":"_03_Waist__29_EndRFoot2","translation":[-3.439713478088379,1.9939260482788086,0.02553403377532959]},{"children":[57],"name":"_03_Waist__30_RToeC","rotation":[0,0.4274807572364807,0,0.9040244817733765],"translation":[-1.744403600692749,0.9596767425537109,-1.5088653564453125]},{"name":"_03_Waist__31_EndRToeC","rotation":[0,-4.470348358154297e-8,0,1],"translation":[0.3267397880554199,0.4301033020019531,-1.2328252792358398]},{"children":[59],"name":"_03_Waist__32_RToeA1","rotation":[0,-0.4176512360572815,0,0.908607542514801],"translation":[-0.9257879257202148,0.5113377571105957,0.6596002578735352]},{"children":[60],"name":"_03_Waist__33_RToeA2","rotation":[0,0.01941877417266369,0,0.9998114705085754],"scale":[0.9999999403953552,1,0.9999999403953552],"translation":[0.9316749572753906,1.3512277603149414,3.8516721725463867]},{"children":[61],"name":"_03_Waist__34_RToeA3","rotation":[0,3.874302478834579e-7,0,1],"scale":[0.9999998807907104,1,0.9999998807907104],"translation":[0.33136749267578125,0.7418546676635742,2.043659210205078]},{"name":"_03_Waist__35_EndRToeA3","translation":[0.45955610275268555,1.0288219451904297,2.8343124389648438]},{"children":[63],"name":"_03_Waist__36_RToeB1","rotation":[0,0.4115804433822632,0,0.9113735556602478],"translation":[-0.9077420234680176,0.49471616744995117,-0.7812260389328003]},{"children":[64,66],"name":"_03_Waist__37_RToeB2","rotation":[0,7.450580596923828e-8,0,1],"translation":[0.6908426284790039,1.3353285789489746,-3.718137741088867]},{"children":[65],"name":"_03_Waist__38_RToeB3","rotation":[0,-3.8743019104003906e-7,0,1],"translation":[0.49864864349365234,0.9639768600463867,-2.6827855110168457]},{"name":"_03_Waist__39_EndRToeB3","translation":[0.39893245697021484,0.7711553573608398,-2.14680814743042]},{"children":[67],"name":"_03_Waist__40_RToeB4","rotation":[0,0.35641786456108093,0,0.9343267679214478],"translation":[1.2250404357910156,0.24332046508789062,-1.6647605895996094]},{"name":"_03_Waist__41_EndRToeB4","rotation":[0,-1.4901161193847656e-8,0,1],"translation":[1.0308188199996948,-0.00000476837158203125,0.000014781951904296875]},{"children":[69],"name":"_03_Waist__42_Spine1","rotation":[-0.5,-0.5000000596046448,0.5000000596046448,0.5],"scale":[1,0.9999999403953552,1],"translation":[-20.558595657348633,29.879051208496094,-0.00008782347867963836]},{"children":[70],"name":"_03_Waist__43_Spine2","rotation":[0,0.12574633955955505,0,0.992062509059906],"translation":[5.387940406799316,0.00002253056300105527,-0.0000015415690768350032]},{"children":[71,76,81],"name":"_03_Waist__44_Spine3","rotation":[0,0.1267962008714676,0,0.9919288158416748],"translation":[4.686805725097656,0.00001555680501041934,-0.00000286102294921875]},{"children":[72],"name":"_03_Waist__45_LShoulder","rotation":[0,0.5032020211219788,0,0.8641688227653503],"scale":[1,0.9999999403953552,1],"translation":[1.8033180236816406,-1.467915415763855,0.37808990478515625]},{"children":[73],"name":"_03_Waist__46_LArm","rotation":[0,0.08377858251333237,0,0.9964843988418579],"scale":[0.9999999403953552,1,0.9999999403953552],"translation":[0.18594253063201904,-8.621774673461914,1.2594614028930664]},{"children":[74],"name":"_03_Waist__47_LForeArm","rotation":[0,0.0071897804737091064,0,0.9999741911888123],"scale":[0.9999999403953552,1,0.9999999403953552],"translation":[0.0037703514099121094,-8.498562812805176,-0.17972731590270996]},{"children":[75],"name":"_03_Waist__48_LHand","rotation":[0,0.03876153379678726,0,0.9992485642433167],"scale":[0.9999998807907104,1,0.9999998807907104],"translation":[0.008078575134277344,-6.414699554443359,-0.2278897762298584]},{"name":"_03_Waist__49_EndLHand","rotation":[4.44089051031385e-16,-7.450580596923828e-9,2.9802293965985882e-8,1],"translation":[0.07477474212646484,-5.837682723999023,-0.6586813926696777]},{"children":[77],"name":"_03_Waist__50_RShoulder","rotation":[0,0.5032052397727966,0,0.8641669154167175],"scale":[0.9999999403953552,0.9999999403953552,0.9999999403953552],"translation":[1.8032655715942383,1.46792471408844,0.37805938720703125]},{"children":[78],"name":"_03_Waist__51_RArm","rotation":[0,0.0837787613272667,0,0.9964844584465027],"scale":[0.9999999403953552,1,0.9999999403953552],"translation":[0.18598401546478271,8.621792793273926,1.259400725364685]},{"children":[79],"name":"_03_Waist__52_RForeArm","rotation":[0,0.007189624477177858,0,0.999974250793457],"translation":[0.003834247589111328,8.498598098754883,-0.17979907989501953]},{"children":[80],"name":"_03_Waist__53_RHand","rotation":[0,0.03876137733459473,0,0.9992485046386719],"scale":[0.9999999403953552,1,0.9999999403953552],"translation":[0.008122444152832031,6.414699554443359,-0.22788119316101074]},{"name":"_03_Waist__54_EndRHand","translation":[0.07483673095703125,5.837596893310547,-0.6587810516357422]},{"children":[82],"name":"_03_Waist__55_Spine4","rotation":[0,0.027705758810043335,0,0.9996161460876465],"scale":[0.9999999403953552,0.9999999403953552,0.9999999403953552],"translation":[5.258244514465332,0.000011980533599853516,9.5367431640625e-7]},{"children":[83],"name":"_03_Waist__56_Spine5","rotation":[0,-0.09700227528810501,0,0.9952842593193054],"translation":[5.07268762588501,0.000010043397196568549,0.00000476837158203125]},{"children":[84],"name":"_03_Waist__57_Neck","rotation":[0,-0.18316750228405,0,0.9830817580223083],"translation":[5.543659210205078,0.00001564621925354004,0.00000286102294921875]},{"children":[85,86],"name":"_03_Waist__58_Head","rotation":[0,-0.11334631592035294,0,0.9935555458068848],"scale":[1,0.9999999403953552,1],"translation":[4.337168216705322,0.000018537044525146484,-0.0000028461217880249023]},{"name":"_03_Waist__59_EndHead","rotation":[0,7.450580596923828e-9,0,1],"translation":[18.368206024169922,0.00009527802467346191,0.0000020265579223632812]},{"children":[87,88,90,92,94,96,98,100,102],"name":"_03_Waist__60_Jaw","rotation":[0,0.9093283414840698,0,0.41607925295829773],"translation":[3.6292600631713867,0.037546634674072266,16.87430191040039]},{"name":"_03_Waist__61_EndJaw","rotation":[0,-1.4901161193847656e-8,0,1],"translation":[-1.4211082458496094,0.0000032782554626464844,-2.069122314453125]},{"children":[89],"name":"_03_Waist__62_FeelerA","rotation":[0,0.6910349726676941,0,0.7228212952613831],"translation":[3.856271743774414,-0.000018894672393798828,-2.7597475051879883]},{"name":"_03_Waist__63_EndFeelerA","scale":[1,1.0000001192092896,1],"translation":[1.1825828552246094,-0.000005241483449935913,1.4278087615966797]},{"children":[91],"name":"_03_Waist__64_FeelerB","rotation":[0,-0.9523459672927856,0,0.30501988530158997],"scale":[1,0.9999999403953552,1],"translation":[-3.2829437255859375,0.000003546476364135742,2.4571638107299805]},{"name":"_03_Waist__65_EndFeelerB","rotation":[0,-2.9802322387695312e-8,0,1],"scale":[1,0.9999999403953552,1],"translation":[2.1235227584838867,0.000005692243576049805,-0.000005736947059631348]},{"children":[93],"name":"_03_Waist__66_LFeeler","rotation":[0,-0.9508828520774841,0,0.30955085158348083],"translation":[-0.0015106201171875,-4.756377220153809,-0.0038671493530273438]},{"name":"_03_Waist__67_EndLFeeler","rotation":[0,-4.470348358154297e-8,0,1],"translation":[0.00001621246337890625,-1.664759635925293,0]},{"children":[95],"name":"_03_Waist__68_LFeelerA","rotation":[0,-0.9612876772880554,0,0.2755467891693115],"scale":[0.9999999403953552,0.9999999403953552,0.9999999403953552],"translation":[2.5335845947265625,-3.3622615337371826,-2.2134265899658203]},{"name":"_03_Waist__69_EndLFeelerA","rotation":[0,7.450580596923828e-8,0,1],"translation":[-1.1623878479003906,-1.1771652698516846,0.18588495254516602]},{"children":[97],"name":"_03_Waist__70_LFeelerB","rotation":[0,-0.9574083089828491,0,0.28873732686042786],"translation":[-2.3800506591796875,-2.8915958404541016,1.6701936721801758]},{"name":"_03_Waist__71_EndLFeelerB","rotation":[0,7.450580596923828e-8,0,1],"translation":[1.5085525512695312,-1.4944965839385986,0.008502960205078125]},{"children":[99],"name":"_03_Waist__72_RFeeler","rotation":[0,-0.9508824944496155,0,0.3095521926879883],"scale":[0.9999999403953552,1,0.9999999403953552],"translation":[-0.001499176025390625,4.756363391876221,-0.003943443298339844]},{"name":"_03_Waist__73_EndRFeeler","rotation":[0,-2.9802322387695312e-8,0,1],"scale":[1,1.0000001192092896,1],"translation":[-0.0000133514404296875,1.6647605895996094,-0.00000959634780883789]},{"children":[101],"name":"_03_Waist__74_RFeelerA","rotation":[0,-0.9612866640090942,0,0.27555030584335327],"translation":[2.5336074829101562,3.362233877182007,-2.213449478149414]},{"name":"_03_Waist__75_EndRFeelerA","rotation":[0,-2.9802322387695312e-8,0,1],"translation":[-1.1623992919921875,1.1771557331085205,0.18586349487304688]},{"children":[103],"name":"_03_Waist__76_RFeelerB","rotation":[0,-0.9574082493782043,0,0.2887379825115204],"translation":[-2.3800411224365234,2.891580581665039,1.6701698303222656]},{"name":"_03_Waist__77_EndRFeelerB","rotation":[0,-5.960464477539063e-8,0,1],"translation":[1.5085887908935547,1.4945030212402344,0.0084686279296875]}],"samplers":[{}],"scene":0,"scenes":[{"name":"Scene","nodes":[25,24,23,22,21,20,19,18,16,15,14,13,12,11,10,9,8,7,6,5,4,3,0,29,28]}],"skins":[{"inverseBindMatrices":0,"joints":[30,31,32,33,34,35,36,37,38,39,40,41,42,43,44,45,46,47,48,49,50,51,52,53,54,55,56,57,58,59,60,61,62,63,64,65,66,67,68,69,70,71,72,73,74,75,76,77,78,79,80,81,82,83,84,85,86,87,88,89,90,91,92,93,94,95,96,97,98,99,100,101,102,103],"skeleton":2}],"textures":[{"sampler":0,"source":0},{"sampler":0,"source":1}],"extensionsUsed":["ALI_amc_mesh_compression"],"extensionsRequired":["ALI_amc_mesh_compression"]}