{"accessors":[{"bufferView":0,"componentType":5126,"count":39,"max":[1,5.886325027404382e-8,1,0,1.0000001192092896,5.82134646265331e-7,1,0,5.493905632647511e-7,-1,7.425241532743598e-10,0,90.6527099609375,5.084805488586426,42.56406784057617,1],"min":[-1,-7.280318214952786e-8,-1.0000001192092896,0,-1,-2.9317043015453237e-8,-1,0,-4.8703117927484385e-11,-1.0000001192092896,-4.316625279443542e-7,0,-80.04766082763672,-12.717606544494629,-84.13042449951172,1],"type":"MAT4","byteOffset":0},{"bufferView":1,"componentType":5126,"count":39,"max":[1,5.886325027404382e-8,1,0,1.0000001192092896,5.82134646265331e-7,1,0,5.493905632647511e-7,-1,7.425241532743598e-10,0,90.6527099609375,5.084805488586426,42.56406784057617,1],"min":[-1,-7.280318214952786e-8,-1.0000001192092896,0,-1,-2.9317043015453237e-8,-1,0,-4.8703117927484385e-11,-1.0000001192092896,-4.316625279443542e-7,0,-80.04766082763672,-12.717606544494629,-84.13042449951172,1],"type":"MAT4","byteOffset":0},{"bufferView":2,"componentType":5126,"count":39,"max":[1,5.886325027404382e-8,1,0,1.0000001192092896,5.82134646265331e-7,1,0,5.493905632647511e-7,-1,7.425241532743598e-10,0,90.6527099609375,5.084805488586426,42.56406784057617,1],"min":[-1,-7.280318214952786e-8,-1.0000001192092896,0,-1,-2.9317043015453237e-8,-1,0,-4.8703117927484385e-11,-1.0000001192092896,-4.316625279443542e-7,0,-80.04766082763672,-12.717606544494629,-84.13042449951172,1],"type":"MAT4","byteOffset":0},{"bufferView":3,"componentType":5126,"count":39,"max":[1,5.886325027404382e-8,1,0,1.0000001192092896,5.82134646265331e-7,1,0,5.493905632647511e-7,-1,7.425241532743598e-10,0,90.6527099609375,5.084805488586426,42.56406784057617,1],"min":[-1,-7.280318214952786e-8,-1.0000001192092896,0,-1,-2.9317043015453237e-8,-1,0,-4.8703117927484385e-11,-1.0000001192092896,-4.316625279443542e-7,0,-80.04766082763672,-12.717606544494629,-84.13042449951172,1],"type":"MAT4","byteOffset":0},{"bufferView":4,"componentType":5126,"count":39,"max":[1,5.886325027404382e-8,1,0,1.0000001192092896,5.82134646265331e-7,1,0,5.493905632647511e-7,-1,7.425241532743598e-10,0,90.6527099609375,5.084805488586426,42.56406784057617,1],"min":[-1,-7.280318214952786e-8,-1.0000001192092896,0,-1,-2.9317043015453237e-8,-1,0,-4.8703117927484385e-11,-1.0000001192092896,-4.316625279443542e-7,0,-80.04766082763672,-12.717606544494629,-84.13042449951172,1],"type":"MAT4","byteOffset":0}],"asset":{"generator":"Khronos Blender glTF 2.0 exporter","version":"2.0"},"bufferViews":[{"buffer":0,"byteLength":2496,"byteOffset":0},{"buffer":0,"byteLength":2496,"byteOffset":2496},{"buffer":0,"byteLength":2496,"byteOffset":4992},{"buffer":0,"byteLength":2496,"byteOffset":7488},{"buffer":0,"byteLength":2496,"byteOffset":9984},{"buffer":0,"byteOffset":12480,"byteLength":7035},{"buffer":0,"byteOffset":19515,"byteLength":31303},{"buffer":0,"byteOffset":50818,"byteLength":5683},{"buffer":0,"byteOffset":56501,"byteLength":37867},{"buffer":0,"byteOffset":94368,"byteLength":24909}],"buffers":[{"byteLength":119277,"uri":"buffer.bin"}],"images":[{"name":"Body1_0","uri":"Body1_0.png"}],"materials":[{"name":"Body00","pbrMetallicRoughness":{"baseColorFactor":[0.6400000190734865,0.6400000190734865,0.6400000190734865,1],"baseColorTexture":{"index":0},"metallicFactor":0}},{"name":"Body01","pbrMetallicRoughness":{"baseColorFactor":[0.6400000190734865,0.6400000190734865,0.6400000190734865,1],"baseColorTexture":{"index":0},"metallicFactor":0}},{"name":"Body02","pbrMetallicRoughness":{"baseColorFactor":[0.6400000190734865,0.6400000190734865,0.6400000190734865,1],"baseColorTexture":{"index":0},"metallicFactor":0}},{"name":"Body03","pbrMetallicRoughness":{"baseColorFactor":[0.6400000190734865,0.6400000190734865,0.6400000190734865,1],"baseColorTexture":{"index":0},"metallicFactor":0}},{"name":"Body04","pbrMetallicRoughness":{"baseColorFactor":[0.6400000190734865,0.6400000190734865,0.6400000190734865,1],"baseColorTexture":{"index":0},"metallicFactor":0}}],"meshes":[{"name":"Mesh_1__Body04_","primitives":[{"material":4,"extensions":{"ALI_amc_mesh_compression":{"bufferView":5}}}]},{"name":"Mesh_4__Body02_","primitives":[{"material":2,"extensions":{"ALI_amc_mesh_compression":{"bufferView":6}}}]},{"name":"Mesh_5__Body03_","primitives":[{"material":3,"extensions":{"ALI_amc_mesh_compression":{"bufferView":7}}}]},{"name":"Mesh_2__Body00_","primitives":[{"material":0,"extensions":{"ALI_amc_mesh_compression":{"bufferView":8}}}]},{"name":"Mesh_3__Body01_","primitives":[{"material":1,"extensions":{"ALI_amc_mesh_compression":{"bufferView":9}}}]}],"nodes":[{"children":[3,4,5,6,7,8],"name":"Armature","rotation":[1,-1.1102250098586267e-16,-5.551124387548643e-17,-1.9470718370939721e-7]},{"name":"Camera","rotation":[0.483536034822464,0.33687159419059753,-0.20870360732078552,0.7804827094078064],"translation":[7.481131553649902,5.34366512298584,6.5076398849487305]},{"name":"Lamp","rotation":[0.16907575726509094,0.7558802962303162,-0.27217137813568115,0.570947527885437],"scale":[1,1,0.9999999403953552],"translation":[4.076245307922363,5.903861999511719,-1.0054539442062378]},{"mesh":0,"name":"Mesh_1__Body04_","skin":0},{"mesh":3,"name":"Mesh_2__Body00_","skin":1},{"mesh":4,"name":"Mesh_3__Body01_","skin":2},{"mesh":1,"name":"Mesh_4__Body02_","skin":3},{"mesh":2,"name":"Mesh_5__Body03_","skin":4},{"children":[9,45,46],"name":"Armature_pm0041_00_zubat","rotation":[-0.7071068286895752,7.850476717442717e-17,-7.850476717442717e-17,0.7071068286895752]},{"children":[10],"name":"Armature_Origin","rotation":[0,3.3881386229950294e-7,0,1],"translation":[1.5541195175390599e-13,2.384185791015625e-7,1.7315467636114246e-14]},{"children":[11,29,34,37,42],"name":"Armature_Waist","rotation":[0,0.7071078419685364,0,0.7071056962013245],"scale":[1,0.9999999403953552,1],"translation":[0.00003722063047462143,0.0000040531158447265625,-54.926700592041016]},{"children":[12,13,15,21,23],"name":"Armature_Head","rotation":[0,0.0000018665581364984973,0,1],"translation":[9.213802337646484,-4.76837158203125e-7,-2.2879248717799783e-8]},{"name":"Armature_EndHead","translation":[13.293693542480469,0,-0.0000011515949154272676]},{"children":[14],"name":"Armature_LEar","rotation":[0,-0.3424990773200989,0,0.93951815366745],"scale":[0.9999999403953552,1,0.9999999403953552],"translation":[9.27685546875,-1.1286752223968506,6.120648384094238]},{"name":"Armature_EndLEar","rotation":[0,-5.21540641784668e-7,0,1],"translation":[15.807432174682617,-2.239539861679077,2.2178306579589844]},{"children":[16,17,19],"name":"Armature_LowerJaw","rotation":[0,0.7071058750152588,0,0.7071077823638916],"translation":[1.8517990112304688,2.6477904319763184,-0.000044103944674134254]},{"name":"Armature_EndLowerJaw","rotation":[5.0601565513755316e-20,-2.7818487069453113e-8,1.818990487748029e-12,1],"translation":[-8.003553375601768e-11,10.069812774658203,0.00000762983017921215]},{"children":[18],"name":"Armature_LFeelerA","rotation":[0,-0.8287172317504883,0,0.5596675276756287],"translation":[-5.173758506774902,6.116621494293213,-0.7059265971183777]},{"name":"Armature_EndLFeelerA","rotation":[-3.9242173954789905e-8,2.384185791015625e-7,-9.356062508124405e-15,1],"scale":[1,0.9999999403953552,1],"translation":[2.71565580368042,-0.4622621536254883,-1.2807273864746094]},{"children":[20],"name":"Armature_RFeelerA","rotation":[0,-0.7449502348899841,0,0.667120099067688],"translation":[5.173778057098389,6.116575717926025,-0.7058776021003723]},{"name":"Armature_EndRFeelerA","rotation":[0,-0.0000016167759895324707,0,1],"translation":[2.9983086585998535,-0.46223926544189453,-0.15691328048706055]},{"children":[22],"name":"Armature_REar","rotation":[0,0.4697168171405792,0,0.8828171491622925],"translation":[9.276924133300781,-1.1286542415618896,-6.120774745941162]},{"name":"Armature_EndREar","rotation":[0,-6.109476089477539e-7,0,1],"translation":[15.807440757751465,-2.239546537399292,2.217731475830078]},{"children":[24,25,27],"name":"Armature_UpperJaw","rotation":[0,0.7071059346199036,0,0.7071076035499573],"translation":[8.181106567382812,-0.008409976959228516,-0.00004976740456186235]},{"name":"Armature_EndUpperJaw","rotation":[0,-2.7818487069453113e-8,0,1],"translation":[0.000002696368028409779,10.410512924194336,2.767486572265625]},{"children":[26],"name":"Armature_LFeelerB","rotation":[0,0.39083775877952576,0,0.9204595685005188],"translation":[-2.6129813194274902,8.22835922241211,2.165193796157837]},{"name":"Armature_EndLFeelerB","rotation":[-2.15831619243545e-7,0.0000019073486328125,-1.9621133162672777e-7,1],"translation":[2.40680193901062,1.3611631393432617,-1.690311074256897]},{"children":[28],"name":"Armature_RFeelerB","rotation":[0,0.6525312066078186,0,0.7577618360519409],"translation":[2.6129651069641113,8.228303909301758,2.1651132106781006]},{"name":"Armature_EndRFeelerB","rotation":[-4.905281514311355e-8,-3.2782554626464844e-7,-2.746952532106661e-7,1],"translation":[2.805788278579712,1.3611202239990234,-0.8814916610717773]},{"children":[30],"name":"Armature_LArm","rotation":[0,0.48721861839294434,0,0.8732800483703613],"translation":[3.8268465995788574,-2.511218786239624,9.409749984741211]},{"children":[31],"name":"Armature_LForeArm","rotation":[0,-0.13181103765964508,0,0.9912749528884888],"scale":[1,0.9999999403953552,1],"translation":[-5.509033203125,-0.00000286102294921875,10.985749244689941]},{"children":[32],"name":"Armature_LHand","rotation":[0,-0.12726914882659912,0,0.9918683171272278],"translation":[0.8768215179443359,-0.00002765655517578125,13.688289642333984]},{"children":[33],"name":"Armature_LFinger","rotation":[0,0.826924741268158,0,0.5623126029968262],"translation":[7.86015510559082,0.00007867813110351562,12.144220352172852]},{"name":"Armature_EndLFinger","rotation":[0,-2.086162567138672e-7,0,1],"translation":[10.21316909790039,0.00024318695068359375,-56.624534606933594]},{"children":[35],"name":"Armature_LTail1","rotation":[0,0.9998165965080261,0,0.019154148176312447],"scale":[0.9999999403953552,1,0.9999999403953552],"translation":[-4.87915563583374,-5.084808349609375,4.466489315032959]},{"children":[36],"name":"Armature_LTail2","rotation":[0,0.0191578958183527,0,0.9998164772987366],"translation":[13.186351776123047,0.24722003936767578,-0.24725162982940674]},{"name":"Armature_EndLTail2","rotation":[0,-1.168507424154086e-7,0,1],"translation":[35.3486328125,-4.76837158203125e-7,6.053051038179547e-7]},{"children":[38],"name":"Armature_RArm","rotation":[0,0.48722153902053833,0,0.8732784390449524],"translation":[3.826775074005127,-2.5111587047576904,-9.409768104553223]},{"children":[39],"name":"Armature_RForeArm","rotation":[0,-0.13181079924106598,0,0.991274893283844],"scale":[0.9999999403953552,0.9999999403953552,0.9999999403953552],"translation":[12.289701461791992,-0.000038623809814453125,0.0000553131103515625]},{"children":[40],"name":"Armature_RHand","rotation":[0,-0.12726885080337524,0,0.991868257522583],"translation":[13.716276168823242,-0.000025510787963867188,-0.00008392333984375]},{"children":[41],"name":"Armature_RFinger","rotation":[0,0.8269248604774475,0,0.5623125433921814],"scale":[1.0000001192092896,1,1.0000001192092896],"translation":[14.466114044189453,-0.00007581710815429688,0.000011444091796875]},{"name":"Armature_EndRFinger","rotation":[0,-3.4272667903678666e-7,0,1],"scale":[1.0000001192092896,1,1.0000001192092896],"translation":[57.538265228271484,0.0001952648162841797,-0.0001220703125]},{"children":[43],"name":"Armature_RTail1","rotation":[0,1,0,-0.0004138509975746274],"scale":[0.9999999403953552,1,0.9999999403953552],"translation":[-4.879133701324463,-5.084810256958008,-4.466573238372803]},{"children":[44],"name":"Armature_RTail2","rotation":[-2.9431637571519786e-8,-0.00041369706741534173,1.2175782951318048e-11,1],"scale":[0.9999999403953552,1,0.9999999403953552],"translation":[13.186259269714355,0.24721908569335938,-0.247188538312912]},{"name":"Armature_EndRTail2","rotation":[2.980288726917024e-8,-1.1920803899556631e-7,-3.551590089595968e-15,1],"translation":[35.34872817993164,0.0000059512444749998394,0.000008431901733274572]},{"name":"Armature_pm0041_01_FangSkin","translation":[-7.52316384526264e-37,2.384185791015625e-7,1.731524401941617e-14]},{"name":"Armature_pm0041_00_BodySkin","translation":[-7.52316384526264e-37,2.384185791015625e-7,1.731524401941617e-14]}],"samplers":[{}],"scene":0,"scenes":[{"name":"Scene","nodes":[0,2,1]}],"skins":[{"inverseBindMatrices":0,"joints":[8,9,10,11,12,13,14,15,16,17,18,19,20,21,22,23,24,25,26,27,28,29,30,31,32,33,34,35,36,37,38,39,40,41,42,43,44,45,46],"skeleton":0},{"inverseBindMatrices":1,"joints":[8,9,10,11,12,13,14,15,16,17,18,19,20,21,22,23,24,25,26,27,28,29,30,31,32,33,34,35,36,37,38,39,40,41,42,43,44,45,46],"skeleton":0},{"inverseBindMatrices":2,"joints":[8,9,10,11,12,13,14,15,16,17,18,19,20,21,22,23,24,25,26,27,28,29,30,31,32,33,34,35,36,37,38,39,40,41,42,43,44,45,46],"skeleton":0},{"inverseBindMatrices":3,"joints":[8,9,10,11,12,13,14,15,16,17,18,19,20,21,22,23,24,25,26,27,28,29,30,31,32,33,34,35,36,37,38,39,40,41,42,43,44,45,46],"skeleton":0},{"inverseBindMatrices":4,"joints":[8,9,10,11,12,13,14,15,16,17,18,19,20,21,22,23,24,25,26,27,28,29,30,31,32,33,34,35,36,37,38,39,40,41,42,43,44,45,46],"skeleton":0}],"textures":[{"sampler":0,"source":0},{"sampler":0,"source":0},{"sampler":0,"source":0},{"sampler":0,"source":0},{"sampler":0,"source":0}],"extensionsUsed":["ALI_amc_mesh_compression"],"extensionsRequired":["ALI_amc_mesh_compression"]}