{"accessors":[{"bufferView":0,"componentType":5126,"count":80,"max":[0.0000014717900285177166,-0.9999998211860657,0.0000036200858630763832,0,1.0000001192092896,-1.5080986459636847e-9,1.0000001192092896,0,0.4061815142631531,0.000003620085635702708,1.0000001192092896,0,169.0011444091797,101.29295349121094,32.247772216796875,1],"min":[-0.0000036200858630763832,-0.9999999403953552,-0.000003618090204327018,0,-0.9994624853134155,-1.5080988680082896e-9,-0.40618157386779785,0,-1,0.000003620085180955357,-0.9994624257087708,0,-229.40638732910156,-101.29315185546875,-134.69886779785156,1],"type":"MAT4","byteOffset":0}],"asset":{"generator":"Khronos Blender glTF 2.0 exporter","version":"2.0"},"bufferViews":[{"buffer":0,"byteLength":5120,"byteOffset":0},{"buffer":0,"byteOffset":5120,"byteLength":2403},{"buffer":0,"byteOffset":7523,"byteLength":2403},{"buffer":0,"byteOffset":9926,"byteLength":74161},{"buffer":0,"byteOffset":84087,"byteLength":71307}],"buffers":[{"byteLength":155394,"uri":"buffer.bin"}],"images":[{"name":"pm0149_00_Eye1","uri":"pm0149_00_Eye1.png"},{"name":"pm0149_00_BodyB1","uri":"pm0149_00_BodyB1.png"},{"name":"pm0149_00_BodyA1","uri":"pm0149_00_BodyA1.png"},{"name":"pm0149_00_Iris1","uri":"pm0149_00_Iris1.png"}],"materials":[{"alphaMode":"OPAQUE","name":"Material__207","pbrMetallicRoughness":{"baseColorFactor":[0.6400000190734865,0.6400000190734865,0.6400000190734865,1],"baseColorTexture":{"index":0},"metallicFactor":0}},{"alphaMode":"OPAQUE","name":"Material__208","pbrMetallicRoughness":{"baseColorFactor":[0.6400000190734865,0.6400000190734865,0.6400000190734865,1],"baseColorTexture":{"index":1},"metallicFactor":0}},{"alphaMode":"OPAQUE","name":"Material__209","pbrMetallicRoughness":{"baseColorFactor":[0.6400000190734865,0.6400000190734865,0.6400000190734865,1],"baseColorTexture":{"index":2},"metallicFactor":0}},{"alphaMode":"MASK","name":"Material__210","pbrMetallicRoughness":{"baseColorFactor":[0.6400000190734865,0.6400000190734865,0.6400000190734865,1],"baseColorTexture":{"index":3},"metallicFactor":0}}],"meshes":[{"name":"Dragonite","primitives":[{"material":3,"extensions":{"ALI_amc_mesh_compression":{"bufferView":1}}},{"material":0,"extensions":{"ALI_amc_mesh_compression":{"bufferView":2}}},{"material":2,"extensions":{"ALI_amc_mesh_compression":{"bufferView":3}}},{"material":1,"extensions":{"ALI_amc_mesh_compression":{"bufferView":4}}}]}],"nodes":[{"name":"Camera","rotation":[0.483536034822464,0.33687159419059753,-0.20870360732078552,0.7804827094078064],"translation":[7.481131553649902,5.34366512298584,6.5076398849487305]},{"mesh":0,"name":"Dragonite","rotation":[0.022305551916360855,-0.7067561745643616,0.02230505645275116,0.7067536115646362],"scale":[0.9999998807907104,0.9999999403953552,1.0000001192092896],"skin":0,"translation":[-86.12931060791016,-7.502983570098877,-0.0003128907992504537]},{"name":"EndHead","translation":[55.09640884399414,0,-9.998909717978677e-7]},{"name":"EndHips","translation":[72.35859680175781,9.536739753457368e-7,-0.0000010000100019169622]},{"name":"EndJaw","translation":[27.064559936523438,-0.000007629389983776491,-0.0000010000100019169622]},{"name":"EndLFeelerA5","rotation":[0.04361919313669205,-2.2452324444088845e-8,-6.054472478922435e-10,0.9990482330322266],"translation":[39.639610290527344,0.00000667572021484375,0.000007629389983776491]},{"name":"EndLFeelerC3","translation":[17.382720947265625,0,0]},{"name":"EndLFingerA","translation":[9.559898376464844,-0.00001525879997643642,-1.1920899822825959e-7]},{"name":"EndLFingerB","translation":[7.617516040802002,0.00001525879997643642,-0.000007629389983776491]},{"name":"EndLFingerC","translation":[7.518616199493408,-0.000003814699994109105,-0.00003051759995287284]},{"name":"EndLFoot","translation":[41.98551940917969,-0.16158680617809296,0.00429534912109375]},{"name":"EndLHand","translation":[27.146509170532227,0,0]},{"name":"EndLToeA","translation":[15.314410209655762,0,0.000007629389983776491]},{"name":"EndLToeB","translation":[12.497599601745605,9.536739753457368e-7,-0.000005722049991163658]},{"name":"EndLToeC","translation":[12.512410163879395,-7.152560215217818e-7,0]},{"name":"EndRFeelerA5","rotation":[-0.04361961409449577,1.529321203008749e-8,-1.535881422043417e-9,0.9990482926368713],"translation":[39.64009094238281,-0.000022888199964654632,-0.00005340580173651688]},{"name":"EndRFeelerC3","translation":[17.382810592651367,0.00007629390165675431,0.00010681199637474492]},{"name":"EndRFingerA","translation":[9.559822082519531,0.00001525879997643642,-1.1920899822825959e-7]},{"name":"EndRFingerB","translation":[7.617373943328857,0.0004806520009879023,-0.000373840011889115]},{"name":"EndRFingerC","translation":[7.518458843231201,0.00014495800132863224,0.00032043500686995685]},{"name":"EndRFoot","translation":[41.98550033569336,-0.16157910227775574,-0.004268645774573088]},{"name":"EndRHand","translation":[27.146400451660156,0,-0.00001525879997643642]},{"name":"EndRToeA","translation":[15.314410209655762,4.768369876728684e-7,0.00005340580173651688]},{"name":"EndRToeB","translation":[12.497599601745605,0,-0.0000019073499970545527]},{"name":"EndRToeC","translation":[12.512410163879395,4.768369876728684e-7,-0.000007629389983776491]},{"name":"EndTail6","translation":[29.197219848632812,0.000003814699994109105,-0.0000020000200038339244]},{"name":"EnvironmentAmbientLight","scale":[0.02539999969303608,0.02539999969303608,0.02539999969303608]},{"name":"Lamp","rotation":[0.16907575726509094,0.7558802962303162,-0.27217137813568115,0.570947527885437],"scale":[1,1,0.9999999403953552],"translation":[4.076245307922363,5.903861999511719,-1.0054539442062378]},{"children":[32],"name":"Origin"},{"children":[28,30,31],"name":"pm0149_00","rotation":[0.7071065902709961,0,0,0.7071069478988647],"scale":[0.02539999969303608,0.02539999969303608,0.02539999969303608]},{"name":"pm0149_00_BodySkin"},{"name":"pm0149_00_IrisSkin"},{"children":[1,33,64],"name":"Waist","rotation":[-0.022305553779006004,0.7067561745643616,-0.022305471822619438,0.7067536115646362],"scale":[1,1.0000001192092896,1.0000001192092896],"translation":[0,2.0569000244140625,-86.43099975585938]},{"children":[34,35,46,57],"name":"Waist_Hips","rotation":[-0.48397892713546753,0.5155234932899475,-0.5155234932899475,0.48397892713546753],"scale":[0.9999999403953552,1,0.9999999403953552],"translation":[-93.63223266601562,78.62630462646484,-0.000317414291203022]},{"name":"Waist_EndHips","rotation":[0,-3.725290298461914e-9,0,1],"translation":[71.78316497802734,-0.0004458427429199219,9.10738754272461]},{"children":[36],"name":"Waist_LThigh","rotation":[0,-0.0466892272233963,0,0.9989094734191895],"translation":[24.92273712158203,-40.30055236816406,3.383126735687256]},{"children":[37],"name":"Waist_LLeg","rotation":[0,0.1914789229631424,0,0.9814967513084412],"scale":[0.9999998807907104,1,0.9999998807907104],"translation":[24.913877487182617,0.1176300048828125,-0.9327777624130249]},{"children":[38,39],"name":"Waist_LFoot","rotation":[0,-0.9240785837173462,0,0.38220280408859253],"translation":[19.486093521118164,1.5222206115722656,17.359392166137695]},{"name":"Waist_EndLFoot","rotation":[0,7.450580596923828e-8,0,1],"translation":[-38.765419006347656,-6.019695281982422,14.960441589355469]},{"children":[40,42,44],"name":"Waist_LToe","rotation":[0,0.15457561612129211,0,0.9879809617996216],"translation":[-30.738964080810547,-3.9671669006347656,5.666435241699219]},{"children":[41],"name":"Waist_LToeA","rotation":[0,0.028885794803500175,0,0.9995827674865723],"translation":[-8.209311485290527,-1.2158432006835938,-2.182067394256592]},{"name":"Waist_EndLToeA","rotation":[0,3.725290298461914e-9,0,1],"scale":[1,0.9999999403953552,1],"translation":[-15.201333999633789,-1.857574462890625,0.002062678337097168]},{"children":[43],"name":"Waist_LToeB","rotation":[0,0.028908852487802505,0,0.9995821118354797],"translation":[-9.486870765686035,9.416004180908203,-2.1080846786499023]},{"name":"Waist_EndLToeB","translation":[-12.28652286529541,-2.2872543334960938,0.0011043548583984375]},{"children":[45],"name":"Waist_LToeC","rotation":[0,0.028868719935417175,0,0.9995832443237305],"scale":[1.0000001192092896,1,1.0000001192092896],"translation":[-7.012067794799805,-11.81927490234375,-2.2513957023620605]},{"name":"Waist_EndLToeC","translation":[-12.472214698791504,-1.0021400451660156,0.0021038055419921875]},{"children":[47],"name":"Waist_RThigh","rotation":[0,-0.046617358922958374,0,0.9989128112792969],"translation":[24.92319107055664,40.30024337768555,3.3834617137908936]},{"children":[48],"name":"Waist_RLeg","rotation":[0,0.19148032367229462,0,0.9814964532852173],"translation":[24.914138793945312,-0.11793899536132812,-0.9292042851448059]},{"children":[49,50],"name":"Waist_RFoot","rotation":[0,-0.9240721464157104,0,0.38221827149391174],"translation":[19.483539581298828,-1.5225715637207031,17.362228393554688]},{"name":"Waist_EndRFoot","translation":[-38.76809310913086,6.020050048828125,14.953327178955078]},{"children":[51,53,55],"name":"Waist_RToe","rotation":[0,0.15457791090011597,0,0.9879806041717529],"translation":[-30.740081787109375,3.9673805236816406,5.66085958480835]},{"children":[52],"name":"Waist_RToeA","rotation":[0,0.028891747817397118,0,0.9995825886726379],"translation":[-8.208857536315918,1.2158203125,-2.1836018562316895]},{"name":"Waist_EndRToeA","translation":[-15.20131778717041,1.857757568359375,-0.0009455680847167969]},{"children":[54],"name":"Waist_RToeB","rotation":[0,0.028886452317237854,0,0.9995827078819275],"translation":[-9.48654842376709,-9.415870666503906,-2.1097230911254883]},{"name":"Waist_EndRToeB","rotation":[0,-3.725290298461914e-9,0,1],"translation":[-12.286489486694336,2.2873497009277344,-0.0006395578384399414]},{"children":[56],"name":"Waist_RToeC","rotation":[0,0.02889947220683098,0,0.9995823502540588],"translation":[-7.011528491973877,11.81927490234375,-2.2528419494628906]},{"name":"Waist_EndRToeC","rotation":[0,-3.725290298461914e-9,0,1],"translation":[-12.472207069396973,1.0022239685058594,-0.0009741783142089844]},{"children":[58],"name":"Waist_Tail1","rotation":[0,-0.5585193037986755,0,0.8294915556907654],"translation":[18.391223907470703,-0.00022649765014648438,29.20627212524414]},{"children":[59],"name":"Waist_Tail2","rotation":[0,-0.24208346009254456,0,0.9702555537223816],"translation":[37.995697021484375,-0.00020694732666015625,0.00000762939453125]},{"children":[60],"name":"Waist_Tail3","rotation":[0,-0.01988423988223076,0,0.9998023509979248],"translation":[34.839691162109375,-0.00006103515625,-0.000014394521713256836]},{"children":[61],"name":"Waist_Tail4","rotation":[0,-0.012075117789208889,0,0.9999271035194397],"scale":[0.9999999403953552,1,0.9999999403953552],"translation":[37.005462646484375,-0.00005340576171875,0.00002384185791015625]},{"children":[62],"name":"Waist_Tail5","rotation":[0,-0.007365878205746412,0,0.9999728798866272],"scale":[0.9999999403953552,1,0.9999999403953552],"translation":[35.68162536621094,-0.0000443458411609754,0.000013828277587890625]},{"children":[63],"name":"Waist_Tail6","rotation":[0,-0.044385410845279694,0,0.9990144968032837],"scale":[0.9999999403953552,1,0.9999999403953552],"translation":[30.036012649536133,-0.00003337860107421875,0.00002002716064453125]},{"name":"Waist_EndTail6","translation":[29.19720458984375,-0.000014781951904296875,0.00000762939453125]},{"children":[65],"name":"Waist_Spine1","rotation":[-0.5000001192092896,-0.4999999701976776,0.4999999701976776,0.5000001192092896],"translation":[-93.63223266601562,78.62630462646484,-0.00031741452403366566]},{"children":[66,72,83,96,102],"name":"Waist_Spine2","rotation":[0,-0.00873530749231577,0,0.9999618530273438],"translation":[22.073152542114258,0.00007462501525878906,0.0000010936382750514895]},{"children":[67],"name":"Waist_LFeelerA1","rotation":[0,0.06222046911716461,0,0.9980624914169312],"translation":[37.93891906738281,-12.035351753234863,-19.897964477539062]},{"children":[68],"name":"Waist_LFeelerA2","rotation":[0,-0.08706701546907425,0,0.9962024688720703],"scale":[0.9999999403953552,1,0.9999999403953552],"translation":[10.978483200073242,-20.43852996826172,-8.924344062805176]},{"children":[69],"name":"Waist_LFeelerA3","rotation":[0,0.16841068863868713,0,0.9857169389724731],"translation":[19.483474731445312,-15.735225677490234,-4.75944709777832]},{"children":[70],"name":"Waist_LFeelerA4","rotation":[0,0.19893202185630798,0,0.9800133109092712],"translation":[-7.547989845275879,-19.240394592285156,-10.703563690185547]},{"children":[71],"name":"Waist_LFeelerA5","rotation":[0,0.7031081318855286,0,0.711082935333252],"translation":[-16.74619483947754,-17.317092895507812,-23.04108428955078]},{"name":"Waist_EndLFeelerA5","rotation":[0,-0.11941011250019073,0,0.9928450584411621],"translation":[25.911663055419922,-6.2643890380859375,-29.336692810058594]},{"children":[73],"name":"Waist_LShoulder","rotation":[0,-0.014510956592857838,0,0.9998947381973267],"translation":[27.827146530151367,-13.147507667541504,0.3465878963470459]},{"children":[74],"name":"Waist_LArm","rotation":[0,-0.008304675109684467,0,0.9999655485153198],"translation":[-2.238399028778076,-14.309834480285645,-0.27778100967407227]},{"children":[75],"name":"Waist_LForeArm","rotation":[0,-3.725290298461914e-9,0,1],"translation":[0.00001811981201171875,-23.65509796142578,0.00008535385131835938]},{"children":[76,77,79,81],"name":"Waist_LHand","translation":[-0.00002193450927734375,-23.03408432006836,0.00007152557373046875]},{"name":"Waist_EndLHand","translation":[-0.000008106231689453125,-27.146499633789062,0.00009489059448242188]},{"children":[78],"name":"Waist_LFingerA","rotation":[0,0.7413056492805481,0,0.6711675524711609],"translation":[0.9762578010559082,-13.295700073242188,-0.1473979949951172]},{"name":"Waist_EndLFingerA","rotation":[0,1.1175870895385742e-8,0,1],"translation":[0.09377574920654297,-9.512863159179688,-0.9423816204071045]},{"children":[80],"name":"Waist_LFingerB","rotation":[0,0.8732378482818604,0,0.48729410767555237],"translation":[-2.3162074089050293,-10.896705627441406,-7.7091779708862305]},{"name":"Waist_EndLFingerB","rotation":[0,-7.450581307466564e-8,0,1],"scale":[0.9999999403953552,1,0.9999999403953552],"translation":[3.7536468505859375,-6.582633972167969,0.7782478332519531]},{"children":[82],"name":"Waist_LFingerC","rotation":[0,0.10106464475393295,0,0.9948798418045044],"translation":[-2.316159725189209,-10.940567016601562,8.216224670410156]},{"name":"Waist_EndLFingerC","rotation":[0,-7.450580596923828e-9,0,1],"translation":[-1.8504648208618164,-6.9766693115234375,2.1050796508789062]},{"children":[84],"name":"Waist_Neck","rotation":[0,0.010765285231173038,0,0.9999420642852783],"translation":[41.55155563354492,0.0001432597346138209,0.000015735626220703125]},{"children":[85,86,88,92],"name":"Waist_Head","rotation":[0,-0.033573757857084274,0,0.9994363188743591],"translation":[22.060510635375977,0.00005322694778442383,-0.0000073909759521484375]},{"name":"Waist_EndHead","scale":[0.9999999403953552,1,0.9999999403953552],"translation":[55.096397399902344,0.00020268559455871582,-0.0000057220458984375]},{"children":[87],"name":"Waist_Jaw","rotation":[0,0.9697749018669128,0,0.2440013289451599],"scale":[0.9999999403953552,1,0.9999999403953552],"translation":[10.72087574005127,0.00016063451766967773,19.732791900634766]},{"name":"Waist_EndJaw","translation":[11.982208251953125,0.000030219496693462133,-24.267616271972656]},{"children":[89],"name":"Waist_LFeelerC1","rotation":[0,0.0948949083685875,0,0.9954872727394104],"scale":[0.9999999403953552,1,0.9999999403953552],"translation":[34.7481803894043,-8.090614318847656,25.468034744262695]},{"children":[90],"name":"Waist_LFeelerC2","rotation":[0,0.1507744938135147,0,0.9885681867599487],"translation":[9.31408977508545,-7.450502395629883,-0.5048332214355469]},{"children":[91],"name":"Waist_LFeelerC3","rotation":[0,0.007044489961117506,0,0.9999752044677734],"translation":[6.231098175048828,-16.74506950378418,-6.9477996826171875]},{"name":"Waist_EndLFeelerC3","translation":[12.5958251953125,-11.680732727050781,-2.657928466796875]},{"children":[93],"name":"Waist_RFeelerC1","rotation":[0,0.09489613026380539,0,0.9954872727394104],"scale":[0.9999999403953552,1,0.9999999403953552],"translation":[34.748573303222656,8.091068267822266,25.46796417236328]},{"children":[94],"name":"Waist_RFeelerC2","rotation":[0,0.15077631175518036,0,0.9885679483413696],"scale":[1.0000001192092896,1,1.0000001192092896],"translation":[9.31315803527832,7.450603485107422,-0.5050258636474609]},{"children":[95],"name":"Waist_RFeelerC3","rotation":[0,0.00704282196238637,0,0.9999752044677734],"scale":[0.9999999403953552,1,0.9999999403953552],"translation":[6.231224060058594,16.745067596435547,-6.947898864746094]},{"name":"Waist_EndRFeelerC3","translation":[12.595897674560547,11.680767059326172,-2.6579055786132812]},{"children":[97],"name":"Waist_RFeelerA1","rotation":[0,0.06222189962863922,0,0.9980623722076416],"translation":[37.93879318237305,12.035462379455566,-19.898069381713867]},{"children":[98],"name":"Waist_RFeelerA2","rotation":[0,-0.08706837147474289,0,0.9962023496627808],"scale":[0.9999999403953552,1,0.9999999403953552],"translation":[10.978775978088379,20.438533782958984,-8.924344062805176]},{"children":[99],"name":"Waist_RFeelerA3","rotation":[0,0.16841696202754974,0,0.9857158660888672],"translation":[19.483091354370117,15.735271453857422,-4.759610176086426]},{"children":[100],"name":"Waist_RFeelerA4","rotation":[0,0.1989409476518631,0,0.9800115823745728],"scale":[0.9999998807907104,1,0.9999998807907104],"translation":[-7.548345565795898,19.24016571044922,-10.703910827636719]},{"children":[101],"name":"Waist_RFeelerA5","rotation":[0,0.7031155228614807,0,0.7110756635665894],"translation":[-16.745010375976562,17.31689453125,-23.041458129882812]},{"name":"Waist_EndRFeelerA5","rotation":[0,-0.11940272897481918,0,0.9928459525108337],"translation":[25.91360092163086,6.2641143798828125,-29.335674285888672]},{"children":[103],"name":"Waist_RShoulder","rotation":[0,-0.01450690533965826,0,0.9998947978019714],"translation":[27.826961517333984,13.147706031799316,0.3464844226837158]},{"children":[104],"name":"Waist_RArm","rotation":[0,-0.008305039256811142,0,0.9999655485153198],"scale":[0.9999999403953552,1,0.9999999403953552],"translation":[-2.2387208938598633,14.3097562789917,-0.27790260314941406]},{"children":[105],"name":"Waist_RForeArm","translation":[-0.00010538101196289062,23.65510368347168,-0.0000743865966796875]},{"children":[106,107,109,111],"name":"Waist_RHand","translation":[-0.00011110305786132812,23.034095764160156,-0.00007534027099609375]},{"name":"Waist_EndRHand","translation":[-0.00014066696166992188,27.146400451660156,-0.00009012222290039062]},{"children":[108],"name":"Waist_RFingerA","rotation":[0,0.7413045763969421,0,0.6711688041687012],"translation":[0.9768834114074707,13.295707702636719,-0.1474781036376953]},{"name":"Waist_EndRFingerA","rotation":[0,3.166496753692627e-8,0,1],"translation":[0.09385395050048828,9.512794494628906,-0.9423708915710449]},{"children":[110],"name":"Waist_RFingerB","rotation":[0,0.873235821723938,0,0.48729783296585083],"scale":[1.0000001192092896,0.9999999403953552,1.0000001192092896],"translation":[-2.3160457611083984,10.896636962890625,-7.709283828735352]},{"name":"Waist_EndRFingerB","translation":[3.7533493041992188,6.5825653076171875,0.7787513732910156]},{"children":[112],"name":"Waist_RFingerC","rotation":[0,0.10106676816940308,0,0.9948796629905701],"scale":[1.0000001192092896,1,1.0000001192092896],"translation":[-2.316098690032959,10.94061279296875,8.216141700744629]},{"name":"Waist_EndRFingerC","translation":[-1.8501625061035156,6.976593017578125,2.10504150390625]}],"samplers":[{}],"scene":0,"scenes":[{"name":"Scene","nodes":[19,18,17,21,15,16,6,4,2,9,8,7,11,5,25,24,23,22,20,14,13,12,10,3,29,26,27,0]}],"skins":[{"inverseBindMatrices":0,"joints":[33,34,35,36,37,38,39,40,41,42,43,44,45,46,47,48,49,50,51,52,53,54,55,56,57,58,59,60,61,62,63,64,65,66,67,68,69,70,71,72,73,74,75,76,77,78,79,80,81,82,83,84,85,86,87,88,89,90,91,92,93,94,95,96,97,98,99,100,101,102,103,104,105,106,107,108,109,110,111,112],"skeleton":32}],"textures":[{"sampler":0,"source":0},{"sampler":0,"source":1},{"sampler":0,"source":2},{"sampler":0,"source":3}],"extensionsUsed":["ALI_amc_mesh_compression"],"extensionsRequired":["ALI_amc_mesh_compression"]}