{"accessors":[{"bufferView":0,"componentType":5126,"count":55,"max":[1.0000001192092896,1.9711704268843278e-8,0.9989432692527771,0,1.0000001192092896,0.0000013060530363873113,1.0000001192092896,0,0.0000012503146535891574,-1,0.0000013060525816399604,0,21.91189956665039,47.55793762207031,48.267269134521484,1],"min":[-1.0000001192092896,-1.2134786686601728e-7,-1.0000001192092896,0,-0.9989432692527771,-9.039913351216455e-8,-1.0000001192092896,0,-0.00000130467242343002,-1.0000007152557373,-0.0000013060525816399604,0,-63.24562072753906,-23.248394012451172,-41.69637680053711,1],"type":"MAT4","byteOffset":0},{"bufferView":1,"componentType":5126,"count":55,"max":[1.0000001192092896,1.9711704268843278e-8,0.9989432692527771,0,1.0000001192092896,0.0000013060530363873113,1.0000001192092896,0,0.0000012503146535891574,-1,0.0000013060525816399604,0,21.91189956665039,47.55793762207031,48.267269134521484,1],"min":[-1.0000001192092896,-1.2134786686601728e-7,-1.0000001192092896,0,-0.9989432692527771,-9.039913351216455e-8,-1.0000001192092896,0,-0.00000130467242343002,-1.0000007152557373,-0.0000013060525816399604,0,-63.24562072753906,-23.248394012451172,-41.69637680053711,1],"type":"MAT4","byteOffset":0},{"bufferView":2,"componentType":5126,"count":55,"max":[1.0000001192092896,1.9711704268843278e-8,0.9989432692527771,0,1.0000001192092896,0.0000013060530363873113,1.0000001192092896,0,0.0000012503146535891574,-1,0.0000013060525816399604,0,21.91189956665039,47.55793762207031,48.267269134521484,1],"min":[-1.0000001192092896,-1.2134786686601728e-7,-1.0000001192092896,0,-0.9989432692527771,-9.039913351216455e-8,-1.0000001192092896,0,-0.00000130467242343002,-1.0000007152557373,-0.0000013060525816399604,0,-63.24562072753906,-23.248394012451172,-41.69637680053711,1],"type":"MAT4","byteOffset":0},{"bufferView":3,"componentType":5126,"count":55,"max":[1.0000001192092896,1.9711704268843278e-8,0.9989432692527771,0,1.0000001192092896,0.0000013060530363873113,1.0000001192092896,0,0.0000012503146535891574,-1,0.0000013060525816399604,0,21.91189956665039,47.55793762207031,48.267269134521484,1],"min":[-1.0000001192092896,-1.2134786686601728e-7,-1.0000001192092896,0,-0.9989432692527771,-9.039913351216455e-8,-1.0000001192092896,0,-0.00000130467242343002,-1.0000007152557373,-0.0000013060525816399604,0,-63.24562072753906,-23.248394012451172,-41.69637680053711,1],"type":"MAT4","byteOffset":0},{"bufferView":4,"componentType":5126,"count":55,"max":[1.0000001192092896,1.9711704268843278e-8,0.9989432692527771,0,1.0000001192092896,0.0000013060530363873113,1.0000001192092896,0,0.0000012503146535891574,-1,0.0000013060525816399604,0,21.91189956665039,47.55793762207031,48.267269134521484,1],"min":[-1.0000001192092896,-1.2134786686601728e-7,-1.0000001192092896,0,-0.9989432692527771,-9.039913351216455e-8,-1.0000001192092896,0,-0.00000130467242343002,-1.0000007152557373,-0.0000013060525816399604,0,-63.24562072753906,-23.248394012451172,-41.69637680053711,1],"type":"MAT4","byteOffset":0},{"bufferView":5,"componentType":5126,"count":55,"max":[1.0000001192092896,1.9711704268843278e-8,0.9989432692527771,0,1.0000001192092896,0.0000013060530363873113,1.0000001192092896,0,0.0000012503146535891574,-1,0.0000013060525816399604,0,21.91189956665039,47.55793762207031,48.267269134521484,1],"min":[-1.0000001192092896,-1.2134786686601728e-7,-1.0000001192092896,0,-0.9989432692527771,-9.039913351216455e-8,-1.0000001192092896,0,-0.00000130467242343002,-1.0000007152557373,-0.0000013060525816399604,0,-63.24562072753906,-23.248394012451172,-41.69637680053711,1],"type":"MAT4","byteOffset":0}],"asset":{"generator":"Khronos Blender glTF 2.0 exporter","version":"2.0"},"bufferViews":[{"buffer":0,"byteLength":3520,"byteOffset":0},{"buffer":0,"byteLength":3520,"byteOffset":3520},{"buffer":0,"byteLength":3520,"byteOffset":7040},{"buffer":0,"byteLength":3520,"byteOffset":10560},{"buffer":0,"byteLength":3520,"byteOffset":14080},{"buffer":0,"byteLength":3520,"byteOffset":17600},{"buffer":0,"byteOffset":21120,"byteLength":583},{"buffer":0,"byteOffset":21703,"byteLength":53055},{"buffer":0,"byteOffset":74758,"byteLength":583},{"buffer":0,"byteOffset":75341,"byteLength":70895},{"buffer":0,"byteOffset":146236,"byteLength":751},{"buffer":0,"byteOffset":146987,"byteLength":15997}],"buffers":[{"byteLength":162984,"uri":"buffer.bin"}],"images":[{"name":"Body1_0","uri":"Body1_0.png"},{"name":"Eye1_0","uri":"Eye1_0.png"},{"name":"Mouth1_0","uri":"Mouth1_0.png"}],"materials":[{"name":"Body","pbrMetallicRoughness":{"baseColorFactor":[0.6400000190734865,0.6400000190734865,0.6400000190734865,1],"baseColorTexture":{"index":0},"metallicFactor":0}},{"name":"LEye","pbrMetallicRoughness":{"baseColorFactor":[0.6400000190734865,0.6400000190734865,0.6400000190734865,1],"baseColorTexture":{"index":1},"metallicFactor":0}},{"name":"Mouth","pbrMetallicRoughness":{"baseColorFactor":[0.6400000190734865,0.6400000190734865,0.6400000190734865,1],"baseColorTexture":{"index":2},"metallicFactor":0}},{"name":"REye","pbrMetallicRoughness":{"baseColorFactor":[0.6400000190734865,0.6400000190734865,0.6400000190734865,1],"baseColorTexture":{"index":1},"metallicFactor":0}}],"meshes":[{"name":"Mesh_4__REye_","primitives":[{"material":3,"extensions":{"ALI_amc_mesh_compression":{"bufferView":6}}}]},{"name":"Mesh_1__Body_","primitives":[{"material":0,"extensions":{"ALI_amc_mesh_compression":{"bufferView":7}}}]},{"name":"Mesh_6__LEye_","primitives":[{"material":1,"extensions":{"ALI_amc_mesh_compression":{"bufferView":8}}}]},{"name":"Mesh_2__Body_","primitives":[{"material":0,"extensions":{"ALI_amc_mesh_compression":{"bufferView":9}}}]},{"name":"Mesh_5__Mouth_","primitives":[{"material":2,"extensions":{"ALI_amc_mesh_compression":{"bufferView":10}}}]},{"name":"Mesh_3__Body_","primitives":[{"material":0,"extensions":{"ALI_amc_mesh_compression":{"bufferView":11}}}]}],"nodes":[{"children":[3,4,5,6,7,8,9],"name":"Armature","rotation":[1,-1.1102250098586267e-16,-5.551124387548643e-17,-1.9470718370939721e-7]},{"name":"Camera","rotation":[0.483536034822464,0.33687159419059753,-0.20870360732078552,0.7804827094078064],"translation":[7.481131553649902,5.34366512298584,6.5076398849487305]},{"name":"Lamp","rotation":[0.16907575726509094,0.7558802962303162,-0.27217137813568115,0.570947527885437],"scale":[1,1,0.9999999403953552],"translation":[4.076245307922363,5.903861999511719,-1.0054539442062378]},{"mesh":1,"name":"Mesh_1__Body_","skin":0},{"mesh":3,"name":"Mesh_2__Body_","skin":1},{"mesh":5,"name":"Mesh_3__Body_","skin":2},{"mesh":0,"name":"Mesh_4__REye_","skin":3},{"mesh":4,"name":"Mesh_5__Mouth_","skin":4},{"mesh":2,"name":"Mesh_6__LEye_","skin":5},{"children":[10,63],"name":"Armature_pm0035_00","rotation":[-0.7071068286895752,7.850476717442717e-17,-7.850476717442717e-17,0.7071068286895752]},{"children":[11],"name":"Armature_Origin","rotation":[0,1.7549296434452022e-12,0,1]},{"children":[12,49],"name":"Armature_Waist","rotation":[0,0.6906659007072449,0,0.723173975944519],"scale":[0.9999999403953552,0.9999998211860657,0.9999999403953552],"translation":[0.000021922478481428698,-1.9050118923187256,-21.911924362182617]},{"children":[13,15,16,18,20,31,33,35,46],"name":"Armature_Head","rotation":[3.001369464072923e-8,1.862645149230957e-9,6.523360980281723e-7,1],"translation":[-8.997678833111422e-7,2.384185791015625e-7,-3.527384251356125e-8]},{"children":[14],"name":"Armature_Curl","rotation":[2.333218999408214e-14,-0.4946180582046509,2.378922313791567e-15,0.8691105842590332],"scale":[0.9999999403953552,1,0.9999999403953552],"translation":[27.9903564453125,15.548251152038574,-1.2879638671875]},{"name":"Armature_EndCurl","rotation":[2.1733313662185977e-14,-3.2782554626464844e-7,1.2538472864143113e-14,1],"translation":[2.2463955879211426,8.947848320007324,-4.211307048797607]},{"name":"Armature_EndHead","rotation":[1.3539292266267957e-20,-3.557652519248222e-7,5.6843354486304024e-14,1],"scale":[0.9999999403953552,1,0.9999999403953552],"translation":[41.356849670410156,1.9049389362335205,-1.902950644493103]},{"children":[17],"name":"Armature_LEar","rotation":[3.088064946441503e-14,-0.4578108489513397,7.075486436981457e-15,0.8890496492385864],"scale":[0.9999999403953552,0.9999999403953552,0.9999999403953552],"translation":[25.633996963500977,2.057152271270752,11.250201225280762]},{"name":"Armature_EndLEar","rotation":[2.0708231001287034e-14,1.1920928955078125e-7,-2.2756387160934033e-15,1],"translation":[20.792451858520508,-0.8147016763687134,0.8140571117401123]},{"children":[19],"name":"Armature_LFeeler","rotation":[4.1903075654508085e-14,-0.6906657814979553,8.653228449810677e-15,0.7231740951538086],"translation":[15.561738014221191,-19.617719650268555,1.7372753620147705]},{"name":"Armature_EndLFeeler","rotation":[-6.982256763876649e-7,-6.654990869492394e-8,4.6466892562446044e-14,1],"translation":[12.36569595336914,0.000008403626452491153,0.000010465146260685287]},{"children":[21],"name":"Armature_LShoulder","rotation":[6.105642521517934e-14,-0.9377487301826477,4.478014905600822e-16,0.3473144471645355],"scale":[0.9999999403953552,0.9999997615814209,0.9999999403953552],"translation":[9.44162368774414,4.505964279174805,13.07984733581543]},{"children":[22],"name":"Armature_LArm","rotation":[-9.089439406218328e-15,0.24970853328704834,-7.275280333415065e-16,0.9683210849761963],"translation":[3.8289341926574707,7.9546685218811035,-4.8986310958862305]},{"children":[23],"name":"Armature_LForeArm","rotation":[2.842111650734093e-14,-0.000003084540367126465,1.6940658945086007e-19,1],"translation":[4.432633876800537,4.077857971191406,-1.204409122467041]},{"children":[24,25,27,29],"name":"Armature_LHand","rotation":[2.9003675275276336e-14,0.0031744549050927162,-2.45681429895077e-16,0.9999949932098389],"translation":[3.5859780311584473,3.2989583015441895,-0.9743772745132446]},{"name":"Armature_EndLHand","rotation":[-1.7891715479197016e-16,-0.0009750877507030964,-1.4135882134974631e-14,0.9999995231628418],"translation":[3.8848683834075928,3.5450003147125244,-1.0556985139846802]},{"children":[26],"name":"Armature_LFingerA","rotation":[-7.98709676955861e-13,-0.9981743097305298,3.9851634362278454e-13,0.06039967015385628],"translation":[-0.07139758765697479,2.491058111190796,-1.3147647380828857]},{"name":"Armature_EndLFingerA","rotation":[-3.864106707133705e-15,-4.172324565843155e-7,-1.3675352015618363e-14,1],"scale":[1.0000001192092896,1.0000001192092896,1.0000001192092896],"translation":[0.9103285074234009,2.808210611343384,0.7956734895706177]},{"children":[28],"name":"Armature_LFingerB","rotation":[-5.959320629198364e-14,0.8524406552314758,2.6544858908075612e-14,0.5228240489959717],"translation":[1.680210828781128,3.304530382156372,-0.8345173001289368]},{"name":"Armature_EndLFingerB","rotation":[-2.9232801075640413e-17,-0.000001564621925354004,-2.763178683258538e-14,1],"translation":[-0.7283289432525635,2.0114288330078125,1.701053500175476]},{"children":[30],"name":"Armature_LFingerC","rotation":[-4.42595043731106e-14,0.8604515194892883,-2.250768642915891e-14,0.5095324516296387],"translation":[3.08233380317688,2.2327280044555664,-0.09952018409967422]},{"name":"Armature_EndLFingerC","rotation":[-1.9549520422629252e-17,-0.0000014007091522216797,-2.8048743883068994e-14,1],"translation":[-0.8595964312553406,2.108743667602539,1.6682889461517334]},{"children":[32],"name":"Armature_REar","rotation":[-9.050769811077327e-15,0.5317319631576538,2.483206172697143e-14,0.846912682056427],"scale":[0.9999998807907104,0.9999999403953552,0.9999998807907104],"translation":[24.492403030395508,2.057142496109009,-13.556743621826172]},{"name":"Armature_EndREar","rotation":[6.756739468600191e-15,-1.9371509552001953e-7,-1.708995697236905e-15,1],"scale":[1,0.9999998807907104,1],"translation":[20.792430877685547,-0.8146990537643433,0.8140661120414734]},{"children":[34],"name":"Armature_RFeeler","rotation":[-4.100006060570385e-14,0.7231763005256653,6.374919462351055e-15,0.6906635761260986],"translation":[15.336431503295898,-19.617721557617188,-3.159055471420288]},{"name":"Armature_EndRFeeler","rotation":[6.811956723140611e-7,0.0000010459359600645257,7.124870897261271e-13,1],"translation":[12.365660667419434,-0.0000945930732996203,0.000009268816938856617]},{"children":[36],"name":"Armature_RShoulder","rotation":[-7.235448609070431e-15,0.3473173677921295,9.585767679024405e-15,0.9377476572990417],"translation":[8.200461387634277,4.505966663360596,-13.891633987426758]},{"children":[37],"name":"Armature_RArm","rotation":[-1.154587137567253e-14,-0.2975183427333832,6.625248191450802e-16,0.9547160863876343],"translation":[3.829036235809326,7.954596996307373,-4.898717880249023]},{"children":[38],"name":"Armature_RForeArm","rotation":[-3.53086022876134e-15,-4.377216100692749e-7,2.768524647001839e-14,1],"translation":[-0.35806357860565186,4.077847480773926,-4.579250335693359]},{"children":[39,40,42,44],"name":"Armature_RHand","rotation":[-1.0022163315084336e-17,0.0029448866844177246,-2.864654585592319e-14,0.9999957084655762],"scale":[0.9999999403953552,1,0.9999999403953552],"translation":[-0.2898138761520386,3.298981189727783,-3.704787254333496]},{"name":"Armature_EndRHand","rotation":[-1.701619310815741e-15,-0.004589956719428301,2.6814957386164275e-14,0.9999895691871643],"translation":[-0.2646237909793854,3.544983148574829,-4.016992092132568]},{"children":[41],"name":"Armature_RFingerA","rotation":[7.729672005002582e-15,0.5103716850280762,1.6589816839542092e-15,0.8599539399147034],"translation":[1.2666027545928955,2.4910848140716553,-0.35980695486068726]},{"name":"Armature_EndRFingerA","rotation":[-5.980996202318602e-15,-5.960464477539062e-7,1.319955582145373e-15,1],"scale":[1,1.0000001192092896,1],"translation":[-0.1717887967824936,2.808149576187134,1.1968640089035034]},{"children":[43],"name":"Armature_RFingerB","rotation":[1.4637925339075833e-14,0.8646000623703003,-3.797315109924093e-14,0.5024608373641968],"scale":[0.9999998807907104,1,0.9999998807907104],"translation":[0.24293853342533112,3.304583787918091,-1.8602415323257446]},{"name":"Armature_EndRFingerB","rotation":[1.3552527156068805e-20,-1.6391277313232422e-7,3.3881317890172014e-20,1],"translation":[1.791536808013916,2.011463165283203,0.46269091963768005]},{"children":[45],"name":"Armature_RFingerC","rotation":[1.0380273572120624e-14,0.8724672794342041,-1.0039369238278723e-13,0.48867267370224],"scale":[0.9999999403953552,0.9999999403953552,0.9999999403953552],"translation":[-0.9079589247703552,2.232893943786621,-2.947096824645996]},{"name":"Armature_EndRFingerC","rotation":[5.6843388367621914e-14,0,2.842173992359011e-14,1],"scale":[1.0000001192092896,1,1.0000001192092896],"translation":[1.8209556341171265,2.108612060546875,0.4539746344089508]},{"children":[47],"name":"Armature_Tail1","rotation":[5.808849461283374e-15,-0.8727015256881714,-1.3651533449141572e-14,0.4882541596889496],"translation":[5.162665843963623,-20.214548110961914,-0.237602099776268]},{"children":[48],"name":"Armature_Tail2","rotation":[-3.399440695302583e-14,-0.03456806391477585,3.2499403965517357e-14,0.9994023442268372],"scale":[1,0.9999999403953552,1],"translation":[4.622787952423096,-12.114904403686523,6.806568145751953]},{"name":"Armature_EndTail2","rotation":[3.71989934786366e-14,2.9802322387695312e-8,-3.034668328259771e-15,1],"translation":[6.462955951690674,-13.323451042175293,8.229255676269531]},{"children":[50,51,57],"name":"Armature_Hips","rotation":[6.248553177101712e-7,-0.9997357130050659,-2.0323097871255413e-8,0.0229909997433424],"scale":[0.9999999403953552,1,0.9999999403953552],"translation":[-0.000024373650376219302,0.0000010728836059570312,-0.00001169225561170606]},{"name":"Armature_EndHips","rotation":[-1.2967057982926633e-16,-5.910828804189805e-8,-5.719526957083387e-14,1],"translation":[17.185609817504883,0.000021747204300481826,0.000005996088475512806]},{"children":[52],"name":"Armature_LThigh","rotation":[-3.06024279403622e-15,-0.041020557284355164,-1.9519799730575993e-14,0.9991583228111267],"scale":[1,0.9999999403953552,1],"translation":[7.013974666595459,1.913996934890747,-12.111804962158203]},{"children":[53],"name":"Armature_LLeg","rotation":[4.911815735636179e-15,0.1043873131275177,7.200275565935697e-15,0.9945367574691772],"translation":[8.065008163452148,0.6655735969543457,-0.6632886528968811]},{"children":[54,55],"name":"Armature_LFoot","rotation":[-1.3110536893862039e-14,-0.7526677846908569,-1.576637143052822e-14,0.6584006547927856],"scale":[1,0.9999997615814209,1],"translation":[5.1666107177734375,-0.6655591130256653,0.6601496934890747]},{"name":"Armature_EndLFoot","rotation":[6.357829533953918e-7,-1.6996597906882016e-8,-7.064255669320119e-8,1],"translation":[-0.00003181418651365675,8.588321685791016,-0.00001540307857794687]},{"children":[56],"name":"Armature_LToe","rotation":[5.6038510556086565e-14,-1.35740265250206e-7,-2.220446313948109e-16,1],"scale":[1,0.9999999403953552,1],"translation":[-0.00001905503449961543,4.768194675445557,-1.037941575050354]},{"name":"Armature_EndLToe","rotation":[6.181222715895274e-7,-6.984980371882443e-10,8.673617379884035e-18,1],"translation":[-0.000008408410394622479,4.114365100860596,-0.000006966245564399287]},{"children":[58],"name":"Armature_RThigh","rotation":[-3.504706180690732e-15,-0.04101812466979027,2.3426468149243332e-14,0.999158501625061],"scale":[1,0.9999999403953552,1],"translation":[7.013949871063232,1.9140052795410156,12.111773490905762]},{"children":[59],"name":"Armature_RLeg","rotation":[7.590986453515688e-15,0.10438424348831177,-1.0828320966933206e-14,0.9945371150970459],"scale":[0.9999999403953552,1,0.9999999403953552],"translation":[8.065008163452148,0.6655530333518982,-0.6633315682411194]},{"children":[60,61],"name":"Armature_RFoot","rotation":[1.80604026200383e-15,-0.7522207498550415,3.411995078833607e-14,0.6589112877845764],"scale":[0.9999999403953552,0.9999998807907104,0.9999999403953552],"translation":[5.166621685028076,-0.6655623316764832,0.6603066325187683]},{"name":"Armature_EndRFoot","rotation":[6.357829533953918e-7,3.166496043149891e-8,1.9585028043778152e-14,1],"translation":[-0.00003254308467148803,8.588315963745117,-0.00001614794018678367]},{"children":[62],"name":"Armature_RToe","rotation":[2.790476183456292e-14,-8.731149137020111e-8,-5.551115652521375e-16,1],"scale":[1,0.9999999403953552,1],"translation":[-0.00011155580432387069,4.768191337585449,-1.037934422492981]},{"name":"Armature_EndRToe","rotation":[6.269525556490407e-7,-2.328363057912952e-10,-2.9967348047499343e-16,1],"translation":[0.00008978424739325419,4.114363193511963,-0.0000068989829742349684]},{"name":"Armature_pm0035_00_Skin"}],"samplers":[{}],"scene":0,"scenes":[{"name":"Scene","nodes":[0,2,1]}],"skins":[{"inverseBindMatrices":0,"joints":[9,10,11,12,13,14,15,16,17,18,19,20,21,22,23,24,25,26,27,28,29,30,31,32,33,34,35,36,37,38,39,40,41,42,43,44,45,46,47,48,49,50,51,52,53,54,55,56,57,58,59,60,61,62,63],"skeleton":0},{"inverseBindMatrices":1,"joints":[9,10,11,12,13,14,15,16,17,18,19,20,21,22,23,24,25,26,27,28,29,30,31,32,33,34,35,36,37,38,39,40,41,42,43,44,45,46,47,48,49,50,51,52,53,54,55,56,57,58,59,60,61,62,63],"skeleton":0},{"inverseBindMatrices":2,"joints":[9,10,11,12,13,14,15,16,17,18,19,20,21,22,23,24,25,26,27,28,29,30,31,32,33,34,35,36,37,38,39,40,41,42,43,44,45,46,47,48,49,50,51,52,53,54,55,56,57,58,59,60,61,62,63],"skeleton":0},{"inverseBindMatrices":3,"joints":[9,10,11,12,13,14,15,16,17,18,19,20,21,22,23,24,25,26,27,28,29,30,31,32,33,34,35,36,37,38,39,40,41,42,43,44,45,46,47,48,49,50,51,52,53,54,55,56,57,58,59,60,61,62,63],"skeleton":0},{"inverseBindMatrices":4,"joints":[9,10,11,12,13,14,15,16,17,18,19,20,21,22,23,24,25,26,27,28,29,30,31,32,33,34,35,36,37,38,39,40,41,42,43,44,45,46,47,48,49,50,51,52,53,54,55,56,57,58,59,60,61,62,63],"skeleton":0},{"inverseBindMatrices":5,"joints":[9,10,11,12,13,14,15,16,17,18,19,20,21,22,23,24,25,26,27,28,29,30,31,32,33,34,35,36,37,38,39,40,41,42,43,44,45,46,47,48,49,50,51,52,53,54,55,56,57,58,59,60,61,62,63],"skeleton":0}],"textures":[{"sampler":0,"source":0},{"sampler":0,"source":1},{"sampler":0,"source":2},{"sampler":0,"source":1}],"extensionsUsed":["ALI_amc_mesh_compression"],"extensionsRequired":["ALI_amc_mesh_compression"]}