{"accessors":[{"bufferView":0,"componentType":5126,"count":23,"max":[1,1.8627097642109902e-9,1,0,1,3.453210695170128e-7,1,0,1.7266056318021583e-7,-1,3.4532391168795584e-7,0,208.27735900878906,0,188.2992706298828,1],"min":[-0.4181455075740814,-2.4896930739259915e-8,-1,0,-1,-7.717597441114776e-7,-0.4181455075740814,0,-6.906408316353918e-7,-1.0000001192092896,-1.8626558073719934e-9,0,-443.2510681152344,-205.54013061523438,-2.000965118408203,1],"type":"MAT4","byteOffset":0},{"bufferView":1,"componentType":5126,"count":23,"max":[1,1.8627097642109902e-9,1,0,1,3.453210695170128e-7,1,0,1.7266056318021583e-7,-1,3.4532391168795584e-7,0,208.27735900878906,0,188.2992706298828,1],"min":[-0.4181455075740814,-2.4896930739259915e-8,-1,0,-1,-7.717597441114776e-7,-0.4181455075740814,0,-6.906408316353918e-7,-1.0000001192092896,-1.8626558073719934e-9,0,-443.2510681152344,-205.54013061523438,-2.000965118408203,1],"type":"MAT4","byteOffset":0},{"bufferView":2,"componentType":5126,"count":23,"max":[1,1.8627097642109902e-9,1,0,1,3.453210695170128e-7,1,0,1.7266056318021583e-7,-1,3.4532391168795584e-7,0,208.27735900878906,0,188.2992706298828,1],"min":[-0.4181455075740814,-2.4896930739259915e-8,-1,0,-1,-7.717597441114776e-7,-0.4181455075740814,0,-6.906408316353918e-7,-1.0000001192092896,-1.8626558073719934e-9,0,-443.2510681152344,-205.54013061523438,-2.000965118408203,1],"type":"MAT4","byteOffset":0},{"bufferView":3,"componentType":5126,"count":23,"max":[1,1.8627097642109902e-9,1,0,1,3.453210695170128e-7,1,0,1.7266056318021583e-7,-1,3.4532391168795584e-7,0,208.27735900878906,0,188.2992706298828,1],"min":[-0.4181455075740814,-2.4896930739259915e-8,-1,0,-1,-7.717597441114776e-7,-0.4181455075740814,0,-6.906408316353918e-7,-1.0000001192092896,-1.8626558073719934e-9,0,-443.2510681152344,-205.54013061523438,-2.000965118408203,1],"type":"MAT4","byteOffset":0},{"bufferView":4,"componentType":5126,"count":23,"max":[1,1.8627097642109902e-9,1,0,1,3.453210695170128e-7,1,0,1.7266056318021583e-7,-1,3.4532391168795584e-7,0,208.27735900878906,0,188.2992706298828,1],"min":[-0.4181455075740814,-2.4896930739259915e-8,-1,0,-1,-7.717597441114776e-7,-0.4181455075740814,0,-6.906408316353918e-7,-1.0000001192092896,-1.8626558073719934e-9,0,-443.2510681152344,-205.54013061523438,-2.000965118408203,1],"type":"MAT4","byteOffset":0},{"bufferView":5,"componentType":5126,"count":23,"max":[1,1.8627097642109902e-9,1,0,1,3.453210695170128e-7,1,0,1.7266056318021583e-7,-1,3.4532391168795584e-7,0,208.27735900878906,0,188.2992706298828,1],"min":[-0.4181455075740814,-2.4896930739259915e-8,-1,0,-1,-7.717597441114776e-7,-0.4181455075740814,0,-6.906408316353918e-7,-1.0000001192092896,-1.8626558073719934e-9,0,-443.2510681152344,-205.54013061523438,-2.000965118408203,1],"type":"MAT4","byteOffset":0}],"asset":{"generator":"Khronos Blender glTF 2.0 exporter","version":"2.0"},"bufferViews":[{"buffer":0,"byteLength":1472,"byteOffset":0},{"buffer":0,"byteLength":1472,"byteOffset":1472},{"buffer":0,"byteLength":1472,"byteOffset":2944},{"buffer":0,"byteLength":1472,"byteOffset":4416},{"buffer":0,"byteLength":1472,"byteOffset":5888},{"buffer":0,"byteLength":1472,"byteOffset":7360},{"buffer":0,"byteOffset":8832,"byteLength":997},{"buffer":0,"byteOffset":9829,"byteLength":2267},{"buffer":0,"byteOffset":12096,"byteLength":7431},{"buffer":0,"byteOffset":19527,"byteLength":11481},{"buffer":0,"byteOffset":31008,"byteLength":19013},{"buffer":0,"byteOffset":50021,"byteLength":30975},{"buffer":0,"byteOffset":80996,"byteLength":61925},{"buffer":0,"byteOffset":142921,"byteLength":997}],"buffers":[{"byteLength":143918,"uri":"buffer.bin"}],"images":[{"name":"pm0095_00_BodyA1","uri":"pm0095_00_BodyA1.png"},{"name":"pm0095_00_BodyB1","uri":"pm0095_00_BodyB1.png"},{"name":"pm0095_00_BodyC1","uri":"pm0095_00_BodyC1.png"},{"name":"pm0095_00_Eye1","uri":"pm0095_00_Eye1.png"},{"name":"pm0095_00_Iris1","uri":"pm0095_00_Iris1.png"}],"materials":[{"name":"BodyAVco00_mat","pbrMetallicRoughness":{"baseColorFactor":[0.6400000190734865,0.6400000190734865,0.6400000190734865,1],"baseColorTexture":{"index":0},"metallicFactor":0}},{"name":"BodyAVco01_mat","pbrMetallicRoughness":{"baseColorFactor":[0.6400000190734865,0.6400000190734865,0.6400000190734865,1],"baseColorTexture":{"index":0},"metallicFactor":0}},{"name":"BodyB00_mat","pbrMetallicRoughness":{"baseColorFactor":[0.6400000190734865,0.6400000190734865,0.6400000190734865,1],"baseColorTexture":{"index":2},"metallicFactor":0}},{"name":"BodyB01_mat","pbrMetallicRoughness":{"baseColorFactor":[0.6400000190734865,0.6400000190734865,0.6400000190734865,1],"baseColorTexture":{"index":2},"metallicFactor":0}},{"name":"BodyC_mat","pbrMetallicRoughness":{"baseColorFactor":[0.6400000190734865,0.6400000190734865,0.6400000190734865,1],"baseColorTexture":{"index":4},"metallicFactor":0}},{"name":"Eye_mat","pbrMetallicRoughness":{"baseColorFactor":[0.6400000190734865,0.6400000190734865,0.6400000190734865,1],"baseColorTexture":{"index":5},"metallicFactor":0}},{"alphaMode":"MASK","name":"LIris_mat","pbrMetallicRoughness":{"baseColorFactor":[0.6400000190734865,0.6400000190734865,0.6400000190734865,1],"baseColorTexture":{"index":6},"metallicFactor":0}},{"alphaMode":"MASK","name":"RIris_mat","pbrMetallicRoughness":{"baseColorFactor":[0.6400000190734865,0.6400000190734865,0.6400000190734865,1],"baseColorTexture":{"index":6},"metallicFactor":0}}],"meshes":[{"name":"mesh_6_pm0095_00_IrisSkin","primitives":[{"material":6,"extensions":{"ALI_amc_mesh_compression":{"bufferView":6}}}]},{"name":"mesh_1_pm0095_00_BodySkin","primitives":[{"material":5,"extensions":{"ALI_amc_mesh_compression":{"bufferView":7}}}]},{"name":"mesh_5_pm0095_00_BodySkin","primitives":[{"material":0,"extensions":{"ALI_amc_mesh_compression":{"bufferView":8}}}]},{"name":"mesh_4_pm0095_00_BodySkin","primitives":[{"material":3,"extensions":{"ALI_amc_mesh_compression":{"bufferView":9}}},{"material":2,"extensions":{"ALI_amc_mesh_compression":{"bufferView":10}}},{"material":4,"extensions":{"ALI_amc_mesh_compression":{"bufferView":11}}}]},{"name":"mesh_0_pm0095_00_BodySkin","primitives":[{"material":1,"extensions":{"ALI_amc_mesh_compression":{"bufferView":12}}}]},{"name":"mesh_7_pm0095_00_IrisSkin","primitives":[{"material":7,"extensions":{"ALI_amc_mesh_compression":{"bufferView":13}}}]}],"nodes":[{"children":[3,4,5,6,7,8,9],"name":"Armature","rotation":[0.7071068286895752,0,0,0.7071067094802856],"scale":[0.02539999969303608,0.02539999969303608,0.02539999969303608]},{"name":"Camera","rotation":[0.483536034822464,0.33687159419059753,-0.20870360732078552,0.7804827094078064],"translation":[7.481131553649902,5.34366512298584,6.5076398849487305]},{"name":"Lamp","rotation":[0.16907575726509094,0.7558802962303162,-0.27217137813568115,0.570947527885437],"scale":[1,1,0.9999999403953552],"translation":[4.076245307922363,5.903861999511719,-1.0054539442062378]},{"mesh":4,"name":"vsn_mesh_0_pm0095_00_BodySkin","skin":0},{"mesh":1,"name":"vsn_mesh_1_pm0095_00_BodySkin","skin":1},{"mesh":3,"name":"vsn_mesh_4_pm0095_00_BodySkin","skin":2},{"mesh":2,"name":"vsn_mesh_5_pm0095_00_BodySkin","skin":3},{"mesh":0,"name":"vsn_mesh_6_pm0095_00_IrisSkin","skin":4},{"mesh":5,"name":"vsn_mesh_7_pm0095_00_IrisSkin","skin":5},{"children":[10,30,31],"name":"Armature_pm0095_00","rotation":[-0.7071068286895752,0,0,0.7071068286895752]},{"children":[11],"name":"Armature_Origin","rotation":[0,2.373709673264557e-9,0,1]},{"children":[12,24],"name":"Armature_Waist","rotation":[0,-0.7071068286895752,0,0.7071068286895752],"scale":[1,0.9999999403953552,1],"translation":[-1.9999995231628418,68.6063003540039,-7.863202533542335e-9]},{"children":[13],"name":"Armature_Spine1","rotation":[0,0.00000208378901334072,0,1],"translation":[-208.27734375,-0.000030517578125,0.00007701828144490719]},{"children":[14],"name":"Armature_Spine2","rotation":[-9.311631465891423e-10,-0.0000019073486328125,-8.63302673792532e-8,1],"translation":[56.38445281982422,0.0000152587890625,0.00021379516692832112]},{"children":[15],"name":"Armature_Spine3","rotation":[9.313276816413918e-10,0.0000016689299400240998,1.700545696555096e-15,1],"translation":[66.74076843261719,0.000015811439880053513,-0.000002522604972909903]},{"children":[16],"name":"Armature_Spine4","rotation":[8.470329472543003e-22,0,1.257314531080602e-22,1],"translation":[62.13802719116211,0.000011285161235718988,0.00020647062046919018]},{"children":[17],"name":"Armature_Spine5","rotation":[6.174820854285001e-13,-0.0000035762786865234375,1.7266050633679697e-7,1],"translation":[77.09715270996094,0.000032226191251538694,0.00025650777388364077]},{"children":[18],"name":"Armature_Spine6","rotation":[6.58647615614516e-13,0.000003814697265625,-1.7266052054765169e-7,1],"translation":[70.19293975830078,-0.000006198758910613833,-0.00027115034754388034]},{"children":[19],"name":"Armature_Spine7","rotation":[-1.646618767985747e-13,-0.0000019073486328125,8.633026027382584e-8,1],"translation":[62.1379280090332,0.0000321863335557282,0.00023581164714414626]},{"children":[20],"name":"Armature_Spine8","rotation":[-9.3163643466454e-10,0.0000017881393432617188,1.7266052054765169e-7,1],"translation":[86.30282592773438,1.6569856597925536e-11,-0.000003319977849969291]},{"children":[21,22],"name":"Armature_Head","rotation":[9.282608015581673e-10,-0.000021576881408691406,-1.7266052054765169e-7,1],"translation":[65.58995056152344,-1.1507515907287598,0.00023306913499254733]},{"name":"Armature_EndHead","rotation":[-1.46211960398733e-20,0.000019490718841552734,-4.424511548363718e-22,1],"translation":[-1.150586724281311,138.08453369140625,0.00004994909977540374]},{"children":[23],"name":"Armature_Jaw","rotation":[-3.102668528450884e-20,-0.21401314437389374,-6.957311119019813e-21,0.976830780506134],"translation":[25.207916259765625,-26.69448471069336,-1.9988263845443726]},{"name":"Armature_EndJaw","rotation":[1.7266066265619884e-7,-3.8743019104003906e-7,3.453209842518845e-7,1],"translation":[78.85653686523438,-39.9603271484375,-36.29901885986328]},{"children":[25],"name":"Armature_Tail1","rotation":[0,1,0,-1.9470718370939721e-7],"translation":[-256.8370056152344,-0.0000152587890625,-2.0358948707580566]},{"children":[26],"name":"Armature_Tail2","rotation":[-2.9103990051293493e-11,2.5444450102440896e-8,-7.405350977493231e-19,1],"translation":[42.80621337890625,-0.00002288818359375,3.4060212783515453e-7]},{"children":[27],"name":"Armature_Tail3","rotation":[1.2308477154165942e-11,1.1920927533992653e-7,1.7266052054765169e-7,1],"translation":[34.521026611328125,-0.000007629396350239404,0.000002037070544247399]},{"children":[28],"name":"Armature_Tail4","rotation":[1.6785222517468057e-11,-1.1920927533992653e-7,-1.7266050633679697e-7,1],"translation":[22.09362030029297,-0.000008582429472880904,0.000006612762263102923]},{"children":[29],"name":"Armature_Tail5","rotation":[2.963188751950824e-24,0,4.235154638851915e-22,1],"translation":[40.04443359375,0.00002288817267981358,0.000002347356257814681]},{"name":"Armature_EndTail5","rotation":[-1.6754347909042622e-11,-1.7734752333136913e-21,1.7266052054765169e-7,1],"translation":[46.94873046875,-0.00005340577263268642,0.0000027346409297024366]},{"name":"Armature_pm0095_00_BodySkin"},{"name":"Armature_pm0095_00_IrisSkin"}],"samplers":[{}],"scene":0,"scenes":[{"name":"Scene","nodes":[0,2,1]}],"skins":[{"inverseBindMatrices":0,"joints":[9,10,11,12,13,14,15,16,17,18,19,20,21,22,23,24,25,26,27,28,29,30,31],"skeleton":0},{"inverseBindMatrices":1,"joints":[9,10,11,12,13,14,15,16,17,18,19,20,21,22,23,24,25,26,27,28,29,30,31],"skeleton":0},{"inverseBindMatrices":2,"joints":[9,10,11,12,13,14,15,16,17,18,19,20,21,22,23,24,25,26,27,28,29,30,31],"skeleton":0},{"inverseBindMatrices":3,"joints":[9,10,11,12,13,14,15,16,17,18,19,20,21,22,23,24,25,26,27,28,29,30,31],"skeleton":0},{"inverseBindMatrices":4,"joints":[9,10,11,12,13,14,15,16,17,18,19,20,21,22,23,24,25,26,27,28,29,30,31],"skeleton":0},{"inverseBindMatrices":5,"joints":[9,10,11,12,13,14,15,16,17,18,19,20,21,22,23,24,25,26,27,28,29,30,31],"skeleton":0}],"textures":[{"sampler":0,"source":0},{"sampler":0,"source":0},{"sampler":0,"source":1},{"sampler":0,"source":1},{"sampler":0,"source":2},{"sampler":0,"source":3},{"sampler":0,"source":4},{"sampler":0,"source":4}],"extensionsUsed":["ALI_amc_mesh_compression"],"extensionsRequired":["ALI_amc_mesh_compression"]}