{"accessors":[{"bufferView":0,"componentType":5126,"count":90,"max":[1,0,0.989267110824585,0,0.987102746963501,0,1,0,0,-1,0,0,92.04440307617188,80.48907470703125,107.22024536132812,1],"min":[-0.9990634322166443,0,-0.987102746963501,0,-0.989267110824585,0,-0.9990634322166443,0,0,-1,0,0,-241.22958374023438,-10.885063171386719,-105.34664154052734,1],"type":"MAT4","byteOffset":0}],"asset":{"generator":"Khronos Blender glTF 2.0 exporter","version":"2.0"},"bufferViews":[{"buffer":0,"byteLength":5760,"byteOffset":0},{"buffer":0,"byteOffset":5760,"byteLength":135409},{"buffer":0,"byteOffset":141169,"byteLength":36839},{"buffer":0,"byteOffset":178008,"byteLength":1991}],"buffers":[{"byteLength":179999,"uri":"buffer.bin"}],"images":[{"name":"pm0145_00_BodyA1","uri":"pm0145_00_BodyA1.png"},{"name":"pm0145_00_BodyB1","uri":"pm0145_00_BodyB1.png"},{"name":"pm0145_00_Eye1","uri":"pm0145_00_Eye1.png"}],"materials":[{"alphaMode":"OPAQUE","name":"Material__48","pbrMetallicRoughness":{"baseColorFactor":[0.6400000190734865,0.6400000190734865,0.6400000190734865,1],"baseColorTexture":{"index":0},"metallicFactor":0}},{"alphaMode":"OPAQUE","name":"Material__49","pbrMetallicRoughness":{"baseColorFactor":[0.6400000190734865,0.6400000190734865,0.6400000190734865,1],"baseColorTexture":{"index":1},"metallicFactor":0}},{"alphaMode":"OPAQUE","name":"Material__50","pbrMetallicRoughness":{"baseColorFactor":[0.6400000190734865,0.6400000190734865,0.6400000190734865,1],"baseColorTexture":{"index":2},"metallicFactor":0}}],"meshes":[{"name":"Zapdos","primitives":[{"material":0,"extensions":{"ALI_amc_mesh_compression":{"bufferView":1}}},{"material":1,"extensions":{"ALI_amc_mesh_compression":{"bufferView":2}}},{"material":2,"extensions":{"ALI_amc_mesh_compression":{"bufferView":3}}}]}],"nodes":[{"children":[3,4],"name":"Armature","scale":[0.02539999969303608,0.02539999969303608,0.02539999969303608]},{"name":"Camera","rotation":[0.483536034822464,0.33687159419059753,-0.20870360732078552,0.7804827094078064],"translation":[7.481131553649902,5.34366512298584,6.5076398849487305]},{"name":"Lamp","rotation":[0.16907575726509094,0.7558802962303162,-0.27217137813568115,0.570947527885437],"scale":[1,1,0.9999999403953552],"translation":[4.076245307922363,5.903861999511719,-1.0054539442062378]},{"mesh":0,"name":"Zapdos","skin":0},{"children":[5,93],"name":"Armature_pm0145_00","rotation":[-0.7071068286895752,0,0,0.7071068286895752]},{"children":[6],"name":"Armature_Origin"},{"children":[7,51],"name":"Armature_Waist","rotation":[0,-0.8041600584983826,0,0.5944128632545471],"translation":[0,-14.120404243469238,88.95919799804688]},{"children":[8,9,28,47],"name":"Armature_Hips","rotation":[0,-0.9666376113891602,0,0.2561480700969696],"translation":[-0.0000575845297134947,0.00009250640869140625,0.000001640338268771302]},{"name":"Armature_EndHips","rotation":[0,2.2351741790771484e-8,0,1],"translation":[67.06490325927734,15.39393424987793,15.021726608276367]},{"children":[10],"name":"Armature_LThigh","rotation":[0,-0.5980314016342163,0,0.8014726638793945],"scale":[1.0000001192092896,1,1.0000001192092896],"translation":[6.632236480712891,-6.140974044799805,10.620847702026367]},{"children":[11],"name":"Armature_LLeg","rotation":[0,-0.001808199449442327,0,0.9999983906745911],"scale":[0.9999998807907104,1,0.9999998807907104],"translation":[22.04928207397461,-14.147367477416992,-7.387118339538574]},{"children":[12,13,17,21,25],"name":"Armature_LFoot","rotation":[0,-0.7436085939407349,0,0.6686152219772339],"scale":[0.9999999403953552,1,0.9999999403953552],"translation":[14.26419734954834,-9.22182846069336,-4.803243637084961]},{"name":"Armature_EndLFoot","rotation":[0,1.4901161193847656e-8,0,1],"translation":[7.261321067810059,-7.34344482421875,3.087346076965332]},{"children":[14],"name":"Armature_LToeA1","rotation":[0,-0.11899430304765701,0,0.9928949475288391],"translation":[0.21455955505371094,-11.643203735351562,1.726027488708496]},{"children":[15],"name":"Armature_LToeA2","rotation":[0,-1.4901161193847656e-8,0,1],"translation":[1.1296963691711426,-5.8758544921875,3.662888526916504]},{"children":[16],"name":"Armature_LToeA3","rotation":[0,0.10386443138122559,0,0.9945915341377258],"scale":[0.9999999403953552,1,0.9999999403953552],"translation":[0.9434571266174316,-4.907138824462891,3.0590085983276367]},{"name":"Armature_EndLToeA3","rotation":[0,-1.4901162970204496e-8,0,1],"scale":[0.9999999403953552,1,0.9999999403953552],"translation":[-0.4376373291015625,-14.432403564453125,5.815850734710693]},{"children":[18],"name":"Armature_LToeB1","rotation":[0,0.14702165126800537,0,0.989133358001709],"translation":[9.565498352050781,-6.154106140136719,-5.886294364929199]},{"children":[19],"name":"Armature_LToeB2","rotation":[0,-4.4703490686970326e-8,0,1],"scale":[0.9999998807907104,1,0.9999998807907104],"translation":[5.556741714477539,-1.7883377075195312,0.48457813262939453]},{"children":[20],"name":"Armature_LToeB3","rotation":[0,0.09656205773353577,0,0.9953269958496094],"scale":[0.9999999403953552,1,0.9999999403953552],"translation":[5.318157196044922,-1.7115211486816406,0.4638066291809082]},{"name":"Armature_EndLToeB3","rotation":[0,1.4901161193847656e-8,0,1],"translation":[15.205001831054688,-6.5542449951171875,1.5309867858886719]},{"children":[22],"name":"Armature_LToeC1","rotation":[0,0.031066033989191055,0,0.9995173215866089],"scale":[0.9999999403953552,1,0.9999999403953552],"translation":[6.351353645324707,-11.145824432373047,-1.1505556106567383]},{"children":[23],"name":"Armature_LToeC2","rotation":[0,7.450580596923828e-7,0,1],"translation":[4.147930145263672,-4.763008117675781,1.9679994583129883]},{"children":[24],"name":"Armature_LToeC3","rotation":[0,0.13885971903800964,0,0.9903120994567871],"translation":[3.047121047973633,-3.4990921020507812,1.4456567764282227]},{"name":"Armature_EndLToeC3","translation":[7.603404998779297,-13.46799087524414,3.4308338165283203]},{"children":[26],"name":"Armature_LToeD1","rotation":[0,0.6112366914749146,0,0.7914478778839111],"scale":[0.9999999403953552,1,0.9999999403953552],"translation":[-5.095552444458008,1.433441162109375,-5.874335289001465]},{"children":[27],"name":"Armature_LToeD2","rotation":[0,0.12296847254037857,0,0.9924106001853943],"scale":[1.0000001192092896,1,1.0000001192092896],"translation":[0.8690452575683594,6.7448272705078125,-6.797868728637695]},{"name":"Armature_EndLToeD2","translation":[5.519076347351074,6.763427734375,-8.751171112060547]},{"children":[29],"name":"Armature_RThigh","rotation":[0,-0.1887967586517334,0,0.9820162057876587],"translation":[10.529041290283203,-6.140981674194336,-6.776956558227539]},{"children":[30],"name":"Armature_RLeg","rotation":[0,-0.0018080800073221326,0,0.9999983906745911],"translation":[14.491684913635254,-14.147262573242188,-18.186195373535156]},{"children":[31,35,39,43,44],"name":"Armature_RFoot","rotation":[0,-0.7436080574989319,0,0.6686158180236816],"translation":[9.3123779296875,-9.221904754638672,-11.824335098266602]},{"children":[32],"name":"Armature_RToeA1","rotation":[0,0.2791995108127594,0,0.9602330923080444],"scale":[0.9999999403953552,1,0.9999999403953552],"translation":[1.683588981628418,-11.643054962158203,0.43665409088134766]},{"children":[33],"name":"Armature_RToeA2","rotation":[0,1.4901161193847656e-8,0,1],"translation":[2.7873668670654297,-5.875972747802734,2.63124942779541]},{"children":[34],"name":"Armature_RToeA3","rotation":[0,0.10386401414871216,0,0.9945915341377258],"scale":[1.0000001192092896,1,1.0000001192092896],"translation":[2.3276634216308594,-4.90704345703125,2.1975913047790527]},{"name":"Armature_EndRToeA3","scale":[0.9999999403953552,1,0.9999999403953552],"translation":[4.069416046142578,-14.4324951171875,4.17801570892334]},{"children":[36],"name":"Armature_RToeB1","rotation":[0,-0.4282286465167999,0,0.9036704301834106],"scale":[0.9999998807907104,1,0.9999998807907104],"translation":[-7.077613830566406,-6.154064178466797,8.720930099487305]},{"children":[37],"name":"Armature_RToeB2","rotation":[0,-1.4901161193847656e-7,0,1],"translation":[2.9004859924316406,-1.78826904296875,4.764394760131836]},{"children":[38],"name":"Armature_RToeB3","rotation":[0,0.09656094014644623,0,0.9953271150588989],"scale":[0.9999999403953552,1,0.9999999403953552],"translation":[2.775899887084961,-1.7114715576171875,4.559783935546875]},{"name":"Armature_EndRToeB3","rotation":[0,-1.4901161193847656e-8,0,1],"translation":[2.6359825134277344,-6.554248809814453,15.052925109863281]},{"children":[40],"name":"Armature_RToeC1","rotation":[0,0.01606614515185356,0,0.9998709559440613],"scale":[0.9999999403953552,1,0.9999999403953552],"translation":[-1.964726448059082,-11.14581298828125,6.148387908935547]},{"children":[41],"name":"Armature_RToeC2","rotation":[0,3.725290653733282e-8,0,1],"scale":[0.9999999403953552,1,0.9999999403953552],"translation":[0.9956722259521484,-4.763038635253906,4.48171329498291]},{"children":[42],"name":"Armature_RToeC3","rotation":[0,0.1388593465089798,0,0.9903121590614319],"translation":[0.7314357757568359,-3.4990501403808594,3.2924299240112305]},{"name":"Armature_EndRToeC3","rotation":[0,-1.1175870895385742e-8,0,1],"translation":[-2.920926332473755,-13.467964172363281,7.8134918212890625]},{"name":"Armature_EndRFoot","rotation":[0,1.4901162970204496e-8,0,1],"scale":[0.9999999403953552,1,0.9999999403953552],"translation":[2.1192331314086914,-7.34344482421875,7.600481986999512]},{"children":[45],"name":"Armature_RToeD1","rotation":[0,0.6619529128074646,0,0.7495455145835876],"scale":[0.9999999403953552,1,0.9999999403953552],"translation":[-5.163618087768555,1.4334449768066406,-5.814607620239258]},{"children":[46],"name":"Armature_RToeD2","rotation":[0,0.12296826392412186,0,0.9924106001853943],"scale":[0.9999999403953552,1,0.9999999403953552],"translation":[6.373167037963867,6.744930267333984,-2.5201644897460938]},{"name":"Armature_EndRToeD2","rotation":[0,1.4901162970204496e-8,0,1],"scale":[0.9999999403953552,1,0.9999999403953552],"translation":[9.824275970458984,6.76335334777832,-3.2442193031311035]},{"children":[48],"name":"Armature_Tail1","rotation":[0,0.02746467851102352,0,0.9996228814125061],"scale":[1.0000001192092896,1,1.0000001192092896],"translation":[21.388694763183594,3.332840919494629,4.7807183265686035]},{"children":[49],"name":"Armature_Tail2","rotation":[0,-2.9802322387695312e-8,0,1],"translation":[10.263365745544434,3.01239013671875,2.898977041244507]},{"children":[50],"name":"Armature_Tail3","rotation":[0,5.960464477539063e-8,0,1],"translation":[14.896892547607422,4.3723649978637695,4.207756996154785]},{"name":"Armature_EndTail3","rotation":[0,-1.4901162970204496e-8,0,1],"scale":[0.9999999403953552,1,0.9999999403953552],"translation":[48.67906188964844,14.28778076171875,13.749826431274414]},{"children":[52,60,70,75,83],"name":"Armature_Spine","rotation":[0,2.980232238769531e-7,0,1],"translation":[-0.00003905817720806226,0.0000591278076171875,-0.000046975361328804865]},{"children":[53,55,57,59],"name":"Armature_LFeelerE","rotation":[0,0.7825866341590881,0,0.6225416660308838],"scale":[0.9999999403953552,1,0.9999999403953552],"translation":[12.033306121826172,8.143340110778809,-8.462203979492188]},{"children":[54],"name":"Armature_LFeelerE1","rotation":[0,-0.17526006698608398,0,0.9845221638679504],"scale":[0.9999999403953552,1,0.9999999403953552],"translation":[45.758216857910156,-0.8807768821716309,0.31011486053466797]},{"name":"Armature_EndLFeelerE1","translation":[122.99673461914062,-9.695755004882812,-12.149467468261719]},{"children":[56],"name":"Armature_LFeelerE2","rotation":[0,-0.3766540288925171,0,0.9263541102409363],"translation":[38.920509338378906,-7.934618949890137,29.646631240844727]},{"name":"Armature_EndLFeelerE2","rotation":[0,-4.470348358154297e-8,0,1],"translation":[64.98780059814453,-9.972114562988281,-11.891838073730469]},{"children":[58],"name":"Armature_LFeelerE3","rotation":[0,0.38563233613967896,0,0.922652542591095],"translation":[36.68217086791992,5.250661849975586,-24.109708786010742]},{"name":"Armature_EndLFeelerE3","rotation":[0,-5.960464477539063e-8,0,1],"translation":[44.33627700805664,5.8569231033325195,7.109981536865234]},{"name":"Armature_EndLFeelerE","rotation":[0,1.1175870895385742e-8,0,1],"translation":[126.98412322998047,-1.7030754089355469,-2.1701478958129883]},{"children":[61,62,64,66,68],"name":"Armature_LShoulder","rotation":[0,0.7825866341590881,0,0.6225416660308838],"scale":[0.9999999403953552,1,0.9999999403953552],"translation":[13.241617202758789,-2.988986015319824,-16.490859985351562]},{"name":"Armature_EndLShoulder","rotation":[0,2.2351741790771484e-8,0,1],"translation":[131.07815551757812,-1.7579765319824219,-2.2398242950439453]},{"children":[63],"name":"Armature_LFeelerA","rotation":[0,-0.5034729838371277,0,0.8640109300613403],"scale":[0.9999999403953552,1,0.9999999403953552],"translation":[26.388328552246094,-8.098838806152344,29.311527252197266]},{"name":"Armature_EndLFeelerA","translation":[65.30047607421875,-13.099346160888672,-14.905330657958984]},{"children":[65],"name":"Armature_LFeelerB","rotation":[0,-0.011526299640536308,0,0.9999336004257202],"translation":[50.47512435913086,1.4005985260009766,-9.013983726501465]},{"name":"Armature_EndLFeelerB","translation":[79.00225067138672,-1.4026851654052734,-1.793745994567871]},{"children":[67],"name":"Armature_LFeelerC","rotation":[0,0.3746867775917053,0,0.9271514415740967],"translation":[31.131912231445312,5.621050834655762,-26.64454460144043]},{"name":"Armature_EndLFeelerC","translation":[65.40880584716797,8.488856315612793,10.371402740478516]},{"children":[69],"name":"Armature_LFeelerD","rotation":[0,-0.3286341726779938,0,0.9444572925567627],"translation":[46.28330612182617,-4.174177169799805,14.099273681640625]},{"name":"Armature_EndLFeelerD","rotation":[0,-1.4901161193847656e-8,0,1],"translation":[115.59214782714844,-15.893804550170898,-19.304981231689453]},{"children":[71],"name":"Armature_Neck","rotation":[0,-0.35440242290496826,0,0.9350929856300354],"translation":[33.887657165527344,-10.876599311828613,-10.398159980773926]},{"children":[72,74],"name":"Armature_Head","rotation":[0,0.2689032256603241,0,0.9631671905517578],"scale":[0.9999999403953552,1,0.9999999403953552],"translation":[3.8358476161956787,-12.038030624389648,-6.277191162109375]},{"children":[73],"name":"Armature_Jaw","rotation":[0,0.9931133389472961,0,0.11715734750032425],"translation":[-8.982839584350586,-20.103599548339844,4.651015281677246]},{"name":"Armature_EndJaw","rotation":[0,-1.4901161193847656e-8,0,1],"translation":[11.012785911560059,-12.576469421386719,-9.516039848327637]},{"name":"Armature_EndHead","rotation":[0,1.4901161193847656e-8,0,1],"translation":[17.909103393554688,-10.442070007324219,-9.27283000946045]},{"children":[76,77,79,81],"name":"Armature_RFeelerE","rotation":[0,-0.576871395111084,0,0.8168349862098694],"scale":[0.9999998807907104,1,0.9999998807907104],"translation":[14.708637237548828,8.143338203430176,0.2567009925842285]},{"name":"Armature_EndRFeelerE","rotation":[0,-7.450580596923828e-9,0,1],"translation":[126.99555969238281,-1.7030925750732422,-1.336184024810791]},{"children":[78],"name":"Armature_RFeelerE1","rotation":[0,0.10940517485141754,0,0.9939972162246704],"scale":[0.9999999403953552,1,0.9999999403953552],"translation":[45.732269287109375,-0.8807263374328613,-1.5729954242706299]},{"name":"Armature_EndRFeelerE1","translation":[123.35594177246094,-9.69579792022705,-7.687847137451172]},{"children":[80],"name":"Armature_RFeelerE2","rotation":[0,0.24499012529850006,0,0.9695256352424622],"scale":[0.9999999403953552,1,0.9999999403953552],"translation":[38.08754348754883,-7.9346723556518555,-30.710411071777344]},{"name":"Armature_EndRFeelerE2","translation":[65.55943298339844,-9.972046852111816,-8.16934585571289]},{"children":[82],"name":"Armature_RFeelerE3","rotation":[0,-0.24710944294929504,0,0.9689875841140747],"scale":[0.9999999403953552,1,0.9999999403953552],"translation":[37.33381652832031,5.25064754486084,23.087854385375977]},{"name":"Armature_EndRFeelerE3","scale":[0.9999999403953552,1,0.9999999403953552],"translation":[44.6517219543457,5.85689115524292,4.740566253662109]},{"children":[84,85,87,89,91],"name":"Armature_RShoulder","rotation":[0,-0.576871395111084,0,0.8168349862098694],"scale":[0.9999998807907104,1,0.9999998807907104],"translation":[20.211166381835938,-2.9887571334838867,6.226254463195801]},{"name":"Armature_EndRShoulder","rotation":[0,-7.450580596923828e-9,0,1],"translation":[131.08995056152344,-1.7579822540283203,-1.3793063163757324]},{"children":[86],"name":"Armature_RFeelerA","rotation":[0,0.3392593264579773,0,0.9406929612159729],"scale":[0.9999999403953552,1,0.9999999403953552],"translation":[25.569339752197266,-8.098960876464844,-30.03030776977539]},{"name":"Armature_EndRFeelerA","scale":[0.9999999403953552,1,0.9999999403953552],"translation":[66.05718994140625,-13.09918212890625,-11.078563690185547]},{"children":[88],"name":"Armature_RFeelerB","rotation":[0,0.007042701821774244,0,0.9999752044677734],"translation":[50.70466613769531,1.4004249572753906,7.616189002990723]},{"name":"Armature_EndRFeelerB","translation":[79.01516723632812,-1.4026126861572266,-1.0964345932006836]},{"children":[90],"name":"Armature_RFeelerC","rotation":[0,-0.2376668006181717,0,0.9713467955589294],"scale":[0.9999999403953552,1,0.9999999403953552],"translation":[31.855710983276367,5.620904922485352,25.77398109436035]},{"name":"Armature_EndRFeelerC","translation":[65.87275695800781,8.488954544067383,6.830818176269531]},{"children":[92],"name":"Armature_RFeelerD","rotation":[0,0.2094699591398239,0,0.9778150916099548],"translation":[45.8762321472168,-4.174251556396484,-15.372284889221191]},{"name":"Armature_EndRFeelerD","rotation":[0,-1.4901161193847656e-8,0,1],"translation":[116.48878479003906,-15.89383316040039,-12.839111328125]},{"name":"Armature_pm0145_00_BodySkin"}],"samplers":[{}],"scene":0,"scenes":[{"name":"Scene","nodes":[0,2,1]}],"skins":[{"inverseBindMatrices":0,"joints":[4,5,6,7,8,9,10,11,12,13,14,15,16,17,18,19,20,21,22,23,24,25,26,27,28,29,30,31,32,33,34,35,36,37,38,39,40,41,42,43,44,45,46,47,48,49,50,51,52,53,54,55,56,57,58,59,60,61,62,63,64,65,66,67,68,69,70,71,72,73,74,75,76,77,78,79,80,81,82,83,84,85,86,87,88,89,90,91,92,93],"skeleton":0}],"textures":[{"sampler":0,"source":0},{"sampler":0,"source":1},{"sampler":0,"source":2}],"extensionsUsed":["ALI_amc_mesh_compression"],"extensionsRequired":["ALI_amc_mesh_compression"]}