{"accessors":[{"bufferView":0,"componentType":5126,"count":48,"max":[1,0,0.9998517036437988,0,0.9933736324310303,0,1,0,0,-1,0,0,16.722150802612305,36.1561164855957,18.196441650390625,1],"min":[-0.9410529732704163,0,-0.9933736324310303,0,-0.9998517036437988,0,-0.9410529732704163,0,0,-1,0,0,-51.56190490722656,-21.630558013916016,-33.57698440551758,1],"type":"MAT4","byteOffset":0}],"asset":{"generator":"Khronos Blender glTF 2.0 exporter","version":"2.0"},"bufferViews":[{"buffer":0,"byteLength":3072,"byteOffset":0},{"buffer":0,"byteOffset":3072,"byteLength":2407},{"buffer":0,"byteOffset":5479,"byteLength":2407},{"buffer":0,"byteOffset":7886,"byteLength":120011}],"buffers":[{"byteLength":127897,"uri":"buffer.bin"}],"images":[{"name":"pm0032_00_Eye1","uri":"pm0032_00_Eye1.png"},{"name":"pm0032_00_Body1","uri":"pm0032_00_Body1.png"},{"name":"pm0032_00_Iris1","uri":"pm0032_00_Iris1.png"}],"materials":[{"alphaMode":"OPAQUE","name":"Material__139","pbrMetallicRoughness":{"baseColorFactor":[0.6400000190734865,0.6400000190734865,0.6400000190734865,1],"baseColorTexture":{"index":0},"metallicFactor":0}},{"alphaMode":"OPAQUE","name":"Material__140","pbrMetallicRoughness":{"baseColorFactor":[0.6400000190734865,0.6400000190734865,0.6400000190734865,1],"baseColorTexture":{"index":1},"metallicFactor":0}},{"alphaMode":"MASK","name":"Material__141","pbrMetallicRoughness":{"baseColorFactor":[0.6400000190734865,0.6400000190734865,0.6400000190734865,1],"baseColorTexture":{"index":2},"metallicFactor":0}}],"meshes":[{"name":"NidoranM","primitives":[{"material":0,"extensions":{"ALI_amc_mesh_compression":{"bufferView":1}}},{"material":2,"extensions":{"ALI_amc_mesh_compression":{"bufferView":2}}},{"material":1,"extensions":{"ALI_amc_mesh_compression":{"bufferView":3}}}]}],"nodes":[{"children":[3,4],"name":"Armature","scale":[0.02539999969303608,0.02539999969303608,0.02539999969303608]},{"name":"Camera","rotation":[0.483536034822464,0.33687159419059753,-0.20870360732078552,0.7804827094078064],"translation":[7.481131553649902,5.34366512298584,6.5076398849487305]},{"name":"Lamp","rotation":[0.16907575726509094,0.7558802962303162,-0.27217137813568115,0.570947527885437],"scale":[1,1,0.9999999403953552],"translation":[4.076245307922363,5.903861999511719,-1.0054539442062378]},{"mesh":0,"name":"NidoranM","skin":0},{"children":[5,50,51],"name":"Armature_pm0032_00","rotation":[-0.7071068286895752,0,0,0.7071068286895752]},{"children":[6],"name":"Armature_Origin"},{"children":[7,23],"name":"Armature_Waist","rotation":[0,-0.07190635055303574,0,0.9974114894866943],"translation":[0,3.4038491249084473,20.874000549316406]},{"children":[8,9,16],"name":"Armature_Hips","rotation":[0,0.2089410126209259,0,0.9779283404350281],"scale":[0.9999999403953552,1,0.9999999403953552],"translation":[0.000015029459973447956,-0.0000011920928955078125,-0.000023608423362020403]},{"name":"Armature_EndHips","rotation":[0,1.4901161193847656e-8,0,1],"translation":[1.417595624923706,18.22671127319336,-4.985335350036621]},{"children":[10],"name":"Armature_LHips","rotation":[0,0.13968585431575775,0,0.9901958703994751],"scale":[0.9999998807907104,1,0.9999998807907104],"translation":[8.331597328186035,7.523135185241699,-2.017939329147339]},{"children":[11],"name":"Armature_LThigh","rotation":[0,0.3982405960559845,0,0.9172810316085815],"scale":[0.9999999403953552,1,0.9999999403953552],"translation":[4.144418716430664,0.4440298080444336,0.44153451919555664]},{"children":[12],"name":"Armature_LLeg","rotation":[0,0.2977937161922455,0,0.9546302556991577],"translation":[6.268218994140625,-1.2568321228027344,-1.233214259147644]},{"children":[13,14],"name":"Armature_LFoot","rotation":[0,-0.835656464099884,0,0.5492526292800903],"translation":[5.43043327331543,2.577569007873535,2.3635056018829346]},{"name":"Armature_EndLFoot","rotation":[0,-1.8510036170482635e-8,0,1],"translation":[0.000040294602513313293,-8.198360443115234,-0.000016691163182258606]},{"children":[15],"name":"Armature_LToe","rotation":[0,-1.594889909029007e-8,0,1],"translation":[0.000023295637220144272,-4.103766441345215,-1.5803723335266113]},{"name":"Armature_EndLToe","translation":[0.00003385264426469803,-6.874120235443115,-0.000013705343008041382]},{"children":[17],"name":"Armature_RHips","rotation":[0,0.9520106911659241,0,0.3060648441314697],"scale":[0.9999999403953552,1,0.9999999403953552],"translation":[-6.023227214813232,7.523085594177246,-6.099968910217285]},{"children":[18],"name":"Armature_RThigh","rotation":[0,-0.6518284678459167,0,0.7583664059638977],"translation":[4.144399166107178,0.4440441131591797,0.44147753715515137]},{"children":[19],"name":"Armature_RLeg","rotation":[0,0.29779350757598877,0,0.9546303153038025],"translation":[6.268204689025879,-1.2568426132202148,-1.2331982851028442]},{"children":[20,21],"name":"Armature_RFoot","rotation":[0,-0.8328391909599304,0,0.5535150170326233],"translation":[5.430445671081543,2.577587127685547,2.3635244369506836]},{"name":"Armature_EndRFoot","rotation":[0,2.1886082279820585e-8,0,1],"scale":[0.9999999403953552,1,0.9999999403953552],"translation":[0.000047069042921066284,-8.198348999023438,-0.000041425228118896484]},{"children":[22],"name":"Armature_RToe","rotation":[0,2.2351745343485163e-8,0,1],"scale":[0.9999999403953552,1,0.9999999403953552],"translation":[0.0000340733677148819,-4.103762626647949,-1.5803828239440918]},{"name":"Armature_EndRToe","scale":[0.9999999403953552,1,0.9999999403953552],"translation":[0.00004021544009447098,-6.874120235443115,-0.000035390257835388184]},{"children":[24],"name":"Armature_Spine1","rotation":[0,-7.82310962677002e-7,0,1],"translation":[0.000005275418061501114,0.00000667572021484375,0.000007037560408207355]},{"children":[25,36,43],"name":"Armature_Spine2","rotation":[0,0.07599195092916489,0,0.9971084594726562],"translation":[0.10728468000888824,-5.1601386070251465,0.7401995658874512]},{"children":[26,29,31,34],"name":"Armature_Head","rotation":[0,0.14548097550868988,0,0.9893611073493958],"translation":[0.0007430189289152622,-10.956537246704102,-0.08984938263893127]},{"children":[27],"name":"Armature_REar1","rotation":[0,-0.8377147316932678,0,0.546108067035675],"translation":[-9.730432510375977,-4.120176315307617,2.775195598602295]},{"children":[28],"name":"Armature_REar2","rotation":[0,-0.05190584063529968,0,0.9986520409584045],"scale":[0.9999999403953552,1,0.9999999403953552],"translation":[7.35226583480835,6.487768173217773,8.896722793579102]},{"name":"Armature_EndREar2","rotation":[0,7.450581485102248e-9,0,1],"scale":[0.9999999403953552,1,0.9999999403953552],"translation":[15.071516990661621,11.618653297424316,17.024555206298828]},{"children":[30],"name":"Armature_Jaw","rotation":[0,0.2694345712661743,0,0.9630187153816223],"scale":[0.9999999403953552,1,0.9999999403953552],"translation":[2.1676299571990967,-11.400930404663086,-7.002614498138428]},{"name":"Armature_EndJaw","rotation":[0,1.4901161193847656e-8,0,1],"translation":[4.751075267791748,-5.623449325561523,-4.209173202514648]},{"children":[32],"name":"Armature_LEar1","rotation":[0,-0.289096862077713,0,0.9572998881340027],"translation":[6.460890293121338,-4.120090484619141,7.787116050720215]},{"children":[33],"name":"Armature_LEar2","rotation":[0,0.018353277817368507,0,0.9998316764831543],"translation":[11.06258773803711,6.487701416015625,3.290099620819092]},{"name":"Armature_EndLEar2","rotation":[0,-7.450580596923828e-9,0,1],"translation":[21.996850967407227,11.618577003479004,5.755578994750977]},{"children":[35],"name":"Armature_Nose","rotation":[0,-0.13022781908512115,0,0.9914841055870056],"translation":[1.789843201637268,-19.554506301879883,-5.782315254211426]},{"name":"Armature_EndNose","rotation":[0,1.862645149230957e-9,0,1],"translation":[0.000007822722182027064,-3.8887901306152344,-0.000008500826879753731]},{"children":[37],"name":"Armature_LShoulder","rotation":[0,0.2569939196109772,0,0.9664130210876465],"translation":[7.023340225219727,-5.222334861755371,-4.91801643371582]},{"children":[38],"name":"Armature_LArm","rotation":[0,0.5264701247215271,0,0.8501937389373779],"scale":[0.9999999403953552,1,0.9999999403953552],"translation":[3.9991650581359863,0.13291597366333008,0.13290739059448242]},{"children":[39],"name":"Armature_LForeArm","rotation":[0,-0.0416509173810482,0,0.9991322755813599],"translation":[6.875821113586426,0.4561762809753418,0.45517486333847046]},{"children":[40,41],"name":"Armature_LHand","rotation":[0,-0.7009918093681335,0,0.7131693363189697],"scale":[0.9999999403953552,1,0.9999999403953552],"translation":[6.630773067474365,-0.11423301696777344,-0.11419810354709625]},{"name":"Armature_EndLHand","rotation":[0,2.8991223643970443e-8,0,1],"translation":[0.000013701739590032957,-6.039100170135498,0.000005020806383981835]},{"children":[42],"name":"Armature_LFinger","rotation":[0,0.0000010327164545742562,0,1],"translation":[-0.00006877346459077671,-2.3910202980041504,-0.431008517742157]},{"name":"Armature_EndLFinger","rotation":[0,5.684341886080802e-14,0,1],"translation":[0.00002686368316062726,-5.331999778747559,-0.000005290960871207062]},{"children":[44],"name":"Armature_RShoulder","rotation":[0,0.972538948059082,0,0.23274046182632446],"translation":[-6.9417948722839355,-5.22231912612915,-5.032485485076904]},{"children":[45],"name":"Armature_RArm","rotation":[0,-0.49822425842285156,0,0.8670482635498047],"translation":[3.9991817474365234,0.13292980194091797,0.13286876678466797]},{"children":[46],"name":"Armature_RForeArm","rotation":[0,-0.04165094345808029,0,0.9991322755813599],"translation":[6.875761985778809,0.45615625381469727,0.45517492294311523]},{"children":[47,48],"name":"Armature_RHand","rotation":[0,-0.697843074798584,0,0.7162506580352783],"translation":[6.630774021148682,-0.1142120361328125,-0.11422814428806305]},{"name":"Armature_EndRHand","rotation":[0,1.6763808119435453e-8,0,1],"scale":[0.9999999403953552,1,0.9999999403953552],"translation":[0.00001876242458820343,-6.0391106605529785,-0.000030271708965301514]},{"children":[49],"name":"Armature_RFinger","rotation":[0,-0.004399018362164497,0,0.9999903440475464],"scale":[0.9999998807907104,1,0.9999998807907104],"translation":[-0.000031789299100637436,-2.391022205352783,-0.4310271143913269]},{"name":"Armature_EndRFinger","rotation":[0,3.1513991416431963e-10,0,1],"translation":[0.00003196635952917859,-5.331989288330078,-0.000048014284402597696]},{"name":"Armature_pm0032_00_IrisSkin"},{"name":"Armature_pm0032_00_Skin"}],"samplers":[{}],"scene":0,"scenes":[{"name":"Scene","nodes":[0,2,1]}],"skins":[{"inverseBindMatrices":0,"joints":[4,5,6,7,8,9,10,11,12,13,14,15,16,17,18,19,20,21,22,23,24,25,26,27,28,29,30,31,32,33,34,35,36,37,38,39,40,41,42,43,44,45,46,47,48,49,50,51],"skeleton":0}],"textures":[{"sampler":0,"source":0},{"sampler":0,"source":1},{"sampler":0,"source":2}],"extensionsUsed":["ALI_amc_mesh_compression"],"extensionsRequired":["ALI_amc_mesh_compression"]}