{"accessors":[{"bufferView":0,"componentType":5126,"count":39,"max":[0.9998934864997864,8.59075512948948e-8,1,0,0.000005341790256352397,1.0000001192092896,0.000005400532245403156,0,1,0.000009916998351400252,0.9998934864997864,0,116.59292602539062,33.19680404663086,120.51558685302734,1],"min":[-0.9977633357048035,-3.1024922630962237e-9,-1,0,-0.000009916998351400252,1,-0.000005329635769157903,0,-1,-0.000005401143880590098,-0.9977633357048035,0,-161.71678161621094,-133.5509796142578,-108.29013061523438,1],"type":"MAT4","byteOffset":0}],"asset":{"generator":"Khronos Blender glTF 2.0 exporter","version":"2.0"},"bufferViews":[{"buffer":0,"byteLength":2496,"byteOffset":0},{"buffer":0,"byteOffset":2496,"byteLength":5715},{"buffer":0,"byteOffset":8211,"byteLength":155521},{"buffer":0,"byteOffset":163732,"byteLength":2071}],"buffers":[{"byteLength":165803,"uri":"buffer.bin"}],"images":[{"name":"pm0123_00_Body1","uri":"pm0123_00_Body1.png"},{"name":"pm0123_00_Eye1","uri":"pm0123_00_Eye1.png"},{"name":"pm0123_00_Iris1","uri":"pm0123_00_Iris1.png"}],"materials":[{"alphaMode":"OPAQUE","name":"Body","pbrMetallicRoughness":{"baseColorFactor":[0.6400000190734865,0.6400000190734865,0.6400000190734865,1],"baseColorTexture":{"index":0},"metallicFactor":0}},{"alphaMode":"OPAQUE","name":"Eye","pbrMetallicRoughness":{"baseColorFactor":[0.6400000190734865,0.6400000190734865,0.6400000190734865,1],"baseColorTexture":{"index":1},"metallicFactor":0}},{"alphaMode":"MASK","name":"Iris","pbrMetallicRoughness":{"baseColorFactor":[0.6400000190734865,0.6400000190734865,0.6400000190734865,1],"baseColorTexture":{"index":2},"metallicFactor":0}}],"meshes":[{"name":"Scyther","primitives":[{"material":1,"extensions":{"ALI_amc_mesh_compression":{"bufferView":1}}},{"material":0,"extensions":{"ALI_amc_mesh_compression":{"bufferView":2}}},{"material":2,"extensions":{"ALI_amc_mesh_compression":{"bufferView":3}}}]}],"nodes":[{"name":"Camera","rotation":[0.483536034822464,0.33687159419059753,-0.20870360732078552,0.7804827094078064],"translation":[7.481131553649902,5.34366512298584,6.5076398849487305]},{"name":"EndHead","translation":[35.002620697021484,0.000007629389983776491,-9.998329915106297e-7]},{"name":"EndHips","translation":[65.77597045898438,2.3841900542720396e-7,-0.0000010000100019169622]},{"name":"EndJaw","translation":[27.82560920715332,0,9.999489520851057e-7]},{"name":"EndLFeelerA","translation":[124.51390075683594,-0.0000028610199933609692,-0.00001525879997643642]},{"name":"EndLFeelerB","translation":[85.14476776123047,0,0]},{"name":"EndLFoot","translation":[21.557390213012695,9.536739753457368e-7,-0.000011444099982327316]},{"name":"EndLHand","translation":[32.84092712402344,0,-0.000007629390893271193]},{"name":"EndLToe","translation":[21.55739974975586,0,-0.0000019073499970545527]},{"name":"EndRFeelerA","translation":[124.51399993896484,0.000004768370217789197,0.00001525879997643642]},{"name":"EndRFeelerB","translation":[85.1447525024414,0.0000028610199933609692,-0.000007629389983776491]},{"name":"EndRFoot","translation":[21.55738067626953,0.00005149839853402227,0]},{"name":"EndRHand","translation":[32.84150695800781,-0.000012397801583574619,4.547473508864641e-13]},{"name":"EndRToe","translation":[21.557390213012695,-9.536739753457368e-7,-0.000011444099982327316]},{"name":"EnvironmentAmbientLight","scale":[0.02539999969303608,0.02539999969303608,0.02539999969303608]},{"name":"Lamp","rotation":[0.16907575726509094,0.7558802962303162,-0.27217137813568115,0.570947527885437],"scale":[1,1,0.9999999403953552],"translation":[4.076245307922363,5.903861999511719,-1.0054539442062378]},{"children":[7],"name":"LHand","translation":[65.03678894042969,-0.0000028610199933609692,-0.000022888199964654632]},{"children":[23,25],"name":"Origin"},{"name":"pm0123_00_BodySkin"},{"name":"pm0123_00_HipSkin"},{"name":"pm0123_00_IrisSkin"},{"children":[17,18,20,24],"name":"pm0123_00_strike","rotation":[0.7071065902709961,0,0,0.7071069478988647],"scale":[0.02539999969303608,0.02539999969303608,0.02539999969303608]},{"children":[12],"name":"RHand","translation":[65.03639221191406,0.000021219300833763555,-0.000007629389983776491]},{"mesh":0,"name":"Scyther","rotation":[-0.7071065902709961,0,0,0.7071069478988647],"skin":0},{"children":[19],"name":"VriVis00"},{"children":[26,40],"name":"Origin_Waist","rotation":[-0.47645503282546997,-0.5224850177764893,0.5224850177764893,0.47645503282546997],"scale":[0.9999999403953552,1,0.9999999403953552],"translation":[6.998036594652035e-10,82.74180603027344,1.064944863319397]},{"children":[27,28,34],"name":"Origin_Hips","rotation":[0.0000024814305561449146,-0.998940110206604,-1.1314536152440269e-7,0.046029265969991684],"scale":[1,0.9999999403953552,1],"translation":[0.000007629333595104981,8.344650268554688e-7,-9.543316537019564e-7]},{"name":"Origin_EndHips","rotation":[-2.1467203015212988e-17,2.930624987129704e-8,-3.5110997971348444e-17,1],"translation":[65.77597045898438,0.0003057661815546453,-0.00002199012305936776]},{"children":[29],"name":"Origin_LThigh","rotation":[3.989326975858097e-15,0.1342419683933258,3.8659180023881135e-14,0.9909486174583435],"translation":[21.129589080810547,1.065073013305664,26.43998908996582]},{"children":[30],"name":"Origin_LLeg","rotation":[-1.3366369643053044e-14,-0.23575402796268463,-1.2852279089343045e-14,0.9718127846717834],"translation":[24.253780364990234,6.944494247436523,6.694070339202881]},{"children":[31,32],"name":"Origin_LFoot","rotation":[-2.264540382198709e-14,-0.6247051358222961,-2.4525947407965515e-14,0.7808607816696167],"scale":[1,0.9999999403953552,1],"translation":[21.4039249420166,-4.5856099128723145,-4.488119125366211]},{"name":"Origin_EndLFoot","rotation":[0.00000286102294921875,-2.188597392205338e-8,-6.333822355486518e-14,1],"translation":[0.00009799755207495764,-21.557392120361328,-0.00017148384358733892]},{"children":[33],"name":"Origin_LToe","rotation":[-1.0321604682062002e-16,-4.423782229423523e-8,0,1],"translation":[0.00008375936158699915,-12.006420135498047,-9.308403015136719]},{"name":"Origin_EndLToe","rotation":[0.0000019073486328125,7.143200961290397e-14,-1.1657341758564144e-15,1],"translation":[0.00007922732038423419,-21.557403564453125,-0.00017488845332991332]},{"children":[35],"name":"Origin_RThigh","rotation":[3.989326975858097e-15,0.1342419683933258,3.8659180023881135e-14,0.9909486174583435],"translation":[21.129592895507812,1.0650763511657715,-26.44001579284668]},{"children":[36],"name":"Origin_RLeg","rotation":[-1.3366369643053044e-14,-0.23575402796268463,-1.2852279089343045e-14,0.9718127846717834],"translation":[24.253787994384766,6.944490432739258,6.694076061248779]},{"children":[37,38],"name":"Origin_RFoot","rotation":[-2.2565428665173234e-14,-0.6247051358222961,2.7796067178639458e-14,0.7808607220649719],"scale":[1,0.9999999403953552,1],"translation":[21.403913497924805,-4.5856032371521,-4.488114356994629]},{"name":"Origin_EndRFoot","rotation":[0.0000019073486328125,9.313940729782644e-10,1.0547118733938987e-15,1],"translation":[0.00008495902875438333,-21.557382583618164,-0.00013163805124349892]},{"children":[39],"name":"Origin_RToe","rotation":[4.388850394221322e-16,9.313225746154785e-10,0,1],"translation":[0.00007177137740654871,-12.006421089172363,-9.308370590209961]},{"name":"Origin_EndRToe","rotation":[0.00000286102294921875,1.0714779757892146e-13,-2.7200464103316335e-15,1],"translation":[0.00009156548185274005,-21.55739402770996,-0.0001749778020894155]},{"children":[41,43,45,50,55,57,59],"name":"Origin_Spine","rotation":[2.2724267978446733e-7,3.725290298461914e-9,0.00000244379020841734,1],"translation":[-0.00000762946092436323,5.960464477539062e-7,4.7612152798137686e-7]},{"children":[42],"name":"Origin_LFeelerA","rotation":[-4.2437356932581785e-14,-0.9989401698112488,-8.718939063573003e-14,0.046027131378650665],"scale":[1,0.9999999403953552,1],"translation":[28.636083602905273,10.101492881774902,-10.878198623657227]},{"name":"Origin_EndLFeelerA","rotation":[7.194462040005511e-14,-3.774903589714995e-8,0.0000019073486328125,1],"translation":[-0.000642279745079577,124.51390075683594,0.0002809746947605163]},{"children":[44],"name":"Origin_LFeelerB","rotation":[-4.2437356932581785e-14,-0.9989401698112488,-8.718939063573003e-14,0.046027131378650665],"scale":[1,0.9999999403953552,1],"translation":[28.38651466369629,8.96939754486084,-13.580531120300293]},{"name":"Origin_EndLFeelerB","rotation":[-4.175999823718968e-14,2.1855608878240673e-8,0.0000019073486328125,1],"translation":[-0.00041624438017606735,85.14476776123047,0.00020360109920147806]},{"children":[46],"name":"Origin_LShoulder","rotation":[2.7378584967728548e-14,0.6968242526054382,2.863625906429526e-15,0.7172419428825378],"translation":[24.396699905395508,-1.84553861618042,-10.804330825805664]},{"children":[47],"name":"Origin_LArm","rotation":[-8.973881072916676e-14,0.027030233293771744,1.0550973580881941e-14,0.9996346235275269],"translation":[19.841602325439453,-0.0000278484385489719,0.00008595523104304448]},{"children":[48],"name":"Origin_LForeArm","rotation":[-1.1371459329723166e-13,-1.862645149230957e-8,0,1],"translation":[28.745996475219727,-1.9301502704620361,-1.9258443117141724]},{"children":[49],"name":"Origin_LHand","rotation":[-1.1368683772161603e-13,0,0,1],"translation":[64.74618530273438,-4.34738302230835,-4.337652206420898]},{"name":"Origin_EndLHand","rotation":[-1.1368683772161603e-13,0,0,1],"translation":[32.694175720214844,-2.1952531337738037,-2.190340518951416]},{"children":[51],"name":"Origin_Neck","rotation":[-2.169754939005406e-15,-0.23417459428310394,6.937506040423152e-15,0.9721946716308594],"translation":[35.763526916503906,-3.3169846534729004,-3.302760601043701]},{"children":[52,53],"name":"Origin_Head","rotation":[4.3546607563383494e-14,0.034460168331861496,7.054105970140043e-14,0.999406099319458],"scale":[0.9999999403953552,1,0.9999999403953552],"translation":[5.4236040115356445,-4.0689473152160645,-3.4369192123413086]},{"name":"Origin_EndHead","rotation":[4.3742790558362957e-14,0,-2.367551277639504e-14,1],"scale":[0.9999999403953552,1,0.9999999403953552],"translation":[27.077865600585938,-16.6550235748291,-14.648651123046875]},{"children":[54],"name":"Origin_Jaw","rotation":[-5.940134316503518e-14,-0.8770833611488342,1.1556681951299219e-16,0.48033812642097473],"scale":[1,1,0.9999999403953552],"translation":[7.239926338195801,-11.254549026489258,-3.9166769981384277]},{"name":"Origin_EndJaw","rotation":[-8.881792667330725e-16,-4.470347647611561e-8,1.4460653540489948e-13,1],"scale":[1.0000001192092896,1,1.0000001192092896],"translation":[21.284568786621094,-13.49097728729248,11.799347877502441]},{"children":[56],"name":"Origin_RFeelerA","rotation":[-3.821743624826202e-15,0.04603081941604614,-1.8655527968779173e-15,0.9989400506019592],"translation":[30.144161224365234,10.10147476196289,5.449821472167969]},{"name":"Origin_EndRFeelerA","rotation":[1.8839096949108125e-15,4.96066632216241e-10,-0.000003814697265625,1],"translation":[0.001054225955158472,124.51399993896484,-0.000029795230148010887]},{"children":[58],"name":"Origin_RFeelerB","rotation":[-1.0047109255944143e-14,0.04603075608611107,-1.7677417731728454e-15,0.9989400506019592],"translation":[30.393718719482422,8.969377517700195,8.15217113494873]},{"name":"Origin_EndRFeelerB","rotation":[3.223224638582156e-14,4.2213512685407295e-9,-0.00000762939453125,1],"translation":[0.0006921754102222621,85.14474487304688,-0.00002004754242079798]},{"children":[60],"name":"Origin_RShoulder","rotation":[3.445012084304401e-14,-0.6279157400131226,1.5120964511972437e-14,0.7782813310623169],"translation":[25.96300506591797,-1.8455356359481812,6.153583526611328]},{"children":[61],"name":"Origin_RArm","rotation":[-1.8900900538697946e-13,-0.0937894955277443,3.066630904766175e-15,0.9955920577049255],"scale":[0.9999999403953552,1,0.9999999403953552],"translation":[19.841581344604492,-0.000026480727683519945,0.00021779219969175756]},{"children":[62],"name":"Origin_RForeArm","rotation":[4.649058915617843e-16,3.725290298461914e-9,0,1],"translation":[28.745986938476562,-1.9301530122756958,-1.9259170293807983]},{"children":[63],"name":"Origin_RHand","rotation":[9.471590178833367e-16,0,7.105427357601002e-15,1],"translation":[64.74578857421875,-4.347378253936768,-4.337606430053711]},{"name":"Origin_EndRHand","rotation":[9.471590178833367e-16,0,7.105427357601002e-15,1],"translation":[32.694766998291016,-2.1952779293060303,-2.1903700828552246]}],"samplers":[{}],"scene":0,"scenes":[{"name":"Scene","nodes":[22,10,9,3,1,16,5,4,13,11,8,6,2,21,14,15,0]}],"skins":[{"inverseBindMatrices":0,"joints":[25,26,27,28,29,30,31,32,33,34,35,36,37,38,39,40,41,42,43,44,45,46,47,48,49,50,51,52,53,54,55,56,57,58,59,60,61,62,63],"skeleton":17}],"textures":[{"sampler":0,"source":0},{"sampler":0,"source":1},{"sampler":0,"source":2}],"extensionsUsed":["ALI_amc_mesh_compression"],"extensionsRequired":["ALI_amc_mesh_compression"]}