{"accessors":[{"bufferView":0,"componentType":5126,"count":45,"max":[1.0000001192092896,0,0.9851301312446594,0,0.9999979138374329,2.090146722366626e-8,1.0000001192092896,0,2.0102739028970973e-8,-1.0000001192092896,2.0901474329093617e-8,0,49.188899993896484,42.071537017822266,65.71231842041016,1],"min":[-1.0000001192092896,-2.68663291613791e-9,-0.9999979138374329,0,-0.9851301312446594,0,-1.0000001192092896,0,-2.105225505033559e-8,-1.000000238418579,-2.0901474329093617e-8,0,-104.6405258178711,-0.04219246655702591,-42.91673278808594,1],"type":"MAT4","byteOffset":0}],"asset":{"generator":"Khronos Blender glTF 2.0 exporter","version":"2.0"},"bufferViews":[{"buffer":0,"byteLength":2880,"byteOffset":0},{"buffer":0,"byteOffset":2880,"byteLength":77669},{"buffer":0,"byteOffset":80549,"byteLength":4843}],"buffers":[{"byteLength":85392,"uri":"buffer.bin"}],"images":[{"name":"pm0070_00_Body1","uri":"pm0070_00_Body1.png"},{"name":"pm0070_00_Eye1","uri":"pm0070_00_Eye1.png"}],"materials":[{"alphaMode":"OPAQUE","name":"Material__64","pbrMetallicRoughness":{"baseColorFactor":[0.6400000190734865,0.6400000190734865,0.6400000190734865,1],"baseColorTexture":{"index":0},"metallicFactor":0}},{"alphaMode":"OPAQUE","name":"Material__65","pbrMetallicRoughness":{"baseColorFactor":[0.6400000190734865,0.6400000190734865,0.6400000190734865,1],"baseColorTexture":{"index":1},"metallicFactor":0}}],"meshes":[{"name":"Weepinbell","primitives":[{"material":0,"extensions":{"ALI_amc_mesh_compression":{"bufferView":1}}},{"material":1,"extensions":{"ALI_amc_mesh_compression":{"bufferView":2}}}]}],"nodes":[{"children":[3,4],"name":"Armature","scale":[0.02539999969303608,0.02539999969303608,0.02539999969303608]},{"name":"Camera","rotation":[0.483536034822464,0.33687159419059753,-0.20870360732078552,0.7804827094078064],"translation":[7.481131553649902,5.34366512298584,6.5076398849487305]},{"name":"Lamp","rotation":[0.16907575726509094,0.7558802962303162,-0.27217137813568115,0.570947527885437],"scale":[1,1,0.9999999403953552],"translation":[4.076245307922363,5.903861999511719,-1.0054539442062378]},{"mesh":0,"name":"Weepinbell","skin":0},{"children":[5,48],"name":"Armature_pm0070_00","rotation":[-0.7071068286895752,0,0,0.7071068286895752],"scale":[1,0.9999999403953552,1]},{"children":[6],"name":"Armature_Origin","translation":[0,-3.637978807091713e-12,0]},{"children":[7,15,19,21,42,46],"name":"Armature_Waist","rotation":[0,-0.5680202841758728,0,0.8230145573616028],"translation":[0.000012934377991768997,-8.467635154724121,22.021873474121094]},{"children":[8],"name":"Armature_Head1","rotation":[0,-0.1594272255897522,0,0.9872097373008728],"scale":[0.9999999403953552,1.0000001192092896,0.9999999403953552],"translation":[19.24997901916504,7.810873508453369,7.302999973297119]},{"children":[9],"name":"Armature_Head2","rotation":[0,-0.022214004769921303,0,0.9997532963752747],"scale":[0.9999999403953552,1,0.9999999403953552],"translation":[16.465110778808594,0.6989551186561584,0.6982380747795105]},{"children":[10],"name":"Armature_Hair1","rotation":[0,-0.00041854416485875845,0,1],"translation":[12.228507995605469,-0.02507955953478813,-0.025067836046218872]},{"children":[11],"name":"Armature_Hair2","rotation":[0,0.0002934932126663625,0,1],"translation":[5.196281909942627,-0.015002263709902763,-0.015001877211034298]},{"children":[12],"name":"Armature_Hair3","translation":[6.897156238555908,-0.0158635675907135,-0.015863826498389244]},{"children":[13],"name":"Armature_Hair4","translation":[7.501358509063721,-0.017253227531909943,-0.017253519967198372]},{"children":[14],"name":"Armature_Hair5","translation":[7.487968921661377,-0.01722142845392227,-0.017222726717591286]},{"name":"Armature_EndHair5","translation":[6.238892078399658,-0.014349523931741714,-0.014349768869578838]},{"children":[16],"name":"Armature_LArm","rotation":[0,0.5579736828804016,0,0.829858660697937],"scale":[1,1.0000001192092896,1],"translation":[5.159598350524902,8.161568641662598,-21.20572853088379]},{"children":[17],"name":"Armature_LForeArm","rotation":[0,0.09866134077310562,0,0.9951211810112],"translation":[19.898500442504883,0.09520271420478821,0.00009846687316894531]},{"children":[18],"name":"Armature_LHand","rotation":[0,0.15021009743213654,0,0.9886541366577148],"translation":[21.219440460205078,0.09957481175661087,-0.00008869171142578125]},{"name":"Armature_EndLHand","rotation":[0,-1.4901161193847656e-8,0,1],"translation":[21.813705444335938,0.09164293855428696,-0.00004291534423828125]},{"children":[20],"name":"Armature_LFeeler","rotation":[0,-0.6640102863311768,0,0.7477234601974487],"scale":[1,1.0000001192092896,1],"translation":[19.10818862915039,-10.863277435302734,-4.239185810089111]},{"name":"Armature_EndLFeeler","translation":[0.2788667678833008,-7.092498779296875,-3.2425999641418457]},{"children":[22],"name":"Armature_Tail1","rotation":[0,0.8418077230453491,0,0.5397776365280151],"scale":[1,1.0000001192092896,1],"translation":[0.000012556468391267117,0.000041961669921875,0.0000027482356017571874]},{"children":[23],"name":"Armature_Tail2","rotation":[0,-0.0676925927400589,0,0.9977062344551086],"translation":[5.266388416290283,-7.279068946838379,-5.186352729797363]},{"children":[24],"name":"Armature_Tail3","translation":[4.288354873657227,-9.086048126220703,-5.553336143493652]},{"children":[25,27,29,31,33,34,36,38,40],"name":"Armature_Jaw","rotation":[7.4593708987436e-9,-0.0011804113164544106,7.441781413319859e-9,0.9999994039535522],"translation":[8.34552338346839e-8,0,-1.0100120562128723e-7]},{"children":[26],"name":"Armature_LJaw","rotation":[7.857638116313956e-17,-0.3217727541923523,-2.9559295219115504e-16,0.9468170404434204],"scale":[0.9999999403953552,1,0.9999999403953552],"translation":[15.057051658630371,-0.00007237112004077062,11.570648193359375]},{"name":"Armature_EndLJaw","rotation":[-8.79860556158088e-16,6.191726242832374e-9,-1.2021938620380285e-16,1],"translation":[8.731101989746094,0.000024880208002286963,0.000047211080527631566]},{"children":[28],"name":"Armature_LJawA","rotation":[2.978716031681671e-16,0.36298051476478577,-9.2340196717434e-16,0.9317968487739563],"translation":[17.73710060119629,8.469442367553711,-0.2697112560272217]},{"name":"Armature_EndLJawA","rotation":[0,0,-3.677613769070831e-16,1],"translation":[4.992057800292969,3.192021131515503,4.447072505950928]},{"children":[30],"name":"Armature_LJawB","rotation":[-6.94600262791706e-16,-0.8544901013374329,1.469346783052614e-15,0.519467830657959],"translation":[4.159483909606934,-8.181657791137695,16.62384796142578]},{"name":"Armature_EndLJawB","rotation":[5.551115123125783e-17,0,8.326672684688674e-17,1],"translation":[5.90525484085083,-3.7618250846862793,-5.216189861297607]},{"children":[32],"name":"Armature_LowerJaw","rotation":[3.5327073429215056e-16,0.7071065902709961,-4.317753360304552e-16,0.7071070671081543],"translation":[9.497323036193848,11.977587699890137,-12.359052658081055]},{"name":"Armature_EndLowerJaw","rotation":[-5.551115123125783e-17,-1.4901161193847656e-8,-1.942890293094024e-16,1],"translation":[4.65792989730835,4.514169216156006,3.5793848037719727]},{"name":"Armature_EndJaw","rotation":[4.163336342344337e-16,4.470348358154297e-8,-4.996003610813204e-16,1],"translation":[3.021082878112793,-6.452060699462891,-3.931394100189209]},{"children":[35],"name":"Armature_RJaw","rotation":[1.8033884136042138e-15,0.9468168616294861,-7.730890885413681e-16,0.32177308201789856],"scale":[0.9999999403953552,0.9999999403953552,0.9999999403953552],"translation":[-15.057049751281738,-0.0000016971863487924566,-11.570491790771484]},{"name":"Armature_EndRJaw","rotation":[-5.428417106760077e-16,7.351377462327946e-8,-6.439483278206093e-17,1],"translation":[8.731101036071777,0.000023121801859815605,0.000004761261152452789]},{"children":[37],"name":"Armature_RJawA","rotation":[1.1000951575539553e-15,0.8633514046669006,-2.2001903151079106e-16,0.5046032071113586],"translation":[-4.305834770202637,8.469514846801758,-17.20854949951172]},{"name":"Armature_EndRJawA","rotation":[2.7755575615628914e-17,-7.450580596923828e-8,1.1102230246251565e-16,1],"translation":[6.447320461273193,3.1920166015625,1.7688837051391602]},{"children":[39],"name":"Armature_RJawB","rotation":[5.4768451567281575e-15,0.9919418096542358,1.752590471328834e-15,0.12669512629508972],"translation":[-17.134241104125977,-8.181615829467773,0.2606087028980255]},{"name":"Armature_EndRJawB","rotation":[-3.608224830031759e-16,-1.4901161193847656e-8,5.551115123125783e-17,1],"translation":[7.595186710357666,-3.761779308319092,-2.0961825847625732]},{"children":[41],"name":"Armature_UpperJaw","rotation":[2.3492554083304586e-15,-0.9915191531181335,6.407060445171974e-16,0.129960834980011],"translation":[-9.370644569396973,-11.817910194396973,12.194208145141602]},{"name":"Armature_EndUpperJaw","rotation":[-3.3306693385732656e-16,2.980232594040899e-8,3.3306688091776736e-16,1],"scale":[0.9999999403953552,1,0.9999999403953552],"translation":[5.592854022979736,-5.42091703414917,-4.2992682456970215]},{"children":[43],"name":"Armature_RArm","rotation":[0,0.5778093934059143,0,0.8161717653274536],"scale":[1,1.0000001192092896,1],"translation":[-10.20419692993164,8.161564826965332,19.291902542114258]},{"children":[44],"name":"Armature_RForeArm","rotation":[0,0.0982964038848877,0,0.9951571822166443],"translation":[-19.89849090576172,0.0952039510011673,0.008246243000030518]},{"children":[45],"name":"Armature_RHand","rotation":[0,0.38144049048423767,0,0.9243934154510498],"translation":[-19.59248924255371,0.09957095980644226,-8.14845085144043]},{"name":"Armature_EndRHand","rotation":[0,4.470348358154297e-8,0,1],"translation":[-2.0124168395996094,0.09164177626371384,-21.72067642211914]},{"children":[47],"name":"Armature_RFeeler","rotation":[0,-0.7175997495651245,0,0.6964557766914368],"scale":[1,1.0000001192092896,1],"translation":[11.488059997558594,-10.863285064697266,15.846750259399414]},{"name":"Armature_EndRFeeler","translation":[2.16542911529541,-7.092502593994141,-2.4296252727508545]},{"name":"Armature_pm0070_00_Skin","translation":[0,-3.637978807091713e-12,0]}],"samplers":[{}],"scene":0,"scenes":[{"name":"Scene","nodes":[0,2,1]}],"skins":[{"inverseBindMatrices":0,"joints":[4,5,6,7,8,9,10,11,12,13,14,15,16,17,18,19,20,21,22,23,24,25,26,27,28,29,30,31,32,33,34,35,36,37,38,39,40,41,42,43,44,45,46,47,48],"skeleton":0}],"textures":[{"sampler":0,"source":0},{"sampler":0,"source":1}],"extensionsUsed":["ALI_amc_mesh_compression"],"extensionsRequired":["ALI_amc_mesh_compression"]}