{"accessors":[{"bufferView":0,"componentType":5126,"count":53,"max":[0.0000037170407267694827,-0.9999998211860657,0.0000037189890917943558,0,0.9999997615814209,-1.2150397310506378e-7,0.9998176097869873,0,1,0.00000371704186363786,0.9999998807907104,0,224.7161865234375,110.63430786132812,229.93600463867188,1],"min":[-0.000003718683046827209,-1,-0.000002451565478622797,0,-0.6834112405776978,-1.215040015267732e-7,-0.9999999403953552,0,-0.9998176693916321,0.000003717040954143158,-0.6834112405776978,0,-399.5040283203125,-107.67582702636719,-259.4245300292969,1],"type":"MAT4","byteOffset":0}],"asset":{"generator":"Khronos Blender glTF 2.0 exporter","version":"2.0"},"bufferViews":[{"buffer":0,"byteLength":3392,"byteOffset":0},{"buffer":0,"byteOffset":3392,"byteLength":55613},{"buffer":0,"byteOffset":59005,"byteLength":1823},{"buffer":0,"byteOffset":60828,"byteLength":115389},{"buffer":0,"byteOffset":176217,"byteLength":1823}],"buffers":[{"byteLength":178040,"uri":"buffer.bin"}],"images":[{"name":"pm0130_00_BodyB1","uri":"pm0130_00_BodyB1.png"},{"name":"pm0130_00_Eye1","uri":"pm0130_00_Eye1.png"},{"name":"pm0130_00_BodyA1","uri":"pm0130_00_BodyA1.png"},{"name":"pm0130_00_Iris1","uri":"pm0130_00_Iris1.png"}],"materials":[{"alphaMode":"OPAQUE","name":"Material__140","pbrMetallicRoughness":{"baseColorFactor":[0.6400000190734865,0.6400000190734865,0.6400000190734865,1],"baseColorTexture":{"index":0},"metallicFactor":0}},{"alphaMode":"OPAQUE","name":"Material__141","pbrMetallicRoughness":{"baseColorFactor":[0.6400000190734865,0.6400000190734865,0.6400000190734865,1],"baseColorTexture":{"index":1},"metallicFactor":0}},{"alphaMode":"OPAQUE","name":"Material__142","pbrMetallicRoughness":{"baseColorFactor":[0.6400000190734865,0.6400000190734865,0.6400000190734865,1],"baseColorTexture":{"index":2},"metallicFactor":0}},{"alphaMode":"MASK","name":"Material__143","pbrMetallicRoughness":{"baseColorFactor":[0.6400000190734865,0.6400000190734865,0.6400000190734865,1],"baseColorTexture":{"index":3},"metallicFactor":0}}],"meshes":[{"name":"GyaradosF","primitives":[{"material":0,"extensions":{"ALI_amc_mesh_compression":{"bufferView":1}}},{"material":1,"extensions":{"ALI_amc_mesh_compression":{"bufferView":2}}},{"material":2,"extensions":{"ALI_amc_mesh_compression":{"bufferView":3}}},{"material":3,"extensions":{"ALI_amc_mesh_compression":{"bufferView":4}}}]}],"nodes":[{"name":"Camera","rotation":[0.483536034822464,0.33687159419059753,-0.20870360732078552,0.7804827094078064],"translation":[7.481131553649902,5.34366512298584,6.5076398849487305]},{"name":"EndFeelerB","translation":[71.47720336914062,0.00003051759995287284,-0.000006999820016062586]},{"name":"EndFeelerC","translation":[71.81659698486328,0.00003051759995287284,0.000004000030003226129]},{"name":"EndFeelerD","translation":[73.28067779541016,0.000045776399929309264,-0.000009999999747378752]},{"name":"EndFeelerE","translation":[35.670188903808594,0,-0.0000010000400152421207]},{"name":"EndHead","translation":[93.10851287841797,0.00003051759995287284,0.000004768370217789197]},{"name":"EndLEar","translation":[54.139530181884766,-0.000003814699994109105,0.00003051759995287284]},{"name":"EndLFeelerA6","translation":[15.817999839782715,-0.00001525879997643642,0.00001525879997643642]},{"name":"EndLowerBeak","translation":[61.154109954833984,0.00003051759995287284,0.000010028499673353508]},{"name":"EndREar","translation":[54.139400482177734,0.000022888199964654632,0]},{"name":"EndRFeelerA6","translation":[15.817620277404785,-0.00011444099800428376,-0.00006103519990574569]},{"name":"EndTail9","translation":[52.895450592041016,0.000007629389983776491,0.0000029999901016708463]},{"name":"EndTeeth","translation":[18.81505012512207,0.00001525879997643642,-0.0000010281800086886506]},{"name":"EndTongue2","translation":[35.091609954833984,-0.00001525879997643642,9.983780273614684e-7]},{"name":"EnvironmentAmbientLight","scale":[0.02539999969303608,0.02539999969303608,0.02539999969303608]},{"mesh":0,"name":"GyaradosF","rotation":[-0.3799336850643158,-0.5963658094406128,-0.37993231415748596,0.5963636636734009],"scale":[0.9999998807907104,0.9999997615814209,0.9999997615814209],"skin":0,"translation":[3.527122735977173,48.289485931396484,-0.00015426953905262053]},{"name":"Lamp","rotation":[0.16907575726509094,0.7558802962303162,-0.27217137813568115,0.570947527885437],"scale":[1,1,0.9999999403953552],"translation":[4.076245307922363,5.903861999511719,-1.0054539442062378]},{"children":[25],"name":"Origin"},{"name":"pm0130_00_BodySkin"},{"children":[17,18,20,23,24],"name":"pm0130_00_gyarados","rotation":[0.7071065902709961,0,0,0.7071069478988647],"scale":[0.02539999969303608,0.02539999969303608,0.02539999969303608]},{"name":"pm0130_00_IrisSkin"},{"name":"pm0130_00_MustacheSkin"},{"name":"pm0130_01_MustacheSkin"},{"children":[21],"name":"VriVis00"},{"children":[22],"name":"VriVis01"},{"children":[15,26,41],"name":"Waist","rotation":[0.3799336552619934,0.5963658094406128,0.37993231415748596,0.5963636636734009],"scale":[1.0000001192092896,1.0000001192092896,1.0000001192092896],"translation":[0,-23.604000091552734,-42.274898529052734]},{"children":[27],"name":"Waist_Hips","rotation":[-0.5999645590782166,0.3742225766181946,-0.3742225766181946,0.5999645590782166],"translation":[51.816612243652344,44.76234436035156,-0.00006426637264667079]},{"children":[28],"name":"Waist_Tail1","rotation":[0,-0.07367272675037384,0,0.9972825050354004],"scale":[1.0000001192092896,1,1.0000001192092896],"translation":[41.785491943359375,-0.00002574920654296875,-0.000002384185791015625]},{"children":[29],"name":"Waist_Tail2","rotation":[0,-0.008488723076879978,0,0.9999639987945557],"scale":[0.9999998807907104,1,0.9999998807907104],"translation":[43.89752960205078,-0.000023841854272177443,0.000003814697265625]},{"children":[30,32],"name":"Waist_Tail3","rotation":[0,-0.014519925229251385,0,0.9998946189880371],"translation":[36.126251220703125,-0.0000133514404296875,-0.000003814697265625]},{"children":[31],"name":"Waist_FeelerD","rotation":[0,-0.6280969381332397,0,0.7781351208686829],"scale":[0.9999998807907104,1,0.9999998807907104],"translation":[16.011436462402344,0.000087738037109375,21.080810546875]},{"name":"Waist_EndFeelerD","rotation":[0,4.470348358154297e-8,0,1],"translation":[73.28065490722656,0.000301361083984375,0.0000591278076171875]},{"children":[33],"name":"Waist_Tail4","rotation":[0,-0.0006193966837599874,0,0.9999998211860657],"translation":[34.997337341308594,-0.0000133514404296875,0.000003814697265625]},{"children":[34,36],"name":"Waist_Tail5","rotation":[0,0.014245539903640747,0,0.9998985528945923],"scale":[0.9999999403953552,1,0.9999999403953552],"translation":[32.96729278564453,-0.00001049041748046875,0.000011444091796875]},{"children":[35],"name":"Waist_FeelerE","rotation":[0,-0.6386404633522034,0,0.7695053219795227],"scale":[0.9999999403953552,1,0.9999999403953552],"translation":[15.261276245117188,0.00006389617919921875,15.58477783203125]},{"name":"Waist_EndFeelerE","rotation":[0,-2.9802322387695312e-8,0,1],"translation":[35.6701774597168,0.0001392364501953125,0]},{"children":[37],"name":"Waist_Tail6","rotation":[0,0.0000029802322387695312,0,1],"translation":[31.686309814453125,-0.000016212465197895654,-0.0000152587890625]},{"children":[38],"name":"Waist_Tail7","rotation":[0,-0.0000026226043701171875,0,1],"translation":[30.748153686523438,-0.0000133514404296875,0.0000152587890625]},{"children":[39],"name":"Waist_Tail8","rotation":[0,-0.019030828028917313,0,0.9998189210891724],"translation":[21.594314575195312,-0.00001049041748046875,0.0000152587890625]},{"children":[40],"name":"Waist_Tail9","rotation":[0,0.013092179782688618,0,0.999914288520813],"translation":[42.090240478515625,-0.0000152587890625,-0.000011444091796875]},{"name":"Waist_EndTail9","scale":[1.0000001192092896,1,1.0000001192092896],"translation":[52.89546203613281,-0.0000247955322265625,0.0000152587890625]},{"children":[42],"name":"Waist_Spine1","rotation":[-0.5000001192092896,-0.49999985098838806,0.49999985098838806,0.5000001192092896],"translation":[51.81660461425781,44.76234436035156,-0.00006426593608921394]},{"children":[43],"name":"Waist_Spine2","rotation":[0,0.28719285130500793,0,0.9578728079795837],"scale":[0.9999999403953552,1,0.9999999403953552],"translation":[49.19609069824219,0.0002409517765045166,0.000006120171747170389]},{"children":[44],"name":"Waist_Spine3","rotation":[0,0.2545429468154907,0,0.9670615792274475],"scale":[0.9999999403953552,1,0.9999999403953552],"translation":[44.495182037353516,0.0002234279818367213,0.000019073486328125]},{"children":[45],"name":"Waist_Spine4","rotation":[0,-0.02857915312051773,0,0.9995915293693542],"translation":[43.26390075683594,0.00016066426178440452,0.00000762939453125]},{"children":[46,48],"name":"Waist_Spine5","rotation":[0,-0.10582549124956131,0,0.9943847060203552],"scale":[0.9999999403953552,1,0.9999999403953552],"translation":[34.283653259277344,0.00013262033462524414,-0.0000152587890625]},{"children":[47],"name":"Waist_FeelerC","rotation":[0,0.6481670141220093,0,0.761498212814331],"translation":[19.39556884765625,-0.000004053174052387476,-35.47397994995117]},{"name":"Waist_EndFeelerC","rotation":[0,1.4901161193847656e-8,0,1],"translation":[71.81660461425781,-0.0001308917999267578,0.000030517578125]},{"children":[49,51],"name":"Waist_Neck","rotation":[0,-0.7166116237640381,0,0.6974725127220154],"scale":[0.9999999403953552,1,0.9999999403953552],"translation":[45.36848449707031,0.00020113581558689475,0.000011444091796875]},{"children":[50],"name":"Waist_FeelerB","rotation":[0,0.9173808097839355,0,0.3980104923248291],"scale":[0.9999999403953552,0.9999999403953552,0.9999999403953552],"translation":[-6.78477668762207,0.00007843971252441406,-21.332977294921875]},{"name":"Waist_EndFeelerB","rotation":[0,-7.450580596923828e-8,0,1],"translation":[71.47723388671875,0.0002816618653014302,0.0000400543212890625]},{"children":[52,53,55,62,64,71],"name":"Waist_Head","rotation":[0,0.16594035923480988,0,0.9861358404159546],"scale":[0.9999999403953552,1,0.9999999403953552],"translation":[34.468475341796875,0.00007966160774230957,-0.00006103515625]},{"name":"Waist_EndHead","rotation":[0,2.980232594040899e-8,0,1],"scale":[0.9999999403953552,1,0.9999999403953552],"translation":[93.10850524902344,0.0002487302990630269,-0.00000762939453125]},{"children":[54],"name":"Waist_LEar","rotation":[0,0.9463028311729431,0,0.32328182458877563],"scale":[1,0.9999999403953552,1],"translation":[28.134437561035156,-32.59256362915039,9.137451171875]},{"name":"Waist_EndLEar","rotation":[0,-1.4901161193847656e-8,0,1],"translation":[25.762252807617188,-30.357494354248047,-36.68537139892578]},{"children":[56],"name":"Waist_LFeelerA1","rotation":[0,0.7700169682502747,0,0.6380234360694885],"translation":[40.5402946472168,-25.54266357421875,32.619178771972656]},{"children":[57],"name":"Waist_LFeelerA2","rotation":[0,0.005214874166995287,0,0.9999864101409912],"scale":[0.9999998807907104,1,0.9999998807907104],"translation":[-18.023494720458984,-27.750728607177734,-7.491430282592773]},{"children":[58],"name":"Waist_LFeelerA3","rotation":[0,0.021194301545619965,0,0.9997754096984863],"translation":[-11.337032318115234,-16.152328491210938,-4.682857513427734]},{"children":[59],"name":"Waist_LFeelerA4","rotation":[0,0.010710838250815868,0,0.9999426603317261],"translation":[-9.956367492675781,-13.762786865234375,-5.133122444152832]},{"children":[60],"name":"Waist_LFeelerA5","rotation":[0,0.05011298134922981,0,0.9987435936927795],"scale":[0.9999999403953552,1,0.9999999403953552],"translation":[-7.656646728515625,-9.816825866699219,-4.080751419067383]},{"children":[61],"name":"Waist_LFeelerA6","rotation":[0,0.06013871729373932,0,0.9981901049613953],"translation":[-4.548476219177246,-6.55474853515625,-4.098476886749268]},{"name":"Waist_EndLFeelerA6","rotation":[0,1.862645149230957e-9,0,1],"translation":[-5.986376762390137,-11.055183410644531,-9.599764823913574]},{"children":[63],"name":"Waist_REar","rotation":[0,0.9463047981262207,0,0.3232760727405548],"scale":[1.0000001192092896,1,1.0000001192092896],"translation":[28.134075164794922,31.665491104125977,11.961151123046875]},{"name":"Waist_EndREar","rotation":[0,7.450580596923828e-8,0,1],"translation":[25.76270294189453,30.357027053833008,-36.68529510498047]},{"children":[65],"name":"Waist_RFeelerA1","rotation":[0,0.7700218558311462,0,0.6380176544189453],"scale":[1,0.9999999403953552,1],"translation":[40.540130615234375,22.583040237426758,34.73431396484375]},{"children":[66],"name":"Waist_RFeelerA2","rotation":[0,0.005215305835008621,0,0.9999864101409912],"scale":[0.9999999403953552,1,0.9999999403953552],"translation":[-18.02370834350586,27.75065803527832,-7.491518020629883]},{"children":[67],"name":"Waist_RFeelerA3","rotation":[0,0.021194735541939735,0,0.9997754096984863],"scale":[0.9999999403953552,1,0.9999999403953552],"translation":[-11.33682632446289,16.15215301513672,-4.683202743530273]},{"children":[68],"name":"Waist_RFeelerA4","rotation":[0,0.010709906928241253,0,0.9999426603317261],"translation":[-9.955795288085938,13.762771606445312,-5.13327693939209]},{"children":[69],"name":"Waist_RFeelerA5","rotation":[0,0.05011308193206787,0,0.9987435936927795],"translation":[-7.656867980957031,9.816749572753906,-4.081098556518555]},{"children":[70],"name":"Waist_RFeelerA6","rotation":[0,0.06013881042599678,0,0.9981900453567505],"scale":[0.9999999403953552,1,0.9999999403953552],"translation":[-4.548943519592285,6.5547637939453125,-4.098883628845215]},{"name":"Waist_EndRFeelerA6","rotation":[0,-1.862645149230957e-9,0,1],"translation":[-5.986053466796875,11.054779052734375,-9.599811553955078]},{"children":[72,77],"name":"Waist_UpperBeak","rotation":[0,-0.9942513704299927,0,0.10707113146781921],"scale":[1,0.9999999403953552,1],"translation":[89.5114517211914,-0.15031898021697998,3.4260025024414062]},{"children":[73,74],"name":"Waist_LowerBeak","rotation":[0,0.9017245769500732,0,0.4323109984397888],"translation":[58.716217041015625,-0.00044673681259155273,-27.895599365234375]},{"name":"Waist_EndLowerBeak","rotation":[0,2.9802322387695312e-8,0,1],"translation":[61.15413284301758,0.00016766786575317383,0.0002002716064453125]},{"children":[75],"name":"Waist_Tongue1","rotation":[0,0.02819429524242878,0,0.9996024966239929],"translation":[-3.736003875732422,0.00006127357482910156,-7.9774322509765625]},{"children":[76],"name":"Waist_Tongue2","rotation":[0,-0.06458920985460281,0,0.9979119300842285],"scale":[1,1.0000001192092896,1],"translation":[18.59561538696289,0.00006313621997833252,-0.000164031982421875]},{"name":"Waist_EndTongue2","rotation":[0,-1.4901161193847656e-8,0,1],"translation":[35.09162139892578,0.00007763504981994629,-0.000148773193359375]},{"children":[78],"name":"Waist_Teeth","rotation":[0,-0.541924238204956,0,0.8404273390769958],"translation":[11.640604019165039,-0.0000864863395690918,-4.421104431152344]},{"name":"Waist_EndTeeth","rotation":[0,-7.450580596923828e-9,0,1],"translation":[-17.27682113647461,-0.00004144012928009033,-7.451005935668945]}],"samplers":[{}],"scene":0,"scenes":[{"name":"Scene","nodes":[12,13,8,10,9,7,6,5,1,2,11,4,3,19,14,16,0]}],"skins":[{"inverseBindMatrices":0,"joints":[26,27,28,29,30,31,32,33,34,35,36,37,38,39,40,41,42,43,44,45,46,47,48,49,50,51,52,53,54,55,56,57,58,59,60,61,62,63,64,65,66,67,68,69,70,71,72,73,74,75,76,77,78],"skeleton":25}],"textures":[{"sampler":0,"source":0},{"sampler":0,"source":1},{"sampler":0,"source":2},{"sampler":0,"source":3}],"extensionsUsed":["ALI_amc_mesh_compression"],"extensionsRequired":["ALI_amc_mesh_compression"]}