{"accessors":[{"bufferView":0,"componentType":5126,"count":49,"max":[1.0000001192092896,0,1,0,1.0000001192092896,0,1.0000001192092896,0,0,-1,0,0,52.356300354003906,30.16663360595703,62.92149353027344,1],"min":[-1,0,-1.0000001192092896,0,-1,0,-1,0,0,-1.0000001192092896,0,0,-98.68721771240234,-24.648330688476562,-61.80055236816406,1],"type":"MAT4","byteOffset":0}],"asset":{"generator":"Khronos Blender glTF 2.0 exporter","version":"2.0"},"bufferViews":[{"buffer":0,"byteLength":3136,"byteOffset":0},{"buffer":0,"byteOffset":3136,"byteLength":2735},{"buffer":0,"byteOffset":5871,"byteLength":2735},{"buffer":0,"byteOffset":8606,"byteLength":124919}],"buffers":[{"byteLength":133525,"uri":"buffer.bin"}],"images":[{"name":"pm0105_00_Body1","uri":"pm0105_00_Body1.png"},{"name":"pm0105_00_Eye1","uri":"pm0105_00_Eye1.png"},{"name":"pm0105_00_Iris1","uri":"pm0105_00_Iris1.png"}],"materials":[{"alphaMode":"OPAQUE","name":"Material__151","pbrMetallicRoughness":{"baseColorFactor":[0.6400000190734865,0.6400000190734865,0.6400000190734865,1],"baseColorTexture":{"index":0},"metallicFactor":0}},{"alphaMode":"OPAQUE","name":"Material__152","pbrMetallicRoughness":{"baseColorFactor":[0.6400000190734865,0.6400000190734865,0.6400000190734865,1],"baseColorTexture":{"index":1},"metallicFactor":0}},{"alphaMode":"MASK","name":"Material__153","pbrMetallicRoughness":{"baseColorFactor":[0.6400000190734865,0.6400000190734865,0.6400000190734865,1],"baseColorTexture":{"index":2},"metallicFactor":0}}],"meshes":[{"name":"Marowak","primitives":[{"material":2,"extensions":{"ALI_amc_mesh_compression":{"bufferView":1}}},{"material":1,"extensions":{"ALI_amc_mesh_compression":{"bufferView":2}}},{"material":0,"extensions":{"ALI_amc_mesh_compression":{"bufferView":3}}}]}],"nodes":[{"children":[3,4],"name":"Armature","scale":[0.02539999969303608,0.02539999969303608,0.02539999969303608]},{"name":"Camera","rotation":[0.483536034822464,0.33687159419059753,-0.20870360732078552,0.7804827094078064],"translation":[7.481131553649902,5.34366512298584,6.5076398849487305]},{"name":"Lamp","rotation":[0.16907575726509094,0.7558802962303162,-0.27217137813568115,0.570947527885437],"scale":[1,1,0.9999999403953552],"translation":[4.076245307922363,5.903861999511719,-1.0054539442062378]},{"mesh":0,"name":"Marowak","skin":0},{"children":[5,49,50,51,52],"name":"Armature_pm0105_00","rotation":[-0.7071068286895752,0,0,0.7071068286895752]},{"children":[6],"name":"Armature_Origin"},{"children":[7,20],"name":"Armature_Waist","rotation":[0,-0.7404094338417053,0,0.6721560955047607],"translation":[0,1.828338623046875,32.79610061645508]},{"children":[8,13,18,19],"name":"Armature_Hips","rotation":[0,-0.9988349080085754,0,0.048259537667036057],"scale":[1,0.9999999403953552,1],"translation":[-2.153811351490731e-8,0.0000013113021850585938,-2.2235519736568676e-7]},{"children":[9],"name":"Armature_LThigh","rotation":[0,-0.00006803919677622616,0,1],"translation":[8.30423355102539,-0.8575371503829956,12.82130241394043]},{"children":[10],"name":"Armature_LLeg","rotation":[0,0.09198441356420517,0,0.995760440826416],"translation":[12.581230163574219,-0.0017220377922058105,-0.0017117020906880498]},{"children":[11,12],"name":"Armature_LFoot","rotation":[0,-0.7680484652519226,0,0.6403917074203491],"scale":[0.9999999403953552,0.9999999403953552,0.9999999403953552],"translation":[8.515007019042969,1.6127612590789795,1.585524320602417]},{"name":"Armature_LToe","rotation":[0,-5.0873495638370514e-8,0,1],"translation":[-0.007577156648039818,-6.453856945037842,-2.1385138034820557]},{"name":"Armature_EndLFoot","rotation":[0,-3.2247044146060944e-8,0,1],"translation":[0.000025891698896884918,-9.765621185302734,-0.000022098422050476074]},{"children":[14],"name":"Armature_RThigh","rotation":[0,-0.00006803919677622616,0,1],"translation":[8.304130554199219,-0.8575370907783508,-12.821297645568848]},{"children":[15],"name":"Armature_RLeg","rotation":[0,0.09198441356420517,0,0.995760440826416],"translation":[12.581205368041992,-0.0017069578170776367,-0.0017107519088312984]},{"children":[16,17],"name":"Armature_RFoot","rotation":[0,-0.766877293586731,0,0.6417937874794006],"scale":[0.9999999403953552,0.9999999403953552,0.9999999403953552],"translation":[8.515142440795898,1.6127761602401733,1.5855433940887451]},{"name":"Armature_EndRFoot","rotation":[0,2.2118911147117615e-8,0,1],"scale":[1,0.9999999403953552,1],"translation":[0.000026842579245567322,-9.765618324279785,-0.000028677284717559814]},{"name":"Armature_RToe","rotation":[0,2.1886080503463745e-8,0,1],"scale":[1,0.9999999403953552,1],"translation":[0.007524582091718912,-6.453865051269531,-2.1385107040405273]},{"name":"Armature_EndHips","rotation":[0,-3.0298451747512445e-8,0,1],"translation":[20.68149757385254,1.1920928955078125e-7,5.094916559755802e-7]},{"name":"Armature_Tail2","rotation":[0,0.5691048502922058,0,0.8222649693489075],"translation":[13.766414642333984,22.81999397277832,3.391323843970895e-7]},{"children":[21],"name":"Armature_Spine1","rotation":[0,0.0000011958181858062744,0,1],"translation":[0.000029012426239205524,0.00003135204315185547,-0.000018638320398167707]},{"children":[22,33,36],"name":"Armature_Spine2","rotation":[0,0.02682769112288952,0,0.999640166759491],"translation":[9.571263313293457,-0.9314041137695312,-0.9270554780960083]},{"children":[23],"name":"Armature_LShoulder","rotation":[0,0.7117096781730652,0,0.7024737596511841],"translation":[11.094329833984375,0.2449941635131836,-6.6157331466674805]},{"children":[24],"name":"Armature_LArm","rotation":[0,0.014915160834789276,0,0.9998887777328491],"scale":[0.9999998807907104,1,0.9999998807907104],"translation":[7.026703834533691,2.384185791015625e-7,0.00001996755599975586]},{"children":[25],"name":"Armature_LForeArm","rotation":[0,6.519712769659236e-9,0,1],"translation":[11.823405265808105,-1.1920928955078125e-7,0.000016488746041432023]},{"children":[26,29,30],"name":"Armature_LHand","rotation":[0,-1.4901161193847656e-8,0,1],"translation":[6.801200866699219,1.1920928955078125e-7,0.000005853173206560314]},{"children":[27],"name":"Armature_LFingerA1","rotation":[0,4.547473508864641e-13,0,1],"translation":[7.239498615264893,0,0.9185019731521606]},{"children":[28],"name":"Armature_LFingerA2","rotation":[0,0.09300605952739716,0,0.9956655502319336],"translation":[3.3216631412506104,1.1920928955078125e-7,0.00010461636702530086]},{"name":"Armature_EndLFingerA2","rotation":[0,-7.450580596923828e-9,0,1],"translation":[4.708829879760742,-1.1920928955078125e-7,-9.5367431640625e-7]},{"name":"Armature_EndLHand","rotation":[0,2.2737367544323206e-13,0,1],"translation":[17.04430389404297,0,0.00000349205220118165]},{"children":[31],"name":"Armature_LFingerB1","rotation":[0,-0.9447131752967834,0,0.327897846698761],"translation":[3.883671760559082,-3.89298152923584,-1.9809486865997314]},{"children":[32],"name":"Armature_LFingerB2","rotation":[0,-0.06855244934558868,0,0.9976475238800049],"scale":[0.9999999403953552,1,0.9999999403953552],"translation":[-2.4371938705444336,-0.7596619129180908,0.0000591278076171875]},{"name":"Armature_EndLFingerB2","rotation":[0,-1.4901161193847656e-8,0,1],"translation":[-3.964731216430664,-0.9789249897003174,0.0001010894775390625]},{"children":[34,35],"name":"Armature_Head","rotation":[0,0.021445896476507187,0,0.9997700452804565],"scale":[0.9999999403953552,1,0.9999999403953552],"translation":[20.877300262451172,-0.8969589471817017,-0.8960835933685303]},{"name":"Armature_EndJaw","rotation":[0,0.9285459518432617,0,0.37121737003326416],"scale":[0.9999999403953552,1,0.9999999403953552],"translation":[-7.666168212890625,-26.13856315612793,-0.000003881250449921936]},{"name":"Armature_EndHead","rotation":[0,4.959019861416891e-10,0,1],"translation":[35.378517150878906,4.071171133546159e-8,-8.82195308804512e-7]},{"children":[37],"name":"Armature_RShoulder","rotation":[0,-0.6809319853782654,0,0.7323466539382935],"translation":[11.620394706726074,0.24501395225524902,5.640839576721191]},{"children":[38],"name":"Armature_RArm","rotation":[0,-0.014914707280695438,0,0.9998887777328491],"translation":[7.026580810546875,1.1920928955078125e-7,-0.00004652142524719238]},{"children":[39],"name":"Armature_RForeArm","rotation":[0,1.2007984651063452e-7,0,1],"translation":[11.823497772216797,-1.1920928955078125e-7,0.000002878370651160367]},{"children":[40,42,45,48],"name":"Armature_RHand","translation":[6.801196098327637,0,0.00000680094126437325]},{"children":[41],"name":"Armature_FeelerA","rotation":[0,-0.7071641087532043,0,0.7070494890213013],"scale":[1,0.9999999403953552,1],"translation":[8.480884552001953,-0.000010013580322265625,1.639823317527771]},{"name":"Armature_EndFeelerA","translation":[0.0000018118880689144135,-31.308605194091797,-0.0000010849907994270325]},{"children":[43],"name":"Armature_RFingerA1","rotation":[0,-1.1920928955078125e-7,0,1],"translation":[7.239507675170898,2.384185791015625e-7,-0.9185060858726501]},{"children":[44],"name":"Armature_RFingerA2","rotation":[0,-0.09300658106803894,0,0.9956654906272888],"translation":[3.3218350410461426,-1.1920928955078125e-7,0.00004477714537642896]},{"name":"Armature_EndRFingerA2","rotation":[0,-7.450580596923828e-9,0,1],"translation":[4.708757400512695,0,-0.000003814697265625]},{"children":[46],"name":"Armature_RFingerB1","rotation":[0,-0.3279075026512146,0,0.944709837436676],"translation":[3.883713483810425,-3.8929619789123535,1.9810978174209595]},{"children":[47],"name":"Armature_RFingerB2","rotation":[0,0.06854937970638275,0,0.997647762298584],"translation":[2.4371509552001953,-0.7596995830535889,-0.0000667572021484375]},{"name":"Armature_EndRFingerB2","translation":[3.9646739959716797,-0.9789206981658936,0.000003814697265625]},{"name":"Armature_EndRHand","translation":[17.04429817199707,0,-3.3431206247769296e-7]},{"name":"Armature_pm0105_00_BodySkin"},{"name":"Armature_pm0105_00_HeadSkin"},{"name":"Armature_pm0105_00_IrisSkin"},{"name":"Armature_pm0105_00_WeaponSkin"}],"samplers":[{}],"scene":0,"scenes":[{"name":"Scene","nodes":[0,2,1]}],"skins":[{"inverseBindMatrices":0,"joints":[4,5,6,7,8,9,10,11,12,13,14,15,16,17,18,19,20,21,22,23,24,25,26,27,28,29,30,31,32,33,34,35,36,37,38,39,40,41,42,43,44,45,46,47,48,49,50,51,52],"skeleton":0}],"textures":[{"sampler":0,"source":0},{"sampler":0,"source":1},{"sampler":0,"source":2}],"extensionsUsed":["ALI_amc_mesh_compression"],"extensionsRequired":["ALI_amc_mesh_compression"]}