{
	"accessors": [{
		"bufferView": 0,
		"componentType": 5126,
		"count": 72,
		"max": [1.0000001192092896, 0, 1, 0, 1, 0, 1.0000001192092896, 0, 0, -1, 0, 0, 34.31231689453125, 17.358823776245117, 39.43063735961914, 1],
		"min": [-1, 0, -1, 0, -1, 0, -1, 0, 0, -1.0000001192092896, 0, 0, -60.94850158691406, -52.212890625, -38.62582015991211, 1],
		"type": "MAT4",
		"byteOffset": 0
	}],
	"asset": {
		"generator": "Khronos Blender glTF 2.0 exporter",
		"version": "2.0"
	},
	"bufferViews": [{
		"buffer": 0,
		"byteLength": 4608,
		"byteOffset": 0
	}, {
		"buffer": 0,
		"byteOffset": 4608,
		"byteLength": 115813
	}, {
		"buffer": 0,
		"byteOffset": 120421,
		"byteLength": 7187
	}, {
		"buffer": 0,
		"byteOffset": 127608,
		"byteLength": 5083
	}, {
		"buffer": 0,
		"byteOffset": 132691,
		"byteLength": 4803
	}],
	"buffers": [{
		"byteLength": 137494,
		"uri": "buffer.bin"
	}],
	"images": [{
		"name": "pm0004_00_Eye1",
		"uri": "pm0004_00_Eye1.png"
	}, {
		"name": "pm0004_00_Body1",
		"uri": "pm0004_00_Body1.png"
	}, {
		"name": "pm0004_00_FireCoreA1",
		"uri": "pm0004_00_FireCoreA1.png"
	}, {
		"name": "pm0004_00_FireStenA1",
		"uri": "pm0004_00_FireStenA1.png"
	}],
	"materials": [{
		"alphaMode": "OPAQUE",
		"name": "Material__34",
		"pbrMetallicRoughness": {
			"baseColorFactor": [0.6400000190734865, 0.6400000190734865, 0.6400000190734865, 1],
			"baseColorTexture": {
				"index": 0
			},
			"metallicFactor": 0
		}
	}, {
		"alphaMode": "OPAQUE",
		"name": "Material__35",
		"pbrMetallicRoughness": {
			"baseColorFactor": [0.6400000190734865, 0.6400000190734865, 0.6400000190734865, 1],
			"baseColorTexture": {
				"index": 1
			},
			"metallicFactor": 0
		}
	}, {
		"alphaMode": "OPAQUE",
		"name": "fireCore",
		"doubleSided":true,
		"extensions": {
            "KHR_techniques_webgl": {
                "technique": 0,
                "values" : {
                    "u_fireCoreTexture":  {
                        "index": 2
                    }
                }
            }
        }
	}, {
		"alphaMode": "OPAQUE",
		"name": "fireSten",
		"doubleSided":true,
		"extensions": {
            "KHR_techniques_webgl": {
                "technique": 1,
                "values" : {
                    "u_fireStenTexture":  {
                        "index": 3
                    }
                }
            }
        }
	}],
	"meshes": [{
		"name": "Charmander",
		"primitives": [{
			"material": 1,
			"extensions": {
				"ALI_amc_mesh_compression": {
					"bufferView": 1
				}
			}
		}, {
			"material": 2,
			"extensions": {
				"ALI_amc_mesh_compression": {
					"bufferView": 2
				}
			}
		}, {
			"material": 0,
			"extensions": {
				"ALI_amc_mesh_compression": {
					"bufferView": 3
				}
			}
		}, {
			"material": 3,
			"extensions": {
				"ALI_amc_mesh_compression": {
					"bufferView": 4
				}
			}
		}]
	}],
	"nodes": [{
		"children": [2, 4],
		"name": "Armature",
		"scale": [0.02539999969303608, 0.02539999969303608, 0.02539999969303608]
	}, {
		"name": "Camera",
		"rotation": [0.483536034822464, 0.33687159419059753, -0.20870360732078552, 0.7804827094078064],
		"translation": [7.481131553649902, 5.34366512298584, 6.5076398849487305]
	}, {
		"mesh": 0,
		"name": "Charmander",
		"skin": 0
	}, {
		"name": "Lamp",
		"rotation": [0.16907575726509094, 0.7558802962303162, -0.27217137813568115, 0.570947527885437],
		"scale": [1, 1, 0.9999999403953552],
		"translation": [4.076245307922363, 5.903861999511719, -1.0054539442062378]
	}, {
		"children": [5, 71, 72, 73, 74, 75],
		"name": "Armature_pm0004_00",
		"rotation": [-0.7071068286895752, 0, 0, 0.7071068286895752]
	}, {
		"children": [6],
		"name": "Armature_Origin"
	}, {
		"children": [7, 32],
		"name": "Armature_Waist",
		"rotation": [0, -0.7071080803871155, 0, 0.7071055769920349],
		"scale": [1, 0.9999999403953552, 1],
		"translation": [0, 1.5447790622711182, 21.363100051879883]
	}, {
		"children": [8, 14, 20, 21],
		"name": "Armature_Hips",
		"rotation": [0, 1, 0, -0.0000012675908465098473],
		"translation": [-1.2732925824820995e-11, 0.0000010728836059570312, -0.0000036368983273860067]
	}, {
		"children": [9],
		"name": "Armature_RThigh",
		"rotation": [0, -0.25736144185066223, 0, 0.9663152098655701],
		"scale": [0.9999999403953552, 1, 0.9999999403953552],
		"translation": [5.958210468292236, 1.1070832014083862, -9.496790885925293]
	}, {
		"children": [10],
		"name": "Armature_RLeg",
		"rotation": [0, 0.5020566582679749, 0, 0.864834725856781],
		"scale": [0.9999999403953552, 1, 0.9999999403953552],
		"translation": [5.2553277015686035, -3.4731335639953613, -3.0130395889282227]
	}, {
		"children": [11, 13],
		"name": "Armature_RFoot",
		"rotation": [0, -0.8679607510566711, 0, 0.4966329336166382],
		"scale": [0.9999998807907104, 1, 0.9999998807907104],
		"translation": [4.85734748840332, 3.31156325340271, 2.8549447059631348]
	}, {
		"children": [12],
		"name": "Armature_RToe",
		"rotation": [0, -5.798256097477861e-8, 0, 1],
		"translation": [0.000012301301467232406, -5.983625411987305, -2.765859842300415]
	}, {
		"name": "Armature_EndRToe",
		"translation": [0.000004781745701620821, -5.0990214347839355, -0.000010112393283634447]
	}, {
		"name": "Armature_EndRFoot",
		"rotation": [0, -5.798256097477861e-8, 0, 1],
		"translation": [0.00001312461154157063, -11.794800758361816, -0.000024863142243702896]
	}, {
		"children": [15],
		"name": "Armature_LThigh",
		"rotation": [0, -0.25736144185066223, 0, 0.9663152098655701],
		"scale": [0.9999999403953552, 1, 0.9999999403953552],
		"translation": [5.958310604095459, 1.1070607900619507, 9.496788024902344]
	}, {
		"children": [16],
		"name": "Armature_LLeg",
		"rotation": [0, 0.5020566582679749, 0, 0.864834725856781],
		"scale": [0.9999999403953552, 1, 0.9999999403953552],
		"translation": [5.2552642822265625, -3.4730968475341797, -3.01300048828125]
	}, {
		"children": [17, 19],
		"name": "Armature_LFoot",
		"rotation": [0, -0.8679607510566711, 0, 0.4966329336166382],
		"scale": [0.9999998807907104, 1, 0.9999998807907104],
		"translation": [4.857343673706055, 3.3115479946136475, 2.854940891265869]
	}, {
		"children": [18],
		"name": "Armature_LToe",
		"rotation": [0, -5.798256097477861e-8, 0, 1],
		"translation": [0.000012301306924200617, -5.983625411987305, -2.7658607959747314]
	}, {
		"name": "Armature_EndLToe",
		"translation": [0.000004781750703841681, -5.099020004272461, -0.000010212595952907577]
	}, {
		"name": "Armature_EndLFoot",
		"rotation": [0, -5.798256097477861e-8, 0, 1],
		"translation": [0.000010263590411341283, -11.794801712036133, -0.00002425087586743757]
	}, {
		"name": "Armature_EndHips",
		"rotation": [0, -3.178655560986954e-8, 0, 1],
		"translation": [9.827339172363281, 1.1920928955078125e-7, 3.3806918509071693e-7]
	}, {
		"children": [22],
		"name": "Armature_Tail1",
		"rotation": [0, -0.5548111200332642, 0, 0.8319763541221619],
		"translation": [9.893614768981934, 8.004114151000977, 0.000013401387150224764]
	}, {
		"children": [23],
		"name": "Armature_Tail2",
		"rotation": [0, -0.11308060586452484, 0, 0.9935858249664307],
		"translation": [1.081534504890442, 6.7580766677856445, -2.5976171493530273]
	}, {
		"children": [24],
		"name": "Armature_Tail3",
		"rotation": [0, -0.07476146519184113, 0, 0.9972014427185059],
		"scale": [1, 0.9999999403953552, 1],
		"translation": [0.2084478884935379, 7.360923767089844, -1.2299529314041138]
	}, {
		"children": [25],
		"name": "Armature_Tail4",
		"rotation": [0, -0.014918585307896137, 0, 0.9998887181282043],
		"translation": [0.0026333944406360388, 7.9359130859375, -0.1446264088153839]
	}, {
		"children": [26],
		"name": "Armature_Tail5",
		"rotation": [0, -0.023901592940092087, 0, 0.9997143149375916],
		"scale": [0.9999999403953552, 0.9999999403953552, 0.9999999403953552],
		"translation": [0.0009964972268790007, 7.555900573730469, 0.08776552975177765]
	}, {
		"children": [27, 31],
		"name": "Armature_Tail6",
		"rotation": [0, -0.026898711919784546, 0, 0.9996382594108582],
		"scale": [1, 0.9999999403953552, 1],
		"translation": [0.02426367998123169, 6.868663787841797, 0.40794533491134644]
	}, {
		"children": [28],
		"name": "Armature_TailA01",
		"rotation": [0, -0.6659598350524902, 0, 0.745987594127655],
		"scale": [0.9999998211860657, 0.9999999403953552, 0.9999998211860657],
		"translation": [0.07660135626792908, 5.961479187011719, 0.6736109256744385]
	}, {
		"children": [29],
		"name": "Armature_TailA02",
		"rotation": [0, 2.2847757463750895e-8, 0, 1],
		"translation": [7.781929016113281, 0.0000457763671875, 0.00004620253457687795]
	}, {
		"children": [30],
		"name": "Armature_TailA03",
		"translation": [7.781900405883789, 0.000049591064453125, 0.00004655796874430962]
	}, {
		"name": "Armature_EndTailA03",
		"translation": [7.781930923461914, 0.000049591064453125, 0.000046558147005271167]
	}, {
		"name": "Armature_EndTail6",
		"scale": [0.9999999403953552, 0.9999999403953552, 0.9999999403953552],
		"translation": [0.07945764809846878, 6.184516906738281, 0.6987838745117188]
	}, {
		"children": [33],
		"name": "Armature_Spine1",
		"rotation": [0, 2.3841846541472478e-7, 0, 1],
		"translation": [-5.220002208261576e-11, 0.0000010728836059570312, -0.000014910693607816938]
	}, {
		"children": [34, 50, 66],
		"name": "Armature_Spine2",
		"rotation": [0, -0.0233138557523489, 0, 0.999728262424469],
		"translation": [4.700042724609375, 0.00001609325408935547, -1.1253723641857505e-7]
	}, {
		"children": [35],
		"name": "Armature_LShoulder",
		"rotation": [0, 0.7234010696411133, 0, 0.6904281377792358],
		"scale": [0.9999999403953552, 0.9999999403953552, 0.9999999403953552],
		"translation": [5.408242702484131, -0.23554611206054688, -3.281808853149414]
	}, {
		"children": [36],
		"name": "Armature_LArm",
		"translation": [5.199999809265137, 3.5762786865234375e-7, 0.0000057220458984375]
	}, {
		"children": [37],
		"name": "Armature_LForeArm",
		"translation": [6.299980163574219, 0, 0.0000019073486328125]
	}, {
		"children": [38, 39, 41, 44, 47],
		"name": "Armature_LHand",
		"translation": [5.489997863769531, -2.384185791015625e-7, -0.0000019073486328125]
	}, {
		"name": "Armature_EndLHand",
		"translation": [5.577360153198242, 0, 0]
	}, {
		"children": [40],
		"name": "Armature_LFingerA",
		"rotation": [0, 0.785408079624176, 0, 0.6189785003662109],
		"translation": [1.838724136352539, -1.3960800170898438, -1.582376480102539]
	}, {
		"name": "Armature_EndLFingerA",
		"translation": [1.66798734664917, -1.6734216213226318, 1.9725470542907715]
	}, {
		"children": [42],
		"name": "Armature_LFingerB1",
		"rotation": [0, -0.26080450415611267, 0, 0.9653916358947754],
		"translation": [2.7987842559814453, -1.4904613494873047, 0.8353691101074219]
	}, {
		"children": [43],
		"name": "Armature_LFingerB2",
		"rotation": [0, 0.11091086268424988, 0, 0.9938303828239441],
		"scale": [0.9999998807907104, 1, 0.9999998807907104],
		"translation": [1.8823165893554688, -0.45341187715530396, -0.40258121490478516]
	}, {
		"name": "Armature_EndLFingerB2",
		"scale": [0.9999999403953552, 1, 0.9999999403953552],
		"translation": [1.5729389190673828, -0.5200124979019165, -0.495943546295166]
	}, {
		"children": [45],
		"name": "Armature_LFingerC1",
		"rotation": [0, -0.12435819208621979, 0, 0.992237389087677],
		"translation": [3.2548751831054688, 0.13386690616607666, 0.8401985168457031]
	}, {
		"children": [46],
		"name": "Armature_LFingerC2",
		"rotation": [0, 0.12435819208621979, 0, 0.992237389087677],
		"translation": [1.9705324172973633, 0.1175234317779541, 0.11733770370483398]
	}, {
		"name": "Armature_EndLFingerC2",
		"translation": [1.5880794525146484, 1.1920928955078125e-7, 0]
	}, {
		"children": [48],
		"name": "Armature_LFingerD1",
		"rotation": [0, 0.0007292921654880047, 0, 0.9999997615814209],
		"translation": [3.125020980834961, 2.220194101333618, 0.8388519287109375]
	}, {
		"children": [49],
		"name": "Armature_LFingerD2",
		"rotation": [0, 0.1254754215478897, 0, 0.9920967221260071],
		"translation": [1.7904651165008545, 0.5846586227416992, 0.6026884317398071]
	}, {
		"name": "Armature_EndLFingerD2",
		"rotation": [0, 7.450580596923828e-9, 0, 1],
		"translation": [1.4646053314208984, 0.3912339210510254, 0.3787698745727539]
	}, {
		"children": [51],
		"name": "Armature_RShoulder",
		"rotation": [0, -0.6904307007789612, 0, 0.7233985066413879],
		"scale": [1, 0.9999999403953552, 1],
		"translation": [5.690371990203857, -0.2355557680130005, 2.763913154602051]
	}, {
		"children": [52],
		"name": "Armature_RArm",
		"rotation": [0, 2.881029104173649e-8, 0, 1],
		"translation": [5.199999809265137, -3.5762786865234375e-7, 0.0000024420842237304896]
	}, {
		"children": [53],
		"name": "Armature_RForeArm",
		"translation": [6.299939155578613, 1.1920928955078125e-7, -0.000001539512595627457]
	}, {
		"children": [54, 57, 60, 63, 64],
		"name": "Armature_RHand",
		"translation": [5.490004539489746, 3.5762786865234375e-7, -0.000005994865205138922]
	}, {
		"children": [55],
		"name": "Armature_RFingerB1",
		"rotation": [0, 0.03151160478591919, 0, 0.999503493309021],
		"translation": [2.7989420890808105, -1.4904420375823975, -0.8354482650756836]
	}, {
		"children": [56],
		"name": "Armature_RFingerB2",
		"rotation": [0, -0.1831924021244049, 0, 0.9830771088600159],
		"translation": [1.8630414009094238, -0.45343953371047974, -0.48365461826324463]
	}, {
		"name": "Armature_EndRFingerB2",
		"rotation": [0, -1.4901161193847656e-8, 0, 1],
		"translation": [1.5730113983154297, -0.520037829875946, -0.4959721565246582]
	}, {
		"children": [58],
		"name": "Armature_RFingerC1",
		"rotation": [0, 0.18310993909835815, 0, 0.9830925464630127],
		"translation": [3.254960536956787, 0.13388776779174805, -0.840258002281189]
	}, {
		"children": [59],
		"name": "Armature_RFingerC2",
		"rotation": [0, -0.18310993909835815, 0, 0.9830925464630127],
		"translation": [1.9704618453979492, 0.11751186847686768, 0.11723899841308594]
	}, {
		"name": "Armature_EndRFingerC2",
		"rotation": [0, -9.920313459588215e-10, 0, 1],
		"translation": [1.5880995988845825, 1.1920928955078125e-7, 0.000001868116669356823]
	}, {
		"children": [61],
		"name": "Armature_RFingerD1",
		"rotation": [0, 0.2958160936832428, 0, 0.9552450180053711],
		"scale": [0.9999999403953552, 1, 0.9999999403953552],
		"translation": [3.1250109672546387, 2.220203399658203, -0.8388838171958923]
	}, {
		"children": [62],
		"name": "Armature_RFingerD2",
		"rotation": [0, -0.17289966344833374, 0, 0.9849395155906677],
		"translation": [1.8170032501220703, 0.5846905708312988, 0.5173931121826172]
	}, {
		"name": "Armature_EndRFingerD2",
		"rotation": [0, -2.2351741790771484e-8, 0, 1],
		"translation": [1.4645957946777344, 0.39123106002807617, 0.3787727355957031]
	}, {
		"name": "Armature_EndRHand",
		"translation": [5.577400207519531, 0, 0.0000022837775759398937]
	}, {
		"children": [65],
		"name": "Armature_RFingerA",
		"rotation": [0, -0.2790329158306122, 0, 0.9602816104888916],
		"translation": [1.838733196258545, -1.3960994482040405, 1.582433819770813]
	}, {
		"name": "Armature_EndRFingerA",
		"rotation": [0, -1.4901161193847656e-8, 0, 1],
		"translation": [2.4062652587890625, -1.673370361328125, 0.9395532608032227]
	}, {
		"children": [67],
		"name": "Armature_Neck",
		"rotation": [0, 0.0233138557523489, 0, 0.9997282028198242],
		"scale": [0.9999999403953552, 0.9999999403953552, 0.9999999403953552],
		"translation": [8.9901704788208, -0.42002594470977783, -0.41953349113464355]
	}, {
		"children": [68, 69],
		"name": "Armature_Head",
		"rotation": [0, -1.366743163089268e-9, 0, 1],
		"translation": [3.6000022888183594, 0, -7.636117516085505e-8]
	}, {
		"name": "Armature_EndHead",
		"translation": [22.285400390625, 0, -5.335969035513699e-7]
	}, {
		"children": [70],
		"name": "Armature_Jaw",
		"rotation": [0, -0.854912281036377, 0, 0.5187726616859436],
		"translation": [5.250270843505859, -5.210014820098877, 7.024027581792325e-7]
	}, {
		"name": "Armature_EndJaw",
		"rotation": [0, -5.960464477539063e-8, 0, 1],
		"translation": [3.1905763149261475, -13.273579597473145, 6.129064559936523]
	}, {
		"name": "Armature_pm0004_00_FireAStenSkin"
	}, {
		"name": "Armature_pm0004_00_FireCore1Skin"
	}, {
		"name": "Armature_pm0004_00_FireCore2Skin"
	}, {
		"name": "Armature_pm0004_00_FireCore3Skin"
	}, {
		"name": "Armature_pm0004_00_Skin"
	}],
	"samplers": [{}],
	"scene": 0,
	"scenes": [{
		"name": "Scene",
		"nodes": [0, 3, 1]
	}],
	"skins": [{
		"inverseBindMatrices": 0,
		"joints": [4, 5, 6, 7, 8, 9, 10, 11, 12, 13, 14, 15, 16, 17, 18, 19, 20, 21, 22, 23, 24, 25, 26, 27, 28, 29, 30, 31, 32, 33, 34, 35, 36, 37, 38, 39, 40, 41, 42, 43, 44, 45, 46, 47, 48, 49, 50, 51, 52, 53, 54, 55, 56, 57, 58, 59, 60, 61, 62, 63, 64, 65, 66, 67, 68, 69, 70, 71, 72, 73, 74, 75],
		"skeleton": 0
	}],
	"textures": [{
		"sampler": 0,
		"source": 0
	}, {
		"sampler": 0,
		"source": 1
	}, {
		"sampler": 0,
		"source": 2
	}, {
		"sampler": 0,
		"source": 3
	}],
	"extensions": {
        "KHR_techniques_webgl": {
            "programs": [
                {	
                	"name": "fireCore",
                    "fragmentShader": 0,
                    "vertexShader": 1
                },
                {
                    "name": "fireSten",
                    "fragmentShader": 2,
                    "vertexShader": 3
                }
            ],
            "shaders": [
                {
                    "type": 35632,
                    "uri": "../../fx/fireCoreFS.glsl"
                },
                {
                    "type": 35633,
                    "uri": "../../fx/fireCoreVS.glsl"
                },
                {
                    "type": 35632,
                    "uri": "../../fx/fireStenFS.glsl"
                },
                {
                    "type": 35633,
                    "uri": "../../fx/fireStenVS.glsl"
                }
            ],
            "techniques": [
                {
                    "program": 0,
                    "attributes": {
                        "a_position": {
                            "semantic": "POSITION"
                        },
                        "a_texcoord0": {
                            "semantic": "TEXCOORD_0"
                        }
                    },
                    "uniforms": {                   
                        "u_time": {
                            "type": 5126,
                            "semantic": "TIME"
                        },
                        "u_modelViewProjectionMatrix": {
                            "semantic": "MODELVIEWPROJECTION",
                            "type": 35676
                        },
                        "u_fireCoreTexture": {
                            "type": 35678
                        }
                    }
                },
                {
                    "program": 1,
                    "attributes": {
                        "a_position": {
                            "semantic": "POSITION"
                        },
                        "a_texcoord0": {
                            "semantic": "TEXCOORD_0"
                        }
                    },
                    "uniforms": {                   
                        "u_modelViewProjectionMatrix": {
                            "semantic": "MODELVIEWPROJECTION",
                            "type": 35676
                        },
                        "u_fireStenTexture": {
                            "type": 35678
                        }
                    }
                }
            ]
        }
    },
	"extensionsUsed": ["ALI_amc_mesh_compression", "KHR_techniques_webgl"],
	"extensionsRequired": ["ALI_amc_mesh_compression", "KHR_techniques_webgl"]
}