{"accessors":[{"bufferView":0,"componentType":5126,"count":35,"max":[1,0,0.01000998169183731,0,0.019851868972182274,9.660203821986831e-36,1,0,0,-1,1.2513142405023027e-28,0,58.691978454589844,6.429420471191406,13.124757766723633,1],"min":[0.9998029470443726,-4.764560328305439e-22,-0.019851868972182274,0,-0.01000998169183731,-9.313225746154785e-10,0.9998029470443726,0,-1.9874498537265754e-23,-1,-9.313225746154785e-10,0,-58.6915283203125,-108.3639907836914,-1.271270990371704,1],"type":"MAT4","byteOffset":0},{"bufferView":1,"componentType":5126,"count":35,"max":[1,0,0.01000998169183731,0,0.019851868972182274,9.660203821986831e-36,1,0,0,-1,1.2513142405023027e-28,0,58.691978454589844,6.429420471191406,13.124757766723633,1],"min":[0.9998029470443726,-4.764560328305439e-22,-0.019851868972182274,0,-0.01000998169183731,-9.313225746154785e-10,0.9998029470443726,0,-1.9874498537265754e-23,-1,-9.313225746154785e-10,0,-58.6915283203125,-108.3639907836914,-1.271270990371704,1],"type":"MAT4","byteOffset":0},{"bufferView":2,"componentType":5126,"count":35,"max":[1,0,0.01000998169183731,0,0.019851868972182274,9.660203821986831e-36,1,0,0,-1,1.2513142405023027e-28,0,58.691978454589844,6.429420471191406,13.124757766723633,1],"min":[0.9998029470443726,-4.764560328305439e-22,-0.019851868972182274,0,-0.01000998169183731,-9.313225746154785e-10,0.9998029470443726,0,-1.9874498537265754e-23,-1,-9.313225746154785e-10,0,-58.6915283203125,-108.3639907836914,-1.271270990371704,1],"type":"MAT4","byteOffset":0},{"bufferView":3,"componentType":5126,"count":35,"max":[1,0,0.01000998169183731,0,0.019851868972182274,9.660203821986831e-36,1,0,0,-1,1.2513142405023027e-28,0,58.691978454589844,6.429420471191406,13.124757766723633,1],"min":[0.9998029470443726,-4.764560328305439e-22,-0.019851868972182274,0,-0.01000998169183731,-9.313225746154785e-10,0.9998029470443726,0,-1.9874498537265754e-23,-1,-9.313225746154785e-10,0,-58.6915283203125,-108.3639907836914,-1.271270990371704,1],"type":"MAT4","byteOffset":0},{"bufferView":4,"componentType":5126,"count":35,"max":[1,0,0.01000998169183731,0,0.019851868972182274,9.660203821986831e-36,1,0,0,-1,1.2513142405023027e-28,0,58.691978454589844,6.429420471191406,13.124757766723633,1],"min":[0.9998029470443726,-4.764560328305439e-22,-0.019851868972182274,0,-0.01000998169183731,-9.313225746154785e-10,0.9998029470443726,0,-1.9874498537265754e-23,-1,-9.313225746154785e-10,0,-58.6915283203125,-108.3639907836914,-1.271270990371704,1],"type":"MAT4","byteOffset":0},{"bufferView":5,"componentType":5126,"count":35,"max":[1,0,0.01000998169183731,0,0.019851868972182274,9.660203821986831e-36,1,0,0,-1,1.2513142405023027e-28,0,58.691978454589844,6.429420471191406,13.124757766723633,1],"min":[0.9998029470443726,-4.764560328305439e-22,-0.019851868972182274,0,-0.01000998169183731,-9.313225746154785e-10,0.9998029470443726,0,-1.9874498537265754e-23,-1,-9.313225746154785e-10,0,-58.6915283203125,-108.3639907836914,-1.271270990371704,1],"type":"MAT4","byteOffset":0},{"bufferView":6,"componentType":5126,"count":35,"max":[1,0,0.01000998169183731,0,0.019851868972182274,9.660203821986831e-36,1,0,0,-1,1.2513142405023027e-28,0,58.691978454589844,6.429420471191406,13.124757766723633,1],"min":[0.9998029470443726,-4.764560328305439e-22,-0.019851868972182274,0,-0.01000998169183731,-9.313225746154785e-10,0.9998029470443726,0,-1.9874498537265754e-23,-1,-9.313225746154785e-10,0,-58.6915283203125,-108.3639907836914,-1.271270990371704,1],"type":"MAT4","byteOffset":0}],"asset":{"generator":"Khronos Blender glTF 2.0 exporter","version":"2.0"},"bufferViews":[{"buffer":0,"byteLength":2240,"byteOffset":0},{"buffer":0,"byteLength":2240,"byteOffset":2240},{"buffer":0,"byteLength":2240,"byteOffset":4480},{"buffer":0,"byteLength":2240,"byteOffset":6720},{"buffer":0,"byteLength":2240,"byteOffset":8960},{"buffer":0,"byteLength":2240,"byteOffset":11200},{"buffer":0,"byteLength":2240,"byteOffset":13440},{"buffer":0,"byteOffset":15680,"byteLength":17387},{"buffer":0,"byteOffset":33067,"byteLength":8383},{"buffer":0,"byteOffset":41450,"byteLength":17387},{"buffer":0,"byteOffset":58837,"byteLength":21815},{"buffer":0,"byteOffset":80652,"byteLength":17387},{"buffer":0,"byteOffset":98039,"byteLength":22775},{"buffer":0,"byteOffset":120814,"byteLength":17003}],"buffers":[{"byteLength":137817,"uri":"buffer.bin"}],"images":[{"name":"pm0121_00_BodyA1","uri":"pm0121_00_BodyA1.png"},{"name":"pm0121_00_BodyB1","uri":"pm0121_00_BodyB1.png"}],"materials":[{"name":"BodyA00_003","pbrMetallicRoughness":{"baseColorFactor":[0.6400000190734865,0.6400000190734865,0.6400000190734865,1],"baseColorTexture":{"index":0},"metallicFactor":0}},{"name":"BodyA01_003","pbrMetallicRoughness":{"baseColorFactor":[0.6400000190734865,0.6400000190734865,0.6400000190734865,1],"baseColorTexture":{"index":0},"metallicFactor":0}},{"name":"BodyANutreyVco_003","pbrMetallicRoughness":{"baseColorFactor":[0.6400000190734865,0.6400000190734865,0.6400000190734865,1],"baseColorTexture":{"index":0},"metallicFactor":0}},{"name":"BodyB00_003","pbrMetallicRoughness":{"baseColorFactor":[0.6400000190734865,0.6400000190734865,0.6400000190734865,1],"baseColorTexture":{"index":3},"metallicFactor":0}},{"name":"BodyB01_003","pbrMetallicRoughness":{"baseColorFactor":[0.6400000190734865,0.6400000190734865,0.6400000190734865,1],"baseColorTexture":{"index":3},"metallicFactor":0}},{"name":"BodyBHitodeman_003","pbrMetallicRoughness":{"baseColorFactor":[0.6400000190734865,0.6400000190734865,0.6400000190734865,1],"baseColorTexture":{"index":3},"metallicFactor":0}},{"name":"BodyBNutreyVco_003","pbrMetallicRoughness":{"baseColorFactor":[0.6400000190734865,0.6400000190734865,0.6400000190734865,1],"baseColorTexture":{"index":3},"metallicFactor":0}}],"meshes":[{"name":"mesh_0_pm0121_00_Skin.004","primitives":[{"material":1,"extensions":{"ALI_amc_mesh_compression":{"bufferView":7}}}]},{"name":"mesh_2_pm0121_00_Skin.004","primitives":[{"material":5,"extensions":{"ALI_amc_mesh_compression":{"bufferView":8}}}]},{"name":"mesh_5_pm0121_00_Skin.004","primitives":[{"material":4,"extensions":{"ALI_amc_mesh_compression":{"bufferView":9}}}]},{"name":"mesh_4_pm0121_00_Skin.004","primitives":[{"material":6,"extensions":{"ALI_amc_mesh_compression":{"bufferView":10}}}]},{"name":"mesh_1_pm0121_00_Skin.004","primitives":[{"material":3,"extensions":{"ALI_amc_mesh_compression":{"bufferView":11}}}]},{"name":"mesh_3_pm0121_00_Skin.004","primitives":[{"material":2,"extensions":{"ALI_amc_mesh_compression":{"bufferView":12}}}]},{"name":"mesh_6_pm0121_00_Skin.004","primitives":[{"material":0,"extensions":{"ALI_amc_mesh_compression":{"bufferView":13}}}]}],"nodes":[{"children":[3,4,5,6,7,8,9,10],"name":"Armature","rotation":[0.7071068286895752,0,0,0.7071067094802856]},{"name":"Camera","rotation":[0.483536034822464,0.33687159419059753,-0.20870360732078552,0.7804827094078064],"translation":[7.481131553649902,5.34366512298584,6.5076398849487305]},{"name":"Lamp","rotation":[0.16907575726509094,0.7558802962303162,-0.27217137813568115,0.570947527885437],"scale":[1,1,0.9999999403953552],"translation":[4.076245307922363,5.903861999511719,-1.0054539442062378]},{"mesh":0,"name":"mesh_0_pm0121_00_Skin","skin":0},{"mesh":4,"name":"mesh_1_pm0121_00_Skin","skin":1},{"mesh":1,"name":"mesh_2_pm0121_00_Skin","skin":2},{"mesh":5,"name":"mesh_3_pm0121_00_Skin","skin":3},{"mesh":3,"name":"mesh_4_pm0121_00_Skin","skin":4},{"mesh":2,"name":"mesh_5_pm0121_00_Skin","skin":5},{"mesh":6,"name":"mesh_6_pm0121_00_Skin","skin":6},{"children":[11,44],"name":"Armature_pm0121_00","rotation":[-0.7071068286895752,0,0,0.7071068286895752]},{"children":[12],"name":"Armature_Origin","rotation":[0,-3.529481151787195e-9,0,1]},{"children":[13,24,28,32,36,40],"name":"Armature_Waist","rotation":[0,8.498998482764364e-8,0,1],"translation":[0.000029971830372232944,48.678611755371094,1.1168898344039917]},{"children":[14,16,18,20,22],"name":"Armature_Feeler","rotation":[0,-1.6292098337089556e-7,0,1],"translation":[-0.0000436469963460695,5.811100006103516,-13.846990585327148]},{"children":[15],"name":"Armature_LTailA","rotation":[0,-0.00252340966835618,0,0.9999969005584717],"scale":[0.9999999403953552,1,0.9999999403953552],"translation":[10.482771873474121,14.468181610107422,-0.00007132608880056068]},{"name":"Armature_EndLTailA","rotation":[0,-1.5832483768463135e-8,0,1],"translation":[26.518436431884766,35.85242462158203,0.22506120800971985]},{"children":[17],"name":"Armature_LTailB","rotation":[0,8.079906166358342e-8,0,1],"translation":[17.949506759643555,-5.874813079833984,-0.0000019706740204128437]},{"name":"Armature_EndLTailB","rotation":[0,-2.430126144759015e-8,0,1],"translation":[40.742034912109375,-13.05642318725586,-7.763900811141866e-8]},{"children":[19],"name":"Armature_RTailA","rotation":[0,-0.009926311671733856,0,0.9999507665634155],"translation":[-10.482829093933105,14.468059539794922,0.000027457081159809604]},{"name":"Armature_EndRTailA","rotation":[0,-3.073364496231079e-8,0,1],"translation":[-26.5051326751709,35.853424072265625,0.8852659463882446]},{"children":[21],"name":"Armature_RTailB","rotation":[0,4.6145214582793415e-7,0,1],"translation":[-17.94999122619629,-5.874797821044922,0.000007692803592362907]},{"name":"Armature_EndRTailB","rotation":[0,-4.483142959088582e-7,0,1],"translation":[-40.74197006225586,-13.056594848632812,-0.0001371113321511075]},{"children":[23],"name":"Armature_Tail","rotation":[0,0.005002067890018225,0,0.9999874830245972],"scale":[0.9999999403953552,1,0.9999999403953552],"translation":[0.000021895826648687944,-21.435009002685547,-0.00005435943603515625]},{"name":"Armature_EndTail","rotation":[0,0.000003066379576921463,0,1],"translation":[0.003993706777691841,-39.48412322998047,-0.39523938298225403]},{"children":[25],"name":"Armature_Head1","rotation":[0,-8.146025010091762e-8,0,1],"translation":[-0.00008064087887760252,27.27069854736328,2.3841032259497297e-7]},{"children":[26],"name":"Armature_Head2","rotation":[-4.656612873077393e-10,-1.0670040155244531e-14,4.9686246343164384e-24,1],"translation":[-0.00003332331471028738,10.536102294921875,0]},{"children":[27],"name":"Armature_Head3","rotation":[4.656612873077393e-10,-2.0952206983282373e-15,-9.756631675773474e-25,1],"translation":[-0.000024269007553812116,8.089996337890625,-2.695476553071785e-7]},{"name":"Armature_EndHead3","rotation":[-2.4150509554967078e-36,-0.000003148039922962198,1.520548963638859e-41,1],"translation":[-0.00004136608185945079,13.788581848144531,0]},{"children":[29],"name":"Armature_LArm","rotation":[0,-0.0010185993742197752,0,0.9999995827674866],"translation":[27.258296966552734,7.904033660888672,-0.056920379400253296]},{"children":[30],"name":"Armature_LForeArm","rotation":[0,-4.0745362639427185e-9,0,1],"translation":[8.91487979888916,3.1854591369628906,0.0011211410164833069]},{"children":[31],"name":"Armature_LHand","rotation":[0,6.51925802230835e-9,0,1],"translation":[7.76131534576416,2.7732467651367188,0.0009747371077537537]},{"name":"Armature_EndLHand","rotation":[0,1.792795956134796e-8,0,1],"translation":[12.76138687133789,4.559864044189453,0.0016050934791564941]},{"children":[33],"name":"Armature_LLeg","rotation":[0,-0.0010569444857537746,0,0.999999463558197],"translation":[16.267568588256836,-22.989713668823242,0.013067392632365227]},{"children":[34],"name":"Armature_LFoot","rotation":[0,-2.0954757928848267e-8,0,1],"translation":[5.82000732421875,-7.779607772827148,0.008238740265369415]},{"children":[35],"name":"Armature_LToe","rotation":[0,1.0128132998943329e-8,0,1],"translation":[4.869655609130859,-6.509359359741211,0.006891332566738129]},{"name":"Armature_EndLToe","rotation":[0,-1.0710209608078003e-8,0,1],"translation":[8.252476692199707,-11.031128883361816,0.011680148541927338]},{"children":[37],"name":"Armature_RArm","rotation":[0,-0.001017698086798191,0,0.9999995827674866],"translation":[-27.258453369140625,7.903892517089844,-0.05692628026008606]},{"children":[38],"name":"Armature_RForeArm","rotation":[0,3.14321368932724e-9,0,1],"translation":[-8.9148530960083,3.185302734375,0.03742477297782898]},{"children":[39],"name":"Armature_RHand","rotation":[0,1.280568540096283e-9,0,1],"translation":[-7.761364936828613,2.773212432861328,0.03258029371500015]},{"name":"Armature_EndRHand","rotation":[0,-2.1187588572502136e-8,0,1],"translation":[-12.761232376098633,4.5597381591796875,0.05356805771589279]},{"children":[41],"name":"Armature_RLeg","rotation":[0,-0.0010574564803391695,0,0.9999995231628418],"scale":[0.9999999403953552,1,0.9999999403953552],"translation":[-16.267457962036133,-22.989837646484375,0.01306280680000782]},{"children":[42],"name":"Armature_RFoot","rotation":[0,9.313225746154785e-10,0,1],"translation":[-5.819832801818848,-7.779645919799805,0.032857369631528854]},{"children":[43],"name":"Armature_RToe","rotation":[0,5.51808625459671e-8,0,1],"translation":[-4.869560718536377,-6.509387969970703,0.027483467012643814]},{"name":"Armature_EndRToe","rotation":[0,-7.031485438346863e-8,0,1],"translation":[-8.252288818359375,-11.031206130981445,0.046573713421821594]},{"name":"Armature_pm0121_00_Skin"}],"samplers":[{}],"scene":0,"scenes":[{"name":"Scene","nodes":[0,2,1]}],"skins":[{"inverseBindMatrices":0,"joints":[10,11,12,13,14,15,16,17,18,19,20,21,22,23,24,25,26,27,28,29,30,31,32,33,34,35,36,37,38,39,40,41,42,43,44],"skeleton":0},{"inverseBindMatrices":1,"joints":[10,11,12,13,14,15,16,17,18,19,20,21,22,23,24,25,26,27,28,29,30,31,32,33,34,35,36,37,38,39,40,41,42,43,44],"skeleton":0},{"inverseBindMatrices":2,"joints":[10,11,12,13,14,15,16,17,18,19,20,21,22,23,24,25,26,27,28,29,30,31,32,33,34,35,36,37,38,39,40,41,42,43,44],"skeleton":0},{"inverseBindMatrices":3,"joints":[10,11,12,13,14,15,16,17,18,19,20,21,22,23,24,25,26,27,28,29,30,31,32,33,34,35,36,37,38,39,40,41,42,43,44],"skeleton":0},{"inverseBindMatrices":4,"joints":[10,11,12,13,14,15,16,17,18,19,20,21,22,23,24,25,26,27,28,29,30,31,32,33,34,35,36,37,38,39,40,41,42,43,44],"skeleton":0},{"inverseBindMatrices":5,"joints":[10,11,12,13,14,15,16,17,18,19,20,21,22,23,24,25,26,27,28,29,30,31,32,33,34,35,36,37,38,39,40,41,42,43,44],"skeleton":0},{"inverseBindMatrices":6,"joints":[10,11,12,13,14,15,16,17,18,19,20,21,22,23,24,25,26,27,28,29,30,31,32,33,34,35,36,37,38,39,40,41,42,43,44],"skeleton":0}],"textures":[{"sampler":0,"source":0},{"sampler":0,"source":0},{"sampler":0,"source":0},{"sampler":0,"source":1},{"sampler":0,"source":1},{"sampler":0,"source":1},{"sampler":0,"source":1}],"extensionsUsed":["ALI_amc_mesh_compression"],"extensionsRequired":["ALI_amc_mesh_compression"]}