{"accessors":[{"bufferView":0,"componentType":5126,"count":57,"max":[1.0000001192092896,5.684341886080802e-14,0.9999979138374329,0,0.9999998807907104,-1.1920926112907182e-7,0.9999998807907104,0,1.1920899822825959e-7,-0.9999998807907104,1.1920926112907182e-7,0,18.20377540588379,17.621337890625,49.05775451660156,1],"min":[-1.0000001192092896,-1.2786770340472708e-12,-1.0000001192092896,0,-0.9999976754188538,-1.1920927533992653e-7,-0.9999998807907104,0,-1.1920926112907182e-7,-1,-1.1920926112907182e-7,0,-54.80839157104492,-75.50540161132812,-50.88114929199219,1],"type":"MAT4","byteOffset":0}],"asset":{"generator":"Khronos Blender glTF 2.0 exporter","version":"2.0"},"bufferViews":[{"buffer":0,"byteLength":3648,"byteOffset":0},{"buffer":0,"byteOffset":3648,"byteLength":140833},{"buffer":0,"byteOffset":144481,"byteLength":2071}],"buffers":[{"byteLength":146552,"uri":"buffer.bin"}],"images":[{"name":"pm0056_00_Body1","uri":"pm0056_00_Body1.png"},{"name":"pm0056_00_Eye1","uri":"pm0056_00_Eye1.png"}],"materials":[{"alphaMode":"OPAQUE","name":"BodyDodo_Hair","pbrMetallicRoughness":{"baseColorFactor":[0.6400000190734865,0.6400000190734865,0.6400000190734865,1],"baseColorTexture":{"index":0},"metallicFactor":0}},{"alphaMode":"OPAQUE","name":"Eye","pbrMetallicRoughness":{"baseColorFactor":[0.6400000190734865,0.6400000190734865,0.6400000190734865,1],"baseColorTexture":{"index":1},"metallicFactor":0}}],"meshes":[{"name":"Mankey","primitives":[{"material":0,"extensions":{"ALI_amc_mesh_compression":{"bufferView":1}}},{"material":1,"extensions":{"ALI_amc_mesh_compression":{"bufferView":2}}}]}],"nodes":[{"children":[1,23],"name":"_01_pm0056_00","rotation":[0.7071068286895752,0,0,0.7071067094802856],"scale":[0.02539999783039093,0.02539999969303608,0.02539999969303608]},{"children":[26,27],"name":"_02_Origin"},{"name":"_04_EndWaist","translation":[25.230789184570312,-1.136870003519419e-13,-3.6379798479257985e-11]},{"name":"_08_EndLHand","rotation":[-0.000001928590108946082,-0.002552742138504982,-0.0007388570229522884,0.9999964833259583],"scale":[1,1,0.9999998807907104],"translation":[14.521400451660156,-0.02145683951675892,0.07413482666015625]},{"name":"_10_EndLFingerA","translation":[6.2138519287109375,2.3841900542720396e-7,0]},{"name":"_12_EndLFingerB","translation":[6.361220836639404,4.768369876728684e-7,-0.000007629389983776491]},{"name":"_14_EndLFingerC","translation":[6.463881969451904,8.940700269022273e-8,-0.000003814699994109105]},{"name":"_16_EndLEar","translation":[8.33034896850586,-0.0000019073499970545527,-0.000003814699994109105]},{"name":"_20_EndLFoot","translation":[5.313799858093262,9.536739753457368e-7,0.0000019073499970545527]},{"name":"_23_EndLToeA2","translation":[5.213589191436768,-4.768369876728684e-7,-0.000005722049991163658]},{"name":"_26_EndLToeB2","translation":[5.555379867553711,-0.0000019073499970545527,0.000003814699994109105]},{"name":"_28_EndLToeC","translation":[6.30263090133667,-4.768369876728684e-7,-0.000003814699994109105]},{"name":"_30_EndNose","translation":[3.6745340824127197,0,0]},{"name":"_34_EndRHand","rotation":[0.000001918594989547273,0.002552538178861141,-0.0007388571393676102,0.9999964833259583],"scale":[1,1,0.9999998807907104],"translation":[14.521400451660156,-0.02145683951675892,-0.07413482666015625]},{"name":"_36_EndRFingerA","translation":[6.2138671875,0,0.000022888199964654632]},{"name":"_38_EndRFingerB","translation":[6.361209869384766,-0.0000019073499970545527,-0.000007629389983776491]},{"name":"_40_EndRFingerC","translation":[6.46380615234375,-4.768369876728684e-7,0.00003433230085647665]},{"name":"_42_EndREar","translation":[8.330390930175781,-0.0000028610199933609692,0.000005722049991163658]},{"name":"_46_EndRFoot","translation":[5.313820838928223,-0.000037670099118258804,0.00008964540029410273]},{"name":"_49_EndRToeA2","translation":[5.21359920501709,-0.000014305100194178522,0.00003623959855758585]},{"name":"_52_EndRToeB2","translation":[5.555365085601807,0.00002670290086825844,-0.000028610200388357043]},{"name":"_54_EndRToeC","translation":[6.302640914916992,0.000051975301175843924,0.00008201599848689511]},{"name":"_59_EndTail4","translation":[13.933600425720215,0,-2.98022992950564e-8]},{"name":"_60_pm0056_00_Skin"},{"name":"Camera","rotation":[0.483536034822464,0.33687159419059753,-0.20870360732078552,0.7804827094078064],"translation":[7.481131553649902,5.34366512298584,6.5076398849487305]},{"name":"Lamp","rotation":[0.16907575726509094,0.7558802962303162,-0.27217137813568115,0.570947527885437],"scale":[1,1,0.9999999403953552],"translation":[4.076245307922363,5.903861999511719,-1.0054539442062378]},{"mesh":0,"name":"Mankey","rotation":[5.960464477539063e-8,0,0,1],"scale":[1.0000001192092896,1,1],"skin":0},{"children":[28,29,39,41,53,55,65,67,79],"name":"_02_Origin__03_Waist","rotation":[-0.5,-0.5000000596046448,0.5000000596046448,0.5],"scale":[1,0.9999999403953552,1],"translation":[-1.811109965951384e-15,29.57760238647461,0]},{"name":"_02_Origin__04_EndWaist","translation":[25.230789184570312,-2.384185791015625e-7,-0.00000110283644971787]},{"children":[30],"name":"_02_Origin__05_LArm","rotation":[0,0.7047739028930664,0,0.7094320058822632],"translation":[8.13248348236084,-1.6617506742477417,-13.254166603088379]},{"children":[31],"name":"_02_Origin__06_LForeArm","rotation":[0,-1.0477378964424133e-8,0,1],"translation":[13.140873908996582,-0.01941847801208496,-0.019421234726905823]},{"children":[32,33,35,37],"name":"_02_Origin__07_LHand","rotation":[0,9.313225746154785e-9,0,1],"translation":[12.329474449157715,-0.018219828605651855,-0.018218278884887695]},{"name":"_02_Origin__08_EndLHand","rotation":[0,0.003291598754003644,0,0.9999945759773254],"scale":[0.9999999403953552,1,0.9999999403953552],"translation":[14.52129077911377,-0.0000016689300537109375,-0.09559211134910583]},{"children":[34],"name":"_02_Origin__09_LFingerA","rotation":[0,0.06336616724729538,0,0.9979903697967529],"translation":[7.017963886260986,-4.76837158203125e-7,-0.04619660973548889]},{"name":"_02_Origin__10_EndLFingerA","rotation":[0,-3.725290298461914e-9,0,1],"translation":[6.213852405548096,-2.384185791015625e-7,0.0000019073486328125]},{"children":[36],"name":"_02_Origin__11_LFingerB","rotation":[0,0.11012859642505646,0,0.9939173460006714],"translation":[6.545259952545166,-3.489076614379883,-0.14588549733161926]},{"name":"_02_Origin__12_EndLFingerB","rotation":[0,7.450580596923828e-9,0,1],"translation":[6.353838920593262,-0.2158031463623047,-0.2175312042236328]},{"children":[38],"name":"_02_Origin__13_LFingerC","rotation":[0,0.17038407921791077,0,0.9853777289390564],"scale":[0.9999998807907104,1,0.9999998807907104],"translation":[6.4529194831848145,3.2092795372009277,-0.04541933536529541]},{"name":"_02_Origin__14_EndLFingerC","rotation":[0,-2.9802322387695312e-8,0,1],"translation":[6.4525556564331055,0.27226197719573975,0.26857948303222656]},{"children":[40],"name":"_02_Origin__15_LEar","rotation":[0,0.3460009694099426,0,0.9382341504096985],"translation":[14.439929962158203,-1.7457269430160522,-10.276247024536133]},{"name":"_02_Origin__16_EndLEar","rotation":[0,-2.9802322387695312e-8,0,1],"translation":[8.330350875854492,-5.960464477539062e-7,0.00000667572021484375]},{"children":[42],"name":"_02_Origin__17_LThigh","rotation":[0,0.9372467994689941,0,0.3486667573451996],"translation":[-7.539713382720947,-1.9983104467391968,-10.335927963256836]},{"children":[43],"name":"_02_Origin__18_LLeg","rotation":[0,0.34768834710121155,0,0.9376101493835449],"translation":[8.937895774841309,-1.5498156547546387,-1.4126977920532227]},{"children":[44,45,48,51],"name":"_02_Origin__19_LFoot","rotation":[0,-0.7660455107688904,0,0.6427863836288452],"translation":[8.473828315734863,5.744265556335449,4.556652545928955]},{"name":"_02_Origin__20_EndLFoot","rotation":[0,1.4901161193847656e-8,0,1],"translation":[1.0400893688201904,-4.947656631469727,-1.635643720626831]},{"children":[46],"name":"_02_Origin__21_LToeA1","rotation":[0,0.3765818774700165,0,0.926383376121521],"translation":[-0.09178584814071655,-2.388432264328003,-3.758287191390991]},{"children":[47],"name":"_02_Origin__22_LToeA2","rotation":[0,-0.3232473134994507,0,0.9463145136833191],"translation":[1.6263806819915771,-2.5336427688598633,-2.531487464904785]},{"name":"_02_Origin__23_EndLToeA2","rotation":[0,1.862645326866641e-8,0,1],"scale":[0.9999999403953552,0.9999999403953552,0.9999999403953552],"translation":[0.12944276630878448,-4.9258012771606445,-1.7033064365386963]},{"children":[49],"name":"_02_Origin__24_LToeB1","rotation":[0,0.0909460112452507,0,0.9958559274673462],"translation":[3.223299980163574,-2.1104581356048584,-2.5476725101470947]},{"children":[50],"name":"_02_Origin__25_LToeB2","rotation":[0,-0.1931912750005722,0,0.9811611175537109],"translation":[2.8559436798095703,-2.302736282348633,-1.3341898918151855]},{"name":"_02_Origin__26_EndLToeB2","rotation":[0,2.980232594040899e-8,0,1],"scale":[0.9999999403953552,0.9999999403953552,0.9999999403953552],"translation":[1.4517457485198975,-5.156706809997559,-1.4707330465316772]},{"children":[52],"name":"_02_Origin__27_LToeC","rotation":[0,-0.053195033222436905,0,0.9985841512680054],"translation":[0.5492748022079468,2.5400402545928955,-1.158078908920288]},{"name":"_02_Origin__28_EndLToeC","rotation":[0,-1.4901161193847656e-8,0,1],"translation":[-0.10896968841552734,6.110980033874512,-1.5385801792144775]},{"children":[54],"name":"_02_Origin__29_Nose","rotation":[0,0.7071068286895752,0,0.7071068286895752],"translation":[2.649139404296875,-13.946803092956543,0.000009674064131104387]},{"name":"_02_Origin__30_EndNose","rotation":[5.694857132714855e-26,2.0036999403422184e-12,-2.8421706042272218e-14,1],"translation":[0,-3.674534797668457,0]},{"children":[56],"name":"_02_Origin__31_RArm","rotation":[0,-0.705824077129364,0,0.7083872556686401],"translation":[8.132340431213379,-1.6617506742477417,13.254232406616211]},{"children":[57],"name":"_02_Origin__32_RForeArm","translation":[13.140865325927734,-0.019411325454711914,-0.019427746534347534]},{"children":[58,59,61,63],"name":"_02_Origin__33_RHand","translation":[12.329479217529297,-0.018221378326416016,-0.018288522958755493]},{"name":"_02_Origin__34_EndRHand","rotation":[0,-0.001813681097701192,0,0.9999984502792358],"translation":[14.521512985229492,-0.0000016689300537109375,0.05267550051212311]},{"children":[60],"name":"_02_Origin__35_RFingerA","rotation":[0,-0.06189146637916565,0,0.9980828762054443],"translation":[7.01805305480957,-7.152557373046875e-7,0.025461360812187195]},{"name":"_02_Origin__36_EndRFingerA","scale":[1,0.9999999403953552,1],"translation":[6.213869094848633,1.1920928955078125e-7,-0.000026226043701171875]},{"children":[62],"name":"_02_Origin__37_RFingerB","rotation":[0,-0.14232216775417328,0,0.9898204207420349],"scale":[0.9999999403953552,1,0.9999999403953552],"translation":[6.545683860778809,-3.4890761375427246,0.12655271589756012]},{"name":"_02_Origin__38_EndRFingerB","rotation":[0,1.4901161193847656e-8,0,1],"translation":[6.353951454162598,-0.21580028533935547,-0.21382427215576172]},{"children":[64],"name":"_02_Origin__39_RFingerC","rotation":[0,-0.12725919485092163,0,0.9918695092201233],"translation":[6.453047275543213,3.2092788219451904,0.026411697268486023]},{"name":"_02_Origin__40_EndRFingerC","rotation":[0,-1.4901161193847656e-8,0,1],"translation":[6.45219612121582,0.27226006984710693,0.27547168731689453]},{"children":[66],"name":"_02_Origin__41_REar","rotation":[0,-0.3460041880607605,0,0.938232958316803],"translation":[14.43985366821289,-1.7457283735275269,10.276352882385254]},{"name":"_02_Origin__42_EndREar","translation":[8.33039379119873,-2.384185791015625e-7,-0.00000476837158203125]},{"children":[68],"name":"_02_Origin__43_RThigh","rotation":[0,-0.9827525615692139,0,0.1849258989095688],"scale":[0.9999999403953552,1,0.9999999403953552],"translation":[-7.53975248336792,-1.9983104467391968,10.335866928100586]},{"children":[69],"name":"_02_Origin__44_RLeg","rotation":[0,0.34768834710121155,0,0.9376102685928345],"translation":[8.896866798400879,-1.5498192310333252,-1.6514744758605957]},{"children":[70,71,74,77],"name":"_02_Origin__45_RFoot","rotation":[0,-0.7660440802574158,0,0.6427881717681885],"scale":[1,0.9999999403953552,1],"translation":[8.012150764465332,5.744306564331055,5.3269219398498535]},{"name":"_02_Origin__46_EndRFoot","rotation":[0,-1.4901161193847656e-8,0,1],"scale":[1,0.9999999403953552,1],"translation":[0.3176567554473877,-4.947660446166992,-1.9121840000152588]},{"children":[72],"name":"_02_Origin__47_RToeA1","rotation":[0,0.08000923693180084,0,0.9967942237854004],"scale":[1,0.9999999403953552,1],"translation":[2.5775346755981445,-2.3884270191192627,-2.7366881370544434]},{"children":[73],"name":"_02_Origin__48_RToeA2","rotation":[0,-0.17833445966243744,0,0.9839699268341064],"translation":[2.6711134910583496,-2.533632516860962,-1.3852020502090454]},{"name":"_02_Origin__49_EndRToeA2","rotation":[0,-1.4901161193847656e-8,0,1],"translation":[0.9227977991104126,-4.92580509185791,-1.4375381469726562]},{"children":[75],"name":"_02_Origin__50_RToeB1","rotation":[0,0.43358486890792847,0,0.9011128544807434],"scale":[1,0.9999999403953552,1],"translation":[-0.6987209320068359,-2.110471487045288,-4.048727989196777]},{"children":[76],"name":"_02_Origin__51_RToeB2","rotation":[0,-0.35836297273635864,0,0.9335823059082031],"scale":[1,0.9999999403953552,1],"translation":[1.9731861352920532,-2.3027265071868896,-2.458324432373047]},{"name":"_02_Origin__52_EndRToeB2","rotation":[0,1.4901162970204496e-8,0,1],"scale":[0.9999999403953552,0.9999999403953552,0.9999999403953552],"translation":[-0.18700695037841797,-5.156711578369141,-2.0580270290374756]},{"children":[78],"name":"_02_Origin__53_RToeC","rotation":[0,-0.07671501487493515,0,0.9970530867576599],"scale":[1,0.9999999403953552,1],"translation":[0.36420202255249023,2.540045976638794,-1.2289669513702393]},{"name":"_02_Origin__54_EndRToeC","translation":[0.7953672409057617,6.110998153686523,-1.3215153217315674]},{"children":[80],"name":"_02_Origin__55_Tail1","rotation":[0,0.7071069478988647,0,0.7071066498756409],"translation":[-4.376611709594727,14.352102279663086,-0.000015982413970050402]},{"children":[81],"name":"_02_Origin__56_Tail2","rotation":[0,7.450580596923828e-9,0,1],"translation":[0.0000336807788698934,13.968502044677734,0.000040054339478956535]},{"children":[82],"name":"_02_Origin__57_Tail3","rotation":[-9.526785325408837e-21,1.4901004874445789e-8,6.393384628135268e-13,1],"translation":[0.000039811551687307656,16.639699935913086,0.000028610262233996764]},{"children":[83],"name":"_02_Origin__58_Tail4","rotation":[-4.0389678347315804e-27,0,-6.393384628135268e-13,1],"translation":[0.00003958409797633067,16.611499786376953,0.0000381470235879533]},{"name":"_02_Origin__59_EndTail4","rotation":[1.5422485882788412e-33,0,0,1],"translation":[-2.9800503398291767e-8,13.933597564697266,5.199041197556653e-11]}],"samplers":[{}],"scene":0,"scenes":[{"name":"Scene","nodes":[22,21,20,19,18,17,16,15,14,13,12,11,10,9,8,7,6,5,4,3,2,0,25,24]}],"skins":[{"inverseBindMatrices":0,"joints":[27,28,29,30,31,32,33,34,35,36,37,38,39,40,41,42,43,44,45,46,47,48,49,50,51,52,53,54,55,56,57,58,59,60,61,62,63,64,65,66,67,68,69,70,71,72,73,74,75,76,77,78,79,80,81,82,83],"skeleton":1}],"textures":[{"sampler":0,"source":0},{"sampler":0,"source":1}],"extensionsUsed":["ALI_amc_mesh_compression"],"extensionsRequired":["ALI_amc_mesh_compression"]}