{"accessors":[{"bufferView":0,"componentType":5126,"count":56,"max":[1,2.6212843451389745e-8,0.9997628927230835,0,0.9482518434524536,8.473051025248424e-7,1,0,0,-1,0,0,15.235189437866211,11.477334022521973,16.695465087890625,1],"min":[-0.9999891519546509,0,-0.9482518434524536,0,-0.9997628927230835,0,-0.9999891519546509,0,-3.552713678800501e-15,-1,-8.477104529447388e-7,0,-41.43358612060547,-29.12043571472168,-23.648818969726562,1],"type":"MAT4","byteOffset":0}],"asset":{"generator":"Khronos Blender glTF 2.0 exporter","version":"2.0"},"bufferViews":[{"buffer":0,"byteLength":3584,"byteOffset":0},{"buffer":0,"byteOffset":3584,"byteLength":133197},{"buffer":0,"byteOffset":136781,"byteLength":2571},{"buffer":0,"byteOffset":139352,"byteLength":1287}],"buffers":[{"byteLength":140639,"uri":"buffer.bin"}],"images":[{"name":"pm0133_00_Body1","uri":"pm0133_00_Body1.png"},{"name":"pm0133_00_Eye1","uri":"pm0133_00_Eye1.png"},{"name":"pm0133_00_Mouth1","uri":"pm0133_00_Mouth1.png"}],"materials":[{"alphaMode":"OPAQUE","name":"Material__12","pbrMetallicRoughness":{"baseColorFactor":[0.6400000190734865,0.6400000190734865,0.6400000190734865,1],"baseColorTexture":{"index":0},"metallicFactor":0}},{"alphaMode":"OPAQUE","name":"Material__13","pbrMetallicRoughness":{"baseColorFactor":[0.6400000190734865,0.6400000190734865,0.6400000190734865,1],"baseColorTexture":{"index":1},"metallicFactor":0}},{"alphaMode":"OPAQUE","name":"Material__14","pbrMetallicRoughness":{"baseColorFactor":[0.6400000190734865,0.6400000190734865,0.6400000190734865,1],"baseColorTexture":{"index":2},"metallicFactor":0}}],"meshes":[{"name":"Eevee","primitives":[{"material":0,"extensions":{"ALI_amc_mesh_compression":{"bufferView":1}}},{"material":1,"extensions":{"ALI_amc_mesh_compression":{"bufferView":2}}},{"material":2,"extensions":{"ALI_amc_mesh_compression":{"bufferView":3}}}]}],"nodes":[{"children":[2,4],"name":"Armature","scale":[0.02539999969303608,0.02539999969303608,0.02539999969303608]},{"name":"Camera","rotation":[0.483536034822464,0.33687159419059753,-0.20870360732078552,0.7804827094078064],"translation":[7.481131553649902,5.34366512298584,6.5076398849487305]},{"mesh":0,"name":"Eevee","skin":0},{"name":"Lamp","rotation":[0.16907575726509094,0.7558802962303162,-0.27217137813568115,0.570947527885437],"scale":[1,1,0.9999999403953552],"translation":[4.076245307922363,5.903861999511719,-1.0054539442062378]},{"children":[5,59],"name":"Armature_pm0133_00","rotation":[-0.7071068286895752,0,0,0.7071068286895752]},{"children":[6],"name":"Armature_Origin"},{"children":[7,25],"name":"Armature_Waist","rotation":[0,0.9999973773956299,0,-0.002330734394490719],"translation":[0,1.0800493955612183,13.090200424194336]},{"children":[8,14,20,24],"name":"Armature_Hips","rotation":[0,0.013132317923009396,0,0.9999138712882996],"scale":[0.9999999403953552,1,0.9999999403953552],"translation":[0.000011376258044037968,0.000012755393981933594,0.000033432359487051144]},{"children":[9],"name":"Armature_LThigh","rotation":[0,-0.7341305613517761,0,0.6790083050727844],"translation":[-3.5000181198120117,4.308557510375977,0.4639236629009247]},{"children":[10],"name":"Armature_LLeg","rotation":[0,0.35423922538757324,0,0.9351548552513123],"translation":[4.087414264678955,-0.1925969123840332,-0.19239157438278198]},{"children":[11,13],"name":"Armature_LFoot","rotation":[0,-0.9018247127532959,0,0.43210214376449585],"translation":[2.3115720748901367,2.3846373558044434,1.8584961891174316]},{"children":[12],"name":"Armature_LToe","rotation":[0,3.142304194625467e-8,0,1],"translation":[0.000054783398809377104,-2.3452296257019043,-3.586812973022461]},{"name":"Armature_EndLToe","translation":[0.000008650991730974056,-4.236919403076172,-0.00005931206396780908]},{"name":"Armature_EndLFoot","rotation":[0,3.1421222956851125e-8,0,1],"translation":[0.000009449938261241186,-4.805920124053955,-0.0000671605157549493]},{"children":[15],"name":"Armature_RThigh","rotation":[0,-0.7341305613517761,0,0.6790083050727844],"translation":[3.4999806880950928,4.308565139770508,0.4639306962490082]},{"children":[16],"name":"Armature_RLeg","rotation":[0,0.3542386591434479,0,0.9351550340652466],"translation":[4.087456226348877,-0.19259929656982422,-0.19239354133605957]},{"children":[17,18],"name":"Armature_RFoot","rotation":[0,-0.9013994336128235,0,0.43298855423927307],"translation":[2.3115949630737305,2.384645462036133,1.858494758605957]},{"name":"Armature_EndRFoot","rotation":[0,6.28642737865448e-9,0,1],"translation":[0.000009649433195590973,-4.8059306144714355,-0.00006700213998556137]},{"children":[19],"name":"Armature_RToe","rotation":[0,6.402842700481415e-9,0,1],"translation":[0.00006402097642421722,-2.3452301025390625,-3.58681321144104]},{"name":"Armature_EndRToe","rotation":[0,-1.1641532182693481e-10,0,1],"translation":[0.00000879727303981781,-4.23691987991333,-0.00005934387445449829]},{"children":[21],"name":"Armature_Tail1","rotation":[0,1.1734664440155029e-7,0,1],"translation":[0.0000067837536334991455,6.225676536560059,-1.5454634428024292]},{"children":[22],"name":"Armature_Tail2","translation":[-0.000007081776857376099,6.988129138946533,-0.00005741638597100973]},{"children":[23],"name":"Armature_Tail3","rotation":[0,-1.1920928955078125e-7,0,1],"translation":[-0.000006787478923797607,6.8401994705200195,-0.00006722705438733101]},{"name":"Armature_EndTail3","translation":[-0.00000799819827079773,7.986370086669922,-0.00007229996845126152]},{"name":"Armature_EndHips","rotation":[-4.238552264723694e-7,-1.862645149230957e-9,7.894919345045068e-16,1],"translation":[-0.000010896155799855478,9.976341247558594,-0.00009639358904678375]},{"children":[26],"name":"Armature_Spine1","rotation":[0,0.000034809112548828125,0,1],"translation":[-0.000004714977876574267,-5.960464477539062e-7,-0.000006697838216496166]},{"children":[27,49,54],"name":"Armature_Spine2","rotation":[0,0.26240450143814087,0,0.9649579524993896],"scale":[0.9999999403953552,1,0.9999999403953552],"translation":[0.0000740116520319134,-3.4667716026306152,-0.016483347862958908]},{"children":[28,31,34,43,46],"name":"Armature_Neck","rotation":[0,0.3484934866428375,0,0.9373112320899963],"translation":[0.87644362449646,-2.891674757003784,-1.476243019104004]},{"children":[29],"name":"Armature_FeelerA1","rotation":[0,-0.9895718097686768,0,0.14404039084911346],"translation":[-0.19487763941287994,-4.853198051452637,0.06524365395307541]},{"children":[30],"name":"Armature_FeelerA2","rotation":[0,-0.14981171488761902,0,0.9887145757675171],"translation":[4.177969455718994,0.14223003387451172,-0.14216607809066772]},{"name":"Armature_EndFeelerA2","rotation":[0,1.4901161193847656e-8,0,1],"translation":[4.592355251312256,1.6914091110229492,-1.5975102186203003]},{"children":[32],"name":"Armature_FeelerB1","rotation":[0,-0.5792142748832703,0,0.8151753544807434],"translation":[1.682065486907959,1.460139274597168,-0.563204824924469]},{"children":[33],"name":"Armature_FeelerB2","rotation":[0,1.5366822481155396e-8,0,1],"translation":[0.0005178344435989857,3.495558977127075,-0.04254474118351936]},{"name":"Armature_EndFeelerB2","translation":[0.0006912688259035349,4.666234016418457,-0.05679262429475784]},{"children":[35,37,40],"name":"Armature_Head","rotation":[0,-0.009694882668554783,0,0.999953031539917],"translation":[2.4039506912231445,-0.8488402366638184,-0.8049184679985046]},{"children":[36],"name":"Armature_Hair","rotation":[0,-0.05232948809862137,0,0.9986299872398376],"scale":[0.9999998807907104,1,0.9999998807907104],"translation":[11.00442886352539,-4.165446758270264,-3.923508644104004]},{"name":"Armature_EndHair","rotation":[0,1.4901162970204496e-8,0,1],"scale":[0.9999999403953552,1,0.9999999403953552],"translation":[2.227182626724243,-1.1846504211425781,-1.068156123161316]},{"children":[38],"name":"Armature_LEar1","rotation":[0,0.6718646883964539,0,0.7406738996505737],"translation":[5.422966003417969,-2.0494227409362793,-8.511907577514648]},{"children":[39],"name":"Armature_LEar2","rotation":[0,1.4901161193847656e-8,0,1],"translation":[6.489895820617676,1.0481696128845215,1.1246318817138672]},{"name":"Armature_EndLEar2","translation":[12.971620559692383,2.095034122467041,2.2478456497192383]},{"children":[41],"name":"Armature_REar1","rotation":[0,-0.23369239270687103,0,0.9723106622695923],"translation":[9.58489990234375,-2.0494227409362793,3.1611146926879883]},{"children":[42],"name":"Armature_REar2","translation":[6.516871452331543,1.0481023788452148,0.9525461196899414]},{"name":"Armature_EndREar2","translation":[13.026912689208984,2.0950775146484375,1.9040889739990234]},{"children":[44],"name":"Armature_LFeeler1","rotation":[0,-0.9851682782173157,0,0.1715909242630005],"translation":[-1.7220895290374756,-1.7892026901245117,-6.021683216094971]},{"children":[45],"name":"Armature_LFeeler2","rotation":[0,0.2032885104417801,0,0.9791189432144165],"scale":[0.9999999403953552,1,0.9999999403953552],"translation":[3.2326173782348633,1.1009526252746582,1.2380574941635132]},{"name":"Armature_EndLFeeler2","rotation":[0,-1.4901161193847656e-8,0,1],"translation":[4.573746204376221,1.3064613342285156,1.2690620422363281]},{"children":[47],"name":"Armature_RFeeler1","rotation":[0,-0.8947016596794128,0,0.44666415452957153],"translation":[2.2511205673217773,-1.789229393005371,5.844487190246582]},{"children":[48],"name":"Armature_RFeeler2","rotation":[0,-0.24594463407993317,0,0.969283938407898],"translation":[3.346177101135254,1.1009559631347656,0.8865118026733398]},{"name":"Armature_EndRFeeler2","translation":[4.578952312469482,1.3064708709716797,1.250246286392212]},{"children":[50],"name":"Armature_RShoulder","rotation":[0,-0.6205679774284363,0,0.7841526865959167],"translation":[2.2574572563171387,-2.446378469467163,0.7917877435684204]},{"children":[51],"name":"Armature_RArm","rotation":[0,-0.48637691140174866,0,0.8737491369247437],"translation":[2.289497137069702,0.6613726615905762,0.6372332572937012]},{"children":[52],"name":"Armature_RForeArm","rotation":[0,-0.08066567033529282,0,0.9967412352561951],"translation":[5.577249526977539,-1.4583635330200195,-1.4136615991592407]},{"children":[53],"name":"Armature_RHand","rotation":[0,-0.5484563708305359,0,0.8361791968345642],"scale":[0.9999998807907104,1,0.9999998807907104],"translation":[3.284837245941162,-1.5554804801940918,-1.4267230033874512]},{"name":"Armature_EndRHand","rotation":[0,3.644299795269035e-8,0,1],"translation":[0.000007793913027853705,-3.924440383911133,-0.000047053217713255435]},{"children":[55],"name":"Armature_LShoulder","rotation":[0,-0.9190482497215271,0,0.394145131111145],"translation":[-1.7759737968444824,-2.4463746547698975,-1.6027929782867432]},{"children":[56],"name":"Armature_LArm","rotation":[0,-0.011745339259505272,0,0.9999310374259949],"translation":[2.289374828338623,0.6614012718200684,0.6371791362762451]},{"children":[57],"name":"Armature_LForeArm","rotation":[0,-0.08066624402999878,0,0.9967411756515503],"translation":[5.577338218688965,-1.458404541015625,-1.4136950969696045]},{"children":[58],"name":"Armature_LHand","rotation":[0,-0.5484555959701538,0,0.8361796736717224],"translation":[3.284834861755371,-1.5554938316345215,-1.4267215728759766]},{"name":"Armature_EndLHand","rotation":[0,8.259576134150848e-9,0,1],"translation":[0.00001576353497512173,-3.9244208335876465,-0.000054993124649627134]},{"name":"Armature_pm0133_00_Skin"}],"samplers":[{}],"scene":0,"scenes":[{"name":"Scene","nodes":[0,3,1]}],"skins":[{"inverseBindMatrices":0,"joints":[4,5,6,7,8,9,10,11,12,13,14,15,16,17,18,19,20,21,22,23,24,25,26,27,28,29,30,31,32,33,34,35,36,37,38,39,40,41,42,43,44,45,46,47,48,49,50,51,52,53,54,55,56,57,58,59],"skeleton":0}],"textures":[{"sampler":0,"source":0},{"sampler":0,"source":1},{"sampler":0,"source":2}],"extensionsUsed":["ALI_amc_mesh_compression"],"extensionsRequired":["ALI_amc_mesh_compression"]}