{"accessors":[{"bufferView":0,"componentType":5126,"count":16,"max":[0.06636728346347809,1.0359659086134343e-7,0.9997537136077881,0,0.9999998807907104,-1.1920926112907182e-7,0.0663672685623169,0,9.770542419573758e-7,-0.9999998807907104,1.68805982525555e-7,0,53.243988037109375,7.509331703186035,12.166470527648926,1],"min":[-0.17493142187595367,-1.647485703415441e-7,-1.0000001192092896,0,-0.999753475189209,-9.901710882331827e-7,-0.1749313920736313,0,-1.1920926112907182e-7,-1,-2.3010028371572844e-7,0,-92.30989837646484,3.0961902141571045,-11.28246021270752,1],"type":"MAT4","byteOffset":0}],"asset":{"generator":"Khronos Blender glTF 2.0 exporter","version":"2.0"},"bufferViews":[{"buffer":0,"byteLength":1024,"byteOffset":0},{"buffer":0,"byteOffset":1024,"byteLength":3861},{"buffer":0,"byteOffset":4885,"byteLength":130529}],"buffers":[{"byteLength":135414,"uri":"buffer.bin"}],"images":[{"name":"pm0072_00_Body1","uri":"pm0072_00_Body1.png"},{"name":"pm0072_00_Eye1","uri":"pm0072_00_Eye1.png"}],"materials":[{"alphaMode":"OPAQUE","name":"BodyTattu00","pbrMetallicRoughness":{"baseColorFactor":[0.6400000190734865,0.6400000190734865,0.6400000190734865,1],"baseColorTexture":{"index":0},"metallicFactor":0}},{"alphaMode":"OPAQUE","name":"Eye","pbrMetallicRoughness":{"baseColorFactor":[0.6400000190734865,0.6400000190734865,0.6400000190734865,1],"baseColorTexture":{"index":1},"metallicFactor":0}}],"meshes":[{"name":"Tentacool","primitives":[{"material":1,"extensions":{"ALI_amc_mesh_compression":{"bufferView":1}}},{"material":0,"extensions":{"ALI_amc_mesh_compression":{"bufferView":2}}}]}],"nodes":[{"children":[1,5],"name":"_01_pm0072_00","rotation":[0.7071068286895752,0,0,0.7071067094802856],"scale":[0.02539999783039093,0.02539999969303608,0.02539999969303608]},{"children":[8,9],"name":"_02_Origin"},{"name":"_04_EndWaist","translation":[36.538089752197266,0,4.365570058229018e-11]},{"name":"_11_EndLFeeler6","translation":[9.60366153717041,4.768369876728684e-7,0]},{"name":"_18_EndRFeeler6","translation":[9.603673934936523,0.0000019073499970545527,0.0000753403000999242]},{"name":"_19_pm0072_00_Skin"},{"name":"Camera","rotation":[0.483536034822464,0.33687159419059753,-0.20870360732078552,0.7804827094078064],"translation":[7.481131553649902,5.34366512298584,6.5076398849487305]},{"name":"Lamp","rotation":[0.16907575726509094,0.7558802962303162,-0.27217137813568115,0.570947527885437],"scale":[1,1,0.9999999403953552],"translation":[4.076245307922363,5.903861999511719,-1.0054539442062378]},{"mesh":0,"name":"Tentacool","rotation":[5.960464477539063e-8,0,0,1],"scale":[1.0000001192092896,1,1],"skin":0},{"children":[10,11,18],"name":"_02_Origin__03_Waist","rotation":[-0.5,-0.5000000596046448,0.5000000596046448,0.5],"scale":[1,0.9999999403953552,1],"translation":[-3.2254099835860722e-15,55.77180862426758,3.0961899757385254]},{"name":"_02_Origin__04_EndWaist","translation":[36.538089752197266,-0.0000011920928955078125,-0.0000015971742186593474]},{"children":[12],"name":"_02_Origin__05_LFeeler1","rotation":[0,0.9994487166404724,0,0.03320124372839928],"translation":[-1.917080283164978,-4.413091659545898,-7.4133195877075195]},{"children":[13],"name":"_02_Origin__06_LFeeler2","rotation":[-1.1109433728506701e-7,-6.332993507385254e-8,-4.2905389818770345e-7,1],"scale":[1,0.9999999403953552,1],"translation":[9.12679386138916,-9.5367431640625e-7,-0.0000073909759521484375]},{"children":[14],"name":"_02_Origin__07_LFeeler3","rotation":[1.1109430175793022e-7,-3.725290298461914e-9,4.2905389818770345e-7,1],"translation":[11.048600196838379,0.000003995029146608431,4.772884949488798e-7]},{"children":[15],"name":"_02_Origin__08_LFeeler4","rotation":[-1.5286361333723348e-21,0.002901011146605015,-1.4558439365450808e-22,0.9999958276748657],"translation":[10.835500717163086,-0.000004291535333322827,0.000013113020941091236]},{"children":[16],"name":"_02_Origin__09_LFeeler5","rotation":[-1.2484585892319737e-21,0.04139282926917076,3.1790988457501114e-22,0.9991429448127747],"scale":[1,0.9999999403953552,1],"translation":[8.345766067504883,0.04803180694580078,0.0480310320854187]},{"children":[17],"name":"_02_Origin__10_LFeeler6","rotation":[-9.92667474597057e-23,0.01001008041203022,3.176532586562119e-22,0.9999499320983887],"scale":[1,0.9999999403953552,1],"translation":[7.718108177185059,0.6915402412414551,0.6887993812561035]},{"name":"_02_Origin__11_EndLFeeler6","rotation":[-3.282252670610414e-21,0,-3.1763735522036263e-22,1],"translation":[9.489948272705078,1.045008659362793,1.0388031005859375]},{"children":[19],"name":"_02_Origin__12_RFeeler1","rotation":[0,-0.999448835849762,0,0.033197637647390366],"translation":[-1.9171596765518188,-4.4131011962890625,7.413306713104248]},{"children":[20],"name":"_02_Origin__13_RFeeler2","rotation":[8.044762012104911e-8,2.9802322387695312e-8,-4.2905389818770345e-7,1],"scale":[1,0.9999999403953552,1],"translation":[9.126798629760742,-0.0000019073486328125,0.000007867813110351562]},{"children":[21],"name":"_02_Origin__14_RFeeler3","rotation":[-8.04476059101944e-8,0,4.290539266094129e-7,1],"scale":[1,0.9999999403953552,1],"translation":[11.048603057861328,0.000010866445336432662,-0.000008805371180642396]},{"children":[22],"name":"_02_Origin__15_RFeeler4","rotation":[5.293987474775586e-23,0.0028542247600853443,-3.3087366497084047e-23,0.9999959468841553],"scale":[1,0.9999999403953552,1],"translation":[10.83549690246582,4.7683653292551753e-7,-3.576274423267023e-7]},{"children":[23],"name":"_02_Origin__16_RFeeler5","rotation":[-5.8284537384905395e-22,0.041836928576231,5.298594422462077e-23,0.9991244673728943],"scale":[1,0.9999999403953552,1],"translation":[8.345734596252441,0.048029422760009766,0.04806828498840332]},{"children":[24],"name":"_02_Origin__17_RFeeler6","rotation":[-5.823643327799374e-22,0.010010125115513802,1.0588441955207063e-22,0.9999499320983887],"translation":[7.718118190765381,0.6915407180786133,0.6887987852096558]},{"name":"_02_Origin__18_EndRFeeler6","rotation":[7.411538793346107e-22,7.450580596923828e-9,-1.262177448353619e-29,1],"scale":[1,0.9999999403953552,1],"translation":[9.489968299865723,1.0450100898742676,1.0387316942214966]}],"samplers":[{}],"scene":0,"scenes":[{"name":"Scene","nodes":[4,3,2,0,7,6]}],"skins":[{"inverseBindMatrices":0,"joints":[9,10,11,12,13,14,15,16,17,18,19,20,21,22,23,24],"skeleton":1}],"textures":[{"sampler":0,"source":0},{"sampler":0,"source":1}],"extensionsUsed":["ALI_amc_mesh_compression"],"extensionsRequired":["ALI_amc_mesh_compression"]}