{"accessors":[{"bufferView":0,"componentType":5126,"count":29,"max":[0.0000036010524127050303,-1.0000001192092896,0.000003619990366132697,0,1.000000238418579,2.168404344971009e-19,0.8640052676200867,0,0.9947686195373535,0.000003619990366132697,1.0000001192092896,0,120.53402709960938,0.00022240982798393816,128.2496337890625,1],"min":[-0.000003127690206383704,-1.0000001192092896,-0.000003619990366132697,0,-1.000000238418579,2.168404344971009e-19,-0.9947687387466431,0,-0.8640052080154419,0.000003619990366132697,-1.0000001192092896,0,-209.91751098632812,-0.0007785010966472328,-79.04430389404297,1],"type":"MAT4","byteOffset":0}],"asset":{"generator":"Khronos Blender glTF 2.0 exporter","version":"2.0"},"bufferViews":[{"buffer":0,"byteLength":1856,"byteOffset":0},{"buffer":0,"byteOffset":1856,"byteLength":2071},{"buffer":0,"byteOffset":3927,"byteLength":70819},{"buffer":0,"byteOffset":74746,"byteLength":27683}],"buffers":[{"byteLength":102429,"uri":"buffer.bin"}],"images":[{"name":"pm0024_00_BodyA1","uri":"pm0024_00_BodyA1.png"},{"name":"pm0024_00_BodyB1","uri":"pm0024_00_BodyB1.png"},{"name":"pm0024_00_Eye1","uri":"pm0024_00_Eye1.png"}],"materials":[{"alphaMode":"OPAQUE","name":"BodyA","pbrMetallicRoughness":{"baseColorFactor":[0.6400000190734865,0.6400000190734865,0.6400000190734865,1],"baseColorTexture":{"index":0},"metallicFactor":0}},{"alphaMode":"OPAQUE","name":"BodyB","pbrMetallicRoughness":{"baseColorFactor":[0.6400000190734865,0.6400000190734865,0.6400000190734865,1],"baseColorTexture":{"index":1},"metallicFactor":0}},{"alphaMode":"OPAQUE","name":"Eye","pbrMetallicRoughness":{"baseColorFactor":[0.6400000190734865,0.6400000190734865,0.6400000190734865,1],"baseColorTexture":{"index":2},"metallicFactor":0}}],"meshes":[{"name":"Arbok","primitives":[{"material":2,"extensions":{"ALI_amc_mesh_compression":{"bufferView":1}}},{"material":0,"extensions":{"ALI_amc_mesh_compression":{"bufferView":2}}},{"material":1,"extensions":{"ALI_amc_mesh_compression":{"bufferView":3}}}]}],"nodes":[{"mesh":0,"name":"Arbok","rotation":[9.176390897147613e-11,-0.7071080803871155,-1.0209387639627384e-15,0.7071055173873901],"scale":[1,1.0000001192092896,1],"skin":0,"translation":[27.354799270629883,-0.18796102702617645,0.00009902410238282755]},{"name":"Camera","rotation":[0.483536034822464,0.33687159419059753,-0.20870360732078552,0.7804827094078064],"translation":[7.481131553649902,5.34366512298584,6.5076398849487305]},{"name":"EndHead","translation":[42.26982116699219,0.00001525879997643642,0.0000010000100019169622]},{"name":"EndTail11","translation":[15.686800003051758,0,2.9103799231711136e-11]},{"name":"EndTongue3","translation":[12.406599998474121,0,0.0000010000400152421207]},{"name":"EnvironmentAmbientLight","scale":[0.02539999969303608,0.02539999969303608,0.02539999969303608]},{"name":"Lamp","rotation":[0.16907575726509094,0.7558802962303162,-0.27217137813568115,0.570947527885437],"scale":[1,1,0.9999999403953552],"translation":[4.076245307922363,5.903861999511719,-1.0054539442062378]},{"children":[10],"name":"Origin"},{"children":[7,9],"name":"pm0024_00","rotation":[0.7071065902709961,0,0,0.7071069478988647],"scale":[0.02539999969303608,0.02539999969303608,0.02539999969303608]},{"name":"pm0024_00_Skin"},{"children":[0,11,28],"name":"Waist","rotation":[0,0.7071080803871155,0,0.7071055173873901],"scale":[1,0.9999999403953552,1],"translation":[0,0.18796098232269287,27.354799270629883]},{"children":[12],"name":"Waist_Spine1","rotation":[-0.5000001192092896,-0.4999999701976776,0.4999999701976776,0.5000001192092896],"translation":[27.16683006286621,-27.54276466369629,0.00010158226359635592]},{"children":[13],"name":"Waist_Spine2","translation":[16.760103225708008,0.0000629425048828125,4.2984220272046514e-7]},{"children":[14],"name":"Waist_Spine3","translation":[16.796300888061523,0.0000629425048828125,0.0000018877805132433423]},{"children":[15],"name":"Waist_Spine4","rotation":[0,0.0061534857377409935,0,0.999981164932251],"scale":[0.9999999403953552,1,0.9999999403953552],"translation":[16.590700149536133,0.00006198883056640625,-5.335200512490701e-7]},{"children":[16],"name":"Waist_Spine5","rotation":[0,0.11503777652978897,0,0.993361234664917],"translation":[15.101693153381348,0.000056266777392011136,9.5367431640625e-7]},{"children":[17],"name":"Waist_Spine6","rotation":[0,0.05197708308696747,0,0.9986482858657837],"translation":[19.48331642150879,0.00005245208740234375,0.0000095367431640625]},{"children":[18],"name":"Waist_Spine7","rotation":[0,-0.15157750248908997,0,0.9884454011917114],"translation":[21.37942123413086,0.00004863737558480352,0.0000019073486328125]},{"children":[19],"name":"Waist_Spine8","rotation":[0,-0.16782009601593018,0,0.9858176708221436],"translation":[18.33780288696289,0.000064849853515625,0.000011444091796875]},{"children":[20],"name":"Waist_Spine9","rotation":[0,-0.27869707345962524,0,0.9603790640830994],"translation":[18.813297271728516,0.00008773800800554454,-0.000019073486328125]},{"children":[21],"name":"Waist_Neck","rotation":[0,-0.2997775673866272,0,0.9540091156959534],"translation":[19.20288848876953,0.00010204315185546875,0.00002384185791015625]},{"children":[22,23],"name":"Waist_Head","rotation":[0,-0.23085328936576843,0,0.9729886054992676],"translation":[18.060935974121094,0.000072479248046875,-0.00007818639278411865]},{"name":"Waist_EndHead","rotation":[0,2.980232594040899e-8,0,1],"scale":[0.9999999403953552,1,0.9999999403953552],"translation":[42.26979446411133,0.0001087188720703125,-0.00000667572021484375]},{"children":[24],"name":"Waist_Jaw","rotation":[0,-0.5630077719688416,0,0.8264515995979309],"scale":[0.9999999403953552,1,0.9999999403953552],"translation":[12.444127082824707,0.00002288818359375,2.4015309810638428]},{"children":[25],"name":"Waist_Tongue1","rotation":[0,-0.5030938982963562,0,0.8642317652702332],"scale":[0.9999999403953552,1,0.9999999403953552],"translation":[8.521559715270996,-0.00002956390380859375,0.19057273864746094]},{"children":[26],"name":"Waist_Tongue2","rotation":[0,4.470348358154297e-8,0,1],"translation":[-5.690593719482422,0.00000858306884765625,-10.042230606079102]},{"children":[27],"name":"Waist_Tongue3","translation":[-5.386270523071289,0.000007629452738910913,-9.505064964294434]},{"name":"Waist_EndTongue3","translation":[-6.116554260253906,0.000009536801371723413,-10.794042587280273]},{"children":[29],"name":"Waist_Tail1","rotation":[-0.5000001192092896,0.4999999701976776,-0.4999999701976776,0.5000001192092896],"translation":[27.16683006286621,-27.54276466369629,0.00010158221994061023]},{"children":[30],"name":"Waist_Tail2","translation":[16.609399795532227,-0.00001996755599975586,-0.000010045394446933642]},{"children":[31],"name":"Waist_Tail3","translation":[16.649303436279297,-0.000020056962966918945,-0.00001145718852058053]},{"children":[32],"name":"Waist_Tail4","translation":[16.45330047607422,-0.000019788742065429688,-0.000008992756193038076]},{"children":[33],"name":"Waist_Tail5","translation":[16.620498657226562,-0.000020056962966918945,-0.000010395506251370534]},{"children":[34],"name":"Waist_Tail6","translation":[17.418304443359375,-0.0000209808349609375,-0.0000120487020467408]},{"children":[35],"name":"Waist_Tail7","translation":[16.49500274658203,-0.000019848346710205078,-0.000011504707799758762]},{"children":[36],"name":"Waist_Tail8","translation":[16.390396118164062,-0.000019729137420654297,-0.000009020528523251414]},{"children":[37],"name":"Waist_Tail9","translation":[16.98139190673828,-0.00002047418092843145,-0.000010536572517594323]},{"children":[38],"name":"Waist_Tail10","translation":[16.58708953857422,-0.00001996755599975586,-0.000010021489288192242]},{"children":[39],"name":"Waist_Tail11","translation":[16.67119598388672,-0.00002008676528930664,-0.000011440159141784534]},{"name":"Waist_EndTail11","translation":[15.68679141998291,-0.000018894672393798828,-0.000010642455890774727]}],"samplers":[{}],"scene":0,"scenes":[{"name":"Scene","nodes":[3,4,2,8,5,6,1]}],"skins":[{"inverseBindMatrices":0,"joints":[11,12,13,14,15,16,17,18,19,20,21,22,23,24,25,26,27,28,29,30,31,32,33,34,35,36,37,38,39],"skeleton":10}],"textures":[{"sampler":0,"source":0},{"sampler":0,"source":1},{"sampler":0,"source":2}],"extensionsUsed":["ALI_amc_mesh_compression"],"extensionsRequired":["ALI_amc_mesh_compression"]}