{"accessors":[{"bufferView":0,"componentType":5126,"count":77,"max":[1,3.682944793581555e-8,0.9991183280944824,0,0.9991110563278198,0,1,0,4.181542578862718e-8,-1,2.2301556157344748e-7,0,92.30216979980469,92.38716888427734,112.97689056396484,1],"min":[-0.9999987483024597,-2.655657915795473e-8,-0.9991110563278198,0,-0.9991183280944824,-2.2684191947064392e-7,-0.9999987483024597,0,-8.363083736639965e-8,-1.0000001192092896,-1.0658140189368556e-14,0,-135.55931091308594,-72.39533996582031,-129.06893920898438,1],"type":"MAT4","byteOffset":0},{"bufferView":1,"componentType":5126,"count":77,"max":[1,3.682944793581555e-8,0.9991183280944824,0,0.9991110563278198,0,1,0,4.181542578862718e-8,-1,2.2301556157344748e-7,0,92.30216979980469,92.38716888427734,112.97689056396484,1],"min":[-0.9999987483024597,-2.655657915795473e-8,-0.9991110563278198,0,-0.9991183280944824,-2.2684191947064392e-7,-0.9999987483024597,0,-8.363083736639965e-8,-1.0000001192092896,-1.0658140189368556e-14,0,-135.55931091308594,-72.39533996582031,-129.06893920898438,1],"type":"MAT4","byteOffset":0},{"bufferView":2,"componentType":5126,"count":77,"max":[1,3.682944793581555e-8,0.9991183280944824,0,0.9991110563278198,0,1,0,4.181542578862718e-8,-1,2.2301556157344748e-7,0,92.30216979980469,92.38716888427734,112.97689056396484,1],"min":[-0.9999987483024597,-2.655657915795473e-8,-0.9991110563278198,0,-0.9991183280944824,-2.2684191947064392e-7,-0.9999987483024597,0,-8.363083736639965e-8,-1.0000001192092896,-1.0658140189368556e-14,0,-135.55931091308594,-72.39533996582031,-129.06893920898438,1],"type":"MAT4","byteOffset":0}],"asset":{"generator":"Khronos Blender glTF 2.0 exporter","version":"2.0"},"bufferViews":[{"buffer":0,"byteLength":4928,"byteOffset":0},{"buffer":0,"byteLength":4928,"byteOffset":4928},{"buffer":0,"byteLength":4928,"byteOffset":9856},{"buffer":0,"byteOffset":14784,"byteLength":22979},{"buffer":0,"byteOffset":37763,"byteLength":4755},{"buffer":0,"byteOffset":42518,"byteLength":51565},{"buffer":0,"byteOffset":94083,"byteLength":5335},{"buffer":0,"byteOffset":99418,"byteLength":5335},{"buffer":0,"byteOffset":104753,"byteLength":91995}],"buffers":[{"byteLength":196748,"uri":"buffer.bin"}],"images":[{"name":"pm0009_00_BodyA1","uri":"pm0009_00_BodyA1.png"},{"name":"pm0009_00_BodyB1","uri":"pm0009_00_BodyB1.png"},{"name":"pm0009_00_Eye1","uri":"pm0009_00_Eye1.png"},{"name":"pm0009_00_Iris1","uri":"pm0009_00_Iris1.png"}],"materials":[{"alphaMode":"OPAQUE","name":"Material__85","pbrMetallicRoughness":{"baseColorFactor":[0.6400000190734865,0.6400000190734865,0.6400000190734865,1],"baseColorTexture":{"index":0},"metallicFactor":0}},{"alphaMode":"OPAQUE","name":"Material__86","pbrMetallicRoughness":{"baseColorFactor":[0.6400000190734865,0.6400000190734865,0.6400000190734865,1],"baseColorTexture":{"index":1},"metallicFactor":0}},{"alphaMode":"OPAQUE","name":"Material__87","pbrMetallicRoughness":{"baseColorFactor":[0.6400000190734865,0.6400000190734865,0.6400000190734865,1],"baseColorTexture":{"index":2},"metallicFactor":0}},{"alphaMode":"MASK","name":"Material__88","pbrMetallicRoughness":{"baseColorFactor":[0.6400000190734865,0.6400000190734865,0.6400000190734865,1],"baseColorTexture":{"index":3},"metallicFactor":0}}],"meshes":[{"name":"Blastoise_CannonsA","primitives":[{"material":1,"extensions":{"ALI_amc_mesh_compression":{"bufferView":3}}}]},{"name":"Blastoise_CannonsB","primitives":[{"material":1,"extensions":{"ALI_amc_mesh_compression":{"bufferView":4}}}]},{"name":"Blastoise","primitives":[{"material":1,"extensions":{"ALI_amc_mesh_compression":{"bufferView":5}}},{"material":3,"extensions":{"ALI_amc_mesh_compression":{"bufferView":6}}},{"material":2,"extensions":{"ALI_amc_mesh_compression":{"bufferView":7}}},{"material":0,"extensions":{"ALI_amc_mesh_compression":{"bufferView":8}}}]}],"nodes":[{"children":[1,2,3,6],"name":"Armature","scale":[0.02539999969303608,0.02539999969303608,0.02539999969303608]},{"mesh":2,"name":"Blastoise","skin":0},{"mesh":0,"name":"Blastoise_CannonsA","skin":1},{"mesh":1,"name":"Blastoise_CannonsB","skin":2},{"name":"Camera","rotation":[0.483536034822464,0.33687159419059753,-0.20870360732078552,0.7804827094078064],"translation":[7.481131553649902,5.34366512298584,6.5076398849487305]},{"name":"Lamp","rotation":[0.16907575726509094,0.7558802962303162,-0.27217137813568115,0.570947527885437],"scale":[1,1,0.9999999403953552],"translation":[4.076245307922363,5.903861999511719,-1.0054539442062378]},{"children":[7,79,80,81,82],"name":"Armature_pm0009_00","rotation":[-0.7071068286895752,0,0,0.7071068286895752]},{"children":[8],"name":"Armature_Origin"},{"children":[9,19,20,30,38,50,62,65,70,72,77],"name":"Armature_Waist","rotation":[0,-0.8826683759689331,0,0.4699963331222534],"translation":[0.00004121544770896435,-1.4455537796020508,67.92817687988281]},{"children":[10],"name":"Armature_LArm","rotation":[0,-0.46826624870300293,0,0.8835874795913696],"translation":[-4.111120223999023,-27.965843200683594,-43.87722396850586]},{"children":[11],"name":"Armature_LForeArm","rotation":[0,1.1175870895385742e-8,0,1],"translation":[0.000303119421005249,-18.913362503051758,-0.07411351799964905]},{"children":[12,14,15,17],"name":"Armature_LHand","rotation":[0,-0.0027489946223795414,0,0.9999962449073792],"scale":[0.9999998807907104,1,0.9999998807907104],"translation":[0.00032320618629455566,-20.55508804321289,-0.0805535763502121]},{"children":[13],"name":"Armature_LFingerA","rotation":[0,-0.8897249102592468,0,0.4564971923828125],"scale":[1,0.9999999403953552,1],"translation":[1.1227750778198242,-10.527900695800781,-2.69275164604187]},{"name":"Armature_EndLFingerA","translation":[-0.3450279235839844,-12.979316711425781,-0.5144615173339844]},{"name":"Armature_EndLHand","rotation":[0,5.820766091346741e-11,0,1],"translation":[0.00004805624485015869,-15.585968017578125,0.02493329718708992]},{"children":[16],"name":"Armature_LFingerC","rotation":[0,-0.4929453730583191,0,0.870060384273529],"scale":[0.9999999403953552,1,0.9999999403953552],"translation":[0.6665375232696533,-10.5166015625,4.372912883758545]},{"name":"Armature_EndLFingerC","rotation":[0,4.4703490686970326e-8,0,1],"scale":[0.9999999403953552,1,0.9999999403953552],"translation":[0.3351898193359375,-12.979324340820312,-0.5209236145019531]},{"children":[18],"name":"Armature_LFingerB","rotation":[0,-0.7212507724761963,0,0.6926741003990173],"scale":[0.9999999403953552,1,0.9999999403953552],"translation":[-2.6118509769439697,-10.5224609375,0.6601344347000122]},{"name":"Armature_EndLFingerB","rotation":[0,-1.862645149230957e-9,0,1],"translation":[0.020747780799865723,-12.979270935058594,-0.0008668899536132812]},{"name":"Armature_EndWaist","translation":[70.5308609008789,-57.19074249267578,-47.451454162597656]},{"children":[21],"name":"Armature_RArm","rotation":[0,-0.46826624870300293,0,0.8835874795913696],"translation":[39.09376525878906,-27.965843200683594,20.341922760009766]},{"children":[22],"name":"Armature_RForeArm","rotation":[0,1.1175870895385742e-8,0,1],"translation":[0.0002786219120025635,-18.913358688354492,-0.07409432530403137]},{"children":[23,25,26,28],"name":"Armature_RHand","rotation":[0,-0.0027489946223795414,0,0.9999962449073792],"scale":[0.9999998807907104,1,0.9999998807907104],"translation":[0.0003177225589752197,-20.555091857910156,-0.08054026961326599]},{"children":[24],"name":"Armature_RFingerA","rotation":[0,0.9073212146759033,0,0.4204380214214325],"scale":[0.9999999403953552,1,0.9999999403953552],"translation":[-1.131493091583252,-10.527992248535156,-2.6893131732940674]},{"name":"Armature_EndRFingerA","rotation":[0,-4.4703490686970326e-8,0,1],"scale":[0.9999999403953552,1,0.9999999403953552],"translation":[0.3836097717285156,-12.979324340820312,-0.4863605499267578]},{"name":"Armature_EndRHand","rotation":[0,5.820766091346741e-11,0,1],"translation":[0.00004869699478149414,-15.585868835449219,0.024916809052228928]},{"children":[27],"name":"Armature_RFingerB","rotation":[0,0.7224043011665344,0,0.6914709806442261],"scale":[0.9999999403953552,0.9999999403953552,0.9999999403953552],"translation":[2.6138079166412354,-10.52264404296875,0.6517168879508972]},{"name":"Armature_EndRFingerB","rotation":[0,-2.7939677238464355e-8,0,1],"translation":[-0.020716071128845215,-12.979293823242188,-0.0008695125579833984]},{"children":[29],"name":"Armature_RFingerC","rotation":[0,0.5296403765678406,0,0.8482223153114319],"translation":[-0.6525421142578125,-10.516685485839844,4.375033855438232]},{"name":"Armature_EndRFingerC","rotation":[-2.7574731963807752e-15,5.960464477539063e-8,4.181541868319982e-8,1],"translation":[-0.29126930236816406,-12.979324340820312,-0.5467000007629395]},{"children":[31],"name":"Armature_Neck","rotation":[0,0.034233592450618744,0,0.9994138479232788],"scale":[0.9999999403953552,1,0.9999999403953552],"translation":[16.963829040527344,-19.063709259033203,-11.412859916687012]},{"children":[32,34,36],"name":"Armature_Head","rotation":[0,-0.005184556823223829,0,0.9999866485595703],"translation":[6.413355827331543,-4.277307510375977,-3.70395565032959]},{"children":[33],"name":"Armature_REar","rotation":[0,0.053303755819797516,0,0.9985783696174622],"translation":[38.50079345703125,-12.81827163696289,-1.9436073303222656]},{"name":"Armature_EndREar","translation":[9.908295631408691,6.3310394287109375,1.7097625732421875]},{"children":[35],"name":"Armature_LEar","rotation":[0,0.9729526042938232,0,0.23100505769252777],"scale":[0.9999999403953552,1,0.9999999403953552],"translation":[20.24897003173828,-12.818286895751953,-32.803714752197266]},{"name":"Armature_EndLEar","translation":[0.28006935119628906,6.331050872802734,10.05080795288086]},{"children":[37],"name":"Armature_Jaw","rotation":[0,-0.5830800533294678,0,0.8124147057533264],"translation":[16.95115089416504,-11.647953033447266,-10.0257568359375]},{"name":"Armature_EndJaw","rotation":[1.1150778078672374e-7,-2.2351741790771484e-8,-2.090771289431359e-8,1],"translation":[1.6065055131912231,-36.73857116699219,7.598967552185059]},{"children":[39],"name":"Armature_LThigh","rotation":[0,-0.9812628626823425,0,0.19267383217811584],"translation":[-38.395721435546875,-3.3855972290039062,-10.472919464111328]},{"children":[40],"name":"Armature_LLeg","rotation":[0,0.2805730104446411,0,0.9598327279090881],"scale":[0.9999999403953552,1,0.9999999403953552],"translation":[18.259414672851562,-2.6634035110473633,-1.0857820510864258]},{"children":[41,43,44,46,48],"name":"Armature_LFoot","rotation":[0,-0.8262296915054321,0,0.5633334517478943],"scale":[0.9999999403953552,1,0.9999999403953552],"translation":[15.819901466369629,4.1564435958862305,1.6169102191925049]},{"children":[42],"name":"Armature_LToeA","rotation":[0,2.514570951461792e-8,0,1],"translation":[10.21899127960205,-10.335649490356445,-4.348107814788818]},{"name":"Armature_EndLToeA","translation":[15.726600646972656,-15.840563774108887,0.06354963779449463]},{"name":"Armature_EndLFoot","rotation":[0,2.8870999813079834e-8,0,1],"translation":[22.454174041748047,-22.61688995361328,0.0907345712184906]},{"children":[45],"name":"Armature_LToeB","rotation":[0,0.009635156020522118,0,0.99995356798172],"translation":[-8.6563081741333,8.668132781982422,-5.2746782302856445]},{"name":"Armature_EndLToeB","rotation":[0,-1.3969838619232178e-9,0,1],"translation":[-11.982134819030762,12.072196960449219,-0.2793716788291931]},{"children":[47],"name":"Armature_LToeC","rotation":[0,0.002147399354726076,0,0.9999977946281433],"scale":[0.9999999403953552,1,0.9999999403953552],"translation":[13.654294967651367,4.246883392333984,-5.816023826599121]},{"name":"Armature_EndLToeC","rotation":[0,-2.3283064365386963e-10,0,1],"translation":[12.868731498718262,5.702930450439453,-0.020365118980407715]},{"children":[49],"name":"Armature_LToeD","rotation":[0,-0.0038736078422516584,0,0.9999924898147583],"translation":[-4.401569843292236,-13.678814888000488,-5.642091274261475]},{"name":"Armature_EndLToeD","translation":[-5.458089351654053,-12.080463409423828,0.14043831825256348]},{"children":[51],"name":"Armature_RThigh","rotation":[0,-0.9812637567520142,0,0.19266954064369202],"translation":[-4.7671966552734375,-3.385533332824707,39.51194763183594]},{"children":[52],"name":"Armature_RLeg","rotation":[0,0.2805735468864441,0,0.9598325490951538],"scale":[0.9999999403953552,1,0.9999999403953552],"translation":[17.18582534790039,-2.6634435653686523,-6.263773441314697]},{"children":[53,55,57,58,60],"name":"Armature_RFoot","rotation":[0,-0.8262295722961426,0,0.5633335113525391],"translation":[12.879374504089355,4.1564435958862305,9.327682495117188]},{"children":[54],"name":"Armature_RToeC","rotation":[0,0.024361534044146538,0,0.9997032284736633],"translation":[-13.763863563537598,4.246955871582031,-5.551827430725098]},{"name":"Armature_EndRToeC","rotation":[0,1.862645371275562e-9,0,1],"scale":[0.9999999403953552,1,0.9999999403953552],"translation":[-12.860610961914062,5.702902793884277,-0.45461487770080566]},{"children":[56],"name":"Armature_RToeD","rotation":[0,0.006004808936268091,0,0.9999819993972778],"translation":[4.29205322265625,-13.678787231445312,-5.725872039794922]},{"name":"Armature_EndRToeD","rotation":[0,1.1641532182693481e-10,0,1],"translation":[5.459487438201904,-12.080503463745117,0.05850933492183685]},{"name":"Armature_EndRFoot","rotation":[0,1.862645149230957e-9,0,1],"translation":[-22.448270797729492,-22.61686897277832,0.5234010219573975]},{"children":[59],"name":"Armature_RToeA","rotation":[0,-2.561137080192566e-8,0,1],"translation":[-10.300871849060059,-10.335525512695312,-4.150400638580322]},{"name":"Armature_EndRToeA","translation":[-15.722434043884277,-15.84058666229248,0.3665791153907776]},{"children":[61],"name":"Armature_RToeB","rotation":[0,0.00963506381958723,0,0.9999536275863647],"scale":[0.9999999403953552,1,0.9999999403953552],"translation":[8.55303955078125,8.66815185546875,-5.440501689910889]},{"name":"Armature_EndRToeB","rotation":[0,-9.313225746154785e-10,0,1],"translation":[11.985381126403809,12.072113037109375,-0.048435308039188385]},{"children":[63],"name":"Armature_Tail1","rotation":[0,-0.6695953011512756,0,0.74272620677948],"scale":[0.9999999403953552,1,0.9999999403953552],"translation":[-37.05031967163086,36.50510787963867,24.926570892333984]},{"children":[64],"name":"Armature_Tail2","rotation":[0,0.08975224196910858,0,0.9959642291069031],"translation":[4.026747226715088,16.12759017944336,7.572207450866699]},{"name":"Armature_EndTail2","rotation":[-2.220446049250313e-16,0,-1.3938474374697307e-8,1],"translation":[2.0588669776916504,21.208194732666016,6.449592590332031]},{"children":[66,67],"name":"Armature_RFeelerA","rotation":[0,0.15413115918636322,0,0.9880504012107849],"translation":[38.510868072509766,25.12155532836914,7.294057846069336]},{"name":"Armature_EndRFeelerA","rotation":[0,-1.4901161193847656e-8,0,1],"translation":[9.259034156799316,9.789299011230469,5.849895477294922]},{"children":[68],"name":"Armature_RFeelerB","rotation":[0,0.2339734584093094,0,0.9722430109977722],"translation":[5.411562919616699,-9.978721618652344,7.381105422973633]},{"children":[69],"name":"Armature_RFeelerC","rotation":[0,-5.960464477539063e-8,0,1],"translation":[3.920154571533203,-50.685218811035156,24.79201889038086]},{"name":"Armature_EndRFeelerC","translation":[1.2394962310791016,-16.025226593017578,7.8385772705078125]},{"children":[71],"name":"Armature_RFeelerD","rotation":[0,0.15413115918636322,0,0.9880504012107849],"translation":[40.24934387207031,15.836752891540527,9.533609390258789]},{"name":"Armature_EndRFeelerD","rotation":[0,-1.4901161193847656e-8,0,1],"translation":[18.517711639404297,19.57819938659668,11.69953727722168]},{"children":[73,74],"name":"Armature_LFeelerA","rotation":[0,0.9267641305923462,0,0.37564387917518616],"scale":[1,0.9999999403953552,1],"translation":[7.755151748657227,25.12152862548828,-38.42066192626953]},{"name":"Armature_EndLFeelerA","rotation":[0,-3.725290298461914e-8,0,1],"translation":[6.521236896514893,9.789165496826172,8.798935890197754]},{"children":[75],"name":"Armature_LFeelerB","rotation":[0,0.14571678638458252,0,0.9893263578414917],"translation":[7.7624897956848145,-9.978743553161621,4.848348140716553]},{"children":[76],"name":"Armature_LFeelerC","rotation":[0,-1.341104507446289e-7,0,1],"translation":[16.616592407226562,-50.68513107299805,18.812406539916992]},{"name":"Armature_EndLFeelerC","translation":[5.253681182861328,-16.025146484375,5.947917938232422]},{"children":[78],"name":"Armature_LFeelerD","rotation":[0,0.9267641305923462,0,0.37564387917518616],"scale":[1,0.9999999403953552,1],"translation":[6.335765838623047,15.836716651916504,-40.87488555908203]},{"name":"Armature_EndLFeelerD","rotation":[0,2.2351741790771484e-8,0,1],"translation":[13.042473793029785,19.57832145690918,17.59786605834961]},{"name":"Armature_pm0009_00_BodySkin"},{"name":"Armature_pm0009_00_CannonSkin"},{"name":"Armature_pm0009_00_CoverSkin"},{"name":"Armature_pm0009_00_IrisSkin"}],"samplers":[{}],"scene":0,"scenes":[{"name":"Scene","nodes":[0,5,4]}],"skins":[{"inverseBindMatrices":0,"joints":[6,7,8,9,10,11,12,13,14,15,16,17,18,19,20,21,22,23,24,25,26,27,28,29,30,31,32,33,34,35,36,37,38,39,40,41,42,43,44,45,46,47,48,49,50,51,52,53,54,55,56,57,58,59,60,61,62,63,64,65,66,67,68,69,70,71,72,73,74,75,76,77,78,79,80,81,82],"skeleton":0},{"inverseBindMatrices":1,"joints":[6,7,8,9,10,11,12,13,14,15,16,17,18,19,20,21,22,23,24,25,26,27,28,29,30,31,32,33,34,35,36,37,38,39,40,41,42,43,44,45,46,47,48,49,50,51,52,53,54,55,56,57,58,59,60,61,62,63,64,65,66,67,68,69,70,71,72,73,74,75,76,77,78,79,80,81,82],"skeleton":0},{"inverseBindMatrices":2,"joints":[6,7,8,9,10,11,12,13,14,15,16,17,18,19,20,21,22,23,24,25,26,27,28,29,30,31,32,33,34,35,36,37,38,39,40,41,42,43,44,45,46,47,48,49,50,51,52,53,54,55,56,57,58,59,60,61,62,63,64,65,66,67,68,69,70,71,72,73,74,75,76,77,78,79,80,81,82],"skeleton":0}],"textures":[{"sampler":0,"source":0},{"sampler":0,"source":1},{"sampler":0,"source":2},{"sampler":0,"source":3}],"extensionsUsed":["ALI_amc_mesh_compression"],"extensionsRequired":["ALI_amc_mesh_compression"]}