{"accessors":[{"bufferView":0,"componentType":5126,"count":57,"max":[1,0,1,0,0.9952290058135986,0,1,0,0,-1,0,0,73.53846740722656,67.10276794433594,94.8376693725586,1],"min":[-0.9054069519042969,0,-0.9952290058135986,0,-1,0,-0.9054069519042969,0,0,-1.0000001192092896,0,0,-133.40940856933594,-89.83673095703125,-77.50989532470703,1],"type":"MAT4","byteOffset":0}],"asset":{"generator":"Khronos Blender glTF 2.0 exporter","version":"2.0"},"bufferViews":[{"buffer":0,"byteLength":3648,"byteOffset":0},{"buffer":0,"byteOffset":3648,"byteLength":707},{"buffer":0,"byteOffset":4355,"byteLength":3619},{"buffer":0,"byteOffset":7974,"byteLength":99927},{"buffer":0,"byteOffset":107901,"byteLength":38945}],"buffers":[{"byteLength":146846,"uri":"buffer.bin"}],"images":[{"name":"pm0080_00_BodyA1","uri":"pm0080_00_BodyA1.png"},{"name":"pm0080_00_EyeA1","uri":"pm0080_00_EyeA1.png"},{"name":"pm0080_00_BodyB1","uri":"pm0080_00_BodyB1.png"},{"name":"pm0080_00_EyeB1","uri":"pm0080_00_EyeB1.png"}],"materials":[{"alphaMode":"OPAQUE","name":"Material__34","pbrMetallicRoughness":{"baseColorFactor":[0.6400000190734865,0.6400000190734865,0.6400000190734865,1],"baseColorTexture":{"index":0},"metallicFactor":0}},{"alphaMode":"OPAQUE","name":"Material__35","pbrMetallicRoughness":{"baseColorFactor":[0.6400000190734865,0.6400000190734865,0.6400000190734865,1],"baseColorTexture":{"index":1},"metallicFactor":0}},{"alphaMode":"OPAQUE","name":"Material__36","pbrMetallicRoughness":{"baseColorFactor":[0.6400000190734865,0.6400000190734865,0.6400000190734865,1],"baseColorTexture":{"index":2},"metallicFactor":0}},{"alphaMode":"OPAQUE","name":"Material__37","pbrMetallicRoughness":{"baseColorFactor":[0.6400000190734865,0.6400000190734865,0.6400000190734865,1],"baseColorTexture":{"index":3},"metallicFactor":0}}],"meshes":[{"name":"Slowbro","primitives":[{"material":3,"extensions":{"ALI_amc_mesh_compression":{"bufferView":1}}},{"material":1,"extensions":{"ALI_amc_mesh_compression":{"bufferView":2}}},{"material":0,"extensions":{"ALI_amc_mesh_compression":{"bufferView":3}}},{"material":2,"extensions":{"ALI_amc_mesh_compression":{"bufferView":4}}}]}],"nodes":[{"children":[3,4],"name":"Armature","scale":[0.02539999969303608,0.02539999969303608,0.02539999969303608]},{"name":"Camera","rotation":[0.483536034822464,0.33687159419059753,-0.20870360732078552,0.7804827094078064],"translation":[7.481131553649902,5.34366512298584,6.5076398849487305]},{"name":"Lamp","rotation":[0.16907575726509094,0.7558802962303162,-0.27217137813568115,0.570947527885437],"scale":[1,1,0.9999999403953552],"translation":[4.076245307922363,5.903861999511719,-1.0054539442062378]},{"mesh":0,"name":"Slowbro","skin":0},{"children":[5,60],"name":"Armature_pm0080_00","rotation":[-0.7071068286895752,0,0,0.7071068286895752]},{"children":[6],"name":"Armature_Origin"},{"children":[7,29],"name":"Armature_Waist","rotation":[0,-0.7810153365135193,0,0.6245118379592896],"translation":[0,-16.987403869628906,67.67669677734375]},{"children":[8,14,21,28],"name":"Armature_Hips","rotation":[0,-0.9938581585884094,0,0.11066221445798874],"scale":[1,0.9999999403953552,1],"translation":[-0.00001641339076741133,0.0000019073486328125,-0.00007278893463080749]},{"children":[9],"name":"Armature_Tail1","rotation":[0,-0.7726069688796997,0,0.6348846554756165],"translation":[34.495277404785156,30.0495662689209,-0.0000158065085997805]},{"children":[10],"name":"Armature_Tail2","rotation":[0,-0.08422345668077469,0,0.9964469075202942],"scale":[1.0000001192092896,1,1.0000001192092896],"translation":[1.4080981016159058,36.76521301269531,7.126549243927002]},{"children":[11,13],"name":"Armature_FeelerA","rotation":[0,-0.8332817554473877,0,0.5528485774993896],"translation":[4.380711555480957,32.34790802001953,11.507885932922363]},{"children":[12],"name":"Armature_FeelerB","rotation":[0,-0.6111045479774475,0,0.7915499210357666],"scale":[1,0.9999999403953552,1],"translation":[-9.06203842163086,7.661445617675781,8.664215087890625]},{"name":"Armature_EndFeelerB","rotation":[0,1.4901161193847656e-8,0,1],"translation":[15.34136962890625,-56.86866760253906,27.616607666015625]},{"name":"Armature_EndFeelerA","rotation":[0,4.470348358154297e-8,0,1],"scale":[1,0.9999999403953552,1],"translation":[26.46154022216797,-35.00279235839844,-25.299922943115234]},{"children":[15],"name":"Armature_RHips","rotation":[0,0.27368441224098206,0,0.961819589138031],"translation":[17.168397903442383,3.2616796493530273,-35.07329559326172]},{"children":[16],"name":"Armature_RThigh","rotation":[0,-0.5212329030036926,0,0.8534144759178162],"translation":[12.016157150268555,0.6429834365844727,0.7442188262939453]},{"children":[17],"name":"Armature_RLeg","rotation":[0,0.35243967175483704,0,0.9358346462249756],"translation":[14.790660858154297,-5.628414154052734,-6.554327964782715]},{"children":[18,20],"name":"Armature_RFoot","rotation":[0,-0.7673524618148804,0,0.6412255764007568],"translation":[13.53620433807373,5.841779708862305,6.713823318481445]},{"children":[19],"name":"Armature_RToe","rotation":[0,7.452035788446665e-8,0,1],"translation":[-3.0963199138641357,-14.947168350219727,-4.905783653259277]},{"name":"Armature_EndRToe","translation":[-3.3493385314941406,-15.712272644042969,-0.3850104510784149]},{"name":"Armature_EndRFoot","rotation":[0,3.077730070799589e-8,0,1],"translation":[-4.506701946258545,-21.140878677368164,-0.5180284380912781]},{"children":[22],"name":"Armature_LHips","rotation":[0,-0.22143590450286865,0,0.9751750230789185],"translation":[17.16840171813965,3.2616796493530273,35.07330322265625]},{"children":[23],"name":"Armature_LThigh","rotation":[0,0.1510990560054779,0,0.9885187149047852],"translation":[12.026391983032227,0.6428728103637695,0.5536422729492188]},{"children":[24],"name":"Armature_LLeg","rotation":[0,0.3524392545223236,0,0.9358347058296204],"translation":[15.59921932220459,-5.628263473510742,-4.287507057189941]},{"children":[25,26],"name":"Armature_LFoot","rotation":[0,-0.8693784475326538,0,0.49414709210395813],"translation":[14.457355499267578,5.8416900634765625,4.391841411590576]},{"name":"Armature_EndLFoot","rotation":[0,-7.82310962677002e-8,0,1],"translation":[4.523657321929932,-21.140888214111328,-0.3389788866043091]},{"children":[27],"name":"Armature_LToe","rotation":[0,-9.313225746154785e-8,0,1],"translation":[3.288357973098755,-14.947169303894043,-4.77923059463501]},{"name":"Armature_EndLToe","translation":[3.3620638847351074,-15.712251663208008,-0.2519338130950928]},{"name":"Armature_EndHips","rotation":[0,3.675677362480201e-8,0,1],"translation":[61.640098571777344,0,-0.0000012555519788293168]},{"children":[30,41,52],"name":"Armature_Spine","rotation":[0,5.438923835754395e-7,0,1],"translation":[-0.000007252389423229033,0.0000247955322265625,-0.000032162381103262305]},{"children":[31],"name":"Armature_RShoulder","rotation":[0,-0.8175487518310547,0,0.5758594274520874],"translation":[23.05211067199707,-7.877429962158203,6.502080917358398]},{"children":[32],"name":"Armature_RArm","rotation":[0,0.0498245470225811,0,0.9987580180168152],"translation":[13.16588020324707,-7.537015914916992,-2.0653772354125977]},{"children":[33],"name":"Armature_RForeArm","rotation":[0,1.4901161193847656e-8,0,1],"translation":[17.599632263183594,-11.024162292480469,-3.3227176666259766]},{"children":[34,35,37,39],"name":"Armature_RHand","translation":[12.554046630859375,-7.8635711669921875,-2.370075225830078]},{"name":"Armature_EndRHand","translation":[11.848060607910156,-7.421600341796875,-2.2368831634521484]},{"children":[36],"name":"Armature_RFingerA","rotation":[0,0.01355927623808384,0,0.9999080896377563],"translation":[4.542205810546875,-6.667766571044922,-2.5858707427978516]},{"name":"Armature_EndRFingerA","translation":[3.6325759887695312,-3.755596160888672,-1.2249431610107422]},{"children":[38],"name":"Armature_RFingerB","rotation":[0,-0.03339453414082527,0,0.9994423389434814],"scale":[0.9999999403953552,1,0.9999999403953552],"translation":[7.088130950927734,-4.629119873046875,-0.7362442016601562]},{"name":"Armature_EndRFingerB","translation":[4.217334747314453,-2.644580841064453,-0.7677879333496094]},{"children":[40],"name":"Armature_RFingerC","rotation":[0,-0.0638003796339035,0,0.9979627728462219],"scale":[0.9999999403953552,1,0.9999999403953552],"translation":[7.889122009277344,-1.5743446350097656,1.3996143341064453]},{"name":"Armature_EndRFingerC","translation":[5.162689208984375,-1.7071075439453125,-0.4902801513671875]},{"children":[42],"name":"Armature_LShoulder","rotation":[0,0.36598503589630127,0,0.9306207895278931],"scale":[1.0000001192092896,1,1.0000001192092896],"translation":[18.031057357788086,-7.877412796020508,-15.765716552734375]},{"children":[43],"name":"Armature_LArm","rotation":[0,-0.0471387580037117,0,0.998888373374939],"translation":[1.5680780410766602,-7.53703498840332,-13.234376907348633]},{"children":[44],"name":"Armature_LForeArm","rotation":[0,-7.599592208862305e-7,0,1],"translation":[2.7529067993164062,-11.024185180664062,-17.69774627685547]},{"children":[45,46,48,50],"name":"Armature_LHand","rotation":[0,2.980231954552437e-7,0,1],"scale":[1.0000001192092896,1,1.0000001192092896],"translation":[1.9636516571044922,-7.863651275634766,-12.623950958251953]},{"name":"Armature_EndLHand","rotation":[0,1.4901162970204496e-8,0,1],"scale":[0.9999999403953552,1,0.9999999403953552],"translation":[1.8532657623291016,-7.4215087890625,-11.91415786743164]},{"children":[47],"name":"Armature_LFingerA","rotation":[0,-0.16699667274951935,0,0.9859575033187866],"scale":[0.9999999403953552,1,0.9999999403953552],"translation":[2.43780517578125,-6.667716979980469,-4.623313903808594]},{"name":"Armature_EndLFingerA","rotation":[0,-1.862645149230957e-8,0,1],"translation":[-0.059309959411621094,-3.755634307861328,-3.833085060119629]},{"children":[49],"name":"Armature_LFingerB","rotation":[0,0.01702442206442356,0,0.999855101108551],"scale":[0.9999999403953552,1,0.9999999403953552],"translation":[0.5070362091064453,-4.629081726074219,-7.108242034912109]},{"name":"Armature_EndLFingerB","rotation":[0,-1.4901162970204496e-8,0,1],"scale":[0.9999999403953552,1,0.9999999403953552],"translation":[0.4921112060546875,-2.64459228515625,-4.25836181640625]},{"children":[51],"name":"Armature_LFingerC","rotation":[0,0.31532302498817444,0,0.9489845037460327],"scale":[0.9999999403953552,1,0.9999999403953552],"translation":[-1.6536102294921875,-1.5742111206054688,-7.839893341064453]},{"name":"Armature_EndLFingerC","rotation":[0,-7.450580596923828e-8,0,1],"translation":[2.825927734375,-1.7070655822753906,-4.348232269287109]},{"children":[53,54,56,58],"name":"Armature_Head","rotation":[0,-0.10200639069080353,0,0.9947837591171265],"translation":[33.903533935546875,-7.836858749389648,-7.644859313964844]},{"name":"Armature_EndHead","translation":[40.139007568359375,-20.011493682861328,-18.221776962280273]},{"children":[55],"name":"Armature_Jaw","rotation":[0,-0.7953848838806152,0,0.606104850769043],"translation":[11.339410781860352,-15.952869415283203,-5.147714614868164]},{"name":"Armature_EndJaw","rotation":[0,4.470348358154297e-8,0,1],"translation":[14.039737701416016,-26.32565689086914,16.8512020111084]},{"children":[57],"name":"Armature_LEar","rotation":[0,0.5654547214508057,0,0.8247793316841125],"scale":[0.9999998807907104,1,0.9999998807907104],"translation":[18.411128997802734,-11.228595733642578,-31.609590530395508]},{"name":"Armature_EndLEar","translation":[22.532075881958008,-1.7276268005371094,-1.9441337585449219]},{"children":[59],"name":"Armature_REar","rotation":[0,-0.2489914745092392,0,0.9685056805610657],"translation":[35.91427993774414,-11.228633880615234,6.947422027587891]},{"name":"Armature_EndREar","rotation":[0,2.9802322387695312e-8,0,1],"translation":[22.56427574157715,-1.7276077270507812,-1.5261859893798828]},{"name":"Armature_pm0080_00_BodySkin"}],"samplers":[{}],"scene":0,"scenes":[{"name":"Scene","nodes":[0,2,1]}],"skins":[{"inverseBindMatrices":0,"joints":[4,5,6,7,8,9,10,11,12,13,14,15,16,17,18,19,20,21,22,23,24,25,26,27,28,29,30,31,32,33,34,35,36,37,38,39,40,41,42,43,44,45,46,47,48,49,50,51,52,53,54,55,56,57,58,59,60],"skeleton":0}],"textures":[{"sampler":0,"source":0},{"sampler":0,"source":1},{"sampler":0,"source":2},{"sampler":0,"source":3}],"extensionsUsed":["ALI_amc_mesh_compression"],"extensionsRequired":["ALI_amc_mesh_compression"]}