{"accessors":[{"bufferView":0,"componentType":5126,"count":33,"max":[0.9999971985816956,0,0.9820217490196228,0,0.9999998807907104,6.138852768344805e-7,0.9999969601631165,0,5.47556965102558e-7,-1,4.5855452412979503e-7,0,26.710447311401367,10.168591499328613,17.454565048217773,1],"min":[-0.8347599506378174,-7.906569976512401e-8,-1.0000001192092896,0,-0.9820215106010437,-1.4426797179112327e-7,-0.8347597122192383,0,-3.0014308549652924e-7,-1.000000238418579,-1.641315066081006e-7,0,-48.96669006347656,-17.363435745239258,-43.098995208740234,1],"type":"MAT4","byteOffset":0}],"asset":{"generator":"Khronos Blender glTF 2.0 exporter","version":"2.0"},"bufferViews":[{"buffer":0,"byteLength":2112,"byteOffset":0},{"buffer":0,"byteOffset":2112,"byteLength":883},{"buffer":0,"byteOffset":2995,"byteLength":1279},{"buffer":0,"byteOffset":4274,"byteLength":122023}],"buffers":[{"byteLength":126297,"uri":"buffer.bin"}],"images":[{"name":"pm0043_00_Body1","uri":"pm0043_00_Body1.png"},{"name":"pm0043_00_Eye1","uri":"pm0043_00_Eye1.png"},{"name":"pm0043_00_Mouth1","uri":"pm0043_00_Mouth1.png"}],"materials":[{"alphaMode":"OPAQUE","name":"Body","pbrMetallicRoughness":{"baseColorFactor":[0.6400000190734865,0.6400000190734865,0.6400000190734865,1],"baseColorTexture":{"index":0},"metallicFactor":0}},{"alphaMode":"OPAQUE","name":"Eye","pbrMetallicRoughness":{"baseColorFactor":[0.6400000190734865,0.6400000190734865,0.6400000190734865,1],"baseColorTexture":{"index":1},"metallicFactor":0}},{"alphaMode":"OPAQUE","name":"Mouth","pbrMetallicRoughness":{"baseColorFactor":[0.6400000190734865,0.6400000190734865,0.6400000190734865,1],"baseColorTexture":{"index":2},"metallicFactor":0}}],"meshes":[{"name":"Oodish","primitives":[{"material":2,"extensions":{"ALI_amc_mesh_compression":{"bufferView":1}}},{"material":1,"extensions":{"ALI_amc_mesh_compression":{"bufferView":2}}},{"material":0,"extensions":{"ALI_amc_mesh_compression":{"bufferView":3}}}]}],"nodes":[{"children":[1,12,13],"name":"_01_pm0043_00","rotation":[0.7071068286895752,0,0,0.7071067094802856],"scale":[0.02539999783039093,0.02539999969303608,0.02539999969303608]},{"children":[16,17],"name":"_02_Origin"},{"name":"_04_EndWaist","translation":[37.05849075317383,4.5474699852075806e-13,-2.5465900221899318e-11]},{"name":"_09_EndFeelerA4","translation":[7.533209800720215,-0.000003814699994109105,2.9103799231711136e-11]},{"name":"_13_EndLFeelerB3","translation":[12.886099815368652,-9.536739753457368e-7,-0.000005722049991163658]},{"name":"_17_EndLFeelerC3","translation":[13.229299545288086,0,0.000005722049991163658]},{"name":"_20_EndLFoot","translation":[10.302599906921387,-2.3841900542720396e-7,0]},{"name":"_22_EndLToe","translation":[5.360421180725098,-1.1920899822825959e-7,9.536739753457368e-7]},{"name":"_26_EndRFeelerB3","translation":[12.88601016998291,0.00000667572021484375,0.000024795499484753236]},{"name":"_30_EndRFeelerC3","translation":[13.229290008544922,0.000013351400411920622,-0.000059127800341229886]},{"name":"_33_EndRFoot","translation":[10.302599906921387,-7.152560215217818e-7,9.536739753457368e-7]},{"name":"_35_EndRToe","translation":[5.360441207885742,-1.1920899822825959e-7,0]},{"name":"_36_pm0043_00_bodyASkin"},{"name":"_37_pm0043_00_bodyBSkin"},{"name":"Camera","rotation":[0.483536034822464,0.33687159419059753,-0.20870360732078552,0.7804827094078064],"translation":[7.481131553649902,5.34366512298584,6.5076398849487305]},{"name":"Lamp","rotation":[0.16907575726509094,0.7558802962303162,-0.27217137813568115,0.570947527885437],"scale":[1,1,0.9999999403953552],"translation":[4.076245307922363,5.903861999511719,-1.0054539442062378]},{"mesh":0,"name":"Oodish","rotation":[5.960464477539063e-8,0,0,1],"scale":[1.0000001192092896,1,1],"skin":0},{"children":[18,19,24,28,32,37,41,45],"name":"_02_Origin__03_Waist","rotation":[-0.5,-0.5000000596046448,0.5000000596046448,0.5],"scale":[1,0.9999999403953552,1],"translation":[-7.291669891548844e-16,11.90820026397705,0]},{"name":"_02_Origin__04_EndWaist","translation":[37.05849075317383,-4.76837158203125e-7,-0.000001619852582734893]},{"children":[20],"name":"_02_Origin__05_FeelerA1","rotation":[0,0.007821956649422646,0,0.9999694228172302],"translation":[10.076502799987793,-2.123870849609375,0.000036797133361687884]},{"children":[21],"name":"_02_Origin__06_FeelerA2","rotation":[0,0.09703153371810913,0,0.9952813982963562],"translation":[7.797184944152832,0.12203407287597656,0.12201733142137527]},{"children":[22],"name":"_02_Origin__07_FeelerA3","rotation":[1.2732498078094068e-7,0.10933342576026917,-3.4396182968521316e-7,0.9940051436424255],"scale":[0.9999999403953552,1,0.9999999403953552],"translation":[8.63623046875,1.8822516202926636,1.840897560119629]},{"children":[23],"name":"_02_Origin__08_FeelerA4","rotation":[-3.561294477094634e-7,0.7549492716789246,1.326062601947342e-7,0.6557832956314087],"scale":[0.9999999403953552,0.9999998211860657,0.9999999403953552],"translation":[9.934272766113281,4.9987382888793945,4.545504570007324]},{"name":"_02_Origin__09_EndFeelerA4","rotation":[3.1134294431467424e-7,-1.490117540470237e-8,1.556714579464824e-7,1],"translation":[2.1901192665100098,6.344338417053223,-3.4208223819732666]},{"children":[25],"name":"_02_Origin__10_LFeelerB1","rotation":[0,0.4607204794883728,0,0.8875452876091003],"translation":[9.932967185974121,0.27051830291748047,-0.7273135185241699]},{"children":[26],"name":"_02_Origin__11_LFeelerB2","rotation":[0,0.081907719373703,0,0.9966400265693665],"translation":[10.329513549804688,3.8174681663513184,3.604342460632324]},{"children":[27],"name":"_02_Origin__12_LFeelerB3","rotation":[0,0.15869097411632538,0,0.987328290939331],"translation":[8.978658676147461,5.332932949066162,4.720364093780518]},{"name":"_02_Origin__13_EndLFeelerB3","rotation":[0,7.450580596923828e-9,0,1],"translation":[7.990619659423828,7.9425153732299805,6.254432678222656]},{"children":[29],"name":"_02_Origin__14_LFeelerC1","rotation":[0,0.631325900554657,0,0.7755177021026611],"scale":[0.9999998807907104,0.9999998807907104,0.9999998807907104],"translation":[9.76315975189209,-0.9675436615943909,-1.1546348333358765]},{"children":[30],"name":"_02_Origin__15_LFeelerC2","rotation":[0,0.06613294780254364,0,0.9978108406066895],"scale":[0.9999999403953552,1,0.9999999403953552],"translation":[9.272093772888184,1.8099756240844727,1.7775957584381104]},{"children":[31],"name":"_02_Origin__16_LFeelerC3","rotation":[0,0.12291508913040161,0,0.9924172163009644],"scale":[0.9999999403953552,1,0.9999999403953552],"translation":[8.809957504272461,3.3962533473968506,3.1930136680603027]},{"name":"_02_Origin__17_EndLFeelerC3","scale":[1,0.9999999403953552,1],"translation":[10.013181686401367,6.522813320159912,5.6748199462890625]},{"children":[33],"name":"_02_Origin__18_LThigh","rotation":[0,-0.9954952597618103,0,0.09481143951416016],"translation":[4.048275947570801,-0.5362038612365723,-4.497464656829834]},{"children":[34,35],"name":"_02_Origin__19_LFoot","rotation":[0,-0.7717373967170715,0,0.6359413266181946],"scale":[0.9999999403953552,0.9999999403953552,0.9999999403953552],"translation":[12.06448745727539,2.3616254329681396,2.3191657066345215]},{"name":"_02_Origin__20_EndLFoot","translation":[1.2293457984924316e-7,-10.302602767944336,-1.2479722499847412e-7]},{"children":[36],"name":"_02_Origin__21_LToe","rotation":[0,2.2118911147117615e-9,0,1],"translation":[0.000013825949281454086,-6.633579254150391,-1.918873906135559]},{"name":"_02_Origin__22_EndLToe","rotation":[1.4901159417490817e-8,1.1641532182693481e-10,-1.734723475976807e-18,1],"translation":[-0.0000019185245037078857,-5.3604230880737305,-4.0978193283081055e-7]},{"children":[38],"name":"_02_Origin__23_RFeelerB1","rotation":[0,-0.14259551465511322,0,0.9897811412811279],"translation":[9.932940483093262,0.27051830291748047,0.7273899912834167]},{"children":[39],"name":"_02_Origin__24_RFeelerB2","rotation":[0,0.0662444457411766,0,0.9978034496307373],"translation":[10.329509735107422,3.817476749420166,3.6043453216552734]},{"children":[40],"name":"_02_Origin__25_RFeelerB3","rotation":[0,0.02073007822036743,0,0.9997851252555847],"translation":[8.978644371032715,5.332936763763428,4.720395088195801]},{"name":"_02_Origin__26_EndRFeelerB3","rotation":[0,3.725290298461914e-9,0,1],"translation":[7.990592002868652,7.9424543380737305,6.254369735717773]},{"children":[42],"name":"_02_Origin__27_RFeelerC1","rotation":[0,-0.47401776909828186,0,0.8805152773857117],"scale":[0.9999998807907104,0.9999999403953552,0.9999998807907104],"translation":[9.763136863708496,-0.9675427079200745,1.1547057628631592]},{"children":[43],"name":"_02_Origin__28_RFeelerC2","rotation":[0,0.09197817742824554,0,0.9957610964775085],"translation":[9.272101402282715,1.8099753856658936,1.7775888442993164]},{"children":[44],"name":"_02_Origin__29_RFeelerC3","rotation":[0,0.04465295374393463,0,0.9990025758743286],"scale":[1,0.9999999403953552,1],"translation":[8.809976577758789,3.3962607383728027,3.1929683685302734]},{"name":"_02_Origin__30_EndRFeelerC3","rotation":[0,1.4901161193847656e-8,0,1],"translation":[10.013151168823242,6.522799968719482,5.6748762130737305]},{"children":[46],"name":"_02_Origin__31_RThigh","rotation":[0,-0.9954950213432312,0,0.09481397271156311],"translation":[4.048223495483398,-0.5362048149108887,4.497493267059326]},{"children":[47,48],"name":"_02_Origin__32_RFoot","rotation":[0,-0.7781460285186768,0,0.6280834674835205],"scale":[1,1.0000001192092896,1],"translation":[12.064489364624023,2.361624240875244,2.319166660308838]},{"name":"_02_Origin__33_EndRFoot","rotation":[0,1.862645149230957e-9,0,1],"scale":[1,0.9999999403953552,1],"translation":[-4.246830940246582e-7,-10.302604675292969,-7.972121238708496e-7]},{"children":[49],"name":"_02_Origin__34_RToe","rotation":[0,-2.8870999813079834e-8,0,1],"translation":[0.000012148171663284302,-6.633569240570068,-1.9188693761825562]},{"name":"_02_Origin__35_EndRToe","rotation":[1.4901158529312397e-8,-9.313225746154785e-10,-1.3877785326272619e-17,1],"translation":[3.203749656677246e-7,-5.360441207885742,-4.470348358154297e-7]}],"samplers":[{}],"scene":0,"scenes":[{"name":"Scene","nodes":[11,10,9,8,7,6,5,4,3,2,0,15,14]}],"skins":[{"inverseBindMatrices":0,"joints":[17,18,19,20,21,22,23,24,25,26,27,28,29,30,31,32,33,34,35,36,37,38,39,40,41,42,43,44,45,46,47,48,49],"skeleton":1}],"textures":[{"sampler":0,"source":0},{"sampler":0,"source":1},{"sampler":0,"source":2}],"extensionsUsed":["ALI_amc_mesh_compression"],"extensionsRequired":["ALI_amc_mesh_compression"]}