{"accessors":[{"bufferView":0,"componentType":5126,"count":72,"max":[0.0000032912203096202575,-1.0000001192092896,0.0000036199905935063725,0,1.000000238418579,2.1684046034649503e-19,1.000000238418579,0,0.9091793894767761,0.0000036199905935063725,1.0000001192092896,0,58.94038391113281,35.25407791137695,26.291973114013672,1],"min":[-0.0000036199905935063725,-1.000000238418579,-0.0000036199905935063725,0,-1.000000238418579,2.168404344971009e-19,-0.9091795086860657,0,-1.0000001192092896,0.0000036199901387590216,-1.0000001192092896,0,-89.16203308105469,-35.25389862060547,-35.70813751220703,1],"type":"MAT4","byteOffset":0}],"asset":{"generator":"Khronos Blender glTF 2.0 exporter","version":"2.0"},"bufferViews":[{"buffer":0,"byteLength":4608,"byteOffset":0},{"buffer":0,"byteOffset":4608,"byteLength":127325}],"buffers":[{"byteLength":131933,"uri":"buffer.bin"}],"images":[{"name":"pm0063_00_Body1","uri":"pm0063_00_Body1.png"}],"materials":[{"alphaMode":"OPAQUE","name":"Material__63","pbrMetallicRoughness":{"baseColorFactor":[0.6400000190734865,0.6400000190734865,0.6400000190734865,1],"baseColorTexture":{"index":0},"metallicFactor":0}}],"meshes":[{"name":"Abra","primitives":[{"material":0,"extensions":{"ALI_amc_mesh_compression":{"bufferView":1}}}]}],"nodes":[{"mesh":0,"name":"Abra","rotation":[6.306565825120458e-10,-0.7071080803871155,-0.0000010064933348985505,0.7071055173873901],"scale":[1,1.000000238418579,1.0000001192092896],"skin":0,"translation":[-47.360408782958984,-1.380750298500061,-0.00017144420417025685]},{"name":"Camera","rotation":[0.483536034822464,0.33687159419059753,-0.20870360732078552,0.7804827094078064],"translation":[7.481131553649902,5.34366512298584,6.5076398849487305]},{"name":"EndHead","translation":[21.35651969909668,-0.0000019073499970545527,9.99992948891304e-7]},{"name":"EndHips","translation":[16.965900421142578,0,0]},{"name":"EndJaw","translation":[7.270626068115234,0.000003814699994109105,0]},{"name":"EndLEar","translation":[10.075510025024414,0.0000019073499970545527,0]},{"name":"EndLFingerA2","translation":[7.4827117919921875,-0.000005722049991163658,-0.0000019073499970545527]},{"name":"EndLFingerB2","translation":[7.953388214111328,0,9.536739753457368e-7]},{"name":"EndLFingerC2","translation":[7.723598003387451,0.0000014305099966804846,-0.0000028610199933609692]},{"name":"EndLFoot","translation":[8.088418006896973,-9.536739753457368e-7,0.000003814699994109105]},{"name":"EndLHand","translation":[12.589900016784668,0,0]},{"name":"EndLToeA2","translation":[9.22402286529541,-9.536739753457368e-7,0.0000014305099966804846]},{"name":"EndLToeB2","translation":[8.147581100463867,-9.536739753457368e-7,0.0000019073499970545527]},{"name":"EndLToeC2","translation":[6.210223197937012,2.3841900542720396e-7,-9.536739753457368e-7]},{"name":"EndREar","translation":[10.075389862060547,-0.000020980800400138833,0]},{"name":"EndRFingerA2","translation":[7.482651233673096,0.00003719329833984375,-0.000029563900170614943]},{"name":"EndRFingerB2","translation":[7.953400135040283,-5.96045985901128e-8,-0.00006294249760685489]},{"name":"EndRFingerC2","translation":[7.723590850830078,0.00004816060027224012,0.0000724791971151717]},{"name":"EndRFoot","translation":[8.088420867919922,0,0.0000019073499970545527]},{"name":"EndRHand","translation":[12.589810371398926,0.0000019073499970545527,0.000003814699994109105]},{"name":"EndRToeA2","translation":[9.224035263061523,0.0000023841901111154584,0.000006198879873409169]},{"name":"EndRToeB2","translation":[8.147565841674805,0.000002145769940398168,-0.000005722049991163658]},{"name":"EndRToeC2","translation":[6.210255146026611,-0.0000023841901111154584,0.0000019073499970545527]},{"name":"EndTail5","translation":[15.726099967956543,-0.000011444099982327316,5.96045985901128e-8]},{"name":"EnvironmentAmbientLight","scale":[0.02539999969303608,0.02539999969303608,0.02539999969303608]},{"name":"Lamp","rotation":[0.16907575726509094,0.7558802962303162,-0.27217137813568115,0.570947527885437],"scale":[1,1,0.9999999403953552],"translation":[4.076245307922363,5.903861999511719,-1.0054539442062378]},{"children":[29],"name":"Origin"},{"children":[26,28],"name":"pm0063_00","rotation":[0.7071065902709961,0,0,0.7071069478988647],"scale":[0.02539999969303608,0.02539999969303608,0.02539999969303608]},{"name":"pm0063_00_Skin"},{"children":[0,30,64],"name":"Waist","rotation":[0,0.7071080803871155,0,0.7071055173873901],"scale":[1,0.9999999403953552,1],"translation":[0,1.3807499408721924,-47.36040115356445]},{"children":[31,32,45,58],"name":"Waist_Hips","rotation":[-0.5000001192092896,0.4999999701976776,-0.4999999701976776,0.5000001192092896],"translation":[-48.74113464355469,45.97965621948242,-0.00018225297390017658]},{"name":"Waist_EndHips","translation":[16.965904235839844,-0.00010633468627929688,-0.000009965591743821278]},{"children":[33],"name":"Waist_LThigh","rotation":[0,-0.00906884204596281,0,0.999958872795105],"scale":[0.9999999403953552,1,0.9999999403953552],"translation":[10.599437713623047,-9.672499656677246,1.0793339014053345]},{"children":[34],"name":"Waist_LLeg","rotation":[0,0.05800442025065422,0,0.9983164072036743],"translation":[11.642333984375,-0.0000743865966796875,-0.4225267171859741]},{"children":[35,36,39,42],"name":"Waist_LFoot","rotation":[0,-0.7408705949783325,0,0.6716477870941162],"translation":[17.18048667907715,-0.00011539459228515625,3.40887451171875]},{"name":"Waist_EndLFoot","rotation":[0,1.4891327282384736e-8,0,1],"translation":[-8.088418006896973,0.0000247955322265625,-0.000011962834832957014]},{"children":[37],"name":"Waist_LToeA1","rotation":[0,0.029856443405151367,0,0.9995542764663696],"scale":[0.9999999403953552,1,0.9999999403953552],"translation":[-11.033677101135254,4.645025253295898,-4.804797172546387]},{"children":[38],"name":"Waist_LToeA2","rotation":[0,-1.862645149230957e-8,0,1],"translation":[-5.533660888671875,1.506582260131836,-0.6759299039840698]},{"name":"Waist_EndLToeA2","translation":[-8.838889122009277,2.4064550399780273,-1.0796597003936768]},{"children":[40],"name":"Waist_LToeB1","rotation":[0,0.03412151336669922,0,0.999417781829834],"scale":[0.9999999403953552,1,0.9999999403953552],"translation":[-11.298901557922363,-3.506959915161133,-4.786428928375244]},{"children":[41],"name":"Waist_LToeB2","rotation":[0,1.1175870895385742e-8,0,1],"translation":[-5.567248344421387,-1.8983097076416016,-0.7864700555801392]},{"name":"Waist_EndLToeB2","translation":[-7.643588066101074,-2.6062889099121094,-1.0797886848449707]},{"children":[43],"name":"Waist_LToeC1","rotation":[0,0.07957594096660614,0,0.9968287944793701],"translation":[5.452810764312744,0.48238086700439453,-4.761814594268799]},{"children":[44],"name":"Waist_LToeC2","rotation":[0,-7.450580596923828e-9,0,1],"translation":[4.94335412979126,-0.00001049041748046875,0.0000020265579223632812]},{"name":"Waist_EndLToeC2","translation":[6.21022367477417,-0.0000152587890625,2.682209014892578e-7]},{"children":[46],"name":"Waist_RThigh","rotation":[0,-0.00906884204596281,0,0.999958872795105],"scale":[0.9999999403953552,1,0.9999999403953552],"translation":[10.599559783935547,9.67234992980957,1.0794063806533813]},{"children":[47],"name":"Waist_RLeg","rotation":[0,0.05800442025065422,0,0.9983164072036743],"translation":[11.642334938049316,-0.0000743865966796875,-0.42252132296562195]},{"children":[48,49,52,55],"name":"Waist_RFoot","rotation":[0,-0.7408705949783325,0,0.6716477870941162],"translation":[17.180583953857422,-0.000118255615234375,3.408888339996338]},{"name":"Waist_EndRFoot","rotation":[0,1.4901814893164556e-8,0,1],"translation":[-8.088421821594238,0.00002765655517578125,-0.000010532261512707919]},{"children":[50],"name":"Waist_RToeA1","rotation":[0,0.0298346895724535,0,0.9995549321174622],"translation":[-11.033711433410645,-4.64497184753418,-4.8047709465026855]},{"children":[51],"name":"Waist_RToeA2","rotation":[0,-1.4156104555240745e-7,0,1],"scale":[0.9999999403953552,1,0.9999999403953552],"translation":[-5.5336689949035645,-1.5065422058105469,-0.6756702661514282]},{"name":"Waist_EndRToeA2","translation":[-8.838964462280273,-2.4063894748687744,-1.0792492628097534]},{"children":[53],"name":"Waist_RToeB1","rotation":[0,0.03413884714245796,0,0.9994171261787415],"translation":[-11.298890113830566,3.507020950317383,-4.786447048187256]},{"children":[54],"name":"Waist_RToeB2","rotation":[0,3.725290298461914e-9,0,1],"translation":[-5.5672807693481445,1.8983211517333984,-0.7866799831390381]},{"name":"Waist_EndRToeB2","translation":[-7.643516540527344,2.606337547302246,-1.0800620317459106]},{"children":[56],"name":"Waist_RToeC1","rotation":[0,0.07957594096660614,0,0.9968287944793701],"translation":[5.4528069496154785,-0.48243236541748047,-4.76181173324585]},{"children":[57],"name":"Waist_RToeC2","rotation":[0,-7.450580596923828e-9,0,1],"translation":[4.943339824676514,-0.0000286102294921875,-0.000003814697265625]},{"name":"Waist_EndRToeC2","translation":[6.210254669189453,-0.0000362396240234375,-0.00000260770320892334]},{"children":[59],"name":"Waist_Tail1","rotation":[0,-0.7071065902709961,0,0.7071070671081543],"translation":[11.652711868286133,-0.00010251998901367188,7.349208354949951]},{"children":[60],"name":"Waist_Tail2","rotation":[0,0.0000026403149604448117,0,1],"translation":[13.99999713897705,-0.004888057708740234,-0.000005981418325973209]},{"children":[61],"name":"Waist_Tail3","rotation":[0,1.3000317267142236e-8,0,1],"translation":[21.55049705505371,-0.007502556312829256,0.00011583772720769048]},{"children":[62],"name":"Waist_Tail4","rotation":[0,2.2737367544323206e-13,0,1],"translation":[18.442502975463867,-0.006420612335205078,0.0001057080298778601]},{"children":[63],"name":"Waist_Tail5","rotation":[0,6.821210263296962e-13,0,1],"translation":[13.18896484375,-0.004591941833496094,0.00005452873301692307]},{"name":"Waist_EndTail5","translation":[15.726102828979492,-0.005475521087646484,0.000059682162827812135]},{"children":[65],"name":"Waist_Spine1","rotation":[-0.5000001192092896,-0.4999999701976776,0.4999999701976776,0.5000001192092896],"translation":[-48.74113464355469,45.97965621948242,-0.00018225284293293953]},{"children":[66,74,88],"name":"Waist_Spine2","rotation":[0,0.04843009263277054,0,0.9988265633583069],"translation":[4.8140716552734375,0.000017970800399780273,6.86199200572446e-7]},{"children":[67,68,70,72],"name":"Waist_Head","rotation":[0,-0.18949441611766815,0,0.9818817973136902],"scale":[0.9999999403953552,1,0.9999999403953552],"translation":[15.818183898925781,0.00005313754081726074,0.00000476837158203125]},{"name":"Waist_EndHead","scale":[0.9999999403953552,1,0.9999999403953552],"translation":[21.356531143188477,0.00009804964065551758,-0.00000762939453125]},{"children":[69],"name":"Waist_Jaw","rotation":[0,0.9854868650436401,0,0.16975165903568268],"scale":[1,0.9999999403953552,1],"translation":[-0.029590606689453125,0.00003221631050109863,11.950702667236328]},{"name":"Waist_EndJaw","rotation":[0,2.9802322387695312e-8,0,1],"translation":[2.284992218017578,-0.000017523765563964844,-6.902237892150879]},{"children":[71],"name":"Waist_LEar","rotation":[0,0.05085163936018944,0,0.9987062215805054],"translation":[14.631274223327637,-10.582645416259766,-2.7301197052001953]},{"name":"Waist_EndLEar","translation":[7.567591667175293,-6.300145149230957,-2.1343917846679688]},{"children":[73],"name":"Waist_REar","rotation":[0,0.05085134133696556,0,0.9987062215805054],"scale":[0.9999999403953552,1,0.9999999403953552],"translation":[14.63117504119873,10.582755088806152,-2.7301807403564453]},{"name":"Waist_EndREar","rotation":[0,7.450580596923828e-9,0,1],"translation":[7.567451477050781,6.300112724304199,-2.134428024291992]},{"children":[75],"name":"Waist_LShoulder","rotation":[0,-0.08305103331804276,0,0.9965453147888184],"translation":[10.286426544189453,-8.200916290283203,0.022465229034423828]},{"children":[76],"name":"Waist_LArm","rotation":[0,0.15303415060043335,0,0.9882209300994873],"translation":[-1.6250877380371094,-4.831048965454102,0.35384416580200195]},{"children":[77],"name":"Waist_LForeArm","rotation":[0,-0.02501249499619007,0,0.999687135219574],"translation":[-11.047836303710938,-7.415932655334473,-3.217841148376465]},{"children":[78,79,82,85],"name":"Waist_LHand","rotation":[0,0.013787969015538692,0,0.999904990196228],"translation":[-13.507771492004395,-8.904743194580078,-2.373556137084961]},{"name":"Waist_EndLHand","translation":[-10.907327651977539,-5.901460647583008,-2.1699185371398926]},{"children":[80],"name":"Waist_LFingerA1","rotation":[0,0.9432799816131592,0,0.3319986164569855],"translation":[-5.219932556152344,-2.0424556732177734,2.9491639137268066]},{"children":[81],"name":"Waist_LFingerA2","rotation":[0,-0.6106694340705872,0,0.7918856143951416],"translation":[2.460834503173828,1.0674896240234375,-3.99072265625]},{"name":"Waist_EndLFingerA2","rotation":[0,-7.450580596923828e-9,0,1],"translation":[-1.6933212280273438,5.6925048828125,-4.551817893981934]},{"children":[83],"name":"Waist_LFingerB1","rotation":[0,0.09109571576118469,0,0.9958421587944031],"translation":[-5.403787612915039,-2.8990345001220703,-0.6362605094909668]},{"children":[84],"name":"Waist_LFingerB2","rotation":[0,-0.1703060120344162,0,0.9853912591934204],"scale":[1.0000001192092896,1,1.0000001192092896],"translation":[-4.728359222412109,0.5244846343994141,-1.941939353942871]},{"name":"Waist_EndLFingerB2","translation":[-5.338055610656738,5.884836196899414,-0.36091136932373047]},{"children":[86],"name":"Waist_LFingerC1","rotation":[0,-0.9657927751541138,0,0.25931501388549805],"translation":[-3.8926143646240234,-2.4271163940429688,-4.139523506164551]},{"children":[87],"name":"Waist_LFingerC2","rotation":[0,0.5892380475997925,0,0.8079594969749451],"translation":[1.7170886993408203,0.7867107391357422,4.4128265380859375]},{"name":"Waist_EndLFingerC2","rotation":[0,-1.4901161193847656e-8,0,1],"translation":[-2.574347496032715,5.883447647094727,4.290897369384766]},{"children":[89],"name":"Waist_RShoulder","rotation":[0,-0.08304593712091446,0,0.9965457320213318],"translation":[10.286352157592773,8.200982093811035,0.022396564483642578]},{"children":[90],"name":"Waist_RArm","rotation":[0,0.15304258465766907,0,0.9882196187973022],"translation":[-1.625105381011963,4.8310546875,0.3537864685058594]},{"children":[91],"name":"Waist_RForeArm","rotation":[0,-0.02501249499619007,0,0.999687135219574],"translation":[-11.047774314880371,7.4158430099487305,-3.218202590942383]},{"children":[92,93,96,99],"name":"Waist_RHand","rotation":[0,0.01379069872200489,0,0.9999049305915833],"scale":[0.9999999403953552,1,0.9999999403953552],"translation":[-13.507746696472168,8.90464973449707,-2.3740005493164062]},{"name":"Waist_EndRHand","scale":[0.9999999403953552,1,0.9999999403953552],"translation":[-10.907210350036621,5.901340484619141,-2.1703062057495117]},{"children":[94],"name":"Waist_RFingerA1","rotation":[0,0.9432693719863892,0,0.33202874660491943],"scale":[1,0.9999999403953552,1],"translation":[-5.219980239868164,2.0423831939697266,2.9489827156066895]},{"children":[95],"name":"Waist_RFingerA2","rotation":[0,-0.6106646656990051,0,0.7918893098831177],"scale":[0.9999999403953552,1,0.9999999403953552],"translation":[2.4607772827148438,-1.0675048828125,-3.990854263305664]},{"name":"Waist_EndRFingerA2","scale":[0.9999999403953552,0.9999999403953552,0.9999999403953552],"translation":[-1.6934270858764648,-5.692522048950195,-4.5516557693481445]},{"children":[97],"name":"Waist_RFingerB1","rotation":[0,0.0909934937953949,0,0.9958515167236328],"scale":[0.9999999403953552,1,0.9999999403953552],"translation":[-5.403785705566406,2.898967742919922,-0.636467456817627]},{"children":[98],"name":"Waist_RFingerB2","rotation":[0,-0.17022930085659027,0,0.9854044914245605],"translation":[-4.728663444519043,-0.5245189666748047,-1.9411077499389648]},{"name":"Waist_EndRFingerB2","scale":[0.9999999403953552,1,0.9999999403953552],"translation":[-5.337969779968262,-5.884931564331055,-0.3607807159423828]},{"children":[100],"name":"Waist_RFingerC1","rotation":[0,-0.9657929539680481,0,0.25931480526924133],"translation":[-3.892470359802246,2.4270591735839844,-4.139666557312012]},{"children":[101],"name":"Waist_RFingerC2","rotation":[0,0.5892249345779419,0,0.8079690933227539],"scale":[1.0000001192092896,1,1.0000001192092896],"translation":[1.7169198989868164,-0.7868156433105469,4.412851333618164]},{"name":"Waist_EndRFingerC2","rotation":[0,1.4901161193847656e-8,0,1],"translation":[-2.574310302734375,-5.883426666259766,4.2909321784973145]}],"samplers":[{}],"scene":0,"scenes":[{"name":"Scene","nodes":[17,16,15,19,8,7,6,10,14,5,4,2,23,22,21,20,18,13,12,11,9,3,27,24,25,1]}],"skins":[{"inverseBindMatrices":0,"joints":[30,31,32,33,34,35,36,37,38,39,40,41,42,43,44,45,46,47,48,49,50,51,52,53,54,55,56,57,58,59,60,61,62,63,64,65,66,67,68,69,70,71,72,73,74,75,76,77,78,79,80,81,82,83,84,85,86,87,88,89,90,91,92,93,94,95,96,97,98,99,100,101],"skeleton":29}],"textures":[{"sampler":0,"source":0}],"extensionsUsed":["ALI_amc_mesh_compression"],"extensionsRequired":["ALI_amc_mesh_compression"]}