{"accessors":[{"bufferView":0,"componentType":5126,"count":44,"max":[0.000003619989911385346,-1,0.000005177890216145897,0,1,0.000005343217253539478,1.0000001192092896,0,1.0000001192092896,8.175983339242521e-7,1,0,52.699806213378906,178.32913208007812,44.86283493041992,1],"min":[-0.0000036348912999528693,-1.0000001192092896,-0.0000036199901387590216,0,-1.0000001192092896,0.0000036199858186591882,-1.0000001192092896,0,-1.0000001192092896,-2.0430219649369974e-7,-1.0000001192092896,0,-142.96871948242188,-178.3291778564453,-120.69503021240234,1],"type":"MAT4","byteOffset":0}],"asset":{"generator":"Khronos Blender glTF 2.0 exporter","version":"2.0"},"bufferViews":[{"buffer":0,"byteLength":2816,"byteOffset":0},{"buffer":0,"byteOffset":2816,"byteLength":5559},{"buffer":0,"byteOffset":8375,"byteLength":2831},{"buffer":0,"byteOffset":11206,"byteLength":2831},{"buffer":0,"byteOffset":14037,"byteLength":139839}],"buffers":[{"byteLength":153876,"uri":"buffer.bin"}],"images":[{"name":"pm0062_00_Body1","uri":"pm0062_00_Body1.png"},{"name":"pm0062_00_Eye1","uri":"pm0062_00_Eye1.png"},{"name":"pm0062_00_Iris1","uri":"pm0062_00_Iris1.png"}],"materials":[{"alphaMode":"OPAQUE","name":"BodyNyorobon","pbrMetallicRoughness":{"baseColorFactor":[0.6400000190734865,0.6400000190734865,0.6400000190734865,1],"baseColorTexture":{"index":0},"metallicFactor":0}},{"alphaMode":"OPAQUE","name":"Eye","pbrMetallicRoughness":{"baseColorFactor":[0.6400000190734865,0.6400000190734865,0.6400000190734865,1],"baseColorTexture":{"index":1},"metallicFactor":0}},{"alphaMode":"MASK","name":"LIris","pbrMetallicRoughness":{"baseColorFactor":[0.6400000190734865,0.6400000190734865,0.6400000190734865,1],"baseColorTexture":{"index":2},"metallicFactor":0}},{"alphaMode":"MASK","name":"RIris","pbrMetallicRoughness":{"baseColorFactor":[0.6400000190734865,0.6400000190734865,0.6400000190734865,1],"baseColorTexture":{"index":2},"metallicFactor":0}}],"meshes":[{"name":"Poliwrath","primitives":[{"material":1,"extensions":{"ALI_amc_mesh_compression":{"bufferView":1}}},{"material":3,"extensions":{"ALI_amc_mesh_compression":{"bufferView":2}}},{"material":2,"extensions":{"ALI_amc_mesh_compression":{"bufferView":3}}},{"material":0,"extensions":{"ALI_amc_mesh_compression":{"bufferView":4}}}]}],"nodes":[{"children":[1,17,18],"name":"_01_pm0062_00","rotation":[0.7071068286895752,0,0,0.7071067094802856],"scale":[0.02539999783039093,0.02539999969303608,0.02539999969303608]},{"children":[2],"name":"_02_Origin"},{"children":[21,22,36],"name":"_03_Waist","rotation":[-5.024286464438499e-15,0.7071080803871155,0,0.7071055173873901],"scale":[1,0.9999999403953552,1],"translation":[0,0,-52.699798583984375]},{"name":"_05_EndHips","translation":[18.32379913330078,0,2.9103799231711136e-11]},{"name":"_09_EndLFoot","translation":[31.438899993896484,9.536739753457368e-7,-0.000007629389983776491]},{"name":"_11_EndLToe","translation":[18.845399856567383,-4.768369876728684e-7,-0.000003814699994109105]},{"name":"_15_EndRFoot","translation":[31.438800811767578,9.536739753457368e-7,0]},{"name":"_17_EndRToe","translation":[18.84531021118164,-4.768369876728684e-7,0.000003814699994109105]},{"name":"_21_EndHead","translation":[23.595199584960938,4.5474699852075806e-13,1.1641500263781523e-10]},{"name":"_25_EndLHand","translation":[72.46106719970703,4.768369876728684e-7,0]},{"name":"_28_EndLFingerA2","translation":[17.84699058532715,0.000009536740435578395,0.00001525879997643642]},{"name":"_31_EndLFingerB2","translation":[23.210329055786133,-0.000007629389983776491,-4.768369876728684e-7]},{"name":"_34_EndLFingerC2","translation":[24.591089248657227,-0.000007629389983776491,0]},{"name":"_38_EndRHand","translation":[72.46045684814453,0.00022602100216317922,0.00024414100334979594]},{"name":"_41_EndRFingerA2","translation":[17.846790313720703,0.00012206999963382259,-0.000007629389983776491]},{"name":"_44_EndRFingerB2","translation":[23.210189819335938,0.0007476810133084655,9.536739753457368e-7]},{"name":"_47_EndRFingerC2","translation":[24.591230392456055,-0.00014495800132863224,0]},{"name":"_48_pm0062_00_IrisSkin"},{"name":"_49_pm0062_00_Skin"},{"name":"Camera","rotation":[0.483536034822464,0.33687159419059753,-0.20870360732078552,0.7804827094078064],"translation":[7.481131553649902,5.34366512298584,6.5076398849487305]},{"name":"Lamp","rotation":[0.16907575726509094,0.7558802962303162,-0.27217137813568115,0.570947527885437],"scale":[1,1,0.9999999403953552],"translation":[4.076245307922363,5.903861999511719,-1.0054539442062378]},{"mesh":0,"name":"Poliwrath","rotation":[0.49999913573265076,-0.5000008940696716,0.5000009536743164,0.4999990463256836],"scale":[1,1,1.0000001192092896],"skin":0,"translation":[-52.69980239868164,0,-0.0001907727710204199]},{"children":[23,24,30],"name":"_03_Waist__04_Hips","rotation":[-0.5,0.5000000596046448,-0.5000000596046448,0.5],"scale":[1,0.9999999403953552,1],"translation":[-52.699798583984375,52.699806213378906,-0.0001970550511032343]},{"name":"_03_Waist__05_EndHips","translation":[18.32379722595215,-0.0000019073340808972716,0.000002312074229848804]},{"children":[25],"name":"_03_Waist__06_LThigh","translation":[9.75798225402832,-28.30097198486328,0.38926127552986145]},{"children":[26],"name":"_03_Waist__07_LLeg","rotation":[0,0.021994542330503464,0,0.9997581243515015],"translation":[17.345998764038086,-0.000118255615234375,-0.0000011188288908670074]},{"children":[27,28],"name":"_03_Waist__08_LFoot","rotation":[0,0.6912725567817688,0,0.7225940823554993],"scale":[1,0.9999999403953552,1],"translation":[12.687915802001953,-0.0000743865966796875,1.2105443477630615]},{"name":"_03_Waist__09_EndLFoot","rotation":[0,8.585629984736443e-10,0,1],"translation":[31.43890380859375,0.0000553131103515625,-0.009653840214014053]},{"children":[29],"name":"_03_Waist__10_LToe","rotation":[0,-2.3756001610308886e-7,0,1],"translation":[21.376737594604492,-0.17154502868652344,7.686539649963379]},{"name":"_03_Waist__11_EndLToe","translation":[18.84540557861328,0.00006103515625,-0.0057803429663181305]},{"children":[31],"name":"_03_Waist__12_RThigh","translation":[9.758291244506836,28.300832748413086,0.38947489857673645]},{"children":[32],"name":"_03_Waist__13_RLeg","rotation":[0,0.021994544193148613,0,0.9997581243515015],"translation":[17.346097946166992,-0.0001049041748046875,-0.0000011188110420334851]},{"children":[33,34],"name":"_03_Waist__14_RFoot","rotation":[0,-0.722488284111023,0,0.6913832426071167],"scale":[0.9999999403953552,0.9999998807907104,0.9999999403953552],"translation":[12.687804222106934,-0.0000782012939453125,1.2105343341827393]},{"name":"_03_Waist__15_EndRFoot","rotation":[0,-6.68163983343073e-13,0,1],"translation":[-31.43880844116211,0.000118255615234375,-0.0000286102294921875]},{"children":[35],"name":"_03_Waist__16_RToe","rotation":[0,-6.404687435783429e-13,0,1],"translation":[-21.374385833740234,-0.015972137451171875,-7.694977283477783]},{"name":"_03_Waist__17_EndRToe","translation":[-18.845314025878906,0.0000762939453125,1.176907460376242e-10]},{"children":[37],"name":"_03_Waist__18_Spine1","rotation":[-0.5,-0.5000000596046448,0.5000000596046448,0.5],"scale":[1,0.9999999403953552,1],"translation":[-52.699798583984375,52.69981384277344,-0.0001970550511032343]},{"children":[38,40,53],"name":"_03_Waist__19_Spine2","translation":[31.136991500854492,0.00011500717664603144,0.000003964771167375147]},{"children":[39],"name":"_03_Waist__20_Head","translation":[35.53670883178711,0.0001313686661887914,-0.0000014032848412171006]},{"name":"_03_Waist__21_EndHead","translation":[23.5952091217041,2.9103830456733704e-11,-0.000002434664111206075]},{"children":[41],"name":"_03_Waist__22_LArm","rotation":[0,0.0018540015444159508,0,0.9999982714653015],"translation":[26.04014778137207,-52.28153610229492,-4.815735816955566]},{"children":[42],"name":"_03_Waist__23_LForeArm","rotation":[1.490100309808895e-8,-0.0000015497209915338317,-1.0209626566393126e-7,1],"scale":[0.9999999403953552,0.9999999403953552,0.9999999403953552],"translation":[-0.0015551894903182983,-28.984600067138672,-0.10748130083084106]},{"children":[43,44,47,50],"name":"_03_Waist__24_LHand","rotation":[-1.4901161193847656e-8,0,1.0209623724222183e-7,1],"translation":[-0.0013762008165940642,-24.6025390625,-0.09106705337762833]},{"name":"_03_Waist__25_EndLHand","rotation":[2.50801161726078e-21,0,-1.4293680984916318e-21,1],"translation":[-0.004088222980499268,-72.46057891845703,-0.26847246289253235]},{"children":[45],"name":"_03_Waist__26_LFingerA1","rotation":[3.636538812169564e-21,-0.2834502160549164,4.913122854892887e-21,0.9589869976043701],"translation":[-8.736564636230469,-13.918777465820312,16.6763973236084]},{"children":[46],"name":"_03_Waist__27_LFingerA2","rotation":[5.0926351842043154e-21,0.06399069726467133,0,0.9979504942893982],"scale":[0.9999999403953552,0.9999999403953552,0.9999999403953552],"translation":[3.164642333984375,-14.904441833496094,9.504600524902344]},{"name":"_03_Waist__28_EndLFingerA2","rotation":[9.5367431640625e-7,0,-4.914649484361218e-15,1],"translation":[0.8118743896484375,-15.891204833984375,8.082452774047852]},{"children":[48],"name":"_03_Waist__29_LFingerB1","rotation":[2.7744366778722717e-21,0.7058219313621521,-1.574194983728736e-21,0.708389401435852],"translation":[10.422540664672852,-25.720542907714844,9.485767364501953]},{"children":[49],"name":"_03_Waist__30_LFingerB2","rotation":[2.9802322387695312e-8,-5.9473677538335323e-8,-1.7723842548776278e-15,1],"translation":[0.06677861511707306,-18.042495727539062,-0.0012498879805207253]},{"name":"_03_Waist__31_EndLFingerB2","rotation":[-2.9802322387695312e-8,-1.0164395367051604e-20,-1.7977674599528424e-19,1],"translation":[0.08599241822957993,-23.210166931152344,-0.0016231812769547105]},{"children":[51],"name":"_03_Waist__32_LFingerC1","rotation":[2.7744366778722717e-21,0.7058219313621521,-1.574194983728736e-21,0.708389401435852],"translation":[10.860553741455078,-25.285926818847656,-10.770589828491211]},{"children":[52],"name":"_03_Waist__33_LFingerC2","rotation":[6.700162961679524e-23,-5.9244484873488545e-8,4.5971596518400204e-21,1],"translation":[0.06680901348590851,-18.050277709960938,-0.001255623996257782]},{"name":"_03_Waist__34_EndLFingerC2","rotation":[1.0443155233481974e-20,0,7.450580596923828e-9,1],"translation":[0.0911078006029129,-24.590927124023438,-0.0017251917161047459]},{"children":[54],"name":"_03_Waist__35_RArm","rotation":[0,0.0018577566370368004,0,0.9999982714653015],"translation":[26.03995704650879,52.281673431396484,-4.81612491607666]},{"children":[55],"name":"_03_Waist__36_RForeArm","rotation":[2.9802322387695312e-8,0,0,1],"translation":[-0.0017286241054534912,28.984607696533203,-0.10770648717880249]},{"children":[56,57,60,63],"name":"_03_Waist__37_RHand","rotation":[-2.9802322387695312e-8,0,0,1],"translation":[-0.001755833625793457,24.60287094116211,-0.09124874323606491]},{"name":"_03_Waist__38_EndRHand","translation":[-0.004365086555480957,72.45995330810547,-0.2690157890319824]},{"children":[58],"name":"_03_Waist__39_RFingerA1","rotation":[0,-0.2834513783454895,0,0.9589866399765015],"scale":[0.9999999403953552,1,0.9999999403953552],"translation":[-8.73708438873291,13.919013977050781,16.676170349121094]},{"children":[59],"name":"_03_Waist__40_RFingerA2","rotation":[0,0.06399045884609222,0,0.9979506134986877],"translation":[3.1645431518554688,14.904014587402344,9.504425048828125]},{"name":"_03_Waist__41_EndRFingerA2","scale":[1,0.9999999403953552,1],"translation":[0.8117294311523438,15.8909912109375,8.082401275634766]},{"children":[61],"name":"_03_Waist__42_RFingerB1","rotation":[0,0.7058194279670715,0,0.7083917856216431],"translation":[10.422754287719727,25.72010040283203,9.485692024230957]},{"children":[62],"name":"_03_Waist__43_RFingerB2","rotation":[0,0.0000030792216421104968,0,1],"translation":[0.06691005825996399,18.043014526367188,-0.0020710392855107784]},{"name":"_03_Waist__44_EndRFingerB2","translation":[0.08616575598716736,23.210037231445312,-0.0011106254532933235]},{"children":[64],"name":"_03_Waist__45_RFingerC1","rotation":[0,0.7058194279670715,0,0.7083917856216431],"translation":[10.86097526550293,25.28600311279297,-10.770638465881348]},{"children":[65],"name":"_03_Waist__46_RFingerC2","rotation":[0,0.000003079112502746284,0,1],"translation":[0.0669696256518364,18.050018310546875,-0.002055318094789982]},{"name":"_03_Waist__47_EndRFingerC2","rotation":[0,0,7.450580596923828e-9,1],"translation":[0.09129293262958527,24.591064453125,-0.002121747937053442]}],"samplers":[{}],"scene":0,"scenes":[{"name":"Scene","nodes":[16,15,14,13,12,11,10,9,8,7,6,5,4,3,0,20,19]}],"skins":[{"inverseBindMatrices":0,"joints":[22,23,24,25,26,27,28,29,30,31,32,33,34,35,36,37,38,39,40,41,42,43,44,45,46,47,48,49,50,51,52,53,54,55,56,57,58,59,60,61,62,63,64,65],"skeleton":2}],"textures":[{"sampler":0,"source":0},{"sampler":0,"source":1},{"sampler":0,"source":2},{"sampler":0,"source":2}],"extensionsUsed":["ALI_amc_mesh_compression"],"extensionsRequired":["ALI_amc_mesh_compression"]}