{"accessors":[{"bufferView":0,"componentType":5126,"count":40,"max":[1,0,1,0,0.9737110733985901,0,1,0,0,-1,0,0,23.643539428710938,13.63878059387207,23.062297821044922,1],"min":[-0.7124327421188354,0,-0.9737110733985901,0,-1,0,-0.7124327421188354,0,0,-1.0000001192092896,0,0,-38.21841812133789,-29.77082061767578,-32.84391403198242,1],"type":"MAT4","byteOffset":0}],"asset":{"generator":"Khronos Blender glTF 2.0 exporter","version":"2.0"},"bufferViews":[{"buffer":0,"byteLength":2560,"byteOffset":0},{"buffer":0,"byteOffset":2560,"byteLength":120707},{"buffer":0,"byteOffset":123267,"byteLength":3651},{"buffer":0,"byteOffset":126918,"byteLength":3651},{"buffer":0,"byteOffset":130569,"byteLength":1123}],"buffers":[{"byteLength":131692,"uri":"buffer.bin"}],"images":[{"name":"pm0151_00_Body1","uri":"pm0151_00_Body1.png"},{"name":"pm0151_00_Eye1","uri":"pm0151_00_Eye1.png"},{"name":"pm0151_00_Mouth1","uri":"pm0151_00_Mouth1.png"},{"name":"pm0151_00_Iris1","uri":"pm0151_00_Iris1.png"}],"materials":[{"alphaMode":"OPAQUE","name":"Material__62","pbrMetallicRoughness":{"baseColorFactor":[0.6400000190734865,0.6400000190734865,0.6400000190734865,1],"baseColorTexture":{"index":0},"metallicFactor":0}},{"alphaMode":"OPAQUE","name":"Material__63","pbrMetallicRoughness":{"baseColorFactor":[0.6400000190734865,0.6400000190734865,0.6400000190734865,1],"baseColorTexture":{"index":1},"metallicFactor":0}},{"alphaMode":"OPAQUE","name":"Material__64","pbrMetallicRoughness":{"baseColorFactor":[0.6400000190734865,0.6400000190734865,0.6400000190734865,1],"baseColorTexture":{"index":2},"metallicFactor":0}},{"alphaMode":"MASK","name":"Material__65","pbrMetallicRoughness":{"baseColorFactor":[0.6400000190734865,0.6400000190734865,0.6400000190734865,1],"baseColorTexture":{"index":3},"metallicFactor":0}}],"meshes":[{"name":"Mew","primitives":[{"material":0,"extensions":{"ALI_amc_mesh_compression":{"bufferView":1}}},{"material":3,"extensions":{"ALI_amc_mesh_compression":{"bufferView":2}}},{"material":1,"extensions":{"ALI_amc_mesh_compression":{"bufferView":3}}},{"material":2,"extensions":{"ALI_amc_mesh_compression":{"bufferView":4}}}]}],"nodes":[{"children":[3,4],"name":"Armature","scale":[0.02539999969303608,0.02539999969303608,0.02539999969303608]},{"name":"Camera","rotation":[0.483536034822464,0.33687159419059753,-0.20870360732078552,0.7804827094078064],"translation":[7.481131553649902,5.34366512298584,6.5076398849487305]},{"name":"Lamp","rotation":[0.16907575726509094,0.7558802962303162,-0.27217137813568115,0.570947527885437],"scale":[1,1,0.9999999403953552],"translation":[4.076245307922363,5.903861999511719,-1.0054539442062378]},{"mesh":0,"name":"Mew","skin":0},{"children":[5,42,43],"name":"Armature_pm0151_00","rotation":[-0.7071068286895752,0,0,0.7071068286895752]},{"children":[6],"name":"Armature_Origin"},{"children":[7,25],"name":"Armature_Waist","rotation":[0,-0.7835135459899902,0,0.6213747262954712],"translation":[0,0.08690818399190903,18.80419921875]},{"children":[8,9,15,21],"name":"Armature_Hips","rotation":[0,-0.993406355381012,0,0.1146463006734848],"translation":[-2.676042925031652e-7,8.121132850646973e-7,-0.0000011439168474680628]},{"name":"Armature_EndHips","rotation":[0,-2.2847871150588617e-8,0,1],"translation":[13.620699882507324,0,1.325788616668433e-7]},{"children":[10],"name":"Armature_LThigh","rotation":[0,-0.045829709619283676,0,0.9989492893218994],"translation":[3.414069890975952,0.9902289509773254,5.547086715698242]},{"children":[11],"name":"Armature_LLeg","rotation":[0,0.18039320409297943,0,0.9835946559906006],"scale":[0.9999999403953552,1,0.9999999403953552],"translation":[7.132660388946533,-0.658607542514801,-0.6558445692062378]},{"children":[12,13],"name":"Armature_LFoot","rotation":[0,-0.7961671948432922,0,0.6050767302513123],"translation":[5.648351669311523,1.6292994022369385,1.5698003768920898]},{"name":"Armature_EndLFoot","rotation":[0,9.884161045192741e-9,0,1],"translation":[0.000045880871766712517,-14.361398696899414,-0.000042357361962785944]},{"children":[14],"name":"Armature_LToe","rotation":[0,9.879954632197041e-9,0,1],"translation":[0.00003331989864818752,-9.824207305908203,-0.9052792191505432]},{"name":"Armature_EndLToe","rotation":[0,-1.1368683772161603e-13,0,1],"translation":[0.00001803231680241879,-5.862391471862793,-0.000017452208339818753]},{"children":[16],"name":"Armature_RThigh","rotation":[0,-0.045829709619283676,0,0.9989492893218994],"translation":[3.414072275161743,0.9902368187904358,-5.547083377838135]},{"children":[17],"name":"Armature_RLeg","rotation":[0,0.18039320409297943,0,0.9835946559906006],"scale":[0.9999999403953552,1,0.9999999403953552],"translation":[7.132659912109375,-0.6586084961891174,-0.6558437347412109]},{"children":[18,20],"name":"Armature_RFoot","rotation":[0,-0.7998461127281189,0,0.6002052426338196],"translation":[5.648338317871094,1.629309058189392,1.5698065757751465]},{"children":[19],"name":"Armature_RToe","rotation":[0,-5.168840289115906e-8,0,1],"translation":[0.00003382563591003418,-9.824216842651367,-0.9052801728248596]},{"name":"Armature_EndRToe","translation":[0.000017138198018074036,-5.862410068511963,-0.000012487173080444336]},{"name":"Armature_EndRFoot","rotation":[0,-1.3969838619232178e-8,0,1],"translation":[0.000044850632548332214,-14.361299514770508,-0.00004369020462036133]},{"children":[22],"name":"Armature_Tail1","rotation":[0,-0.6405974626541138,0,0.7678768634796143],"translation":[7.556095123291016,5.992772102355957,0.000007577360520372167]},{"children":[23],"name":"Armature_Tail2","rotation":[0,-7.450580596923828e-9,0,1],"translation":[0.2632195055484772,8.057491302490234,-1.4444833993911743]},{"children":[24],"name":"Armature_Tail3","rotation":[0,-7.450580596923828e-9,0,1],"translation":[0.257209837436676,7.873539924621582,-1.4115042686462402]},{"name":"Armature_Tail4","rotation":[0,7.450580596923828e-9,0,1],"translation":[0.2535044252872467,7.760107040405273,-1.3911703824996948]},{"children":[26],"name":"Armature_Spine1","rotation":[0,5.960464477539063e-8,0,1],"translation":[0.00001643404357309919,-0.0000041425228118896484,-0.000016051089914981276]},{"children":[27,34,38],"name":"Armature_Spine2","rotation":[0,-0.017522286623716354,0,0.9998465776443481],"translation":[2.9249281883239746,-0.7026911377906799,-0.6842390298843384]},{"children":[28],"name":"Armature_Neck","rotation":[0,-0.018191354349255562,0,0.9998345375061035],"scale":[0.9999999403953552,1,0.9999999403953552],"translation":[3.4909422397613525,-0.9810271263122559,-0.9468088746070862]},{"children":[29,30,32],"name":"Armature_Head","rotation":[0,-0.030312834307551384,0,0.9995404481887817],"translation":[2.7491753101348877,-0.8944050073623657,-0.8541321754455566]},{"name":"Armature_EndHead","translation":[11.747499465942383,-4.754779815673828,-4.446852684020996]},{"children":[31],"name":"Armature_LEar","rotation":[0,0.6809696555137634,0,0.7323116660118103],"scale":[0.9999999403953552,1,0.9999999403953552],"translation":[7.010639667510986,-1.6354029178619385,-8.699049949645996]},{"name":"Armature_EndLEar","rotation":[0,2.9802322387695312e-8,0,1],"translation":[4.149751663208008,0.7275581359863281,0.8088979721069336]},{"children":[33],"name":"Armature_REar","rotation":[0,-0.21387915313243866,0,0.9768602252006531],"scale":[0.9999999403953552,1,0.9999999403953552],"translation":[11.013750076293945,-1.635345697402954,1.876225471496582]},{"name":"Armature_EndREar","rotation":[0,-4.470348358154297e-8,0,1],"translation":[4.179868221282959,0.727562427520752,0.6352882385253906]},{"children":[35],"name":"Armature_LArm","rotation":[0,0.8521085381507874,0,0.5233652591705322],"scale":[0.9999999403953552,0.9999999403953552,0.9999999403953552],"translation":[0.5156362652778625,-1.3934564590454102,-3.999307870864868]},{"children":[36],"name":"Armature_LForeArm","rotation":[0,-7.450580596923828e-9,0,1],"translation":[2.7571449279785156,-1.2816746234893799,-0.3203723430633545]},{"children":[37],"name":"Armature_LHand","rotation":[0,5.140900611877441e-7,0,1],"translation":[2.812549114227295,-1.307427167892456,-0.3268197774887085]},{"name":"Armature_EndLHand","rotation":[0,7.450580596923828e-9,0,1],"translation":[1.868154525756836,-0.8684196472167969,-0.21707415580749512]},{"children":[39],"name":"Armature_RArm","rotation":[0,-0.9980290532112122,0,0.06275508552789688],"translation":[2.4656429290771484,-1.3934292793273926,3.1907622814178467]},{"children":[40],"name":"Armature_RForeArm","rotation":[0,3.725290298461914e-8,0,1],"translation":[0.4989808201789856,-1.2817087173461914,-2.73045015335083]},{"children":[41],"name":"Armature_RHand","rotation":[0,5.289912223815918e-7,0,1],"translation":[0.5090831518173218,-1.3074378967285156,-2.785318374633789]},{"name":"Armature_EndRHand","rotation":[0,1.4901161193847656e-8,0,1],"translation":[0.33816778659820557,-0.8684225082397461,-1.850092887878418]},{"name":"Armature_pm0151_00_BodySkin"},{"name":"Armature_pm0151_00_IrisSkin"}],"samplers":[{}],"scene":0,"scenes":[{"name":"Scene","nodes":[0,2,1]}],"skins":[{"inverseBindMatrices":0,"joints":[4,5,6,7,8,9,10,11,12,13,14,15,16,17,18,19,20,21,22,23,24,25,26,27,28,29,30,31,32,33,34,35,36,37,38,39,40,41,42,43],"skeleton":0}],"textures":[{"sampler":0,"source":0},{"sampler":0,"source":1},{"sampler":0,"source":2},{"sampler":0,"source":3}],"extensionsUsed":["ALI_amc_mesh_compression"],"extensionsRequired":["ALI_amc_mesh_compression"]}