{"accessors":[{"bufferView":0,"componentType":5126,"count":23,"max":[1.000000238418579,-2.273738109685036e-13,0.0008980910060927272,0,1.0000001192092896,0,1.0000001192092896,0,4.5474751351679e-13,-1.0000001192092896,5.9604204238894454e-8,0,75.88636779785156,18.742956161499023,47.832054138183594,1],"min":[-0.9999997019767761,-5.960488635992078e-8,-1.000000238418579,0,-0.0008980908896774054,-2.6054011361954744e-15,-0.9999995827674866,0,-4.547472695713012e-13,-1.0000007152557373,-4.5474751351679e-13,0,-71.50991821289062,-18.743255615234375,-50.53450012207031,1],"type":"MAT4","byteOffset":0},{"bufferView":1,"componentType":5126,"count":23,"max":[0.0000036199885471432935,-1.0000001192092896,0.0000036795947835344123,0,0.9999997019767761,0.0000036795954656554386,1.000000238418579,0,0.0008979280828498304,-5.897713415727035e-13,0.9999997019767761,0,40.16020202636719,18.742969512939453,47.79997253417969,1],"min":[-0.0000036199905935063725,-1.0000007152557373,-3.251080071819956e-9,0,-1.000000238418579,0.000003619990820880048,-0.0008979280828498304,0,-1.000000238418579,-5.968767689303045e-13,-1.000000238418579,0,-71.50991821289062,-18.743242263793945,-31.56645393371582,1],"type":"MAT4","byteOffset":0}],"asset":{"generator":"Khronos Blender glTF 2.0 exporter","version":"2.0"},"bufferViews":[{"buffer":0,"byteLength":1472,"byteOffset":0},{"buffer":0,"byteLength":1472,"byteOffset":1472},{"buffer":0,"byteOffset":2944,"byteLength":4243},{"buffer":0,"byteOffset":7187,"byteLength":110075},{"buffer":0,"byteOffset":117262,"byteLength":76403}],"buffers":[{"byteLength":193665,"uri":"buffer.bin"}],"images":[{"name":"pm0051_00_BodyA1","uri":"pm0051_00_BodyA1.png"},{"name":"pm0051_00_BodyB1","uri":"pm0051_00_BodyB1.png"},{"name":"pm0051_00_EyeA1","uri":"pm0051_00_EyeA1.png"}],"materials":[{"alphaMode":"OPAQUE","name":"BodyA00","pbrMetallicRoughness":{"baseColorFactor":[0.6400000190734865,0.6400000190734865,0.6400000190734865,1],"baseColorTexture":{"index":0},"metallicFactor":0}},{"alphaMode":"OPAQUE","name":"BodyB","pbrMetallicRoughness":{"baseColorFactor":[0.6400000190734865,0.6400000190734865,0.6400000190734865,1],"baseColorTexture":{"index":1},"metallicFactor":0}},{"alphaMode":"OPAQUE","name":"Eye00","pbrMetallicRoughness":{"baseColorFactor":[0.6400000190734865,0.6400000190734865,0.6400000190734865,1],"baseColorTexture":{"index":2},"metallicFactor":0}}],"meshes":[{"name":"Dugtrio","primitives":[{"material":2,"extensions":{"ALI_amc_mesh_compression":{"bufferView":2}}},{"material":1,"extensions":{"ALI_amc_mesh_compression":{"bufferView":3}}},{"material":0,"extensions":{"ALI_amc_mesh_compression":{"bufferView":4}}}]}],"nodes":[{"children":[1,10],"name":"_01_pm0051_00","rotation":[0.7071068286895752,0,0,0.7071067094802856],"scale":[0.02539999783039093,0.02539999969303608,0.02539999969303608]},{"children":[2],"name":"_02_Origin"},{"children":[3,12,14,21,29],"name":"_03_Waist","rotation":[-5.024286464438499e-15,0.7071080803871155,0,0.7071055173873901],"scale":[1,0.9999999403953552,1],"translation":[0,-5.684341886080802e-14,-3.693380117416382]},{"name":"_04_EndWaist","rotation":[1.3552527156068805e-20,0,0,1],"translation":[32.03278350830078,5.248608825661992e-14,-2.000888343900442e-11]},{"name":"_09_EndHeadA","translation":[23.479299545288086,0.000005722049991163658,0.000003814699994109105]},{"name":"_11_EndFeelerA","translation":[6.9521942138671875,-0.000003814699994109105,0.000003814699994109105]},{"name":"_17_EndHeadB","translation":[23.6483097076416,9.536739753457368e-7,0]},{"name":"_19_EndFeelerB","translation":[6.644168853759766,0,0]},{"name":"_25_EndHeadC","translation":[23.691999435424805,0.0000019073499970545527,-7.275959695851597e-11]},{"name":"_27_EndFeelerC","translation":[6.6734700202941895,0,4.768369876728684e-7]},{"name":"_28_pm0051_00_Skin"},{"name":"Camera","rotation":[0.483536034822464,0.33687159419059753,-0.20870360732078552,0.7804827094078064],"translation":[7.481131553649902,5.34366512298584,6.5076398849487305]},{"mesh":0,"name":"Dugtrio","rotation":[0.49999913573265076,-0.5000008940696716,0.5000009536743164,0.4999990463256836],"scale":[1,1,1.0000001192092896],"skin":1,"translation":[-3.693380117416382,5.248608825661992e-14,-0.000013369999578571878]},{"name":"Lamp","rotation":[0.16907575726509094,0.7558802962303162,-0.27217137813568115,0.570947527885437],"scale":[1,1,0.9999999403953552],"translation":[4.076245307922363,5.903861999511719,-1.0054539442062378]},{"children":[15],"name":"_03_Waist__05_SpineA1","rotation":[-0.5,-0.5000000596046448,0.5000000596046448,0.5],"scale":[0.9999999403953552,0.9999997615814209,0.9999999403953552],"translation":[-15.824350357055664,3.693450450897217,18.74294090270996]},{"children":[16],"name":"_03_Waist__06_SpineA2","rotation":[0,-1.7763568394002505e-15,0,1],"scale":[1,0.9999999403953552,1],"translation":[0.9822452068328857,-0.0000095367431640625,7.492931786146073e-7]},{"children":[17],"name":"_03_Waist__07_SpineA3","rotation":[0,-1.7763568394002505e-15,0,1],"translation":[6.917043720022775e-7,-0.000003814697265625,7.492931786146073e-7]},{"children":[18,19],"name":"_03_Waist__08_HeadA","scale":[1,0.9999999403953552,1],"translation":[11.078508377075195,0.0000400543212890625,2.650361921041622e-7]},{"name":"_03_Waist__09_EndHeadA","translation":[23.479305267333984,-0.00000762939453125,0.0000059144431361346506]},{"children":[20],"name":"_03_Waist__10_FeelerA","rotation":[0,0.7071068286895752,0,0.7071068286895752],"scale":[1,0.9999998211860657,1],"translation":[-0.022757941856980324,0.000072479248046875,18.39970588684082]},{"name":"_03_Waist__11_EndFeelerA","rotation":[0,7.492232238771513e-18,0,1],"translation":[-6.9521942138671875,0.000030517578125,-0.000003814697265625]},{"children":[22],"name":"_03_Waist__12_SpineB1","rotation":[-0.5,-0.5000000596046448,0.5000000596046448,0.5],"scale":[1,0.9999999403953552,1],"translation":[-18.501710891723633,3.6933114528656006,-18.74306869506836]},{"children":[23],"name":"_03_Waist__13_SpineB2","rotation":[2.9802322387695312e-8,0,0,1],"translation":[0.9896329641342163,0,-2.0469799721922755e-7]},{"children":[24],"name":"_03_Waist__14_SpineB3","rotation":[-2.9802318834981634e-8,0,-2.4707464339433145e-23,1],"translation":[-1.4493883782051853e-7,-8.045607273743371e-7,5.854765845469956e-7]},{"children":[25],"name":"_03_Waist__15_SpineB4","rotation":[2.9802318834981634e-8,0,2.4707464339433145e-23,1],"translation":[11.7806978225708,0.000049591064453125,-7.196487672445073e-7]},{"children":[26,27],"name":"_03_Waist__16_HeadB","rotation":[-2.9802318834981634e-8,0,-2.4707464339433145e-23,1],"translation":[15.169302940368652,0.000048786503612063825,-5.925512596149929e-7]},{"name":"_03_Waist__17_EndHeadB","rotation":[2.9802322387695312e-8,0,2.4707464339433145e-23,1],"translation":[23.648313522338867,1.3145040611561853e-13,-5.090720378575497e-7]},{"children":[28],"name":"_03_Waist__18_FeelerB","rotation":[-1.4973569528214313e-22,0.7071068286895752,2.231235731872069e-30,0.7071068286895752],"translation":[-0.06648854911327362,0.00006103515625,18.707700729370117]},{"name":"_03_Waist__19_EndFeelerB","rotation":[3.182061326884971e-30,7.492233065952126e-18,-1.0587911840678754e-22,1],"translation":[-6.644168853759766,0.0000247955322265625,0]},{"children":[30],"name":"_03_Waist__20_SpineC1","rotation":[-0.5,-0.5000000596046448,0.5000000596046448,0.5],"scale":[1,0.9999999403953552,1],"translation":[16.30661964416504,3.6933813095092773,0.00006097370351199061]},{"children":[31],"name":"_03_Waist__21_SpineC2","translation":[0.9896321296691895,0.0000036060773709323257,-2.0470102413128188e-7]},{"children":[32],"name":"_03_Waist__22_SpineC3","translation":[-2.3594782305735862e-7,-3.637978807091713e-12,-2.0470102413128188e-7]},{"children":[33],"name":"_03_Waist__23_SpineC4","translation":[22.323699951171875,0.00008249282836914062,-0.0000011805009307863656]},{"children":[34,35],"name":"_03_Waist__24_HeadC","translation":[20.811203002929688,0.00007694960368098691,-1.8283890312886797e-7]},{"name":"_03_Waist__25_EndHeadC","translation":[23.692001342773438,7.275957614183426e-12,6.888994903420098e-7]},{"children":[36],"name":"_03_Waist__26_FeelerC","rotation":[0,-0.7074242234230042,0,0.7067891955375671],"translation":[-0.022746935486793518,0.00006967783701838925,18.678401947021484]},{"name":"_03_Waist__27_EndFeelerC","rotation":[0,2.7794158086180687e-8,0,1],"translation":[6.673468589782715,0.000025630011805333197,-0.006010117940604687]}],"samplers":[{}],"scene":0,"scenes":[{"name":"Scene","nodes":[9,8,7,6,5,4,0,13,11]}],"skins":[{"inverseBindMatrices":0,"joints":[14,15,16,17,18,19,20,21,22,23,24,25,26,27,28,29,30,31,32,33,34,35,36],"skeleton":2},{"inverseBindMatrices":1,"joints":[14,15,16,17,18,19,20,21,22,23,24,25,26,27,28,29,30,31,32,33,34,35,36],"skeleton":2}],"textures":[{"sampler":0,"source":0},{"sampler":0,"source":1},{"sampler":0,"source":2}],"extensionsUsed":["ALI_amc_mesh_compression"],"extensionsRequired":["ALI_amc_mesh_compression"]}