{
	"accessors": [{
		"bufferView": 0,
		"componentType": 5126,
		"count": 50,
		"max": [1, 0, 1, 0, 1.0000001192092896, 0, 1, 0, 0, -1, 0, 0, 35.93429946899414, 28.763959884643555, 56.78651428222656, 1],
		"min": [-1, 0, -1.0000001192092896, 0, -1, 0, -1, 0, 0, -1.0000001192092896, 0, 0, -103.45381164550781, -96.8326644897461, -69.94912719726562, 1],
		"type": "MAT4",
		"byteOffset": 0
	}],
	"asset": {
		"generator": "Khronos Blender glTF 2.0 exporter",
		"version": "2.0"
	},
	"bufferViews": [{
		"buffer": 0,
		"byteLength": 3200,
		"byteOffset": 0
	}, {
		"buffer": 0,
		"byteOffset": 3200,
		"byteLength": 4803
	}, {
		"buffer": 0,
		"byteOffset": 8003,
		"byteLength": 4159
	}, {
		"buffer": 0,
		"byteOffset": 12162,
		"byteLength": 7187
	}, {
		"buffer": 0,
		"byteOffset": 19349,
		"byteLength": 125115
	}, {
		"buffer": 0,
		"byteOffset": 144464,
		"byteLength": 4159
	}],
	"buffers": [{
		"byteLength": 148623,
		"uri": "buffer.bin"
	}],
	"images": [{
		"name": "pm0005_00_Body1",
		"uri": "pm0005_00_Body1.png"
	}, {
		"name": "pm0005_00_Eye1",
		"uri": "pm0005_00_Eye1.png"
	}, {
		"name": "pm0005_00_FireCoreA1",
		"uri": "pm0005_00_FireCoreA1.png"
	}, {
		"name": "pm0005_00_Iris1",
		"uri": "pm0005_00_Iris1.png"
	}, {
		"name": "pm0005_00_FireStenA1",
		"uri": "pm0005_00_FireStenA1.png"
	}],
	"materials": [{
		"alphaMode": "OPAQUE",
		"name": "Material__34",
		"pbrMetallicRoughness": {
			"baseColorFactor": [0.6400000190734865, 0.6400000190734865, 0.6400000190734865, 1],
			"baseColorTexture": {
				"index": 0
			},
			"metallicFactor": 0
		}
	}, {
		"alphaMode": "OPAQUE",
		"name": "Material__35",
		"pbrMetallicRoughness": {
			"baseColorFactor": [0.6400000190734865, 0.6400000190734865, 0.6400000190734865, 1],
			"baseColorTexture": {
				"index": 1
			},
			"metallicFactor": 0
		}
	}, {
		"alphaMode": "OPAQUE",
		"name": "fireCore",
		"doubleSided":true,
		"extensions": {
            "KHR_techniques_webgl": {
                "technique": 0,
                "values" : {
                    "u_fireCoreTexture":  {
                        "index": 2
                    }
                }
            }
        }
	}, {
		"alphaMode": "MASK",
		"name": "Material__37",
		"pbrMetallicRoughness": {
			"baseColorFactor": [0.6400000190734865, 0.6400000190734865, 0.6400000190734865, 1],
			"baseColorTexture": {
				"index": 3
			},
			"metallicFactor": 0
		}
	}, {
		"alphaMode": "OPAQUE",
		"name": "fireSten",
		"doubleSided":true,
		"extensions": {
            "KHR_techniques_webgl": {
                "technique": 1,
                "values" : {
                    "u_fireStenTexture":  {
                        "index": 4
                    }
                }
            }
        }
	}],
	"meshes": [{
		"name": "Charmeleon",
		"primitives": [{
			"material": 4,
			"extensions": {
				"ALI_amc_mesh_compression": {
					"bufferView": 1
				}
			}
		}, {
			"material": 1,
			"extensions": {
				"ALI_amc_mesh_compression": {
					"bufferView": 2
				}
			}
		}, {
			"material": 2,
			"extensions": {
				"ALI_amc_mesh_compression": {
					"bufferView": 3
				}
			}
		}, {
			"material": 0,
			"extensions": {
				"ALI_amc_mesh_compression": {
					"bufferView": 4
				}
			}
		}, {
			"material": 3,
			"extensions": {
				"ALI_amc_mesh_compression": {
					"bufferView": 5
				}
			}
		}]
	}],
	"nodes": [{
		"children": [2, 4],
		"name": "Armature",
		"scale": [0.02539999969303608, 0.02539999969303608, 0.02539999969303608]
	}, {
		"name": "Camera",
		"rotation": [0.483536034822464, 0.33687159419059753, -0.20870360732078552, 0.7804827094078064],
		"translation": [7.481131553649902, 5.34366512298584, 6.5076398849487305]
	}, {
		"mesh": 0,
		"name": "Charmeleon",
		"skin": 0
	}, {
		"name": "Lamp",
		"rotation": [0.16907575726509094, 0.7558802962303162, -0.27217137813568115, 0.570947527885437],
		"scale": [1, 1, 0.9999999403953552],
		"translation": [4.076245307922363, 5.903861999511719, -1.0054539442062378]
	}, {
		"children": [5, 48, 49, 50, 51, 52, 53],
		"name": "Armature_pm0005_00",
		"rotation": [-0.7071068286895752, 0, 0, 0.7071068286895752]
	}, {
		"children": [6],
		"name": "Armature_Origin"
	}, {
		"children": [7, 31],
		"name": "Armature_Waist",
		"rotation": [0, -0.7905898690223694, 0, 0.6123459935188293],
		"translation": [0, -1.62632155418396, 35.93429946899414]
	}, {
		"children": [8, 14, 20, 21],
		"name": "Armature_Hips",
		"rotation": [0, -0.9920259118080139, 0, 0.12603424489498138],
		"translation": [-0.000001849024783950881, 0.000021457672119140625, -0.00000715926489647245]
	}, {
		"children": [9],
		"name": "Armature_RThigh",
		"rotation": [0, 0.010917953215539455, 0, 0.9999403953552246],
		"translation": [6.188957214355469, 1.5024850368499756, -12.188599586486816]
	}, {
		"children": [10],
		"name": "Armature_RLeg",
		"rotation": [0, 0.34827402234077454, 0, 0.9373927712440491],
		"translation": [15.227222442626953, -4.724303245544434, -6.881378650665283]
	}, {
		"children": [11, 13],
		"name": "Armature_RFoot",
		"rotation": [0, -0.70710688829422, 0, 0.7071067094802856],
		"scale": [0.9999999403953552, 0.9999999403953552, 0.9999999403953552],
		"translation": [7.786923408508301, 3.663295030593872, 5.12381649017334]
	}, {
		"children": [12],
		"name": "Armature_RToe",
		"rotation": [0, 0.03396274149417877, 0, 0.999423086643219],
		"scale": [0.9999999403953552, 0.9999999403953552, 0.9999999403953552],
		"translation": [-0.03094017505645752, -5.3095598220825195, -5.717177391052246]
	}, {
		"name": "Armature_EndRToe",
		"rotation": [0, -1.4901161193847656e-8, 0, 1],
		"translation": [-0.9470047950744629, -7.519256591796875, -5.277615070343018]
	}, {
		"name": "Armature_EndRFoot",
		"rotation": [0, 4.4703490686970326e-8, 0, 1],
		"scale": [0.9999999403953552, 0.9999999403953552, 0.9999999403953552],
		"translation": [-2.7404863834381104, -13.07695484161377, -7.955220699310303]
	}, {
		"children": [15],
		"name": "Armature_LThigh",
		"rotation": [0, -0.30707594752311707, 0, 0.9516850113868713],
		"translation": [6.1889801025390625, 1.5024694204330444, 12.18858814239502]
	}, {
		"children": [16],
		"name": "Armature_LLeg",
		"rotation": [0, 0.34827399253845215, 0, 0.9373928904533386],
		"scale": [1.0000001192092896, 1, 1.0000001192092896],
		"translation": [16.446048736572266, -4.724321365356445, -2.957980155944824]
	}, {
		"children": [17, 19],
		"name": "Armature_LFoot",
		"rotation": [0, -0.7069846987724304, 0, 0.7072288393974304],
		"translation": [9.057530403137207, 3.6633172035217285, 2.202467679977417]
	}, {
		"children": [18],
		"name": "Armature_LToe",
		"rotation": [0, 0.03396192938089371, 0, 0.9994232058525085],
		"translation": [4.204696178436279, -5.307978630065918, -3.876279830932617]
	}, {
		"name": "Armature_EndLToe",
		"rotation": [0, -7.450580596923828e-9, 0, 1],
		"translation": [4.859895706176758, -7.5178704261779785, -2.2696990966796875]
	}, {
		"name": "Armature_EndLFoot",
		"rotation": [0, -7.450580596923828e-9, 0, 1],
		"translation": [7.690142631530762, -13.075004577636719, -3.4217677116394043]
	}, {
		"name": "Armature_EndHips",
		"rotation": [0, 2.930619302787818e-8, 0, 1],
		"translation": [26.400400161743164, 0, -0.0000024968248908407986]
	}, {
		"children": [22],
		"name": "Armature_Tail1",
		"rotation": [0, -0.6708326935768127, 0, 0.741608738899231],
		"translation": [12.51791000366211, 14.60650634765625, 0.000015399746189359576]
	}, {
		"children": [23],
		"name": "Armature_Tail2",
		"rotation": [0, -0.015912843868136406, 0, 0.9998733997344971],
		"scale": [0.9999999403953552, 1, 0.9999999403953552],
		"translation": [0.19024355709552765, 18.940948486328125, -1.8934974670410156]
	}, {
		"children": [24],
		"name": "Armature_Tail3",
		"rotation": [0, -0.02385556511580944, 0, 0.9997155070304871],
		"translation": [0.07421459257602692, 15.891996383666992, -1.0847618579864502]
	}, {
		"children": [25],
		"name": "Armature_Tail4",
		"rotation": [0, -0.02570233680307865, 0, 0.9996697306632996],
		"translation": [0.0062743788585066795, 14.792083740234375, -0.3045819103717804]
	}, {
		"children": [26, 27],
		"name": "Armature_Tail5",
		"rotation": [0, -1.862645149230957e-9, 0, 1],
		"translation": [0.013523580506443977, 14.2369384765625, 0.43868449330329895]
	}, {
		"name": "Armature_EndTail5",
		"translation": [0.018988830968737602, 19.990501403808594, 0.6159669756889343]
	}, {
		"children": [28],
		"name": "Armature_TailA01",
		"rotation": [0, -0.6961278915405273, 0, 0.7179178595542908],
		"translation": [0.01370613370090723, 14.416130065917969, 0.4441830515861511]
	}, {
		"children": [29],
		"name": "Armature_TailA02",
		"rotation": [0, -9.748873708304018e-9, 0, 1],
		"translation": [12.71710205078125, 0, -1.4288161764852703e-7]
	}, {
		"children": [30],
		"name": "Armature_TailA03",
		"translation": [12.717002868652344, 0.0000152587890625, -3.908426151610911e-7]
	}, {
		"name": "Armature_EndTailA03",
		"translation": [12.71710205078125, 0.00000762939453125, -3.90878994949162e-7]
	}, {
		"children": [32],
		"name": "Armature_Spine1",
		"rotation": [0, 4.76837158203125e-7, 0, 1],
		"translation": [0.0000430401305493433, -0.000017404556274414062, -0.000038716087146895006]
	}, {
		"children": [33, 38, 43],
		"name": "Armature_Spine2",
		"rotation": [0, 0.062079496681690216, 0, 0.9980712532997131],
		"translation": [10.721052169799805, -2.8597359657287598, -2.76888370513916]
	}, {
		"children": [34],
		"name": "Armature_LShoulder",
		"rotation": [0, 0.751050591468811, 0, 0.6602447032928467],
		"translation": [9.08455753326416, -0.24474811553955078, -6.0066375732421875]
	}, {
		"children": [35],
		"name": "Armature_LArm",
		"rotation": [0, 0.22439707815647125, 0, 0.9744977951049805],
		"translation": [7.841576099395752, 0, 0]
	}, {
		"children": [36],
		"name": "Armature_LForeArm",
		"translation": [19.490320205688477, -0.000004291534423828125, -0.00015735626220703125]
	}, {
		"children": [37],
		"name": "Armature_LHand",
		"rotation": [0, -5.960464477539063e-8, 0, 1],
		"translation": [13.190080642700195, -0.00001049041748046875, 0.0000476837158203125]
	}, {
		"name": "Armature_EndLHand",
		"rotation": [0, 1.4901161193847656e-8, 0, 1],
		"translation": [16.80669403076172, -0.00000762939453125, 0]
	}, {
		"children": [39],
		"name": "Armature_Neck",
		"rotation": [0, 0.01161119807511568, 0, 0.999932587146759],
		"scale": [0.9999998807907104, 1, 0.9999998807907104],
		"translation": [13.709321975708008, -1.7861971855163574, -1.7714685201644897]
	}, {
		"children": [40, 41],
		"name": "Armature_Head",
		"rotation": [0, 0.052616383880376816, 0, 0.9986149072647095],
		"scale": [0.9999999403953552, 1, 0.9999999403953552],
		"translation": [9.694840431213379, -1.030158519744873, -1.024474859237671]
	}, {
		"name": "Armature_EndHead",
		"rotation": [0, -3.229388312320225e-9, 0, 1],
		"translation": [32.87451171875, 0, -5.748006515204906e-7]
	}, {
		"children": [42],
		"name": "Armature_Jaw",
		"rotation": [0, 0.8493143320083618, 0, 0.5278874635696411],
		"translation": [7.4292449951171875, -6.747666835784912, 0.00003589576226659119]
	}, {
		"name": "Armature_EndJaw",
		"rotation": [0, 5.960463766996327e-8, 0, 1],
		"scale": [1.0000001192092896, 1, 1.0000001192092896],
		"translation": [3.215519428253174, -14.713863372802734, -6.513395309448242]
	}, {
		"children": [44],
		"name": "Armature_RShoulder",
		"rotation": [0, -0.6602473855018616, 0, 0.7510483264923096],
		"scale": [0.9999999403953552, 1, 0.9999999403953552],
		"translation": [10.312896728515625, -0.24472904205322266, 3.500225067138672]
	}, {
		"children": [45],
		"name": "Armature_RArm",
		"rotation": [0, -0.22439733147621155, 0, 0.9744977355003357],
		"translation": [7.8415422439575195, -9.5367431640625e-7, -0.00007073104643495753]
	}, {
		"children": [46],
		"name": "Armature_RForeArm",
		"rotation": [0, -1.1920928955078125e-7, 0, 1],
		"translation": [19.4903507232666, -0.00000762939453125, -0.0000743865966796875]
	}, {
		"children": [47],
		"name": "Armature_RHand",
		"rotation": [0, -1.1920928955078125e-7, 0, 1],
		"translation": [13.190185546875, -0.000005245208740234375, -0.0000057220458984375]
	}, {
		"name": "Armature_EndRHand",
		"translation": [16.806705474853516, -0.000007152557373046875, 0.0000057220458984375]
	}, {
		"name": "Armature_pm0005_00_IrisSkin"
	}, {
		"name": "Armature_pm0005_00_BodySkin"
	}, {
		"name": "Armature_pm0005_00_FireAStenSkin"
	}, {
		"name": "Armature_pm0005_00_FireCore1Skin"
	}, {
		"name": "Armature_pm0005_00_FireCore2Skin"
	}, {
		"name": "Armature_pm0005_00_FireCore3Skin"
	}],
	"samplers": [{}],
	"scene": 0,
	"scenes": [{
		"name": "Scene",
		"nodes": [0, 3, 1]
	}],
	"skins": [{
		"inverseBindMatrices": 0,
		"joints": [4, 5, 6, 7, 8, 9, 10, 11, 12, 13, 14, 15, 16, 17, 18, 19, 20, 21, 22, 23, 24, 25, 26, 27, 28, 29, 30, 31, 32, 33, 34, 35, 36, 37, 38, 39, 40, 41, 42, 43, 44, 45, 46, 47, 48, 49, 50, 51, 52, 53],
		"skeleton": 0
	}],
	"textures": [{
		"sampler": 0,
		"source": 0
	}, {
		"sampler": 0,
		"source": 1
	}, {
		"sampler": 0,
		"source": 2
	}, {
		"sampler": 0,
		"source": 3
	}, {
		"sampler": 0,
		"source": 4
	}],
	"extensions": {
        "KHR_techniques_webgl": {
            "programs": [
                {	
                	"name": "fireCore",
                    "fragmentShader": 0,
                    "vertexShader": 1
                },
                {
                    "name": "fireSten",
                    "fragmentShader": 2,
                    "vertexShader": 3
                }
            ],
            "shaders": [
                {
                    "type": 35632,
                    "uri": "../../fx/fireCoreFS.glsl"
                },
                {
                    "type": 35633,
                    "uri": "../../fx/fireCoreVS.glsl"
                },
                {
                    "type": 35632,
                    "uri": "../../fx/fireStenFS.glsl"
                },
                {
                    "type": 35633,
                    "uri": "../../fx/fireStenVS.glsl"
                }
            ],
            "techniques": [
                {
                    "program": 0,
                    "attributes": {
                        "a_position": {
                            "semantic": "POSITION"
                        },
                        "a_texcoord0": {
                            "semantic": "TEXCOORD_0"
                        }
                    },
                    "uniforms": {                   
                        "u_time": {
                            "type": 5126,
                            "semantic": "TIME"
                        },
                        "u_modelViewProjectionMatrix": {
                            "semantic": "MODELVIEWPROJECTION",
                            "type": 35676
                        },
                        "u_fireCoreTexture": {
                            "type": 35678
                        }
                    }
                },
                {
                    "program": 1,
                    "attributes": {
                        "a_position": {
                            "semantic": "POSITION"
                        },
                        "a_texcoord0": {
                            "semantic": "TEXCOORD_0"
                        }
                    },
                    "uniforms": {                   
                        "u_modelViewProjectionMatrix": {
                            "semantic": "MODELVIEWPROJECTION",
                            "type": 35676
                        },
                        "u_fireStenTexture": {
                            "type": 35678
                        }
                    }
                }
            ]
        }
    },
	"extensionsUsed": ["ALI_amc_mesh_compression", "KHR_techniques_webgl"],
	"extensionsRequired": ["ALI_amc_mesh_compression", "KHR_techniques_webgl"]
}