{"accessors":[{"bufferView":0,"componentType":5126,"count":81,"max":[1,3.4059798537100505e-8,1,0,0.9856035113334656,3.1993380167349983e-10,1,0,3.405980919524154e-8,-1,0,0,37.48154067993164,44.776344299316406,48.51235580444336,1],"min":[-0.9999998807907104,-4.5411933768946255e-8,-0.9856035113334656,0,-1,-1.248859007743977e-13,-0.9999998807907104,0,-4.541307419003715e-8,-1.0000004768371582,0,0,-79.56348419189453,-36.71729278564453,-76.72386169433594,1],"type":"MAT4","byteOffset":0}],"asset":{"generator":"Khronos Blender glTF 2.0 exporter","version":"2.0"},"bufferViews":[{"buffer":0,"byteLength":5184,"byteOffset":0},{"buffer":0,"byteOffset":5184,"byteLength":5747},{"buffer":0,"byteOffset":10931,"byteLength":129123}],"buffers":[{"byteLength":140054,"uri":"buffer.bin"}],"images":[{"name":"pm0135_00_Body1","uri":"pm0135_00_Body1.png"},{"name":"pm0135_00_Eye1","uri":"pm0135_00_Eye1.png"}],"materials":[{"alphaMode":"OPAQUE","name":"Material__10","pbrMetallicRoughness":{"baseColorFactor":[0.6400000190734865,0.6400000190734865,0.6400000190734865,1],"baseColorTexture":{"index":0},"metallicFactor":0}},{"alphaMode":"OPAQUE","name":"Material__11","pbrMetallicRoughness":{"baseColorFactor":[0.6400000190734865,0.6400000190734865,0.6400000190734865,1],"baseColorTexture":{"index":1},"metallicFactor":0}}],"meshes":[{"name":"Jolteon","primitives":[{"material":1,"extensions":{"ALI_amc_mesh_compression":{"bufferView":1}}},{"material":0,"extensions":{"ALI_amc_mesh_compression":{"bufferView":2}}}]}],"nodes":[{"children":[2,4],"name":"Armature","scale":[0.02539999969303608,0.02539999969303608,0.02539999969303608]},{"name":"Camera","rotation":[0.483536034822464,0.33687159419059753,-0.20870360732078552,0.7804827094078064],"translation":[7.481131553649902,5.34366512298584,6.5076398849487305]},{"mesh":0,"name":"Jolteon","skin":0},{"name":"Lamp","rotation":[0.16907575726509094,0.7558802962303162,-0.27217137813568115,0.570947527885437],"scale":[1,1,0.9999999403953552],"translation":[4.076245307922363,5.903861999511719,-1.0054539442062378]},{"children":[5,84],"name":"Armature_pm0135_00","rotation":[-0.7071068286895752,0,0,0.7071068286895752]},{"children":[6],"name":"Armature_Origin"},{"children":[7,58],"name":"Armature_Waist","rotation":[0,-0.9996018409729004,0,0.02821469120681286],"scale":[1,0.9999997019767761,1],"translation":[0,3.41912841796875,38.254798889160156]},{"children":[8],"name":"Armature_Spine1","rotation":[0,0.0000011939555406570435,0,1],"translation":[-0.000027577418222790584,-0.000013828277587890625,-0.00005895362846786156]},{"children":[9,44,51],"name":"Armature_Spine2","rotation":[0,0.10243641585111618,0,0.9947396516799927],"translation":[0.03029482252895832,-9.505189895629883,-0.5362108945846558]},{"children":[10,26],"name":"Armature_Neck","rotation":[0,0.09032788127660751,0,0.9959121942520142],"translation":[0.8071569800376892,-11.649974822998047,-3.0138332843780518]},{"children":[11,14,16,19,21,22,24],"name":"Armature_Head","rotation":[0,-0.12060064822435379,0,0.9927011132240295],"scale":[0.9999998807907104,0.9999999403953552,0.9999998807907104],"translation":[1.216686725616455,-5.99437141418457,-2.567199230194092]},{"children":[12],"name":"Armature_LEar1","rotation":[0,-0.9850531816482544,0,0.17225070297718048],"scale":[1.0000001192092896,1,1.0000001192092896],"translation":[-5.4248480796813965,-6.883005142211914,-9.638558387756348]},{"children":[13],"name":"Armature_LEar2","rotation":[0,-8.940696716308594e-8,0,1],"scale":[1,0.9999999403953552,1],"translation":[0.15078067779541016,9.63979721069336,11.32022476196289]},{"name":"Armature_EndLEar2","rotation":[0,1.4901161193847656e-8,0,1],"scale":[1,0.9999999403953552,1],"translation":[0.21675872802734375,13.857783317565918,16.273487091064453]},{"children":[15],"name":"Armature_LHair","rotation":[0,-0.9131152629852295,0,0.40770140290260315],"translation":[-8.205671310424805,-2.843433380126953,-4.468495845794678]},{"name":"Armature_EndLHair","translation":[2.700735569000244,9.113029479980469,4.608014106750488]},{"children":[17],"name":"Armature_REar1","rotation":[0,0.5152238011360168,0,0.8570557236671448],"scale":[1.0000001192092896,1,1.0000001192092896],"translation":[8.76088809967041,-6.883026123046875,-6.75130033493042]},{"children":[18],"name":"Armature_REar2","rotation":[0,1.4901161193847656e-8,0,1],"translation":[10.902353286743164,9.639842987060547,3.050930976867676]},{"name":"Armature_EndREar2","rotation":[0,-2.9802322387695312e-8,0,1],"scale":[1,0.9999998807907104,1],"translation":[15.672719955444336,13.8577241897583,4.3860039710998535]},{"children":[20],"name":"Armature_RHair","rotation":[0,0.40770187973976135,0,0.9131151437759399],"translation":[9.299467086791992,-2.8434009552001953,-0.9056793451309204]},{"name":"Armature_EndRHair","rotation":[0,-1.4901161193847656e-8,0,1],"translation":[2.700745105743408,9.113031387329102,4.6079816818237305]},{"name":"Armature_EndHead","rotation":[0,1.4901161193847656e-8,0,1],"translation":[0.8543172478675842,-21.04592514038086,-4.197454452514648]},{"children":[23],"name":"Armature_Hair","rotation":[0,0.9194309115409851,0,0.39325153827667236],"translation":[2.1700799465179443,-7.008892059326172,-10.6621732711792]},{"name":"Armature_EndHair","rotation":[0,4.470348358154297e-8,0,1],"translation":[3.4332072734832764,8.650114059448242,4.937938690185547]},{"children":[25],"name":"Armature_Jaw","rotation":[0,-0.32200029492378235,0,0.9467395544052124],"translation":[-0.017782235518097878,-9.235164642333984,0.08763232827186584]},{"name":"Armature_EndJaw","rotation":[0,2.9802322387695312e-8,0,1],"translation":[2.123978614807129,-9.883731842041016,4.342583656311035]},{"children":[27,29,31,33,35,37,39,41,42],"name":"Armature_Feeler","rotation":[0,-1.4901162970204496e-8,0,1],"scale":[0.9999999403953552,0.9999999403953552,0.9999999403953552],"translation":[0.6735778450965881,-3.318561553955078,-1.4212397336959839]},{"children":[28],"name":"Armature_FeelerB","rotation":[0,0.9096572399139404,0,0.4153599441051483],"scale":[1,0.9999998807907104,1],"translation":[1.5799381732940674,2.9071407318115234,-3.3335812091827393]},{"name":"Armature_EndFeelerB","rotation":[0,-1.4901162970204496e-8,0,1],"scale":[0.9999999403953552,1,0.9999999403953552],"translation":[5.073364734649658,28.68803596496582,11.543046951293945]},{"children":[30],"name":"Armature_LFeelerA","rotation":[0,0.9999879598617554,0,0.004907786380499601],"scale":[1,0.9999999403953552,1],"translation":[-2.846590757369995,2.5398998260498047,-4.149531364440918]},{"name":"Armature_EndLFeelerA","rotation":[0,-4.470348358154297e-8,0,1],"scale":[1,0.9999999403953552,1],"translation":[17.98410987854004,23.266925811767578,10.030457496643066]},{"children":[32],"name":"Armature_LFeelerB","rotation":[0,-0.998927652835846,0,0.046300020068883896],"scale":[0.9999999403953552,0.9999999403953552,0.9999999403953552],"translation":[-8.318863868713379,1.694326400756836,-0.5729999542236328]},{"name":"Armature_EndLFeelerB","rotation":[0,8.940696716308594e-8,0,1],"translation":[13.233928680419922,9.8331880569458,4.096868515014648]},{"children":[34],"name":"Armature_LFeelerC","rotation":[0,-0.9783501029014587,0,0.2069566398859024],"scale":[1,0.9999999403953552,1],"translation":[-6.93623685836792,-2.2810516357421875,3.199692964553833]},{"name":"Armature_EndLFeelerC","rotation":[0,-5.960464477539063e-8,0,1],"translation":[19.988067626953125,-0.5478420257568359,-0.42023658752441406]},{"children":[36],"name":"Armature_RFeelerA","rotation":[0,0.46103954315185547,0,0.8873797059059143],"scale":[1,0.9999999403953552,1],"translation":[5.014237403869629,2.5399227142333984,-0.42399585247039795]},{"name":"Armature_EndRFeelerA","rotation":[0,-3.725290298461914e-8,0,1],"translation":[5.012542247772217,23.266889572143555,19.972854614257812]},{"children":[38],"name":"Armature_RFeelerB","rotation":[0,0.2502588927745819,0,0.9681789875030518],"scale":[1,0.9999999403953552,1],"translation":[5.710755825042725,1.6942615509033203,6.076154708862305]},{"name":"Armature_EndRFeelerB","rotation":[0,1.4901161193847656e-8,0,1],"translation":[5.232570648193359,9.83327865600586,12.82741928100586]},{"children":[40],"name":"Armature_RFeelerC","rotation":[0,-0.6283299326896667,0,0.777946949005127],"scale":[1,0.9999999403953552,1],"translation":[1.9153351783752441,-2.281118392944336,7.394735336303711]},{"name":"Armature_EndRFeelerC","translation":[19.979759216308594,-0.5478458404541016,-0.7136421203613281]},{"name":"Armature_EndFeeler","rotation":[0,-1.4901162970204496e-8,0,1],"scale":[0.9999999403953552,0.9999999403953552,0.9999999403953552],"translation":[4.368396282196045,-21.52205467224121,-9.21728515625]},{"children":[43],"name":"Armature_FeelerA","rotation":[0,-0.8450639843940735,0,0.5346651673316956],"scale":[0.9999998807907104,0.9999999403953552,0.9999998807907104],"translation":[-2.5709664821624756,-3.6572208404541016,5.424807548522949]},{"name":"Armature_EndFeelerA","rotation":[0,5.1658048505487386e-8,0,1],"translation":[24.81559944152832,0.000148773193359375,0.00014511513290926814]},{"children":[45],"name":"Armature_RShoulder","rotation":[0,-0.5902653932571411,0,0.8072092533111572],"scale":[0.9999999403953552,1,0.9999999403953552],"translation":[4.64663553237915,-7.877402305603027,-0.21957731246948242]},{"children":[46],"name":"Armature_RArm","rotation":[0,-0.35143670439720154,0,0.9362116456031799],"translation":[8.167436599731445,0.15772724151611328,0.16269826889038086]},{"children":[47],"name":"Armature_RForeArm","rotation":[0,-0.09931754320859909,0,0.9950557947158813],"translation":[17.529129028320312,-2.651844024658203,-2.622586965560913]},{"children":[48,49],"name":"Armature_RHand","rotation":[0,-0.5742276906967163,0,0.8186957836151123],"translation":[10.977755546569824,-4.228519439697266,-3.975832939147949]},{"name":"Armature_EndRHand","rotation":[0,1.1656766218948178e-8,0,1],"translation":[1.9484650692902505e-7,-7.2682037353515625,-0.0000071980357461143285]},{"children":[50],"name":"Armature_RFinger","rotation":[0,1.1656766218948178e-8,0,1],"translation":[0.0000020690167730208486,-3.6657028198242188,-1.667513132095337]},{"name":"Armature_EndRFinger","rotation":[0,0,1.56107411442008e-8,1],"translation":[0.0000010646490409271792,-5.309602737426758,-0.000005255129508441314]},{"children":[52],"name":"Armature_LShoulder","rotation":[0,-0.9252821803092957,0,0.3792794346809387],"scale":[0.9999998807907104,1,0.9999998807907104],"translation":[-3.9148669242858887,-7.877388000488281,-2.5124964714050293]},{"children":[53],"name":"Armature_LArm","rotation":[0,0.19012273848056793,0,0.9817603230476379],"scale":[0.9999999403953552,0.9999999403953552,0.9999999403953552],"translation":[8.167736053466797,0.1575946807861328,0.15272903442382812]},{"children":[54],"name":"Armature_LForeArm","rotation":[0,-0.09931734949350357,0,0.9950558543205261],"scale":[0.9999999403953552,0.9999999403953552,0.9999999403953552],"translation":[17.529006958007812,-2.6516733169555664,-2.6225597858428955]},{"children":[55,56],"name":"Armature_LHand","rotation":[0,-0.5742278695106506,0,0.8186955451965332],"translation":[10.977747917175293,-4.2285614013671875,-3.9757983684539795]},{"name":"Armature_EndLHand","rotation":[0,-1.65223354997579e-8,0,1],"translation":[0.000006601691438845592,-7.2681732177734375,-0.000007099160939105786]},{"children":[57],"name":"Armature_LFinger","rotation":[0,-1.65223354997579e-8,0,1],"translation":[0.000003321783424325986,-3.665599822998047,-1.6675140857696533]},{"name":"Armature_EndLFinger","rotation":[0,0,-1.7029899268550253e-8,1],"translation":[0.0000072082975748344325,-5.309684753417969,-0.000005240901373326778]},{"children":[59,60,68,76],"name":"Armature_Hips","rotation":[0,-0.028215626254677773,0,0.9996019005775452],"scale":[1.0000001192092896,1,1.0000001192092896],"translation":[-0.00003402275615371764,-0.000019788742065429688,-0.000001908735157485353]},{"name":"Armature_EndHips","rotation":[0,-2.8547901820275e-9,0,1],"translation":[-0.00006007031333865598,30.53520965576172,0.0000343323772540316]},{"children":[61],"name":"Armature_LThigh","rotation":[0,-0.5475053787231445,0,0.8368021845817566],"scale":[0.9999999403953552,1,0.9999999403953552],"translation":[-8.688002586364746,9.545893669128418,4.287492752075195]},{"children":[62],"name":"Armature_LLeg","rotation":[0,0.3149818480014801,0,0.9490976929664612],"scale":[0.9999999403953552,1,0.9999999403953552],"translation":[8.338134765625,3.9771461486816406,3.6442346572875977]},{"children":[63,64],"name":"Armature_LFoot","rotation":[0,-0.9648675918579102,0,0.26273658871650696],"translation":[2.6973748207092285,9.563419342041016,4.734330177307129]},{"name":"Armature_EndLFoot","rotation":[0,-7.35744833946228e-8,0,1],"translation":[0.00004711747169494629,-11.86120319366455,-0.00005274266004562378]},{"children":[65,66],"name":"Armature_LToe1","rotation":[0,-7.35744833946228e-8,0,1],"translation":[0.0000683218240737915,-2.4048404693603516,-14.418255805969238]},{"name":"Armature_EndLToe1","translation":[0.00003812462091445923,-9.31589126586914,-0.00003832578659057617]},{"children":[67],"name":"Armature_LToe2","rotation":[0,1.3969838619232178e-9,0,1],"translation":[0.000026378780603408813,-3.7844905853271484,-2.664886474609375]},{"name":"Armature_EndLToe2","translation":[0.00001998990774154663,-5.2374725341796875,-0.000020839273929595947]},{"children":[69,71,73,75],"name":"Armature_Tail1","rotation":[0,0.9999807476997375,0,0.006208574865013361],"translation":[0.00000846158764034044,11.330583572387695,1.2652091979980469]},{"children":[70],"name":"Armature_LTail","rotation":[0,0.22287200391292572,0,0.9748477339744568],"translation":[10.986213684082031,2.1945905685424805,-0.1726219207048416]},{"name":"Armature_EndLTail","rotation":[0,-1.4901161193847656e-8,0,1],"scale":[1,1.0000001192092896,1],"translation":[12.107246398925781,15.876930236816406,9.160446166992188]},{"children":[72],"name":"Armature_RTail","rotation":[0,-0.8197431564331055,0,0.5727313756942749],"translation":[-10.986186027526855,2.1946840286254883,-0.17255178093910217]},{"name":"Armature_EndRTail","rotation":[0,2.9802322387695312e-8,0,1],"scale":[1,0.9999999403953552,1],"translation":[8.245744705200195,15.877012252807617,12.74768352508545]},{"children":[74],"name":"Armature_Tail2","rotation":[0,-0.35023367404937744,0,0.9366623759269714],"translation":[0.00002209097146987915,2.086789131164551,6.046170234680176]},{"name":"Armature_EndTail2","rotation":[0,-2.9802322387695312e-8,0,1],"translation":[10.69091510772705,18.023469924926758,11.993125915527344]},{"name":"Armature_EndTail1","rotation":[0,2.9336661100387573e-8,0,1],"translation":[0.00004395368887344375,21.967605590820312,0.00007924300734885037]},{"children":[77],"name":"Armature_RThigh","rotation":[0,-0.5475053787231445,0,0.8368021845817566],"scale":[0.9999999403953552,1,0.9999999403953552],"translation":[8.687986373901367,9.545927047729492,4.287553787231445]},{"children":[78],"name":"Armature_RLeg","rotation":[0,0.3149809241294861,0,0.9490979909896851],"scale":[0.9999999403953552,1,0.9999999403953552],"translation":[8.338109970092773,3.9771347045898438,3.6442360877990723]},{"children":[79,80],"name":"Armature_RFoot","rotation":[0,-0.9657529592514038,0,0.25946348905563354],"translation":[2.6973648071289062,9.563329696655273,4.734272003173828]},{"name":"Armature_EndRFoot","rotation":[0,9.313225746154785e-10,0,1],"scale":[1,0.9999999403953552,1],"translation":[0.000045165419578552246,-11.861201286315918,-0.00004827231168746948]},{"children":[81,82],"name":"Armature_RToe1","rotation":[0,1.1641532182693481e-9,0,1],"scale":[1,0.9999999403953552,1],"translation":[0.00006652623414993286,-2.4049453735351562,-14.418262481689453]},{"name":"Armature_EndRToe1","scale":[1,0.9999999403953552,1],"translation":[0.000036265701055526733,-9.315902709960938,-0.000037260353565216064]},{"children":[83],"name":"Armature_RToe2","scale":[1,0.9999999403953552,1],"translation":[0.00002594105899333954,-3.7843894958496094,-2.6648752689361572]},{"name":"Armature_EndRToe2","rotation":[0,0,2.2706531765948057e-8,1],"scale":[1,0.9999999403953552,1],"translation":[0.000021321699023246765,-5.237504959106445,-0.000021152198314666748]},{"name":"Armature_pm0135_00_Skin"}],"samplers":[{}],"scene":0,"scenes":[{"name":"Scene","nodes":[0,3,1]}],"skins":[{"inverseBindMatrices":0,"joints":[4,5,6,7,8,9,10,11,12,13,14,15,16,17,18,19,20,21,22,23,24,25,26,27,28,29,30,31,32,33,34,35,36,37,38,39,40,41,42,43,44,45,46,47,48,49,50,51,52,53,54,55,56,57,58,59,60,61,62,63,64,65,66,67,68,69,70,71,72,73,74,75,76,77,78,79,80,81,82,83,84],"skeleton":0}],"textures":[{"sampler":0,"source":0},{"sampler":0,"source":1}],"extensionsUsed":["ALI_amc_mesh_compression"],"extensionsRequired":["ALI_amc_mesh_compression"]}