{"accessors":[{"bufferView":0,"componentType":5126,"count":69,"max":[1,0,1.4210854715202004e-14,0,1.4210856409267898e-14,0,1,0,0,-1,0,0,106.65298461914062,0,65.67208099365234,1],"min":[1,0,-1.4210856409267898e-14,0,-1.4210854715202004e-14,0,1,0,0,-1,0,0,-106.65260314941406,-103.35010528564453,-21.052560806274414,1],"type":"MAT4","byteOffset":0}],"asset":{"generator":"Khronos Blender glTF 2.0 exporter","version":"2.0"},"bufferViews":[{"buffer":0,"byteLength":4416,"byteOffset":0},{"buffer":0,"byteOffset":4416,"byteLength":188759},{"buffer":0,"byteOffset":193175,"byteLength":2291}],"buffers":[{"byteLength":195466,"uri":"buffer.bin"}],"images":[{"name":"pm0125_00_Body1","uri":"pm0125_00_Body1.png"},{"name":"pm0125_00_Eye1","uri":"pm0125_00_Eye1.png"}],"materials":[{"name":"Body_mat","pbrMetallicRoughness":{"baseColorFactor":[0.6400000190734865,0.6400000190734865,0.6400000190734865,1],"baseColorTexture":{"index":0},"metallicFactor":0}},{"name":"Eye_mat","pbrMetallicRoughness":{"baseColorFactor":[0.6400000190734865,0.6400000190734865,0.6400000190734865,1],"baseColorTexture":{"index":1},"metallicFactor":0}}],"meshes":[{"name":"mesh_2_Body","primitives":[{"material":0,"extensions":{"ALI_amc_mesh_compression":{"bufferView":1}}},{"material":1,"extensions":{"ALI_amc_mesh_compression":{"bufferView":2}}}]}],"nodes":[{"children":[3,4],"name":"Armature","rotation":[0.7071068286895752,0,0,0.7071067094802856]},{"name":"Camera","rotation":[0.483536034822464,0.33687159419059753,-0.20870360732078552,0.7804827094078064],"translation":[7.481131553649902,5.34366512298584,6.5076398849487305]},{"name":"Lamp","rotation":[0.16907575726509094,0.7558802962303162,-0.27217137813568115,0.570947527885437],"scale":[1,1,0.9999999403953552],"translation":[4.076245307922363,5.903861999511719,-1.0054539442062378]},{"mesh":0,"name":"vsn_mesh_2_Body","skin":0},{"children":[5,71,72],"name":"Armature_pm0125_00","rotation":[-0.7071068286895752,0,0,0.7071068286895752]},{"children":[6],"name":"Armature_Origin"},{"children":[7,52],"name":"Armature_Waist","translation":[0,45.58314895629883,4.417191028594971]},{"children":[8],"name":"Armature_Spine1"},{"children":[9,14,33],"name":"Armature_Spine2","translation":[0.000003691350229928503,11.759017944335938,-4.76837158203125e-7]},{"children":[10,11,12,13],"name":"Armature_Head","translation":[0.000006756450147804571,21.523006439208984,0.9530558586120605]},{"name":"Armature_Hair","translation":[0.000007686201570322737,24.48493194580078,10.2225341796875]},{"name":"Armature_Jaw","translation":[0.000001909999809868168,6.084526062011719,5.544052600860596]},{"name":"Armature_LEar","translation":[13.267609596252441,18.944236755371094,5.933373928070068]},{"name":"Armature_REar","rotation":[0,-8.881784197001252e-16,0,1],"translation":[-13.267589569091797,18.944236755371094,5.933343410491943]},{"children":[15],"name":"Armature_LShoulder","translation":[11.029194831848145,14.800029754638672,-2.212130546569824]},{"children":[16],"name":"Armature_LArm","rotation":[0,-1.7763568394002505e-15,0,1],"translation":[7.71201229095459,0,-0.5906342267990112]},{"children":[17],"name":"Armature_LForeArm","rotation":[0,1.7763568394002505e-15,0,1],"translation":[29.685489654541016,-1.3455657958984375,0.5522671937942505]},{"children":[18],"name":"Armature_LHand","translation":[28.633800506591797,-1.2978973388671875,0.5327019691467285]},{"children":[19,21,24,27,30],"name":"Armature_LHandSub"},{"children":[20],"name":"Armature_LFingerA1","translation":[7.6203155517578125,6.8085174560546875,4.878480911254883]},{"name":"Armature_LFingerA2","translation":[3.208221435546875,3.13031005859375,4.795395851135254]},{"children":[22],"name":"Armature_LFingerB1","translation":[17.968887329101562,10.380027770996094,1.9701931476593018]},{"children":[23],"name":"Armature_LFingerB2","translation":[7.203910827636719,-0.5836334228515625,0.10398197174072266]},{"name":"Armature_LFingerB3","translation":[4.396003723144531,-0.35614013671875,0.0634465217590332]},{"children":[25],"name":"Armature_LFingerC1","translation":[18.049598693847656,5.815040588378906,-1.260153889656067]},{"children":[26],"name":"Armature_LFingerC2","translation":[7.115501403808594,0.00893402099609375,-0.25231409072875977]},{"name":"Armature_LFingerC3","translation":[4.427001953125,0.00555419921875,-0.15697383880615234]},{"children":[28],"name":"Armature_LFingerD1","translation":[18.131629943847656,2.5668869018554688,-4.114038944244385]},{"children":[29],"name":"Armature_LFingerD2","translation":[6.9141693115234375,-0.216888427734375,-0.43919193744659424]},{"name":"Armature_LFingerD3","translation":[4.346099853515625,-0.13632965087890625,-0.2760549783706665]},{"children":[31],"name":"Armature_LFingerE1","translation":[18.208717346191406,-1.2411422729492188,-7.228328704833984]},{"children":[32],"name":"Armature_LFingerE2","translation":[6.354286193847656,-0.30004119873046875,-0.43703317642211914]},{"name":"Armature_LFingerE3","translation":[4.3506927490234375,-0.2054290771484375,-0.2992405891418457]},{"children":[34],"name":"Armature_RShoulder","rotation":[0,-8.881784197001252e-16,0,1],"translation":[-11.029193878173828,14.800037384033203,-2.2121307849884033]},{"children":[35],"name":"Armature_RArm","rotation":[0,2.6645352591003757e-15,0,1],"translation":[-7.711999893188477,0.00000762939453125,-0.5906438827514648]},{"children":[36],"name":"Armature_RForeArm","rotation":[0,-1.7763568394002505e-15,0,1],"translation":[-29.68550682067871,-1.3455810546875,0.5522563457489014]},{"children":[37],"name":"Armature_RHand","translation":[-28.6337890625,-1.2978591918945312,0.5327038764953613]},{"children":[38,40,43,46,49],"name":"Armature_RHandSub"},{"children":[39],"name":"Armature_RFingerA1","translation":[-7.62030029296875,6.808509826660156,4.878477096557617]},{"name":"Armature_RFingerA2","translation":[-3.208282470703125,3.1302871704101562,4.795367240905762]},{"children":[41],"name":"Armature_RFingerB1","translation":[-17.968887329101562,10.380020141601562,1.9702234268188477]},{"children":[42],"name":"Armature_RFingerB2","translation":[-7.20361328125,-0.5835800170898438,0.10396862030029297]},{"name":"Armature_RFingerB3","translation":[-4.396003723144531,-0.35611724853515625,0.06345462799072266]},{"children":[44],"name":"Armature_RFingerC1","translation":[-18.049583435058594,5.8151397705078125,-1.2601410150527954]},{"children":[45],"name":"Armature_RFingerC2","translation":[-7.1159210205078125,0.00888824462890625,-0.2523081302642822]},{"name":"Armature_RFingerC3","translation":[-4.426994323730469,0.005523681640625,-0.15696394443511963]},{"children":[47],"name":"Armature_RFingerD1","translation":[-18.13158416748047,2.5669174194335938,-4.1140241622924805]},{"children":[48],"name":"Armature_RFingerD2","translation":[-6.9139251708984375,-0.216888427734375,-0.4392058849334717]},{"name":"Armature_RFingerD3","translation":[-4.3459930419921875,-0.1363067626953125,-0.27605295181274414]},{"children":[50],"name":"Armature_RFingerE1","translation":[-18.208717346191406,-1.2411651611328125,-7.228303909301758]},{"children":[51],"name":"Armature_RFingerE2","translation":[-6.353790283203125,-0.29999542236328125,-0.4370393753051758]},{"name":"Armature_RFingerE3","translation":[-4.3509979248046875,-0.20539093017578125,-0.2992429733276367]},{"children":[53,57,64],"name":"Armature_Hips"},{"children":[54],"name":"Armature_Tail1","translation":[-0.000006314280199148925,-12.995967864990234,-20.69108009338379]},{"children":[55],"name":"Armature_Tail2","translation":[-6.73049726174213e-7,-1.0520458221435547,-12.016658782958984]},{"children":[56],"name":"Armature_Tail3","rotation":[0,-7.105428204633949e-15,0,1],"translation":[-3.541026671882719e-8,-0.6107845306396484,-19.479833602905273]},{"name":"Armature_Tail4","rotation":[0,7.105428204633949e-15,0,1],"translation":[4.911094038106967e-7,-0.018159866333007812,-17.90169906616211]},{"children":[58],"name":"Armature_LThigh","rotation":[0,3.552713678800501e-15,0,1],"translation":[14.477728843688965,-17.43754005432129,-2.1286349296569824]},{"children":[59],"name":"Armature_LLeg","rotation":[0,3.552713678800501e-15,0,1],"translation":[-0.0000095367431640625,-10.493650436401367,0.7339518070220947]},{"children":[60,63],"name":"Armature_LFoot","rotation":[0,-7.105427357601002e-15,0,1],"translation":[0,-9.589458465576172,-3.022507905960083]},{"children":[61,62],"name":"Armature_LToeA","translation":[0.922271728515625,-8.0625,0]},{"name":"Armature_LFeelerA","translation":[-5.01715087890625,2.886449098587036,20.327239990234375]},{"name":"Armature_LFeelerB","translation":[7.250378608703613,2.886439800262451,21.052560806274414]},{"name":"Armature_LToeB","translation":[-0.8057594299316406,-4.6771697998046875,-8.751581192016602]},{"children":[65],"name":"Armature_RThigh","translation":[-14.477710723876953,-13.823856353759766,-2.2073230743408203]},{"children":[66],"name":"Armature_RLeg","translation":[-0.00000858306884765625,-14.107322692871094,1.3126404285430908]},{"children":[67,70],"name":"Armature_RFoot","translation":[-0.0000095367431640625,-9.589470863342285,-3.522508382797241]},{"children":[68,69],"name":"Armature_RToeA","translation":[-0.9223012924194336,-5.374999046325684,-1.1368683772161603e-13]},{"name":"Armature_RFeelerA","translation":[5.017189979553223,0.1989603042602539,20.327239990234375]},{"name":"Armature_RFeelerB","translation":[-7.040920257568359,0.19897079467773438,19.062360763549805]},{"name":"Armature_RToeB","translation":[0.8056983947753906,-4.615851402282715,-25.987340927124023]},{"name":"Armature_pm0125_00_BodySkin"},{"name":"Armature_pm0125_00_IrisSkin"}],"samplers":[{}],"scene":0,"scenes":[{"name":"Scene","nodes":[0,2,1]}],"skins":[{"inverseBindMatrices":0,"joints":[4,5,6,7,8,9,10,11,12,13,14,15,16,17,18,19,20,21,22,23,24,25,26,27,28,29,30,31,32,33,34,35,36,37,38,39,40,41,42,43,44,45,46,47,48,49,50,51,52,53,54,55,56,57,58,59,60,61,62,63,64,65,66,67,68,69,70,71,72],"skeleton":0}],"textures":[{"sampler":0,"source":0},{"sampler":0,"source":1}],"extensionsUsed":["ALI_amc_mesh_compression"],"extensionsRequired":["ALI_amc_mesh_compression"]}