{"accessors":[{"bufferView":0,"componentType":5126,"count":55,"max":[1,6.026610321896442e-8,0.9995824098587036,0,0.9487413763999939,2.2421723144816497e-7,1,0,5.9604612800967516e-8,-1,2.243939434265485e-7,0,35.62640380859375,55.12861633300781,45.41095733642578,1],"min":[-1,0,-0.9487413763999939,0,-0.9995824098587036,0,-1,0,0,-1.0000001192092896,0,0,-83.72237396240234,-127.13333129882812,-61.41115951538086,1],"type":"MAT4","byteOffset":0}],"asset":{"generator":"Khronos Blender glTF 2.0 exporter","version":"2.0"},"bufferViews":[{"buffer":0,"byteLength":3520,"byteOffset":0},{"buffer":0,"byteOffset":3520,"byteLength":1123},{"buffer":0,"byteOffset":4643,"byteLength":153839},{"buffer":0,"byteOffset":158482,"byteLength":2071}],"buffers":[{"byteLength":160553,"uri":"buffer.bin"}],"images":[{"name":"pm0134_00_Body1","uri":"pm0134_00_Body1.png"},{"name":"pm0134_00_Eye1","uri":"pm0134_00_Eye1.png"},{"name":"pm0134_00_Mouth1","uri":"pm0134_00_Mouth1.png"}],"materials":[{"alphaMode":"OPAQUE","name":"Material__10","pbrMetallicRoughness":{"baseColorFactor":[0.6400000190734865,0.6400000190734865,0.6400000190734865,1],"baseColorTexture":{"index":0},"metallicFactor":0}},{"alphaMode":"OPAQUE","name":"Material__11","pbrMetallicRoughness":{"baseColorFactor":[0.6400000190734865,0.6400000190734865,0.6400000190734865,1],"baseColorTexture":{"index":1},"metallicFactor":0}},{"alphaMode":"OPAQUE","name":"Material__12","pbrMetallicRoughness":{"baseColorFactor":[0.6400000190734865,0.6400000190734865,0.6400000190734865,1],"baseColorTexture":{"index":2},"metallicFactor":0}}],"meshes":[{"name":"Vaporeon","primitives":[{"material":2,"extensions":{"ALI_amc_mesh_compression":{"bufferView":1}}},{"material":0,"extensions":{"ALI_amc_mesh_compression":{"bufferView":2}}},{"material":1,"extensions":{"ALI_amc_mesh_compression":{"bufferView":3}}}]}],"nodes":[{"children":[3,4],"name":"Armature","scale":[0.02539999969303608,0.02539999969303608,0.02539999969303608]},{"name":"Camera","rotation":[0.483536034822464,0.33687159419059753,-0.20870360732078552,0.7804827094078064],"translation":[7.481131553649902,5.34366512298584,6.5076398849487305]},{"name":"Lamp","rotation":[0.16907575726509094,0.7558802962303162,-0.27217137813568115,0.570947527885437],"scale":[1,1,0.9999999403953552],"translation":[4.076245307922363,5.903861999511719,-1.0054539442062378]},{"mesh":0,"name":"Vaporeon","skin":0},{"children":[5,58],"name":"Armature_pm0134_00","rotation":[-0.7071068286895752,0,0,0.7071068286895752]},{"children":[6],"name":"Armature_Origin"},{"children":[7,34],"name":"Armature_Waist","rotation":[0,1,0,-7.549790126404332e-8],"translation":[0,-4.07357120513916,37.03350067138672]},{"children":[8,21,22,28],"name":"Armature_Hips","rotation":[0,1,0,0.00000460545106761856],"translation":[-0.000028651978936977684,0.000020503997802734375,0.000015258784515026491]},{"children":[9],"name":"Armature_Tail1","rotation":[0,3.2388470572186634e-8,0,1],"translation":[0.000036129025829723105,13.952392578125,2.6877403259277344]},{"children":[10],"name":"Armature_Tail2","rotation":[0,7.450580596923828e-9,0,1],"translation":[0.000021540581656154245,11.270238876342773,0.000038146416045492515]},{"children":[11],"name":"Armature_Tail3","rotation":[0,9.094947017729282e-13,0,1],"translation":[0.000020915103959850967,10.957502365112305,0.00003051683415833395]},{"children":[12],"name":"Armature_Tail4","rotation":[0,-0.0068566445261240005,0,0.9999765157699585],"scale":[0.9999999403953552,1,0.9999999403953552],"translation":[0.00002785164542729035,10.938289642333984,0.000015257794984790962]},{"children":[13],"name":"Armature_Tail5","rotation":[0,-0.01379815861582756,0,0.9999048113822937],"translation":[0.0021871724165976048,11.428874969482422,0.1567782312631607]},{"children":[14],"name":"Armature_Tail6","translation":[0.018090441823005676,10.570369720458984,0.4365920126438141]},{"children":[15],"name":"Armature_Tail7","rotation":[0,0.009890332818031311,0,0.9999511241912842],"translation":[0.018214315176010132,10.639389038085938,0.4394434988498688]},{"children":[16,17,19],"name":"Armature_Tail8","rotation":[0,0.013820354826748371,0,0.9999045133590698],"scale":[0.9999999403953552,1,0.9999999403953552],"translation":[0.005257682874798775,11.332023620605469,0.24412037432193756]},{"name":"Armature_EndTail8","translation":[0.000200157257495448,4.841438293457031,-0.029501330107450485]},{"children":[18],"name":"Armature_LTail","rotation":[0,-0.0013022669591009617,0,0.9999991655349731],"translation":[2.776063919067383,10.517868041992188,-0.04714151471853256]},{"name":"Armature_EndLTail","translation":[17.223093032836914,29.599693298339844,-0.12004205584526062]},{"children":[20],"name":"Armature_RTail","rotation":[0,0.002246253425255418,0,0.9999974966049194],"translation":[-2.77494215965271,10.517997741699219,-0.08104266971349716]},{"name":"Armature_EndRTail","rotation":[0,-4.656612873077393e-10,0,1],"translation":[-17.21949005126953,29.599815368652344,-0.3629765510559082]},{"name":"Armature_EndHips","rotation":[0,3.6114215617999434e-8,0,1],"translation":[0.00019852319383062422,100.760986328125,0.00034713538479991257]},{"children":[23],"name":"Armature_LThigh","rotation":[0,0.7738891839981079,0,0.6333209872245789],"translation":[7.9997334480285645,8.437286376953125,-2.303325653076172]},{"children":[24],"name":"Armature_LLeg","rotation":[0,0.2978980243206024,0,0.9545977115631104],"scale":[0.9999998807907104,1,0.9999998807907104],"translation":[11.072728157043457,2.2794265747070312,2.234401226043701]},{"children":[25,26],"name":"Armature_LFoot","rotation":[0,-0.9268637299537659,0,0.3753979802131653],"translation":[5.383464336395264,8.05567455291748,5.5886969566345215]},{"name":"Armature_EndLFoot","rotation":[1.1219697881870161e-7,7.08969309926033e-8,-2.9802315282267955e-8,1],"translation":[-2.5331974029541016e-7,-10.266402244567871,-0.00004388764500617981]},{"children":[27],"name":"Armature_LToe","rotation":[0,4.4587068259716034e-8,0,1],"translation":[0.00004895217716693878,-6.080941200256348,-12.080531120300293]},{"name":"Armature_EndLToe","translation":[9.12696123123169e-8,-8.157090187072754,-0.00003292784094810486]},{"children":[29],"name":"Armature_RThigh","rotation":[0,0.7738889455795288,0,0.6333213448524475],"translation":[-7.999693870544434,8.437359809875488,-2.3033447265625]},{"children":[30],"name":"Armature_RLeg","rotation":[0,0.2978980541229248,0,0.9545977115631104],"translation":[11.072729110717773,2.2794809341430664,2.234394073486328]},{"children":[31,32],"name":"Armature_RFoot","rotation":[0,-0.927415132522583,0,0.3740336298942566],"scale":[1,0.9999999403953552,1],"translation":[5.383504390716553,8.055623054504395,5.588698863983154]},{"name":"Armature_EndRFoot","rotation":[0,-1.490343493060209e-8,0,1],"translation":[0.000010700729035306722,-10.266399383544922,-0.000050780763558577746]},{"children":[33],"name":"Armature_RToe","rotation":[0,-1.829926077334676e-8,0,1],"translation":[0.00006629995186813176,-6.080968856811523,-12.080527305603027]},{"name":"Armature_EndRToe","translation":[0.000008257553417934105,-8.157089233398438,-0.00004071281728101894]},{"children":[35],"name":"Armature_Spine1","rotation":[0,-1.5099580252808664e-7,0,1],"translation":[0.000014000000192027073,-0.00000858306884765625,2.1174173525650986e-12]},{"children":[36,41,46],"name":"Armature_Spine2","rotation":[0,0.03840518370270729,0,0.9992623329162598],"translation":[-0.00004563191396300681,-9.637687683105469,0.00001907349178509321]},{"children":[37],"name":"Armature_LShoulder","rotation":[0,-0.8650807738304138,0,0.5016327500343323],"scale":[0.9999999403953552,1,0.9999999403953552],"translation":[-4.993800163269043,-10.968442916870117,-2.4012651443481445]},{"children":[38],"name":"Armature_LArm","rotation":[0,0.23376716673374176,0,0.9722926020622253],"translation":[6.304208755493164,-0.15932464599609375,-0.15930700302124023]},{"children":[39],"name":"Armature_LForeArm","rotation":[0,-0.2396319955587387,0,0.9708638191223145],"translation":[16.878273010253906,0.48821449279785156,0.48800477385520935]},{"children":[40],"name":"Armature_LHand","rotation":[0,-0.5329819321632385,0,0.8461266160011292],"scale":[0.9999999403953552,1,0.9999999403953552],"translation":[11.417570114135742,-6.219902038574219,-5.586889743804932]},{"name":"Armature_EndLHand","rotation":[0,-2.7939677238464355e-8,0,1],"translation":[-3.8370490074157715e-7,-7.428169250488281,-0.00004471093416213989]},{"children":[42],"name":"Armature_RShoulder","rotation":[0,-0.5871863961219788,0,0.8094517588615417],"translation":[5.302699565887451,-10.96837043762207,-1.6086493730545044]},{"children":[43],"name":"Armature_RArm","rotation":[0,-0.18078352510929108,0,0.9835229516029358],"scale":[1.0000001192092896,1,1.0000001192092896],"translation":[6.30422306060791,-0.159393310546875,-0.15921306610107422]},{"children":[44],"name":"Armature_RForeArm","rotation":[0,-0.2396325021982193,0,0.9708636999130249],"translation":[16.87831687927246,0.4882698059082031,0.4880135655403137]},{"children":[45],"name":"Armature_RHand","rotation":[0,-0.5329004526138306,0,0.8461779356002808],"translation":[11.417527198791504,-6.219898223876953,-5.586976051330566]},{"name":"Armature_EndRHand","rotation":[0,4.6566128730773926e-9,0,1],"translation":[0.000022348016500473022,-7.428197860717773,-0.00006695091724395752]},{"children":[47],"name":"Armature_Neck","rotation":[0,0.2859779894351959,0,0.9582362771034241],"scale":[0.9999999403953552,1,0.9999999403953552],"translation":[0.08460269123315811,-14.301921844482422,-1.0978540182113647]},{"children":[48,50,52,55],"name":"Armature_Head","rotation":[0,0.06532366573810577,0,0.9978641271591187],"scale":[0.9999999403953552,1,0.9999999403953552],"translation":[1.5225125551223755,-3.2332115173339844,-1.9743671417236328]},{"children":[49],"name":"Armature_FeelerA","rotation":[0,-0.0672135055065155,0,0.9977386593818665],"scale":[1.0000001192092896,1,1.0000001192092896],"translation":[-0.7750513553619385,-0.8216018676757812,0.7716121673583984]},{"name":"Armature_EndFeelerA","rotation":[0,-1.4901162970204496e-8,0,1],"scale":[0.9999999403953552,1,0.9999999403953552],"translation":[10.721354484558105,-23.060611724853516,-14.012702941894531]},{"children":[51],"name":"Armature_FeelerB","rotation":[0,0.5247063636779785,0,0.8512833118438721],"translation":[13.133505821228027,-18.449878692626953,-13.074952125549316]},{"name":"Armature_EndFeelerB","rotation":[0,1.4901161193847656e-8,0,1],"translation":[27.59488296508789,9.689456939697266,9.19269847869873]},{"children":[53],"name":"Armature_LEar1","rotation":[0,0.870575487613678,0,0.49203503131866455],"translation":[2.2763724327087402,-11.564716339111328,-16.23419952392578]},{"children":[54],"name":"Armature_LEar2","rotation":[0,2.9802322387695312e-8,0,1],"translation":[10.866948127746582,3.1589927673339844,4.431725978851318]},{"name":"Armature_EndLEar2","translation":[17.66529655456543,5.13507080078125,7.204133033752441]},{"children":[56],"name":"Armature_REar1","rotation":[0,0.009355328045785427,0,0.9999562501907349],"translation":[16.244232177734375,-11.564552307128906,-2.2037649154663086]},{"children":[57],"name":"Armature_REar2","translation":[11.550670623779297,3.1590042114257812,2.0766658782958984]},{"name":"Armature_EndREar2","translation":[18.77677345275879,5.135292053222656,3.3758277893066406]},{"name":"Armature_pm0134_00_BodySkin"}],"samplers":[{}],"scene":0,"scenes":[{"name":"Scene","nodes":[0,2,1]}],"skins":[{"inverseBindMatrices":0,"joints":[4,5,6,7,8,9,10,11,12,13,14,15,16,17,18,19,20,21,22,23,24,25,26,27,28,29,30,31,32,33,34,35,36,37,38,39,40,41,42,43,44,45,46,47,48,49,50,51,52,53,54,55,56,57,58],"skeleton":0}],"textures":[{"sampler":0,"source":0},{"sampler":0,"source":1},{"sampler":0,"source":2}],"extensionsUsed":["ALI_amc_mesh_compression"],"extensionsRequired":["ALI_amc_mesh_compression"]}