{"accessors":[{"bufferView":0,"componentType":5126,"count":47,"max":[1,-6.1767240898953465e-24,1,0,1,0,1,0,6.1767240898953465e-24,-1,6.1767240898953465e-24,0,105.90898895263672,0,155.4831085205078,1],"min":[-1,-6.1767292174912305e-24,-1,0,-1,0,-1,0,-6.1767240898953465e-24,-1.0000008344650269,-6.1767240898953465e-24,0,-272.7142639160156,-9.404144287109375,-155.48297119140625,1],"type":"MAT4","byteOffset":0},{"bufferView":1,"componentType":5126,"count":47,"max":[1,-6.1767240898953465e-24,1,0,1,0,1,0,6.1767240898953465e-24,-1,6.1767240898953465e-24,0,105.90898895263672,0,155.4831085205078,1],"min":[-1,-6.1767292174912305e-24,-1,0,-1,0,-1,0,-6.1767240898953465e-24,-1.0000008344650269,-6.1767240898953465e-24,0,-272.7142639160156,-9.404144287109375,-155.48297119140625,1],"type":"MAT4","byteOffset":0},{"bufferView":2,"componentType":5126,"count":47,"max":[1,-6.1767240898953465e-24,1,0,1,0,1,0,6.1767240898953465e-24,-1,6.1767240898953465e-24,0,105.90898895263672,0,155.4831085205078,1],"min":[-1,-6.1767292174912305e-24,-1,0,-1,0,-1,0,-6.1767240898953465e-24,-1.0000008344650269,-6.1767240898953465e-24,0,-272.7142639160156,-9.404144287109375,-155.48297119140625,1],"type":"MAT4","byteOffset":0},{"bufferView":3,"componentType":5126,"count":47,"max":[1,-6.1767240898953465e-24,1,0,1,0,1,0,6.1767240898953465e-24,-1,6.1767240898953465e-24,0,105.90898895263672,0,155.4831085205078,1],"min":[-1,-6.1767292174912305e-24,-1,0,-1,0,-1,0,-6.1767240898953465e-24,-1.0000008344650269,-6.1767240898953465e-24,0,-272.7142639160156,-9.404144287109375,-155.48297119140625,1],"type":"MAT4","byteOffset":0},{"bufferView":4,"componentType":5126,"count":47,"max":[1,-6.1767240898953465e-24,1,0,1,0,1,0,6.1767240898953465e-24,-1,6.1767240898953465e-24,0,105.90898895263672,0,155.4831085205078,1],"min":[-1,-6.1767292174912305e-24,-1,0,-1,0,-1,0,-6.1767240898953465e-24,-1.0000008344650269,-6.1767240898953465e-24,0,-272.7142639160156,-9.404144287109375,-155.48297119140625,1],"type":"MAT4","byteOffset":0},{"bufferView":5,"componentType":5126,"count":47,"max":[1,-6.1767240898953465e-24,1,0,1,0,1,0,6.1767240898953465e-24,-1,6.1767240898953465e-24,0,105.90898895263672,0,155.4831085205078,1],"min":[-1,-6.1767292174912305e-24,-1,0,-1,0,-1,0,-6.1767240898953465e-24,-1.0000008344650269,-6.1767240898953465e-24,0,-272.7142639160156,-9.404144287109375,-155.48297119140625,1],"type":"MAT4","byteOffset":0},{"bufferView":6,"componentType":5126,"count":47,"max":[1,-6.1767240898953465e-24,1,0,1,0,1,0,6.1767240898953465e-24,-1,6.1767240898953465e-24,0,105.90898895263672,0,155.4831085205078,1],"min":[-1,-6.1767292174912305e-24,-1,0,-1,0,-1,0,-6.1767240898953465e-24,-1.0000008344650269,-6.1767240898953465e-24,0,-272.7142639160156,-9.404144287109375,-155.48297119140625,1],"type":"MAT4","byteOffset":0}],"asset":{"generator":"Khronos Blender glTF 2.0 exporter","version":"2.0"},"bufferViews":[{"buffer":0,"byteLength":3008,"byteOffset":0},{"buffer":0,"byteLength":3008,"byteOffset":3008},{"buffer":0,"byteLength":3008,"byteOffset":6016},{"buffer":0,"byteLength":3008,"byteOffset":9024},{"buffer":0,"byteLength":3008,"byteOffset":12032},{"buffer":0,"byteLength":3008,"byteOffset":15040},{"buffer":0,"byteLength":3008,"byteOffset":18048},{"buffer":0,"byteOffset":21056,"byteLength":20463},{"buffer":0,"byteOffset":41519,"byteLength":39959},{"buffer":0,"byteOffset":81478,"byteLength":31407},{"buffer":0,"byteOffset":112885,"byteLength":15455},{"buffer":0,"byteOffset":128340,"byteLength":10123},{"buffer":0,"byteOffset":138463,"byteLength":2235},{"buffer":0,"byteOffset":140698,"byteLength":10667}],"buffers":[{"byteLength":151365,"uri":"buffer.bin"}],"images":[{"name":"Body1_0","uri":"Body1_0.png"},{"name":"Eye1_0","uri":"Eye1_0.png"}],"materials":[{"name":"Body00","pbrMetallicRoughness":{"baseColorFactor":[0.6400000190734865,0.6400000190734865,0.6400000190734865,1],"baseColorTexture":{"index":0},"metallicFactor":0}},{"name":"Body01","pbrMetallicRoughness":{"baseColorFactor":[0.6400000190734865,0.6400000190734865,0.6400000190734865,1],"baseColorTexture":{"index":0},"metallicFactor":0}},{"name":"Body02","pbrMetallicRoughness":{"baseColorFactor":[0.6400000190734865,0.6400000190734865,0.6400000190734865,1],"baseColorTexture":{"index":0},"metallicFactor":0}},{"name":"Body03","pbrMetallicRoughness":{"baseColorFactor":[0.6400000190734865,0.6400000190734865,0.6400000190734865,1],"baseColorTexture":{"index":0},"metallicFactor":0}},{"name":"Eye","pbrMetallicRoughness":{"baseColorFactor":[0.6400000190734865,0.6400000190734865,0.6400000190734865,1],"baseColorTexture":{"index":4},"metallicFactor":0}}],"meshes":[{"name":"Mesh_6__Body01_","primitives":[{"material":1,"extensions":{"ALI_amc_mesh_compression":{"bufferView":7}}}]},{"name":"Mesh_3__Body00_","primitives":[{"material":0,"extensions":{"ALI_amc_mesh_compression":{"bufferView":8}}}]},{"name":"Mesh_7__Body02_","primitives":[{"material":2,"extensions":{"ALI_amc_mesh_compression":{"bufferView":9}}}]},{"name":"Mesh_4__Body01_","primitives":[{"material":1,"extensions":{"ALI_amc_mesh_compression":{"bufferView":10}}}]},{"name":"Mesh_5__Body03_","primitives":[{"material":3,"extensions":{"ALI_amc_mesh_compression":{"bufferView":11}}}]},{"name":"Mesh_2__Eye_","primitives":[{"material":4,"extensions":{"ALI_amc_mesh_compression":{"bufferView":12}}}]},{"name":"Mesh_1__Body00_","primitives":[{"material":0,"extensions":{"ALI_amc_mesh_compression":{"bufferView":13}}}]}],"nodes":[{"children":[3,4,5,6,7,8,9,10],"name":"Armature","rotation":[1,-1.1102250098586267e-16,-5.551124387548643e-17,-1.9470718370939721e-7]},{"name":"Camera","rotation":[0.483536034822464,0.33687159419059753,-0.20870360732078552,0.7804827094078064],"translation":[7.481131553649902,5.34366512298584,6.5076398849487305]},{"name":"Lamp","rotation":[0.16907575726509094,0.7558802962303162,-0.27217137813568115,0.570947527885437],"scale":[1,1,0.9999999403953552],"translation":[4.076245307922363,5.903861999511719,-1.0054539442062378]},{"mesh":6,"name":"Mesh_1__Body00_","skin":0},{"mesh":5,"name":"Mesh_2__Eye_","skin":1},{"mesh":1,"name":"Mesh_3__Body00_","skin":2},{"mesh":3,"name":"Mesh_4__Body01_","skin":3},{"mesh":4,"name":"Mesh_5__Body03_","skin":4},{"mesh":0,"name":"Mesh_6__Body01_","skin":5},{"mesh":2,"name":"Mesh_7__Body02_","skin":6},{"children":[11,54,55,56],"name":"Armature_pm0042_00_golbat","rotation":[-0.7071068286895752,7.850476717442717e-17,-7.850476717442717e-17,0.7071068286895752]},{"children":[12],"name":"Armature_Origin","rotation":[0,3.43361364230077e-7,0,1]},{"children":[13,27],"name":"Armature_Waist","rotation":[0,0.7071078419685364,0,0.7071056962013245],"scale":[1,0.9999999403953552,1],"translation":[0.00002477375528542325,0.0000027241158022661693,-36.075401306152344]},{"children":[14,15,21],"name":"Armature_Hips","rotation":[0,1,0,-0.0000015060095392982475],"translation":[4.1659120597614674e-11,-4.765752237290144e-10,-0.000011226197784708347]},{"name":"Armature_EndHips","rotation":[0,1.4266333892010152e-8,0,1],"translation":[29.68440055847168,-2.091837814077735e-11,0.0000011642114259302616]},{"children":[16],"name":"Armature_LThigh","rotation":[0,-0.5831543207168579,0,0.8123614192008972],"translation":[12.472579956054688,6.0000104904174805,-24.399974822998047]},{"children":[17],"name":"Armature_LLeg","rotation":[0,0.3287675976753235,0,0.9444108605384827],"scale":[1,0.9999999403953552,1],"translation":[-11.598478317260742,0.00002002716064453125,-8.838871002197266]},{"children":[18,19],"name":"Armature_LFoot","rotation":[0,-0.4774912893772125,0,0.8786364793777466],"scale":[0.9999999403953552,0.9999999403953552,0.9999999403953552],"translation":[5.057240962982178,0.00001239776611328125,-11.313106536865234]},{"name":"Armature_EndLFoot","rotation":[0,-3.0794353733654134e-8,0,1],"translation":[-11.75390338897705,-0.00000762939453125,0.00016544040408916771]},{"children":[20],"name":"Armature_LToe","rotation":[0,-3.0794353733654134e-8,0,1],"translation":[-7.062756061553955,0.00000667572021484375,-3.7237606048583984]},{"name":"Armature_EndLToe","translation":[-11.75390625,-0.00000667572021484375,0.00016590344603173435]},{"children":[22],"name":"Armature_RThigh","rotation":[0,-0.5831490755081177,0,0.8123651742935181],"translation":[12.472745895385742,6.000017166137695,24.399972915649414]},{"children":[23],"name":"Armature_RLeg","rotation":[0,0.32876721024513245,0,0.9444109797477722],"scale":[0.9999999403953552,0.9999999403953552,0.9999999403953552],"translation":[14.58242416381836,-0.000004291534423828125,0.00013256072998046875]},{"children":[24,25],"name":"Armature_RFoot","rotation":[0,-0.47749170660972595,0,0.8786363005638123],"translation":[12.391961097717285,0.000035762786865234375,-0.00007152557373046875]},{"name":"Armature_EndRFoot","rotation":[0,-1.3909129847888835e-8,0,1],"translation":[11.754009246826172,-0.000011920928955078125,-0.000010033822036348283]},{"children":[26],"name":"Armature_RToe","rotation":[0,-1.3909129847888835e-8,0,1],"translation":[7.062808990478516,0,-3.7238705158233643]},{"name":"Armature_EndRToe","translation":[11.753913879394531,-0.000012874603271484375,-0.000002676417352631688]},{"children":[28,34,44],"name":"Armature_Spine","rotation":[0,1.4266561265685596e-8,0,1],"translation":[0,-9.094947017729282e-13,1.8189894035458565e-12]},{"children":[29,30,32],"name":"Armature_Head","translation":[41.01689910888672,-6.702975952066481e-10,-0.000003907509380951524]},{"name":"Armature_EndHead","translation":[38.63969421386719,8.11269273981452e-10,-0.0000036812853068113327]},{"children":[31],"name":"Armature_LEar","rotation":[0,-0.20685811340808868,0,0.9783709645271301],"scale":[0.9999999403953552,1,0.9999999403953552],"translation":[34.591590881347656,6.970486164093018,14.243802070617676]},{"name":"Armature_EndLEar","rotation":[0,2.8312206268310547e-7,0,1],"translation":[9.25101089477539,2.4336557388305664,-2.3582286834716797]},{"children":[33],"name":"Armature_REar","rotation":[0,-0.04122566804289818,0,0.9991498589515686],"scale":[0.9999999403953552,1,0.9999999403953552],"translation":[34.591758728027344,6.970448970794678,-14.244040489196777]},{"name":"Armature_EndREar","rotation":[0,-5.960464477539063e-8,0,1],"translation":[9.250666618347168,2.4335732460021973,-2.3581371307373047]},{"children":[35],"name":"Armature_LShoulder","rotation":[0,-0.6035494208335876,0,0.797325611114502],"translation":[37.36152267456055,6.257506370544434,1.4663450717926025]},{"children":[36],"name":"Armature_LArm","rotation":[0,0.044363297522068024,0,0.9990155696868896],"translation":[31.14897346496582,-2.660285711288452,2.6505022048950195]},{"children":[37],"name":"Armature_LForeArm","rotation":[0,0.4470398426055908,0,0.8945140838623047],"scale":[0.9999999403953552,0.9999998807907104,0.9999999403953552],"translation":[24.600725173950195,-0.00023221969604492188,0.0002269744873046875]},{"children":[38,39,42],"name":"Armature_LHand","rotation":[0,-0.9497637152671814,0,0.31296801567077637],"scale":[1.0000001192092896,0.9999996423721313,1.0000001192092896],"translation":[52.97548294067383,-0.00006437301635742188,-0.00041961669921875]},{"name":"Armature_EndLHand","rotation":[0,-0.21270865201950073,0,0.9771156907081604],"translation":[96.82151794433594,0.00003314018249511719,0.0000286102294921875]},{"children":[40],"name":"Armature_LFingerA1","rotation":[0,0.7572187781333923,0,0.653161346912384],"scale":[0.9999999403953552,0.9999997615814209,0.9999999403953552],"translation":[0.000461578369140625,0.00011563301086425781,-0.000225067138671875]},{"children":[41],"name":"Armature_LFingerA2","rotation":[0,-0.12426870316267014,0,0.9922485947608948],"translation":[56.15721130371094,0.000030517578125,0.000507354736328125]},{"name":"Armature_EndLFingerA2","rotation":[0,3.725290298461914e-8,0,1],"translation":[115.73411560058594,0.0000247955322265625,-0.000030517578125]},{"children":[43],"name":"Armature_LFingerB","rotation":[0,0.37890201807022095,0,0.925436794757843],"scale":[0.9999999403953552,1,0.9999999403953552],"translation":[0.0008392333984375,0.00007367134094238281,0.00029754638671875]},{"name":"Armature_EndLFingerB","rotation":[0,-0.0000016838312149047852,0,1],"translation":[100.4209976196289,0.000003337860107421875,0.00019073486328125]},{"children":[45],"name":"Armature_RShoulder","rotation":[0,0.668981671333313,0,0.743278980255127],"translation":[37.36148452758789,6.257479190826416,-1.466397762298584]},{"children":[46],"name":"Armature_RArm","rotation":[0,-0.12890180945396423,0,0.9916573762893677],"scale":[0.9999999403953552,1,0.9999999403953552],"translation":[31.14896011352539,-2.6602327823638916,2.6507699489593506]},{"children":[47],"name":"Armature_RForeArm","rotation":[0,-0.44704732298851013,0,0.8945103287696838],"scale":[0.9999998807907104,0.9999998807907104,0.9999998807907104],"translation":[24.600584030151367,-0.0002601146697998047,0.0001850128173828125]},{"children":[48,49,52],"name":"Armature_RHand","rotation":[0,0.9497637152671814,0,0.3129678964614868],"scale":[1,1.0000001192092896,1],"translation":[52.97483825683594,-0.00006556510925292969,-0.0005779266357421875]},{"name":"Armature_EndRHand","rotation":[0,-0.16223786771297455,0,0.9867516756057739],"scale":[1.0000001192092896,1,1.0000001192092896],"translation":[96.82064819335938,0.00005340576171875,-0.0000057220458984375]},{"children":[50],"name":"Armature_RFingerA1","rotation":[0,-0.7572190761566162,0,0.6531609892845154],"scale":[1,0.9999999403953552,1],"translation":[-0.00020599365234375,-0.000030517578125,-0.000720977783203125]},{"children":[51],"name":"Armature_RFingerA2","rotation":[0,0.12426869571208954,0,0.9922486543655396],"translation":[56.15747833251953,0.00010442733764648438,0.000988006591796875]},{"name":"Armature_EndRFingerA2","rotation":[0,-1.2665987014770508e-7,0,1],"scale":[1,1.0000001192092896,1],"translation":[115.73406219482422,-0.000009775161743164062,0.00017547607421875]},{"children":[53],"name":"Armature_RFingerB","rotation":[0,-0.378901869058609,0,0.9254368543624878],"translation":[-0.0002956390380859375,0.00007796287536621094,-0.000263214111328125]},{"name":"Armature_EndRFingerB","rotation":[0,9.5367431640625e-7,0,1],"scale":[1,1.0000001192092896,1],"translation":[100.41991424560547,-0.0000026226043701171875,-0.00029754638671875]},{"name":"Armature_pm0042_01_FangSkin"},{"name":"Armature_pm0042_00_BodySkin"},{"name":"Armature_pm0042_00_WingSkin"}],"samplers":[{}],"scene":0,"scenes":[{"name":"Scene","nodes":[0,2,1]}],"skins":[{"inverseBindMatrices":0,"joints":[10,11,12,13,14,15,16,17,18,19,20,21,22,23,24,25,26,27,28,29,30,31,32,33,34,35,36,37,38,39,40,41,42,43,44,45,46,47,48,49,50,51,52,53,54,55,56],"skeleton":0},{"inverseBindMatrices":1,"joints":[10,11,12,13,14,15,16,17,18,19,20,21,22,23,24,25,26,27,28,29,30,31,32,33,34,35,36,37,38,39,40,41,42,43,44,45,46,47,48,49,50,51,52,53,54,55,56],"skeleton":0},{"inverseBindMatrices":2,"joints":[10,11,12,13,14,15,16,17,18,19,20,21,22,23,24,25,26,27,28,29,30,31,32,33,34,35,36,37,38,39,40,41,42,43,44,45,46,47,48,49,50,51,52,53,54,55,56],"skeleton":0},{"inverseBindMatrices":3,"joints":[10,11,12,13,14,15,16,17,18,19,20,21,22,23,24,25,26,27,28,29,30,31,32,33,34,35,36,37,38,39,40,41,42,43,44,45,46,47,48,49,50,51,52,53,54,55,56],"skeleton":0},{"inverseBindMatrices":4,"joints":[10,11,12,13,14,15,16,17,18,19,20,21,22,23,24,25,26,27,28,29,30,31,32,33,34,35,36,37,38,39,40,41,42,43,44,45,46,47,48,49,50,51,52,53,54,55,56],"skeleton":0},{"inverseBindMatrices":5,"joints":[10,11,12,13,14,15,16,17,18,19,20,21,22,23,24,25,26,27,28,29,30,31,32,33,34,35,36,37,38,39,40,41,42,43,44,45,46,47,48,49,50,51,52,53,54,55,56],"skeleton":0},{"inverseBindMatrices":6,"joints":[10,11,12,13,14,15,16,17,18,19,20,21,22,23,24,25,26,27,28,29,30,31,32,33,34,35,36,37,38,39,40,41,42,43,44,45,46,47,48,49,50,51,52,53,54,55,56],"skeleton":0}],"textures":[{"sampler":0,"source":0},{"sampler":0,"source":0},{"sampler":0,"source":0},{"sampler":0,"source":0},{"sampler":0,"source":1}],"extensionsUsed":["ALI_amc_mesh_compression"],"extensionsRequired":["ALI_amc_mesh_compression"]}