{"accessors":[{"bufferView":0,"componentType":5126,"count":41,"max":[1,8.363853195908402e-15,7.105427357601002e-15,0,1.4210853868169056e-14,3.556793698769594e-37,1,0,8.363853195908402e-15,-1,0,0,50.699283599853516,0,108.90301513671875,1],"min":[1,-7.131089067771018e-15,-1.4210853868169056e-14,0,-7.105427357601002e-15,-1.1260218002462352e-7,1,0,-7.131089067771018e-15,-1,-1.1260218002462352e-7,0,-50.6993293762207,-92.39414978027344,-107.9999771118164,1],"type":"MAT4","byteOffset":0}],"asset":{"generator":"Khronos Blender glTF 2.0 exporter","version":"2.0"},"bufferViews":[{"buffer":0,"byteLength":2624,"byteOffset":0},{"buffer":0,"byteOffset":2624,"byteLength":216167},{"buffer":0,"byteOffset":218791,"byteLength":6119}],"buffers":[{"byteLength":224910,"uri":"buffer.bin"}],"images":[{"name":"pm0108_00_Body1","uri":"pm0108_00_Body1.png"},{"name":"pm0108_00_Eye1","uri":"pm0108_00_Eye1.png"}],"materials":[{"name":"Body_mat","pbrMetallicRoughness":{"baseColorFactor":[0.6400000190734865,0.6400000190734865,0.6400000190734865,1],"baseColorTexture":{"index":0},"metallicFactor":0}},{"name":"Eye_mat_001","pbrMetallicRoughness":{"baseColorFactor":[0.6400000190734865,0.6400000190734865,0.6400000190734865,1],"baseColorTexture":{"index":1},"metallicFactor":0}}],"meshes":[{"name":"mesh_4_BodyVco","primitives":[{"material":0,"extensions":{"ALI_amc_mesh_compression":{"bufferView":1}}},{"material":1,"extensions":{"ALI_amc_mesh_compression":{"bufferView":2}}}]}],"nodes":[{"children":[3,4],"name":"Armature","rotation":[0.7071068286895752,0,0,0.7071067094802856]},{"name":"Camera","rotation":[0.483536034822464,0.33687159419059753,-0.20870360732078552,0.7804827094078064],"translation":[7.481131553649902,5.34366512298584,6.5076398849487305]},{"name":"Lamp","rotation":[0.16907575726509094,0.7558802962303162,-0.27217137813568115,0.570947527885437],"scale":[1,1,0.9999999403953552],"translation":[4.076245307922363,5.903861999511719,-1.0054539442062378]},{"mesh":0,"name":"vsn_mesh_4_BodyVco","skin":0},{"children":[5,44],"name":"Armature_pm0108_00","rotation":[-0.7071068286895752,0,0,0.7071068286895752]},{"children":[6],"name":"Armature_Origin"},{"children":[7,26],"name":"Armature_Waist","translation":[0,50.87565994262695,3.4267642498016357]},{"children":[8],"name":"Armature_Spine1"},{"children":[9,18,22],"name":"Armature_Spine2","translation":[0.000003061179995711427,9.751598358154297,1.7727067470550537]},{"children":[10,17],"name":"Armature_Head","translation":[0.000007604618986079004,24.225112915039062,9.016759872436523]},{"children":[11],"name":"Armature_Tongue1","rotation":[0,8.470329472543003e-22,0,1],"translation":[-0.0000043580689634836745,-4.3263702392578125,11.154817581176758]},{"children":[12],"name":"Armature_Tongue2","rotation":[0,-1.3895271139246643e-21,0,1],"translation":[0.000001987259111047024,6.330535888671875,12.533828735351562]},{"children":[13],"name":"Armature_Tongue3","rotation":[-1.9342871108559277e-36,5.42494166670364e-22,3.565544533885509e-15,1],"translation":[4.3351064960006624e-8,0.138092041015625,14.099246978759766]},{"children":[14],"name":"Armature_Tongue4","rotation":[0,0,-4.194757453039209e-15,1],"translation":[-2.0973068615148804e-7,-0.668121337890625,13.609844207763672]},{"children":[15],"name":"Armature_Tongue5","rotation":[-5.630109001231176e-8,-3.6025656905599923e-22,0,1],"translation":[1.1869706995071283e-8,0.0378265380859375,10.386032104492188]},{"children":[16],"name":"Armature_Tongue6","rotation":[5.63010829068844e-8,-3.552713467042264e-15,-3.552713678800501e-15,1],"translation":[-1.0868306173647882e-13,0.000012528784282039851,15.999994277954102]},{"name":"Armature_Tongue7","rotation":[-2.3665827156630354e-30,3.5527141023169746e-15,3.5526912324273987e-15,1],"translation":[9.139994316953448e-12,0.0000457763671875,15.999984741210938]},{"name":"Armature_Jaw","rotation":[0,5.805734039549195e-22,0,1],"translation":[-6.324989954009652e-7,7.541778564453125,-9.240301132202148]},{"children":[19],"name":"Armature_LShoulder","rotation":[0,1.7800515971161737e-15,0,1],"translation":[16.45497703552246,14.041450500488281,3.424154758453369]},{"children":[20],"name":"Armature_LArm","rotation":[-3.518818125769485e-9,-3.556408436516424e-15,1.2514354505211338e-23,1],"translation":[8.451848983764648,-0.275970458984375,0.47117137908935547]},{"children":[21],"name":"Armature_LForeArm","rotation":[3.518818125769485e-9,5.329070518200751e-15,1.8752031510670397e-23,1],"translation":[15.837688446044922,0.000022819311197963543,0.6914783120155334]},{"name":"Armature_LHand","translation":[9.954811096191406,0,0.4346427917480469]},{"children":[23],"name":"Armature_RShoulder","translation":[-16.454994201660156,14.041450500488281,3.424154758453369]},{"children":[24],"name":"Armature_RArm","rotation":[-3.518817681680275e-9,-1.7763568394002505e-15,6.25067585545529e-24,1],"translation":[-8.451797485351562,-0.27597808837890625,0.47117137908935547]},{"children":[25],"name":"Armature_RForeArm","rotation":[3.518817681680275e-9,1.7763568394002505e-15,6.25067585545529e-24,1],"translation":[-15.837692260742188,0.00007622507109772414,0.6914744973182678]},{"name":"Armature_RHand","translation":[-9.954803466796875,0.00000762939453125,0.4346170425415039]},{"children":[27,36,40],"name":"Armature_Hips","translation":[0,0,-0.0000011920928955078125]},{"children":[28],"name":"Armature_Tail1","translation":[-0.0000210703001357615,-23.844139099121094,-16.147794723510742]},{"children":[29],"name":"Armature_Tail2","rotation":[0,-3.3881317890172014e-21,0,1],"translation":[0.0000023135016817832366,10.306449890136719,-14.88421630859375]},{"children":[30],"name":"Armature_Tail3","rotation":[0,3.3881317890172014e-21,0,1],"translation":[-1.630360202398151e-8,13.506954193115234,-13.539726257324219]},{"children":[31],"name":"Armature_Tail4","translation":[-7.45798388379626e-7,12.198661804199219,-10.798091888427734]},{"children":[32],"name":"Armature_Tail5","translation":[-0.0000019538001652108505,5.126625061035156,-11.436599731445312]},{"children":[33],"name":"Armature_Tail6","rotation":[0,2.4858950876784547e-22,0,1],"translation":[-0.000004043598892167211,-6.040592193603516,-13.21188735961914]},{"children":[34],"name":"Armature_Tail7","rotation":[0,-2.550435774193548e-22,0,1],"translation":[-0.00000454980181530118,-12.220947265625,-11.459403991699219]},{"children":[35],"name":"Armature_Tail8","rotation":[0,2.894487928565957e-22,0,1],"translation":[0.000011808000635937788,-11.819374084472656,-11.095260620117188]},{"name":"Armature_Tail9","rotation":[0,-7.105427357601002e-15,0,1],"translation":[-0.000003786699380725622,-10.553255081176758,-9.756797790527344]},{"children":[37],"name":"Armature_LThigh","translation":[31.629108428955078,-19.718969345092773,-0.1325550079345703]},{"children":[38],"name":"Armature_LLeg","translation":[0.8159217834472656,-12.994390487670898,1.8997726440429688]},{"children":[39],"name":"Armature_LFoot","translation":[-1.1654205322265625,-14.198497772216797,-6.1081366539001465]},{"name":"Armature_LToe","translation":[3.3311920166015625,-2.393901824951172,13.111865997314453]},{"children":[41],"name":"Armature_RThigh","translation":[-31.629108428955078,-19.718809127807617,-0.13255596160888672]},{"children":[42],"name":"Armature_RLeg","translation":[-0.8160209655761719,-12.99452018737793,1.8997797966003418]},{"children":[43],"name":"Armature_RFoot","translation":[1.1655197143554688,-14.198478698730469,-6.108144760131836]},{"name":"Armature_RToe","translation":[-3.362590789794922,-2.3939132690429688,13.232869148254395]},{"name":"Armature_pm0108_00_Skin"}],"samplers":[{}],"scene":0,"scenes":[{"name":"Scene","nodes":[0,2,1]}],"skins":[{"inverseBindMatrices":0,"joints":[4,5,6,7,8,9,10,11,12,13,14,15,16,17,18,19,20,21,22,23,24,25,26,27,28,29,30,31,32,33,34,35,36,37,38,39,40,41,42,43,44],"skeleton":0}],"textures":[{"sampler":0,"source":0},{"sampler":0,"source":1}],"extensionsUsed":["ALI_amc_mesh_compression"],"extensionsRequired":["ALI_amc_mesh_compression"]}