{"accessors":[{"bufferView":0,"componentType":5126,"count":72,"max":[1.0000001192092896,8.060175790691737e-12,1,0,1,2.0090496377633826e-7,1.0000001192092896,0,7.527692105213646e-7,-1,7.5276943789504e-7,0,262.6579284667969,166.47879028320312,128.05812072753906,1],"min":[-1,-5.985064332157675e-13,-1,0,-1,-7.5276943789504e-7,-1,0,-6.940499588381499e-7,-1.000000238418579,-7.5276943789504e-7,0,-227.11160278320312,-193.03207397460938,-274.51177978515625,1],"type":"MAT4","byteOffset":0}],"asset":{"generator":"Khronos Blender glTF 2.0 exporter","version":"2.0"},"bufferViews":[{"buffer":0,"byteLength":4608,"byteOffset":0},{"buffer":0,"byteOffset":4608,"byteLength":2989},{"buffer":0,"byteOffset":7597,"byteLength":54855},{"buffer":0,"byteOffset":62452,"byteLength":91489}],"buffers":[{"byteLength":153941,"uri":"buffer.bin"}],"images":[{"name":"pm0142_00_BodyA1","uri":"pm0142_00_BodyA1.png"},{"name":"pm0142_00_Eye1","uri":"pm0142_00_Eye1.png"},{"name":"pm0142_00_BodyB1","uri":"pm0142_00_BodyB1.png"}],"materials":[{"alphaMode":"OPAQUE","name":"Material__23","pbrMetallicRoughness":{"baseColorFactor":[0.6400000190734865,0.6400000190734865,0.6400000190734865,1],"baseColorTexture":{"index":0},"metallicFactor":0}},{"alphaMode":"OPAQUE","name":"Material__24","pbrMetallicRoughness":{"baseColorFactor":[0.6400000190734865,0.6400000190734865,0.6400000190734865,1],"baseColorTexture":{"index":1},"metallicFactor":0}},{"alphaMode":"OPAQUE","name":"Material__25","pbrMetallicRoughness":{"baseColorFactor":[0.6400000190734865,0.6400000190734865,0.6400000190734865,1],"baseColorTexture":{"index":2},"metallicFactor":0}}],"meshes":[{"name":"Aerodactyl","primitives":[{"material":1,"extensions":{"ALI_amc_mesh_compression":{"bufferView":1}}},{"material":2,"extensions":{"ALI_amc_mesh_compression":{"bufferView":2}}},{"material":0,"extensions":{"ALI_amc_mesh_compression":{"bufferView":3}}}]}],"nodes":[{"mesh":0,"name":"Aerodactyl","skin":0},{"children":[0,4],"name":"Armature","scale":[0.02539999969303608,0.02539999969303608,0.02539999969303608]},{"name":"Camera","rotation":[0.483536034822464,0.33687159419059753,-0.20870360732078552,0.7804827094078064],"translation":[7.481131553649902,5.34366512298584,6.5076398849487305]},{"name":"Lamp","rotation":[0.16907575726509094,0.7558802962303162,-0.27217137813568115,0.570947527885437],"scale":[1,1,0.9999999403953552],"translation":[4.076245307922363,5.903861999511719,-1.0054539442062378]},{"children":[5,75],"name":"Armature_pm0142_00","rotation":[-0.7071068286895752,0,0,0.7071068286895752]},{"children":[6],"name":"Armature_Origin"},{"children":[7,45,74],"name":"Armature_Waist","rotation":[0,-0.7071080803871155,0,0.7071055769920349],"scale":[1,0.9999999403953552,1],"translation":[0,-15.212804794311523,101.03500366210938]},{"children":[8],"name":"Armature_Spine1","rotation":[1.4293389938302425e-7,-0.37975481152534485,3.48188649468284e-7,0.9250872135162354],"translation":[-2.586943992355373e-10,-0.000003814697265625,-0.0000738949456717819]},{"children":[9,23,37],"name":"Armature_Spine2","rotation":[-2.1440743400006658e-14,-0.1900302916765213,-1.5701844460606386e-14,0.9817782640457153],"translation":[6.80367374420166,-9.441060066223145,-6.718006134033203]},{"children":[10],"name":"Armature_LShoulder","rotation":[8.86226652501744e-14,-0.9881187677383423,4.791320216691571e-15,0.15369242429733276],"scale":[1,0.9999999403953552,1],"translation":[-3.3905985355377197,-23.537015914916992,-15.357584953308105]},{"children":[11],"name":"Armature_LArm","rotation":[1.730926904900624e-14,-0.2762202322483063,-1.8099658361978802e-15,0.9610944390296936],"scale":[1,0.9999999403953552,1],"translation":[7.672384262084961,5.95595121383667,4.992131233215332]},{"children":[12,15],"name":"Armature_LForeArm","rotation":[-1.8068756058964124e-14,-0.157928466796875,1.9434267693521013e-17,0.9874505996704102],"translation":[91.60709381103516,1.5690668821334839,1.568390130996704]},{"children":[13],"name":"Armature_LFeeler1","rotation":[-3.471763417657765e-14,0.5733956694602966,1.5888018914281092e-14,0.8192785978317261],"scale":[1,0.9999999403953552,1],"translation":[104.03105163574219,-2.0410780906677246,-2.040593385696411]},{"children":[14],"name":"Armature_LFeeler2","rotation":[-3.593170513460208e-15,0.20030423998832703,1.8993834621978435e-14,0.9797337651252747],"translation":[16.67127799987793,49.20692443847656,26.326276779174805]},{"name":"Armature_EndLFeeler2","rotation":[-2.0031177237755937e-15,-3.725290298461914e-9,-1.4561770300854093e-14,1],"translation":[5.114229202270508,80.07842254638672,19.916887283325195]},{"children":[16,17,19,21],"name":"Armature_LHand","rotation":[-1.9069806701083568e-14,0.07938816398382187,4.464737134757019e-17,0.9968438744544983],"scale":[1,0.9999999403953552,1],"translation":[104.03144836425781,-2.0407767295837402,-2.040257692337036]},{"name":"Armature_EndLHand","rotation":[2.3841860752327193e-7,1.5727437130408362e-9,3.7490355871833136e-16,1],"translation":[15.072504043579102,-31.131181716918945,-0.00008982629515230656]},{"children":[18],"name":"Armature_LFingerB","rotation":[4.986346588181558e-15,0.15753772854804993,1.2082521328443668e-16,0.9875130653381348],"translation":[7.110773086547852,-11.900947570800781,-2.268026113510132]},{"name":"Armature_EndLFingerB","rotation":[1.138261932761642e-14,1.4901161193847656e-8,-2.0192727596621014e-15,1],"scale":[1,0.9999999403953552,1],"translation":[10.604519844055176,-14.748126029968262,-3.1535682678222656]},{"children":[20],"name":"Armature_LFingerA","rotation":[1.755693131838803e-14,0.3494783639907837,-6.187725604524328e-15,0.9369445443153381],"translation":[-3.955315589904785,-8.540419578552246,-2.686572313308716]},{"name":"Armature_EndLFingerA","rotation":[3.604728278025493e-15,2.9802322387695312e-8,-1.9714048102303927e-15,1],"translation":[4.751974582672119,-8.087607383728027,-9.49018383026123]},{"children":[22],"name":"Armature_LFingerC","rotation":[1.449119043349118e-14,0.2291225641965866,9.50845728786261e-15,0.9733976721763611],"translation":[12.413443565368652,-6.285842418670654,-2.741919994354248]},{"name":"Armature_EndLFingerC","rotation":[-1.5096078683982106e-14,-1.4901161193847656e-8,1.7763026292916262e-15,1],"translation":[15.998085021972656,-8.508660316467285,-1.1612707376480103]},{"children":[24],"name":"Armature_RShoulder","rotation":[3.0902208146988547e-14,0.013189883902668953,5.3282332261323905e-15,0.9999130368232727],"scale":[0.9999998807907104,0.9999999403953552,0.9999998807907104],"translation":[13.531521797180176,-23.53697395324707,-8.015789031982422]},{"children":[25],"name":"Armature_RArm","rotation":[1.0995587951159302e-14,-0.27622097730636597,3.797100471775259e-15,0.9610942602157593],"scale":[0.9999999403953552,0.9999999403953552,0.9999999403953552],"translation":[7.671909332275391,5.955928325653076,4.993046283721924]},{"children":[26,29],"name":"Armature_RForeArm","rotation":[3.2107637674885087e-14,0.12155596166849136,1.2107622355742162e-15,0.9925845861434937],"translation":[91.6067123413086,1.5692881345748901,1.5685003995895386]},{"children":[27],"name":"Armature_RFeeler1","rotation":[-1.9953634547808358e-16,0.40340960025787354,1.872806787038203e-14,0.9150195121765137],"translation":[104.03105926513672,-2.0412840843200684,-2.040213108062744]},{"children":[28],"name":"Armature_RFeeler2","rotation":[-4.903340323965952e-15,0.11126862466335297,1.3648937293158237e-14,0.9937903881072998],"translation":[16.671871185302734,49.206886291503906,26.32588005065918]},{"name":"Armature_EndRFeeler2","rotation":[-4.721375200522626e-15,-1.4901161193847656e-8,1.6193643648243494e-14,1],"translation":[5.11472225189209,80.07830047607422,19.916425704956055]},{"children":[30,31,33,35],"name":"Armature_RHand","rotation":[-6.027408390105182e-13,0.9982091188430786,2.551406216291449e-14,0.059820756316185],"scale":[0.9999998807907104,1,0.9999998807907104],"translation":[104.03143310546875,-2.0409865379333496,-2.0406765937805176]},{"name":"Armature_EndRHand","rotation":[4.76837158203125e-7,5.211404641158879e-10,2.480383520103713e-16,1],"translation":[-15.07187271118164,-31.131040573120117,-0.0001768056390574202]},{"children":[32],"name":"Armature_RFingerB","rotation":[-4.364772635662671e-14,0.2227051854133606,-3.1456664902832897e-16,0.974885880947113],"translation":[-7.111043930053711,-11.901142120361328,-2.2678627967834473]},{"name":"Armature_EndRFingerB","rotation":[-1.1987264479651483e-14,1.4901159417490817e-8,1.6703435509746178e-14,1],"scale":[1.0000001192092896,1,1.0000001192092896],"translation":[-5.460182189941406,-14.748156547546387,-9.622563362121582]},{"children":[34],"name":"Armature_RFingerA","rotation":[-4.186931292123053e-14,0.4600294232368469,-7.095395099373722e-15,0.8879036903381348],"translation":[3.9559290409088135,-8.540728569030762,-2.6868340969085693]},{"name":"Armature_EndRFingerA","rotation":[4.183284815285123e-15,-1.4901162970204496e-8,1.1257514255372855e-14,1],"scale":[0.9999999403953552,1,0.9999999403953552],"translation":[9.914678573608398,-8.087660789489746,-3.787604331970215]},{"children":[36],"name":"Armature_RFingerC","rotation":[-4.504457177807557e-14,0.25928330421447754,-2.4207603627267142e-14,0.9658012986183167],"translation":[-12.413134574890137,-6.285460948944092,-2.742490530014038]},{"name":"Armature_EndRFingerC","rotation":[1.3216831058412981e-14,4.4703490686970326e-8,-1.249310069729049e-14,1],"scale":[0.9999999403953552,1,0.9999999403953552],"translation":[-7.850045680999756,-8.50862979888916,-13.987309455871582]},{"children":[38],"name":"Armature_Neck","rotation":[1.4084568031997018e-14,-0.10230229049921036,3.542350865965555e-15,0.994753360748291],"scale":[1,0.9999999403953552,1],"translation":[4.743226051330566,-27.467819213867188,-10.932721138000488]},{"children":[39,44],"name":"Armature_Head","rotation":[8.436240631580754e-15,-0.10201383382081985,1.8217207476816386e-15,0.9947829842567444],"translation":[1.1253770589828491,-26.74961280822754,-5.428805828094482]},{"children":[40,43],"name":"Armature_Jaw","rotation":[-1.0888712722006543e-14,-0.36208322644233704,5.138861223081799e-15,0.9321457743644714],"translation":[-0.00010667509923223406,-15.969264030456543,12.372492790222168]},{"children":[41],"name":"Armature_Tongue1","rotation":[1.8303113134810443e-14,-0.8576908111572266,-1.3036280056475096e-14,0.5141657590866089],"translation":[1.7638633251190186,2.9601733684539795,1.9276845455169678]},{"children":[42],"name":"Armature_Tongue2","rotation":[2.15914691013223e-15,0.16171205043792725,-1.1672137730086782e-14,0.9868380427360535],"translation":[3.5399699211120605,-30.177818298339844,-10.037184715270996]},{"name":"Armature_EndTongue2","rotation":[8.609513079402883e-15,0,7.15920463238923e-15,1],"scale":[1,0.9999999403953552,1],"translation":[14.839515686035156,-30.779874801635742,-18.966703414916992]},{"name":"Armature_EndJaw","rotation":[-6.1360693002360245e-15,0,7.504305336858419e-15,1],"translation":[36.88936233520508,-59.72990417480469,40.3193244934082]},{"name":"Armature_EndHead","rotation":[-3.5762786865234375e-7,-9.92145032796543e-10,3.5476789149620214e-16,1],"translation":[-0.0000010000503607443534,-87.60750579833984,0.0000032495947834831895]},{"children":[46,53,63,73],"name":"Armature_Hips","rotation":[-3.763846052606823e-7,1,4.771016481192047e-13,0.0000012675908465098473],"translation":[-9.379164112033322e-11,0.000003814697265625,-0.0000267899358732393]},{"children":[47],"name":"Armature_Tail1","rotation":[-5.594124491572041e-15,0.48729175329208374,-1.553885329869803e-14,0.8732393383979797],"translation":[25.5313720703125,25.129898071289062,0.0000025856322736217408]},{"children":[48],"name":"Armature_Tail2","rotation":[2.2591707015328852e-14,0.005099481903016567,2.2202525869251602e-14,0.999987006187439],"scale":[0.9999999403953552,0.9999999403953552,0.9999999403953552],"translation":[10.05469799041748,31.034650802612305,16.296112060546875]},{"children":[49],"name":"Armature_Tail3","rotation":[9.805427886202915e-15,0.009514897130429745,2.033209755072929e-14,0.9999547600746155],"scale":[0.9999999403953552,0.9999999403953552,0.9999999403953552],"translation":[9.271748542785645,29.7759952545166,15.375932693481445]},{"children":[50],"name":"Armature_Tail4","rotation":[-1.3215118357793633e-14,-0.0075270431116223335,4.325926434152168e-15,0.9999716877937317],"translation":[7.911022663116455,27.408933639526367,13.703509330749512]},{"children":[51],"name":"Armature_Tail5","rotation":[-3.2479444481148256e-14,0.0036599428858608007,1.2000191896492478e-14,0.9999933242797852],"scale":[1.0000001192092896,1,1.0000001192092896],"translation":[7.492724418640137,24.439958572387695,12.537602424621582]},{"children":[52],"name":"Armature_Tail6","rotation":[4.32350730805481e-15,0.0016300252173095942,7.209520930554977e-15,0.9999986886978149],"scale":[1,0.9999999403953552,1],"translation":[7.10502815246582,23.845081329345703,12.084969520568848]},{"name":"Armature_EndTail6","rotation":[2.4700564944107883e-15,0,-5.916165994601652e-15,1],"translation":[13.705785751342773,46.61045455932617,23.489845275878906]},{"children":[54],"name":"Armature_RThigh","rotation":[1.245424094325283e-15,0.1927955448627472,-7.83183349580387e-15,0.9812390208244324],"translation":[14.101905822753906,11.131855964660645,-18.245983123779297]},{"children":[55],"name":"Armature_RLeg","rotation":[1.106617205368695e-14,0.22475741803646088,-2.5611274440204973e-14,0.9744147658348083],"translation":[39.31132888793945,-2.786916732788086,-4.0564727783203125]},{"children":[56,58,60,62],"name":"Armature_RFoot","rotation":[-3.0145296117190315e-14,-0.7911624312400818,-1.0624769420587341e-15,0.6116061210632324],"scale":[0.9999999403953552,1,0.9999999403953552],"translation":[31.424530029296875,13.270364761352539,18.00392723083496]},{"children":[57],"name":"Armature_RToeC","rotation":[2.3383235587615472e-14,-0.12466541677713394,-1.66398792395819e-14,0.9921989440917969],"scale":[0.9999998807907104,1,0.9999998807907104],"translation":[1.0218778848648071,4.659387111663818,-6.185404300689697]},{"name":"Armature_EndRToeC","rotation":[5.180860081221983e-16,2.9802322387695312e-8,5.6257082325927854e-15,1],"translation":[4.7653279304504395,18.771453857421875,1.6685926914215088]},{"children":[59],"name":"Armature_RToeB","rotation":[1.7255799247177864e-14,0.1529707908630371,-1.5302826509154435e-15,0.9882307052612305],"scale":[0.9999999403953552,1,0.9999999403953552],"translation":[-7.6439127922058105,-18.743682861328125,-13.88312816619873]},{"name":"Armature_EndRToeB","rotation":[-1.7324629144471748e-14,2.9802322387695312e-8,1.1003593259543802e-14,1],"scale":[1,1.0000001192092896,1],"translation":[-3.196638584136963,-16.901891708374023,-7.6443400382995605]},{"children":[61],"name":"Armature_RToeA","rotation":[2.3399369871194772e-14,0.02456146851181984,-7.097539363279696e-15,0.9996983408927917],"translation":[2.017916202545166,-21.5333309173584,-12.494427680969238]},{"name":"Armature_EndRToeA","rotation":[-2.1160563535779775e-14,-2.9802322387695312e-8,-1.6941526306823995e-14,1],"scale":[1,1.0000001192092896,1],"translation":[-2.061779022216797,-17.196306228637695,-5.075059413909912]},{"name":"Armature_EndRFoot","rotation":[2.0980208198452706e-14,-2.980232594040899e-8,-1.018082102996476e-14,1],"scale":[0.9999999403953552,1,0.9999999403953552],"translation":[-1.9537439346313477,-15.609078407287598,-3.890380859375]},{"children":[64],"name":"Armature_LThigh","rotation":[-1.1594474126185982e-14,-0.2662677764892578,-2.989790193373633e-15,0.9638991951942444],"translation":[14.101859092712402,11.131897926330566,18.245990753173828]},{"children":[65],"name":"Armature_LLeg","rotation":[6.636854660410554e-15,0.2247573733329773,2.0106192593147146e-15,0.9744147658348083],"translation":[39.474220275878906,-2.7869420051574707,-1.9038474559783936]},{"children":[66,68,69,71],"name":"Armature_LFoot","rotation":[-2.6600447986338017e-14,-0.734489381313324,3.168048700639774e-15,0.6786202192306519],"scale":[0.9999999403953552,1,0.9999999403953552],"translation":[35.21705627441406,13.270312309265137,8.449848175048828]},{"children":[67],"name":"Armature_LToeB","rotation":[-1.699628529279809e-14,-0.030489128082990646,-2.3052723755113318e-15,0.999535083770752],"translation":[12.660691261291504,-18.74358367919922,-9.532903671264648]},{"name":"Armature_EndLToeB","rotation":[-2.797756601044532e-14,0,-1.6181717424346154e-15,1],"translation":[7.245700836181641,-16.901870727539062,-4.019314289093018]},{"name":"Armature_EndLFoot","rotation":[-1.3885411104339745e-14,-2.2351741790771484e-8,-5.147358234092181e-15,1],"translation":[3.3761065006256104,-15.6090669631958,-2.748527765274048]},{"children":[70],"name":"Armature_LToeA","rotation":[-1.481328995827768e-14,0.01158954482525587,7.41210368296742e-16,0.9999328851699829],"translation":[3.2780356407165527,-21.533201217651367,-12.22448444366455]},{"name":"Armature_EndLToeA","rotation":[-1.368037492099558e-14,0,1.9473355220012145e-15,1],"translation":[4.223102569580078,-17.196290969848633,-3.488950252532959]},{"children":[72],"name":"Armature_LToeC","rotation":[-1.1184801559048756e-14,-0.19797664880752563,-2.4177585626649397e-15,0.9802067875862122],"translation":[1.6019935607910156,4.659431457519531,-6.061059474945068]},{"name":"Armature_EndLToeC","rotation":[-1.9773865569039026e-14,0,-5.171644362755856e-16,1],"scale":[1.0000001192092896,1.0000001192092896,1.0000001192092896],"translation":[-4.26898717880249,18.771440505981445,2.695908546447754]},{"name":"Armature_EndHips","rotation":[0,0,-1.4210854715202004e-14,1],"translation":[45.67909622192383,0.000033670054108370095,-0.0000016427073887825827]},{"name":"Armature_EndWaist","rotation":[0,0.0000017285346984863281,0,1],"translation":[59.259490966796875,-0.000003814697265625,1.4551915228366852e-11]},{"name":"Armature_pm0142_00_Skin"}],"samplers":[{}],"scene":0,"scenes":[{"name":"Scene","nodes":[1,3,2]}],"skins":[{"inverseBindMatrices":0,"joints":[4,5,6,7,8,9,10,11,12,13,14,15,16,17,18,19,20,21,22,23,24,25,26,27,28,29,30,31,32,33,34,35,36,37,38,39,40,41,42,43,44,45,46,47,48,49,50,51,52,53,54,55,56,57,58,59,60,61,62,63,64,65,66,67,68,69,70,71,72,73,74,75],"skeleton":1}],"textures":[{"sampler":0,"source":0},{"sampler":0,"source":1},{"sampler":0,"source":2}],"extensionsUsed":["ALI_amc_mesh_compression"],"extensionsRequired":["ALI_amc_mesh_compression"]}