{"accessors":[{"bufferView":0,"componentType":5126,"count":58,"max":[1,8.940686058167557e-8,5.894483123825012e-8,0,8.653042016248946e-8,6.017372555788825e-8,1,0,8.940687479253029e-8,-1.0000001192092896,6.01737326633156e-8,0,68.93038940429688,4.76837158203125e-7,138.0575408935547,1],"min":[1,-2.9802375678400495e-8,-8.653042016248946e-8,0,-5.894483123825012e-8,-7.406004698395918e-8,1,0,-2.9802375678400495e-8,-1.000000238418579,-7.406005408938654e-8,0,-68.93021392822266,-114.3609619140625,-97.34210968017578,1],"type":"MAT4","byteOffset":0},{"bufferView":1,"componentType":5126,"count":58,"max":[1,8.940686058167557e-8,5.894483123825012e-8,0,8.653042016248946e-8,6.017372555788825e-8,1,0,8.940687479253029e-8,-1.0000001192092896,6.01737326633156e-8,0,68.93038940429688,4.76837158203125e-7,138.0575408935547,1],"min":[1,-2.9802375678400495e-8,-8.653042016248946e-8,0,-5.894483123825012e-8,-7.406004698395918e-8,1,0,-2.9802375678400495e-8,-1.000000238418579,-7.406005408938654e-8,0,-68.93021392822266,-114.3609619140625,-97.34210968017578,1],"type":"MAT4","byteOffset":0}],"asset":{"generator":"Khronos Blender glTF 2.0 exporter","version":"2.0"},"bufferViews":[{"buffer":0,"byteLength":3712,"byteOffset":0},{"buffer":0,"byteLength":3712,"byteOffset":3712},{"buffer":0,"byteOffset":7424,"byteLength":2863},{"buffer":0,"byteOffset":10287,"byteLength":182541},{"buffer":0,"byteOffset":192828,"byteLength":7707}],"buffers":[{"byteLength":200535,"uri":"buffer.bin"}],"images":[{"name":"pm0128_00_Body1","uri":"pm0128_00_Body1.png"},{"name":"pm0128_00_Eye1","uri":"pm0128_00_Eye1.png"}],"materials":[{"name":"Body_mat","pbrMetallicRoughness":{"baseColorFactor":[0.6400000190734865,0.6400000190734865,0.6400000190734865,1],"baseColorTexture":{"index":0},"metallicFactor":0}},{"name":"BodySpc_mat","pbrMetallicRoughness":{"baseColorFactor":[0.6399999713897699,0.6399999713897699,0.6399999713897699,1],"metallicFactor":0}},{"name":"Eye_mat","pbrMetallicRoughness":{"baseColorFactor":[0.6400000190734865,0.6400000190734865,0.6400000190734865,1],"baseColorTexture":{"index":1},"metallicFactor":0}}],"meshes":[{"name":"mesh_1_Body","primitives":[{"material":2,"extensions":{"ALI_amc_mesh_compression":{"bufferView":2}}},{"material":0,"extensions":{"ALI_amc_mesh_compression":{"bufferView":3}}}]},{"name":"mesh_7_BodySpc","primitives":[{"material":1,"extensions":{"ALI_amc_mesh_compression":{"bufferView":4}}}]}],"nodes":[{"children":[3,4,5],"name":"Armature","rotation":[0.7071068286895752,0,0,0.7071067094802856],"scale":[0.34441450238227844,0.34441450238227844,0.34441450238227844]},{"name":"Camera","rotation":[0.483536034822464,0.33687159419059753,-0.20870360732078552,0.7804827094078064],"translation":[7.481131553649902,5.34366512298584,6.5076398849487305]},{"name":"Lamp","rotation":[0.16907575726509094,0.7558802962303162,-0.27217137813568115,0.570947527885437],"scale":[1,1,0.9999999403953552],"translation":[4.076245307922363,5.903861999511719,-1.0054539442062378]},{"mesh":0,"name":"vsn_mesh_1_Body","rotation":[3.552713678800501e-15,0,0,1],"skin":0},{"mesh":1,"name":"vsn_mesh_7_BodySpc","rotation":[3.552713678800501e-15,0,0,1],"skin":1},{"children":[6,62],"name":"Armature_pm0128_00","rotation":[-0.7071068286895752,0,0,0.7071068286895752],"scale":[1,0.9999999403953552,1]},{"children":[7],"name":"Armature_Origin","translation":[0,-4.76837158203125e-7,0]},{"children":[8,30],"name":"Armature_Waist","rotation":[0,-2.5788032428605053e-15,0,1],"translation":[32.000003814697266,85.01849365234375,2.2737367544323206e-11]},{"children":[9],"name":"Armature_Spine1","rotation":[0,2.5788032428605053e-15,0,1],"translation":[-32.000003814697266,-0.000030517578125,-17.169042587280273]},{"children":[10,14,19,24,25,26,27,28,29],"name":"Armature_Spine2","translation":[0.000015874502423685044,16.75872802734375,33.81068420410156]},{"children":[11],"name":"Armature_Neck","rotation":[0,-1.2296707245035446e-21,0,1],"translation":[0.000009602099453331903,-5.633750915527344,36.22174835205078]},{"children":[12,13],"name":"Armature_Head","rotation":[0,3.6890130822783965e-21,0,1],"translation":[0.00000579539846512489,-0.41219329833984375,18.873703002929688]},{"name":"Armature_Jaw","rotation":[0,-4.954878916058692e-21,0,1],"translation":[-6.26896508038044e-7,-14.42828369140625,12.431098937988281]},{"name":"Armature_Nose","rotation":[0,1.0315223135837388e-14,0,1],"translation":[-5.219953891355544e-7,-27.26793670654297,25.605018615722656]},{"children":[15],"name":"Armature_LShoulder1","rotation":[0,5.286062632062151e-16,0,1],"translation":[13.988906860351562,-6.651573181152344,20.81700325012207]},{"children":[16],"name":"Armature_LShoulder2","rotation":[0,-3.841617157718247e-8,0,1],"translation":[8.981816291809082,-24.655670166015625,-0.6943931579589844]},{"children":[17],"name":"Armature_LArm","rotation":[-3.7030016386552234e-8,3.841617157718247e-8,-1.4225516008486028e-15,1],"translation":[-0.00000886629095475655,-8.727783203125,-3.213273763656616]},{"children":[18],"name":"Armature_LForeArm","rotation":[3.0086887647939875e-8,-4.3265195870390016e-8,-1.3017151511427252e-15,1],"translation":[0.00000762939453125,-29.746185302734375,0.20616386830806732]},{"name":"Armature_LHand","rotation":[-2.220447902134885e-16,6.489779025287135e-8,-1.852884572118782e-22,1],"translation":[-0.000014397164704860188,-25.244720458984375,-1.7571392059326172]},{"children":[20],"name":"Armature_RShoulder1","rotation":[0,-2.284183372707068e-15,0,1],"translation":[-13.988879203796387,-6.651542663574219,20.816957473754883]},{"children":[21],"name":"Armature_RShoulder2","rotation":[0,2.9472417395481898e-8,0,1],"translation":[-8.981817245483398,-26.36133575439453,-1.05169677734375]},{"children":[22],"name":"Armature_RArm","rotation":[0,-2.9472417395481898e-8,0,1],"translation":[0.0000075608654697134625,-12.764781951904297,-2.886106014251709]},{"children":[23],"name":"Armature_RForeArm","rotation":[3.00868663316578e-8,-4.326518876496266e-8,1.4901186062843408e-8,1],"translation":[-0.000011444091796875,-29.745492935180664,0.14533615112304688]},{"name":"Armature_RHand","rotation":[8.093027116518048e-16,2.163259082976765e-8,-2.980237923111417e-8,1],"scale":[1,0.9999999403953552,1],"translation":[-0.000008387386515096296,-19.50278091430664,-0.6661360859870911]},{"name":"Armature_FeelerA","rotation":[0,-1.6721235959012462e-21,0,1],"translation":[0.000015968704246915877,12.583786010742188,38.285438537597656]},{"name":"Armature_FeelerB","rotation":[0,-2.235845163872217e-21,0,1],"translation":[0.000004845300281886011,-27.868057250976562,43.302894592285156]},{"name":"Armature_LFeelerA","rotation":[0,6.447016048085144e-16,0,1],"translation":[13.3064603805542,5.638885498046875,41.440032958984375]},{"name":"Armature_RFeelerA","rotation":[0,6.447018695063104e-16,0,1],"translation":[-13.30638599395752,5.6387786865234375,41.43992614746094]},{"name":"Armature_LFeelerB","rotation":[0,1.3418178201513617e-15,0,1],"translation":[13.127642631530762,-12.120231628417969,43.32502746582031]},{"name":"Armature_RFeelerB","rotation":[0,1.3199132304980103e-15,0,1],"translation":[-13.127577781677246,-12.120193481445312,43.32506561279297]},{"children":[31,35,39],"name":"Armature_Hips","rotation":[0,2.5788032428605053e-15,0,1],"translation":[-32.000003814697266,-0.00003814697265625,1.650433262279094e-13]},{"children":[32],"name":"Armature_LThigh","rotation":[0,-2.3123648773548666e-8,0,1],"translation":[18.02249526977539,-5.82659912109375,-35.3422966003418]},{"children":[33],"name":"Armature_LLeg","rotation":[-3.7030016386552234e-8,2.3123652326262345e-8,-8.562692592089572e-16,1],"translation":[-0.00002054460856015794,-25.093170166015625,3.5324013233184814]},{"children":[34],"name":"Armature_LFoot","rotation":[7.279189390466644e-23,-1.0816302520311183e-8,-1.4901056388794132e-8,1],"translation":[-0.0000095367431640625,-22.290058135986328,-22.19391441345215]},{"name":"Armature_LToe1","rotation":[1.2928312578336853e-15,1.0816295414883825e-8,-2.9802375678400495e-8,1],"translation":[-0.000012640047316381242,-25.07052230834961,8.001659393310547]},{"children":[36],"name":"Armature_RThigh","rotation":[0,-2.052865433199713e-8,0,1],"translation":[-18.022512435913086,2.0925979614257812,-36.47652816772461]},{"children":[37],"name":"Armature_RLeg","rotation":[-1.5295076422384854e-16,2.052865433199713e-8,7.450598360492222e-9,1],"translation":[-0.0000032133766580955125,-33.01233673095703,4.6666460037231445]},{"children":[38],"name":"Armature_RFoot","rotation":[2.465190328815662e-32,-1.0816301632132763e-8,-3.308723239073016e-24,1],"translation":[-0.000014784819541091565,-22.291213989257812,-24.19390106201172]},{"name":"Armature_RToe1","rotation":[0,1.0816301632132763e-8,3.308723239073016e-24,1],"translation":[-0.000018104159607901238,-25.07045555114746,8.001605987548828]},{"children":[40],"name":"Armature_Tail1","translation":[0,7.3917999267578125,1.8189894035458565e-12]},{"children":[41,48,55],"name":"Armature_Tail2","rotation":[0,7.677744638978369e-23,0,1],"translation":[-0.0000204918014787836,0.00000762939453125,-52.82733154296875]},{"children":[42],"name":"Armature_Tail3","rotation":[0,-7.677744638978369e-23,0,1],"translation":[0.0000204918014787836,0.019317626953125,52.82733154296875]},{"children":[43],"name":"Armature_Tail4"},{"children":[44],"name":"Armature_Tail5"},{"children":[45],"name":"Armature_Tail6"},{"children":[46],"name":"Armature_Tail7","rotation":[0,2.063045135387246e-14,0,1],"translation":[-0.00007197570084827021,-0.0000152587890625,-133.15969848632812]},{"children":[47],"name":"Armature_Tail8","rotation":[0,-2.063045135387246e-14,0,1],"translation":[0.0000719756935723126,0.00109100341796875,133.15969848632812]},{"name":"Armature_Tail9"},{"children":[49],"name":"Armature_LTail1","rotation":[0,-2.522438970632685e-16,0,1],"translation":[-2.7484352588653564,0.019317626953125,1.6761207580566406]},{"children":[50],"name":"Armature_LTail2","rotation":[0,-2.0368712455698487e-16,0,1],"translation":[9.3103666305542,-0.00002288818359375,-13.01218032836914]},{"children":[51],"name":"Armature_LTail3","rotation":[0,-8.998231110216221e-16,0,1],"translation":[9.310371398925781,-0.0000457763671875,-13.012176513671875]},{"children":[52],"name":"Armature_LTail4","rotation":[0,1.0816301632132763e-8,0,1],"translation":[13.965543746948242,0.00000762939453125,-19.51831817626953]},{"children":[53],"name":"Armature_LTail5","rotation":[0,-5.408149661434436e-8,0,1],"translation":[13.965569496154785,-0.0000152587890625,-19.518234252929688]},{"children":[54],"name":"Armature_LTail6","rotation":[0,4.3265195870390016e-8,0,1],"translation":[10.603885650634766,0.00096893310546875,-14.821606636047363]},{"name":"Armature_LTail7","translation":[14.522933959960938,-0.0027313232421875,-6.54754638671875]},{"children":[56],"name":"Armature_RTail1","rotation":[0,-7.677744638978369e-23,0,1],"translation":[0.8975160717964172,0.019317626953125,12.837406158447266]},{"children":[57],"name":"Armature_RTail2","rotation":[0,-2.271297672238725e-16,0,1],"translation":[-4.655191898345947,-0.00000762939453125,-6.506076812744141]},{"children":[58],"name":"Armature_RTail3","rotation":[0,-2.351676652010185e-15,0,1],"translation":[-13.965574264526367,0.00002288818359375,-19.518264770507812]},{"children":[59],"name":"Armature_RTail4","rotation":[0,-1.0587911840678754e-21,0,1],"translation":[-9.310380935668945,-0.00005340576171875,-13.012161254882812]},{"children":[60],"name":"Armature_RTail5","rotation":[0,-2.1632603264265526e-8,0,1],"translation":[-13.965593338012695,0,-19.51825714111328]},{"children":[61],"name":"Armature_RTail6","rotation":[0,-2.1632605040622366e-8,0,1],"translation":[-13.516408920288086,0.0009307861328125,-39.51285171508789]},{"name":"Armature_RTail7","rotation":[0,2.1632606816979205e-8,0,1],"translation":[-14.414730072021484,-0.00266265869140625,0.47632431983947754]},{"name":"Armature_pm0128_00_Skin","translation":[0,-4.76837158203125e-7,0]}],"samplers":[{}],"scene":0,"scenes":[{"name":"Scene","nodes":[0,2,1]}],"skins":[{"inverseBindMatrices":0,"joints":[5,6,7,8,9,10,11,12,13,14,15,16,17,18,19,20,21,22,23,24,25,26,27,28,29,30,31,32,33,34,35,36,37,38,39,40,41,42,43,44,45,46,47,48,49,50,51,52,53,54,55,56,57,58,59,60,61,62],"skeleton":0},{"inverseBindMatrices":1,"joints":[5,6,7,8,9,10,11,12,13,14,15,16,17,18,19,20,21,22,23,24,25,26,27,28,29,30,31,32,33,34,35,36,37,38,39,40,41,42,43,44,45,46,47,48,49,50,51,52,53,54,55,56,57,58,59,60,61,62],"skeleton":0}],"textures":[{"sampler":0,"source":0},{"sampler":0,"source":1}],"extensionsUsed":["ALI_amc_mesh_compression"],"extensionsRequired":["ALI_amc_mesh_compression"]}