{"accessors":[{"bufferView":0,"componentType":5126,"count":34,"max":[1,6.12087376339332e-8,2.9802322387695312e-8,0,5.9604641222676946e-8,2.4483480842718564e-7,1,0,6.120875184478791e-8,-1.0000001192092896,2.448348936923139e-7,0,31.934589385986328,0.019527344033122063,56.229583740234375,1],"min":[1,-6.12087376339332e-8,-5.9604641222676946e-8,0,-2.9802308176840597e-8,-1.2241744684615696e-7,1,0,-6.120875184478791e-8,-1.0000003576278687,-1.224174894787211e-7,0,-31.9345703125,-55.15641403198242,-34.6085090637207,1],"type":"MAT4","byteOffset":0}],"asset":{"generator":"Khronos Blender glTF 2.0 exporter","version":"2.0"},"bufferViews":[{"buffer":0,"byteLength":2176,"byteOffset":0},{"buffer":0,"byteOffset":2176,"byteLength":131479},{"buffer":0,"byteOffset":133655,"byteLength":10579}],"buffers":[{"byteLength":144234,"uri":"buffer.bin"}],"images":[{"name":"pm0119_00_Body1","uri":"pm0119_00_Body1.png"},{"name":"pm0119_00_Eye1","uri":"pm0119_00_Eye1.png"}],"materials":[{"name":"Body_mat","pbrMetallicRoughness":{"baseColorFactor":[0.6400000190734865,0.6400000190734865,0.6400000190734865,1],"baseColorTexture":{"index":0},"metallicFactor":0}},{"name":"Eye_mat","pbrMetallicRoughness":{"baseColorFactor":[0.6400000190734865,0.6400000190734865,0.6400000190734865,1],"baseColorTexture":{"index":1},"metallicFactor":0}}],"meshes":[{"name":"mesh_2_BodyTosakinto_Fin","primitives":[{"material":0,"extensions":{"ALI_amc_mesh_compression":{"bufferView":1}}},{"material":1,"extensions":{"ALI_amc_mesh_compression":{"bufferView":2}}}]}],"nodes":[{"children":[3,4],"name":"Armature","rotation":[0.7071068286895752,0,0,0.7071067094802856]},{"name":"Camera","rotation":[0.483536034822464,0.33687159419059753,-0.20870360732078552,0.7804827094078064],"translation":[7.481131553649902,5.34366512298584,6.5076398849487305]},{"name":"Lamp","rotation":[0.16907575726509094,0.7558802962303162,-0.27217137813568115,0.570947527885437],"scale":[1,1,0.9999999403953552],"translation":[4.076245307922363,5.903861999511719,-1.0054539442062378]},{"mesh":0,"name":"vsn_mesh_2_BodyTosakinto_Fin","skin":0},{"children":[5,35,37],"name":"Armature_pm0119_00_azumao","rotation":[-0.7071068286895752,0,0,0.7071068286895752],"scale":[1,0.9999999403953552,1]},{"children":[6],"name":"Armature_Origin","translation":[0,-9.5367431640625e-7,0]},{"children":[7,17],"name":"Armature_Waist","translation":[0,31.660587310791016,0]},{"children":[8,11,14,15,16],"name":"Armature_Head","scale":[1,0.9999999403953552,1]},{"children":[9],"name":"Armature_LArm","translation":[21.298017501831055,-8.606344223022461,8.71071720123291]},{"children":[10],"name":"Armature_LForeArm","translation":[6.07817268371582,-5.487789154052734,-1.8456997871398926]},{"name":"Armature_LHand","translation":[4.558380126953125,-6.150629997253418,-1.4423484802246094]},{"children":[12],"name":"Armature_RArm","translation":[-21.298017501831055,-8.606351852416992,8.710726737976074]},{"children":[13],"name":"Armature_RForeArm","translation":[-6.07817268371582,-5.487728118896484,-1.845743179321289]},{"name":"Armature_RHand","translation":[-4.558399200439453,-6.150700569152832,-1.4422974586486816]},{"name":"Armature_UpperJaw","rotation":[0,7.105427357601002e-15,0,1],"translation":[0.000006600480446650181,-1.0095500946044922,34.60850524902344]},{"name":"Armature_LowerJaw","rotation":[0,7.105426934084528e-15,0,1],"translation":[0.0000066004904510919005,-1.0095272064208984,34.6085090637207]},{"name":"Armature_FeelerB","translation":[0.000004349420123617165,23.495826721191406,2.932245969772339]},{"children":[18],"name":"Armature_Hips","scale":[1,0.9999999403953552,1],"translation":[0,0.0000057220458984375,12.572739601135254]},{"children":[19,34],"name":"Armature_Tail1","translation":[-0.000016906700693652965,-0.0000019073486328125,-26.426677703857422]},{"children":[20,24,28,31],"name":"Armature_Tail2","translation":[0.000016906700693652965,0.000011444091796875,13.8539400100708]},{"children":[21],"name":"Armature_LTailA1","rotation":[0,-7.348590505604333e-17,0,1],"scale":[1,0.9999999403953552,1],"translation":[3.4046437740325928,-3.288330078125,-37.187049865722656]},{"children":[22],"name":"Armature_LTailA2","rotation":[-6.120872342307848e-8,-8.902759644451025e-18,5.449266243992088e-25,1],"translation":[7.844446182250977,0.0000095367431640625,-7.7703857421875]},{"children":[23],"name":"Armature_LTailA3","rotation":[1.836261276366713e-7,1.4901155864777138e-8,3.060435815882556e-8,1],"translation":[5.76930046081543,-0.000007148275926738279,-5.7147908210754395]},{"name":"Armature_LTailA4","rotation":[-9.181304960748093e-8,-1.4901158529312397e-8,-3.0604347500684526e-8,1],"translation":[5.610311031341553,0.000015365549188572913,-5.557337284088135]},{"children":[25],"name":"Armature_RTailA1","rotation":[0,7.348850571188919e-17,0,1],"scale":[1,0.9999999403953552,1],"translation":[-3.404698133468628,-3.2882766723632812,-37.187103271484375]},{"children":[26],"name":"Armature_RTailA2","rotation":[0,8.902150839520186e-18,0,1],"translation":[-7.844442367553711,0.000011444091796875,-7.770282745361328]},{"children":[27],"name":"Armature_RTailA3","rotation":[0,-2.9802320611338473e-8,0,1],"translation":[-5.769314765930176,-0.000011444091796875,-5.714801788330078]},{"name":"Armature_RTailA4","rotation":[0,2.9802320611338473e-8,0,1],"translation":[-5.610286235809326,0.0000019073486328125,-5.557394504547119]},{"children":[29],"name":"Armature_LTailB1","rotation":[0,1.8925016265508457e-16,0,1],"translation":[4.804531097412109,-13.000604629516602,-35.19593048095703]},{"children":[30],"name":"Armature_LTailB2","rotation":[6.12087376339332e-8,-1.746616242072731e-15,3.06043688169666e-8,1],"scale":[1,0.9999999403953552,1],"translation":[4.428489685058594,-8.812514305114746,-1.3976707458496094]},{"name":"Armature_LTailB3","rotation":[-2.448454613156962e-22,-8.276895946510328e-15,-3.060435460611188e-8,1],"translation":[4.958386421203613,-9.867005348205566,-1.5648956298828125]},{"children":[32],"name":"Armature_RTailB1","rotation":[0,2.8455095128140917e-16,0,1],"translation":[-4.804605484008789,-13.000585556030273,-35.195892333984375]},{"children":[33],"name":"Armature_RTailB2","rotation":[6.12087376339332e-8,1.9573017116586086e-15,-3.06043688169666e-8,1],"scale":[1,0.9999999403953552,1],"translation":[-4.428491592407227,-8.812531471252441,-1.3977088928222656]},{"name":"Armature_RTailB3","rotation":[0,-3.6859808664029274e-16,3.060435460611188e-8,1],"translation":[-4.958432197570801,-9.866999626159668,-1.5648918151855469]},{"name":"Armature_FeelerA","rotation":[-1.530218263212646e-8,0,0,1],"translation":[0.000012793430869351141,19.750715255737305,0.6146984100341797]},{"children":[36],"name":"Armature_VriVis01","translation":[0,-9.5367431640625e-7,0]},{"name":"Armature_pm0119_01_HornSkin"},{"name":"Armature_pm0119_00_BodySkin","translation":[0,-9.5367431640625e-7,0]}],"samplers":[{}],"scene":0,"scenes":[{"name":"Scene","nodes":[0,2,1]}],"skins":[{"inverseBindMatrices":0,"joints":[4,5,6,7,8,9,10,11,12,13,14,15,16,17,18,19,20,21,22,23,24,25,26,27,28,29,30,31,32,33,34,35,36,37],"skeleton":0}],"textures":[{"sampler":0,"source":0},{"sampler":0,"source":1}],"extensionsUsed":["ALI_amc_mesh_compression"],"extensionsRequired":["ALI_amc_mesh_compression"]}