{"accessors":[{"bufferView":0,"componentType":5126,"count":55,"max":[1.0000001192092896,0,1,0,0.7726240158081055,0,1.0000001192092896,0,0,-1,0,0,34.17129135131836,30.797826766967773,42.019615173339844,1],"min":[-0.940054178237915,0,-0.7726240158081055,0,-1,0,-0.940054178237915,0,0,-1.0000001192092896,0,0,-70.153564453125,-52.43076705932617,-72.49649047851562,1],"type":"MAT4","byteOffset":0}],"asset":{"generator":"Khronos Blender glTF 2.0 exporter","version":"2.0"},"bufferViews":[{"buffer":0,"byteLength":3520,"byteOffset":0},{"buffer":0,"byteOffset":3520,"byteLength":4327},{"buffer":0,"byteOffset":7847,"byteLength":4327},{"buffer":0,"byteOffset":12174,"byteLength":126945}],"buffers":[{"byteLength":139119,"uri":"buffer.bin"}],"images":[{"name":"pm0030_00_Eye1","uri":"pm0030_00_Eye1.png"},{"name":"pm0030_00_Body1","uri":"pm0030_00_Body1.png"},{"name":"pm0030_00_Iris1","uri":"pm0030_00_Iris1.png"}],"materials":[{"alphaMode":"OPAQUE","name":"Material__10","pbrMetallicRoughness":{"baseColorFactor":[0.6400000190734865,0.6400000190734865,0.6400000190734865,1],"baseColorTexture":{"index":0},"metallicFactor":0}},{"alphaMode":"OPAQUE","name":"Material__11","pbrMetallicRoughness":{"baseColorFactor":[0.6400000190734865,0.6400000190734865,0.6400000190734865,1],"baseColorTexture":{"index":1},"metallicFactor":0}},{"alphaMode":"MASK","name":"Material__12","pbrMetallicRoughness":{"baseColorFactor":[0.6400000190734865,0.6400000190734865,0.6400000190734865,1],"baseColorTexture":{"index":2},"metallicFactor":0}}],"meshes":[{"name":"Nidorina","primitives":[{"material":2,"extensions":{"ALI_amc_mesh_compression":{"bufferView":1}}},{"material":0,"extensions":{"ALI_amc_mesh_compression":{"bufferView":2}}},{"material":1,"extensions":{"ALI_amc_mesh_compression":{"bufferView":3}}}]}],"nodes":[{"children":[3,4],"name":"Armature","scale":[0.02539999969303608,0.02539999969303608,0.02539999969303608]},{"name":"Camera","rotation":[0.483536034822464,0.33687159419059753,-0.20870360732078552,0.7804827094078064],"translation":[7.481131553649902,5.34366512298584,6.5076398849487305]},{"name":"Lamp","rotation":[0.16907575726509094,0.7558802962303162,-0.27217137813568115,0.570947527885437],"scale":[1,1,0.9999999403953552],"translation":[4.076245307922363,5.903861999511719,-1.0054539442062378]},{"mesh":0,"name":"Nidorina","skin":0},{"children":[5,57,58],"name":"Armature_pm0030_00","rotation":[-0.7071068286895752,0,0,0.7071068286895752]},{"children":[6],"name":"Armature_Origin"},{"children":[7,23],"name":"Armature_Waist","rotation":[0,-0.9453608393669128,0,0.326026052236557],"translation":[0,5.442788600921631,29.69610023498535]},{"children":[8,9,14,19],"name":"Armature_Hips","rotation":[0,-0.8990071415901184,0,0.43793395161628723],"scale":[1,0.9999999403953552,1],"translation":[-0.000013465710253512952,9.5367431640625e-7,-0.000010541587471379898]},{"name":"Armature_EndHips","rotation":[0,3.675677362480201e-8,0,1],"translation":[24.922100067138672,0.00000476837158203125,-0.000002066504748654552]},{"children":[10],"name":"Armature_LThigh","rotation":[0,-0.07617290318012238,0,0.9970946311950684],"translation":[8.235869407653809,6.707821846008301,15.702187538146973]},{"children":[11],"name":"Armature_LLeg","rotation":[0,0.20906995236873627,0,0.9779006838798523],"translation":[11.137964248657227,-1.7318763732910156,-1.7117619514465332]},{"children":[12],"name":"Armature_LFoot","rotation":[0,-0.8244225382804871,0,0.5659748315811157],"scale":[1,0.9999999403953552,1],"translation":[9.05958080291748,2.588052749633789,2.4951627254486084]},{"children":[13],"name":"Armature_LToe","rotation":[0,3.725290298461914e-9,0,1],"scale":[1,0.9999999403953552,1],"translation":[-0.000001564621925354004,-2.130399703979492,0.000005364418029785156]},{"name":"Armature_EndLToe","rotation":[0,-3.725290298461914e-9,0,1],"scale":[1,0.9999999403953552,1],"translation":[-0.000007905066013336182,-7.506782531738281,0.000014066696166992188]},{"children":[15],"name":"Armature_RThigh","rotation":[0,-0.07617297023534775,0,0.9970946311950684],"scale":[0.9999999403953552,1,0.9999999403953552],"translation":[8.235970497131348,6.707852363586426,-15.702214241027832]},{"children":[16],"name":"Armature_RLeg","rotation":[0,0.20906995236873627,0,0.9779006838798523],"scale":[0.9999999403953552,1,0.9999999403953552],"translation":[11.137914657592773,-1.731851577758789,-1.7117524147033691]},{"children":[17],"name":"Armature_RFoot","rotation":[0,-0.7954639196395874,0,0.606001079082489],"scale":[0.9999999403953552,1,0.9999999403953552],"translation":[9.059557914733887,2.588198661804199,2.4952280521392822]},{"children":[18],"name":"Armature_RToe","rotation":[0,3.9926561612446676e-8,0,1],"translation":[0.0000030807009352429304,-2.130499839782715,-0.00000198967336473288]},{"name":"Armature_EndRToe","rotation":[0,5.684341886080802e-14,0,1],"translation":[0.000005878289812244475,-7.506750106811523,-0.0000074158451752737164]},{"children":[20],"name":"Armature_Tail1","rotation":[0,-0.7058622241020203,0,0.7083492279052734],"translation":[9.200967788696289,17.24631118774414,0.000027749156288336962]},{"children":[21],"name":"Armature_Tail2","rotation":[0,-0.016209801658988,0,0.999868631362915],"translation":[0.00012804831203538924,8.665363311767578,-0.030500048771500587]},{"children":[22],"name":"Armature_Tail3","rotation":[0,-0.00884930044412613,0,0.9999608397483826],"translation":[0.007505500223487616,8.961572647094727,0.25897058844566345]},{"name":"Armature_EndTail3","rotation":[0,-3.725290298461914e-9,0,1],"translation":[0.026345890015363693,12.114742279052734,0.5643892288208008]},{"children":[24,35,46],"name":"Armature_Spine","rotation":[0,-0.000004395842552185059,0,1],"translation":[-0.000014891333194100298,0.0000247955322265625,-0.000011657632057904266]},{"children":[25],"name":"Armature_Neck","rotation":[0,0.010548703372478485,0,0.9999444484710693],"translation":[6.401432037353516,-13.265606880187988,-8.177217483520508]},{"children":[26,27,29,32],"name":"Armature_Head","rotation":[0,0.04802504926919937,0,0.9988462328910828],"translation":[1.9257804155349731,-3.7225112915039062,-2.3558692932128906]},{"name":"Armature_EndHead","rotation":[0,4.470348358154297e-8,0,1],"translation":[11.31248664855957,-16.192893981933594,-11.403928756713867]},{"children":[28],"name":"Armature_Jaw","rotation":[0,-0.9994299411773682,0,0.033762115985155106],"translation":[1.310266375541687,-4.957606315612793,-1.3208507299423218]},{"name":"Armature_EndJaw","rotation":[0,-5.960464477539063e-8,0,1],"translation":[12.186612129211426,-14.294912338256836,-10.729203224182129]},{"children":[30],"name":"Armature_LEar1","rotation":[0,0.9753852486610413,0,0.2205076813697815],"translation":[-0.14778470993041992,-4.803025245666504,-13.857215881347656]},{"children":[31],"name":"Armature_LEar2","rotation":[0,2.086162567138672e-7,0,1],"translation":[6.235247611999512,6.0891265869140625,8.494583129882812]},{"name":"Armature_EndLEar2","rotation":[0,-1.4901161193847656e-8,0,1],"translation":[7.966747283935547,7.780038833618164,10.853473663330078]},{"children":[33],"name":"Armature_REar1","rotation":[0,0.050775278359651566,0,0.9987100958824158],"translation":[13.85799503326416,-4.8029375076293945,0.036312103271484375]},{"children":[34],"name":"Armature_REar2","translation":[10.120859146118164,6.089054107666016,2.933070182800293]},{"name":"Armature_EndREar2","translation":[12.931375503540039,7.7800164222717285,3.7475242614746094]},{"children":[36],"name":"Armature_RShoulder","rotation":[0,-0.48476642370224,0,0.8746436834335327],"scale":[0.9999999403953552,1,0.9999999403953552],"translation":[7.027984619140625,-11.325455665588379,1.3217041492462158]},{"children":[37],"name":"Armature_RArm","rotation":[0,-0.11669518053531647,0,0.9931678771972656],"translation":[6.096646308898926,0.03887176513671875,0.038747310638427734]},{"children":[38],"name":"Armature_RForeArm","rotation":[0,-0.039946626871824265,0,0.9992018342018127],"translation":[9.512747764587402,0.3317899703979492,0.3316841125488281]},{"children":[39,40,42,44],"name":"Armature_RHand","rotation":[0,-0.024750294163823128,0,0.999693751335144],"scale":[0.9999999403953552,1,0.9999999403953552],"translation":[6.043743133544922,-0.27285099029541016,-0.27262401580810547]},{"name":"Armature_EndRHand","rotation":[0,-4.470348358154297e-8,0,1],"translation":[4.026120662689209,-0.0000095367431640625,0.00002384185791015625]},{"children":[41],"name":"Armature_RFingerA","rotation":[0,0.01088060811161995,0,0.999940812587738],"translation":[1.304553508758545,-2.172649383544922,0.5348453521728516]},{"name":"Armature_EndRFingerA","translation":[3.251688003540039,-0.00000667572021484375,0.00000858306884765625]},{"children":[43],"name":"Armature_RFingerB","rotation":[0,-0.027565253898501396,0,0.9996200203895569],"translation":[1.359921932220459,2.533008575439453,0.4700288772583008]},{"name":"Armature_EndRFingerB","rotation":[0,4.470348358154297e-8,0,1],"translation":[3.049241542816162,-0.000010728836059570312,0.00002574920654296875]},{"children":[45],"name":"Armature_RFingerC","rotation":[0,-0.700624406337738,0,0.7135303020477295],"translation":[1.8487133979797363,0.1888880729675293,-1.5596694946289062]},{"name":"Armature_EndRFingerC","rotation":[0,4.470348358154297e-8,0,1],"translation":[0.6131391525268555,-0.00000476837158203125,-3.283696174621582]},{"children":[47],"name":"Armature_LShoulder","rotation":[0,0.9885132312774658,0,0.15113434195518494],"scale":[0.9999999403953552,1,0.9999999403953552],"translation":[-2.9700851440429688,-11.325445175170898,-6.505221366882324]},{"children":[48],"name":"Armature_LArm","rotation":[0,0.14491690695285797,0,0.989443838596344],"translation":[6.096641540527344,0.03886985778808594,0.038840293884277344]},{"children":[49],"name":"Armature_LForeArm","rotation":[0,-0.03994664177298546,0,0.9992018342018127],"translation":[9.51270580291748,0.33177709579467773,0.33162689208984375]},{"children":[50,51,53,55],"name":"Armature_LHand","rotation":[0,0.06976360082626343,0,0.9975635409355164],"translation":[6.04374885559082,-0.2728452682495117,-0.2725677490234375]},{"name":"Armature_EndLHand","translation":[4.026152610778809,-0.00000858306884765625,-0.0000133514404296875]},{"children":[52],"name":"Armature_LFingerA","rotation":[0,-0.010881904512643814,0,0.999940812587738],"translation":[1.3045578002929688,-2.1726694107055664,-0.5349359512329102]},{"name":"Armature_EndLFingerA","translation":[3.251689910888672,-0.0000133514404296875,-0.00000476837158203125]},{"children":[54],"name":"Armature_LFingerB","rotation":[0,0.0275711752474308,0,0.9996199011802673],"translation":[1.3599157333374023,2.5330023765563965,-0.4699697494506836]},{"name":"Armature_EndLFingerB","translation":[3.04923152923584,-0.000008106231689453125,9.5367431640625e-7]},{"children":[56],"name":"Armature_LFingerC","rotation":[0,0.08308018743991852,0,0.9965428709983826],"translation":[1.8486995697021484,0.18889760971069336,1.5596446990966797]},{"name":"Armature_EndLFingerC","translation":[3.340517997741699,-0.000007152557373046875,-0.0000019073486328125]},{"name":"Armature_pm0030_00_BodySkin"},{"name":"Armature_pm0030_00_IrisSkin"}],"samplers":[{}],"scene":0,"scenes":[{"name":"Scene","nodes":[0,2,1]}],"skins":[{"inverseBindMatrices":0,"joints":[4,5,6,7,8,9,10,11,12,13,14,15,16,17,18,19,20,21,22,23,24,25,26,27,28,29,30,31,32,33,34,35,36,37,38,39,40,41,42,43,44,45,46,47,48,49,50,51,52,53,54,55,56,57,58],"skeleton":0}],"textures":[{"sampler":0,"source":0},{"sampler":0,"source":1},{"sampler":0,"source":2}],"extensionsUsed":["ALI_amc_mesh_compression"],"extensionsRequired":["ALI_amc_mesh_compression"]}