{"accessors":[{"bufferView":0,"componentType":5126,"count":27,"max":[1,0,6.880873205811493e-16,0,3.6379785902512785e-12,0,1,0,0,-1,0,0,149.30999755859375,0,108.80158233642578,1],"min":[1,-1.280275798570818e-13,-3.6379785902512785e-12,0,-6.880873205811493e-16,-6.712330957725499e-8,1,0,-1.280275798570818e-13,-1.0000001192092896,-6.712331668268234e-8,0,-149.310302734375,-186.63189697265625,-101.60558319091797,1],"type":"MAT4","byteOffset":0}],"asset":{"generator":"Khronos Blender glTF 2.0 exporter","version":"2.0"},"bufferViews":[{"buffer":0,"byteLength":1728,"byteOffset":0},{"buffer":0,"byteOffset":1728,"byteLength":5643},{"buffer":0,"byteOffset":7371,"byteLength":44755},{"buffer":0,"byteOffset":52126,"byteLength":20319},{"buffer":0,"byteOffset":72445,"byteLength":124791}],"buffers":[{"byteLength":197236,"uri":"buffer.bin"}],"images":[{"name":"pm0131_00_BodyA1","uri":"pm0131_00_BodyA1.png"},{"name":"pm0131_00_BodyB1.tga","uri":"pm0131_00_BodyB1.tga.png"},{"name":"pm0131_00_Eye1","uri":"pm0131_00_Eye1.png"}],"materials":[{"name":"BodyATattu00_mat","pbrMetallicRoughness":{"baseColorFactor":[0.6400000190734865,0.6400000190734865,0.6400000190734865,1],"baseColorTexture":{"index":0},"metallicFactor":0}},{"name":"BodyB_mat","pbrMetallicRoughness":{"baseColorFactor":[0.6400000190734865,0.6400000190734865,0.6400000190734865,1],"baseColorTexture":{"index":1},"metallicFactor":0}},{"name":"BodyBVco_mat","pbrMetallicRoughness":{"baseColorFactor":[0.6400000190734865,0.6400000190734865,0.6400000190734865,1],"baseColorTexture":{"index":1},"metallicFactor":0}},{"name":"Eye_mat","pbrMetallicRoughness":{"baseColorFactor":[0.6400000190734865,0.6400000190734865,0.6400000190734865,1],"baseColorTexture":{"index":3},"metallicFactor":0}}],"meshes":[{"name":"mesh_6_BodyATattu01","primitives":[{"material":3,"extensions":{"ALI_amc_mesh_compression":{"bufferView":1}}},{"material":1,"extensions":{"ALI_amc_mesh_compression":{"bufferView":2}}},{"material":2,"extensions":{"ALI_amc_mesh_compression":{"bufferView":3}}},{"material":0,"extensions":{"ALI_amc_mesh_compression":{"bufferView":4}}}]}],"nodes":[{"children":[3,4],"name":"Armature","rotation":[0.7071068286895752,0,0,0.7071067094802856]},{"name":"Camera","rotation":[0.483536034822464,0.33687159419059753,-0.20870360732078552,0.7804827094078064],"translation":[7.481131553649902,5.34366512298584,6.5076398849487305]},{"name":"Lamp","rotation":[0.16907575726509094,0.7558802962303162,-0.27217137813568115,0.570947527885437],"scale":[1,1,0.9999999403953552],"translation":[4.076245307922363,5.903861999511719,-1.0054539442062378]},{"mesh":0,"name":"vsn_mesh_6_BodyATattu01","skin":0},{"children":[5,28,29,30],"name":"Armature_pm0131_00","rotation":[-0.7071068286895752,0,0,0.7071068286895752]},{"children":[6],"name":"Armature_Origin"},{"children":[7,14,17,20,23,26],"name":"Armature_Waist","translation":[8,36.10369110107422,0]},{"children":[8],"name":"Armature_Neck1","rotation":[0,2.4281727342264655e-21,0,1],"translation":[-7.999978542327881,15.12420654296875,43.320743560791016]},{"children":[9],"name":"Armature_Neck2","rotation":[0,-5.816304321295275e-21,0,1],"translation":[0.000014872806787025183,30.981292724609375,16.396976470947266]},{"children":[10],"name":"Armature_Neck3","rotation":[-2.1688708771573646e-34,3.388131385120418e-21,6.40137899285409e-14,1],"scale":[1,0.9999999403953552,1],"translation":[0.000015820296539459378,35.88152313232422,14.514984130859375]},{"children":[11,12,13],"name":"Armature_Head","rotation":[2.2958874039497803e-41,2.0194839173657902e-28,-6.401377637601374e-14,1],"translation":[0.000014693000593979377,34.52539825439453,12.280105590820312]},{"name":"Armature_Jaw","translation":[0.000006092297553550452,7.101898193359375,12.305458068847656]},{"name":"Armature_LEar","rotation":[-3.356165478862749e-8,4.548452379254808e-28,0,1],"translation":[21.350400924682617,34.015777587890625,15.092758178710938]},{"name":"Armature_REar","rotation":[-3.356165478862749e-8,3.4404366029057464e-16,-1.1546601245930642e-23,1],"translation":[-21.350404739379883,34.01548767089844,15.092552185058594]},{"children":[15],"name":"Armature_LArm","translation":[40.318206787109375,-11.963802337646484,31.544788360595703]},{"children":[16],"name":"Armature_LForeArm","translation":[53.58778381347656,-0.0000171661376953125,0.0000019073486328125]},{"name":"Armature_LHand","translation":[47.40431213378906,-0.0000095367431640625,0]},{"children":[18],"name":"Armature_RArm","translation":[-56.31819152832031,-11.963781356811523,31.544818878173828]},{"children":[19],"name":"Armature_RForeArm","translation":[-53.587806701660156,0.000030517578125,0.000019073486328125]},{"name":"Armature_RHand","translation":[-47.40399932861328,0.000011444091796875,0.000034332275390625]},{"children":[21],"name":"Armature_LThigh","translation":[32.527408599853516,-13.977800369262695,-58.63996887207031]},{"children":[22],"name":"Armature_LLeg","scale":[1,0.9999999403953552,1],"translation":[30.380489349365234,-0.0000133514404296875,-22.2501220703125]},{"name":"Armature_LFoot","rotation":[0,-7.046939431410896e-24,0,1],"translation":[19.553123474121094,-0.0000209808349609375,-14.320358276367188]},{"children":[24],"name":"Armature_RThigh","translation":[-48.52742004394531,-13.977781295776367,-58.639991760253906]},{"children":[25],"name":"Armature_RLeg","translation":[-30.380470275878906,0.00000762939453125,-22.25000762939453]},{"name":"Armature_RFoot","rotation":[0,-1.1292606967111202e-22,0,1],"translation":[-19.553199768066406,0.000003814697265625,-14.32037353515625]},{"children":[27],"name":"Armature_Tail1","rotation":[0,-1.8189892951256392e-12,0,1],"translation":[-7.995397567749023,-12.437793731689453,-88.09061431884766]},{"name":"Armature_Tail2","rotation":[0,1.8189892951256392e-12,0,1],"translation":[-0.0046024322509765625,-6.501070022583008,-20.710968017578125]},{"name":"Armature_pm0131_00_BodySkin"},{"name":"Armature_pm0131_00_KooraSkin"},{"name":"Armature_pm0131_00_IrisSkin"}],"samplers":[{}],"scene":0,"scenes":[{"name":"Scene","nodes":[0,2,1]}],"skins":[{"inverseBindMatrices":0,"joints":[4,5,6,7,8,9,10,11,12,13,14,15,16,17,18,19,20,21,22,23,24,25,26,27,28,29,30],"skeleton":0}],"textures":[{"sampler":0,"source":0},{"sampler":0,"source":1},{"sampler":0,"source":1},{"sampler":0,"source":2}],"extensionsUsed":["ALI_amc_mesh_compression"],"extensionsRequired":["ALI_amc_mesh_compression"]}