{"accessors":[{"bufferView":0,"componentType":5126,"count":54,"max":[1,8.137315177236815e-8,0.9999759793281555,0,1,2.3062521847805328e-7,1,0,2.000524546019733e-7,-1,1.4731735120676603e-7,0,55.480628967285156,50.881771087646484,57.696407318115234,1],"min":[-0.9401786923408508,-9.770977271728043e-8,-1,0,-0.9999759793281555,-1.9490920522002853e-7,-0.9401786923408508,0,-2.0697201819075417e-7,-1.000000238418579,-1.0066066380431948e-7,0,-83.82424926757812,-68.19635009765625,-87.02722930908203,1],"type":"MAT4","byteOffset":0}],"asset":{"generator":"Khronos Blender glTF 2.0 exporter","version":"2.0"},"bufferViews":[{"buffer":0,"byteLength":3456,"byteOffset":0},{"buffer":0,"byteOffset":3456,"byteLength":130353},{"buffer":0,"byteOffset":133809,"byteLength":2571},{"buffer":0,"byteOffset":136380,"byteLength":2371}],"buffers":[{"byteLength":138751,"uri":"buffer.bin"}],"images":[{"name":"pm0008_00_Body1","uri":"pm0008_00_Body1.png"},{"name":"pm0008_00_Eye1","uri":"pm0008_00_Eye1.png"},{"name":"pm0008_00_Iris1","uri":"pm0008_00_Iris1.png"}],"materials":[{"alphaMode":"OPAQUE","name":"Material__72","pbrMetallicRoughness":{"baseColorFactor":[0.6400000190734865,0.6400000190734865,0.6400000190734865,1],"baseColorTexture":{"index":0},"metallicFactor":0}},{"alphaMode":"OPAQUE","name":"Material__73","pbrMetallicRoughness":{"baseColorFactor":[0.6400000190734865,0.6400000190734865,0.6400000190734865,1],"baseColorTexture":{"index":1},"metallicFactor":0}},{"alphaMode":"MASK","name":"Material__74","pbrMetallicRoughness":{"baseColorFactor":[0.6400000190734865,0.6400000190734865,0.6400000190734865,1],"baseColorTexture":{"index":2},"metallicFactor":0}}],"meshes":[{"name":"Wartortle","primitives":[{"material":0,"extensions":{"ALI_amc_mesh_compression":{"bufferView":1}}},{"material":2,"extensions":{"ALI_amc_mesh_compression":{"bufferView":2}}},{"material":1,"extensions":{"ALI_amc_mesh_compression":{"bufferView":3}}}]}],"nodes":[{"children":[3,4],"name":"Armature","scale":[0.02539999969303608,0.02539999969303608,0.02539999969303608]},{"name":"Camera","rotation":[0.483536034822464,0.33687159419059753,-0.20870360732078552,0.7804827094078064],"translation":[7.481131553649902,5.34366512298584,6.5076398849487305]},{"name":"Lamp","rotation":[0.16907575726509094,0.7558802962303162,-0.27217137813568115,0.570947527885437],"scale":[1,1,0.9999999403953552],"translation":[4.076245307922363,5.903861999511719,-1.0054539442062378]},{"mesh":0,"name":"Wartortle","skin":0},{"children":[5,55,56,57],"name":"Armature_pm0008_00","rotation":[-0.7071068286895752,0,0,0.7071068286895752]},{"children":[6],"name":"Armature_Origin"},{"children":[7,17,18,23,33,43,49],"name":"Armature_Waist","rotation":[0,-0.7071078419685364,0,0.7071056962013245],"scale":[1,0.9999999403953552,1],"translation":[0.000015281199011951685,-16.296199798583984,21.239599227905273]},{"children":[8,11,14,16],"name":"Armature_Head","rotation":[0,-0.1849919706583023,0,0.982740044593811],"scale":[0.9999999403953552,1,0.9999999403953552],"translation":[41.69819259643555,-15.577539443969727,-9.984069038182497e-7]},{"children":[9],"name":"Armature_REar1","rotation":[0,0.46166467666625977,0,0.8870545029640198],"scale":[1,0.9999999403953552,1],"translation":[20.190004348754883,-6.937471389770508,10.166559219360352]},{"children":[10],"name":"Armature_REar2","rotation":[0,0.06132648140192032,0,0.9981178641319275],"scale":[0.9999999403953552,1,0.9999999403953552],"translation":[4.831803321838379,10.308792114257812,9.124649047851562]},{"name":"Armature_EndREar2","scale":[1,0.9999999403953552,1],"translation":[2.4003772735595703,16.59623146057129,13.73853874206543]},{"children":[12],"name":"Armature_LEar1","rotation":[0,0.6527485847473145,0,0.7575746178627014],"scale":[1,0.9999999403953552,1],"translation":[7.964617729187012,-6.93748664855957,-21.15555763244629]},{"children":[13],"name":"Armature_LEar2","rotation":[0,0.07124509662389755,0,0.9974588751792908],"translation":[8.78010368347168,10.308746337890625,5.432781219482422]},{"name":"Armature_EndLEar2","translation":[12.203004837036133,16.596160888671875,6.752627372741699]},{"children":[15],"name":"Armature_Jaw","rotation":[0,0.9565616846084595,0,0.291530042886734],"scale":[1,0.9999999403953552,1],"translation":[3.1121721267700195,-5.609338760375977,-1.2146446704864502]},{"name":"Armature_EndJaw","translation":[4.735132694244385,-11.953010559082031,-6.818192958831787]},{"name":"Armature_EndHead","rotation":[0,-1.4901161193847656e-8,0,1],"scale":[1,0.9999999403953552,1],"translation":[25.194210052490234,-10.556123733520508,-9.833621978759766]},{"name":"Armature_EndWaist","rotation":[0,-1.1368683772161603e-13,0,1],"translation":[49.93550491333008,-0.0000057220458984375,-0.000001195643562823534]},{"children":[19],"name":"Armature_Tail1","rotation":[1.1231705343561771e-7,0.9740223288536072,-2.6112786599696847e-8,0.2264522761106491],"translation":[-9.630295753479004,8.071455001831055,0.000007627411832800135]},{"children":[20],"name":"Armature_Tail2","rotation":[-7.910028188007345e-8,-0.19562439620494843,-1.018056678958601e-7,0.9806789755821228],"translation":[8.352880477905273,4.575165748596191,-4.105912685394287]},{"children":[21],"name":"Armature_Tail3","rotation":[-8.27309652728586e-17,-0.38575103878974915,2.1058791521315546e-16,0.9226029515266418],"translation":[9.093998908996582,15.717884063720703,-10.365754127502441]},{"children":[22],"name":"Armature_Tail4","rotation":[-2.905062146396631e-8,-0.11279230564832687,-3.289299665976131e-10,0.9936186671257019],"translation":[0.13131603598594666,25.370962142944336,1.8227307796478271]},{"name":"Armature_EndTail4","rotation":[1.1531258792274457e-7,-8.881784197001252e-16,8.881784197001252e-16,1],"translation":[2.7731945514678955,30.757083892822266,9.029719352722168]},{"children":[24],"name":"Armature_RArm","rotation":[0,0.991430401802063,0,0.13063573837280273],"translation":[26.3331298828125,-11.57809829711914,17.182537078857422]},{"children":[25],"name":"Armature_RForeArm","rotation":[-6.63364341235706e-9,-0.06574573367834091,-1.0068019662412553e-7,0.9978364109992981],"scale":[0.9999999403953552,1,0.9999999403953552],"translation":[-0.7912740707397461,-8.306669235229492,-6.462418556213379]},{"children":[26,27,29,31],"name":"Armature_RHand","rotation":[5.7656265539662854e-8,3.725290298461914e-7,1.0089854640682461e-7,1],"translation":[-1.760457992553711,-6.661555290222168,-3.9440391063690186]},{"name":"Armature_EndRHand","rotation":[-2.8828146980686142e-8,1.942890293094024e-15,4.324222402374289e-8,1],"translation":[-1.563040852546692,-5.913704872131348,-3.501272678375244]},{"children":[28],"name":"Armature_RFingerA","rotation":[-4.4400259469057346e-8,0.9996313452720642,-4.205219639175084e-8,0.027150958776474],"translation":[-1.5484315156936646,-3.7764480113983154,-0.6637904047966003]},{"name":"Armature_EndRFingerA","rotation":[-2.7200466220898703e-15,2.980232594040899e-8,5.044925899255759e-8,1],"scale":[0.9999999403953552,0.9999999403953552,0.9999999403953552],"translation":[0.5420891642570496,-4.262801170349121,0.890140175819397]},{"children":[30],"name":"Armature_RFingerB","rotation":[-6.084602688360974e-8,0.7174723744392395,-2.128549958513304e-8,0.6965869665145874],"translation":[-3.352908134460449,-1.0720261335372925,-2.7341318130493164]},{"name":"Armature_EndRFingerB","rotation":[-8.881784197001252e-16,2.9802322387695312e-8,8.881784197001252e-16,1],"translation":[3.071763515472412,-4.466419219970703,-0.7640724182128906]},{"children":[32],"name":"Armature_RFingerC","rotation":[-6.846444478014746e-8,0.3200983703136444,2.2511319031082166e-8,0.9473843574523926],"scale":[0.9999999403953552,1,0.9999999403953552],"translation":[-0.582156240940094,-0.9338350892066956,-4.432887077331543]},{"name":"Armature_EndRFingerC","rotation":[1.3322676295501878e-15,-1.4901161193847656e-8,-6.661338147750939e-16,1],"translation":[2.2306997776031494,-2.6334900856018066,-2.5741593837738037]},{"children":[34],"name":"Armature_LArm","rotation":[0,0.6042153835296631,0,0.7968210577964783],"translation":[26.333110809326172,-11.578079223632812,-17.182491302490234]},{"children":[35],"name":"Armature_LForeArm","rotation":[0,-0.06574500352144241,0,0.9978364706039429],"scale":[1,0.9999999403953552,1],"translation":[5.962172508239746,-8.306694030761719,-2.61558198928833]},{"children":[36,38,40,41],"name":"Armature_LHand","rotation":[0,-1.043081283569336e-7,0,1],"translation":[4.013299942016602,-6.6615447998046875,-1.5963153839111328]},{"children":[37],"name":"Armature_LFingerB","rotation":[0,-0.7697468400001526,0,0.6383492946624756],"translation":[4.309459686279297,-1.0719833374023438,0.3813037872314453]},{"name":"Armature_EndLFingerB","rotation":[5.7656293961372285e-8,0,-8.591457830978329e-16,1],"translation":[-2.0661048889160156,-4.466438293457031,-2.3980274200439453]},{"children":[39],"name":"Armature_LFingerA","rotation":[0,0.8329089879989624,0,0.553409993648529],"translation":[1.5721759796142578,-3.7764930725097656,0.6049718856811523]},{"name":"Armature_EndLFingerA","rotation":[2.8828146980686142e-8,-1.0011717677116394e-8,4.504397921323289e-8,1],"translation":[-0.09601467847824097,-4.262767791748047,1.037787914276123]},{"name":"Armature_EndLHand","translation":[3.5627574920654297,-5.913730621337891,-1.4170866012573242]},{"children":[42],"name":"Armature_LFingerC","rotation":[0,0.17939208447933197,0,0.9837777614593506],"scale":[0.9999999403953552,1,0.9999999403953552],"translation":[3.5102462768554688,-0.933837890625,-2.768862724304199]},{"name":"Armature_EndLFingerC","rotation":[4.3242216918315535e-8,-5.587935447692871e-9,-1.306124275270539e-16,1],"translation":[2.989138126373291,-2.6335296630859375,-1.6331957578659058]},{"children":[44],"name":"Armature_LThigh","rotation":[4.155920763082577e-8,0.9610791802406311,-1.1946669431495138e-8,0.27627336978912354],"translation":[1.3507224321365356,-0.0000324249267578125,-14.785221099853516]},{"children":[45],"name":"Armature_LLeg","rotation":[-5.2111744253124925e-8,0.4278828203678131,-2.4670143261573685e-8,0.9038342237472534],"translation":[13.042939186096191,-1.4559144973754883,-1.4642621278762817]},{"children":[46,48],"name":"Armature_LFoot","rotation":[3.423571826033367e-8,-0.8046201467514038,-4.6391413377477875e-8,0.5937898755073547],"translation":[5.012006759643555,6.924585819244385,5.011601448059082]},{"children":[47],"name":"Armature_LToe","rotation":[-1.5864479868676895e-14,0.0000024829059839248657,6.3061573740696986e-9,1],"translation":[-0.006411085370928049,-5.2960333824157715,-2.7929162979125977]},{"name":"Armature_EndLToe","rotation":[6.306159150426538e-9,8.673617379884035e-19,-4.504399908622503e-10,1],"scale":[1,1.0000001192092896,1],"translation":[-0.050088465213775635,-6.917060852050781,-0.08137079328298569]},{"name":"Armature_EndLFoot","rotation":[5.405278891146281e-9,-1.6763806343078613e-8,7.207038077439165e-9,1],"translation":[-0.09981964528560638,-13.780679702758789,-0.16211389005184174]},{"children":[50],"name":"Armature_RThigh","rotation":[-4.262305353108786e-8,-0.9856811761856079,-7.2914994042605485e-9,0.16861970722675323],"translation":[1.35069739818573,-0.000003814697265625,14.785181045532227]},{"children":[51],"name":"Armature_RLeg","rotation":[-1.2059090544238042e-15,0.42788323760032654,-7.924454854520233e-16,0.9038340449333191],"translation":[13.046740531921387,-1.455887794494629,-1.4301350116729736]},{"children":[52,54],"name":"Armature_RFoot","rotation":[-4.6877982384785355e-8,-0.9850913286209106,-6.671550067949283e-8,0.17203275859355927],"scale":[0.9999999403953552,1,0.9999999403953552],"translation":[5.12630558013916,6.924539089202881,4.894631862640381]},{"children":[53],"name":"Armature_RToe","rotation":[2.8828502252054022e-8,0.000009933544788509607,-3.5134029019445734e-8,1],"translation":[0.07161855697631836,-5.296013355255127,-2.7919769287109375]},{"name":"Armature_EndRToe","rotation":[1.8017600744713036e-9,1.6263032587282567e-19,4.504400186178259e-10,1],"scale":[1,0.9999999403953552,1],"translation":[0.05193207785487175,-6.917106628417969,-0.08017116039991379]},{"name":"Armature_EndRFoot","rotation":[3.0629912828317174e-8,8.032657206058502e-9,-3.513431323654004e-8,1],"translation":[0.10345906019210815,-13.780682563781738,-0.15971322357654572]},{"name":"Armature_pm0008_00_BodySkin"},{"name":"Armature_pm0008_00_IrisSkin"},{"name":"Armature_pm0008_00_ShellSkin"}],"samplers":[{}],"scene":0,"scenes":[{"name":"Scene","nodes":[0,2,1]}],"skins":[{"inverseBindMatrices":0,"joints":[4,5,6,7,8,9,10,11,12,13,14,15,16,17,18,19,20,21,22,23,24,25,26,27,28,29,30,31,32,33,34,35,36,37,38,39,40,41,42,43,44,45,46,47,48,49,50,51,52,53,54,55,56,57],"skeleton":0}],"textures":[{"sampler":0,"source":0},{"sampler":0,"source":1},{"sampler":0,"source":2}],"extensionsUsed":["ALI_amc_mesh_compression"],"extensionsRequired":["ALI_amc_mesh_compression"]}