{"accessors":[{"bufferView":0,"componentType":5126,"count":68,"max":[0.000001571020447954652,-0.9999998211860657,0.000001496233949183079,0,0.9999999403953552,-0.0000015710202205809765,0.9920672178268433,0,0.6811003088951111,5.821049740006856e-7,0.9999999403953552,0,52.23044967651367,27.157917022705078,106.01579284667969,1],"min":[-0.0000016730559764255304,-1,-0.0000016753824638726655,0,-0.9999998211860657,-0.0000015710205616414896,-0.6811002492904663,0,-0.9920672178268433,5.821048603138479e-7,-0.9999998211860657,0,-145.60928344726562,-27.157970428466797,-104.05807495117188,1],"type":"MAT4","byteOffset":0}],"asset":{"generator":"Khronos Blender glTF 2.0 exporter","version":"2.0"},"bufferViews":[{"buffer":0,"byteLength":4352,"byteOffset":0},{"buffer":0,"byteOffset":4352,"byteLength":4367},{"buffer":0,"byteOffset":8719,"byteLength":4367},{"buffer":0,"byteOffset":13086,"byteLength":156783}],"buffers":[{"byteLength":169869,"uri":"buffer.bin"}],"images":[{"name":"pm0053_00_Body1","uri":"pm0053_00_Body1.png"},{"name":"pm0053_00_Eye1","uri":"pm0053_00_Eye1.png"},{"name":"pm0053_00_Iris1","uri":"pm0053_00_Iris1.png"}],"materials":[{"alphaMode":"OPAQUE","name":"Body","pbrMetallicRoughness":{"baseColorFactor":[0.6400000190734865,0.6400000190734865,0.6400000190734865,1],"baseColorTexture":{"index":0},"metallicFactor":0}},{"alphaMode":"OPAQUE","name":"Eye","pbrMetallicRoughness":{"baseColorFactor":[0.6400000190734865,0.6400000190734865,0.6400000190734865,1],"baseColorTexture":{"index":1},"metallicFactor":0}},{"alphaMode":"MASK","name":"LIris","pbrMetallicRoughness":{"baseColorFactor":[0.6400000190734865,0.6400000190734865,0.6400000190734865,1],"baseColorTexture":{"index":2},"metallicFactor":0}}],"meshes":[{"name":"Persian","primitives":[{"material":2,"extensions":{"ALI_amc_mesh_compression":{"bufferView":1}}},{"material":1,"extensions":{"ALI_amc_mesh_compression":{"bufferView":2}}},{"material":0,"extensions":{"ALI_amc_mesh_compression":{"bufferView":3}}}]}],"nodes":[{"children":[1,25,26,27,28,29],"name":"_01_pm0053_00","rotation":[0.7071068286895752,0,0,0.7071067094802856],"scale":[0.02539999783039093,0.02539999969303608,0.02539999969303608]},{"children":[2],"name":"_02_Origin"},{"children":[32,33,58],"name":"_03_Waist","rotation":[0.5434872508049011,0.4523504972457886,0.5434883236885071,0.4523508846759796],"scale":[1,1,1.0000001192092896],"translation":[0,-10.134401321411133,-74.38030242919922]},{"name":"_05_EndHips","translation":[39.61000061035156,0.00001525879997643642,-4.001780157247836e-11]},{"name":"_09_EndLFoot","translation":[13.259499549865723,0,-0.0000019073499970545527]},{"name":"_11_EndLToe1","translation":[17.81658935546875,-4.768369876728684e-7,9.536739753457368e-7]},{"name":"_13_EndLToe2","translation":[13.845999717712402,0,9.536739753457368e-7]},{"name":"_17_EndRFoot","translation":[13.259490013122559,0,-0.0000019073499970545527]},{"name":"_19_EndRToe1","translation":[17.816699981689453,4.768369876728684e-7,0]},{"name":"_21_EndRToe2","translation":[13.845999717712402,-9.536739753457368e-7,0.0000028610199933609692]},{"name":"_28_EndTail6","translation":[24.74251937866211,0,2.1827900598125893e-11]},{"name":"_35_EndLHand","translation":[17.038700103759766,9.536739753457368e-7,0.0000028610199933609692]},{"name":"_37_EndLFinger","translation":[12.615900039672852,9.536739753457368e-7,0]},{"name":"_40_EndHead","translation":[28.832300186157227,0,1.4551899615855568e-11]},{"name":"_42_EndJaw","translation":[16.575000762939453,0,-1.4551899615855568e-11]},{"name":"_44_EndLEar","translation":[18.185699462890625,-0.000007629389983776491,-0.000005722049991163658]},{"name":"_47_EndLFeelerA2","translation":[8.766593933105469,0.000007629389983776491,-0.000003814699994109105]},{"name":"_50_EndLFeelerB2","translation":[13.617400169372559,0.000007629389983776491,-0.000007629389983776491]},{"name":"_53_EndLFeelerC2","translation":[12.174909591674805,0.000022888199964654632,0.000007629389983776491]},{"name":"_55_EndREar","translation":[18.18549919128418,0.00001525879997643642,-0.0000019073499970545527]},{"name":"_58_EndRFeelerA2","translation":[8.766620635986328,0,-0.000007629389983776491]},{"name":"_61_EndRFeelerB2","translation":[13.617409706115723,-0.000007629389983776491,-0.000007629389983776491]},{"name":"_64_EndRFeelerC2","translation":[12.17490005493164,-0.000007629389983776491,-0.000007629389983776491]},{"name":"_69_EndRHand","translation":[17.03860092163086,0,-0.0000019073499970545527]},{"name":"_71_EndRFinger","translation":[12.615909576416016,-4.768369876728684e-7,0]},{"name":"_72_pm0053_00_BodySkin"},{"name":"_73_pm0053_00_FeelerSkin"},{"name":"_74_pm0053_00_HeadSkin"},{"name":"_75_pm0053_00_IrisSkin"},{"name":"_76_pm0053_00_TeethSkin"},{"name":"Camera","rotation":[0.483536034822464,0.33687159419059753,-0.20870360732078552,0.7804827094078064],"translation":[7.481131553649902,5.34366512298584,6.5076398849487305]},{"name":"Lamp","rotation":[0.16907575726509094,0.7558802962303162,-0.27217137813568115,0.570947527885437],"scale":[1,1,0.9999999403953552],"translation":[4.076245307922363,5.903861999511719,-1.0054539442062378]},{"mesh":0,"name":"Persian","rotation":[-0.06444301456212997,-0.7041643261909485,-0.06444411724805832,0.7041638493537903],"scale":[0.9999998211860657,0.9999997615814209,0.9999998807907104],"skin":0,"translation":[23.46722984313965,71.30513763427734,0.0001227522297995165]},{"children":[34,35,43,51],"name":"_03_Waist__04_Hips","rotation":[-0.5434877872467041,0.45235055685043335,-0.45235055685043335,0.5434877872467041],"scale":[0.9999999403953552,1,0.9999999403953552],"translation":[94.77238464355469,47.837886810302734,0.00012253818567842245]},{"name":"_03_Waist__05_EndHips","translation":[36.9998779296875,0.0000395774986827746,-14.140811920166016]},{"children":[36],"name":"_03_Waist__06_LThigh","rotation":[0,-0.682525634765625,0,0.7308617234230042],"scale":[0.9999999403953552,0.9999998211860657,0.9999999403953552],"translation":[13.30899715423584,-13.81753158569336,-10.305203437805176]},{"children":[37],"name":"_03_Waist__07_LLeg","rotation":[0,0.32191839814186096,0,0.9467675089836121],"translation":[-21.505077362060547,0.00004291534423828125,4.997027397155762]},{"children":[38,39],"name":"_03_Waist__08_LFoot","rotation":[0,-0.9708948731422424,0,0.2395060658454895],"translation":[-8.97559642791748,0.0000152587890625,-16.90520668029785]},{"name":"_03_Waist__09_EndLFoot","rotation":[0,-2.980232594040899e-8,0,1],"scale":[0.9999999403953552,1,0.9999999403953552],"translation":[9.896045684814453,-0.00001621246337890625,-8.825117111206055]},{"children":[40,41],"name":"_03_Waist__10_LToe1","rotation":[0,0.18060411512851715,0,0.9835559129714966],"translation":[20.21906280517578,0.03455352783203125,19.88260269165039]},{"name":"_03_Waist__11_EndLToe1","rotation":[0,-2.2351741790771484e-8,0,1],"translation":[16.642547607421875,-0.00001811981201171875,-6.360541343688965]},{"children":[42],"name":"_03_Waist__12_LToe2","rotation":[0,-2.2351741790771484e-8,0,1],"translation":[6.4584832191467285,-0.00004863739013671875,-1.8858885765075684]},{"name":"_03_Waist__13_EndLToe2","translation":[12.933610916137695,-0.00001430511474609375,-4.9430341720581055]},{"children":[44],"name":"_03_Waist__14_RThigh","rotation":[0,-0.682525634765625,0,0.7308617234230042],"scale":[0.9999999403953552,0.9999998211860657,0.9999999403953552],"translation":[13.308979034423828,13.817459106445312,-10.305168151855469]},{"children":[45],"name":"_03_Waist__15_RLeg","rotation":[0,0.32191842794418335,0,0.9467673897743225],"translation":[-21.505172729492188,0.00004863739013671875,4.996979236602783]},{"children":[46,47],"name":"_03_Waist__16_RFoot","rotation":[0,-0.9708949327468872,0,0.23950602114200592],"translation":[-8.975592613220215,0.00001239776611328125,-16.905105590820312]},{"name":"_03_Waist__17_EndRFoot","scale":[0.9999999403953552,1,0.9999999403953552],"translation":[9.896041870117188,-0.00001430511474609375,-8.825111389160156]},{"children":[48,49],"name":"_03_Waist__18_RToe1","scale":[0.9999999403953552,1,0.9999999403953552],"translation":[20.219024658203125,0.03455543518066406,19.882638931274414]},{"name":"_03_Waist__19_EndRToe1","scale":[0.9999999403953552,1,0.9999999403953552],"translation":[13.297245979309082,-0.0000171661376953125,-11.85824966430664]},{"children":[50],"name":"_03_Waist__20_RToe2","scale":[0.9999999403953552,1,0.9999999403953552],"translation":[5.367183685302734,0.00061798095703125,-4.057384490966797]},{"name":"_03_Waist__21_EndRToe2","scale":[0.9999999403953552,1,0.9999999403953552],"translation":[10.333771705627441,-0.00001049041748046875,-9.215476989746094]},{"children":[52],"name":"_03_Waist__22_Tail1","rotation":[0,0.18151576817035675,0,0.9833881258964539],"translation":[24.23133087158203,-0.00003576277231331915,-2.804621696472168]},{"children":[53],"name":"_03_Waist__23_Tail2","rotation":[0,1.4901161193847656e-8,0,1],"translation":[14.247392654418945,-0.00004005430673714727,0.00004220008850097656]},{"children":[54],"name":"_03_Waist__24_Tail3","rotation":[0,6.705522537231445e-8,0,1],"translation":[19.947826385498047,-0.00005626678466796875,0.00007104873657226562]},{"children":[55],"name":"_03_Waist__25_Tail4","rotation":[0,-6.705522537231445e-8,0,1],"translation":[19.01978874206543,-0.000053882598876953125,0.00009059906005859375]},{"children":[56],"name":"_03_Waist__26_Tail5","translation":[20.604686737060547,-0.00005817410419695079,0.0000553131103515625]},{"children":[57],"name":"_03_Waist__27_Tail6","translation":[13.276809692382812,-0.00003719329833984375,0.0000553131103515625]},{"name":"_03_Waist__28_EndTail6","translation":[24.742523193359375,0.0000247955322265625,0.00000286102294921875]},{"children":[59],"name":"_03_Waist__29_Spine1","rotation":[-0.5000002384185791,-0.4999997615814209,0.4999997615814209,0.5000002384185791],"translation":[94.77239227294922,47.837890625,0.0001204291038447991]},{"children":[60,67,94],"name":"_03_Waist__30_Spine2","rotation":[0,0.09789808094501495,0,0.995196521282196],"scale":[0.9999999403953552,1,0.9999999403953552],"translation":[18.2572078704834,-5.364418029785156e-7,0.0000219971188926138]},{"children":[61],"name":"_03_Waist__31_LShoulder","rotation":[0,0.7457292079925537,0,0.6662492752075195],"scale":[0.9999999403953552,1,0.9999999403953552],"translation":[28.187091827392578,-5.033884048461914,1.5198345184326172]},{"children":[62],"name":"_03_Waist__32_LArm","rotation":[0,-0.19947396218776703,0,0.9799032211303711],"scale":[0.9999999403953552,1,0.9999999403953552],"translation":[-10.054880142211914,-7.302804946899414,-2.891073226928711]},{"children":[63],"name":"_03_Waist__33_LForeArm","rotation":[0,-0.139237180352211,0,0.990259051322937],"scale":[0.9999999403953552,1,0.9999999403953552],"translation":[-27.591999053955078,0.000057220458984375,5.196147441864014]},{"children":[64,65],"name":"_03_Waist__34_LHand","rotation":[0,-0.4862062633037567,0,0.8738440871238708],"translation":[-19.51587677001953,0.00005817413330078125,17.996044158935547]},{"name":"_03_Waist__35_EndLHand","rotation":[0,2.2351741790771484e-8,0,1],"translation":[17.03871726989746,-0.0000133514404296875,0.005631446838378906]},{"children":[66],"name":"_03_Waist__36_LFinger","rotation":[0,2.2351741790771484e-8,0,1],"translation":[6.610816478729248,-0.005003929138183594,0.7300825119018555]},{"name":"_03_Waist__37_EndLFinger","translation":[12.615900039672852,-0.000011444091796875,0.004168510437011719]},{"children":[68],"name":"_03_Waist__38_Neck","rotation":[0,0.1957840472459793,0,0.9806470274925232],"translation":[36.0619010925293,-0.000014960765838623047,0.0000019073486328125]},{"children":[69,70,72,74,77,80,83,85,88,91],"name":"_03_Waist__39_Head","rotation":[0,-0.13937993347644806,0,0.9902390837669373],"translation":[18.078105926513672,-0.000020802021026611328,-0.00000762939453125]},{"name":"_03_Waist__40_EndHead","translation":[28.832313537597656,-0.0000375211238861084,0.00000762939453125]},{"children":[71],"name":"_03_Waist__41_Jaw","rotation":[0,-0.4247138798236847,0,0.9053276181221008],"scale":[0.9999999403953552,1,0.9999999403953552],"translation":[16.049579620361328,-0.00005289912223815918,8.06692123413086]},{"name":"_03_Waist__42_EndJaw","rotation":[0,-2.9802322387695312e-8,0,1],"translation":[16.57500457763672,-0.00004461407661437988,0.00000762939453125]},{"children":[73],"name":"_03_Waist__43_LEar","rotation":[0,0.7590853571891785,0,0.6509911417961121],"translation":[10.223018646240234,-4.817917346954346,-8.410636901855469]},{"name":"_03_Waist__44_EndLEar","rotation":[0,-2.980232594040899e-8,0,1],"scale":[0.9999999403953552,1,0.9999999403953552],"translation":[13.092483520507812,-12.561335563659668,1.2327461242675781]},{"children":[75],"name":"_03_Waist__45_LFeelerA1","rotation":[0,0.8335085511207581,0,0.5525066256523132],"scale":[0.9999999403953552,1,0.9999999403953552],"translation":[13.2611083984375,-10.141048431396484,12.013782501220703]},{"children":[76],"name":"_03_Waist__46_LFeelerA2","rotation":[0,0.12189003080129623,0,0.992543637752533],"translation":[-0.515899658203125,-5.010986328125,-4.6613311767578125]},{"name":"_03_Waist__47_EndLFeelerA2","translation":[0.7829017639160156,-5.315561294555664,-6.9271240234375]},{"children":[78],"name":"_03_Waist__48_LFeelerB1","rotation":[0,0.867365837097168,0,0.4976711869239807],"scale":[0.9999999403953552,1,0.9999999403953552],"translation":[14.64218521118164,-11.381235122680664,9.701953887939453]},{"children":[79],"name":"_03_Waist__49_LFeelerB2","rotation":[0,0.047606244683265686,0,0.9988662600517273],"translation":[1.3442840576171875,-4.912109375,-3.0266571044921875]},{"name":"_03_Waist__50_EndLFeelerB2","translation":[2.819744110107422,-10.864538192749023,-7.710029602050781]},{"children":[81],"name":"_03_Waist__51_LFeelerC1","rotation":[0,0.8479912877082825,0,0.5300103425979614],"translation":[14.710891723632812,-13.198625564575195,6.7205963134765625]},{"children":[82],"name":"_03_Waist__52_LFeelerC2","rotation":[0,0.07530136406421661,0,0.9971609115600586],"scale":[1.0000001192092896,1,1.0000001192092896],"translation":[1.8306026458740234,-3.9420204162597656,-2.181732177734375]},{"name":"_03_Waist__53_EndLFeelerC2","rotation":[0,1.4901161193847656e-8,0,1],"translation":[4.947303771972656,-9.218320846557617,-6.226982116699219]},{"children":[84],"name":"_03_Waist__54_REar","rotation":[0,0.7590824365615845,0,0.6509946584701538],"scale":[0.9999998211860657,1,0.9999998211860657],"translation":[10.223014831542969,4.8176589012146,-8.410648345947266]},{"name":"_03_Waist__55_EndREar","translation":[13.092288970947266,12.561208724975586,1.2329216003417969]},{"children":[86],"name":"_03_Waist__56_RFeelerA1","rotation":[0,0.8334959149360657,0,0.5525256395339966],"scale":[0.9999999403953552,1,0.9999999403953552],"translation":[13.26142692565918,10.140647888183594,12.01373291015625]},{"children":[87],"name":"_03_Waist__57_RFeelerA2","rotation":[0,0.12188544869422913,0,0.9925441741943359],"scale":[0.9999998807907104,1,0.9999998807907104],"translation":[-0.5161752700805664,5.011170387268066,-4.66119384765625]},{"name":"_03_Waist__58_EndRFeelerA2","scale":[0.9999999403953552,1,0.9999999403953552],"translation":[0.7824249267578125,5.315769195556641,-6.9270477294921875]},{"children":[89],"name":"_03_Waist__59_RFeelerB1","rotation":[0,0.86735600233078,0,0.49768832325935364],"scale":[0.9999999403953552,1,0.9999999403953552],"translation":[14.642448425292969,11.380969047546387,9.701950073242188]},{"children":[90],"name":"_03_Waist__60_RFeelerB2","rotation":[0,0.047604575753211975,0,0.9988662600517273],"translation":[1.3440704345703125,4.912247657775879,-3.0266036987304688]},{"name":"_03_Waist__61_EndRFeelerB2","translation":[2.819202423095703,10.864786148071289,-7.709877014160156]},{"children":[92],"name":"_03_Waist__62_RFeelerC1","rotation":[0,0.847985029220581,0,0.5300202369689941],"scale":[0.9999998807907104,1,0.9999998807907104],"translation":[14.711219787597656,13.198257446289062,6.7206268310546875]},{"children":[93],"name":"_03_Waist__63_RFeelerC2","rotation":[0,0.07530040293931961,0,0.9971609711647034],"translation":[1.8305511474609375,3.9420480728149414,-2.1816787719726562]},{"name":"_03_Waist__64_EndRFeelerC2","translation":[4.947021484375,9.218469619750977,-6.226966857910156]},{"children":[95],"name":"_03_Waist__65_RShoulder","rotation":[0,0.7457277774810791,0,0.6662507653236389],"translation":[28.187108993530273,5.033875942230225,1.5197830200195312]},{"children":[96],"name":"_03_Waist__66_RArm","rotation":[0,-0.19947195053100586,0,0.9799035787582397],"scale":[0.9999999403953552,1,0.9999999403953552],"translation":[-10.054826736450195,7.302850246429443,-2.891042709350586]},{"children":[97],"name":"_03_Waist__67_RForeArm","rotation":[0,-0.1392372101545334,0,0.990259051322937],"scale":[0.9999998807907104,1,0.9999998807907104],"translation":[-27.591991424560547,0.0000457763671875,5.196184158325195]},{"children":[98,99],"name":"_03_Waist__68_RHand","rotation":[0,-0.4864065647125244,0,0.8737326264381409],"translation":[-19.515777587890625,0.00003719329833984375,17.996013641357422]},{"name":"_03_Waist__69_EndRHand","rotation":[0,7.450580596923828e-9,0,1],"translation":[17.03860855102539,-0.00001811981201171875,-0.0021829605102539062]},{"children":[100],"name":"_03_Waist__70_RFinger","rotation":[0,5.960464477539063e-8,0,1],"translation":[6.611088752746582,0.012850761413574219,0.7269506454467773]},{"name":"_03_Waist__71_EndRFinger","rotation":[0,7.450580596923828e-9,0,1],"translation":[12.615911483764648,-0.00001239776611328125,-0.001613616943359375]}],"samplers":[{}],"scene":0,"scenes":[{"name":"Scene","nodes":[24,23,22,21,20,19,18,17,16,15,14,13,12,11,10,9,8,7,6,5,4,3,0,31,30]}],"skins":[{"inverseBindMatrices":0,"joints":[33,34,35,36,37,38,39,40,41,42,43,44,45,46,47,48,49,50,51,52,53,54,55,56,57,58,59,60,61,62,63,64,65,66,67,68,69,70,71,72,73,74,75,76,77,78,79,80,81,82,83,84,85,86,87,88,89,90,91,92,93,94,95,96,97,98,99,100],"skeleton":2}],"textures":[{"sampler":0,"source":0},{"sampler":0,"source":1},{"sampler":0,"source":2}],"extensionsUsed":["ALI_amc_mesh_compression"],"extensionsRequired":["ALI_amc_mesh_compression"]}