{"accessors":[{"bufferView":0,"componentType":5126,"count":83,"max":[0.0000022862495825393125,-1,0.000003619990366132697,0,0.631562352180481,0.0000036199921851221006,1.000000238418579,0,1.0000001192092896,-5.897712873625949e-13,0.631562352180481,0,50.51896286010742,53.775665283203125,3.0066182613372803,1],"min":[-0.000003619990366132697,-1.0000004768371582,-0.000003619989911385346,0,-1.000000238418579,0.000003619990366132697,-1.0000001192092896,0,-1.000000238418579,-5.89771558413138e-13,-1.000000238418579,0,-159.34609985351562,-53.77586364746094,-83.88688659667969,1],"type":"MAT4","byteOffset":0}],"asset":{"generator":"Khronos Blender glTF 2.0 exporter","version":"2.0"},"bufferViews":[{"buffer":0,"byteLength":5312,"byteOffset":0},{"buffer":0,"byteOffset":5312,"byteLength":8967},{"buffer":0,"byteOffset":14279,"byteLength":143055}],"buffers":[{"byteLength":157334,"uri":"buffer.bin"}],"images":[{"name":"pm0048_00_BodyA1","uri":"pm0048_00_BodyA1.png"},{"name":"pm0048_00_BodyB1","uri":"pm0048_00_BodyB1.png"}],"materials":[{"alphaMode":"OPAQUE","name":"BodyABuffron_HairVco","pbrMetallicRoughness":{"baseColorFactor":[0.6400000190734865,0.6400000190734865,0.6400000190734865,1],"baseColorTexture":{"index":0},"metallicFactor":0}},{"alphaMode":"OPAQUE","name":"Bug","pbrMetallicRoughness":{"baseColorFactor":[0.6400000190734865,0.6400000190734865,0.6400000190734865,1],"baseColorTexture":{"index":1},"metallicFactor":0}}],"meshes":[{"name":"Venonat","primitives":[{"material":1,"extensions":{"ALI_amc_mesh_compression":{"bufferView":1}}},{"material":0,"extensions":{"ALI_amc_mesh_compression":{"bufferView":2}}}]}],"nodes":[{"children":[1,39],"name":"_01_pm0048_00","rotation":[0.7071068286895752,0,0,0.7071067094802856],"scale":[0.02539999783039093,0.02539999969303608,0.02539999969303608]},{"children":[2],"name":"_02_Origin"},{"children":[42,43,98],"name":"_03_Waist","rotation":[-5.024286464438499e-15,0.7071080803871155,0,0.7071055173873901],"scale":[1,0.9999999403953552,1],"translation":[0,-3.0066096782684326,-44.5525016784668]},{"name":"_06_EndFeelerA","translation":[16.524599075317383,0,4.365570058229018e-11]},{"name":"_08_EndJaw","translation":[10.63329029083252,0.000007629389983776491,-1.4551899615855568e-11]},{"name":"_13_EndLFeelerB4","translation":[24.432689666748047,0,0]},{"name":"_15_EndLFeelerC","translation":[33.66910934448242,-0.000007629389983776491,0.000005722049991163658]},{"name":"_17_EndLFeelerD","translation":[11.043190002441406,-0.000007629389983776491,4.768369876728684e-7]},{"name":"_19_EndLFeelerE","translation":[10.740900039672852,0.000007629389983776491,-0.000003814699994109105]},{"name":"_21_EndLFeelerF","translation":[11.258199691772461,0,0.0000010132799843631801]},{"name":"_23_EndLFeelerG","translation":[11.068389892578125,0,0]},{"name":"_25_EndLFeelerH","translation":[9.651969909667969,0,4.768369876728684e-7]},{"name":"_27_EndLFeelerI","translation":[11.339099884033203,0.000007629389983776491,-9.536739753457368e-7]},{"name":"_29_EndLFeelerJ","translation":[10.817399978637695,0,-9.536739753457368e-7]},{"name":"_31_EndLFeelerK","translation":[10.968709945678711,0,-0.0000014305099966804846]},{"name":"_33_EndLHand","translation":[12.41819953918457,0.000003814699994109105,0]},{"name":"_38_EndRFeelerB4","translation":[24.433090209960938,0.000003814699994109105,0]},{"name":"_40_EndRFeelerC","translation":[33.669410705566406,0.00012969999806955457,0.00005054469875176437]},{"name":"_42_EndRFeelerD","translation":[11.04321002960205,-0.000007629389983776491,0.000021457699403981678]},{"name":"_44_EndRFeelerE","translation":[10.740909576416016,0.000007629389983776491,0.000018119799278792925]},{"name":"_46_EndRFeelerF","translation":[11.258299827575684,0.000007629389983776491,-0.0000010132799843631801]},{"name":"_48_EndRFeelerG","translation":[11.068490028381348,0,-0.000045776399929309264]},{"name":"_50_EndRFeelerH","translation":[9.651973724365234,0.000022888199964654632,0.000007629389983776491]},{"name":"_52_EndRFeelerI","translation":[11.339010238647461,0.00001525879997643642,0.00004529950092546642]},{"name":"_54_EndRFeelerJ","translation":[10.817399978637695,0.00007629390165675431,-0.00000667572021484375]},{"name":"_56_EndRFeelerK","translation":[10.968790054321289,0.00006103519990574569,0.000020027200662298128]},{"name":"_58_EndRHand","translation":[12.41819953918457,0.000003814699994109105,-0.00003814700176008046]},{"name":"_60_EndHips","translation":[28.203899383544922,0,1.4551899615855568e-11]},{"name":"_62_EndFeelerP","translation":[11.499199867248535,0.000007629389983776491,-2.9103799231711136e-11]},{"name":"_64_EndLFeelerL","translation":[10.371700286865234,-0.000003814699994109105,0]},{"name":"_66_EndLFeelerM","translation":[11.538200378417969,0.000003814699994109105,0.000002145769940398168]},{"name":"_68_EndLFeelerN","translation":[15.811100006103516,0,-2.98022992950564e-8]},{"name":"_70_EndLFeelerO","translation":[14.6489896774292,0,0.0000014305099966804846]},{"name":"_74_EndLToe","translation":[19.742589950561523,0,0]},{"name":"_76_EndRFeelerL","translation":[10.371700286865234,-0.00005722049900214188,-0.000004291529876354616]},{"name":"_78_EndRFeelerM","translation":[11.538290023803711,-0.00001525879997643642,0.00003623959855758585]},{"name":"_80_EndRFeelerN","translation":[15.811100006103516,0,-2.98022992950564e-8]},{"name":"_82_EndRFeelerO","translation":[14.6489896774292,-0.00003051759995287284,0.00006771089829271659]},{"name":"_86_EndRToe","translation":[19.742599487304688,0,-0.000020027200662298128]},{"name":"_87_pm0048_00_Skin"},{"name":"Camera","rotation":[0.483536034822464,0.33687159419059753,-0.20870360732078552,0.7804827094078064],"translation":[7.481131553649902,5.34366512298584,6.5076398849487305]},{"name":"Lamp","rotation":[0.16907575726509094,0.7558802962303162,-0.27217137813568115,0.570947527885437],"scale":[1,1,0.9999999403953552],"translation":[4.076245307922363,5.903861999511719,-1.0054539442062378]},{"mesh":0,"name":"Venonat","rotation":[0.49999913573265076,-0.5000008344650269,0.5000009536743164,0.4999990463256836],"scale":[1,1,1.0000001192092896],"skin":0,"translation":[-44.5525016784668,3.006610155105591,-0.00016127961862366647]},{"children":[44,46,48,53,55,57,59,61,63,65,67,69,71,73,78,80,82,84,86,88,90,92,94,96],"name":"_03_Waist__04_Head","rotation":[-0.5,-0.5000000596046448,0.5000000596046448,0.5],"scale":[0.9999999403953552,0.9999997615814209,0.9999999403953552],"translation":[-41.54589080810547,47.55912399291992,-0.00015534837439190596]},{"children":[45],"name":"_03_Waist__05_FeelerA","rotation":[0,-1.7763568394002505e-15,0,1],"translation":[53.90813064575195,0.00019741059804800898,0.0000031941203815222252]},{"name":"_03_Waist__06_EndFeelerA","rotation":[0,-1.7763568394002505e-15,0,1],"translation":[16.524614334106445,2.9103830456733704e-11,0.00000247180696533178]},{"children":[47],"name":"_03_Waist__07_Jaw","rotation":[0,0.6269561648368835,0,0.7790545225143433],"translation":[12.4635009765625,0.00024318696523550898,51.34611511230469]},{"name":"_03_Waist__08_EndJaw","translation":[-9.660703659057617,0.00004863739013671875,4.442699432373047]},{"children":[49],"name":"_03_Waist__09_LFeelerB1","rotation":[0,-1.7763568394002505e-15,0,1],"translation":[44.01631164550781,-4.786384582519531,34.02672576904297]},{"children":[50],"name":"_03_Waist__10_LFeelerB2","rotation":[0,-1.7763568394002505e-15,0,1],"translation":[15.561213493347168,0.00005817413330078125,0.000002946303993667243]},{"children":[51],"name":"_03_Waist__11_LFeelerB3","rotation":[0,-1.7763568394002505e-15,0,1],"translation":[16.944713592529297,0.0000629425048828125,0.0000022056274247006513]},{"children":[52],"name":"_03_Waist__12_LFeelerB4","rotation":[0,-1.7763568394002505e-15,0,1],"translation":[13.838702201843262,0.00005054473876953125,0.0000016007188605726697]},{"name":"_03_Waist__13_EndLFeelerB4","rotation":[0,-1.7763568394002505e-15,0,1],"translation":[24.43271255493164,0,5.32731519342633e-7]},{"children":[54],"name":"_03_Waist__14_LFeelerC","rotation":[0,0.29901301860809326,0,0.9542490243911743],"translation":[51.57514190673828,-6.059110641479492,16.942230224609375]},{"name":"_03_Waist__15_EndLFeelerC","translation":[31.97657012939453,-10.523893356323242,0.5967788696289062]},{"children":[56],"name":"_03_Waist__16_LFeelerD","rotation":[0,0.70710688829422,0,0.7071067094802856],"scale":[1,0.9999999403953552,1],"translation":[10.522850036621094,-12.149690628051758,-33.47484588623047]},{"name":"_03_Waist__17_EndLFeelerD","rotation":[0,-1.4254922575673845e-8,0,1],"translation":[10.934663772583008,-1.544393539428711,6.82740619595279e-7]},{"children":[58],"name":"_03_Waist__18_LFeelerE","rotation":[0,0.7071071863174438,0,0.707106351852417],"scale":[1,0.9999999403953552,1],"translation":[10.52291202545166,-31.717679977416992,-26.849380493164062]},{"name":"_03_Waist__19_EndLFeelerE","rotation":[0,1.8655555322766304e-8,0,1],"translation":[9.263954162597656,-5.435625076293945,0.000017059688616427593]},{"children":[60],"name":"_03_Waist__20_LFeelerF","rotation":[0,0.707108199596405,0,0.7071053981781006],"scale":[1,0.9999999403953552,1],"translation":[10.522958755493164,-42.5174560546875,2.5533344745635986]},{"name":"_03_Waist__21_EndLFeelerF","rotation":[0,-2.9792545319651254e-8,0,1],"translation":[-0.00004156927752774209,-11.258209228515625,0.000005808396963402629]},{"children":[62],"name":"_03_Waist__22_LFeelerG","rotation":[0,0.7071090936660767,0,0.7071044445037842],"scale":[1,0.9999999403953552,1],"translation":[10.522948265075684,-38.09886932373047,25.50645637512207]},{"name":"_03_Waist__23_EndLFeelerG","rotation":[0,1.0011262929765508e-8,0,1],"translation":[-5.4702677726745605,-9.622146606445312,-0.000029175658710300922]},{"children":[64],"name":"_03_Waist__24_LFeelerH","rotation":[0,0.6557053923606873,0,0.7550168633460999],"translation":[33.92863082885742,-5.777925491333008,-31.846176147460938]},{"name":"_03_Waist__25_EndLFeelerH","rotation":[0,-2.2351741790771484e-8,0,1],"translation":[9.473472595214844,-1.8476433753967285,0.01236816868185997]},{"children":[66],"name":"_03_Waist__26_LFeelerI","rotation":[0,0.6230311393737793,0,0.7821970582008362],"translation":[35.18227767944336,-24.767850875854492,-19.752708435058594]},{"name":"_03_Waist__27_EndLFeelerI","rotation":[0,1.4901161193847656e-8,0,1],"translation":[9.681132316589355,-5.895893096923828,0.2990071773529053]},{"children":[68],"name":"_03_Waist__28_LFeelerJ","rotation":[0,0.6391122937202454,0,0.7691134810447693],"translation":[37.045101165771484,-36.18187713623047,0.04655086621642113]},{"name":"_03_Waist__29_EndLFeelerJ","rotation":[0,-2.9802322387695312e-8,0,1],"translation":[3.3598814010620117,-10.101119995117188,1.9221854209899902]},{"children":[70],"name":"_03_Waist__30_LFeelerK","rotation":[0,0.6042184233665466,0,0.796818733215332],"translation":[33.928619384765625,-35.57759094238281,23.034149169921875]},{"name":"_03_Waist__31_EndLFeelerK","rotation":[0,-1.4901159417490817e-8,0,1],"scale":[1.0000001192092896,1,1.0000001192092896],"translation":[-3.7906742095947266,-9.872142791748047,2.91278076171875]},{"children":[72],"name":"_03_Waist__32_LHand","rotation":[0,-0.3351641893386841,0,0.9421597719192505],"translation":[-4.034423828125,-18.817846298217773,45.752567291259766]},{"name":"_03_Waist__33_EndLHand","rotation":[0,-5.960464477539063e-8,0,1],"translation":[1.2657279968261719,10.596306800842285,6.350442886352539]},{"children":[74],"name":"_03_Waist__34_RFeelerB1","rotation":[0,-1.7763568394002505e-15,0,1],"translation":[44.01628112792969,4.78696870803833,34.02659606933594]},{"children":[75],"name":"_03_Waist__35_RFeelerB2","rotation":[0,-1.7763568394002505e-15,0,1],"translation":[15.561251640319824,0.0000591278076171875,0.000002946303538919892]},{"children":[76],"name":"_03_Waist__36_RFeelerB3","rotation":[0,-1.7763568394002505e-15,0,1],"translation":[16.944995880126953,0.00006103515625,-0.0000054237798394751735]},{"children":[77],"name":"_03_Waist__37_RFeelerB4","rotation":[0,-1.7763568394002505e-15,0,1],"translation":[13.83801555633545,0.0000514984130859375,0.000009230130672222003]},{"name":"_03_Waist__38_EndRFeelerB4","rotation":[0,-1.7763568394002505e-15,0,1],"translation":[24.433109283447266,0,0.000008162125595845282]},{"children":[79],"name":"_03_Waist__39_RFeelerC","rotation":[0,0.29901403188705444,0,0.9542487263679504],"translation":[51.57508087158203,6.0596137046813965,16.942176818847656]},{"name":"_03_Waist__40_EndRFeelerC","scale":[0.9999999403953552,0.9999998807907104,0.9999999403953552],"translation":[31.976850509643555,10.523977279663086,0.5968666076660156]},{"children":[81],"name":"_03_Waist__41_RFeelerD","rotation":[0,0.7071070671081543,0,0.7071065902709961],"scale":[1,0.9999999403953552,1],"translation":[10.522758483886719,12.149511337280273,-33.47503662109375]},{"name":"_03_Waist__42_EndRFeelerD","rotation":[0,-8.054513500610483e-9,0,1],"translation":[10.934699058532715,1.5442943572998047,-0.000002107710315613076]},{"children":[83],"name":"_03_Waist__43_RFeelerE","rotation":[0,0.7071077823638916,0,0.7071057558059692],"scale":[1,0.9999997615814209,1],"translation":[10.522683143615723,31.717533111572266,-26.849618911743164]},{"name":"_03_Waist__44_EndRFeelerE","rotation":[0,6.12180883763358e-9,0,1],"translation":[9.264013290405273,5.435548782348633,-2.8302201826591045e-7]},{"children":[85],"name":"_03_Waist__45_RFeelerF","rotation":[0,0.7071106433868408,0,0.7071029543876648],"scale":[1,0.9999999403953552,1],"translation":[10.522649765014648,42.51756286621094,2.553006410598755]},{"name":"_03_Waist__46_EndRFeelerF","rotation":[0,-7.45558281778358e-9,0,1],"translation":[0.00004131387686356902,11.258308410644531,-0.00006639902130700648]},{"children":[87],"name":"_03_Waist__47_RFeelerG","rotation":[0,0.70711350440979,0,0.7071000337600708],"scale":[1,0.9999999403953552,1],"translation":[10.522673606872559,38.09913635253906,25.506174087524414]},{"name":"_03_Waist__48_EndRFeelerG","rotation":[0,-2.4040673451963812e-8,0,1],"translation":[-5.470284938812256,9.622249603271484,-0.00016636529471725225]},{"children":[89],"name":"_03_Waist__49_RFeelerH","rotation":[0,0.6557055711746216,0,0.7550167441368103],"translation":[33.928462982177734,5.777934551239014,-31.84621810913086]},{"name":"_03_Waist__50_EndRFeelerH","rotation":[0,-7.450580596923828e-9,0,1],"scale":[1,1.0000001192092896,1],"translation":[9.473488807678223,1.8475770950317383,0.012390520423650742]},{"children":[91],"name":"_03_Waist__51_RFeelerI","rotation":[0,0.6230318546295166,0,0.7821965217590332],"translation":[35.18210983276367,24.767959594726562,-19.75289535522461]},{"name":"_03_Waist__52_EndRFeelerI","rotation":[0,-2.9802322387695312e-8,0,1],"translation":[9.681108474731445,5.895761489868164,0.2989673614501953]},{"children":[93],"name":"_03_Waist__53_RFeelerJ","rotation":[0,0.6391140818595886,0,0.7691119313240051],"scale":[1,0.9999998211860657,1],"translation":[37.04484176635742,36.1821403503418,0.04626857861876488]},{"name":"_03_Waist__54_EndRFeelerJ","rotation":[0,-1.4901162970204496e-8,0,1],"scale":[0.9999999403953552,1,0.9999999403953552],"translation":[3.3599472045898438,10.101097106933594,1.9222030639648438]},{"children":[95],"name":"_03_Waist__55_RFeelerK","rotation":[0,0.604223370552063,0,0.796815037727356],"translation":[33.928375244140625,35.578025817871094,23.033782958984375]},{"name":"_03_Waist__56_EndRFeelerK","translation":[-3.7906436920166016,9.872261047363281,2.9127159118652344]},{"children":[97],"name":"_03_Waist__57_RHand","rotation":[0,-0.335167795419693,0,0.9421584606170654],"translation":[-4.034572601318359,18.818248748779297,45.7524299621582]},{"name":"_03_Waist__58_EndRHand","rotation":[0,-1.4901161193847656e-8,0,1],"scale":[1,1.0000001192092896,1],"translation":[1.2658939361572266,-10.596293449401855,6.350427627563477]},{"children":[99,100,102,104,106,108,110,114,116,118,120,122],"name":"_03_Waist__59_Hips","rotation":[-0.5,0.5000000596046448,-0.5000000596046448,0.5],"scale":[1,0.9999999403953552,1],"translation":[-41.545894622802734,30.3320255279541,-0.00009168589167529717]},{"name":"_03_Waist__60_EndHips","translation":[28.203903198242188,-5.959736881777644e-8,-9.302318204618132e-8]},{"children":[101],"name":"_03_Waist__61_FeelerP","rotation":[0,-0.6076553463935852,0,0.7942008376121521],"scale":[0.9999999403953552,1,0.9999999403953552],"translation":[0.000016813604815979488,0.0001407563831890002,-37.6591911315918]},{"name":"_03_Waist__62_EndFeelerP","translation":[-9.926399230957031,0.000038743019104003906,-5.805008888244629]},{"children":[103],"name":"_03_Waist__63_LFeelerL","rotation":[0,-0.6148772835731506,0,0.7886229157447815],"scale":[0.9999999403953552,1,0.9999999403953552],"translation":[-3.1614298820495605,-6.784849643707275,29.81546974182129]},{"name":"_03_Waist__64_EndLFeelerL","rotation":[0,-7.450580596923828e-9,0,1],"translation":[10.27949333190918,-1.3797354698181152,-0.023870021104812622]},{"children":[105],"name":"_03_Waist__65_LFeelerM","rotation":[0,-0.5787065029144287,0,0.8155359029769897],"translation":[-3.161452531814575,-25.61838722229004,22.98580551147461]},{"name":"_03_Waist__66_EndLFeelerM","translation":[8.962061882019043,-7.221715927124023,-0.8113596439361572]},{"children":[107],"name":"_03_Waist__67_LFeelerN","rotation":[0,-0.7071070671081543,0,0.7071065902709961],"translation":[-3.1614551544189453,-34.203895568847656,-2.5532889366149902]},{"name":"_03_Waist__68_EndLFeelerN","rotation":[0,-2.9794620104439673e-8,0,1],"translation":[-0.00005615218833554536,-15.811103820800781,0.00007350390660576522]},{"children":[109],"name":"_03_Waist__69_LFeelerO","rotation":[0,-0.6363592743873596,0,0.771392822265625],"translation":[-3.161454200744629,-27.82190704345703,-25.689306259155273]},{"name":"_03_Waist__70_EndLFeelerO","rotation":[0,1.4901161193847656e-8,0,1],"translation":[-5.427603244781494,-12.444414138793945,-5.501884460449219]},{"children":[111],"name":"_03_Waist__71_LThigh","translation":[-9.512750625610352,-13.419002532958984,1.1695882081985474]},{"children":[112],"name":"_03_Waist__72_LFoot","rotation":[0,-0.7071101069450378,0,0.707103431224823],"translation":[30.969707489013672,-0.00003719329833984375,-3.879416681229486e-7]},{"children":[113],"name":"_03_Waist__73_LToe","rotation":[0,2.040605977526866e-7,0,1],"translation":[-19.913917541503906,-10.267433166503906,0.0002797755878418684]},{"name":"_03_Waist__74_EndLToe","translation":[-17.547531127929688,-9.047342300415039,0.0002396940835751593]},{"children":[115],"name":"_03_Waist__75_RFeelerL","rotation":[0,-0.6148772835731506,0,0.7886227965354919],"translation":[-3.1614413261413574,6.78463077545166,29.815622329711914]},{"name":"_03_Waist__76_EndRFeelerL","rotation":[0,2.9802322387695312e-8,0,1],"scale":[1,0.9999999403953552,1],"translation":[10.279498100280762,1.379652500152588,-0.023923426866531372]},{"children":[117],"name":"_03_Waist__77_RFeelerM","rotation":[0,-0.5787063837051392,0,0.8155359625816345],"translation":[-3.1614296436309814,25.618221282958984,22.985990524291992]},{"name":"_03_Waist__78_EndRFeelerM","rotation":[0,2.9802322387695312e-8,0,1],"translation":[8.962211608886719,7.221681594848633,-0.8113694190979004]},{"children":[119],"name":"_03_Waist__79_RFeelerN","rotation":[0,-0.7071064710617065,0,0.7071070671081543],"translation":[-3.161428451538086,34.20391082763672,-2.5530333518981934]},{"name":"_03_Waist__80_EndRFeelerN","rotation":[0,-3.524291969370097e-12,0,1],"translation":[0.00005978888657409698,15.811103820800781,0.000043309682951075956]},{"children":[121],"name":"_03_Waist__81_RFeelerO","rotation":[0,-0.6363576054573059,0,0.7713943123817444],"scale":[0.9999999403953552,1,0.9999999403953552],"translation":[-3.1614274978637695,27.822107315063477,-25.6890926361084]},{"name":"_03_Waist__82_EndRFeelerO","rotation":[0,2.2351741790771484e-8,0,1],"translation":[-5.427397727966309,12.444477081298828,-5.501931190490723]},{"children":[123],"name":"_03_Waist__83_RThigh","translation":[-9.512739181518555,13.419000625610352,1.1696873903274536]},{"children":[124],"name":"_03_Waist__84_RFoot","rotation":[0,-0.7071061134338379,0,0.7071074843406677],"translation":[30.96971321105957,-0.00003147125244140625,0.0000034267563933099154]},{"children":[125],"name":"_03_Waist__85_RToe","rotation":[0,-3.7815993891854305e-7,0,1],"translation":[-19.913789749145508,10.267668724060059,0.0000380361161660403]},{"name":"_03_Waist__86_EndRToe","translation":[-17.547470092773438,9.04747200012207,0.00004322536551626399]}],"samplers":[{}],"scene":0,"scenes":[{"name":"Scene","nodes":[38,37,36,35,34,33,32,31,30,29,28,27,26,25,24,23,22,21,20,19,18,17,16,15,14,13,12,11,10,9,8,7,6,5,4,3,0,41,40]}],"skins":[{"inverseBindMatrices":0,"joints":[43,44,45,46,47,48,49,50,51,52,53,54,55,56,57,58,59,60,61,62,63,64,65,66,67,68,69,70,71,72,73,74,75,76,77,78,79,80,81,82,83,84,85,86,87,88,89,90,91,92,93,94,95,96,97,98,99,100,101,102,103,104,105,106,107,108,109,110,111,112,113,114,115,116,117,118,119,120,121,122,123,124,125],"skeleton":2}],"textures":[{"sampler":0,"source":0},{"sampler":0,"source":1}],"extensionsUsed":["ALI_amc_mesh_compression"],"extensionsRequired":["ALI_amc_mesh_compression"]}