{"accessors":[{"bufferView":0,"componentType":5126,"count":79,"max":[0.00001634436375752557,-1,0.00001634375257708598,0,1,2.8213398195475747e-7,0.9999997615814209,0,1,0.000016343865354429,0.9999999403953552,0,76.27657318115234,55.98283386230469,156.85519409179688,1],"min":[-0.00001634389082028065,-1.0000001192092896,-0.00001495716605859343,0,-0.9100691080093384,2.0080203455563606e-7,-1.0000001192092896,0,-0.9999997019767761,0.00001634374712011777,-0.9100690484046936,0,-236.33364868164062,-55.982627868652344,-173.66064453125,1],"type":"MAT4","byteOffset":0}],"asset":{"generator":"Khronos Blender glTF 2.0 exporter","version":"2.0"},"bufferViews":[{"buffer":0,"byteLength":5056,"byteOffset":0},{"buffer":0,"byteOffset":5056,"byteLength":132213},{"buffer":0,"byteOffset":137269,"byteLength":4735},{"buffer":0,"byteOffset":142004,"byteLength":4735},{"buffer":0,"byteOffset":146739,"byteLength":68971}],"buffers":[{"byteLength":215710,"uri":"buffer.bin"}],"images":[{"name":"pm0059_00_BodyA1","uri":"pm0059_00_BodyA1.png"},{"name":"pm0059_00_Eye1","uri":"pm0059_00_Eye1.png"},{"name":"pm0059_00_BodyB1","uri":"pm0059_00_BodyB1.png"},{"name":"pm0059_00_Iris1","uri":"pm0059_00_Iris1.png"}],"materials":[{"alphaMode":"OPAQUE","name":"Material__35","pbrMetallicRoughness":{"baseColorFactor":[0.6400000190734865,0.6400000190734865,0.6400000190734865,1],"baseColorTexture":{"index":0},"metallicFactor":0}},{"alphaMode":"OPAQUE","name":"Material__36","pbrMetallicRoughness":{"baseColorFactor":[0.6400000190734865,0.6400000190734865,0.6400000190734865,1],"baseColorTexture":{"index":1},"metallicFactor":0}},{"alphaMode":"OPAQUE","name":"Material__37","pbrMetallicRoughness":{"baseColorFactor":[0.6400000190734865,0.6400000190734865,0.6400000190734865,1],"baseColorTexture":{"index":2},"metallicFactor":0}},{"alphaMode":"MASK","name":"Material__38","pbrMetallicRoughness":{"baseColorFactor":[0.6400000190734865,0.6400000190734865,0.6400000190734865,1],"baseColorTexture":{"index":3},"metallicFactor":0}}],"meshes":[{"name":"Arcanine","primitives":[{"material":0,"extensions":{"ALI_amc_mesh_compression":{"bufferView":1}}},{"material":1,"extensions":{"ALI_amc_mesh_compression":{"bufferView":2}}},{"material":3,"extensions":{"ALI_amc_mesh_compression":{"bufferView":3}}},{"material":2,"extensions":{"ALI_amc_mesh_compression":{"bufferView":4}}}]}],"nodes":[{"mesh":0,"name":"Arcanine","rotation":[-0.4946278929710388,-0.505323052406311,-0.4946196973323822,0.5053149461746216],"scale":[1,1,0.9999999403953552],"skin":0,"translation":[8.128705024719238,89.18335723876953,-0.0014564302982762456]},{"name":"Camera","rotation":[0.483536034822464,0.33687159419059753,-0.20870360732078552,0.7804827094078064],"translation":[7.481131553649902,5.34366512298584,6.5076398849487305]},{"name":"EndFeelerA3","translation":[44.7976188659668,0.000007629389983776491,0.000001999989990508766]},{"name":"EndHairA","translation":[42.3053092956543,0.00003051759995287284,-0.000007999969966476783]},{"name":"EndHairC","translation":[42.91579818725586,-0.000045776399929309264,-0.0000010000200063586817]},{"name":"EndHairD","translation":[34.88814926147461,-0.000007629389983776491,-0.000002999980097229127]},{"name":"EndHead","translation":[107.81500244140625,0,-9.999199619414867e-7]},{"name":"EndHips","translation":[66.03138732910156,-0.00001525879997643642,-9.536739753457368e-7]},{"name":"EndJaw","translation":[58.576690673828125,0,0.0000029999901016708463]},{"name":"EndLEar","translation":[37.45429992675781,-0.000003814699994109105,0.00003051759995287284]},{"name":"EndLFeelerA","translation":[44.7976188659668,-0.000007629389983776491,0.00001525879997643642]},{"name":"EndLFeelerB2","translation":[37.63882064819336,0,0.000003814699994109105]},{"name":"EndLFeelerC2","translation":[57.689910888671875,0.000007629389983776491,-0.000005722049991163658]},{"name":"EndLFingerA","translation":[23.157119750976562,-0.0000023841901111154584,0]},{"name":"EndLFoot","translation":[28.06719970703125,0.000005722049991163658,0]},{"name":"EndLHairB","translation":[32.71390914916992,-0.00001525879997643642,-0.00003051759995287284]},{"name":"EndLHand","translation":[21.161319732666016,-0.0000028610199933609692,-0.0000019073499970545527]},{"name":"EndLToe","translation":[33.09170913696289,-9.536739753457368e-7,-0.0000019073499970545527]},{"name":"EndLToeA","translation":[25.67259979248047,-9.536739753457368e-7,-0.000003814699994109105]},{"name":"EndREar","translation":[37.454429626464844,0.00001525879997643642,0.00003051759995287284]},{"name":"EndRFeelerA","translation":[44.79764175415039,-0.00005340580173651688,-0.00001525879997643642]},{"name":"EndRFeelerB2","translation":[37.63880157470703,-0.00003814700176008046,0]},{"name":"EndRFeelerC2","translation":[57.69002151489258,0.000011444099982327316,-0.000003814699994109105]},{"name":"EndRFingerA","translation":[23.1571102142334,0,0.0000019073499970545527]},{"name":"EndRFoot","translation":[28.067209243774414,0.000007629389983776491,-0.0000019073499970545527]},{"name":"EndRHairB","translation":[32.71379089355469,0.000007629389983776491,0.00001525879997643642]},{"name":"EndRHand","translation":[21.161300659179688,0.0000028610199933609692,-0.000003814699994109105]},{"name":"EndRToe","translation":[33.09170913696289,0.000003814699994109105,0]},{"name":"EndRToeA","translation":[25.672609329223633,-9.536739753457368e-7,0]},{"name":"EndTail5","translation":[61.53498840332031,0,0.000003993509835709119]},{"name":"EnvironmentAmbientLight","scale":[0.02539999969303608,0.02539999969303608,0.02539999969303608]},{"name":"FeelerA1","rotation":[-9.242770033779379e-7,-2.3495670120610157e-7,0.2463701069355011,0.9691758155822754],"translation":[40.42578887939453,0.00001525879997643642,-5.820770254683083e-11]},{"name":"Lamp","rotation":[0.16907575726509094,0.7558802962303162,-0.27217137813568115,0.570947527885437],"scale":[1,1,0.9999999403953552],"translation":[4.076245307922363,5.903861999511719,-1.0054539442062378]},{"children":[37],"name":"Origin"},{"children":[33,35,36],"name":"pm0059_00","rotation":[0.7071065902709961,0,0,0.7071069478988647],"scale":[0.02539999969303608,0.02539999969303608,0.02539999969303608]},{"name":"pm0059_00_BodySkin"},{"name":"pm0059_00_IrisSkin"},{"children":[0,38,68],"name":"Waist","rotation":[0.4946279227733612,0.505323052406311,0.494619756937027,0.5053149461746216],"scale":[0.9999999403953552,0.9999999403953552,1],"translation":[0,-10.034399032592773,-88.98909759521484]},{"children":[39,40,51,62],"name":"Waist_Hips","rotation":[-0.5051414966583252,0.4948051869869232,-0.4948051869869232,0.5051414966583252],"translation":[97.31208801269531,81.05462646484375,-0.0006263075629249215]},{"name":"Waist_EndHips","translation":[66.0313720703125,-0.0006275177001953125,0.046964555978775024]},{"children":[41],"name":"Waist_LThigh","rotation":[0,-0.6430001854896545,0,0.7658661603927612],"scale":[0.9999998807907104,1,0.9999998807907104],"translation":[26.537145614624023,-22.34941864013672,-8.371145248413086]},{"children":[42],"name":"Waist_LLeg","rotation":[0,0.29902777075767517,0,0.9542444348335266],"scale":[0.9999999403953552,1,0.9999999403953552],"translation":[-27.678386688232422,-2.545085906982422,-10.111985206604004]},{"children":[43,44,47],"name":"Waist_LFoot","rotation":[0,-0.9232516288757324,0,0.38419613242149353],"scale":[1.0000001192092896,1,1.0000001192092896],"translation":[-0.11555767059326172,-1.5723133087158203,-25.315950393676758]},{"name":"Waist_EndLFoot","rotation":[0,-4.6566128730773926e-8,0,1],"translation":[28.067201614379883,0.000095367431640625,-0.002287149429321289]},{"children":[45],"name":"Waist_LFeelerC1","rotation":[0,0.9815900325775146,0,0.19100037217140198],"translation":[-16.242162704467773,-1.1762733459472656,0.5016521215438843]},{"children":[46],"name":"Waist_LFeelerC2","rotation":[0,-0.006963005755096674,0,0.999975860118866],"translation":[25.98407745361328,-0.000133514404296875,-0.000007152557373046875]},{"name":"Waist_EndLFeelerC2","translation":[57.68992614746094,-0.0002613067626953125,-0.00000762939453125]},{"children":[48,49],"name":"Waist_LToe","rotation":[0,0.04146753251552582,0,0.9991399049758911],"scale":[0.9999998807907104,1,0.9999998807907104],"translation":[-3.235006809234619,-1.1262397766113281,18.269983291625977]},{"name":"Waist_EndLToe","rotation":[0,-5.587935447692871e-9,0,1],"translation":[32.97813034057617,0.0001125335693359375,2.739428758621216]},{"children":[50],"name":"Waist_LToeA","rotation":[0,-5.587935447692871e-9,0,1],"translation":[16.57518196105957,0.024969100952148438,11.11972427368164]},{"name":"Waist_EndLToeA","translation":[25.584487915039062,0.00008392333984375,2.1252498626708984]},{"children":[52],"name":"Waist_RThigh","rotation":[0,-0.6428264379501343,0,0.7660118937492371],"scale":[0.9999998807907104,1,0.9999998807907104],"translation":[26.536714553833008,22.764541625976562,-7.167359352111816]},{"children":[53],"name":"Waist_RLeg","rotation":[0,0.2990255057811737,0,0.9542452096939087],"translation":[-27.673690795898438,2.544862747192383,-10.124564170837402]},{"children":[54,55,58],"name":"Waist_RFoot","rotation":[0,-0.9233055710792542,0,0.3840663731098175],"scale":[1,0.9999999403953552,1],"translation":[-0.10419750213623047,1.5718975067138672,-25.3160343170166]},{"name":"Waist_EndRFoot","rotation":[0,2.3283064365386963e-8,0,1],"translation":[28.06720733642578,0.000118255615234375,0.0024209022521972656]},{"children":[56],"name":"Waist_RFeelerC1","rotation":[0,0.9815739989280701,0,0.1910829246044159],"translation":[-16.242246627807617,1.1856498718261719,0.475883424282074]},{"children":[57],"name":"Waist_RFeelerC2","rotation":[0,-0.006963049992918968,0,0.9999758005142212],"scale":[0.9999999403953552,1,0.9999999403953552],"translation":[25.9841251373291,-0.0002994537353515625,0.000021457672119140625]},{"name":"Waist_EndRFeelerC2","rotation":[0,-2.9802322387695312e-8,0,1],"translation":[57.69001770019531,-0.0006656646728515625,0.0000133514404296875]},{"children":[59,60],"name":"Waist_RToe","rotation":[0,-0.0007651804480701685,0,0.9999997019767761],"scale":[0.9999999403953552,1,0.9999999403953552],"translation":[-3.2380969524383545,1.48187255859375,18.24391746520996]},{"name":"Waist_EndRToe","rotation":[-3.0499499814595765e-8,0,-2.840487600053609e-17,1],"translation":[33.091670989990234,0.000148773193359375,-0.04777252674102783]},{"children":[61],"name":"Waist_RToeA","rotation":[-4.066600212127014e-8,0,-6.562874802797363e-17,1],"translation":[17.45280647277832,-0.06093597412109375,9.684080123901367]},{"name":"Waist_EndRToeA","rotation":[2.795788134335453e-8,-9.313225746154785e-10,-1.0117586870548453e-17,1],"translation":[25.672584533691406,0.00011391996667953208,-0.03705974668264389]},{"children":[63],"name":"Waist_Tail1","rotation":[0,0.3855345845222473,0,0.9226933717727661],"translation":[39.58317947387695,-0.1705789566040039,6.406798362731934]},{"children":[64],"name":"Waist_Tail2","rotation":[0,-0.06034838780760765,0,0.9981774091720581],"scale":[0.9999999403953552,1,0.9999999403953552],"translation":[0.9535837173461914,-0.00020503997802734375,32.879150390625]},{"children":[65],"name":"Waist_Tail3","rotation":[0,-0.5221415758132935,0,0.8528589606285095],"translation":[11.20813274383545,-0.0003032684326171875,40.4138069152832]},{"children":[66],"name":"Waist_Tail4","rotation":[0,-0.0342792272567749,0,0.9994122982025146],"translation":[21.017135620117188,-0.0003414154052734375,-26.3317928314209]},{"children":[67],"name":"Waist_Tail5","rotation":[0,0.025318259373307228,0,0.999679446220398],"translation":[18.404903411865234,-0.00035668909549713135,-30.950904846191406]},{"name":"Waist_EndTail5","rotation":[0,-1.4901161193847656e-8,0,1],"translation":[36.637718200683594,-0.0006217807531356812,-49.43922424316406]},{"children":[69],"name":"Waist_Spine1","rotation":[-0.5000002384185791,-0.4999997615814209,0.4999997615814209,0.5000002384185791],"translation":[97.31208801269531,81.05462646484375,-0.0006256448687054217]},{"children":[70,78,88,107],"name":"Waist_Spine2","rotation":[0,0.2461833506822586,0,0.9692232608795166],"translation":[23.59170150756836,0.0001895129680633545,0.0000036715500755235553]},{"children":[71],"name":"Waist_FeelerA1","rotation":[0,-0.24636997282505035,0,0.9691758751869202],"scale":[0.9999999403953552,1,0.9999999403953552],"translation":[40.42579650878906,0.00030606973450630903,0.000011444091796875]},{"children":[72,74,76],"name":"Waist_FeelerA2","rotation":[0,0.6251544952392578,0,0.7805010676383972],"translation":[17.558378219604492,0.0001304149627685547,0.0000013709068298339844]},{"children":[73],"name":"Waist_FeelerA3","rotation":[0,0.15343651175498962,0,0.9881585240364075],"translation":[-26.257465362548828,-0.000015437719412148,12.394983291625977]},{"name":"Waist_EndFeelerA3","rotation":[0,1.4901161193847656e-8,0,1],"translation":[-44.11234664916992,-0.00015759479720145464,-7.805654525756836]},{"children":[75],"name":"Waist_LFeelerA","rotation":[0,0.49706757068634033,0,0.8677118420600891],"translation":[-10.831523895263672,-18.892297744750977,4.616914749145508]},{"name":"Waist_EndLFeelerA","translation":[14.077930450439453,-36.75386047363281,-21.396072387695312]},{"children":[77],"name":"Waist_RFeelerA","rotation":[0,0.49707654118537903,0,0.8677067160606384],"scale":[0.9999998807907104,1,0.9999998807907104],"translation":[-10.831680297851562,18.892274856567383,4.616598129272461]},{"name":"Waist_EndRFeelerA","rotation":[0,1.4901161193847656e-8,0,1],"translation":[14.078800201416016,36.75334167480469,-21.39643096923828]},{"children":[79],"name":"Waist_LShoulder","rotation":[0,0.5212944149971008,0,0.8533769249916077],"translation":[29.78414535522461,-18.615854263305664,5.592201232910156]},{"children":[80],"name":"Waist_LArm","rotation":[0,0.037857186049222946,0,0.9992831945419312],"translation":[-19.07062530517578,-10.318370819091797,-1.8313848972320557]},{"children":[81,84],"name":"Waist_LForeArm","rotation":[0,-0.0730554461479187,0,0.9973278641700745],"scale":[0.9999999403953552,1,0.9999999403953552],"translation":[-30.746992111206055,-0.0001506805419921875,-6.178456783294678]},{"children":[82],"name":"Waist_LFeelerB1","rotation":[0,0.49589166045188904,0,0.8683844208717346],"scale":[0.9999998807907104,1,0.9999998807907104],"translation":[-18.634523391723633,-0.0000438690185546875,1.244746208190918]},{"children":[83],"name":"Waist_LFeelerB2","rotation":[0,-5.960464477539063e-8,0,1],"translation":[11.725685119628906,-0.0001068115234375,-0.00000762939453125]},{"name":"Waist_EndLFeelerB2","translation":[37.63882064819336,-0.0003070831298828125,0.00000762939453125]},{"children":[85,86],"name":"Waist_LHand","rotation":[0,-0.6976965069770813,0,0.7163934707641602],"translation":[-35.05507278442383,-0.000080108642578125,3.3112401962280273]},{"name":"Waist_EndLHand","rotation":[0,-1.955777406692505e-8,0,1],"translation":[21.161300659179688,0.000118255615234375,0.015684843063354492]},{"children":[87],"name":"Waist_LFingerA","rotation":[0,-0.00125100277364254,0,0.9999992251396179],"scale":[0.9999999403953552,1,0.9999999403953552],"translation":[12.187801361083984,0.1202392578125,7.837885856628418]},{"name":"Waist_EndLFingerA","rotation":[0,1.862645149230957e-9,0,1],"translation":[23.15709114074707,0.0001354217529296875,-0.04077434539794922]},{"children":[89],"name":"Waist_Neck","rotation":[0,0.36599671840667725,0,0.9306161403656006],"translation":[40.425758361816406,0.00030606973450630903,0.000057220458984375]},{"children":[90,91,93,95,97,99,101,103,105],"name":"Waist_Head","rotation":[0,0.1506848931312561,0,0.9885819554328918],"translation":[19.880844116210938,0.0000843702582642436,0.000003814697265625]},{"name":"Waist_EndHead","rotation":[0,-5.587935447692871e-9,0,1],"translation":[107.81501007080078,0.00022032856941223145,-0.000002384185791015625]},{"children":[92],"name":"Waist_HairA","rotation":[0,0.39727628231048584,0,0.9176990389823914],"scale":[1.0000001192092896,1,1.0000001192092896],"translation":[47.30028533935547,0.00018575787544250488,11.848974227905273]},{"name":"Waist_EndHairA","translation":[42.30533218383789,-0.00016620766837149858,0.000030517578125]},{"children":[94],"name":"Waist_HairC","rotation":[0,0.7732982039451599,0,0.6340425610542297],"scale":[1,0.9999999403953552,1],"translation":[19.74066925048828,-0.00011724233627319336,-20.82649803161621]},{"name":"Waist_EndHairC","rotation":[0,-1.4901161193847656e-8,0,1],"translation":[42.915802001953125,-0.00030618906021118164,-0.0000247955322265625]},{"children":[96],"name":"Waist_HairD","rotation":[0,-0.9772593379020691,0,0.21204786002635956],"translation":[-9.48556900024414,0.0001526474952697754,22.75547981262207]},{"name":"Waist_EndHairD","rotation":[0,-1.4901161193847656e-8,0,1],"translation":[34.888153076171875,-0.00002044450957328081,-0.00000762939453125]},{"children":[98],"name":"Waist_Jaw","rotation":[0,-0.7831631898880005,0,0.6218162775039673],"translation":[17.984352111816406,0.00009635090827941895,7.910988807678223]},{"name":"Waist_EndJaw","rotation":[0,7.450580596923828e-9,0,1],"translation":[58.57670593261719,0.0003599822521209717,0.00003814697265625]},{"children":[100],"name":"Waist_LEar","rotation":[0,0.12496710568666458,0,0.9921609163284302],"translation":[30.375699996948242,-25.201406478881836,17.163780212402344]},{"name":"Waist_EndLEar","rotation":[0,7.450580596923828e-9,0,1],"translation":[17.389713287353516,-30.78117561340332,-12.366992950439453]},{"children":[102],"name":"Waist_LHairB","rotation":[0,0.29727089405059814,0,0.9547932147979736],"scale":[1.0000001192092896,1,1.0000001192092896],"translation":[11.557609558105469,-20.568315505981445,-4.326976776123047]},{"name":"Waist_EndLHairB","translation":[10.07491683959961,-26.926057815551758,-15.6103515625]},{"children":[104],"name":"Waist_REar","rotation":[0,0.12497211992740631,0,0.9921603202819824],"translation":[30.37533950805664,25.201793670654297,17.16339111328125]},{"name":"Waist_EndREar","rotation":[0,7.450580596923828e-9,0,1],"translation":[17.389934539794922,30.781085968017578,-12.367279052734375]},{"children":[106],"name":"Waist_RHairB","rotation":[0,0.29727834463119507,0,0.9547908902168274],"translation":[11.557311058044434,20.568281173706055,-4.327367782592773]},{"name":"Waist_EndRHairB","rotation":[0,-1.4901161193847656e-8,0,1],"translation":[10.075252532958984,26.92569923400879,-15.610519409179688]},{"children":[108],"name":"Waist_RShoulder","rotation":[0,0.5213202238082886,0,0.8533611297607422],"translation":[29.783843994140625,18.61632537841797,5.592166900634766]},{"children":[109],"name":"Waist_RArm","rotation":[0,0.037827156484127045,0,0.9992843270301819],"translation":[-19.070480346679688,10.318193435668945,-1.8327302932739258]},{"children":[110,113],"name":"Waist_RForeArm","rotation":[0,-0.07305543124675751,0,0.9973279237747192],"translation":[-30.74698829650879,-0.0000457763671875,-6.178424835205078]},{"children":[111],"name":"Waist_RFeelerB1","rotation":[0,0.49589118361473083,0,0.8683847188949585],"translation":[-18.634532928466797,0.00000762939453125,1.2446446418762207]},{"children":[112],"name":"Waist_RFeelerB2","rotation":[0,1.341104507446289e-7,0,1],"translation":[11.725719451904297,-0.0000209808349609375,0.000049591064453125]},{"name":"Waist_EndRFeelerB2","translation":[37.6388053894043,-0.0001068115234375,-0.00006866455078125]},{"children":[114,115],"name":"Waist_RHand","rotation":[0,-0.6981009840965271,0,0.7159993052482605],"scale":[0.9999999403953552,1,0.9999999403953552],"translation":[-35.05506134033203,-0.00000762939453125,3.31111478805542]},{"name":"Waist_EndRHand","rotation":[0,-7.450581485102248e-9,0,1],"scale":[0.9999999403953552,1,0.9999999403953552],"translation":[21.161300659179688,0.00011444091796875,-0.008201360702514648]},{"children":[116],"name":"Waist_RFingerA","rotation":[0,0.00037132957368157804,0,0.9999999403953552],"scale":[0.9999998807907104,1,0.9999998807907104],"translation":[12.196749687194824,-0.22621726989746094,7.82177734375]},{"name":"Waist_EndRFingerA","rotation":[0,9.313225746154785e-10,0,1],"translation":[23.157093048095703,0.0001316070556640625,0.0082244873046875]}],"samplers":[{}],"scene":0,"scenes":[{"name":"Scene","nodes":[23,26,21,25,19,15,9,8,5,4,3,6,13,16,11,20,10,2,31,29,28,27,22,24,18,17,12,14,7,34,30,32,1]}],"skins":[{"inverseBindMatrices":0,"joints":[38,39,40,41,42,43,44,45,46,47,48,49,50,51,52,53,54,55,56,57,58,59,60,61,62,63,64,65,66,67,68,69,70,71,72,73,74,75,76,77,78,79,80,81,82,83,84,85,86,87,88,89,90,91,92,93,94,95,96,97,98,99,100,101,102,103,104,105,106,107,108,109,110,111,112,113,114,115,116],"skeleton":37}],"textures":[{"sampler":0,"source":0},{"sampler":0,"source":1},{"sampler":0,"source":2},{"sampler":0,"source":3}],"extensionsUsed":["ALI_amc_mesh_compression"],"extensionsRequired":["ALI_amc_mesh_compression"]}