{"accessors":[{"bufferView":0,"componentType":5126,"count":23,"max":[1,0,7.105427357601002e-15,0,7.1054265105680546e-15,0,1,0,0,-1,0,0,38.25093460083008,0,31.127229690551758,1],"min":[1,0,-7.1054265105680546e-15,0,-7.105427357601002e-15,0,1,0,0,-1,0,0,-32.693641662597656,-87.22132873535156,-39.700443267822266,1],"type":"MAT4","byteOffset":0}],"asset":{"generator":"Khronos Blender glTF 2.0 exporter","version":"2.0"},"bufferViews":[{"buffer":0,"byteLength":1472,"byteOffset":0},{"buffer":0,"byteOffset":1472,"byteLength":42555},{"buffer":0,"byteOffset":44027,"byteLength":2699},{"buffer":0,"byteOffset":46726,"byteLength":156697}],"buffers":[{"byteLength":203423,"uri":"buffer.bin"}],"images":[{"name":"pm0114_00_BodyA1.tga","uri":"pm0114_00_BodyA1.tga.png"},{"name":"pm0114_00_BodyB1.tga","uri":"pm0114_00_BodyB1.tga.png"},{"name":"pm0114_00_Eye1","uri":"pm0114_00_Eye1.png"}],"materials":[{"name":"BodyAVco_mat","pbrMetallicRoughness":{"baseColorFactor":[0.6400000190734865,0.6400000190734865,0.6400000190734865,1],"baseColorTexture":{"index":0},"metallicFactor":0}},{"name":"BodyBVco_mat","pbrMetallicRoughness":{"baseColorFactor":[0.6400000190734865,0.6400000190734865,0.6400000190734865,1],"baseColorTexture":{"index":1},"metallicFactor":0}},{"name":"Eye_mat","pbrMetallicRoughness":{"baseColorFactor":[0.6400000190734865,0.6400000190734865,0.6400000190734865,1],"baseColorTexture":{"index":2},"metallicFactor":0}}],"meshes":[{"name":"mesh_0_BodyAVco","primitives":[{"material":1,"extensions":{"ALI_amc_mesh_compression":{"bufferView":1}}},{"material":2,"extensions":{"ALI_amc_mesh_compression":{"bufferView":2}}},{"material":0,"extensions":{"ALI_amc_mesh_compression":{"bufferView":3}}}]}],"nodes":[{"children":[3,4],"name":"Armature","rotation":[0.7071068286895752,0,0,0.7071067094802856]},{"name":"Camera","rotation":[0.483536034822464,0.33687159419059753,-0.20870360732078552,0.7804827094078064],"translation":[7.481131553649902,5.34366512298584,6.5076398849487305]},{"name":"Lamp","rotation":[0.16907575726509094,0.7558802962303162,-0.27217137813568115,0.570947527885437],"scale":[1,1,0.9999999403953552],"translation":[4.076245307922363,5.903861999511719,-1.0054539442062378]},{"mesh":0,"name":"vsn_mesh_0_BodyAVco","skin":0},{"children":[5,25,26],"name":"Armature_pm0114_00","rotation":[-0.7071068286895752,0,0,0.7071068286895752]},{"children":[6],"name":"Armature_Origin"},{"children":[7,8,9,11,13,15,17,19,22],"name":"Armature_Waist","translation":[0,55.4276008605957,0]},{"name":"Armature_UpperHair"},{"name":"Armature_LowerHair"},{"children":[10],"name":"Armature_FeelerA1","rotation":[0,-8.881784197001252e-16,0,1],"translation":[8.823515892028809,16.11837387084961,39.700443267822266]},{"name":"Armature_FeelerA2","rotation":[0,4.440892098500626e-15,0,1],"translation":[23.870126724243164,-2.0406036376953125,-4.603580474853516]},{"children":[12],"name":"Armature_FeelerB1","rotation":[0,-1.7763568394002505e-15,0,1],"translation":[-24.712770462036133,25.121959686279297,-5.947475433349609]},{"name":"Armature_FeelerB2","rotation":[0,1.7763568394002505e-15,0,1],"translation":[-13.538164138793945,-5.275230407714844,-6.8956756591796875]},{"children":[14],"name":"Armature_FeelerC1","translation":[11.509689331054688,30.832393646240234,-15.317172050476074]},{"name":"Armature_FeelerC2","rotation":[0,3.552713678800501e-15,0,1],"translation":[12.218950271606445,-4.4723663330078125,-15.810057640075684]},{"children":[16],"name":"Armature_FeelerF1","rotation":[0,-1.0736562946548332e-15,0,1],"translation":[-18.463510513305664,25.121944427490234,30.5394287109375]},{"name":"Armature_FeelerF2","rotation":[0,-2.4790570665083125e-15,0,1],"translation":[-9.937837600708008,6.671783447265625,-8.012468338012695]},{"children":[18],"name":"Armature_FeelerG1","translation":[29.011667251586914,9.148601531982422,30.224950790405273]},{"name":"Armature_FeelerG2","rotation":[0,3.552713678800501e-15,0,1],"translation":[-1.0686798095703125,-18.338024139404297,8.633668899536133]},{"children":[20],"name":"Armature_LThigh","translation":[21.271299362182617,8.572399139404297,0.05422097072005272]},{"children":[21],"name":"Armature_LFoot","translation":[-0.0000286102294921875,-50.83338928222656,-0.05422097072005272]},{"name":"Armature_LToe","translation":[0,-5.266645431518555,-2.2737367544323206e-13]},{"children":[23],"name":"Armature_RThigh","translation":[-21.271299362182617,-9.472156524658203,0.05423431470990181]},{"children":[24],"name":"Armature_RFoot","translation":[0,-32.19585037231445,-0.054236557334661484]},{"name":"Armature_RToe","translation":[0,-5.207850456237793,8.484599902658374e-7]},{"name":"Armature_pm0114_00_Skin"},{"name":"Armature_pm0114_00_IrisSkin"}],"samplers":[{}],"scene":0,"scenes":[{"name":"Scene","nodes":[0,2,1]}],"skins":[{"inverseBindMatrices":0,"joints":[4,5,6,7,8,9,10,11,12,13,14,15,16,17,18,19,20,21,22,23,24,25,26],"skeleton":0}],"textures":[{"sampler":0,"source":0},{"sampler":0,"source":1},{"sampler":0,"source":2}],"extensionsUsed":["ALI_amc_mesh_compression"],"extensionsRequired":["ALI_amc_mesh_compression"]}