{"accessors":[{"bufferView":0,"componentType":5126,"count":36,"max":[6.86460566612368e-7,-1,0.0000036199896840116708,0,0.189630389213562,0.0000036199910482537234,1.0000001192092896,0,1.0000001192092896,1.791044041965506e-7,0.189630389213562,0,109.77751922607422,104.60115814208984,0.000003814697265625,1],"min":[-0.0000036199901387590216,-1.0000001192092896,-0.0000036199896840116708,0,-1.000000238418579,0.000003619990366132697,-1.0000001192092896,0,-1.0000001192092896,-5.897713415727035e-13,-1.000000238418579,0,-125.8614273071289,-102.61793518066406,-96.15446472167969,1],"type":"MAT4","byteOffset":0}],"asset":{"generator":"Khronos Blender glTF 2.0 exporter","version":"2.0"},"bufferViews":[{"buffer":0,"byteLength":2304,"byteOffset":0},{"buffer":0,"byteOffset":2304,"byteLength":663},{"buffer":0,"byteOffset":2967,"byteLength":947},{"buffer":0,"byteOffset":3914,"byteLength":136757}],"buffers":[{"byteLength":140671,"uri":"buffer.bin"}],"images":[{"name":"pm0045_01_Body1","uri":"pm0045_01_Body1.png"},{"name":"pm0045_00_Eye1","uri":"pm0045_00_Eye1.png"},{"name":"pm0045_00_Mouth1","uri":"pm0045_00_Mouth1.png"}],"materials":[{"alphaMode":"OPAQUE","name":"Body01_00","pbrMetallicRoughness":{"baseColorFactor":[0.6400000190734865,0.6400000190734865,0.6400000190734865,1],"baseColorTexture":{"index":0},"metallicFactor":0}},{"alphaMode":"OPAQUE","name":"Eye","pbrMetallicRoughness":{"baseColorFactor":[0.6400000190734865,0.6400000190734865,0.6400000190734865,1],"baseColorTexture":{"index":1},"metallicFactor":0}},{"alphaMode":"OPAQUE","name":"Mouth","pbrMetallicRoughness":{"baseColorFactor":[0.6400000190734865,0.6400000190734865,0.6400000190734865,1],"baseColorTexture":{"index":2},"metallicFactor":0}}],"meshes":[{"name":"Vileplume","primitives":[{"material":1,"extensions":{"ALI_amc_mesh_compression":{"bufferView":1}}},{"material":2,"extensions":{"ALI_amc_mesh_compression":{"bufferView":2}}},{"material":0,"extensions":{"ALI_amc_mesh_compression":{"bufferView":3}}}]}],"nodes":[{"children":[1,14],"name":"_01_pm0045_00_ruffresia","rotation":[0.7071068286895752,0,0,0.7071067094802856],"scale":[0.02539999783039093,0.02539999969303608,0.02539999969303608]},{"children":[2],"name":"_02_Origin"},{"children":[19,20,36],"name":"_03_Waist","rotation":[-5.024286464438499e-15,0.7071080803871155,0,0.7071055173873901],"scale":[1,0.9999999403953552,1],"translation":[0,0,-54.507301330566406]},{"name":"_05_EndHips","translation":[46.00498962402344,-1.7052999908440808e-13,5.820770254683083e-11]},{"name":"_09_EndLToe","translation":[23.95240020751953,0,0]},{"name":"_12_EndLArm","translation":[17.854679107666016,-9.536739753457368e-7,0]},{"name":"_16_EndRToe","translation":[23.952299118041992,0,-0.000020980800400138833]},{"name":"_19_EndRArm","translation":[17.85481071472168,0.00005435939965536818,-0.000003814699994109105]},{"name":"_25_EndFeelerA2","translation":[53.377811431884766,0,0]},{"name":"_28_EndFeelerB2","translation":[50.910400390625,0,-0.0000028610199933609692]},{"name":"_31_EndFeelerC2","translation":[49.968589782714844,0.000007629389983776491,-0.000003814699994109105]},{"name":"_34_EndFeelerD2","translation":[51.6775016784668,0.00001525879997643642,-0.000011444099982327316]},{"name":"_37_EndFeelerE2","translation":[49.527320861816406,-0.00001525879997643642,-4.768369876728684e-7]},{"name":"_39_EndFeelerF2","translation":[15.97659969329834,0.000003161750100844074,1.1641500263781523e-10]},{"children":[15,16],"name":"_40_VriTex00"},{"name":"_41_pm0045_00_BodySkin"},{"name":"_42_pm0045_00_PetalSkin"},{"name":"Camera","rotation":[0.483536034822464,0.33687159419059753,-0.20870360732078552,0.7804827094078064],"translation":[7.481131553649902,5.34366512298584,6.5076398849487305]},{"name":"Lamp","rotation":[0.16907575726509094,0.7558802962303162,-0.27217137813568115,0.570947527885437],"scale":[1,1,0.9999999403953552],"translation":[4.076245307922363,5.903861999511719,-1.0054539442062378]},{"mesh":0,"name":"Vileplume","rotation":[0.49999913573265076,-0.5000008940696716,0.5000009536743164,0.4999990463256836],"scale":[1,1,1.0000001192092896],"skin":0,"translation":[-54.50730514526367,0,-0.000197315908735618]},{"children":[21,22,26,29,33],"name":"_03_Waist__04_Hips","rotation":[-0.5,0.5000000596046448,-0.5000000596046448,0.5],"scale":[1,0.9999999403953552,1],"translation":[-54.507301330566406,54.50730895996094,-0.00020381367357913405]},{"name":"_03_Waist__05_EndHips","translation":[46.0049934387207,-0.0000019073340808972716,-3.7164801369726774e-7]},{"children":[23],"name":"_03_Waist__06_LLeg","rotation":[0,-0.05116605758666992,0,0.9986901879310608],"translation":[0.31565335392951965,-14.212603569030762,-0.46802374720573425]},{"children":[24],"name":"_03_Waist__07_LFoot","rotation":[0,-0.6700200438499451,0,0.7423430681228638],"scale":[0.9999999403953552,0.9999999403953552,0.9999999403953552],"translation":[49.60600280761719,-0.000316619873046875,-0.0013308227062225342]},{"children":[25],"name":"_03_Waist__08_LToe","rotation":[0,-7.780909072607756e-8,0,1],"translation":[-17.877174377441406,-8.940399169921875,0.0010240504052489996]},{"name":"_03_Waist__09_EndLToe","translation":[-21.422805786132812,-10.713581085205078,0.0012234533205628395]},{"children":[27],"name":"_03_Waist__10_LShoulder","rotation":[0,0.9954535961151123,0,0.09524837136268616],"scale":[0.9999999403953552,1,0.9999999403953552],"translation":[11.98926067352295,-37.548851013183594,-8.550436019897461]},{"children":[28],"name":"_03_Waist__11_LArm","rotation":[0,-2.9802322387695312e-8,0,1],"translation":[0.5012111663818359,-13.681571960449219,2.594414710998535]},{"name":"_03_Waist__12_EndLArm","translation":[0.6422147750854492,-17.530723571777344,3.324321746826172]},{"children":[30],"name":"_03_Waist__13_RLeg","rotation":[0,-0.05113814026117325,0,0.9986916184425354],"scale":[0.9999999403953552,1,0.9999999403953552],"translation":[0.3158288300037384,14.212605476379395,-0.46791693568229675]},{"children":[31],"name":"_03_Waist__14_RFoot","rotation":[0,-0.6700218915939331,0,0.7423413991928101],"scale":[0.9999999403953552,1,0.9999999403953552],"translation":[49.60599899291992,-0.0003376007080078125,0.0014415979385375977]},{"children":[32],"name":"_03_Waist__15_RToe","rotation":[0,3.432783444168308e-7,0,1],"translation":[-17.877092361450195,8.940550804138184,-2.599335857667029e-7]},{"name":"_03_Waist__16_EndRToe","rotation":[0,-1.4210854715202004e-14,0,1],"translation":[-21.422651290893555,10.713680267333984,-0.000017223293980350718]},{"children":[34],"name":"_03_Waist__17_RShoulder","rotation":[0,0.9954538941383362,0,0.09524453431367874],"translation":[11.989649772644043,37.54875946044922,-8.55015754699707]},{"children":[35],"name":"_03_Waist__18_RArm","rotation":[0,2.2351745343485163e-8,0,1],"scale":[0.9999999403953552,0.9999999403953552,0.9999999403953552],"translation":[0.5010032653808594,13.681598663330078,2.5943145751953125]},{"name":"_03_Waist__19_EndRArm","translation":[0.6419668197631836,17.530872344970703,3.324329376220703]},{"children":[37],"name":"_03_Waist__20_Spine","rotation":[-0.5,-0.5000000596046448,0.5000000596046448,0.5],"scale":[1,0.9999999403953552,1],"translation":[-54.507301330566406,54.5073127746582,-0.00020381367357913405]},{"children":[38],"name":"_03_Waist__21_Head","translation":[21.581796646118164,0.00007969141006469727,0.000004303433797758771]},{"children":[39,42,45,48,51,54],"name":"_03_Waist__22_FeelerF1","translation":[19.455598831176758,0.00007191300392150879,-3.616946742113214e-7]},{"children":[40],"name":"_03_Waist__23_FeelerA1","rotation":[0,0.7071068286895752,0,0.7071068286895752],"translation":[0.6095691323280334,0.07318896055221558,23.240100860595703]},{"children":[41],"name":"_03_Waist__24_FeelerA2","translation":[-33.15960693359375,0.00003707408905029297,-0.00006866455078125]},{"name":"_03_Waist__25_EndFeelerA2","translation":[-53.3778076171875,0.0001995861530303955,0]},{"children":[43],"name":"_03_Waist__26_FeelerB1","rotation":[0,0.7071086168289185,0,0.7071049213409424],"translation":[0.6096446514129639,-22.90576934814453,5.9318156242370605]},{"children":[44],"name":"_03_Waist__27_FeelerB2","rotation":[0,-3.2410980566055514e-8,0,1],"translation":[-8.713788032531738,-32.519901275634766,-0.000026413792511448264]},{"name":"_03_Waist__28_EndFeelerB2","translation":[-13.176733016967773,-49.17564392089844,-0.00005810338188894093]},{"children":[46],"name":"_03_Waist__29_FeelerC1","rotation":[0,0.7071074843406677,0,0.7071061730384827],"translation":[0.6096436381340027,-16.682153701782227,-17.222732543945312]},{"children":[47],"name":"_03_Waist__30_FeelerC2","rotation":[0,-7.801696710885153e-8,0,1],"translation":[25.481908798217773,-25.482118606567383,0.000024671559003763832]},{"name":"_03_Waist__31_EndFeelerC2","rotation":[-8.95524863153696e-8,0,0,1],"translation":[35.3330078125,-35.33326721191406,0.00008418037032242864]},{"children":[49],"name":"_03_Waist__32_FeelerD1","rotation":[0,0.7071074843406677,0,0.7071061134338379],"translation":[0.6095442175865173,8.362825393676758,-22.563522338867188]},{"children":[50],"name":"_03_Waist__33_FeelerD2","rotation":[0,2.2274548427958507e-8,0,1],"translation":[31.17321014404297,11.346007347106934,-0.000016728539776522666]},{"name":"_03_Waist__34_EndFeelerD2","translation":[48.56102752685547,17.674604415893555,-0.000013529439456760883]},{"children":[52],"name":"_03_Waist__35_FeelerE1","rotation":[0,0.7071110010147095,0,0.7071025967597961],"translation":[0.6094842553138733,23.77611541748047,1.7804828882217407]},{"children":[53],"name":"_03_Waist__36_FeelerE2","rotation":[0,-5.68843461223878e-9,0,1],"translation":[-2.5810489654541016,29.50279998779297,-0.00024461920838803053]},{"name":"_03_Waist__37_EndFeelerE2","translation":[-4.316407203674316,49.338863372802734,-0.00043217046186327934]},{"children":[55],"name":"_03_Waist__38_FeelerF2","translation":[14.340120315551758,0.00005304816295392811,-9.885211511573289e-7]},{"name":"_03_Waist__39_EndFeelerF2","translation":[15.976602554321289,2.9103830456733704e-11,0.000002127816969732521]}],"samplers":[{}],"scene":0,"scenes":[{"name":"Scene","nodes":[13,12,11,10,9,8,7,6,5,4,3,0,18,17]}],"skins":[{"inverseBindMatrices":0,"joints":[20,21,22,23,24,25,26,27,28,29,30,31,32,33,34,35,36,37,38,39,40,41,42,43,44,45,46,47,48,49,50,51,52,53,54,55],"skeleton":2}],"textures":[{"sampler":0,"source":0},{"sampler":0,"source":1},{"sampler":0,"source":2}],"extensionsUsed":["ALI_amc_mesh_compression"],"extensionsRequired":["ALI_amc_mesh_compression"]}