{"accessors":[{"bufferView":0,"componentType":5126,"count":17,"max":[1,0,7.9836497520391e-16,0,1.1292610753643547e-22,0,1,0,0,-1,0,0,35.059669494628906,0,32.28853988647461,1],"min":[1,0,-1.1292610753643547e-22,0,-7.9836497520391e-16,0,1,0,0,-1,0,0,-26.925159454345703,-16.518129348754883,-34.65253448486328,1],"type":"MAT4","byteOffset":0}],"asset":{"generator":"Khronos Blender glTF 2.0 exporter","version":"2.0"},"bufferViews":[{"buffer":0,"byteLength":1088,"byteOffset":0},{"buffer":0,"byteOffset":1088,"byteLength":1426},{"buffer":0,"byteOffset":2514,"byteLength":3484},{"buffer":0,"byteOffset":5998,"byteLength":138749},{"buffer":0,"byteOffset":144747,"byteLength":3939},{"buffer":0,"byteOffset":148686,"byteLength":2055},{"buffer":0,"byteOffset":150741,"byteLength":1883},{"buffer":0,"byteOffset":152624,"byteLength":3825}],"buffers":[{"byteLength":156449,"uri":"buffer.bin"}],"images":[{"name":"pm0102_00_AEye1","uri":"pm0102_00_AEye1.png"},{"name":"pm0102_00_AMouth1","uri":"pm0102_00_AMouth1.png"},{"name":"pm0102_00_BEye1","uri":"pm0102_00_BEye1.png"},{"name":"pm0102_00_BMouth1","uri":"pm0102_00_BMouth1.png"},{"name":"pm0102_00_Body1","uri":"pm0102_00_Body1.png"},{"name":"pm0102_00_CEye1","uri":"pm0102_00_CEye1.png"}],"materials":[{"name":"AEye_mat","pbrMetallicRoughness":{"baseColorFactor":[0.6400000190734865,0.6400000190734865,0.6400000190734865,1],"baseColorTexture":{"index":0},"metallicFactor":0}},{"name":"AMouth_mat","pbrMetallicRoughness":{"baseColorFactor":[0.6400000190734865,0.6400000190734865,0.6400000190734865,1],"baseColorTexture":{"index":1},"metallicFactor":0}},{"name":"BEye_mat","pbrMetallicRoughness":{"baseColorFactor":[0.6400000190734865,0.6400000190734865,0.6400000190734865,1],"baseColorTexture":{"index":2},"metallicFactor":0}},{"name":"BMouth_mat","pbrMetallicRoughness":{"baseColorFactor":[0.6400000190734865,0.6400000190734865,0.6400000190734865,1],"baseColorTexture":{"index":3},"metallicFactor":0}},{"name":"BodySpc_mat","pbrMetallicRoughness":{"baseColorFactor":[0.6400000190734865,0.6400000190734865,0.6400000190734865,1],"baseColorTexture":{"index":4},"metallicFactor":0}},{"name":"CEye_mat","pbrMetallicRoughness":{"baseColorFactor":[0.6400000190734865,0.6400000190734865,0.6400000190734865,1],"baseColorTexture":{"index":5},"metallicFactor":0}},{"name":"CMouth_mat","pbrMetallicRoughness":{"baseColorFactor":[0.6400000190734865,0.6400000190734865,0.6400000190734865,1],"baseColorTexture":{"index":3},"metallicFactor":0}}],"meshes":[{"name":"mesh_0_BodySpc","primitives":[{"material":6,"extensions":{"ALI_amc_mesh_compression":{"bufferView":1}}},{"material":5,"extensions":{"ALI_amc_mesh_compression":{"bufferView":2}}},{"material":4,"extensions":{"ALI_amc_mesh_compression":{"bufferView":3}}},{"material":2,"extensions":{"ALI_amc_mesh_compression":{"bufferView":4}}},{"material":1,"extensions":{"ALI_amc_mesh_compression":{"bufferView":5}}},{"material":3,"extensions":{"ALI_amc_mesh_compression":{"bufferView":6}}},{"material":0,"extensions":{"ALI_amc_mesh_compression":{"bufferView":7}}}]}],"nodes":[{"children":[3,4],"name":"Armature","rotation":[0.7071068286895752,0,0,0.7071067094802856]},{"name":"Camera","rotation":[0.483536034822464,0.33687159419059753,-0.20870360732078552,0.7804827094078064],"translation":[7.481131553649902,5.34366512298584,6.5076398849487305]},{"name":"Lamp","rotation":[0.16907575726509094,0.7558802962303162,-0.27217137813568115,0.570947527885437],"scale":[1,1,0.9999999403953552],"translation":[4.076245307922363,5.903861999511719,-1.0054539442062378]},{"mesh":0,"name":"vsn_mesh_0_BodySpc","skin":0},{"children":[5,20],"name":"Armature_pm0102_00","rotation":[-0.7071068286895752,0,0,0.7071068286895752]},{"children":[6],"name":"Armature_Origin"},{"children":[7,9,11,13,15,17],"name":"Armature_Waist","translation":[9.999999974752427e-7,0,0.7976740002632141]},{"children":[8],"name":"Armature_WaistA1"},{"name":"Armature_WaistA2","translation":[0.000005185310328670312,16.518129348754883,0]},{"children":[10],"name":"Armature_WaistB1","translation":[-35.059669494628906,0,2.4133920669555664]},{"name":"Armature_WaistB2","translation":[0.00000762939453125,16,-2.384185791015625e-7]},{"children":[12],"name":"Armature_WaistC1","translation":[-11.376299858093262,0,33.854854583740234]},{"name":"Armature_WaistC2","rotation":[0,3.99182487601955e-16,0,1],"translation":[-9.5367431640625e-7,16,0.00000762939453125]},{"children":[14],"name":"Armature_WaistD1","translation":[25.434518814086914,0,18.697956085205078]},{"name":"Armature_WaistD2","translation":[0.0000095367431640625,16,0.0000019073486328125]},{"children":[16],"name":"Armature_WaistE1","translation":[26.92515754699707,0,-33.08620834350586]},{"name":"Armature_WaistE2","translation":[0,16,-0.000003814697265625]},{"children":[18,19],"name":"Armature_WaistF1","translation":[-19.593542098999023,0,-29.996185302734375]},{"name":"Armature_WaistF2","rotation":[0,-5.646305376821773e-23,0,1],"translation":[0,16.000001907348633,0.0000019073486328125]},{"name":"Armature_Feeler","rotation":[0,-5.646305376821773e-23,0,1],"translation":[0,16.000001907348633,0.0000019073486328125]},{"name":"Armature_pm0102_00_Skin"}],"samplers":[{}],"scene":0,"scenes":[{"name":"Scene","nodes":[0,2,1]}],"skins":[{"inverseBindMatrices":0,"joints":[4,5,6,7,8,9,10,11,12,13,14,15,16,17,18,19,20],"skeleton":0}],"textures":[{"sampler":0,"source":0},{"sampler":0,"source":1},{"sampler":0,"source":2},{"sampler":0,"source":3},{"sampler":0,"source":4},{"sampler":0,"source":5},{"sampler":0,"source":3}],"extensionsUsed":["ALI_amc_mesh_compression"],"extensionsRequired":["ALI_amc_mesh_compression"]}