{"accessors":[{"bufferView":0,"componentType":5126,"count":58,"max":[0.0000037721433727710973,-0.9999999403953552,0.0000037730519579781685,0,0.9999998807907104,0.0000037721690659964224,0.9999781847000122,0,0.6985635757446289,-1.3187239744638646e-7,1.0000001192092896,0,14.528229713439941,34.80354690551758,9.351489067077637,1],"min":[-0.000003772168838622747,-1,-0.000002540738478273852,0,-0.9999998807907104,0.0000037721686112490715,-0.6985635161399841,0,-0.9999784231185913,-1.3187241165724117e-7,-1,0,-30.266563415527344,-34.80373001098633,-28.73493194580078,1],"type":"MAT4","byteOffset":0}],"asset":{"generator":"Khronos Blender glTF 2.0 exporter","version":"2.0"},"bufferViews":[{"buffer":0,"byteLength":3712,"byteOffset":0},{"buffer":0,"byteOffset":3712,"byteLength":177095},{"buffer":0,"byteOffset":180807,"byteLength":883}],"buffers":[{"byteLength":181690,"uri":"buffer.bin"}],"images":[{"name":"pm0016_00_Body1","uri":"pm0016_00_Body1.png"},{"name":"pm0016_00_Eye1","uri":"pm0016_00_Eye1.png"}],"materials":[{"alphaMode":"OPAQUE","name":"Body00","pbrMetallicRoughness":{"baseColorFactor":[0.6400000190734865,0.6400000190734865,0.6400000190734865,1],"baseColorTexture":{"index":0},"metallicFactor":0}},{"alphaMode":"OPAQUE","name":"Eye","pbrMetallicRoughness":{"baseColorFactor":[0.6400000190734865,0.6400000190734865,0.6400000190734865,1],"baseColorTexture":{"index":1},"metallicFactor":0}}],"meshes":[{"name":"Pidgey","primitives":[{"material":0,"extensions":{"ALI_amc_mesh_compression":{"bufferView":1}}},{"material":1,"extensions":{"ALI_amc_mesh_compression":{"bufferView":2}}}]}],"nodes":[{"children":[1,21,22,23],"name":"_01_pm0016_00","rotation":[0.7071068286895752,0,0,0.7071067094802856],"scale":[0.02539999783039093,0.02539999969303608,0.02539999969303608]},{"children":[2],"name":"_02_Origin"},{"children":[26,27,58],"name":"_03_Waist","rotation":[0.375150591135025,0.5993862748146057,0.37514910101890564,0.599384069442749],"scale":[1,1.0000001192092896,1.0000001192092896],"translation":[0,1.238149881362915,-10.998700141906738]},{"name":"_05_EndHips","translation":[6.12055778503418,0,7.27596021626864e-12]},{"name":"_09_EndLFoot","translation":[2.5182089805603027,0,0]},{"name":"_12_EndLToeA2","translation":[3.664220094680786,1.1920899822825959e-7,-2.3841900542720396e-7]},{"name":"_15_EndLToeB2","translation":[3.739690065383911,0,0]},{"name":"_18_EndLToeC2","translation":[1.9531890153884888,1.1920899822825959e-7,7.152560215217818e-7]},{"name":"_22_EndRFoot","translation":[2.518209934234619,7.152560215217818e-7,2.3841900542720396e-7]},{"name":"_25_EndRToeA2","translation":[3.664217948913574,0,0.000007629389983776491]},{"name":"_28_EndRToeB2","translation":[3.739690065383911,5.96045985901128e-8,4.768369876728684e-7]},{"name":"_31_EndRToeC2","translation":[1.9531899690628052,5.96045985901128e-8,0]},{"name":"_34_EndTail2","translation":[7.24423885345459,0,3.63798010813432e-12]},{"name":"_38_EndFeeler","translation":[3.1562108993530273,-9.536739753457368e-7,0]},{"name":"_41_EndHead","translation":[7.804969787597656,0,-1.0913899992082143e-11]},{"name":"_43_EndHair","translation":[5.85145902633667,0,-3.63798010813432e-12]},{"name":"_45_EndLowerBeak","translation":[3.496601104736328,0.000003814699994109105,-1.0913899992082143e-11]},{"name":"_48_EndLFeeler2","translation":[11.921500205993652,9.536739753457368e-7,-9.536739753457368e-7]},{"name":"_53_EndLHand","translation":[16.13010025024414,-9.536739753457368e-7,0.0000019073499970545527]},{"name":"_56_EndRFeeler2","translation":[11.921500205993652,-0.000004291529876354616,0.000005722049991163658]},{"name":"_61_EndRHand","translation":[16.13010025024414,0.000007629389983776491,0.0000019073499970545527]},{"name":"_62_pm0016_00_BodySkin"},{"name":"_63_pm0016_00_LWingCloseSkin"},{"name":"_64_pm0016_00_RWingCloseSkin"},{"name":"Camera","rotation":[0.483536034822464,0.33687159419059753,-0.20870360732078552,0.7804827094078064],"translation":[7.481131553649902,5.34366512298584,6.5076398849487305]},{"name":"Lamp","rotation":[0.16907575726509094,0.7558802962303162,-0.27217137813568115,0.570947527885437],"scale":[1,1,0.9999999403953552],"translation":[4.076245307922363,5.903861999511719,-1.0054539442062378]},{"mesh":0,"name":"Pidgey","rotation":[0.1585569828748703,-0.6891006827354431,0.15855970978736877,0.6891000270843506],"scale":[0.9999998211860657,0.9999995827674866,1],"skin":0,"translation":[-5.920623302459717,9.35150146484375,-0.000041325663914904]},{"children":[28,29,42,55],"name":"_03_Waist__04_Hips","rotation":[-0.5731339454650879,0.4141467213630676,-0.4141467213630676,0.5731339454650879],"translation":[3.4308810234069824,15.272126197814941,-0.00004379258825792931]},{"name":"_03_Waist__05_EndHips","translation":[4.9141693115234375,-0.00004565715789794922,-3.64858341217041]},{"children":[30],"name":"_03_Waist__06_LThigh","rotation":[0,-0.7503570318222046,0,0.6610327959060669],"scale":[0.9999999403953552,1,0.9999999403953552],"translation":[1.1594935655593872,-3.0000016689300537,1.3601422309875488]},{"children":[31],"name":"_03_Waist__07_LLeg","rotation":[0,-0.10133583843708038,0,0.9948523044586182],"scale":[0.9999999403953552,1,0.9999999403953552],"translation":[-6.989239692687988,-0.14081168174743652,-0.0911933183670044]},{"children":[32,33,36,39],"name":"_03_Waist__08_LFoot","rotation":[0,-0.6344326734542847,0,0.7729781270027161],"translation":[-2.9927380084991455,-0.06399774551391602,1.2385368347167969]},{"name":"_03_Waist__09_EndLFoot","rotation":[0,2.9802322387695312e-8,0,1],"translation":[2.5182106494903564,0.000008821487426757812,-0.000485837459564209]},{"children":[34],"name":"_03_Waist__10_LToeA1","rotation":[0,0.9981743693351746,0,0.06039823219180107],"scale":[0.9999999403953552,0.9999999403953552,0.9999999403953552],"translation":[1.5628716945648193,1.0628743171691895,1.015420913696289]},{"children":[35],"name":"_03_Waist__11_LToeA2","rotation":[0,-0.14205829799175262,0,0.9898583292961121],"translation":[-2.080106019973755,0.33845603466033936,-0.00013649463653564453]},{"name":"_03_Waist__12_EndLToeA2","scale":[1,0.9999999403953552,1],"translation":[-3.350710868835449,0.3457796573638916,1.4421119689941406]},{"children":[37],"name":"_03_Waist__13_LToeB1","rotation":[0,0.9981702566146851,0,0.0604657419025898],"scale":[0.9999999403953552,1,0.9999999403953552],"translation":[1.5944607257843018,-0.9725100994110107,1.040419101715088]},{"children":[38],"name":"_03_Waist__14_LToeB2","rotation":[0,-0.12101127952337265,0,0.9926511645317078],"translation":[-1.9993047714233398,-0.31127023696899414,0.0001424551010131836]},{"name":"_03_Waist__15_EndLToeB2","translation":[-3.476346015930176,-0.37854576110839844,1.3255219459533691]},{"children":[40],"name":"_03_Waist__16_LToeC1","rotation":[0,-0.9960249662399292,0,0.08907559514045715],"scale":[1,0.9999999403953552,1],"translation":[-0.6835246086120605,0.03278708457946777,1.0220861434936523]},{"children":[41],"name":"_03_Waist__17_LToeC2","rotation":[0,-0.08897928148508072,0,0.9960334897041321],"translation":[1.9268604516983032,-0.0000209808349609375,-7.152557373046875e-7]},{"name":"_03_Waist__18_EndLToeC2","rotation":[0,-1.4901161193847656e-8,0,1],"translation":[1.9531902074813843,-0.000007867813110351562,1.1920928955078125e-7]},{"children":[43],"name":"_03_Waist__19_RThigh","rotation":[0,-0.750052809715271,0,0.6613779664039612],"scale":[0.9999998807907104,1,0.9999998807907104],"translation":[1.1595274209976196,2.9999990463256836,1.360135555267334]},{"children":[44],"name":"_03_Waist__20_RLeg","rotation":[0,-0.10118647664785385,0,0.9948675036430359],"translation":[-6.989164352416992,0.14074420928955078,-0.09762471914291382]},{"children":[45,46,49,52],"name":"_03_Waist__21_RFoot","rotation":[0,-0.2333015352487564,0,0.9724044799804688],"translation":[-2.9942615032196045,0.06396722793579102,1.2348802089691162]},{"name":"_03_Waist__22_EndRFoot","scale":[0.9999999403953552,1,0.9999999403953552],"translation":[1.5561902523040771,0.000009059906005859375,1.979814052581787]},{"children":[47],"name":"_03_Waist__23_RToeA1","rotation":[0,0.8713197708129883,0,0.49071577191352844],"scale":[0.9999999403953552,1,0.9999999403953552],"translation":[0.19777321815490723,-1.0987770557403564,1.8321866989135742]},{"children":[48],"name":"_03_Waist__24_RToeA2","rotation":[0,-0.1421240121126175,0,0.9898488521575928],"translation":[-2.080108642578125,-0.33843886852264404,0.0001214742660522461]},{"name":"_03_Waist__25_EndRToeA2","rotation":[0,1.4901161193847656e-8,0,1],"translation":[-3.3503408432006836,-0.3457280397415161,1.442979335784912]},{"children":[50],"name":"_03_Waist__26_RToeB1","rotation":[0,0.8713504672050476,0,0.4906613826751709],"scale":[0.9999999403953552,1,0.9999999403953552],"translation":[0.13998079299926758,0.9343843460083008,1.917776107788086]},{"children":[51],"name":"_03_Waist__27_RToeB2","rotation":[0,-0.12097489833831787,0,0.9926555752754211],"scale":[0.9999999403953552,1,0.9999999403953552],"translation":[-1.999302864074707,0.3112921714782715,-0.0001316070556640625]},{"name":"_03_Waist__28_EndRToeB2","scale":[0.9999999403953552,1,0.9999999403953552],"translation":[-3.476619243621826,0.37859010696411133,1.3247933387756348]},{"children":[53],"name":"_03_Waist__29_RToeC1","rotation":[0,0.9347578287124634,0,0.3552854061126709],"translation":[-1.2245290279388428,-0.06958699226379395,0.09286117553710938]},{"children":[54],"name":"_03_Waist__30_RToeC2","rotation":[0,-0.08897928893566132,0,0.9960334897041321],"translation":[1.926861047744751,-0.0000050067901611328125,-0.0000016689300537109375]},{"name":"_03_Waist__31_EndRToeC2","translation":[1.9531899690628052,-0.000007152557373046875,7.152557373046875e-7]},{"children":[56],"name":"_03_Waist__32_Tail1","rotation":[0,0.15610875189304352,0,0.9877398610115051],"scale":[0.9999999403953552,1,0.9999999403953552],"translation":[8.726786613464355,-0.00005733966827392578,-0.5085098743438721]},{"children":[57],"name":"_03_Waist__33_Tail2","rotation":[0,0.04167075827717781,0,0.999131441116333],"scale":[0.9999999403953552,1,0.9999999403953552],"translation":[5.091846466064453,-0.00003719329833984375,-0.05937005952000618]},{"name":"_03_Waist__34_EndTail2","rotation":[0,3.725290298461914e-9,0,1],"translation":[7.157313346862793,-0.00005030631655245088,1.1188819408416748]},{"children":[59],"name":"_03_Waist__35_Spine1","rotation":[-0.5000005960464478,-0.49999937415122986,0.49999937415122986,0.5000005960464478],"translation":[3.430880069732666,15.272126197814941,-0.000043792493670480326]},{"children":[60,62],"name":"_03_Waist__36_Spine2","rotation":[0,0.27730298042297363,0,0.960782527923584],"scale":[0.9999999403953552,1,0.9999999403953552],"translation":[3.07062029838562,0.000015676021575927734,-1.8217542674392462e-7]},{"children":[61],"name":"_03_Waist__37_Feeler","rotation":[0,0.7153840661048889,0,0.6987314820289612],"scale":[0.9999999403953552,1,0.9999999403953552],"translation":[2.6725058555603027,0.000020056959328940138,6.926258087158203]},{"name":"_03_Waist__38_EndFeeler","rotation":[0,1.4901161193847656e-8,0,1],"translation":[-1.228346824645996,-0.000020891427993774414,-2.907377004623413]},{"children":[63,69,72,77,80],"name":"_03_Waist__39_Spine3","rotation":[0,0.15031838417053223,0,0.9886376261711121],"scale":[0.9999999403953552,1,0.9999999403953552],"translation":[5.048883438110352,0.000025928016839316115,-0.000002384185791015625]},{"children":[64,65,67],"name":"_03_Waist__40_Head","rotation":[0,-0.059217002242803574,0,0.998245120048523],"scale":[0.9999999403953552,1,0.9999999403953552],"translation":[4.579777717590332,0.000020921223040204495,0]},{"name":"_03_Waist__41_EndHead","translation":[7.804967880249023,0.000037610530853271484,-9.5367431640625e-7]},{"children":[66],"name":"_03_Waist__42_Hair","rotation":[0,0.671858549118042,0,0.7406795024871826],"scale":[0.9999999403953552,1,0.9999999403953552],"translation":[6.318752288818359,0.000032961368560791016,1.3314399719238281]},{"name":"_03_Waist__43_EndHair","rotation":[0,-2.9802322387695312e-8,0,1],"translation":[5.851459503173828,-0.000008881092071533203,0]},{"children":[68],"name":"_03_Waist__44_LowerBeak","rotation":[0,-0.1325254887342453,0,0.9911797046661377],"scale":[0.9999999403953552,1,0.9999999403953552],"translation":[1.0260896682739258,0.000013947486877441406,4.809351921081543]},{"name":"_03_Waist__45_EndLowerBeak","rotation":[0,1.4901161193847656e-8,0,1],"translation":[2.0087006092071533,0.000011414289474487305,2.862049102783203]},{"children":[70],"name":"_03_Waist__46_LFeeler1","rotation":[0,0.9365043640136719,0,0.35065606236457825],"translation":[0.22530651092529297,-4.832117557525635,-0.8042254447937012]},{"children":[71],"name":"_03_Waist__47_LFeeler2","rotation":[0,0.08681610226631165,0,0.9962244629859924],"scale":[0.9999998807907104,1,0.9999998807907104],"translation":[8.133265495300293,-2.0384621620178223,-1.6352765560150146]},{"name":"_03_Waist__48_EndLFeeler2","translation":[10.696920394897461,3.968258857727051,3.4570038318634033]},{"children":[73],"name":"_03_Waist__49_LShoulder","rotation":[0,0.40947702527046204,0,0.9123204350471497],"scale":[0.9999999403953552,1,0.9999999403953552],"translation":[0.22089576721191406,-1.267888069152832,0.3438894748687744]},{"children":[74],"name":"_03_Waist__50_LArm","rotation":[0,-0.10879986733198166,0,0.994063675403595],"translation":[2.8639135360717773,-2.4544172286987305,-0.6429373025894165]},{"children":[75],"name":"_03_Waist__51_LForeArm","rotation":[0,-0.37838032841682434,0,0.9256502389907837],"translation":[0.5538942813873291,-8.785287857055664,-0.08778911828994751]},{"children":[76],"name":"_03_Waist__52_LHand","rotation":[0,0.3016147017478943,0,0.9534299969673157],"translation":[4.5247273445129395,-6.35087776184082,4.132038116455078]},{"name":"_03_Waist__53_EndLHand","rotation":[0,7.450580596923828e-9,0,1],"translation":[-0.8118505477905273,-15.945117950439453,2.296505928039551]},{"children":[78],"name":"_03_Waist__54_RFeeler1","rotation":[0,0.9365057349205017,0,0.35065242648124695],"scale":[0.9999999403953552,0.9999999403953552,0.9999999403953552],"translation":[0.22530412673950195,4.832118988037109,-0.804267406463623]},{"children":[79],"name":"_03_Waist__55_RFeeler2","rotation":[0,0.0868164449930191,0,0.9962244033813477],"translation":[8.133316040039062,2.0383687019348145,-1.6352646350860596]},{"name":"_03_Waist__56_EndRFeeler2","rotation":[0,1.4901162970204496e-8,0,1],"scale":[0.9999999403953552,1,0.9999999403953552],"translation":[10.696846961975098,-3.9683709144592285,3.4571051597595215]},{"children":[81],"name":"_03_Waist__57_RShoulder","rotation":[0,0.4094783663749695,0,0.9123198390007019],"translation":[0.2208847999572754,1.2678914070129395,0.34388136863708496]},{"children":[82],"name":"_03_Waist__58_RArm","rotation":[0,-0.10879717022180557,0,0.9940639734268188],"scale":[0.9999999403953552,1,0.9999999403953552],"translation":[2.863926887512207,2.4544198513031006,-0.6429463624954224]},{"children":[83],"name":"_03_Waist__59_RForeArm","rotation":[0,-0.37838029861450195,0,0.9256502389907837],"translation":[0.5537960529327393,8.785290718078613,-0.08789056539535522]},{"children":[84],"name":"_03_Waist__60_RHand","rotation":[0,0.30161529779434204,0,0.9534297585487366],"translation":[4.524634838104248,6.350943565368652,4.132073879241943]},{"name":"_03_Waist__61_EndRHand","rotation":[0,7.450580596923828e-9,0,1],"translation":[-0.8119616508483887,15.945140838623047,2.296372413635254]}],"samplers":[{}],"scene":0,"scenes":[{"name":"Scene","nodes":[20,19,18,17,16,15,14,13,12,11,10,9,8,7,6,5,4,3,0,25,24]}],"skins":[{"inverseBindMatrices":0,"joints":[27,28,29,30,31,32,33,34,35,36,37,38,39,40,41,42,43,44,45,46,47,48,49,50,51,52,53,54,55,56,57,58,59,60,61,62,63,64,65,66,67,68,69,70,71,72,73,74,75,76,77,78,79,80,81,82,83,84],"skeleton":2}],"textures":[{"sampler":0,"source":0},{"sampler":0,"source":1}],"extensionsUsed":["ALI_amc_mesh_compression"],"extensionsRequired":["ALI_amc_mesh_compression"]}