{"accessors":[{"bufferView":0,"componentType":5126,"count":66,"max":[1.000000238418579,7.650977096318456e-8,0.9968284964561462,0,0.9999998807907104,8.598446754604083e-8,1,0,2.718224152431503e-7,-1,2.1916093828622252e-7,0,140.28842163085938,70.23382568359375,95.2310562133789,1],"min":[-1.000000238418579,-9.203154149872717e-8,-1.0000001192092896,0,-0.9968282580375671,-2.815882567119843e-7,-1,0,-1.911023872480655e-7,-1.0000003576278687,-1.7881295377719653e-7,0,-127.43461608886719,-11.646845817565918,-110.1446762084961,1],"type":"MAT4","byteOffset":0}],"asset":{"generator":"Khronos Blender glTF 2.0 exporter","version":"2.0"},"bufferViews":[{"buffer":0,"byteLength":4224,"byteOffset":0},{"buffer":0,"byteOffset":4224,"byteLength":86256},{"buffer":0,"byteOffset":90480,"byteLength":71760},{"buffer":0,"byteOffset":162240,"byteLength":4759}],"buffers":[{"byteLength":166999,"uri":"buffer.bin"}],"images":[{"name":"pm0075_00_BodyA1","uri":"pm0075_00_BodyA1.png"},{"name":"pm0075_00_BodyB1","uri":"pm0075_00_BodyB1.png"},{"name":"pm0075_00_Eye1","uri":"pm0075_00_Eye1.png"}],"materials":[{"alphaMode":"OPAQUE","name":"BodyA00","pbrMetallicRoughness":{"baseColorFactor":[0.6400000190734865,0.6400000190734865,0.6400000190734865,1],"baseColorTexture":{"index":0},"metallicFactor":0}},{"alphaMode":"OPAQUE","name":"BodyB00","pbrMetallicRoughness":{"baseColorFactor":[0.6400000190734865,0.6400000190734865,0.6400000190734865,1],"baseColorTexture":{"index":1},"metallicFactor":0}},{"alphaMode":"OPAQUE","name":"Eye","pbrMetallicRoughness":{"baseColorFactor":[0.6400000190734865,0.6400000190734865,0.6400000190734865,1],"baseColorTexture":{"index":2},"metallicFactor":0}}],"meshes":[{"name":"Graveler","primitives":[{"material":0,"extensions":{"ALI_amc_mesh_compression":{"bufferView":1}}},{"material":1,"extensions":{"ALI_amc_mesh_compression":{"bufferView":2}}},{"material":2,"extensions":{"ALI_amc_mesh_compression":{"bufferView":3}}}]}],"nodes":[{"children":[1,24],"name":"_01_pm0075_00","rotation":[0.7071068286895752,0,0,0.7071067094802856],"scale":[0.02539999783039093,0.02539999969303608,0.02539999969303608]},{"children":[26,28],"name":"_02_Origin"},{"name":"_04_EndWaist","translation":[28.74188995361328,0,2.9103799231711136e-11]},{"name":"_06_EndJaw","translation":[17.683500289916992,-0.000007629389983776491,0]},{"name":"_10_EndLHand","translation":[36.53150177001953,0,0]},{"name":"_13_EndLFingerA2","translation":[9.686370849609375,0.000007629389983776491,-5.96045985901128e-8]},{"name":"_16_EndLFingerB2","translation":[9.332405090332031,0,-0.0000019073499970545527]},{"name":"_19_EndLFingerC2","translation":[8.835403442382812,-0.000003814699994109105,0]},{"name":"_23_EndLHand2","translation":[24.14957046508789,0,-0.000007629389983776491]},{"name":"_26_EndLFingerD2","translation":[7.071002960205078,0.000007629389983776491,-0.000003814699994109105]},{"name":"_29_EndLFingerE2","translation":[5.922370910644531,0,0]},{"name":"_32_EndLFingerF2","translation":[11.089699745178223,0.000007629389983776491,-0.000003814699994109105]},{"name":"_35_EndLFoot","translation":[18.766700744628906,4.768369876728684e-7,-0.0000019073499970545527]},{"name":"_37_EndLToe","translation":[19.757600784301758,-4.768369876728684e-7,0]},{"name":"_41_EndRHand","translation":[36.53181076049805,0,0]},{"name":"_44_EndRFingerA2","translation":[9.686500549316406,-0.00001525879997643642,-5.96045985901128e-8]},{"name":"_47_EndRFingerB2","translation":[9.332588195800781,-0.000045776399929309264,0]},{"name":"_50_EndRFingerC2","translation":[8.834999084472656,-0.00019073499424848706,0.00016784699982963502]},{"name":"_54_EndRHand2","translation":[24.149700164794922,-0.000003814699994109105,0.00003242490129196085]},{"name":"_57_EndRFingerD2","translation":[7.071074962615967,0.00001907350088004023,0.00003433230085647665]},{"name":"_60_EndRFingerE2","translation":[5.922295093536377,0.0000686646017129533,0.00004196169902570546]},{"name":"_63_EndRFingerF2","translation":[11.089690208435059,0,-0.000007629389983776491]},{"name":"_66_EndRFoot","translation":[18.76671028137207,0,0]},{"name":"_68_EndRToe","translation":[19.757610321044922,-4.768369876728684e-7,0]},{"name":"_69_pm0075_00_Skin"},{"name":"Camera","rotation":[0.483536034822464,0.33687159419059753,-0.20870360732078552,0.7804827094078064],"translation":[7.481131553649902,5.34366512298584,6.5076398849487305]},{"mesh":0,"name":"Graveler","rotation":[5.960464477539063e-8,0,0,1],"scale":[1.0000001192092896,1,1],"skin":0},{"name":"Lamp","rotation":[0.16907575726509094,0.7558802962303162,-0.27217137813568115,0.570947527885437],"scale":[1,1,0.9999999403953552],"translation":[4.076245307922363,5.903861999511719,-1.0054539442062378]},{"children":[29,30,32,45,58,63,76,89],"name":"_02_Origin__03_Waist","rotation":[-0.5,-0.5000000596046448,0.5000000596046448,0.5],"scale":[1,0.9999999403953552,1],"translation":[-2.54521986880953e-15,42.39789962768555,0.8314629793167114]},{"name":"_02_Origin__04_EndWaist","translation":[28.741886138916016,-5.364418029785156e-7,-0.0000012563768905238248]},{"children":[31],"name":"_02_Origin__05_Jaw","rotation":[0,-0.7649479508399963,0,0.6440922617912292],"scale":[0.9999999403953552,1,0.9999999403953552],"translation":[7.001636505126953,-28.218807220458984,0.000027099024009658024]},{"name":"_02_Origin__06_EndJaw","rotation":[-1.0148687579203397e-7,-2.9802322387695312e-8,1.5223033500433303e-8,1],"translation":[0.5128079056739807,-17.425203323364258,2.9673798084259033]},{"children":[33],"name":"_02_Origin__07_LArm","rotation":[0,0.7071068286895752,0,0.7071068286895752],"translation":[27.831911087036133,6.282240390777588,-34.31888961791992]},{"children":[34],"name":"_02_Origin__08_LForeArm","translation":[31.135196685791016,0,0]},{"children":[35,36,39,42],"name":"_02_Origin__09_LHand","scale":[1,0.9999999403953552,1],"translation":[25.449005126953125,-4.76837158203125e-7,-0.00000762939453125]},{"name":"_02_Origin__10_EndLHand","translation":[36.53150177001953,-4.76837158203125e-7,0]},{"children":[37],"name":"_02_Origin__11_LFingerA1","rotation":[0,0.999732255935669,0,0.023142177611589432],"scale":[0.9999999403953552,0.9999998211860657,0.9999999403953552],"translation":[20.54846954345703,-6.323101997375488,4.868553161621094]},{"children":[38],"name":"_02_Origin__12_LFingerA2","rotation":[0,-0.06238103285431862,0,0.9980524182319641],"translation":[-8.520743370056152,-0.000001430511474609375,0.791132926940918]},{"name":"_02_Origin__13_EndLFingerA2","translation":[-9.12450122833252,0.000004708766937255859,3.250997543334961]},{"children":[40],"name":"_02_Origin__14_LFingerB1","rotation":[0,0.9997466802597046,0,0.022508909925818443],"scale":[0.9999999403953552,1,0.9999999403953552],"translation":[20.319618225097656,6.196060657501221,4.880897521972656]},{"children":[41],"name":"_02_Origin__15_LFingerB2","rotation":[0,-0.06857064366340637,0,0.9976463317871094],"translation":[-8.764881134033203,0.00000476837158203125,0.7913813591003418]},{"name":"_02_Origin__16_EndLFingerB2","rotation":[0,7.450580596923828e-9,0,1],"translation":[-8.71915340423584,0.00000286102294921875,3.3272151947021484]},{"children":[43],"name":"_02_Origin__17_LFingerC1","rotation":[0,0.32199156284332275,0,0.9467425346374512],"scale":[0.9999999403953552,1,0.9999999403953552],"translation":[10.70361328125,-10.780092239379883,-9.425041198730469]},{"children":[44],"name":"_02_Origin__18_LFingerC2","rotation":[0,-0.03228281810879707,0,0.999478816986084],"translation":[10.153091430664062,-3.056023597717285,1.9223594665527344]},{"name":"_02_Origin__19_EndLFingerC2","scale":[1,0.9999999403953552,1],"translation":[8.510181427001953,-1.9997167587280273,1.2815666198730469]},{"children":[46],"name":"_02_Origin__20_LArm2","rotation":[0,0.7071075439453125,0,0.7071060538291931],"translation":[-0.16605129837989807,-20.616506576538086,-30.783292770385742]},{"children":[47],"name":"_02_Origin__21_LForeArm2","rotation":[0,5.7371721595700365e-8,0,1],"translation":[7.968397617340088,-13.991422653198242,0.000013682692951988429]},{"children":[48,49,52,55],"name":"_02_Origin__22_LHand2","rotation":[0,1.9710682863660622e-8,0,1],"translation":[7.296441078186035,-12.81155776977539,0.00001849428372224793]},{"name":"_02_Origin__23_EndLHand2","rotation":[2.9802311729554276e-8,0,0,1],"translation":[11.951346397399902,-20.984928131103516,0.000027298650820739567]},{"children":[50],"name":"_02_Origin__24_LFingerD1","rotation":[2.432898149606899e-8,-0.6012177467346191,-1.8304699977989003e-8,0.7990853786468506],"translation":[5.710543632507324,-7.9791259765625,1.846269965171814]},{"children":[51],"name":"_02_Origin__25_LFingerD2","rotation":[-2.5861993435682962e-8,-0.0840156301856041,5.565013694308618e-8,0.9964644312858582],"scale":[1,1.0000001192092896,1],"translation":[-0.1321556121110916,-5.642312049865723,-1.6253670454025269]},{"name":"_02_Origin__26_EndLFingerD2","rotation":[6.089211268545114e-8,-1.4901162970204496e-8,-1.1102230246251565e-16,1],"translation":[-0.6170997023582458,-7.004929542541504,-0.7410822510719299]},{"children":[53],"name":"_02_Origin__27_LFingerE1","rotation":[0,-0.5900353193283081,0,0.8073774576187134],"translation":[5.576086044311523,-7.834033966064453,-8.060201644897461]},{"children":[54],"name":"_02_Origin__28_LFingerE2","rotation":[-3.307530960228178e-8,-0.09045736491680145,-2.7567169880171605e-8,0.9959003329277039],"translation":[0.17692947387695312,-6.066558837890625,-1.813044548034668]},{"name":"_02_Origin__29_EndLFingerE2","rotation":[6.089210558002378e-8,-1.4901161193847656e-8,6.089210558002378e-8,1],"scale":[1,1.0000001192092896,1],"translation":[-0.2735280990600586,-5.880068302154541,-0.6516295075416565]},{"children":[56],"name":"_02_Origin__30_LFingerF1","rotation":[1.5222562793626437e-11,0.9999999403953552,4.0594724026732365e-8,0.0003749887109734118],"scale":[0.9999999403953552,1,0.9999999403953552],"translation":[-3.802539587020874,-4.527679443359375,4.93198823928833]},{"children":[57],"name":"_02_Origin__31_LFingerF2","rotation":[3.995868169681671e-8,-0.17632775008678436,-7.157978654248609e-9,0.9843315482139587],"translation":[-0.03875530883669853,-6.461498260498047,-2.264536142349243]},{"name":"_02_Origin__32_EndLFingerF2","rotation":[-2.396258325364784e-16,1.4901161193847656e-8,3.044605634272557e-8,1],"translation":[-1.2390766143798828,-10.993698120117188,0.7647342681884766]},{"children":[59],"name":"_02_Origin__33_LThigh","rotation":[0,-0.9938675165176392,0,0.1105773076415062],"translation":[-19.819833755493164,0.07548850774765015,-17.55556869506836]},{"children":[60,61],"name":"_02_Origin__34_LFoot","rotation":[0,-0.7770903706550598,0,0.6293890476226807],"translation":[14.815567016601562,3.421849250793457,3.338163375854492]},{"name":"_02_Origin__35_EndLFoot","rotation":[0,-3.67872416973114e-8,0,1],"translation":[1.7881393432617188e-7,-18.76670265197754,4.3213367462158203e-7]},{"children":[62],"name":"_02_Origin__36_LToe","rotation":[0,3.073364496231079e-8,0,1],"translation":[0.000017315149307250977,-15.991096496582031,-4.39494514465332]},{"name":"_02_Origin__37_EndLToe","translation":[-0.0000019334256649017334,-19.757606506347656,-7.152557373046875e-7]},{"children":[64],"name":"_02_Origin__38_RArm","rotation":[0,-0.7071093916893005,0,0.7071042060852051],"scale":[0.9999999403953552,0.9999998211860657,0.9999999403953552],"translation":[27.8316707611084,6.28223991394043,34.31909942626953]},{"children":[65],"name":"_02_Origin__39_RForeArm","rotation":[0,2.7818032322102226e-8,0,1],"translation":[31.13520622253418,-9.5367431640625e-7,-0.00000866816844791174]},{"children":[66,67,70,73],"name":"_02_Origin__40_RHand","rotation":[0,-2.2737367544323206e-13,0,1],"translation":[25.449010848999023,4.76837158203125e-7,-0.000007789232768118382]},{"name":"_02_Origin__41_EndRHand","rotation":[0,-2.2737367544323206e-13,0,1],"translation":[36.531829833984375,4.76837158203125e-7,-0.000007572467438876629]},{"children":[68],"name":"_02_Origin__42_RFingerA1","rotation":[0,-0.02314360998570919,0,0.999732255935669],"translation":[20.54877471923828,-6.323102951049805,-4.8685126304626465]},{"children":[69],"name":"_02_Origin__43_RFingerA2","rotation":[0,-0.06238090991973877,0,0.9980524182319641],"translation":[8.55720329284668,4.76837158203125e-7,-0.00007390975952148438]},{"name":"_02_Origin__44_EndRFingerA2","rotation":[0,-7.450580596923828e-9,0,1],"translation":[9.686492919921875,0.000004291534423828125,-0.0000152587890625]},{"children":[71],"name":"_02_Origin__45_RFingerB1","rotation":[0,-0.022509105503559113,0,0.9997467398643494],"translation":[20.319808959960938,6.196020603179932,-4.880908966064453]},{"children":[72],"name":"_02_Origin__46_RFingerB2","rotation":[0,-0.06857064366340637,0,0.9976463317871094],"translation":[8.79992961883545,-0.0000019073486328125,0.000060558319091796875]},{"name":"_02_Origin__47_EndRFingerB2","translation":[9.332599639892578,0.0000057220458984375,-0.0000438690185546875]},{"children":[74],"name":"_02_Origin__48_RFingerC1","rotation":[0,-0.014525380916893482,0,0.9998944997787476],"translation":[10.703802108764648,-10.780115127563477,9.425092697143555]},{"children":[75],"name":"_02_Origin__49_RFingerC2","rotation":[0,-0.032485488802194595,0,0.9994722604751587],"translation":[9.3516206741333,-3.055978298187256,4.396599769592285]},{"name":"_02_Origin__50_EndRFingerC2","rotation":[0,-3.725290298461914e-9,0,1],"translation":[8.090991020202637,-1.9997262954711914,2.931565284729004]},{"children":[77],"name":"_02_Origin__51_RArm2","rotation":[0,0.7071019411087036,0,0.707111656665802],"translation":[-0.16627749800682068,-20.616405487060547,30.783292770385742]},{"children":[78],"name":"_02_Origin__52_RForeArm2","rotation":[0,1.3679436960956082e-7,0,1],"translation":[-7.968432426452637,-13.991508483886719,0.00005059817340224981]},{"children":[79,80,83,86],"name":"_02_Origin__53_RHand2","rotation":[0,-1.0743269740487449e-7,0,1],"translation":[-7.2964067459106445,-12.811466217041016,0.000042659405153244734]},{"name":"_02_Origin__54_EndRHand2","rotation":[-2.9801849876776032e-8,0,0,1],"translation":[-11.95144271850586,-20.985031127929688,0.00007073639426380396]},{"children":[81],"name":"_02_Origin__55_RFingerD1","rotation":[-1.8701884485494702e-8,0.7891013622283936,-2.4025025524565535e-8,0.6142629981040955],"scale":[0.9999999403953552,1,0.9999999403953552],"translation":[-5.710606575012207,-7.9792022705078125,1.8463371992111206]},{"children":[82],"name":"_02_Origin__56_RFingerD2","rotation":[2.557698719485302e-9,-0.08400753140449524,3.0338437539967344e-8,0.9964651465415955],"scale":[0.9999998807907104,1,0.9999998807907104],"translation":[0.9339407086372375,-5.642210960388184,-1.3368148803710938]},{"name":"_02_Origin__57_EndRFingerD2","rotation":[3.8163916471489756e-16,3.725290298461914e-9,-5.551115123125783e-17,1],"translation":[0.7472692131996155,-7.005013465881348,-0.6095530390739441]},{"children":[84],"name":"_02_Origin__58_RFingerE1","rotation":[-4.9349601738413185e-8,0.7940652966499329,-6.44697522034221e-8,0.6078324317932129],"translation":[-5.576140403747559,-7.834014892578125,-8.060162544250488]},{"children":[85],"name":"_02_Origin__59_RFingerE2","rotation":[7.3778103626409575e-9,-0.09087154269218445,8.08535460805615e-8,0.9958627223968506],"translation":[0.8338634371757507,-6.066606521606445,-1.619671106338501]},{"name":"_02_Origin__60_EndRFingerE2","rotation":[-3.044605989543925e-8,-3.725290742551124e-9,-1.5223029947719624e-8,1],"translation":[0.40304866433143616,-5.8799920082092285,-0.5803977847099304]},{"children":[87],"name":"_02_Origin__61_RFingerF1","rotation":[0,-0.9498279690742493,0,0.31277281045913696],"translation":[3.8025121688842773,-4.5277099609375,4.931999683380127]},{"children":[88],"name":"_02_Origin__62_RFingerF2","rotation":[-9.941456546869176e-9,-0.20104838907718658,2.0403763123511e-9,0.979581356048584],"translation":[1.3753280639648438,-6.461498260498047,-1.7994098663330078]},{"name":"_02_Origin__63_EndRFingerF2","rotation":[6.08921197908785e-8,-7.450580596923828e-9,-4.440892098500626e-16,1],"translation":[1.3240989446640015,-10.99368667602539,0.6057411432266235]},{"children":[90],"name":"_02_Origin__64_RThigh","rotation":[0,-0.9938672780990601,0,0.11057981848716736],"translation":[-19.81996726989746,0.07548898458480835,17.555421829223633]},{"children":[91,92],"name":"_02_Origin__65_RFoot","rotation":[0,-0.7809621095657349,0,0.6245784163475037],"scale":[1,0.9999998807907104,1],"translation":[14.81556224822998,3.4218478202819824,3.33815860748291]},{"name":"_02_Origin__66_EndRFoot","rotation":[0,3.725290653733282e-8,0,1],"translation":[-0.000001356679376840475,-18.766712188720703,3.5430593925411813e-7]},{"children":[93],"name":"_02_Origin__67_RToe","rotation":[0,3.725290298461914e-8,0,1],"scale":[1,0.9999999403953552,1],"translation":[0.000019296707250759937,-15.991098403930664,-4.394947528839111]},{"name":"_02_Origin__68_EndRToe","rotation":[0,3.5561831257524545e-15,0,1],"translation":[-0.0000019073486328125,-19.757625579833984,-4.768370445162873e-7]}],"samplers":[{}],"scene":0,"scenes":[{"name":"Scene","nodes":[23,22,21,20,19,18,17,16,15,14,13,12,11,10,9,8,7,6,5,4,3,2,0,27,25]}],"skins":[{"inverseBindMatrices":0,"joints":[28,29,30,31,32,33,34,35,36,37,38,39,40,41,42,43,44,45,46,47,48,49,50,51,52,53,54,55,56,57,58,59,60,61,62,63,64,65,66,67,68,69,70,71,72,73,74,75,76,77,78,79,80,81,82,83,84,85,86,87,88,89,90,91,92,93],"skeleton":1}],"textures":[{"sampler":0,"source":0},{"sampler":0,"source":1},{"sampler":0,"source":2}],"extensionsUsed":["ALI_amc_mesh_compression"],"extensionsRequired":["ALI_amc_mesh_compression"]}