{"accessors":[{"bufferView":0,"componentType":5126,"count":61,"max":[1,0,1,0,0.8452079892158508,0,1,0,0,-1,0,0,77.16761016845703,102.57809448242188,100.52701568603516,1],"min":[-1,0,-0.8452079892158508,0,-1,0,-1,0,0,-1.0000003576278687,0,0,-127.36491394042969,-126.77775573730469,-135.53729248046875,1],"type":"MAT4","byteOffset":0}],"asset":{"generator":"Khronos Blender glTF 2.0 exporter","version":"2.0"},"bufferViews":[{"buffer":0,"byteLength":3904,"byteOffset":0},{"buffer":0,"byteOffset":3904,"byteLength":3075},{"buffer":0,"byteOffset":6979,"byteLength":89613},{"buffer":0,"byteOffset":96592,"byteLength":71303}],"buffers":[{"byteLength":167895,"uri":"buffer.bin"}],"images":[{"name":"pm0034_00_BodyA1","uri":"pm0034_00_BodyA1.png"},{"name":"pm0034_00_Eye1","uri":"pm0034_00_Eye1.png"},{"name":"pm0034_00_BodyB1","uri":"pm0034_00_BodyB1.png"}],"materials":[{"alphaMode":"OPAQUE","name":"Material__164","pbrMetallicRoughness":{"baseColorFactor":[0.6400000190734865,0.6400000190734865,0.6400000190734865,1],"baseColorTexture":{"index":0},"metallicFactor":0}},{"alphaMode":"OPAQUE","name":"Material__165","pbrMetallicRoughness":{"baseColorFactor":[0.6400000190734865,0.6400000190734865,0.6400000190734865,1],"baseColorTexture":{"index":1},"metallicFactor":0}},{"alphaMode":"OPAQUE","name":"Material__166","pbrMetallicRoughness":{"baseColorFactor":[0.6400000190734865,0.6400000190734865,0.6400000190734865,1],"baseColorTexture":{"index":2},"metallicFactor":0}}],"meshes":[{"name":"Nidoking","primitives":[{"material":1,"extensions":{"ALI_amc_mesh_compression":{"bufferView":1}}},{"material":0,"extensions":{"ALI_amc_mesh_compression":{"bufferView":2}}},{"material":2,"extensions":{"ALI_amc_mesh_compression":{"bufferView":3}}}]}],"nodes":[{"children":[3,4],"name":"Armature","scale":[0.02539999969303608,0.02539999969303608,0.02539999969303608]},{"name":"Camera","rotation":[0.483536034822464,0.33687159419059753,-0.20870360732078552,0.7804827094078064],"translation":[7.481131553649902,5.34366512298584,6.5076398849487305]},{"name":"Lamp","rotation":[0.16907575726509094,0.7558802962303162,-0.27217137813568115,0.570947527885437],"scale":[1,1,0.9999999403953552],"translation":[4.076245307922363,5.903861999511719,-1.0054539442062378]},{"mesh":0,"name":"Nidoking","skin":0},{"children":[5,64],"name":"Armature_pm0034_00","rotation":[-0.7071068286895752,0,0,0.7071068286895752]},{"children":[6],"name":"Armature_Origin"},{"children":[7,44],"name":"Armature_Waist","rotation":[0,-0.8990004062652588,0,0.4379480481147766],"translation":[0,-24.63530158996582,60.12189865112305]},{"children":[8],"name":"Armature_Spine1","rotation":[0,4.6193599700927734e-7,0,1],"translation":[0.000004121435267734341,-0.000011444091796875,-0.00004792039544554427]},{"children":[9,21,33],"name":"Armature_Spine2","rotation":[0,0.05014082044363022,0,0.9987421631813049],"translation":[8.285722732543945,-8.236919403076172,-6.486032962799072]},{"children":[10],"name":"Armature_RShoulder","rotation":[0,-0.39223381876945496,0,0.9198655486106873],"scale":[0.9999998807907104,1,0.9999998807907104],"translation":[10.912158012390137,-13.895538330078125,1.8930144309997559]},{"children":[11],"name":"Armature_RArm","rotation":[0,-0.10063683241605759,0,0.9949232339859009],"translation":[23.417295455932617,0.38094329833984375,0.3796663284301758]},{"children":[12],"name":"Armature_RForeArm","rotation":[0,1.331500243395567e-7,0,1],"translation":[25.798187255859375,-0.01711273193359375,-0.01709979772567749]},{"children":[13],"name":"Armature_RHandSub","rotation":[0,-1.1920928955078125e-7,0,1],"translation":[21.09147834777832,-0.013980865478515625,-0.013990569859743118]},{"children":[14,15,17,19],"name":"Armature_RHand","translation":[-0.0000024810433387756348,-0.000003814697265625,-0.0000014416873455047607]},{"name":"Armature_EndRHand","translation":[24.687179565429688,-0.016323089599609375,-0.016426078975200653]},{"children":[16],"name":"Armature_RFingerA","translation":[13.91782283782959,-0.6026039123535156,-9.6271390914917]},{"name":"Armature_EndRFingerA","translation":[10.18499755859375,-0.006771087646484375,-0.006776154041290283]},{"children":[18],"name":"Armature_RFingerB","rotation":[0,-0.07376771420240402,0,0.9972754716873169],"translation":[16.071369171142578,3.3430023193359375,-0.4456658959388733]},{"name":"Armature_EndRFingerB","translation":[10.691601753234863,-1.616668701171875,-1.5988273620605469]},{"children":[20],"name":"Armature_RFingerC","translation":[13.90101146697998,-0.40557861328125,7.664182186126709]},{"name":"Armature_EndRFingerC","translation":[9.983089447021484,-0.006572723388671875,-0.006687045097351074]},{"children":[22],"name":"Armature_LShoulder","rotation":[0,0.8322528600692749,0,0.5543962121009827],"scale":[0.9999999403953552,1,0.9999999403953552],"translation":[2.9686033725738525,-13.89554214477539,-10.669933319091797]},{"children":[23],"name":"Armature_LArm","rotation":[0,0.0837843045592308,0,0.9964839220046997],"translation":[23.41717529296875,0.3809547424316406,0.3819422721862793]},{"children":[24],"name":"Armature_LForeArm","rotation":[0,6.170012945005965e-9,0,1],"scale":[0.9999999403953552,1,0.9999999403953552],"translation":[25.798166275024414,-0.01709747314453125,-0.017113706097006798]},{"children":[25],"name":"Armature_LHandSub","rotation":[0,-2.9103833926180656e-11,0,1],"scale":[0.9999999403953552,1,0.9999999403953552],"translation":[21.09150505065918,-0.01398468017578125,-0.01397954672574997]},{"children":[26,27,29,31],"name":"Armature_LHand","scale":[0.9999999403953552,1,0.9999999403953552],"translation":[-0.0000020563602447509766,0.000003814697265625,-0.000010129064321517944]},{"name":"Armature_EndLHand","scale":[0.9999999403953552,1,0.9999999403953552],"translation":[24.686878204345703,-0.01638031005859375,-0.016373921185731888]},{"children":[28],"name":"Armature_LFingerA","scale":[0.9999999403953552,1,0.9999999403953552],"translation":[13.930658340454102,-0.6025924682617188,9.608746528625488]},{"name":"Armature_EndLFingerA","scale":[0.9999999403953552,1,0.9999999403953552],"translation":[10.184686660766602,-0.006748199462890625,-0.006738271564245224]},{"children":[30],"name":"Armature_LFingerB","rotation":[0,-0.07387483865022659,0,0.9972675442695618],"scale":[0.9999999403953552,1,0.9999999403953552],"translation":[16.071847915649414,3.343006134033203,0.42441216111183167]},{"name":"Armature_EndLFingerB","rotation":[0,7.450581485102248e-9,0,1],"scale":[0.9999999403953552,1,0.9999999403953552],"translation":[10.691901206970215,-1.6166267395019531,-1.5988550186157227]},{"children":[32],"name":"Armature_LFingerC","rotation":[0,-1.8335415408188283e-9,0,1],"scale":[0.9999999403953552,1,0.9999999403953552],"translation":[13.890826225280762,-0.4055671691894531,-7.682618141174316]},{"name":"Armature_EndLFingerC","scale":[0.9999999403953552,1,0.9999999403953552],"translation":[9.98352336883545,-0.00661468505859375,-0.006640736013650894]},{"children":[34],"name":"Armature_Neck","rotation":[0,-0.16609935462474823,0,0.9861091375350952],"translation":[16.485004425048828,-12.332584381103516,-10.423638343811035]},{"children":[35,36,38,41],"name":"Armature_Head","rotation":[0,-0.3302854597568512,0,0.9438811540603638],"scale":[0.9999999403953552,1,0.9999999403953552],"translation":[6.47105073928833,-13.013484954833984,-8.114217758178711]},{"name":"Armature_EndHead","rotation":[0,1.3909016161051113e-8,0,1],"translation":[-1.4551915228366852e-11,-44.35979461669922,-0.000015259058272931725]},{"children":[37],"name":"Armature_Jaw","rotation":[0,-0.9021997451782227,0,0.4313184916973114],"translation":[0.0001251665671588853,-11.517158508300781,1.3742828369140625]},{"name":"Armature_EndJaw","rotation":[0,4.470348358154297e-8,0,1],"translation":[18.685258865356445,-19.370880126953125,-15.075752258300781]},{"children":[39],"name":"Armature_LEar1","rotation":[0,-0.9988527894020081,0,0.04788629338145256],"scale":[1,0.9999999403953552,1],"translation":[-16.513540267944336,-16.677581787109375,-8.180628776550293]},{"children":[40],"name":"Armature_LEar2","rotation":[0,-7.450580596923828e-8,0,1],"translation":[15.609960556030273,6.84881591796875,10.826833724975586]},{"name":"Armature_EndLEar2","scale":[1,0.9999999403953552,1],"translation":[21.513839721679688,9.439083099365234,14.921666145324707]},{"children":[42],"name":"Armature_REar1","rotation":[0,0.34534454345703125,0,0.9384760856628418],"translation":[16.513460159301758,-16.677978515625,-8.18138599395752]},{"children":[43],"name":"Armature_REar2","translation":[18.63850212097168,6.848869323730469,3.673748016357422]},{"name":"Armature_EndREar2","translation":[25.687763214111328,9.439102172851562,5.063499450683594]},{"children":[45,51,57,63],"name":"Armature_Hips","rotation":[0,-0.9453654289245605,0,0.3260127902030945],"scale":[1,0.9999997019767761,1],"translation":[-0.000014493734852294438,0,-0.000014700479368912056]},{"children":[46],"name":"Armature_LThigh","rotation":[0,-0.16498789191246033,0,0.9862956404685974],"translation":[16.95380210876465,5.5716094970703125,31.969539642333984]},{"children":[47],"name":"Armature_LLeg","rotation":[0,0.29123634099960327,0,0.9566511511802673],"translation":[17.854576110839844,-5.445098876953125,-3.102642059326172]},{"children":[48,50],"name":"Armature_LFoot","rotation":[0,-0.7926862835884094,0,0.6096298098564148],"translation":[18.88668441772461,4.441587448120117,2.58695387840271]},{"children":[49],"name":"Armature_LToe","rotation":[0,-1.503576640971005e-8,0,1],"translation":[9.409640312194824,-17.808805465698242,-1.968241810798645]},{"name":"Armature_EndLToe","translation":[8.07175350189209,-15.276542663574219,0.0005211068782955408]},{"name":"Armature_EndLFoot","rotation":[0,-1.2787495506927371e-8,0,1],"translation":[17.49968910217285,-33.119712829589844,0.001130367862060666]},{"children":[52],"name":"Armature_RThigh","rotation":[0,-0.16498783230781555,0,0.9862956404685974],"scale":[0.9999999403953552,1,0.9999999403953552],"translation":[16.95383644104004,5.571409225463867,-31.969614028930664]},{"children":[53],"name":"Armature_RLeg","rotation":[0,0.291236013174057,0,0.9566512703895569],"translation":[15.981887817382812,-5.445005416870117,-8.543474197387695]},{"children":[54,55],"name":"Armature_RFoot","rotation":[0,-0.7926852107048035,0,0.6096311807632446],"scale":[1,0.9999999403953552,1],"translation":[17.68213653564453,4.441509246826172,7.123335838317871]},{"name":"Armature_EndRFoot","rotation":[0,-5.897163646295667e-9,0,1],"translation":[-17.499649047851562,-33.1197624206543,0.0032471944577991962]},{"children":[56],"name":"Armature_RToe","rotation":[0,-1.8259015632793307e-8,0,1],"translation":[-9.409930229187012,-17.808792114257812,-1.9671151638031006]},{"name":"Armature_EndRToe","translation":[-8.071660995483398,-15.276603698730469,0.0014960085973143578]},{"children":[58],"name":"Armature_Tail1","rotation":[0,-0.680065393447876,0,0.7331514358520508],"translation":[24.525833129882812,28.47198486328125,-0.000033585820347070694]},{"children":[59],"name":"Armature_Tail2","rotation":[0,-0.014771867543458939,0,0.999890923500061],"translation":[0.14066550135612488,24.929588317871094,-1.870336890220642]},{"children":[60],"name":"Armature_Tail3","rotation":[0,-0.008608893491327763,0,0.9999630451202393],"translation":[0.050771135836839676,24.46201515197754,-1.1139005422592163]},{"children":[61],"name":"Armature_Tail4","rotation":[0,-0.012768056243658066,0,0.9999185800552368],"translation":[0.016476890072226524,20.631267547607422,-0.5845064520835876]},{"children":[62],"name":"Armature_Tail5","rotation":[0,-8.149072527885437e-10,0,1],"scale":[1,0.9999999403953552,1],"translation":[0.0001370858371956274,23.113525390625,-0.06526610255241394]},{"name":"Armature_EndTail5","scale":[1,0.9999999403953552,1],"translation":[0.00017707986989989877,29.80467987060547,-0.08416618406772614]},{"name":"Armature_EndHips","rotation":[0,-7.9466531133221e-9,0,1],"translation":[50.86349868774414,0,0.000003324590579723008]},{"name":"Armature_pm0034_00_Skin"}],"samplers":[{}],"scene":0,"scenes":[{"name":"Scene","nodes":[0,2,1]}],"skins":[{"inverseBindMatrices":0,"joints":[4,5,6,7,8,9,10,11,12,13,14,15,16,17,18,19,20,21,22,23,24,25,26,27,28,29,30,31,32,33,34,35,36,37,38,39,40,41,42,43,44,45,46,47,48,49,50,51,52,53,54,55,56,57,58,59,60,61,62,63,64],"skeleton":0}],"textures":[{"sampler":0,"source":0},{"sampler":0,"source":1},{"sampler":0,"source":2}],"extensionsUsed":["ALI_amc_mesh_compression"],"extensionsRequired":["ALI_amc_mesh_compression"]}