{"accessors":[{"bufferView":0,"componentType":5126,"count":66,"max":[0.148691788315773,5.960507110103208e-8,1.0000001192092896,0,0.9999998807907104,5.434492322820006e-8,0.14869175851345062,0,4.6631771510874387e-7,-0.9999998807907104,5.960507110103208e-8,0,102.2911148071289,42.894161224365234,25.622173309326172,1],"min":[-1.0728442845220343e-7,-5.960465188081798e-8,-1.0000001192092896,0,-0.9999998807907104,-4.6631771510874387e-7,-1.07284400030494e-7,0,-1.1920926112907182e-7,-1,-5.9604641222676946e-8,0,-170.7877960205078,-17.225786209106445,-25.622270584106445,1],"type":"MAT4","byteOffset":0}],"asset":{"generator":"Khronos Blender glTF 2.0 exporter","version":"2.0"},"bufferViews":[{"buffer":0,"byteLength":4224,"byteOffset":0},{"buffer":0,"byteOffset":4224,"byteLength":1871},{"buffer":0,"byteOffset":6095,"byteLength":89175},{"buffer":0,"byteOffset":95270,"byteLength":60793}],"buffers":[{"byteLength":156063,"uri":"buffer.bin"}],"images":[{"name":"pm0073_00_BodyA1","uri":"pm0073_00_BodyA1.png"},{"name":"pm0073_00_BodyB1","uri":"pm0073_00_BodyB1.png"},{"name":"pm0073_00_Eye1","uri":"pm0073_00_Eye1.png"}],"materials":[{"alphaMode":"OPAQUE","name":"BodyATattu","pbrMetallicRoughness":{"baseColorFactor":[0.6400000190734865,0.6400000190734865,0.6400000190734865,1],"baseColorTexture":{"index":0},"metallicFactor":0}},{"alphaMode":"OPAQUE","name":"BodyBTattu","pbrMetallicRoughness":{"baseColorFactor":[0.6400000190734865,0.6400000190734865,0.6400000190734865,1],"baseColorTexture":{"index":1},"metallicFactor":0}},{"alphaMode":"OPAQUE","name":"Eye","pbrMetallicRoughness":{"baseColorFactor":[0.6400000190734865,0.6400000190734865,0.6400000190734865,1],"baseColorTexture":{"index":2},"metallicFactor":0}}],"meshes":[{"name":"Tentacruel","primitives":[{"material":2,"extensions":{"ALI_amc_mesh_compression":{"bufferView":1}}},{"material":1,"extensions":{"ALI_amc_mesh_compression":{"bufferView":2}}},{"material":0,"extensions":{"ALI_amc_mesh_compression":{"bufferView":3}}}]}],"nodes":[{"children":[1,15],"name":"_01_pm0073_00","rotation":[0.7071068286895752,0,0,0.7071067094802856],"scale":[0.02539999783039093,0.02539999969303608,0.02539999969303608]},{"children":[18,19],"name":"_02_Origin"},{"name":"_04_EndWaist","translation":[60.34978103637695,0,1.1641500263781523e-10]},{"name":"_06_EndFeelerA","translation":[60.50238037109375,-0.000003814699994109105,1.1641500263781523e-10]},{"name":"_08_EndFeelerB","translation":[59.53248977661133,-0.0000019073499970545527,0]},{"name":"_14_EndLFeelerA5","translation":[20.624300003051758,-0.0000019073499970545527,0.00001382830032525817]},{"name":"_20_EndLFeelerB5","translation":[19.307899475097656,-0.000007629389983776491,-9.536739753457368e-7]},{"name":"_26_EndLFeelerC5","translation":[18.953899383544922,0.000005722049991163658,-0.000020027200662298128]},{"name":"_32_EndLFeelerD5","translation":[19.968900680541992,-0.000017166099496535026,0.000004291529876354616]},{"name":"_38_EndLFeelerE5","translation":[19.521299362182617,-0.000003814699994109105,0.000019788700228673406]},{"name":"_44_EndRFeelerA5","translation":[20.624300003051758,0.0000019073499970545527,-0.0000014305099966804846]},{"name":"_50_EndRFeelerB5","translation":[19.307899475097656,0.000022888199964654632,-0.00009727480210131034]},{"name":"_56_EndRFeelerC5","translation":[18.953899383544922,0.000003814699994109105,-0.000004291529876354616]},{"name":"_62_EndRFeelerD5","translation":[19.968900680541992,-0.000007629389983776491,-0.000009059909643838182]},{"name":"_68_EndRFeelerE5","translation":[19.521400451660156,-0.000043869000364793465,0.00009059909643838182]},{"name":"_69_pm0073_00_Skin"},{"name":"Camera","rotation":[0.483536034822464,0.33687159419059753,-0.20870360732078552,0.7804827094078064],"translation":[7.481131553649902,5.34366512298584,6.5076398849487305]},{"name":"Lamp","rotation":[0.16907575726509094,0.7558802962303162,-0.27217137813568115,0.570947527885437],"scale":[1,1,0.9999999403953552],"translation":[4.076245307922363,5.903861999511719,-1.0054539442062378]},{"mesh":0,"name":"Tentacruel","rotation":[5.960464477539063e-8,0,0,1],"scale":[1.0000001192092896,1,1],"skin":0},{"children":[20,21,23,25,31,37,43,49,55,61,67,73,79],"name":"_02_Origin__03_Waist","rotation":[-0.5,-0.5000000596046448,0.5000000596046448,0.5],"scale":[1,0.9999999403953552,1],"translation":[-6.2214201516496304e-15,110.4380111694336,8.834720611572266]},{"name":"_02_Origin__04_EndWaist","translation":[60.34978485107422,-9.5367431640625e-7,-0.0000026380894269095734]},{"children":[22],"name":"_02_Origin__05_FeelerA","rotation":[0,0.997217059135437,0,0.0745532289147377],"translation":[-11.98309326171875,-25.063613891601562,-0.000043758907850133255]},{"name":"_02_Origin__06_EndFeelerA","rotation":[0,5.960465188081798e-8,0,1],"scale":[0.9999999403953552,0.9999999403953552,0.9999999403953552],"translation":[59.164817810058594,-8.995826721191406,-8.895854949951172]},{"children":[24],"name":"_02_Origin__07_FeelerB","rotation":[0,1,0,-7.549790126404332e-8],"translation":[-16.528213500976562,24.487804412841797,-0.00006035733167664148]},{"name":"_02_Origin__08_EndFeelerB","rotation":[-2.2758200489067515e-13,-3.178651297730539e-8,7.234038576835746e-21,1],"translation":[59.53248977661133,0.000003814697265625,0.000006386909262801055]},{"children":[26],"name":"_02_Origin__09_LFeelerA1","rotation":[0,1,0,-7.549790126404332e-8],"translation":[-11.50765323638916,-17.529708862304688,-14.179646492004395]},{"children":[27],"name":"_02_Origin__10_LFeelerA2","rotation":[0,-3.178651297730539e-8,0,1],"translation":[13.254690170288086,0.0000057220458984375,0.00007568534783786163]},{"children":[28],"name":"_02_Origin__11_LFeelerA3","translation":[19.95580291748047,-0.0000019073486328125,0.00011729025573004037]},{"children":[29],"name":"_02_Origin__12_LFeelerA4","translation":[22.927600860595703,-0.0000019073486328125,0.00013736594701185822]},{"children":[30],"name":"_02_Origin__13_LFeelerA5","rotation":[2.9802489365238216e-8,0,0,1],"translation":[21.39541244506836,0.000003814697265625,0.0001268570777028799]},{"name":"_02_Origin__14_EndLFeelerA5","rotation":[-2.9802322387695312e-8,0,-7.04751419546644e-23,1],"translation":[20.624300003051758,-0.000008691539733263198,-0.000010860084330488462]},{"children":[32],"name":"_02_Origin__15_LFeelerB1","rotation":[0,1,0,-7.549790126404332e-8],"translation":[-11.061211585998535,-4.134421348571777,-23.494739532470703]},{"children":[33],"name":"_02_Origin__16_LFeelerB2","rotation":[0,-3.178651297730539e-8,0,1],"translation":[12.972691535949707,0.0000019073486328125,0.00001171102121588774]},{"children":[34],"name":"_02_Origin__17_LFeelerB3","translation":[17.22029685974121,-0.0000019073486328125,0.000006512622803711565]},{"children":[35],"name":"_02_Origin__18_LFeelerB4","translation":[18.785696029663086,9.5367431640625e-7,0.000013055818271823227]},{"children":[36],"name":"_02_Origin__19_LFeelerB5","translation":[18.211790084838867,-9.5367431640625e-7,0.000019573926692828536]},{"name":"_02_Origin__20_EndLFeelerB5","translation":[19.307899475097656,9.5367431640625e-7,-0.0000043776308302767575]},{"children":[38],"name":"_02_Origin__21_LFeelerC1","rotation":[0,1,0,-7.549790126404332e-8],"translation":[-9.187508583068848,8.007568359375,-25.622224807739258]},{"children":[39],"name":"_02_Origin__22_LFeelerC2","rotation":[0,-3.178651297730539e-8,0,1],"translation":[13.74223804473877,8.940696716308594e-7,0.000009685213626653422]},{"children":[40],"name":"_02_Origin__23_LFeelerC3","translation":[15.668601036071777,0.0000018477439880371094,0.000019747973055928014]},{"children":[41],"name":"_02_Origin__24_LFeelerC4","translation":[18.14069938659668,0.00001138448715209961,0.0000014674412796011893]},{"children":[42],"name":"_02_Origin__25_LFeelerC5","translation":[19.517404556274414,0.0000018477439880371094,0.000021394060240709223]},{"name":"_02_Origin__26_EndLFeelerC5","translation":[18.953899383544922,0.00001996755599975586,-6.656217692579958e-7]},{"children":[44],"name":"_02_Origin__27_LFeelerD1","rotation":[0,1,0,-7.549790126404332e-8],"translation":[-8.146897315979004,18.61660385131836,-22.2938289642334]},{"children":[45],"name":"_02_Origin__28_LFeelerD2","rotation":[0,-3.178651297730539e-8,0,1],"translation":[13.369725227355957,-0.00000762939453125,0.000007626258593518287]},{"children":[46],"name":"_02_Origin__29_LFeelerD3","translation":[15.986006736755371,0.00000762939453125,0.000023514774511568248]},{"children":[47],"name":"_02_Origin__30_LFeelerD4","translation":[18.477907180786133,0,0.000012878377674496733]},{"children":[48],"name":"_02_Origin__31_LFeelerD5","translation":[17.169004440307617,0.000011444091796875,-0.0000035372790989640635]},{"name":"_02_Origin__32_EndLFeelerD5","translation":[19.968900680541992,-0.0000152587890625,-0.000010293805644323584]},{"children":[50],"name":"_02_Origin__33_LFeelerE1","rotation":[0,1,0,-7.549790126404332e-8],"translation":[-10.080315589904785,26.060401916503906,-11.749833106994629]},{"children":[51],"name":"_02_Origin__34_LFeelerE2","rotation":[0,-3.178651297730539e-8,0,1],"translation":[10.990431785583496,0.0000057220458984375,0.000015207817341433838]},{"children":[52],"name":"_02_Origin__35_LFeelerE3","translation":[15.750502586364746,0.000026702880859375,-0.000008939936378737912]},{"children":[53],"name":"_02_Origin__36_LFeelerE4","rotation":[2.9802322387695312e-8,0,0,1],"translation":[18.052078247070312,0.0000057220458984375,-0.000008150855137500912]},{"children":[54],"name":"_02_Origin__37_LFeelerE5","rotation":[8.881784197001252e-16,0,5.293955920339377e-23,1],"translation":[17.73149871826172,0.000012144435459049419,-0.000006495171419373946]},{"name":"_02_Origin__38_EndLFeelerE5","rotation":[-7.916624689130458e-9,-7.837617036767722e-17,8.677710638949065e-8,1],"translation":[19.521305084228516,-0.00001074374722520588,0.000018199989426648244]},{"children":[56],"name":"_02_Origin__39_RFeelerA1","rotation":[0,1,0,-7.549790126404332e-8],"translation":[-11.507758140563965,-17.529701232910156,14.17955493927002]},{"children":[57],"name":"_02_Origin__40_RFeelerA2","rotation":[-2.9802322387695312e-8,-3.178651297730539e-8,9.473118014511977e-16,1],"translation":[13.254701614379883,-0.000003814697265625,0.000008928160241339356]},{"children":[58],"name":"_02_Origin__41_RFeelerA3","rotation":[2.9802320611338473e-8,-5.624828165360588e-23,5.293955920339377e-23,1],"translation":[19.955795288085938,-0.00000106218203654862,0.000011768319382099435]},{"children":[59],"name":"_02_Origin__42_RFeelerA4","rotation":[3.1554436208840472e-30,0,-1.7749370367472766e-30,1],"translation":[22.927597045898438,0.000003814697265625,0.00002387870154052507]},{"children":[60],"name":"_02_Origin__43_RFeelerA5","rotation":[-2.9802322387695312e-8,5.624828165360588e-23,-1.7749370367472766e-30,1],"translation":[21.395301818847656,-0.0000057220458984375,0.000009555131327942945]},{"name":"_02_Origin__44_EndRFeelerA5","rotation":[2.9802320611338473e-8,-5.624828165360588e-23,6.705560663537408e-23,1],"translation":[20.624298095703125,-0.0000029695329430978745,3.0213672630452493e-7]},{"children":[62],"name":"_02_Origin__45_RFeelerB1","rotation":[0,1,0,-7.549790126404332e-8],"translation":[-11.061400413513184,-4.134381294250488,23.494661331176758]},{"children":[63],"name":"_02_Origin__46_RFeelerB2","rotation":[0,-3.178651297730539e-8,0,1],"translation":[12.972681999206543,0.0000019073486328125,0.000019340433937031776]},{"children":[64],"name":"_02_Origin__47_RFeelerB3","translation":[17.22031593322754,-0.00000286102294921875,0.000006512631443911232]},{"children":[65],"name":"_02_Origin__48_RFeelerB4","translation":[18.78568458557129,-0.0000019073486328125,0.000011148476914968342]},{"children":[66],"name":"_02_Origin__49_RFeelerB5","translation":[18.211801528930664,0,0.00001766658533597365]},{"name":"_02_Origin__50_EndRFeelerB5","translation":[19.30790138244629,-0.0001010894775390625,-0.0000043776226448244415]},{"children":[68],"name":"_02_Origin__51_RFeelerC1","rotation":[0,1,0,-7.549790126404332e-8],"translation":[-9.188017845153809,8.007573127746582,25.622161865234375]},{"children":[69],"name":"_02_Origin__52_RFeelerC2","rotation":[0,-3.178651297730539e-8,0,1],"translation":[13.741991996765137,-0.000003874301910400391,0.000013499939086614177]},{"children":[70],"name":"_02_Origin__53_RFeelerC3","translation":[15.668503761291504,-0.000003874301910400391,0.000019747978512896225]},{"children":[71],"name":"_02_Origin__54_RFeelerC4","translation":[18.140710830688477,-0.0000019669532775878906,0.000018633585568750277]},{"children":[72],"name":"_02_Origin__55_RFeelerC5","translation":[19.517393112182617,-5.960464477539063e-8,0.000015672021618229337]},{"name":"_02_Origin__56_EndRFeelerC5","translation":[18.953903198242188,-0.0000029206275939941406,-0.00000448031232735957]},{"children":[74],"name":"_02_Origin__57_RFeelerD1","rotation":[0,1,0,-7.549790126404332e-8],"translation":[-8.146994590759277,18.61660385131836,22.293771743774414]},{"children":[75],"name":"_02_Origin__58_RFeelerD2","rotation":[0,-3.178651297730539e-8,0,1],"translation":[13.369791984558105,-0.000003814697265625,0.00001525567040516762]},{"children":[76],"name":"_02_Origin__59_RFeelerD3","translation":[15.985993385314941,9.5367431640625e-7,0.000013978036804473959]},{"children":[77],"name":"_02_Origin__60_RFeelerD4","translation":[18.477922439575195,0.000003814697265625,0.000009063686775334645]},{"children":[78],"name":"_02_Origin__61_RFeelerD5","translation":[17.168996810913086,-0.000003814697265625,0.000011721515875251498]},{"name":"_02_Origin__62_EndRFeelerD5","translation":[19.968904495239258,-0.000011444091796875,0.0000030576416065741796]},{"children":[80],"name":"_02_Origin__63_RFeelerE1","rotation":[0,1,0,-7.549790126404332e-8],"translation":[-10.08090877532959,26.060401916503906,11.749761581420898]},{"children":[81],"name":"_02_Origin__64_RFeelerE2","rotation":[0,-3.178651297730539e-8,0,1],"translation":[10.989930152893066,0.000003814697265625,0.000009485781447438058]},{"children":[82],"name":"_02_Origin__65_RFeelerE3","rotation":[2.1885613321614983e-8,3.552713678800501e-15,-1.7355422698983602e-7,1],"translation":[15.750504493713379,0,0.000014901925169397146]},{"children":[83],"name":"_02_Origin__66_RFeelerE4","rotation":[-2.188552805648669e-8,-3.5526990674821608e-15,1.735542127789813e-7,1],"translation":[18.052095413208008,0.00010608377488097176,0.000017798036424210295]},{"children":[84],"name":"_02_Origin__67_RFeelerE5","rotation":[2.1885572465407677e-8,1.7763497454993172e-15,-8.677712060034537e-8,1],"translation":[17.73150634765625,-3.0802027595200343e-12,0.000013605050298792776]},{"name":"_02_Origin__68_EndRFeelerE5","rotation":[7.916874267266394e-9,8.098206722990508e-16,8.677710638949065e-8,1],"translation":[19.521406173706055,-0.000003692363407026278,0.00010144240513909608]}],"samplers":[{}],"scene":0,"scenes":[{"name":"Scene","nodes":[14,13,12,11,10,9,8,7,6,5,4,3,2,0,17,16]}],"skins":[{"inverseBindMatrices":0,"joints":[19,20,21,22,23,24,25,26,27,28,29,30,31,32,33,34,35,36,37,38,39,40,41,42,43,44,45,46,47,48,49,50,51,52,53,54,55,56,57,58,59,60,61,62,63,64,65,66,67,68,69,70,71,72,73,74,75,76,77,78,79,80,81,82,83,84],"skeleton":1}],"textures":[{"sampler":0,"source":0},{"sampler":0,"source":1},{"sampler":0,"source":2}],"extensionsUsed":["ALI_amc_mesh_compression"],"extensionsRequired":["ALI_amc_mesh_compression"]}