{"accessors":[{"bufferView":0,"componentType":5126,"count":64,"max":[1.0000001192092896,1.9242942794761575e-9,1,0,1,9.339871098745789e-7,1.0000001192092896,0,0.0000016091435099951923,-1,0.0000016091435099951923,0,53.993892669677734,121.02069854736328,108.59381866455078,1],"min":[-0.9999999403953552,-1.0794837246308475e-11,-1,0,-1,-0.000001609144078429381,-0.9999999403953552,0,-0.00000160914362368203,-1.0000003576278687,-0.00000160914362368203,0,-167.33334350585938,-67.72560119628906,-112.55645751953125,1],"type":"MAT4","byteOffset":0},{"bufferView":1,"componentType":5126,"count":64,"max":[1.0000001192092896,1.9242942794761575e-9,1,0,1,9.339871098745789e-7,1.0000001192092896,0,0.0000016091435099951923,-1,0.0000016091435099951923,0,53.993892669677734,121.02069854736328,108.59381866455078,1],"min":[-0.9999999403953552,-1.0794837246308475e-11,-1,0,-1,-0.000001609144078429381,-0.9999999403953552,0,-0.00000160914362368203,-1.0000003576278687,-0.00000160914362368203,0,-167.33334350585938,-67.72560119628906,-112.55645751953125,1],"type":"MAT4","byteOffset":0},{"bufferView":2,"componentType":5126,"count":64,"max":[1.0000001192092896,1.9242942794761575e-9,1,0,1,9.339871098745789e-7,1.0000001192092896,0,0.0000016091435099951923,-1,0.0000016091435099951923,0,53.993892669677734,121.02069854736328,108.59381866455078,1],"min":[-0.9999999403953552,-1.0794837246308475e-11,-1,0,-1,-0.000001609144078429381,-0.9999999403953552,0,-0.00000160914362368203,-1.0000003576278687,-0.00000160914362368203,0,-167.33334350585938,-67.72560119628906,-112.55645751953125,1],"type":"MAT4","byteOffset":0},{"bufferView":3,"componentType":5126,"count":64,"max":[1.0000001192092896,1.9242942794761575e-9,1,0,1,9.339871098745789e-7,1.0000001192092896,0,0.0000016091435099951923,-1,0.0000016091435099951923,0,53.993892669677734,121.02069854736328,108.59381866455078,1],"min":[-0.9999999403953552,-1.0794837246308475e-11,-1,0,-1,-0.000001609144078429381,-0.9999999403953552,0,-0.00000160914362368203,-1.0000003576278687,-0.00000160914362368203,0,-167.33334350585938,-67.72560119628906,-112.55645751953125,1],"type":"MAT4","byteOffset":0}],"asset":{"generator":"Khronos Blender glTF 2.0 exporter","version":"2.0"},"bufferViews":[{"buffer":0,"byteLength":4096,"byteOffset":0},{"buffer":0,"byteLength":4096,"byteOffset":4096},{"buffer":0,"byteLength":4096,"byteOffset":8192},{"buffer":0,"byteLength":4096,"byteOffset":12288},{"buffer":0,"byteOffset":16384,"byteLength":111597},{"buffer":0,"byteOffset":127981,"byteLength":3571},{"buffer":0,"byteOffset":131552,"byteLength":1565},{"buffer":0,"byteOffset":133117,"byteLength":6579},{"buffer":0,"byteOffset":139696,"byteLength":12427}],"buffers":[{"byteLength":152123,"uri":"buffer.bin"}],"images":[{"name":"pm0094_00_Body1","uri":"pm0094_00_Body1.png"},{"name":"pm0094_00_Eye1","uri":"pm0094_00_Eye1.png"}],"materials":[{"alphaMode":"OPAQUE","name":"Material__10","pbrMetallicRoughness":{"baseColorFactor":[0.6400000190734865,0.6400000190734865,0.6400000190734865,1],"baseColorTexture":{"index":0},"metallicFactor":0}},{"alphaMode":"OPAQUE","name":"Material__11","pbrMetallicRoughness":{"baseColorFactor":[0.6400000190734865,0.6400000190734865,0.6400000190734865,1],"baseColorTexture":{"index":1},"metallicFactor":0}}],"meshes":[{"name":"Gengar","primitives":[{"material":0,"extensions":{"ALI_amc_mesh_compression":{"bufferView":4}}},{"material":1,"extensions":{"ALI_amc_mesh_compression":{"bufferView":5}}}]},{"name":"Gengar_Mask","primitives":[{"material":0,"extensions":{"ALI_amc_mesh_compression":{"bufferView":6}}}]},{"name":"Gengar_TongueA","primitives":[{"material":0,"extensions":{"ALI_amc_mesh_compression":{"bufferView":7}}}]},{"name":"Gengar_TongueB","primitives":[{"material":0,"extensions":{"ALI_amc_mesh_compression":{"bufferView":8}}}]}],"nodes":[{"children":[2,3,4,5,7],"name":"Armature","scale":[0.02539999969303608,0.02539999969303608,0.02539999969303608]},{"name":"Camera","rotation":[0.483536034822464,0.33687159419059753,-0.20870360732078552,0.7804827094078064],"translation":[7.481131553649902,5.34366512298584,6.5076398849487305]},{"mesh":0,"name":"Gengar","skin":0},{"mesh":1,"name":"Gengar_Mask","skin":1},{"mesh":2,"name":"Gengar_TongueA","skin":2},{"mesh":3,"name":"Gengar_TongueB","skin":3},{"name":"Lamp","rotation":[0.16907575726509094,0.7558802962303162,-0.27217137813568115,0.570947527885437],"scale":[1,1,0.9999999403953552],"translation":[4.076245307922363,5.903861999511719,-1.0054539442062378]},{"children":[8,67,68,69,70],"name":"Armature_pm0094_00","rotation":[-0.7071068286895752,0,0,0.7071068286895752]},{"children":[9],"name":"Armature_Origin"},{"children":[10,26],"name":"Armature_Waist","rotation":[0,-0.7071078419685364,0,0.7071056962013245],"scale":[1,0.9999999403953552,1],"translation":[0.000039018294046400115,-3.8037500381469727,53.993900299072266]},{"children":[11,17,23,24],"name":"Armature_Hips","rotation":[-8.045717549975961e-7,1,1.2116925301661197e-12,0.0000015060094256114098],"scale":[1,0.9999997615814209,1],"translation":[-4.2447823034308385e-11,-2.384185791015625e-7,0.000024981687602121383]},{"children":[12],"name":"Armature_LThigh","rotation":[-5.9088758996619895e-16,-0.018921855837106705,1.7609701471001972e-14,0.9998209476470947],"translation":[10.589994430541992,-4.651806354522705,36.65276336669922]},{"children":[13],"name":"Armature_LLeg","rotation":[6.156504393605008e-15,0.058344289660453796,3.036839697220057e-16,0.9982965588569641],"translation":[23.138357162475586,-0.8767263293266296,-0.8761096596717834]},{"children":[14,16],"name":"Armature_LFoot","rotation":[-4.5303933266524835e-14,-0.7344454526901245,1.5584139068190034e-14,0.6786677837371826],"scale":[0.9999999403953552,1,0.9999999403953552],"translation":[15.083580017089844,1.1964572668075562,1.1927480697631836]},{"children":[15],"name":"Armature_LToe","rotation":[-2.8421756864249054e-14,1.943749339261558e-8,-1.3552527156068805e-19,1],"translation":[-0.017077134922146797,-8.325227737426758,-2.444751501083374]},{"name":"Armature_EndLToe","rotation":[7.335955842791009e-7,5.684579055306033e-14,-1.8973538018496328e-19,1],"translation":[0.000027863898139912635,-11.760506629943848,-0.000030745650292374194]},{"name":"Armature_EndLFoot","rotation":[7.335955842791009e-7,2.3162897377915215e-8,1.6991965424767094e-14,1],"translation":[0.00003708045187522657,-19.40410804748535,-0.0000508454795635771]},{"children":[18],"name":"Armature_RThigh","rotation":[-5.9088758996619895e-16,-0.018921855837106705,1.7609701471001972e-14,0.9998209476470947],"translation":[10.589994430541992,-4.651821613311768,-36.65283966064453]},{"children":[19],"name":"Armature_RLeg","rotation":[2.5975110242918006e-15,0.05834381654858589,3.0484466955754013e-16,0.9982965588569641],"translation":[23.138347625732422,-0.876666247844696,-0.8761107921600342]},{"children":[20,21],"name":"Armature_RFoot","rotation":[1.8114695314374934e-15,-0.7344453930854797,1.6464775506527807e-14,0.6786677837371826],"translation":[15.083582878112793,1.196449637413025,1.192733883857727]},{"name":"Armature_EndRFoot","rotation":[8.174351933121216e-7,3.725290298461914e-9,3.0451992771347467e-15,1],"translation":[0.000011482357876957394,-19.404006958007812,-0.000030214237995096482]},{"children":[22],"name":"Armature_RToe","rotation":[-9.052664623780335e-21,3.725290298461914e-9,-1.461131834013668e-20,1],"translation":[0.017108937725424767,-8.325371742248535,-2.4447438716888428]},{"name":"Armature_EndRToe","rotation":[8.069551995504298e-7,3.926609824176971e-18,3.149907986696885e-24,1],"translation":[0.000007629531864949968,-11.760504722595215,-0.000018948365323012695]},{"name":"Armature_EndHips","translation":[45.727996826171875,0.00007324491889448836,-0.0000016444284938188503]},{"children":[25],"name":"Armature_Tail","rotation":[-3.0884566144763134e-15,0.49182993173599243,1.1162932862416545e-14,0.8706912994384766],"translation":[17.90923500061035,28.30604362487793,-6.437380193347053e-7]},{"name":"Armature_EndTail","rotation":[2.550786188174059e-14,0,9.376505648306388e-15,1],"translation":[13.447920799255371,43.22340393066406,22.312103271484375]},{"children":[27],"name":"Armature_Spine","rotation":[3.01439775918233e-12,-1.1368683772161603e-13,8.045717549975961e-7,1],"translation":[-1.1798562127296464e-10,-2.384185791015625e-7,-1.0913936421275139e-11]},{"children":[28,30,41,43,45,56,61,63],"name":"Armature_Head","rotation":[-7.406618721117475e-15,-0.10351711511611938,3.0362501622887682e-15,0.9946277141571045],"scale":[1,0.9999999403953552,1],"translation":[30.138456344604492,-0.00002284746733494103,-7.216247581709467e-7]},{"children":[29],"name":"Armature_Jaw","rotation":[-2.658243159554992e-14,-0.777222216129303,-1.0614855958730914e-14,0.6292262077331543],"scale":[1.0000001192092896,1,1.0000001192092896],"translation":[-8.689367294311523,15.3042573928833,1.8285269737243652]},{"name":"Armature_EndJaw","rotation":[-1.9537824591693564e-14,-5.960464477539063e-8,-2.25826844203747e-14,1],"translation":[12.821765899658203,-71.43421173095703,28.937772750854492]},{"children":[31],"name":"Armature_LShoulder","rotation":[2.0569631000127812e-14,0.7823610305786133,-1.0472754323367743e-14,0.6228252053260803],"translation":[1.849711537361145,-8.833890914916992,-33.706871032714844]},{"children":[32],"name":"Armature_LArm","rotation":[2.2989639705817133e-14,-0.009344938211143017,3.915157276985603e-16,0.9999563694000244],"scale":[1,0.9999998807907104,1],"translation":[12.62209415435791,0.0000025508841190458043,-0.000023133574359235354]},{"children":[33],"name":"Armature_LForeArm","rotation":[5.684342563707159e-14,1.303851426825986e-8,5.590417451878382e-20,1],"translation":[24.599302291870117,-0.00010035638842964545,-0.055678591132164]},{"children":[34,35,37,39],"name":"Armature_LHand","rotation":[5.684343241333517e-14,2.980232594040899e-8,3.557463092107622e-20,1],"translation":[17.095504760742188,0.00009902268357109278,-0.037999462336301804]},{"name":"Armature_EndLHand","rotation":[8.069550858635921e-7,-4.2601786779951053e-19,1.6940650867150337e-21,1],"scale":[1,0.9999999403953552,1],"translation":[16.457704544067383,7.942117576931196e-7,0.000016343550669262186]},{"children":[36],"name":"Armature_LFingerA","rotation":[5.684340192014907e-14,-2.980232594040899e-8,3.218725199566341e-20,1],"translation":[5.81309700012207,-0.19520065188407898,2.1002962589263916]},{"name":"Armature_EndLFingerA","rotation":[8.045715844673396e-7,-9.355841827917505e-19,2.7104301448533217e-20,1],"scale":[1,0.9999999403953552,1],"translation":[11.155296325683594,0.0000012292553037696052,0.000009867764674709179]},{"children":[38],"name":"Armature_LFingerB","rotation":[4.315444486133191e-14,-0.073526531457901,-6.088775109746962e-16,0.9972932934761047],"translation":[5.38908576965332,-7.31838846206665,1.887996792793274]},{"name":"Armature_EndLFingerB","rotation":[2.885273739220741e-14,0,2.907261020465568e-15,1],"translation":[11.034653663635254,-1.6538556814193726,-1.6359912157058716]},{"children":[40],"name":"Armature_LFingerC","rotation":[3.5996623433745545e-14,0.06250768154859543,2.0863495105134062e-15,0.998044490814209],"translation":[5.607797622680664,5.8387274742126465,1.9520132541656494]},{"name":"Armature_EndLFingerC","rotation":[-2.8345144428235797e-14,0,-4.161602042384834e-15,1],"scale":[0.9999999403953552,0.9999998807907104,0.9999999403953552],"translation":[11.068161964416504,1.4028263092041016,1.3918581008911133]},{"children":[42],"name":"Armature_LEar","rotation":[2.769963078352866e-14,0.6149733662605286,-2.9562720408595963e-14,0.788547933101654],"translation":[31.386966705322266,-9.25301742553711,-36.45125961303711]},{"name":"Armature_EndLEar","rotation":[9.070147383811664e-15,1.4901162970204496e-8,3.282083602834142e-14,1],"scale":[0.9999999403953552,1,0.9999999403953552],"translation":[44.53046798706055,16.25629425048828,15.367053031921387]},{"children":[44],"name":"Armature_FeelerB","rotation":[3.3517862405252298e-15,0.4818020462989807,1.8002164022716885e-14,0.8762801289558411],"translation":[44.67342758178711,-9.606860160827637,-9.400712966918945]},{"name":"Armature_EndFeelerB","rotation":[2.3032790952282056e-14,0,-5.526598601500454e-15,1],"translation":[18.34516716003418,26.94904899597168,18.81399917602539]},{"children":[46],"name":"Armature_RShoulder","rotation":[-2.025528182680869e-14,-0.6373408436775208,-3.986181942524942e-15,0.7705820798873901],"translation":[15.27728271484375,-8.833889961242676,30.102895736694336]},{"children":[47],"name":"Armature_RArm","rotation":[-3.385660146877113e-14,0.009345535188913345,5.632404875073778e-16,0.9999563694000244],"translation":[12.622013092041016,-3.095973397648777e-7,-0.00002598065657366533]},{"children":[48],"name":"Armature_RForeArm","rotation":[-5.6843412084544437e-14,8.703864295966923e-10,0,1],"translation":[24.599191665649414,-0.00009940134623320773,0.055991366505622864]},{"children":[49,51,52,54],"name":"Armature_RHand","rotation":[-5.6843412084544437e-14,2.2737367544323206e-13,-2.168404344971009e-19,1],"translation":[17.09559440612793,0.00010188479791395366,0.03770260885357857]},{"children":[50],"name":"Armature_RFingerC","rotation":[-8.066052505279787e-15,0.06250765174627304,-1.2973454140469587e-15,0.998044490814209],"translation":[5.607797622680664,5.838852405548096,-1.952123999595642]},{"name":"Armature_EndRFingerC","rotation":[5.632359812920984e-14,0,5.81132787968704e-16,1],"scale":[1,1.0000001192092896,1],"translation":[11.068168640136719,1.4028205871582031,1.3918695449829102]},{"name":"Armature_EndRHand","rotation":[-7.335955842791009e-7,2.2736978586793827e-13,-2.574980159653073e-19,1],"scale":[1,0.9999999403953552,1],"translation":[16.457799911499023,7.954994316605735e-7,-0.000006962638508412056]},{"children":[53],"name":"Armature_RFingerA","rotation":[-5.6843412084544437e-14,2.2737367544323206e-13,-2.168404344971009e-19,1],"translation":[5.813118934631348,-0.19530458748340607,-2.1003241539001465]},{"name":"Armature_EndRFingerA","rotation":[-7.335955842791009e-7,2.2736978586793827e-13,-2.574980159653073e-19,1],"scale":[1,0.9999999403953552,1],"translation":[11.15529727935791,0.000001230485850101104,-0.000009647286788094789]},{"children":[55],"name":"Armature_RFingerB","rotation":[-7.10100110223183e-14,-0.07352661341428757,1.3848865867830459e-15,0.9972932934761047],"scale":[0.9999999403953552,1,0.9999999403953552],"translation":[5.389101505279541,-7.318369388580322,-1.887923002243042]},{"name":"Armature_EndRFingerB","rotation":[6.110461800174632e-16,0,5.686098293600228e-16,1],"translation":[11.034236907958984,-1.653891921043396,-1.6359080076217651]},{"children":[57],"name":"Armature_Tongue1","rotation":[-4.524561589513932e-15,-0.49057120084762573,2.091291947760635e-15,0.8714011311531067],"translation":[-50.4261360168457,10.552162170410156,10.611268997192383]},{"children":[58],"name":"Armature_Tongue2","rotation":[1.1136528304351787e-14,-0.1679246723651886,-2.495547315683696e-15,0.9857999086380005],"scale":[0.9999999403953552,0.9999999403953552,0.9999999403953552],"translation":[2.7392470836639404,-23.515836715698242,-7.795644760131836]},{"children":[59],"name":"Armature_Tongue3","rotation":[1.827318073745993e-16,-0.00031249324092641473,-1.0869127606347795e-17,0.9999999403953552],"translation":[-0.0047063580714166164,-34.98393630981445,-0.004603303968906403]},{"children":[60],"name":"Armature_Tongue4","rotation":[-2.8697442371657805e-14,0.0004664977313950658,-2.4828233058640502e-17,0.9999998807907104],"scale":[1,0.9999999403953552,1],"translation":[0.006469776853919029,-36.24482345581055,0.006488951854407787]},{"name":"Armature_EndTongue4","rotation":[-0.000001271565793103946,-2.9103056770063418e-11,1.3823577699190182e-17,1],"translation":[-0.0009577180026099086,-33.02451705932617,-0.0009109430247917771]},{"children":[62],"name":"Armature_REar","rotation":[1.55138438038974e-14,-0.12234526127576828,3.9437051036926227e-14,0.9924876093864441],"translation":[43.41593933105469,-9.25283145904541,20.71050262451172]},{"name":"Armature_EndREar","rotation":[-8.37302232756243e-15,0,-3.1261262025197856e-14,1],"translation":[44.5303840637207,16.25625991821289,15.367055892944336]},{"children":[64,65],"name":"Armature_FeelerA","rotation":[-3.3417458931333036e-14,0.7765046954154968,5.767193227970355e-16,0.6301115155220032],"translation":[-4.612577438354492,-22.17307472229004,0.9706565141677856]},{"name":"Armature_EndFeelerA","rotation":[7.947286349008209e-7,2.4935843612183817e-8,1.9817094742535096e-14,1],"translation":[0.000001999607320612995,-40.8320198059082,-0.0000693576512276195]},{"children":[66],"name":"Armature_FeelerA1","rotation":[7.396446335405926e-7,2.4935843612183817e-8,-5.047892659426623e-12,1],"translation":[1.1582484971128792e-11,-0.0000019112194422632456,-0.000003653075054899091]},{"name":"Armature_EndFeelerA1","rotation":[1.390775139498146e-7,-5.336307567702092e-20,2.117582368135751e-22,1],"translation":[-0.0000020000768472527852,-40.832008361816406,-0.000016304424207191914]},{"name":"Armature_pm0094_00_BodySkin"},{"name":"Armature_pm0094_00_LongTongueSkin"},{"name":"Armature_pm0094_00_MaskSkin"},{"name":"Armature_pm0094_00_NormalTongueSkin"}],"samplers":[{}],"scene":0,"scenes":[{"name":"Scene","nodes":[0,6,1]}],"skins":[{"inverseBindMatrices":0,"joints":[7,8,9,10,11,12,13,14,15,16,17,18,19,20,21,22,23,24,25,26,27,28,29,30,31,32,33,34,35,36,37,38,39,40,41,42,43,44,45,46,47,48,49,50,51,52,53,54,55,56,57,58,59,60,61,62,63,64,65,66,67,68,69,70],"skeleton":0},{"inverseBindMatrices":1,"joints":[7,8,9,10,11,12,13,14,15,16,17,18,19,20,21,22,23,24,25,26,27,28,29,30,31,32,33,34,35,36,37,38,39,40,41,42,43,44,45,46,47,48,49,50,51,52,53,54,55,56,57,58,59,60,61,62,63,64,65,66,67,68,69,70],"skeleton":0},{"inverseBindMatrices":2,"joints":[7,8,9,10,11,12,13,14,15,16,17,18,19,20,21,22,23,24,25,26,27,28,29,30,31,32,33,34,35,36,37,38,39,40,41,42,43,44,45,46,47,48,49,50,51,52,53,54,55,56,57,58,59,60,61,62,63,64,65,66,67,68,69,70],"skeleton":0},{"inverseBindMatrices":3,"joints":[7,8,9,10,11,12,13,14,15,16,17,18,19,20,21,22,23,24,25,26,27,28,29,30,31,32,33,34,35,36,37,38,39,40,41,42,43,44,45,46,47,48,49,50,51,52,53,54,55,56,57,58,59,60,61,62,63,64,65,66,67,68,69,70],"skeleton":0}],"textures":[{"sampler":0,"source":0},{"sampler":0,"source":1}],"extensionsUsed":["ALI_amc_mesh_compression"],"extensionsRequired":["ALI_amc_mesh_compression"]}