{"accessors":[{"bufferView":0,"componentType":5126,"count":55,"max":[8.701596811988566e-7,-1,0.000003679594556160737,0,0.13475599884986877,0.0000036795954656554386,1.0000001192092896,0,1.000000238418579,8.350668423418028e-8,0.13475599884986877,0,68.12471008300781,63.89825439453125,5.22243070602417,1],"min":[-0.000003619990366132697,-1.0000005960464478,-0.000003619990366132697,0,-1.000000238418579,0.000003558458274710574,-1.000000238418579,0,-1.0000001192092896,-8.701679234945914e-7,-1.000000238418579,0,-101.07102966308594,-63.89845275878906,-46.918514251708984,1],"type":"MAT4","byteOffset":0}],"asset":{"generator":"Khronos Blender glTF 2.0 exporter","version":"2.0"},"bufferViews":[{"buffer":0,"byteLength":3520,"byteOffset":0},{"buffer":0,"byteOffset":3520,"byteLength":1680},{"buffer":0,"byteOffset":5200,"byteLength":3257},{"buffer":0,"byteOffset":8457,"byteLength":1680},{"buffer":0,"byteOffset":10137,"byteLength":153889}],"buffers":[{"byteLength":164026,"uri":"buffer.bin"}],"images":[{"name":"pm0054_00_Body1","uri":"pm0054_00_Body1.png"},{"name":"pm0054_00_Eye1","uri":"pm0054_00_Eye1.png"},{"name":"pm0054_00_Iris2","uri":"pm0054_00_Iris2.png"}],"materials":[{"alphaMode":"OPAQUE","name":"Body01","pbrMetallicRoughness":{"baseColorFactor":[0.6400000190734865,0.6400000190734865,0.6400000190734865,1],"baseColorTexture":{"index":0},"metallicFactor":0}},{"alphaMode":"OPAQUE","name":"Eye","pbrMetallicRoughness":{"baseColorFactor":[0.6400000190734865,0.6400000190734865,0.6400000190734865,1],"baseColorTexture":{"index":1},"metallicFactor":0}},{"alphaMode":"MASK","name":"LIris","pbrMetallicRoughness":{"baseColorFactor":[0.6400000190734865,0.6400000190734865,0.6400000190734865,1],"baseColorTexture":{"index":2},"metallicFactor":0}},{"alphaMode":"MASK","name":"RIris","pbrMetallicRoughness":{"baseColorFactor":[0.6400000190734865,0.6400000190734865,0.6400000190734865,1],"baseColorTexture":{"index":2},"metallicFactor":0}}],"meshes":[{"name":"Psyduck","primitives":[{"material":2,"extensions":{"ALI_amc_mesh_compression":{"bufferView":1}}},{"material":1,"extensions":{"ALI_amc_mesh_compression":{"bufferView":2}}},{"material":3,"extensions":{"ALI_amc_mesh_compression":{"bufferView":3}}},{"material":0,"extensions":{"ALI_amc_mesh_compression":{"bufferView":4}}}]}],"nodes":[{"children":[1,25,26],"name":"_01_pm0054_00","rotation":[0.7071068286895752,0,0,0.7071067094802856],"scale":[0.02539999783039093,0.02539999969303608,0.02539999969303608]},{"children":[2],"name":"_02_Origin"},{"children":[29,30,53],"name":"_03_Waist","rotation":[-5.024286464438499e-15,0.7071080803871155,0,0.7071055173873901],"scale":[1,0.9999999403953552,1],"translation":[0,-0.2420949786901474,-32.12839889526367]},{"name":"_05_EndHips","translation":[29.051599502563477,0,4.365570058229018e-11]},{"name":"_08_EndLFoot","translation":[13.379400253295898,-4.768369876728684e-7,0]},{"name":"_10_EndLToeA","translation":[12.373700141906738,3.576280107608909e-7,-0.0000019073499970545527]},{"name":"_12_EndLToeB","translation":[11.50669002532959,3.576280107608909e-7,-0.000003814699994109105]},{"name":"_14_EndLToeC","translation":[11.506699562072754,-2.3841900542720396e-7,0]},{"name":"_17_EndRFoot","translation":[13.379400253295898,4.768369876728684e-7,0]},{"name":"_19_EndRToeA","translation":[12.373700141906738,1.1920899822825959e-7,0]},{"name":"_21_EndRToeB","translation":[11.506600379943848,1.1920899822825959e-7,-0.000045776399929309264]},{"name":"_23_EndRToeC","translation":[11.506600379943848,-3.576280107608909e-7,-0.00000667572021484375]},{"name":"_26_EndTail2","translation":[13.116700172424316,-0.00002765660065051634,5.820770254683083e-11]},{"name":"_29_EndHead","translation":[48.17070007324219,0,7.27596021626864e-12]},{"name":"_32_EndFeelerB","translation":[9.231163024902344,-0.000011444099982327316,0]},{"name":"_34_EndLowerJaw","translation":[14.327500343322754,0,1.4551899615855568e-11]},{"name":"_36_EndUpperJaw","translation":[40.88479995727539,-0.000007629389983776491,-8.731149830909501e-11]},{"name":"_41_EndLHand","translation":[17.467599868774414,1.1920899822825959e-7,0]},{"name":"_43_EndLFingerA","translation":[2.8214259147644043,0,-0.0000019073499970545527]},{"name":"_45_EndLFingerB","translation":[2.824223041534424,0,0]},{"name":"_47_EndLFingerC","translation":[2.8214259147644043,1.1920899822825959e-7,-0.000003814699994109105]},{"name":"_52_EndRHand","translation":[17.46769905090332,0,0]},{"name":"_54_EndRFingerA","translation":[2.8214259147644043,0,0.000003814699994109105]},{"name":"_56_EndRFingerB","translation":[2.824207067489624,5.96045985901128e-8,0]},{"name":"_58_EndRFingerC","translation":[2.8214170932769775,5.96045985901128e-8,-0.000007629389983776491]},{"name":"_59_pm0054_00_BodySkin"},{"name":"_60_pm0054_00_IrisSkin"},{"name":"Camera","rotation":[0.483536034822464,0.33687159419059753,-0.20870360732078552,0.7804827094078064],"translation":[7.481131553649902,5.34366512298584,6.5076398849487305]},{"name":"Lamp","rotation":[0.16907575726509094,0.7558802962303162,-0.27217137813568115,0.570947527885437],"scale":[1,1,0.9999999403953552],"translation":[4.076245307922363,5.903861999511719,-1.0054539442062378]},{"mesh":0,"name":"Psyduck","rotation":[0.49999913573265076,-0.5000008940696716,0.5000009536743164,0.4999990463256836],"scale":[1,1.0000001192092896,1.0000001192092896],"skin":0,"translation":[-32.12840270996094,0.24209505319595337,-0.00011630450171651319]},{"children":[31,32,41,50],"name":"_03_Waist__04_Hips","rotation":[-0.5,0.5000000596046448,-0.5000000596046448,0.5],"scale":[0.9999999403953552,0.9999997615814209,0.9999999403953552],"translation":[-31.886302947998047,32.37049865722656,-0.00011922924750251696]},{"name":"_03_Waist__05_EndHips","rotation":[0,1.7763568394002505e-15,0,1],"scale":[1,0.9999999403953552,1],"translation":[29.05160140991211,-7.152557373046875e-7,-1.450736135666375e-7]},{"children":[33],"name":"_03_Waist__06_LThigh","rotation":[0,0.06753206253051758,0,0.9977172017097473],"scale":[1,0.9999999403953552,1],"translation":[-5.121492862701416,-12.499969482421875,-0.44675227999687195]},{"children":[34,35,37,39],"name":"_03_Waist__07_LFoot","rotation":[0,-0.753244936466217,0,0.6577401161193848],"scale":[1,0.9999998807907104,1],"translation":[30.611549377441406,-0.00020599365234375,8.483002662658691]},{"name":"_03_Waist__08_EndLFoot","rotation":[0,1.4900047418109352e-8,0,1],"scale":[1,0.9999999403953552,1],"translation":[-13.379398345947266,0.0000476837158203125,2.810930936902878e-7]},{"children":[36],"name":"_03_Waist__09_LToeA","rotation":[0,1.4900047418109352e-8,0,1],"scale":[1,0.9999999403953552,1],"translation":[-13.670799255371094,0.00003719329833984375,-4.490464687347412]},{"name":"_03_Waist__10_EndLToeA","rotation":[0,1.1850329745266563e-15,0,1],"translation":[-12.373703002929688,0.000041961669921875,4.769578367813665e-7]},{"children":[38],"name":"_03_Waist__11_LToeB","rotation":[0,-0.000005918434453633381,0,1],"scale":[1,0.9999999403953552,1],"translation":[-11.023727416992188,-9.13862419128418,-4.4904584884643555]},{"name":"_03_Waist__12_EndLToeB","rotation":[0,-9.094947017729282e-13,0,1],"translation":[-11.01079273223877,-3.341623306274414,0.0001279003918170929]},{"children":[40],"name":"_03_Waist__13_LToeC","rotation":[0,-0.00004089267531526275,0,1],"scale":[1,0.9999999403953552,1],"translation":[-11.00967025756836,9.186142921447754,-4.490479469299316]},{"name":"_03_Waist__14_EndLToeC","translation":[-11.064358711242676,3.159768581390381,0.0009357468225061893]},{"children":[42],"name":"_03_Waist__15_RThigh","rotation":[0,0.06753206253051758,0,0.9977172017097473],"scale":[1,0.9999999403953552,1],"translation":[-5.121283054351807,12.500040054321289,-0.44666072726249695]},{"children":[43,44,46,48],"name":"_03_Waist__16_RFoot","rotation":[0,-0.753244936466217,0,0.6577401161193848],"scale":[1,0.9999998807907104,1],"translation":[30.611454010009766,-0.00020599365234375,8.482986450195312]},{"name":"_03_Waist__17_EndRFoot","rotation":[0,1.4889681487773032e-8,0,1],"scale":[1,0.9999999403953552,1],"translation":[-13.379402160644531,0.0000476837158203125,2.810905925798579e-7]},{"children":[45],"name":"_03_Waist__18_RToeA","rotation":[0,1.4889995014755186e-8,0,1],"scale":[1,0.9999999403953552,1],"translation":[-13.670799255371094,0.00001430511474609375,-4.490466594696045]},{"name":"_03_Waist__19_EndRToeA","rotation":[0,9.055256544598933e-16,0,1],"translation":[-12.373703002929688,0.00004863739013671875,2.3962687123457727e-7]},{"children":[47],"name":"_03_Waist__20_RToeB","rotation":[0,0.000021105128325871192,0,1],"scale":[1,0.9999999403953552,1],"translation":[-11.023674011230469,9.138711929321289,-4.49052095413208]},{"name":"_03_Waist__21_EndRToeB","translation":[-11.01069164276123,3.3416385650634766,-0.0004923911765217781]},{"children":[49],"name":"_03_Waist__22_RToeC","rotation":[0,-0.0000675926057738252,0,1],"scale":[1,0.9999999403953552,1],"translation":[-11.009727478027344,-9.18610668182373,-4.490418910980225]},{"name":"_03_Waist__23_EndRToeC","rotation":[0,-7.275957614183426e-12,0,1],"translation":[-11.064285278320312,-3.1596550941467285,0.001548493281006813]},{"children":[51],"name":"_03_Waist__24_Tail1","rotation":[0,-0.7842003703117371,0,0.6205077171325684],"scale":[1,0.9999998211860657,1],"translation":[10.634603500366211,-0.00016379356384277344,25.498804092407227]},{"children":[52],"name":"_03_Waist__25_Tail2","rotation":[0,9.685753354915505e-8,0,1],"scale":[1.0000001192092896,1,1.0000001192092896],"translation":[10.066004753112793,-0.000027656562451738864,0.000006973743438720703]},{"name":"_03_Waist__26_EndTail2","scale":[1,0.9999999403953552,1],"translation":[13.116705894470215,-0.00003552436828613281,-0.000019311904907226562]},{"children":[54,63,74],"name":"_03_Waist__27_Spine","rotation":[-0.5,-0.5000000596046448,0.5000000596046448,0.5],"scale":[1,0.9999999403953552,1],"translation":[-31.886302947998047,32.37049865722656,-0.00011922924750251696]},{"children":[55,56,59,61],"name":"_03_Waist__28_Head","translation":[20.77191734313965,0.00007668139005545527,-4.1557996155461296e-7]},{"name":"_03_Waist__29_EndHead","translation":[48.170711517333984,1.4551915228366852e-11,-0.0000025211888896592427]},{"children":[57],"name":"_03_Waist__30_FeelerA","rotation":[0,0.24841445684432983,0,0.9686538577079773],"translation":[34.50778579711914,0.039086103439331055,-9.291769027709961]},{"children":[58],"name":"_03_Waist__31_FeelerB","rotation":[0,1.4901161193847656e-8,0,1],"translation":[8.784626960754395,0.000012189149856567383,0]},{"name":"_03_Waist__32_EndFeelerB","scale":[1,0.9999999403953552,1],"translation":[9.231163024902344,0.000012993812561035156,-0.00000762939453125]},{"children":[60],"name":"_03_Waist__33_LowerJaw","rotation":[0,0.9020209312438965,0,0.4316922724246979],"scale":[0.9999999403953552,1,0.9999999403953552],"translation":[2.2981629371643066,0.00008478760719299316,20.404800415039062]},{"name":"_03_Waist__34_EndLowerJaw","rotation":[0,-1.4901161193847656e-8,0,1],"translation":[-3.0522022247314453,0.000029861927032470703,-13.998621940612793]},{"children":[62],"name":"_03_Waist__35_UpperJaw","rotation":[0,0.8637987971305847,0,0.5038369297981262],"translation":[11.104978561401367,0.0001087486743927002,18.104198455810547]},{"name":"_03_Waist__36_EndUpperJaw","rotation":[0,5.960464477539063e-8,0,1],"translation":[-21.067455291748047,0.000010907679097726941,-35.038978576660156]},{"children":[64],"name":"_03_Waist__37_LShoulder","rotation":[0,-0.03134327381849289,0,0.9995086789131165],"translation":[9.581738471984863,-5.147613525390625,0.00001914704444061499]},{"children":[65],"name":"_03_Waist__38_LArm","rotation":[0,0.03134142607450485,0,0.9995087385177612],"translation":[2.946359395980835,-18.10904312133789,0.9684619903564453]},{"children":[66],"name":"_03_Waist__39_LForeArm","rotation":[0,4.959019861416891e-10,0,1],"translation":[0.00003582867793738842,-12.782999038696289,0.00004975688352715224]},{"children":[67,68,70,72],"name":"_03_Waist__40_LHand","translation":[0.00005105484160594642,-10.391002655029297,0.00003835707320831716]},{"name":"_03_Waist__41_EndLHand","rotation":[0,0,2.9802322387695312e-8,1],"translation":[0.000058684483519755304,-17.467601776123047,0.00006505973578896374]},{"children":[69],"name":"_03_Waist__42_LFingerA","rotation":[0,8.940697853176971e-7,0,1],"translation":[4.703011989593506,-6.251842498779297,0.000005512774805538356]},{"name":"_03_Waist__43_EndLFingerA","translation":[1.5381122827529907,-2.365306854248047,0.000003349683538544923]},{"children":[71],"name":"_03_Waist__44_LFingerB","rotation":[0,0,2.9802322387695312e-8,1],"translation":[0.0000014630495570600033,-7.180103302001953,-0.00019433945999480784]},{"name":"_03_Waist__45_EndLFingerB","translation":[0.000009543405212752987,-2.8242251873016357,0.000011654163245111704]},{"children":[73],"name":"_03_Waist__46_LFingerC","rotation":[0,-0.0000015497207641601562,0,1],"translation":[-4.70299768447876,-6.251873016357422,0.00004068373527843505]},{"name":"_03_Waist__47_EndLFingerC","rotation":[2.9802322387695312e-8,0,0,1],"translation":[-1.5380889177322388,-2.3653221130371094,0.000018376769730821252]},{"children":[75],"name":"_03_Waist__48_RShoulder","rotation":[0,-0.03134005516767502,0,0.999508798122406],"translation":[9.581746101379395,5.1476898193359375,-0.00001709257958282251]},{"children":[76],"name":"_03_Waist__49_RArm","rotation":[0,0.03134196251630783,0,0.9995087385177612],"scale":[0.9999999403953552,0.9999999403953552,0.9999999403953552],"translation":[2.9461703300476074,18.10906219482422,0.9683525562286377]},{"children":[77],"name":"_03_Waist__50_RForeArm","rotation":[0,4.960156729794107e-10,0,1],"translation":[-0.000052071045502088964,12.783008575439453,-0.00004460704803932458]},{"children":[78,79,81,83],"name":"_03_Waist__51_RHand","rotation":[-3.0766386771574616e-8,0,4.175308276899159e-8,1],"translation":[-0.00003303018456790596,10.390987396240234,-0.00003693329927045852]},{"name":"_03_Waist__52_EndRHand","rotation":[2.9802549761370756e-8,5.894851681033418e-16,-5.960509952274151e-8,1],"translation":[-0.00006965568172745407,17.467702865600586,-0.00006351929914671928]},{"children":[80],"name":"_03_Waist__53_RFingerA","rotation":[2.9801896062053856e-8,-8.344650268554688e-7,-4.76836760299193e-7,1],"translation":[4.702981948852539,6.2519354820251465,-0.000008327315299538895]},{"name":"_03_Waist__54_EndRFingerA","rotation":[-1.4372455049010968e-17,-4.600609689826081e-16,4.768370445162873e-7,1],"translation":[1.5380945205688477,2.3653206825256348,-0.00000316180967274704]},{"children":[82],"name":"_03_Waist__55_RFingerB","rotation":[2.9802322387695312e-8,5.894807211803688e-16,-5.960464477539063e-8,1],"translation":[-0.000024737710191402584,7.18010139465332,-0.0002472576161380857]},{"name":"_03_Waist__56_EndRFingerB","rotation":[-1.4787501193165575e-17,-2.873135757086587e-17,2.9802322387695312e-8,1],"translation":[-0.00000834124057291774,2.8242125511169434,-0.000010121749255631585]},{"children":[84],"name":"_03_Waist__57_RFingerC","rotation":[2.98030613521405e-8,0.0000016093255226223846,-4.768366750340647e-7,1],"translation":[-4.703027725219727,6.25188684463501,-0.000043797248508781195]},{"name":"_03_Waist__58_EndRFingerC","rotation":[-1.4921332398831755e-17,-4.590480234568104e-16,4.768372718899627e-7,1],"translation":[-1.538112998008728,2.3652946949005127,-0.000020075829525012523]}],"samplers":[{}],"scene":0,"scenes":[{"name":"Scene","nodes":[24,23,22,21,20,19,18,17,16,15,14,13,12,11,10,9,8,7,6,5,4,3,0,28,27]}],"skins":[{"inverseBindMatrices":0,"joints":[30,31,32,33,34,35,36,37,38,39,40,41,42,43,44,45,46,47,48,49,50,51,52,53,54,55,56,57,58,59,60,61,62,63,64,65,66,67,68,69,70,71,72,73,74,75,76,77,78,79,80,81,82,83,84],"skeleton":2}],"textures":[{"sampler":0,"source":0},{"sampler":0,"source":1},{"sampler":0,"source":2},{"sampler":0,"source":2}],"extensionsUsed":["ALI_amc_mesh_compression"],"extensionsRequired":["ALI_amc_mesh_compression"]}