{"accessors":[{"bufferView":0,"componentType":5126,"count":40,"max":[0.999022901058197,6.55667804494442e-8,0.9973116517066956,0,0.9999998807907104,-2.5090457711485215e-8,0.9990226626396179,0,1.1888877082810723e-7,-0.9999998807907104,1.0645421610888661e-7,0,46.2152214050293,43.24386978149414,44.075523376464844,1],"min":[-0.8930030465126038,0,-1.0000001192092896,0,-0.9973114132881165,-0.000001063269223777752,-0.8930028080940247,0,-0.0000010348671821702737,-1,-2.5108442969212774e-7,0,-107.86257934570312,-26.36994743347168,-50.53721237182617,1],"type":"MAT4","byteOffset":0}],"asset":{"generator":"Khronos Blender glTF 2.0 exporter","version":"2.0"},"bufferViews":[{"buffer":0,"byteLength":2560,"byteOffset":0},{"buffer":0,"byteOffset":2560,"byteLength":53575},{"buffer":0,"byteOffset":56135,"byteLength":17971},{"buffer":0,"byteOffset":74106,"byteLength":89359}],"buffers":[{"byteLength":163465,"uri":"buffer.bin"}],"images":[{"name":"pm0047_00_BodyA1","uri":"pm0047_00_BodyA1.png"},{"name":"pm0047_00_BodyB1","uri":"pm0047_00_BodyB1.png"}],"materials":[{"alphaMode":"OPAQUE","name":"BodyASpc00","pbrMetallicRoughness":{"baseColorFactor":[0.6400000190734865,0.6400000190734865,0.6400000190734865,1],"baseColorTexture":{"index":0},"metallicFactor":0}},{"alphaMode":"OPAQUE","name":"BodyAVcoSpc01","pbrMetallicRoughness":{"baseColorFactor":[0.6400000190734865,0.6400000190734865,0.6400000190734865,1],"baseColorTexture":{"index":0},"metallicFactor":0}},{"alphaMode":"OPAQUE","name":"BodyB","pbrMetallicRoughness":{"baseColorFactor":[0.6400000190734865,0.6400000190734865,0.6400000190734865,1],"baseColorTexture":{"index":2},"metallicFactor":0}}],"meshes":[{"name":"Parasect","primitives":[{"material":0,"extensions":{"ALI_amc_mesh_compression":{"bufferView":1}}},{"material":2,"extensions":{"ALI_amc_mesh_compression":{"bufferView":2}}},{"material":1,"extensions":{"ALI_amc_mesh_compression":{"bufferView":3}}}]}],"nodes":[{"children":[1,15],"name":"_01_pm0047_00","rotation":[0.7071068286895752,0,0,0.7071067094802856],"scale":[0.02539999783039093,0.02539999969303608,0.02539999969303608]},{"children":[18,19],"name":"_02_Origin"},{"name":"_04_EndWaist","translation":[74.55137634277344,0,-1.4551899615855568e-11]},{"name":"_07_EndFeeler2","translation":[38.765201568603516,0.000003337860107421875,2.98022992950564e-8]},{"name":"_10_EndJaw","translation":[14.849300384521484,-0.000003814699994109105,3.63798010813432e-12]},{"name":"_14_EndLFinger","translation":[11.48069953918457,0.000011444099982327316,0.00000667572021484375]},{"children":[7],"name":"_15_LHand","rotation":[-0.001282034325413406,-0.0014836105983704329,-0.0030051618814468384,0.9999935626983643],"scale":[0.9999998807907104,1,1],"translation":[51.01428985595703,0,0]},{"name":"_16_EndLHand","rotation":[0,-4.54754289780368e-13,0,1],"scale":[0.9999999403953552,1,1.0000001192092896],"translation":[8.20633316040039,-2.9802322387695312e-8,0.000007644295692443848]},{"name":"_21_EndLToe","translation":[9.137306213378906,0.000003814699994109105,9.536739753457368e-7]},{"name":"_26_EndLToe2","translation":[7.6747260093688965,0,0.0000019073499970545527]},{"name":"_30_EndRFinger","translation":[11.48069953918457,0.00006103519990574569,0.000043869000364793465]},{"children":[12],"name":"_31_RHand","rotation":[0.001281753065995872,0.0014835618203505874,-0.003005180973559618,0.9999935626983643],"scale":[0.9999998807907104,1,1],"translation":[51.01420974731445,0.0000724791971151717,-0.00002670290086825844]},{"name":"_32_EndRHand","rotation":[0,9.095016406668321e-13,-1.1641533570472262e-10,1],"scale":[0.9999999403953552,1,1.0000001192092896],"translation":[8.206356048583984,-0.000026732683181762695,0.00004766881465911865]},{"name":"_37_EndRToe","translation":[9.137317657470703,-0.000007629389983776491,0.000014543499673891347]},{"name":"_42_EndRToe2","translation":[7.674720764160156,0.00001525879997643642,-0.00004005429946118966]},{"name":"_43_pm0047_00_BodySkin"},{"name":"Camera","rotation":[0.483536034822464,0.33687159419059753,-0.20870360732078552,0.7804827094078064],"translation":[7.481131553649902,5.34366512298584,6.5076398849487305]},{"name":"Lamp","rotation":[0.16907575726509094,0.7558802962303162,-0.27217137813568115,0.570947527885437],"scale":[1,1,0.9999999403953552],"translation":[4.076245307922363,5.903861999511719,-1.0054539442062378]},{"mesh":0,"name":"Parasect","rotation":[5.960464477539063e-8,0,0,1],"scale":[1.0000001192092896,1,1],"skin":0},{"children":[20,21,24,27,33,38,43,49,54],"name":"_02_Origin__03_Waist","rotation":[-0.5,-0.5000000596046448,0.5000000596046448,0.5],"scale":[1,0.9999999403953552,1],"translation":[-1.7473701013957874e-15,33.31119918823242,4.774660110473633]},{"name":"_02_Origin__04_EndWaist","translation":[74.55137634277344,0,-0.0000032587299756414723]},{"children":[22],"name":"_02_Origin__05_Feeler1","rotation":[0,0.1630622297525406,0,0.9866158962249756],"translation":[7.173988342285156,3.1396398544311523,-0.13523878157138824]},{"children":[23],"name":"_02_Origin__06_Feeler2","rotation":[0,-0.07231774181127548,0,0.9973817467689514],"translation":[22.17057228088379,7.957526683807373,7.534348011016846]},{"name":"_02_Origin__07_EndFeeler2","rotation":[-1.1470558547443943e-7,7.450580596923828e-9,4.588223418977577e-7,1],"translation":[37.483802795410156,7.0479817390441895,6.930519104003906]},{"children":[25],"name":"_02_Origin__08_Head","rotation":[0,0.7703187465667725,0,0.6376590728759766],"translation":[2.1629791259765625,-22.20110321044922,0.000007898661351646297]},{"children":[26],"name":"_02_Origin__09_Jaw","rotation":[0,0.20874395966529846,0,0.9779703617095947],"translation":[0.14503315091133118,-4.083892822265625,-0.7628187537193298]},{"name":"_02_Origin__10_EndJaw","rotation":[5.7352764315510285e-8,1.4901161193847656e-8,-3.3555633721952735e-17,1],"translation":[4.851840019226074,-12.184221267700195,-6.964633464813232]},{"children":[28],"name":"_02_Origin__11_LArm","rotation":[0,0.8324521780014038,0,0.5540968775749207],"translation":[3.4151222705841064,-16.970998764038086,-17.751487731933594]},{"children":[29,31],"name":"_02_Origin__12_LForeArm","rotation":[0,0.5842452049255371,0,0.8115772008895874],"translation":[19.58994483947754,-8.44715690612793,0.27369117736816406]},{"children":[30],"name":"_02_Origin__13_LFinger","rotation":[0,0.17684991657733917,0,0.9842378497123718],"translation":[16.185678482055664,-2.604215621948242,0.8822684288024902]},{"name":"_02_Origin__14_EndLFinger","translation":[11.45570182800293,0.7300758361816406,0.20065665245056152]},{"children":[32],"name":"_02_Origin__15_LHand","rotation":[0,0.0034036908764392138,0,0.9999942183494568],"scale":[0.9999999403953552,1,0.9999999403953552],"translation":[50.10793685913086,-9.412683486938477,-1.7475703954696655]},{"name":"_02_Origin__16_EndLHand","rotation":[0,7.450580596923828e-9,0,1],"translation":[8.059637069702148,-1.5189628601074219,-0.2809782028198242]},{"children":[34],"name":"_02_Origin__17_LThigh","rotation":[0,0.7695235013961792,0,0.6386184692382812],"translation":[0.9417563080787659,-5.456583499908447,-20.12729835510254]},{"children":[35],"name":"_02_Origin__18_LLeg","rotation":[0,0.2845378816127777,0,0.9586648941040039],"scale":[1,0.9999999403953552,1],"translation":[22.103397369384766,-3.745664596557617,-0.23046541213989258]},{"children":[36],"name":"_02_Origin__19_LFoot","rotation":[0,0.554154098033905,0,0.8324141502380371],"scale":[0.9999999403953552,0.9999999403953552,0.9999999403953552],"translation":[17.534557342529297,-1.2941703796386719,-0.1263751983642578]},{"children":[37],"name":"_02_Origin__20_LToe","rotation":[0,0.3605039715766907,0,0.9327576756477356],"translation":[14.086817741394043,2.156980514526367,0.00000762939453125]},{"name":"_02_Origin__21_EndLToe","translation":[8.931266784667969,1.9294672012329102,0.0000037550926208496094]},{"children":[39],"name":"_02_Origin__22_LThigh2","rotation":[0,0.7691152095794678,0,0.6391103267669678],"scale":[0.9999999403953552,1,0.9999999403953552],"translation":[-2.911067008972168,16.339801788330078,-20.352008819580078]},{"children":[40],"name":"_02_Origin__23_LLeg2","rotation":[0,0.3135967552661896,0,0.949556291103363],"translation":[16.870168685913086,7.911380767822266,0.05878019332885742]},{"children":[41],"name":"_02_Origin__24_LFoot2","rotation":[0,0.32287365198135376,0,0.9464421272277832],"scale":[1,0.9999998807907104,1],"translation":[13.234282493591309,4.942340850830078,-0.6264429092407227]},{"children":[42],"name":"_02_Origin__25_LToe2","rotation":[0,0.301012247800827,0,0.9536203742027283],"scale":[0.9999999403953552,1,0.9999999403953552],"translation":[12.769929885864258,1.9510440826416016,-0.1421259641647339]},{"name":"_02_Origin__26_EndLToe2","rotation":[0,-2.980232594040899e-8,0,1],"scale":[0.9999998807907104,1,0.9999998807907104],"translation":[7.623973369598389,-0.8811569213867188,-0.0029152631759643555]},{"children":[44],"name":"_02_Origin__27_RArm","rotation":[0,0.41843754053115845,0,0.9082456827163696],"scale":[0.9999999403953552,1,0.9999999403953552],"translation":[3.4149558544158936,-16.97100067138672,17.751510620117188]},{"children":[45,47],"name":"_02_Origin__28_RForeArm","rotation":[0,0.584244430065155,0,0.8115777373313904],"scale":[0.9999999403953552,0.9999999403953552,0.9999999403953552],"translation":[-18.565736770629883,-8.447113037109375,6.257110595703125]},{"children":[46],"name":"_02_Origin__29_RFinger","rotation":[0,0.4119485020637512,0,0.9112071394920349],"scale":[1,0.9999999403953552,1],"translation":[8.602781295776367,-2.6042022705078125,-13.738513946533203]},{"name":"_02_Origin__30_EndRFinger","rotation":[0,-7.450580596923828e-9,0,1],"scale":[1,0.9999999403953552,1],"translation":[11.154867172241211,0.7300987243652344,2.615795135498047]},{"children":[48],"name":"_02_Origin__31_RHand","rotation":[0,-0.006126668769866228,0,0.9999812245368958],"scale":[0.9999998807907104,0.9999999403953552,0.9999998807907104],"translation":[30.29358673095703,-9.412734985351562,-39.951847076416016]},{"name":"_02_Origin__32_EndRHand","rotation":[0,1.4901161193847656e-8,0,1],"translation":[4.837467193603516,-1.5189094543457031,-6.452610969543457]},{"children":[50],"name":"_02_Origin__33_RThigh","rotation":[0,0.9693055152893066,0,0.24585916101932526],"translation":[0.9416550993919373,-5.456541538238525,20.127309799194336]},{"children":[51],"name":"_02_Origin__34_RLeg","rotation":[0,0.2845378816127777,0,0.9586647748947144],"scale":[0.9999999403953552,0.9999999403953552,0.9999999403953552],"translation":[-6.553071975708008,-3.7456912994384766,-21.110885620117188]},{"children":[52],"name":"_02_Origin__35_RFoot","rotation":[0,0.9751745462417603,0,0.22143784165382385],"scale":[1,0.9999999403953552,1],"translation":[13.172344207763672,-1.2941207885742188,-11.574227333068848]},{"children":[53],"name":"_02_Origin__36_RToe","rotation":[0,-0.3605119287967682,0,0.9327546954154968],"scale":[1,0.9999999403953552,1],"translation":[-14.08681869506836,2.156956672668457,0.000010132789611816406]},{"name":"_02_Origin__37_EndRToe","rotation":[0,1.4901159417490817e-8,0,1],"scale":[1.0000001192092896,1,1.0000001192092896],"translation":[-8.931272506713867,1.9294853210449219,0.00010514259338378906]},{"children":[55],"name":"_02_Origin__38_RThigh2","rotation":[0,0.613122820854187,0,0.7899876236915588],"translation":[-2.911261558532715,16.339893341064453,20.35197639465332]},{"children":[56],"name":"_02_Origin__39_RLeg2","rotation":[0,0.3135971426963806,0,0.9495561122894287],"scale":[0.9999999403953552,1,0.9999999403953552],"translation":[-16.828678131103516,7.911406517028809,1.1824350357055664]},{"children":[57],"name":"_02_Origin__40_RFoot2","rotation":[0,-0.17064239084720612,0,0.9853330254554749],"translation":[-4.095249652862549,4.942304611206055,-12.600314140319824]},{"children":[58],"name":"_02_Origin__41_RToe2","rotation":[0,-0.8470311760902405,0,0.5315431952476501],"translation":[-0.45765504240989685,1.951009750366211,-12.762528419494629]},{"name":"_02_Origin__42_EndRToe2","rotation":[0,1.4901161193847656e-8,0,1],"translation":[-7.573640823364258,-0.881195068359375,-0.874503493309021]}],"samplers":[{}],"scene":0,"scenes":[{"name":"Scene","nodes":[14,13,11,10,9,8,6,5,4,3,2,0,17,16]}],"skins":[{"inverseBindMatrices":0,"joints":[19,20,21,22,23,24,25,26,27,28,29,30,31,32,33,34,35,36,37,38,39,40,41,42,43,44,45,46,47,48,49,50,51,52,53,54,55,56,57,58],"skeleton":1}],"textures":[{"sampler":0,"source":0},{"sampler":0,"source":0},{"sampler":0,"source":1}],"extensionsUsed":["ALI_amc_mesh_compression"],"extensionsRequired":["ALI_amc_mesh_compression"]}