{"accessors":[{"bufferView":0,"componentType":5126,"count":63,"max":[1.0000001192092896,1.717928483913056e-7,0.9922863245010376,0,1,5.7386202456655155e-8,1.0000001192092896,0,3.826560108274174e-13,-1,5.960507110103208e-8,0,25.49442481994629,55.40287399291992,36.37437057495117,1],"min":[-1.0000001192092896,-3.962381711630769e-8,-1,0,-0.9922863245010376,-5.960505689017737e-8,-1.0000001192092896,0,-1.7604379820568283e-7,-1.0000003576278687,-5.9604641222676946e-8,0,-82.8572998046875,-11.612001419067383,-57.10905456542969,1],"type":"MAT4","byteOffset":0}],"asset":{"generator":"Khronos Blender glTF 2.0 exporter","version":"2.0"},"bufferViews":[{"buffer":0,"byteLength":4032,"byteOffset":0},{"buffer":0,"byteOffset":4032,"byteLength":3499},{"buffer":0,"byteOffset":7531,"byteLength":142841}],"buffers":[{"byteLength":150372,"uri":"buffer.bin"}],"images":[{"name":"pm0139_00_Eye1","uri":"pm0139_00_Eye1.png"},{"name":"pm0139_00_Body1","uri":"pm0139_00_Body1.png"}],"materials":[{"alphaMode":"OPAQUE","name":"Material__112","pbrMetallicRoughness":{"baseColorFactor":[0.6400000190734865,0.6400000190734865,0.6400000190734865,1],"baseColorTexture":{"index":0},"metallicFactor":0}},{"alphaMode":"OPAQUE","name":"Material__113","pbrMetallicRoughness":{"baseColorFactor":[0.6400000190734865,0.6400000190734865,0.6400000190734865,1],"baseColorTexture":{"index":1},"metallicFactor":0}}],"meshes":[{"name":"Omastar","primitives":[{"material":0,"extensions":{"ALI_amc_mesh_compression":{"bufferView":1}}},{"material":1,"extensions":{"ALI_amc_mesh_compression":{"bufferView":2}}}]}],"nodes":[{"children":[3,4],"name":"Armature","scale":[0.02539999969303608,0.02539999969303608,0.02539999969303608]},{"name":"Camera","rotation":[0.483536034822464,0.33687159419059753,-0.20870360732078552,0.7804827094078064],"translation":[7.481131553649902,5.34366512298584,6.5076398849487305]},{"name":"Lamp","rotation":[0.16907575726509094,0.7558802962303162,-0.27217137813568115,0.570947527885437],"scale":[1,1,0.9999999403953552],"translation":[4.076245307922363,5.903861999511719,-1.0054539442062378]},{"mesh":0,"name":"Omastar","skin":0},{"children":[5,66],"name":"Armature_pm0139_00","rotation":[-0.7071068286895752,0,0,0.7071068286895752]},{"children":[6],"name":"Armature_Origin"},{"children":[7,11,13,18,22,26,27,29,34,36,40,45,50,54,56,58,60,64],"name":"Armature_Waist","rotation":[0,-0.7071078419685364,0,0.7071056962013245],"scale":[1,0.9999999403953552,1],"translation":[0.000015674693713663146,-34.8114013671875,21.775100708007812]},{"children":[8],"name":"Armature_RArm","rotation":[0,-0.6123768091201782,0,0.7905660271644592],"translation":[7.841820240020752,-4.2526092529296875,19.72284698486328]},{"children":[9],"name":"Armature_RForeArm","rotation":[-2.185852565617097e-8,-0.014683681540191174,3.2099831126508604e-10,0.9998922348022461],"translation":[13.433146476745605,-0.11716842651367188,-0.11715316772460938]},{"children":[10],"name":"Armature_RHand","rotation":[2.0191446736816943e-8,0.019046230241656303,8.784403604522595e-8,0.9998186230659485],"translation":[12.468327522277832,-0.4756268560886383,-0.4753797650337219]},{"name":"Armature_EndRHand","rotation":[1.1657341758564144e-15,7.450580596923828e-9,-8.744352442136005e-8,1],"scale":[1,0.9999999403953552,1],"translation":[8.274466514587402,8.817290790830157e-7,-2.653328010637779e-7]},{"children":[12],"name":"Armature_RFeelerA","rotation":[0,-0.7069838047027588,0,0.7072297930717468],"scale":[0.9999999403953552,0.9999998807907104,0.9999999403953552],"translation":[14.591136932373047,-8.680553436279297,11.489270210266113]},{"name":"Armature_EndRFeelerA","rotation":[2.980252844508868e-8,0,-4.336809206929901e-19,1],"scale":[1,0.9999999403953552,1],"translation":[5.979090929031372e-7,-11.910900115966797,-0.004109191242605448]},{"children":[14],"name":"Armature_RFeelerB1","rotation":[0,-0.707108199596405,0,0.7071053385734558],"scale":[0.9999999403953552,0.9999998211860657,0.9999999403953552],"translation":[0.7703171372413635,3.8234996795654297,20.204570770263672]},{"children":[15],"name":"Armature_RFeelerB2","rotation":[0,2.7818032322102226e-8,0,1],"translation":[8.512800216674805,0.000003814697265625,-0.000004218105459585786]},{"children":[16],"name":"Armature_RFeelerB3","rotation":[0,-4.547473508864641e-13,0,1],"translation":[9.358702659606934,-0.0000019073486328125,-0.000003890978405252099]},{"children":[17],"name":"Armature_RFeelerB4","rotation":[0,-4.547473508864641e-13,0,1],"translation":[10.555211067199707,-0.0000057220458984375,-0.000004078319761902094]},{"name":"Armature_EndRFeelerB4","rotation":[0,-4.547473508864641e-13,0,1],"translation":[14.090008735656738,-0.0000019073486328125,-0.0000025365734472870827]},{"children":[19],"name":"Armature_RArm3","rotation":[0,-0.707108199596405,0,0.7071053385734558],"translation":[-9.494463920593262,11.283002853393555,15.811829566955566]},{"children":[20],"name":"Armature_RForeArm3","rotation":[0,2.7818032322102226e-8,0,1],"translation":[9.344701766967773,-0.0000019073486328125,1.572043402120471e-7]},{"children":[21],"name":"Armature_RHand3","translation":[9.406298637390137,-0.0000019073486328125,-0.0000029111397452652454]},{"name":"Armature_EndRHand3","translation":[14.835400581359863,0,-9.136856533586979e-7]},{"children":[23],"name":"Armature_LArm","rotation":[0,0.6054543852806091,0,0.7958800196647644],"translation":[7.841794490814209,-4.252632141113281,-19.722864151000977]},{"children":[24],"name":"Armature_LForeArm","rotation":[0,-0.014686813578009605,0,0.9998921751976013],"scale":[0.9999998807907104,1,0.9999998807907104],"translation":[13.433149337768555,-0.1172332763671875,-0.11719036102294922]},{"children":[25],"name":"Armature_LHand","rotation":[0,0.0190492644906044,0,0.9998185634613037],"translation":[12.468345642089844,-0.47553253173828125,-0.4752178192138672]},{"name":"Armature_EndLHand","rotation":[0,-7.450580596923828e-9,0,1],"translation":[8.274513244628906,-0.00000762939453125,9.5367431640625e-7]},{"name":"Armature_EndWaist","rotation":[0,-1.1368683772161603e-13,0,1],"translation":[61.08219909667969,0,-0.000001462525688111782]},{"children":[28],"name":"Armature_Hair","rotation":[-3.181319411463962e-13,0.30070534348487854,-1.0030646154174719e-13,0.9537171125411987],"scale":[0.9999999403953552,1,0.9999999403953552],"translation":[13.528121948242188,1.4256362915039062,-3.2390380511060357e-7]},{"name":"Armature_EndHair","rotation":[-2.220023517121615e-21,0,3.1705057397333282e-21,1],"translation":[52.64171600341797,44.99776840209961,36.86004638671875]},{"children":[30],"name":"Armature_RShoulder2","rotation":[0,-0.707108199596405,0,0.7071053385734558],"scale":[0.9999999403953552,0.9999998211860657,0.9999999403953552],"translation":[-4.575376987457275,7.356500625610352,18.839548110961914]},{"children":[31],"name":"Armature_RArm2","rotation":[2.9802521339661325e-8,2.7818032322102226e-8,8.290679607781879e-16,1],"translation":[8.964607238769531,-0.0000019073486328125,-0.000007251946954056621]},{"children":[32],"name":"Armature_RForeArm2","rotation":[-2.9802517786947647e-8,-4.547473508864641e-13,-7.835054762102278e-21,1],"translation":[9.32020092010498,8.821535288916493e-7,-0.0000012524534440672141]},{"children":[33],"name":"Armature_RHand2","rotation":[-4.0389678347315804e-28,-4.547473508864641e-13,1.587772908116498e-22,1],"translation":[8.993096351623535,0.0000019073485191256623,3.308814484626055e-7]},{"name":"Armature_EndRHand2","rotation":[-4.0389678347315804e-28,-4.547473508864641e-13,1.587772908116498e-22,1],"translation":[13.610703468322754,-1.9895196601282805e-13,-0.0000061851751524955034]},{"children":[35],"name":"Armature_RLowerJaw","rotation":[0,0.8434147834777832,0,0.537263035774231],"scale":[0.9999999403953552,0.9999999403953552,0.9999999403953552],"translation":[-3.4150381088256836,-11.07016372680664,4.718727111816406]},{"name":"Armature_EndRLowerJaw","rotation":[1.3030098410026034e-15,-5.960465188081798e-8,2.1860873999912656e-8,1],"scale":[0.9999999403953552,1,0.9999999403953552],"translation":[2.220524787902832,-8.859790802001953,4.336799144744873]},{"children":[37],"name":"Armature_RThigh","rotation":[0,-0.9100191593170166,0,0.4145663380622864],"translation":[-9.172813415527344,-0.4544105529785156,16.192808151245117]},{"children":[38],"name":"Armature_RLeg","rotation":[-2.1860881105340013e-8,5.364418598219345e-7,-1.2052843464493805e-14,1],"scale":[0.9999999403953552,0.9999999403953552,0.9999999403953552],"translation":[5.429766654968262,0.3565521240234375,0.3558974266052246]},{"children":[39],"name":"Armature_RFoot","rotation":[8.881783138210068e-16,0.0000021308658233465394,-7.855246968773637e-16,1],"scale":[1.0000001192092896,1,1.0000001192092896],"translation":[6.1982622146606445,0.4071396589279175,0.4063052237033844]},{"name":"Armature_EndRFoot","rotation":[2.1860881105340013e-8,4.470348358154297e-8,4.3721765763393705e-8,1],"translation":[6.653364658355713,0.43702781200408936,0.43609124422073364]},{"children":[41],"name":"Armature_LShoulder2","rotation":[0,0.7071078419685364,0,0.7071056962013245],"scale":[0.9999999403953552,0.9999998211860657,0.9999999403953552],"translation":[-4.57545804977417,7.356498718261719,-18.8394718170166]},{"children":[42],"name":"Armature_LArm2","rotation":[0,-1.1368683772161603e-13,0,1],"translation":[8.964603424072266,0,0.0000019073549992754124]},{"children":[43],"name":"Armature_LForeArm2","translation":[9.320199966430664,-0.000003814697265625,0.0000019073486328125]},{"children":[44],"name":"Armature_LHand2","translation":[8.993106842041016,-0.0000019073486328125,0.0000019073486328125]},{"name":"Armature_EndLHand2","translation":[13.610706329345703,-0.0000019073486328125,0.0000019073486328125]},{"children":[46],"name":"Armature_LFeelerB1","rotation":[0,0.7071078419685364,0,0.7071056962013245],"scale":[0.9999999403953552,0.9999998211860657,0.9999999403953552],"translation":[0.7702388167381287,3.8234996795654297,-20.204586029052734]},{"children":[47],"name":"Armature_LFeelerB2","rotation":[0,-1.1368683772161603e-13,0,1],"translation":[8.51280403137207,0,6.529887741635321e-12]},{"children":[48],"name":"Armature_LFeelerB3","rotation":[-2.9802313505911115e-8,0,0,1],"translation":[9.358701705932617,-0.000003814697265625,0.000003814697265625]},{"children":[49],"name":"Armature_LFeelerB4","rotation":[2.980230107141324e-8,0,0,1],"translation":[10.55521011352539,-0.0000032511588869965635,0.0000038750231396988966]},{"name":"Armature_EndLFeelerB4","rotation":[1.0658141036401503e-14,0,0,1],"translation":[14.090007781982422,-0.000001907349087559851,0.0000019073479506914737]},{"children":[51],"name":"Armature_LThigh","rotation":[0,0.9351843595504761,0,0.35416126251220703],"scale":[0.9999999403953552,1,0.9999999403953552],"translation":[-9.172823905944824,-0.4545173645019531,-16.19278335571289]},{"children":[52],"name":"Armature_LLeg","rotation":[0,-6.556510925292969e-7,0,1],"translation":[5.429776191711426,0.3566436767578125,0.3558931350708008]},{"children":[53],"name":"Armature_LFoot","rotation":[2.1860881105340013e-8,-0.0000020712614059448242,-4.5723695690129754e-14,1],"translation":[6.19827127456665,0.4071235656738281,0.40621280670166016]},{"name":"Armature_EndLFoot","rotation":[4.440892098500626e-16,0,-4.2658950915978877e-16,1],"translation":[6.653317451477051,0.4370088577270508,0.4360799491405487]},{"children":[55],"name":"Armature_LLowerJaw","rotation":[0,0.06459294259548187,0,0.9979116916656494],"translation":[-3.414994239807129,-11.0701904296875,-4.718661308288574]},{"name":"Armature_EndLLowerJaw","rotation":[0,1.4901161193847656e-8,0,1],"scale":[1,0.9999999403953552,1],"translation":[2.470989227294922,-8.85976791381836,4.199150562286377]},{"children":[57],"name":"Armature_LUpperJaw","rotation":[0,-0.5351106524467468,0,0.8447821140289307],"scale":[0.9999999403953552,0.9999999403953552,0.9999999403953552],"translation":[4.514834403991699,-11.089031219482422,-4.781123161315918]},{"name":"Armature_EndLUpperJaw","scale":[0.9999999403953552,0.9999999403953552,0.9999999403953552],"translation":[2.2913289070129395,-8.86098861694336,4.297308444976807]},{"children":[59],"name":"Armature_RUpperJaw","rotation":[0,-0.998069703578949,0,0.06210481747984886],"scale":[1,0.9999997615814209,1],"translation":[4.514834403991699,-11.089061737060547,4.7811408042907715]},{"name":"Armature_EndRUpperJaw","rotation":[0,3.3527612686157227e-8,0,1],"translation":[2.399204969406128,-8.861003875732422,4.238018989562988]},{"children":[61],"name":"Armature_LArm3","rotation":[0,0.7071078419685364,0,0.7071056962013245],"translation":[-9.494548797607422,11.283002853393555,-15.811755180358887]},{"children":[62],"name":"Armature_LForeArm3","translation":[9.34469985961914,0,0]},{"children":[63],"name":"Armature_LHand3","translation":[9.406301498413086,0,0]},{"name":"Armature_EndLHand3","translation":[14.835498809814453,0,0]},{"children":[65],"name":"Armature_LFeelerA","rotation":[0,-0.7069838047027588,0,0.7072297930717468],"scale":[0.9999999403953552,0.9999998807907104,0.9999999403953552],"translation":[14.591167449951172,-8.680553436279297,-11.489128112792969]},{"name":"Armature_EndLFeelerA","rotation":[2.980252844508868e-8,0,-4.336809206929901e-19,1],"scale":[1,0.9999999403953552,1],"translation":[6.323680281639099e-7,-11.910900115966797,-0.004107598681002855]},{"name":"Armature_pm0139_00_Skin"}],"samplers":[{}],"scene":0,"scenes":[{"name":"Scene","nodes":[0,2,1]}],"skins":[{"inverseBindMatrices":0,"joints":[4,5,6,7,8,9,10,11,12,13,14,15,16,17,18,19,20,21,22,23,24,25,26,27,28,29,30,31,32,33,34,35,36,37,38,39,40,41,42,43,44,45,46,47,48,49,50,51,52,53,54,55,56,57,58,59,60,61,62,63,64,65,66],"skeleton":0}],"textures":[{"sampler":0,"source":0},{"sampler":0,"source":1}],"extensionsUsed":["ALI_amc_mesh_compression"],"extensionsRequired":["ALI_amc_mesh_compression"]}