{"accessors":[{"bufferView":0,"componentType":5126,"count":38,"max":[1,0,7.767278362036541e-16,0,1.4210853868169056e-14,6.452569815789409e-23,1,0,0,-1,6.452570446878133e-23,0,40.76641082763672,0,42.40871810913086,1],"min":[1,-8.307375765070901e-8,-1.4210853868169056e-14,0,-7.767278362036541e-16,-6.452546465506615e-23,1,0,-8.307376475613637e-8,-1.0000001192092896,-6.452547096595339e-23,0,-40.76634979248047,-58.531105041503906,-42.4717903137207,1],"type":"MAT4","byteOffset":0}],"asset":{"generator":"Khronos Blender glTF 2.0 exporter","version":"2.0"},"bufferViews":[{"buffer":0,"byteLength":2432,"byteOffset":0},{"buffer":0,"byteOffset":2432,"byteLength":2171},{"buffer":0,"byteOffset":4603,"byteLength":92173},{"buffer":0,"byteOffset":96776,"byteLength":114343}],"buffers":[{"byteLength":211119,"uri":"buffer.bin"}],"images":[{"name":"pm0111_00_BodyA1","uri":"pm0111_00_BodyA1.png"},{"name":"pm0111_00_BodyB1","uri":"pm0111_00_BodyB1.png"},{"name":"pm0111_00_Eye1","uri":"pm0111_00_Eye1.png"}],"materials":[{"name":"BodyASpc01_mat","pbrMetallicRoughness":{"baseColorFactor":[0.6400000190734865,0.6400000190734865,0.6400000190734865,1],"baseColorTexture":{"index":0},"metallicFactor":0}},{"name":"BodyBSpc00_mat","pbrMetallicRoughness":{"baseColorFactor":[0.6400000190734865,0.6400000190734865,0.6400000190734865,1],"baseColorTexture":{"index":1},"metallicFactor":0}},{"name":"Eye_mat","pbrMetallicRoughness":{"baseColorFactor":[0.6400000190734865,0.6400000190734865,0.6400000190734865,1],"baseColorTexture":{"index":2},"metallicFactor":0}}],"meshes":[{"name":"mesh_6_BodyASpc01","primitives":[{"material":2,"extensions":{"ALI_amc_mesh_compression":{"bufferView":1}}},{"material":1,"extensions":{"ALI_amc_mesh_compression":{"bufferView":2}}},{"material":0,"extensions":{"ALI_amc_mesh_compression":{"bufferView":3}}}]}],"nodes":[{"children":[3,4],"name":"Armature","rotation":[0.7071068286895752,0,0,0.7071067094802856]},{"name":"Camera","rotation":[0.483536034822464,0.33687159419059753,-0.20870360732078552,0.7804827094078064],"translation":[7.481131553649902,5.34366512298584,6.5076398849487305]},{"name":"Lamp","rotation":[0.16907575726509094,0.7558802962303162,-0.27217137813568115,0.570947527885437],"scale":[1,1,0.9999999403953552],"translation":[4.076245307922363,5.903861999511719,-1.0054539442062378]},{"mesh":0,"name":"vsn_mesh_6_BodyASpc01","skin":0},{"children":[5,38,39,40],"name":"Armature_pm0111_00_sihorn","rotation":[-0.7071068286895752,0,0,0.7071068286895752]},{"children":[6],"name":"Armature_Origin"},{"children":[7,29],"name":"Armature_Waist","translation":[0,46.10905838012695,-26.869962692260742]},{"children":[8,25,26,27,28],"name":"Armature_Spine1"},{"children":[9,10,11,17,23],"name":"Armature_Spine2","translation":[2.0839301839714608e-7,0.6638298034667969,22.230295181274414]},{"name":"Armature_LFeelerA","translation":[27.46584129333496,11.705318450927734,35.737815856933594]},{"name":"Armature_RFeelerA","translation":[-27.46578025817871,11.705314636230469,35.73785400390625]},{"children":[12],"name":"Armature_LShoulder","scale":[1,0.9999999403953552,1],"translation":[27.933687210083008,-7.692466735839844,16.76995849609375]},{"children":[13,16],"name":"Armature_LArm","rotation":[0,-7.105426934084528e-15,0,1],"translation":[0.000003814697265625,-8.390361785888672,6.807659149169922]},{"children":[14],"name":"Armature_LForeArm","rotation":[0,7.105426934084528e-15,0,1],"translation":[-0.0000019073482917519868,-8.077932357788086,4.4301300048828125]},{"children":[15],"name":"Armature_LHand","translation":[-0.0000171661376953125,-14.902758598327637,-7.368080139160156]},{"name":"Armature_LFinger","translation":[0,-5.173435211181641,8]},{"name":"Armature_LFeelerB","rotation":[0,7.105426934084528e-15,0,1],"translation":[9.079000473022461,-6.258840560913086,-8.604880332946777]},{"children":[18],"name":"Armature_RShoulder","scale":[1,0.9999999403953552,1],"translation":[-27.933698654174805,-7.6924591064453125,16.769956588745117]},{"children":[19,22],"name":"Armature_RArm","translation":[-0.0000019073486328125,5.004722595214844,6.852388381958008]},{"children":[20],"name":"Armature_RForeArm","translation":[-0.026611328125,-36.302852630615234,-2.9430980682373047]},{"children":[21],"name":"Armature_RHand","translation":[0.02660369873046875,-0.07293128967285156,-0.039581298828125]},{"name":"Armature_RFinger","translation":[0,-5.173388481140137,7.999998092651367]},{"name":"Armature_RFeelerB","translation":[-9.078998565673828,-19.653921127319336,-8.649577140808105]},{"children":[24],"name":"Armature_Head","translation":[-3.309399971840321e-7,-1.0542068481445312,32.69786834716797]},{"name":"Armature_Jaw","rotation":[0,-7.1054265105680546e-15,0,1],"translation":[-0.000005524742846318986,-17.59942054748535,14.413589477539062]},{"name":"Armature_LFeelerC","translation":[40.76634979248047,-9.026782989501953,15.25566291809082]},{"name":"Armature_RFeelerC","translation":[-40.76641082763672,-9.026748657226562,15.2556734085083]},{"name":"Armature_LFeelerD","translation":[35.95573043823242,12.422027587890625,12.77827262878418]},{"name":"Armature_RFeelerD","rotation":[0,-3.552713678800501e-15,0,1],"translation":[-35.95568084716797,12.422046661376953,12.778351783752441]},{"children":[30,34],"name":"Armature_Hips","scale":[1,0.9999999403953552,1],"translation":[-0.000002770909986793413,-0.000003814697265625,2.869964599609375]},{"children":[31],"name":"Armature_LThigh","rotation":[0,-3.8836248873372857e-16,0,1],"translation":[27.3555908203125,-14.596664428710938,-18.408720016479492]},{"children":[32],"name":"Armature_LLeg","rotation":[-1.6131366163766536e-23,3.8836248873372857e-16,4.1536878825354506e-8,1],"translation":[1.0539207458496094,-8.637432098388672,5.147457122802734]},{"children":[33],"name":"Armature_LFoot","rotation":[-2.05259030704427e-30,-4.941609619300602e-23,-4.1536878825354506e-8,1],"translation":[-0.9019612073898315,-10.272981643676758,-5.096858978271484]},{"name":"Armature_LToe","rotation":[0,4.941609619300602e-23,0,1],"translation":[1.4135608673095703,-10.378098487854004,6.951148986816406]},{"children":[35],"name":"Armature_RThigh","rotation":[0,3.8836391810182706e-16,0,1],"translation":[-27.355606079101562,-14.59665298461914,-18.408700942993164]},{"children":[36],"name":"Armature_RLeg","rotation":[1.6131424539473523e-23,-3.8836391810182706e-16,4.1536878825354506e-8,1],"translation":[-1.0538921356201172,-8.637382507324219,5.147510528564453]},{"children":[37],"name":"Armature_RFoot","rotation":[0,-9.4039548065783e-38,-4.1536878825354506e-8,1],"translation":[0.9019213914871216,-10.273018836975098,-5.097042083740234]},{"name":"Armature_RToe","translation":[-1.4135246276855469,-10.37809944152832,6.951267242431641]},{"name":"Armature_pm0111_00_BodySkin"},{"name":"Armature_pm0111_00_IrisSkin"},{"children":[41],"name":"Armature_VriVis00"},{"name":"Armature_pm0111_00_HornSkin"}],"samplers":[{}],"scene":0,"scenes":[{"name":"Scene","nodes":[0,2,1]}],"skins":[{"inverseBindMatrices":0,"joints":[4,5,6,7,8,9,10,11,12,13,14,15,16,17,18,19,20,21,22,23,24,25,26,27,28,29,30,31,32,33,34,35,36,37,38,39,40,41],"skeleton":0}],"textures":[{"sampler":0,"source":0},{"sampler":0,"source":1},{"sampler":0,"source":2}],"extensionsUsed":["ALI_amc_mesh_compression"],"extensionsRequired":["ALI_amc_mesh_compression"]}