{"accessors":[{"bufferView":0,"componentType":5126,"count":32,"max":[1,0,1,0,1,0,1,0,0,-1,0,0,2.9450089931488037,13.468859672546387,70.1168441772461,1],"min":[-0.8800024390220642,0,-1,0,-1,0,-0.8800024390220642,0,0,-1.0000001192092896,0,0,-116.96076965332031,0,-74.48700714111328,1],"type":"MAT4","byteOffset":0}],"asset":{"generator":"Khronos Blender glTF 2.0 exporter","version":"2.0"},"bufferViews":[{"buffer":0,"byteLength":2048,"byteOffset":0},{"buffer":0,"byteOffset":2048,"byteLength":71457},{"buffer":0,"byteOffset":73505,"byteLength":3167}],"buffers":[{"byteLength":76672,"uri":"buffer.bin"}],"images":[{"name":"pm0023_00_Body1","uri":"pm0023_00_Body1.png"},{"name":"pm0023_00_Eye1","uri":"pm0023_00_Eye1.png"}],"materials":[{"alphaMode":"OPAQUE","name":"Material__22","pbrMetallicRoughness":{"baseColorFactor":[0.6400000190734865,0.6400000190734865,0.6400000190734865,1],"baseColorTexture":{"index":0},"metallicFactor":0}},{"alphaMode":"OPAQUE","name":"Material__23","pbrMetallicRoughness":{"baseColorFactor":[0.6400000190734865,0.6400000190734865,0.6400000190734865,1],"baseColorTexture":{"index":1},"metallicFactor":0}}],"meshes":[{"name":"Ekans","primitives":[{"material":0,"extensions":{"ALI_amc_mesh_compression":{"bufferView":1}}},{"material":1,"extensions":{"ALI_amc_mesh_compression":{"bufferView":2}}}]}],"nodes":[{"children":[2,4],"name":"Armature","scale":[0.02539999969303608,0.02539999969303608,0.02539999969303608]},{"name":"Camera","rotation":[0.483536034822464,0.33687159419059753,-0.20870360732078552,0.7804827094078064],"translation":[7.481131553649902,5.34366512298584,6.5076398849487305]},{"mesh":0,"name":"Ekans","skin":0},{"name":"Lamp","rotation":[0.16907575726509094,0.7558802962303162,-0.27217137813568115,0.570947527885437],"scale":[1,1,0.9999999403953552],"translation":[4.076245307922363,5.903861999511719,-1.0054539442062378]},{"children":[5,35],"name":"Armature_pm0023_00","rotation":[-0.7071068286895752,0,0,0.7071068286895752]},{"children":[6],"name":"Armature_Origin"},{"children":[7,22],"name":"Armature_Waist","rotation":[0,-0.7071080803871155,0,0.7071055769920349],"scale":[1,0.9999999403953552,1]},{"children":[8],"name":"Armature_Hips","rotation":[0,1,0,-0.0000012675908465098473],"translation":[0,-4.76837158203125e-7,0]},{"children":[9],"name":"Armature_Tail1","rotation":[0,-3.178655560986954e-8,0,1],"translation":[9.096960067749023,0,3.1294257496483624e-7]},{"children":[10],"name":"Armature_Tail2","translation":[9.844940185546875,0,-2.871983895147423e-7]},{"children":[11],"name":"Armature_Tail3","translation":[10.078899383544922,0,-2.9402502832454047e-7]},{"children":[12],"name":"Armature_Tail4","translation":[10.078901290893555,0,-2.940232093351369e-7]},{"children":[13],"name":"Armature_Tail5","translation":[10.04549789428711,0,-2.9304635518201394e-7]},{"children":[14],"name":"Armature_Tail6","translation":[10.112297058105469,0,-2.949999498014222e-7]},{"children":[15],"name":"Armature_Tail7","translation":[9.945301055908203,0,-2.901286961787264e-7]},{"children":[16],"name":"Armature_Tail8","translation":[10.045501708984375,0,-2.930535174527904e-7]},{"children":[17],"name":"Armature_Tail9","translation":[8.354400634765625,0,-2.437152488710126e-7]},{"children":[18],"name":"Armature_Tail10","translation":[6.747703552246094,0,-1.9685080587805714e-7]},{"children":[19],"name":"Armature_Tail11","translation":[6.253593444824219,0,-1.824225819291314e-7]},{"children":[20],"name":"Armature_Tail12","translation":[6.9589996337890625,0,-2.0300626601965632e-7]},{"children":[21],"name":"Armature_Tail13","translation":[5.300010681152344,0,-1.5462114788533654e-7]},{"name":"Armature_EndTail13","translation":[4.0977630615234375,0,-1.1954375622735824e-7]},{"children":[23],"name":"Armature_Spine1","rotation":[0,2.3841846541472478e-7,0,1],"translation":[0,-4.76837158203125e-7,0]},{"children":[24],"name":"Armature_Spine2","translation":[11.012100219726562,0,-2.636697900015861e-7]},{"children":[25],"name":"Armature_Spine3","translation":[10.16830062866211,0,-2.4347170324290346e-7]},{"children":[26],"name":"Armature_Spine4","translation":[10.02280044555664,0,-2.399755771875789e-7]},{"children":[27],"name":"Armature_Spine5","translation":[10.070796966552734,0,-2.411179025330057e-7]},{"children":[28],"name":"Armature_Spine6","translation":[9.443302154541016,0,-2.2610754513152642e-7]},{"children":[29],"name":"Armature_Spine7","translation":[7.452098846435547,0,-1.7843547084339662e-7]},{"children":[30],"name":"Armature_Spine8","rotation":[0,-0.1432185173034668,0,0.9896911382675171],"translation":[7.203601837158203,0,-0.000004172470653429627]},{"children":[31,33],"name":"Armature_Head","rotation":[0,-0.24512378871440887,0,0.9694918990135193],"scale":[1,0.9999999403953552,1],"translation":[5.700571537017822,-1.757177710533142,-1.6851530075073242]},{"children":[32],"name":"Armature_LowerJaw","rotation":[0,0.9307711124420166,0,0.3656025230884552],"scale":[0.9999999403953552,0.9999999403953552,0.9999999403953552],"translation":[2.2885117530822754,-5.030514240264893,-2.27622652053833]},{"name":"Armature_EndLowerJaw","rotation":[0,7.450580596923828e-8,0,1],"translation":[0.01043516956269741,-6.6811676025390625,-0.2639416456222534]},{"children":[34],"name":"Armature_UpperJaw","rotation":[0,-0.14604789018630981,0,0.9892775416374207],"scale":[0.9999999403953552,0.9999999403953552,0.9999999403953552],"translation":[3.621145725250244,-5.080135822296143,-3.6018033027648926]},{"name":"Armature_EndUpperJaw","translation":[1.5452278852462769,-6.02754020690918,-2.862917900085449]},{"name":"Armature_pm0023_00_Skin"}],"samplers":[{}],"scene":0,"scenes":[{"name":"Scene","nodes":[0,3,1]}],"skins":[{"inverseBindMatrices":0,"joints":[4,5,6,7,8,9,10,11,12,13,14,15,16,17,18,19,20,21,22,23,24,25,26,27,28,29,30,31,32,33,34,35],"skeleton":0}],"textures":[{"sampler":0,"source":0},{"sampler":0,"source":1}],"extensionsUsed":["ALI_amc_mesh_compression"],"extensionsRequired":["ALI_amc_mesh_compression"]}