{"accessors":[{"bufferView":0,"componentType":5126,"count":44,"max":[1.0000001192092896,0,1,0,0.9974433183670044,0,1.0000001192092896,0,0,-1,0,0,38.60421371459961,26.637128829956055,50.55726623535156,1],"min":[-0.8470719456672668,0,-0.9974433183670044,0,-1,0,-0.8470719456672668,0,0,-1,0,0,-78.93049621582031,-47.84389114379883,-69.73369598388672,1],"type":"MAT4","byteOffset":0}],"asset":{"generator":"Khronos Blender glTF 2.0 exporter","version":"2.0"},"bufferViews":[{"buffer":0,"byteLength":2816,"byteOffset":0},{"buffer":0,"byteOffset":2816,"byteLength":3907},{"buffer":0,"byteOffset":6723,"byteLength":1323},{"buffer":0,"byteOffset":8046,"byteLength":2001},{"buffer":0,"byteOffset":10047,"byteLength":134609}],"buffers":[{"byteLength":144656,"uri":"buffer.bin"}],"images":[{"name":"pm0026_00_Body1","uri":"pm0026_00_Body1.png"},{"name":"pm0026_00_Eye1","uri":"pm0026_00_Eye1.png"},{"name":"pm0026_00_Mouth1","uri":"pm0026_00_Mouth1.png"},{"name":"pm0026_00_BodyBInc","uri":"pm0026_00_BodyBInc.png"}],"materials":[{"alphaMode":"OPAQUE","name":"Material__146","pbrMetallicRoughness":{"baseColorFactor":[0.6400000190734865,0.6400000190734865,0.6400000190734865,1],"baseColorTexture":{"index":0},"metallicFactor":0}},{"alphaMode":"OPAQUE","name":"Material__147","pbrMetallicRoughness":{"baseColorFactor":[0.6400000190734865,0.6400000190734865,0.6400000190734865,1],"baseColorTexture":{"index":1},"metallicFactor":0}},{"alphaMode":"OPAQUE","name":"Material__148","pbrMetallicRoughness":{"baseColorFactor":[0.6400000190734865,0.6400000190734865,0.6400000190734865,1],"baseColorTexture":{"index":2},"metallicFactor":0}},{"alphaMode":"MASK","name":"Material__149","pbrMetallicRoughness":{"baseColorFactor":[0.6400000190734865,0.6400000190734865,0.6400000190734865,1],"baseColorTexture":{"index":3},"metallicFactor":0}}],"meshes":[{"name":"RaichuF","primitives":[{"material":3,"extensions":{"ALI_amc_mesh_compression":{"bufferView":1}}},{"material":1,"extensions":{"ALI_amc_mesh_compression":{"bufferView":2}}},{"material":2,"extensions":{"ALI_amc_mesh_compression":{"bufferView":3}}},{"material":0,"extensions":{"ALI_amc_mesh_compression":{"bufferView":4}}}]}],"nodes":[{"children":[3,4],"name":"Armature","scale":[0.02539999969303608,0.02539999969303608,0.02539999969303608]},{"name":"Camera","rotation":[0.483536034822464,0.33687159419059753,-0.20870360732078552,0.7804827094078064],"translation":[7.481131553649902,5.34366512298584,6.5076398849487305]},{"name":"Lamp","rotation":[0.16907575726509094,0.7558802962303162,-0.27217137813568115,0.570947527885437],"scale":[1,1,0.9999999403953552],"translation":[4.076245307922363,5.903861999511719,-1.0054539442062378]},{"mesh":0,"name":"RaichuF","skin":0},{"children":[5,44,46,47],"name":"Armature_pm0026_00_raichu","rotation":[-0.7071068286895752,0,0,0.7071068286895752]},{"children":[6],"name":"Armature_Origin"},{"children":[7,24],"name":"Armature_Waist","rotation":[0,-0.7535861730575562,0,0.6573491096496582],"translation":[0,-1.0938313007354736,29.494600296020508]},{"children":[8,11,17,23],"name":"Armature_Hips","rotation":[0,-0.9976820349693298,0,0.06804916262626648],"translation":[-3.4019362260551134e-7,0.000001430511474609375,-0.0000024821943043207284]},{"children":[9],"name":"Armature_Tail1","rotation":[0,-0.7044370174407959,0,0.7097665667533875],"scale":[0.9999999403953552,1,0.9999999403953552],"translation":[8.028213500976562,18.59493637084961,0.000005433939804788679]},{"children":[10],"name":"Armature_Tail2","rotation":[0,-0.0037699893582612276,0,0.9999929070472717],"scale":[0.9999999403953552,1,0.9999999403953552],"translation":[0.0007474637241102755,13.604290008544922,-0.10278519243001938]},{"name":"Armature_Tail3","rotation":[0,2.480646799085662e-10,0,1],"translation":[0,16.73849868774414,0.0000019073904695687816]},{"children":[12],"name":"Armature_LThigh","rotation":[0,-0.2694261968135834,0,0.9630210399627686],"translation":[6.234682083129883,1.838027000427246,12.35519027709961]},{"children":[13],"name":"Armature_LLeg","rotation":[0,0.4676348865032196,0,0.8839218020439148],"scale":[1.0000001192092896,1,1.0000001192092896],"translation":[7.09190559387207,-4.976341247558594,-4.264678478240967]},{"children":[14,16],"name":"Armature_LFoot","rotation":[0,-0.8437799215316772,0,0.5366894602775574],"scale":[0.9999999403953552,1,0.9999999403953552],"translation":[8.923397064208984,4.527744770050049,4.112087726593018]},{"children":[15],"name":"Armature_LToe","rotation":[0,1.4901161193847656e-8,0,1],"translation":[-0.0060759037733078,-12.207775115966797,-2.915968656539917]},{"name":"Armature_EndLToe","rotation":[0,4.656612873077393e-10,0,1],"translation":[0.000031366944313049316,-14.724799156188965,8.940696716308594e-8]},{"name":"Armature_EndLFoot","rotation":[0,7.916241884231567e-9,0,1],"translation":[0.000017799437046051025,-9.537738800048828,0.0000010281801223754883]},{"children":[18],"name":"Armature_RThigh","rotation":[0,-0.265392005443573,0,0.9641405940055847],"translation":[6.23468017578125,1.8380248546600342,-12.355278968811035]},{"children":[19],"name":"Armature_RLeg","rotation":[0,0.4676343500614166,0,0.8839220404624939],"scale":[0.9999998807907104,1,0.9999998807907104],"translation":[7.091878890991211,-4.976372718811035,-4.26453971862793]},{"children":[20,21],"name":"Armature_RFoot","rotation":[0,-0.835940957069397,0,0.5488194227218628],"scale":[1,0.9999999403953552,1],"translation":[8.923515319824219,4.527777671813965,4.112060070037842]},{"name":"Armature_EndRFoot","rotation":[0,-3.4458935260772705e-8,0,1],"scale":[1,0.9999999403953552,1],"translation":[0.00001850724220275879,-9.537739753723145,-0.000008255243301391602]},{"children":[22],"name":"Armature_RToe","rotation":[0,-2.7008354663848877e-8,0,1],"scale":[1,0.9999999403953552,1],"translation":[0.006225898861885071,-12.207925796508789,-2.915971517562866]},{"name":"Armature_EndRToe","rotation":[0,9.313225746154785e-10,0,1],"scale":[1,0.9999999403953552,1],"translation":[0.00002898275852203369,-14.724799156188965,0.0000031888484954833984]},{"name":"Armature_EndHips","rotation":[0,2.930624987129704e-8,0,1],"translation":[21.199600219726562,0,-0.0000018610026017995551]},{"children":[25],"name":"Armature_Spine1","rotation":[0,1.7881393432617188e-7,0,1],"translation":[0.00002432446854072623,8.344650268554688e-7,-0.000021168581952224486]},{"children":[26,34,39],"name":"Armature_Spine2","rotation":[0,-0.016751054674386978,0,0.9998596906661987],"translation":[6.550239562988281,-0.9060885906219482,-0.8977123498916626]},{"children":[27,28,31],"name":"Armature_Head","rotation":[0,0.12032344192266464,0,0.9927347302436829],"translation":[10.507608413696289,-1.8267818689346313,-1.8005141019821167]},{"name":"Armature_EndHead","rotation":[0,-7.450580596923828e-9,0,1],"translation":[24.852519989013672,1.785203218460083,1.7806411981582642]},{"children":[29],"name":"Armature_LEar1","rotation":[0,0.909155011177063,0,0.41645804047584534],"translation":[19.340301513671875,-0.3686649799346924,-10.195310592651367]},{"children":[30],"name":"Armature_LEar2","rotation":[0,0.015150929801166058,0,0.9998852610588074],"scale":[1.0000001192092896,1,1.0000001192092896],"translation":[1.1265287399291992,9.992459297180176,6.2534027099609375]},{"name":"Armature_EndLEar2","translation":[1.5167388916015625,16.181838989257812,10.177501678466797]},{"children":[32],"name":"Armature_REar1","rotation":[0,-0.16944342851638794,0,0.9855399131774902],"translation":[17.689184188842773,-0.3686544895172119,12.848478317260742]},{"children":[33],"name":"Armature_REar2","rotation":[0,-0.009688728488981724,0,0.9999530911445618],"scale":[0.9999999403953552,1,0.9999999403953552],"translation":[4.890569686889648,9.992440223693848,4.0567121505737305]},{"name":"Armature_EndREar2","rotation":[0,1.4901161193847656e-8,0,1],"translation":[8.045730590820312,16.18193244934082,6.4148030281066895]},{"children":[35],"name":"Armature_RShoulder","rotation":[0,-0.830896258354187,0,0.5564274191856384],"translation":[2.5903475284576416,-3.604006290435791,7.694632530212402]},{"children":[36],"name":"Armature_RArm","rotation":[0,-0.020909501239657402,0,0.9997813701629639],"translation":[3.6390295028686523,-5.257161617279053,-5.296278476715088]},{"children":[37],"name":"Armature_RForeArm","rotation":[0,-5.811452865600586e-7,0,1],"translation":[2.4695072174072266,-5.586780548095703,-3.483205795288086]},{"children":[38],"name":"Armature_RHand","rotation":[0,5.811452865600586e-7,0,1],"translation":[2.2127227783203125,-5.0058746337890625,-3.1209020614624023]},{"name":"Armature_EndRHand","translation":[2.2525157928466797,-5.095996856689453,-3.177231788635254]},{"children":[40],"name":"Armature_LShoulder","rotation":[0,0.4154897630214691,0,0.9095978736877441],"translation":[-0.11915671825408936,-3.6040196418762207,-8.118070602416992]},{"children":[41],"name":"Armature_LArm","rotation":[0,-0.17495372891426086,0,0.9845767021179199],"scale":[0.9999999403953552,1,0.9999999403953552],"translation":[5.714277267456055,-5.2571120262146,-2.9393529891967773]},{"children":[42],"name":"Armature_LForeArm","rotation":[0,-1.4901161193847656e-8,0,1],"translation":[2.7094826698303223,-5.586836814880371,-3.299981117248535]},{"children":[43],"name":"Armature_LHand","rotation":[0,-4.470348358154297e-8,0,1],"translation":[2.4276885986328125,-5.005855560302734,-2.9568228721618652]},{"name":"Armature_EndLHand","translation":[2.4714221954345703,-5.096046447753906,-3.0100936889648438]},{"children":[45],"name":"Armature_VriVis01"},{"name":"Armature_pm0026_01_TailSkin"},{"name":"Armature_pm0026_00_BodyIncSkin"},{"name":"Armature_pm0026_00_BodySkin"}],"samplers":[{}],"scene":0,"scenes":[{"name":"Scene","nodes":[0,2,1]}],"skins":[{"inverseBindMatrices":0,"joints":[4,5,6,7,8,9,10,11,12,13,14,15,16,17,18,19,20,21,22,23,24,25,26,27,28,29,30,31,32,33,34,35,36,37,38,39,40,41,42,43,44,45,46,47],"skeleton":0}],"textures":[{"sampler":0,"source":0},{"sampler":0,"source":1},{"sampler":0,"source":2},{"sampler":0,"source":3}],"extensionsUsed":["ALI_amc_mesh_compression"],"extensionsRequired":["ALI_amc_mesh_compression"]}