{"accessors":[{"bufferView":0,"componentType":5126,"count":13,"max":[1,0,0,0,0.8762641549110413,0,1,0,0,-1,0,0,0.00009108908125199378,0,6.130096039669297e-7,1],"min":[0.48183101415634155,0,-0.8762641549110413,0,0,0,0.48183101415634155,0,0,-1,0,0,-21.894208908081055,-50.16279983520508,-12.039008140563965,1],"type":"MAT4","byteOffset":0},{"bufferView":1,"componentType":5126,"count":13,"max":[1,0,0,0,0.8762641549110413,0,1,0,0,-1,0,0,0.00009108908125199378,0,6.130096039669297e-7,1],"min":[0.48183101415634155,0,-0.8762641549110413,0,0,0,0.48183101415634155,0,0,-1,0,0,-21.894208908081055,-50.16279983520508,-12.039008140563965,1],"type":"MAT4","byteOffset":0}],"asset":{"generator":"Khronos Blender glTF 2.0 exporter","version":"2.0"},"bufferViews":[{"buffer":0,"byteLength":832,"byteOffset":0},{"buffer":0,"byteLength":832,"byteOffset":832},{"buffer":0,"byteOffset":1664,"byteLength":84219},{"buffer":0,"byteOffset":85883,"byteLength":57383}],"buffers":[{"byteLength":143266,"uri":"buffer.bin"}],"images":[{"name":"pm0100_00_Body1","uri":"pm0100_00_Body1.png"},{"name":"pm0100_00_Eye1","uri":"pm0100_00_Eye1.png"}],"materials":[{"name":"BodySpc_mat","pbrMetallicRoughness":{"baseColorFactor":[0.6400000190734865,0.6400000190734865,0.6400000190734865,1],"baseColorTexture":{"index":0},"metallicFactor":0}},{"name":"Eye_mat","pbrMetallicRoughness":{"baseColorFactor":[0.6400000190734865,0.6400000190734865,0.6400000190734865,1],"baseColorTexture":{"index":1},"metallicFactor":0}}],"meshes":[{"name":"mesh_0_pm0100_00_Skin","primitives":[{"material":0,"extensions":{"ALI_amc_mesh_compression":{"bufferView":2}}}]},{"name":"mesh_1_pm0100_00_Skin","primitives":[{"material":1,"extensions":{"ALI_amc_mesh_compression":{"bufferView":3}}}]}],"nodes":[{"children":[3,4,5],"name":"Armature","rotation":[0.7071068286895752,0,0,0.7071067094802856]},{"name":"Camera","rotation":[0.483536034822464,0.33687159419059753,-0.20870360732078552,0.7804827094078064],"translation":[7.481131553649902,5.34366512298584,6.5076398849487305]},{"name":"Lamp","rotation":[0.16907575726509094,0.7558802962303162,-0.27217137813568115,0.570947527885437],"scale":[1,1,0.9999999403953552],"translation":[4.076245307922363,5.903861999511719,-1.0054539442062378]},{"mesh":0,"name":"vsn_mesh_0_pm0100_00_Skin","skin":0},{"mesh":1,"name":"vsn_mesh_1_pm0100_00_Skin","skin":1},{"children":[6,17],"name":"Armature_pm0100_00","rotation":[-0.7071068286895752,0,0,0.7071068286895752]},{"children":[7],"name":"Armature_Origin"},{"children":[8,9],"name":"Armature_Waist","translation":[0,25,0]},{"name":"Armature_EndWaist","translation":[-0.00009108908125199378,25.162799835205078,0]},{"children":[10,11,13,15],"name":"Armature_EyeRoot","rotation":[0,-0.5090034008026123,0,0.8607645034790039],"translation":[-2.6808912728659706e-11,0.00000762939453125,-0.0000012722989595204126]},{"name":"Armature_EndEyeRoot","translation":[21.894210815429688,11.795734405517578,12.039009094238281]},{"children":[12],"name":"Armature_Eye1","translation":[4.293353866868799e-14,0,1.5357506932822673e-14]},{"name":"Armature_EndEye1","translation":[21.894210815429688,11.795734405517578,12.039009094238281]},{"children":[14],"name":"Armature_Eye2","translation":[4.293353866868799e-14,0,1.5357506932822673e-14]},{"name":"Armature_EndEye2","translation":[21.894210815429688,11.795734405517578,12.039009094238281]},{"children":[16],"name":"Armature_Eye3","translation":[4.293353866868799e-14,0,1.5357506932822673e-14]},{"name":"Armature_EndEye3","translation":[21.894210815429688,11.795734405517578,12.039009094238281]},{"name":"Armature_pm0100_00_Skin"}],"samplers":[{}],"scene":0,"scenes":[{"name":"Scene","nodes":[0,2,1]}],"skins":[{"inverseBindMatrices":0,"joints":[5,6,7,8,9,10,11,12,13,14,15,16,17],"skeleton":0},{"inverseBindMatrices":1,"joints":[5,6,7,8,9,10,11,12,13,14,15,16,17],"skeleton":0}],"textures":[{"sampler":0,"source":0},{"sampler":0,"source":1}],"extensionsUsed":["ALI_amc_mesh_compression"],"extensionsRequired":["ALI_amc_mesh_compression"]}