{"accessors":[{"bufferView":0,"componentType":5126,"count":30,"max":[1,0,7.120206388464695e-15,0,7.1054265105680546e-15,0,1,0,0,-1,0,0,63.926204681396484,0,31.96571159362793,1],"min":[1,0,-7.1054265105680546e-15,0,-7.120206388464695e-15,0,1,0,0,-1,0,0,-63.926204681396484,-108.13929748535156,-18.22053337097168,1],"type":"MAT4","byteOffset":0}],"asset":{"generator":"Khronos Blender glTF 2.0 exporter","version":"2.0"},"bufferViews":[{"buffer":0,"byteLength":1920,"byteOffset":0},{"buffer":0,"byteOffset":1920,"byteLength":225585},{"buffer":0,"byteOffset":227505,"byteLength":2059}],"buffers":[{"byteLength":229564,"uri":"buffer.bin"}],"images":[{"name":"pm0141_00_Body1","uri":"pm0141_00_Body1.png"},{"name":"pm0141_00_Eye1","uri":"pm0141_00_Eye1.png"}],"materials":[{"name":"BodySpc_mat","pbrMetallicRoughness":{"baseColorFactor":[0.6400000190734865,0.6400000190734865,0.6400000190734865,1],"baseColorTexture":{"index":0},"metallicFactor":0}},{"name":"Eye_mat","pbrMetallicRoughness":{"baseColorFactor":[0.6400000190734865,0.6400000190734865,0.6400000190734865,1],"baseColorTexture":{"index":1},"metallicFactor":0}}],"meshes":[{"name":"mesh_0_BodySpc","primitives":[{"material":0,"extensions":{"ALI_amc_mesh_compression":{"bufferView":1}}},{"material":1,"extensions":{"ALI_amc_mesh_compression":{"bufferView":2}}}]}],"nodes":[{"children":[3,4],"name":"Armature","rotation":[0.7071068286895752,0,0,0.7071067094802856]},{"name":"Camera","rotation":[0.483536034822464,0.33687159419059753,-0.20870360732078552,0.7804827094078064],"translation":[7.481131553649902,5.34366512298584,6.5076398849487305]},{"name":"Lamp","rotation":[0.16907575726509094,0.7558802962303162,-0.27217137813568115,0.570947527885437],"scale":[1,1,0.9999999403953552],"translation":[4.076245307922363,5.903861999511719,-1.0054539442062378]},{"mesh":0,"name":"vsn_mesh_0_BodySpc","skin":0},{"children":[5,33],"name":"Armature_pm0141_00","rotation":[-0.7071068286895752,0,0,0.7071068286895752]},{"children":[6],"name":"Armature_Origin"},{"children":[7,21],"name":"Armature_Waist","translation":[0,65.43251037597656,-14.065271377563477]},{"children":[8,19,20],"name":"Armature_Spine1"},{"children":[9,12,15,18],"name":"Armature_Spine2","translation":[0.000003525469765008893,11.230567932128906,4.796967506408691]},{"children":[10],"name":"Armature_Neck","translation":[0.000005525860615307465,17.60297393798828,8.229767799377441]},{"children":[11],"name":"Armature_Head","translation":[0.000002284469701407943,7.2774505615234375,2.9265058040618896]},{"name":"Armature_Jaw","rotation":[0,-1.6940654906118172e-21,0,1],"translation":[-0.0000033343503673677333,-10.62188720703125,16.332563400268555]},{"children":[13],"name":"Armature_LArm","translation":[15.50844669342041,10.900588989257812,4.0923051834106445]},{"children":[14],"name":"Armature_LForeArm","translation":[27.840991973876953,0.47624969482421875,1.439286708831787]},{"name":"Armature_LHand","translation":[20.576763153076172,20.099380493164062,1.063363790512085]},{"children":[16],"name":"Armature_RArm","translation":[-15.50831413269043,10.900634765625,4.092328071594238]},{"children":[17],"name":"Armature_RForeArm","rotation":[0,3.5601031942323474e-15,0,1],"translation":[-27.841089248657227,0.4762115478515625,1.4392609596252441]},{"name":"Armature_RHand","rotation":[0,-3.5601031942323474e-15,0,1],"translation":[-20.576805114746094,20.099082946777344,1.063507318496704]},{"name":"Armature_FeelerA","translation":[0.0000036424503377929796,11.603302001953125,-4.405216217041016]},{"name":"Armature_FeelerB","translation":[0.000003405829829716822,10.849479675292969,-3.9626693725585938]},{"name":"Armature_FeelerC","rotation":[0,-2.1175826205712405e-22,0,1],"translation":[9.960540410247631e-7,3.1729660034179688,-6.835269927978516]},{"children":[22,26,30],"name":"Armature_Hips","translation":[0,-0.00000762939453125,0]},{"children":[23],"name":"Armature_LThigh","translation":[10.506599426269531,-7.517421722412109,-0.9432287216186523]},{"children":[24],"name":"Armature_LLeg","rotation":[0,-3.5527132552840273e-15,0,1],"translation":[20.149051666259766,-15.545433044433594,23.1461181640625]},{"children":[25],"name":"Armature_LFoot","rotation":[0,3.5527132552840273e-15,0,1],"translation":[-3.9499282836914062,-34.108619689941406,-11.573423385620117]},{"name":"Armature_LToe","translation":[3.3827686309814453,-6.386662483215332,5.556017875671387]},{"children":[27],"name":"Armature_RThigh","translation":[-10.506589889526367,-7.517402648925781,-0.9432296752929688]},{"children":[28],"name":"Armature_RLeg","rotation":[0,3.5527132552840273e-15,0,1],"translation":[-20.14902114868164,-15.545509338378906,23.146089553833008]},{"children":[29],"name":"Armature_RFoot","rotation":[0,-3.5527132552840273e-15,0,1],"translation":[4.823390960693359,-34.108577728271484,-11.086563110351562]},{"name":"Armature_RToe","translation":[-4.256269454956055,-6.386667251586914,5.069188117980957]},{"children":[31],"name":"Armature_Tail1","rotation":[0,2.6469782757140506e-23,0,1],"translation":[1.2309000396726333e-7,-11.76287841796875,-2.2727413177490234]},{"children":[32],"name":"Armature_Tail2","rotation":[0,-2.6469782757140506e-23,0,1],"translation":[8.04167939350009e-7,-18.804916381835938,-8.378885269165039]},{"name":"Armature_Tail3","rotation":[0,-1.7763568394002505e-15,0,1],"translation":[6.957021696507582e-7,-16.268657684326172,-7.248813629150391]},{"name":"Armature_pm0141_00_Skin"}],"samplers":[{}],"scene":0,"scenes":[{"name":"Scene","nodes":[0,2,1]}],"skins":[{"inverseBindMatrices":0,"joints":[4,5,6,7,8,9,10,11,12,13,14,15,16,17,18,19,20,21,22,23,24,25,26,27,28,29,30,31,32,33],"skeleton":0}],"textures":[{"sampler":0,"source":0},{"sampler":0,"source":1}],"extensionsUsed":["ALI_amc_mesh_compression"],"extensionsRequired":["ALI_amc_mesh_compression"]}