{
    "accessors" : [
        {
            "bufferView" : 0,
            "componentType" : 5123,
            "count" : 16650,
            "max" : [
                3926
            ],
            "min" : [
                0
            ],
            "type" : "SCALAR"
        },
        {
            "bufferView" : 1,
            "componentType" : 5126,
            "count" : 3927,
            "max" : [
                85.56043243408203,
                34.832889556884766,
                0.32440900802612305
            ],
            "min" : [
                -85.56038665771484,
                -39.1768798828125,
                -124.87339782714844
            ],
            "type" : "VEC3"
        },
        {
            "bufferView" : 2,
            "componentType" : 5126,
            "count" : 3927,
            "max" : [
                0.9984130263328552,
                0.999908447265625,
                1.0
            ],
            "min" : [
                -0.9984130263328552,
                -0.999908447265625,
                -0.999542236328125
            ],
            "type" : "VEC3"
        },
        {
            "bufferView" : 3,
            "componentType" : 5126,
            "count" : 3927,
            "max" : [
                1.0,
                0.9978158473968506,
                0.9998794794082642,
                1.0
            ],
            "min" : [
                -0.9999999403953552,
                -0.9978158473968506,
                -0.9998793005943298,
                -1.0
            ],
            "type" : "VEC4"
        },
        {
            "bufferView" : 4,
            "componentType" : 5126,
            "count" : 3927,
            "max" : [
                1.0,
                0.9954500198364258
            ],
            "min" : [
                0.0,
                0.004932999610900879
            ],
            "type" : "VEC2"
        },
        {
            "bufferView" : 5,
            "componentType" : 5126,
            "count" : 3927,
            "max" : [
                1.0,
                1.0,
                1.0,
                1.0
            ],
            "min" : [
                1.0,
                1.0,
                1.0,
                1.0
            ],
            "type" : "VEC4"
        },
        {
            "bufferView" : 6,
            "componentType" : 5126,
            "count" : 3927,
            "max" : [
                1.0,
                1.0,
                1.0,
                1.0
            ],
            "min" : [
                1.0,
                1.0,
                1.0,
                1.0
            ],
            "type" : "VEC4"
        },
        {
            "bufferView" : 7,
            "componentType" : 5123,
            "count" : 3927,
            "max" : [
                28,
                27,
                28,
                28
            ],
            "min" : [
                3,
                0,
                0,
                0
            ],
            "type" : "VEC4"
        },
        {
            "bufferView" : 8,
            "componentType" : 5126,
            "count" : 3927,
            "max" : [
                1.0,
                0.9882352948188782,
                0.9294117093086243,
                0.12941180169582367
            ],
            "min" : [
                0.011764699593186378,
                0.0,
                0.0,
                0.0
            ],
            "type" : "VEC4"
        },
        {
            "bufferView" : 9,
            "componentType" : 5123,
            "count" : 120,
            "max" : [
                33
            ],
            "min" : [
                0
            ],
            "type" : "SCALAR"
        },
        {
            "bufferView" : 10,
            "componentType" : 5126,
            "count" : 34,
            "max" : [
                19.898279190063477,
                32.55413055419922,
                -87.8282470703125
            ],
            "min" : [
                -19.898279190063477,
                21.529830932617188,
                -101.67780303955078
            ],
            "type" : "VEC3"
        },
        {
            "bufferView" : 11,
            "componentType" : 5126,
            "count" : 34,
            "max" : [
                0.8644673228263855,
                0.9033173322677612,
                0.4929654896259308
            ],
            "min" : [
                -0.8644673228263855,
                0.3114719092845917,
                -0.4594866633415222
            ],
            "type" : "VEC3"
        },
        {
            "bufferView" : 12,
            "componentType" : 5126,
            "count" : 34,
            "max" : [
                0.9425182342529297,
                0.8980931043624878,
                0.15192973613739014,
                1.0
            ],
            "min" : [
                0.4251258075237274,
                -0.8980931043624878,
                -0.15192975103855133,
                1.0
            ],
            "type" : "VEC4"
        },
        {
            "bufferView" : 13,
            "componentType" : 5126,
            "count" : 34,
            "max" : [
                0.4914799928665161,
                -0.7604509592056274
            ],
            "min" : [
                0.008520007133483887,
                -0.9895490407943726
            ],
            "type" : "VEC2"
        },
        {
            "bufferView" : 14,
            "componentType" : 5126,
            "count" : 34,
            "max" : [
                1.0,
                1.0,
                1.0,
                1.0
            ],
            "min" : [
                1.0,
                1.0,
                1.0,
                1.0
            ],
            "type" : "VEC4"
        },
        {
            "bufferView" : 15,
            "componentType" : 5126,
            "count" : 34,
            "max" : [
                1.0,
                1.0,
                1.0,
                1.0
            ],
            "min" : [
                1.0,
                1.0,
                1.0,
                1.0
            ],
            "type" : "VEC4"
        },
        {
            "bufferView" : 16,
            "componentType" : 5123,
            "count" : 34,
            "max" : [
                6,
                0,
                0,
                0
            ],
            "min" : [
                6,
                0,
                0,
                0
            ],
            "type" : "VEC4"
        },
        {
            "bufferView" : 17,
            "componentType" : 5126,
            "count" : 34,
            "max" : [
                1.0,
                0.0,
                0.0,
                0.0
            ],
            "min" : [
                1.0,
                0.0,
                0.0,
                0.0
            ],
            "type" : "VEC4"
        },
        {
            "bufferView" : 18,
            "componentType" : 5126,
            "count" : 30,
            "max" : [
                1.0,
                0.0,
                7.120206388464695e-15,
                0.0,
                7.1054265105680546e-15,
                0.0,
                1.0,
                0.0,
                0.0,
                -1.0,
                0.0,
                0.0,
                63.926204681396484,
                0.0,
                31.96571159362793,
                1.0
            ],
            "min" : [
                1.0,
                0.0,
                -7.1054265105680546e-15,
                0.0,
                -7.120206388464695e-15,
                0.0,
                1.0,
                0.0,
                0.0,
                -1.0,
                0.0,
                0.0,
                -63.926204681396484,
                -108.13929748535156,
                -18.22053337097168,
                1.0
            ],
            "type" : "MAT4"
        }
    ],
    "asset" : {
        "generator" : "Khronos Blender glTF 2.0 exporter",
        "version" : "2.0"
    },
    "bufferViews" : [
        {
            "buffer" : 0,
            "byteLength" : 33300,
            "byteOffset" : 0,
            "target" : 34963
        },
        {
            "buffer" : 0,
            "byteLength" : 47124,
            "byteOffset" : 33300,
            "target" : 34962
        },
        {
            "buffer" : 0,
            "byteLength" : 47124,
            "byteOffset" : 80424,
            "target" : 34962
        },
        {
            "buffer" : 0,
            "byteLength" : 62832,
            "byteOffset" : 127548,
            "target" : 34962
        },
        {
            "buffer" : 0,
            "byteLength" : 31416,
            "byteOffset" : 190380,
            "target" : 34962
        },
        {
            "buffer" : 0,
            "byteLength" : 62832,
            "byteOffset" : 221796,
            "target" : 34962
        },
        {
            "buffer" : 0,
            "byteLength" : 62832,
            "byteOffset" : 284628,
            "target" : 34962
        },
        {
            "buffer" : 0,
            "byteLength" : 31416,
            "byteOffset" : 347460,
            "target" : 34962
        },
        {
            "buffer" : 0,
            "byteLength" : 62832,
            "byteOffset" : 378876,
            "target" : 34962
        },
        {
            "buffer" : 0,
            "byteLength" : 240,
            "byteOffset" : 441708,
            "target" : 34963
        },
        {
            "buffer" : 0,
            "byteLength" : 408,
            "byteOffset" : 441948,
            "target" : 34962
        },
        {
            "buffer" : 0,
            "byteLength" : 408,
            "byteOffset" : 442356,
            "target" : 34962
        },
        {
            "buffer" : 0,
            "byteLength" : 544,
            "byteOffset" : 442764,
            "target" : 34962
        },
        {
            "buffer" : 0,
            "byteLength" : 272,
            "byteOffset" : 443308,
            "target" : 34962
        },
        {
            "buffer" : 0,
            "byteLength" : 544,
            "byteOffset" : 443580,
            "target" : 34962
        },
        {
            "buffer" : 0,
            "byteLength" : 544,
            "byteOffset" : 444124,
            "target" : 34962
        },
        {
            "buffer" : 0,
            "byteLength" : 272,
            "byteOffset" : 444668,
            "target" : 34962
        },
        {
            "buffer" : 0,
            "byteLength" : 544,
            "byteOffset" : 444940,
            "target" : 34962
        },
        {
            "buffer" : 0,
            "byteLength" : 1920,
            "byteOffset" : 445484
        }
    ],
    "buffers" : [
        {
            "byteLength" : 447404,
            "uri" : "origin.bin"
        }
    ],
    "images" : [
        {
            "name" : "pm0141_00_Body1",
            "uri" : "pm0141_00_Body1.png"
        },
        {
            "name" : "pm0141_00_Eye1",
            "uri" : "pm0141_00_Eye1.png"
        }
    ],
    "materials" : [
        {
            "name" : "BodySpc_mat",
            "pbrMetallicRoughness" : {
                "baseColorFactor" : [
                    0.6400000190734865,
                    0.6400000190734865,
                    0.6400000190734865,
                    1.0
                ],
                "baseColorTexture" : {
                    "index" : 0
                },
                "metallicFactor" : 0.0
            }
        },
        {
            "name" : "Eye_mat",
            "pbrMetallicRoughness" : {
                "baseColorFactor" : [
                    0.6400000190734865,
                    0.6400000190734865,
                    0.6400000190734865,
                    1.0
                ],
                "baseColorTexture" : {
                    "index" : 1
                },
                "metallicFactor" : 0.0
            }
        }
    ],
    "meshes" : [
        {
            "name" : "mesh_0_BodySpc",
            "primitives" : [
                {
                    "attributes" : {
                        "COLOR_0" : 5,
                        "COLOR_1" : 6,
                        "JOINTS_0" : 7,
                        "NORMAL" : 2,
                        "POSITION" : 1,
                        "TANGENT" : 3,
                        "TEXCOORD_0" : 4,
                        "WEIGHTS_0" : 8
                    },
                    "indices" : 0,
                    "material" : 0
                },
                {
                    "attributes" : {
                        "COLOR_0" : 14,
                        "COLOR_1" : 15,
                        "JOINTS_0" : 16,
                        "NORMAL" : 11,
                        "POSITION" : 10,
                        "TANGENT" : 12,
                        "TEXCOORD_0" : 13,
                        "WEIGHTS_0" : 17
                    },
                    "indices" : 9,
                    "material" : 1
                }
            ]
        }
    ],
    "nodes" : [
        {
            "children" : [
                3,
                4
            ],
            "name" : "Armature",
            "rotation" : [
                0.7071068286895752,
                0.0,
                -0.0,
                0.7071067094802856
            ]
        },
        {
            "name" : "Camera",
            "rotation" : [
                0.483536034822464,
                0.33687159419059753,
                -0.20870360732078552,
                0.7804827094078064
            ],
            "translation" : [
                7.481131553649902,
                5.34366512298584,
                6.5076398849487305
            ]
        },
        {
            "name" : "Lamp",
            "rotation" : [
                0.16907575726509094,
                0.7558802962303162,
                -0.27217137813568115,
                0.570947527885437
            ],
            "scale" : [
                1.0,
                1.0,
                0.9999999403953552
            ],
            "translation" : [
                4.076245307922363,
                5.903861999511719,
                -1.0054539442062378
            ]
        },
        {
            "mesh" : 0,
            "name" : "vsn_mesh_0_BodySpc",
            "skin" : 0
        },
        {
            "children" : [
                5,
                33
            ],
            "name" : "Armature_pm0141_00",
            "rotation" : [
                -0.7071068286895752,
                0.0,
                0.0,
                0.7071068286895752
            ]
        },
        {
            "children" : [
                6
            ],
            "name" : "Armature_Origin"
        },
        {
            "children" : [
                7,
                21
            ],
            "name" : "Armature_Waist",
            "translation" : [
                0.0,
                65.43251037597656,
                -14.065271377563477
            ]
        },
        {
            "children" : [
                8,
                19,
                20
            ],
            "name" : "Armature_Spine1"
        },
        {
            "children" : [
                9,
                12,
                15,
                18
            ],
            "name" : "Armature_Spine2",
            "translation" : [
                3.525469765008893e-06,
                11.230567932128906,
                4.796967506408691
            ]
        },
        {
            "children" : [
                10
            ],
            "name" : "Armature_Neck",
            "translation" : [
                5.525860615307465e-06,
                17.60297393798828,
                8.229767799377441
            ]
        },
        {
            "children" : [
                11
            ],
            "name" : "Armature_Head",
            "translation" : [
                2.284469701407943e-06,
                7.2774505615234375,
                2.9265058040618896
            ]
        },
        {
            "name" : "Armature_Jaw",
            "rotation" : [
                0.0,
                -1.6940654906118172e-21,
                0.0,
                1.0
            ],
            "translation" : [
                -3.3343503673677333e-06,
                -10.62188720703125,
                16.332563400268555
            ]
        },
        {
            "children" : [
                13
            ],
            "name" : "Armature_LArm",
            "translation" : [
                15.50844669342041,
                10.900588989257812,
                4.0923051834106445
            ]
        },
        {
            "children" : [
                14
            ],
            "name" : "Armature_LForeArm",
            "translation" : [
                27.840991973876953,
                0.47624969482421875,
                1.439286708831787
            ]
        },
        {
            "name" : "Armature_LHand",
            "translation" : [
                20.576763153076172,
                20.099380493164062,
                1.063363790512085
            ]
        },
        {
            "children" : [
                16
            ],
            "name" : "Armature_RArm",
            "translation" : [
                -15.50831413269043,
                10.900634765625,
                4.092328071594238
            ]
        },
        {
            "children" : [
                17
            ],
            "name" : "Armature_RForeArm",
            "rotation" : [
                0.0,
                3.5601031942323474e-15,
                0.0,
                1.0
            ],
            "translation" : [
                -27.841089248657227,
                0.4762115478515625,
                1.4392609596252441
            ]
        },
        {
            "name" : "Armature_RHand",
            "rotation" : [
                0.0,
                -3.5601031942323474e-15,
                0.0,
                1.0
            ],
            "translation" : [
                -20.576805114746094,
                20.099082946777344,
                1.063507318496704
            ]
        },
        {
            "name" : "Armature_FeelerA",
            "translation" : [
                3.6424503377929796e-06,
                11.603302001953125,
                -4.405216217041016
            ]
        },
        {
            "name" : "Armature_FeelerB",
            "translation" : [
                3.405829829716822e-06,
                10.849479675292969,
                -3.9626693725585938
            ]
        },
        {
            "name" : "Armature_FeelerC",
            "rotation" : [
                0.0,
                -2.1175826205712405e-22,
                0.0,
                1.0
            ],
            "translation" : [
                9.960540410247631e-07,
                3.1729660034179688,
                -6.835269927978516
            ]
        },
        {
            "children" : [
                22,
                26,
                30
            ],
            "name" : "Armature_Hips",
            "translation" : [
                0.0,
                -7.62939453125e-06,
                0.0
            ]
        },
        {
            "children" : [
                23
            ],
            "name" : "Armature_LThigh",
            "translation" : [
                10.506599426269531,
                -7.517421722412109,
                -0.9432287216186523
            ]
        },
        {
            "children" : [
                24
            ],
            "name" : "Armature_LLeg",
            "rotation" : [
                0.0,
                -3.5527132552840273e-15,
                0.0,
                1.0
            ],
            "translation" : [
                20.149051666259766,
                -15.545433044433594,
                23.1461181640625
            ]
        },
        {
            "children" : [
                25
            ],
            "name" : "Armature_LFoot",
            "rotation" : [
                0.0,
                3.5527132552840273e-15,
                0.0,
                1.0
            ],
            "translation" : [
                -3.9499282836914062,
                -34.108619689941406,
                -11.573423385620117
            ]
        },
        {
            "name" : "Armature_LToe",
            "translation" : [
                3.3827686309814453,
                -6.386662483215332,
                5.556017875671387
            ]
        },
        {
            "children" : [
                27
            ],
            "name" : "Armature_RThigh",
            "translation" : [
                -10.506589889526367,
                -7.517402648925781,
                -0.9432296752929688
            ]
        },
        {
            "children" : [
                28
            ],
            "name" : "Armature_RLeg",
            "rotation" : [
                0.0,
                3.5527132552840273e-15,
                0.0,
                1.0
            ],
            "translation" : [
                -20.14902114868164,
                -15.545509338378906,
                23.146089553833008
            ]
        },
        {
            "children" : [
                29
            ],
            "name" : "Armature_RFoot",
            "rotation" : [
                0.0,
                -3.5527132552840273e-15,
                0.0,
                1.0
            ],
            "translation" : [
                4.823390960693359,
                -34.108577728271484,
                -11.086563110351562
            ]
        },
        {
            "name" : "Armature_RToe",
            "translation" : [
                -4.256269454956055,
                -6.386667251586914,
                5.069188117980957
            ]
        },
        {
            "children" : [
                31
            ],
            "name" : "Armature_Tail1",
            "rotation" : [
                0.0,
                2.6469782757140506e-23,
                0.0,
                1.0
            ],
            "translation" : [
                1.2309000396726333e-07,
                -11.76287841796875,
                -2.2727413177490234
            ]
        },
        {
            "children" : [
                32
            ],
            "name" : "Armature_Tail2",
            "rotation" : [
                0.0,
                -2.6469782757140506e-23,
                0.0,
                1.0
            ],
            "translation" : [
                8.04167939350009e-07,
                -18.804916381835938,
                -8.378885269165039
            ]
        },
        {
            "name" : "Armature_Tail3",
            "rotation" : [
                0.0,
                -1.7763568394002505e-15,
                0.0,
                1.0
            ],
            "translation" : [
                6.957021696507582e-07,
                -16.268657684326172,
                -7.248813629150391
            ]
        },
        {
            "name" : "Armature_pm0141_00_Skin"
        }
    ],
    "samplers" : [
        {}
    ],
    "scene" : 0,
    "scenes" : [
        {
            "name" : "Scene",
            "nodes" : [
                0,
                2,
                1
            ]
        }
    ],
    "skins" : [
        {
            "inverseBindMatrices" : 18,
            "joints" : [
                4,
                5,
                6,
                7,
                8,
                9,
                10,
                11,
                12,
                13,
                14,
                15,
                16,
                17,
                18,
                19,
                20,
                21,
                22,
                23,
                24,
                25,
                26,
                27,
                28,
                29,
                30,
                31,
                32,
                33
            ],
            "skeleton" : 0
        }
    ],
    "textures" : [
        {
            "sampler" : 0,
            "source" : 0
        },
        {
            "sampler" : 0,
            "source" : 1
        }
    ]
}
