{"accessors":[{"bufferView":0,"componentType":5126,"count":83,"max":[0.000003619988319769618,-1,0.0000036795906908082543,0,0.9999997019767761,0.0000037162055832595797,1.0000001192092896,0,0.9999793171882629,1.1921882503429515e-7,0.9999997019767761,0,12.271855354309082,25.167179107666016,26.99374771118164,1],"min":[-0.000003619914423325099,-1.0000001192092896,-0.0000036199146506987745,0,-0.9999792575836182,0.0000035237756037531653,-0.9999793171882629,0,-1.0000001192092896,-7.038226357281019e-8,-0.9999792575836182,0,-40.484703063964844,-25.167221069335938,-19.52402114868164,1],"type":"MAT4","byteOffset":0}],"asset":{"generator":"Khronos Blender glTF 2.0 exporter","version":"2.0"},"bufferViews":[{"buffer":0,"byteLength":5312,"byteOffset":0},{"buffer":0,"byteOffset":5312,"byteLength":178921},{"buffer":0,"byteOffset":184233,"byteLength":6343},{"buffer":0,"byteOffset":190576,"byteLength":6343}],"buffers":[{"byteLength":196919,"uri":"buffer.bin"}],"images":[{"name":"pm0052_00_Body1","uri":"pm0052_00_Body1.png"},{"name":"pm0052_00_Eye1","uri":"pm0052_00_Eye1.png"},{"name":"pm0052_00_Iris1","uri":"pm0052_00_Iris1.png"}],"materials":[{"alphaMode":"OPAQUE","name":"Body00","pbrMetallicRoughness":{"baseColorFactor":[0.6400000190734865,0.6400000190734865,0.6400000190734865,1],"baseColorTexture":{"index":0},"metallicFactor":0}},{"alphaMode":"OPAQUE","name":"REye","pbrMetallicRoughness":{"baseColorFactor":[0.6400000190734865,0.6400000190734865,0.6400000190734865,1],"baseColorTexture":{"index":1},"metallicFactor":0}},{"alphaMode":"MASK","name":"RIris","pbrMetallicRoughness":{"baseColorFactor":[0.6400000190734865,0.6400000190734865,0.6400000190734865,1],"baseColorTexture":{"index":2},"metallicFactor":0}}],"meshes":[{"name":"Meowth","primitives":[{"material":0,"extensions":{"ALI_amc_mesh_compression":{"bufferView":1}}},{"material":2,"extensions":{"ALI_amc_mesh_compression":{"bufferView":2}}},{"material":1,"extensions":{"ALI_amc_mesh_compression":{"bufferView":3}}}]}],"nodes":[{"children":[1,29,30],"name":"_01_pm0052_00","rotation":[0.7071068286895752,0,0,0.7071067094802856],"scale":[0.02539999783039093,0.02539999969303608,0.02539999969303608]},{"children":[2],"name":"_02_Origin"},{"children":[33,34,53],"name":"_03_Waist","rotation":[-5.024286464438499e-15,0.7071080803871155,0,0.7071055173873901],"scale":[1,0.9999999403953552,1],"translation":[0,0,-12.090800285339355]},{"name":"_05_EndHips","translation":[6.2869110107421875,0,0]},{"name":"_09_EndLFoot","translation":[3.1245310306549072,0,-4.768369876728684e-7]},{"name":"_11_EndLToe","translation":[7.201700210571289,-1.1920899822825959e-7,-4.768369876728684e-7]},{"name":"_15_EndRFoot","translation":[3.124530076980591,0.0000014305099966804846,2.3841900542720396e-7]},{"name":"_17_EndRToe","translation":[7.2017412185668945,-0.000003814699994109105,-2.3841900542720396e-7]},{"name":"_22_EndTail4","translation":[7.809693813323975,0,3.63798010813432e-12]},{"name":"_26_EndHead","translation":[17.15049934387207,0,0]},{"name":"_28_EndLEar","translation":[7.497119903564453,4.768369876728684e-7,-9.536739753457368e-7]},{"name":"_31_EndLFeelerA2","translation":[5.9517822265625,0,7.152560215217818e-7]},{"name":"_34_EndLFeelerB2","translation":[5.160460948944092,0,0.000003814699994109105]},{"name":"_37_EndLFeelerC2","translation":[4.539960861206055,4.768369876728684e-7,-0.000003814699994109105]},{"name":"_39_EndREar","translation":[7.497128009796143,-0.000005722049991163658,0.000004768370217789197]},{"name":"_42_EndRFeelerA2","translation":[5.951728820800781,-0.000028610200388357043,-0.000009536740435578395]},{"name":"_45_EndRFeelerB2","translation":[5.16045618057251,-0.0000028610199933609692,-0.00006294249760685489]},{"name":"_48_EndRFeelerC2","translation":[4.539939880371094,-0.0000023841901111154584,0.000028610200388357043]},{"children":[19],"name":"_49_RootJaw"},{"name":"_50_EndRootJaw","translation":[17.15049934387207,-1.7052999908440808e-13,0]},{"name":"_52_EndFeelerA","translation":[2.366637945175171,0.0000019073499970545527,0]},{"name":"_54_EndFeelerB","translation":[2.366637945175171,0.0000019073499970545527,0]},{"name":"_56_EndJaw","translation":[8.883000373840332,0,0]},{"name":"_63_EndLFingerA3","translation":[2.282115936279297,0,-0.000003814699994109105]},{"name":"_67_EndLFingerB3","translation":[2.2051539421081543,0,-0.0000019073499970545527]},{"name":"_71_EndLFingerC3","translation":[2.3021349906921387,-0.0000028610199933609692,0.000003814699994109105]},{"name":"_78_EndRFingerA3","translation":[2.2821009159088135,-7.450580152834618e-9,-0.00004768370126839727]},{"name":"_82_EndRFingerB3","translation":[2.205152988433838,-0.0000019073499970545527,0.000007629389983776491]},{"name":"_86_EndRFingerC3","translation":[2.3021280765533447,-0.000005722049991163658,-0.000005722049991163658]},{"name":"_87_pm0052_00_BodySkin"},{"name":"_88_pm0052_00_IrisSkin"},{"name":"Camera","rotation":[0.483536034822464,0.33687159419059753,-0.20870360732078552,0.7804827094078064],"translation":[7.481131553649902,5.34366512298584,6.5076398849487305]},{"name":"Lamp","rotation":[0.16907575726509094,0.7558802962303162,-0.27217137813568115,0.570947527885437],"scale":[1,1,0.9999999403953552],"translation":[4.076245307922363,5.903861999511719,-1.0054539442062378]},{"mesh":0,"name":"Meowth","rotation":[0.49999913573265076,-0.5000008940696716,0.5000009536743164,0.4999990463256836],"scale":[1,1,1.0000001192092896],"skin":0,"translation":[-12.090800285339355,0,-0.000043768577597802505]},{"children":[35,36,42,48],"name":"_03_Waist__04_Hips","rotation":[-0.501610279083252,0.4983845353126526,-0.4983845353126526,0.501610279083252],"translation":[-12.090800285339355,12.090802192687988,-0.00004520990842138417]},{"name":"_03_Waist__05_EndHips","translation":[6.286388397216797,-0.000037312503991415724,-0.08111890405416489]},{"children":[37],"name":"_03_Waist__06_LThigh","rotation":[0,-0.0338127426803112,0,0.9994282126426697],"scale":[1,0.9999999403953552,1],"translation":[3.4376096725463867,-3.4000234603881836,0.455160528421402]},{"children":[38],"name":"_03_Waist__07_LLeg","rotation":[0,0.16734550893306732,0,0.9858983159065247],"translation":[3.907947301864624,-0.000022172927856445312,-0.5333863496780396]},{"children":[39,40],"name":"_03_Waist__08_LFoot","rotation":[0,-0.7954300045967102,0,0.6060455441474915],"translation":[2.218292236328125,-0.000016450881958007812,1.2830029726028442]},{"name":"_03_Waist__09_EndLFoot","rotation":[0,3.096647560596466e-8,0,1],"scale":[1,0.9999999403953552,1],"translation":[-3.1242711544036865,0.00000858306884765625,0.04032859206199646]},{"children":[41],"name":"_03_Waist__10_LToe","rotation":[0,8.12578946352005e-8,0,1],"scale":[1,0.9999999403953552,1],"translation":[-5.9840898513793945,0.000010728836059570312,-1.2169840335845947]},{"name":"_03_Waist__11_EndLToe","scale":[1,0.9999999403953552,1],"translation":[-7.2011027336120605,0.000021219253540039062,0.09295114874839783]},{"children":[43],"name":"_03_Waist__12_RThigh","rotation":[0,-0.0338127464056015,0,0.9994282126426697],"translation":[3.437649726867676,3.399977684020996,0.45518505573272705]},{"children":[44],"name":"_03_Waist__13_RLeg","rotation":[0,0.16734547913074493,0,0.9858983755111694],"scale":[0.9999999403953552,1,0.9999999403953552],"translation":[3.9079484939575195,-0.000023365020751953125,-0.5333855748176575]},{"children":[45,46],"name":"_03_Waist__14_RFoot","rotation":[0,-0.7954299449920654,0,0.6060455441474915],"translation":[2.218292713165283,-0.000017404556274414062,1.2830013036727905]},{"name":"_03_Waist__15_EndRFoot","rotation":[0,2.9802322387695312e-8,0,1],"translation":[-3.124270439147949,0.000014543533325195312,0.040330298244953156]},{"children":[47],"name":"_03_Waist__16_RToe","rotation":[0,7.497146725654602e-8,0,1],"translation":[-5.9840850830078125,0.000009775161743164062,-1.2169835567474365]},{"name":"_03_Waist__17_EndRToe","translation":[-7.201141357421875,0.000031948089599609375,0.09294846653938293]},{"children":[49],"name":"_03_Waist__18_Tail1","rotation":[0,-0.7810933589935303,0,0.6244142651557922],"scale":[1,0.9999999403953552,1],"translation":[2.572314977645874,-0.00003230571383028291,4.5848798751831055]},{"children":[50],"name":"_03_Waist__19_Tail2","rotation":[0,-0.24564573168754578,0,0.9693596959114075],"translation":[7.34812593460083,-0.000021696090698242188,0.0000010356307029724121]},{"children":[51],"name":"_03_Waist__20_Tail3","rotation":[0,-0.1272355318069458,0,0.9918725490570068],"scale":[0.9999998807907104,1,0.9999998807907104],"translation":[6.671994686126709,-0.0000020265579223632812,-0.0000019073486328125]},{"children":[52],"name":"_03_Waist__21_Tail4","rotation":[0,-0.2637166678905487,0,0.9646002054214478],"translation":[4.6237945556640625,0.000004172323770035291,-0.0000019073486328125]},{"name":"_03_Waist__22_EndTail4","rotation":[0,2.0489096641540527e-8,0,1],"translation":[7.809693813323975,0.000026464462280273438,4.76837158203125e-7]},{"children":[54],"name":"_03_Waist__23_Spine1","rotation":[-0.5,-0.5000000596046448,0.5000000596046448,0.5],"scale":[1,0.9999999403953552,1],"translation":[-12.090800285339355,12.090802192687988,-0.000045209915697341785]},{"children":[55,87,102],"name":"_03_Waist__24_Spine2","translation":[3.3590188026428223,0.000012367967428872362,2.7834119009639835e-7]},{"children":[56,57,59,62,65,68,70,73,76,79],"name":"_03_Waist__25_Head","translation":[4.403449535369873,0.00001627206802368164,8.586027888668468e-8]},{"name":"_03_Waist__26_EndHead","translation":[17.150501251220703,0,-6.638119884883054e-7]},{"children":[58],"name":"_03_Waist__27_LEar","rotation":[0,-0.019372085109353065,0,0.9998123645782471],"translation":[14.406326293945312,-5.91639518737793,-1.820717453956604]},{"name":"_03_Waist__28_EndLEar","translation":[6.321349620819092,-3.993828773498535,-0.5446765422821045]},{"children":[60],"name":"_03_Waist__29_LFeelerA1","rotation":[0,0.2107493132352829,0,0.977540135383606],"translation":[13.764512062072754,-2.843306541442871,6.225433826446533]},{"children":[61],"name":"_03_Waist__30_LFeelerA2","translation":[6.297074317932129,-0.4687161445617676,-0.00788116455078125]},{"name":"_03_Waist__31_EndLFeelerA2","translation":[5.93535852432251,-0.44179320335388184,-0.0074253082275390625]},{"children":[63],"name":"_03_Waist__32_LFeelerB1","rotation":[0,0.09796734899282455,0,0.9951896667480469],"translation":[10.484734535217285,-8.947422981262207,5.177372455596924]},{"children":[64],"name":"_03_Waist__33_LFeelerB2","translation":[2.0848801136016846,-4.776318550109863,-0.6957550048828125]},{"name":"_03_Waist__34_EndLFeelerB2","translation":[2.067840576171875,-4.687895774841309,-0.6148314476013184]},{"children":[66],"name":"_03_Waist__35_LFeelerC1","rotation":[0,0.11001602560281754,0,0.993929922580719],"translation":[6.546418190002441,-9.701727867126465,5.872586250305176]},{"children":[67],"name":"_03_Waist__36_LFeelerC2","rotation":[0,5.21540641784668e-8,0,1],"translation":[-0.8382811546325684,-5.009588241577148,-1.4099502563476562]},{"name":"_03_Waist__37_EndLFeelerC2","translation":[-0.7632660865783691,-4.314623832702637,-1.1885724067687988]},{"children":[69],"name":"_03_Waist__38_REar","rotation":[0,-0.019371552392840385,0,0.9998123645782471],"scale":[0.9999999403953552,1,0.9999999403953552],"translation":[14.406177520751953,5.916482925415039,-1.820762276649475]},{"name":"_03_Waist__39_EndREar","translation":[6.321331977844238,3.993875503540039,-0.544704794883728]},{"children":[71],"name":"_03_Waist__40_RFeelerA1","rotation":[0,0.2107495218515396,0,0.9775401949882507],"scale":[0.9999999403953552,1,0.9999999403953552],"translation":[13.764492988586426,2.843454360961914,6.2254109382629395]},{"children":[72],"name":"_03_Waist__41_RFeelerA2","rotation":[0,1.4901161193847656e-8,0,1],"translation":[6.297111988067627,0.46874046325683594,-0.007859230041503906]},{"name":"_03_Waist__42_EndRFeelerA2","rotation":[0,1.4901159417490817e-8,0,1],"scale":[1.0000001192092896,1,1.0000001192092896],"translation":[5.935302257537842,0.4418196678161621,-0.007457733154296875]},{"children":[74],"name":"_03_Waist__43_RFeelerB1","rotation":[0,0.09796993434429169,0,0.9951894879341125],"translation":[10.484665870666504,8.947535514831543,5.177303791046143]},{"children":[75],"name":"_03_Waist__44_RFeelerB2","rotation":[0,-7.450580596923828e-9,0,1],"translation":[2.084867000579834,4.776335716247559,-0.695777416229248]},{"name":"_03_Waist__45_EndRFeelerB2","rotation":[0,-7.450580596923828e-9,0,1],"translation":[2.067763566970825,4.687918663024902,-0.6148743629455566]},{"children":[77],"name":"_03_Waist__46_RFeelerC1","rotation":[0,0.11002073436975479,0,0.9939293265342712],"translation":[6.546307563781738,9.701817512512207,5.872515678405762]},{"children":[78],"name":"_03_Waist__47_RFeelerC2","rotation":[0,-5.21540641784668e-8,0,1],"translation":[-0.8382787704467773,5.009610176086426,-1.4100041389465332]},{"name":"_03_Waist__48_EndRFeelerC2","translation":[-0.7632544040679932,4.3145904541015625,-1.1886091232299805]},{"children":[80,81,83,85],"name":"_03_Waist__49_RootJaw","translation":[5.285056658976828e-7,0,8.586027888668468e-8]},{"name":"_03_Waist__50_EndRootJaw","translation":[17.150501251220703,0,-6.638119884883054e-7]},{"children":[82],"name":"_03_Waist__51_FeelerA","rotation":[0,-0.7074242234230042,0,0.7067891955375671],"translation":[7.129084587097168,0.00006493926048278809,10.331402778625488]},{"name":"_03_Waist__52_EndFeelerA","rotation":[0,2.7794158086180687e-8,0,1],"translation":[2.366638422012329,0.000008881092071533203,-0.002126753330230713]},{"children":[84],"name":"_03_Waist__53_FeelerB","rotation":[0,-0.7074242234230042,0,0.7067891955375671],"translation":[7.129006385803223,0.00006496906280517578,10.331402778625488]},{"name":"_03_Waist__54_EndFeelerB","rotation":[0,2.7794158086180687e-8,0,1],"translation":[2.366638422012329,0.000008851289749145508,-0.002126753330230713]},{"children":[86],"name":"_03_Waist__55_Jaw","rotation":[0,-0.7828894257545471,0,0.6221608519554138],"translation":[6.258604526519775,0.000029116876248735934,1.6079909801483154]},{"name":"_03_Waist__56_EndJaw","rotation":[0,2.2351745343485163e-8,0,1],"scale":[0.9999999403953552,0.9999999403953552,0.9999999403953552],"translation":[8.882997512817383,0.000030785791750531644,-0.000003814697265625]},{"children":[88],"name":"_03_Waist__57_LArm","rotation":[0,-0.000001847744101723947,0,1],"translation":[2.7869791984558105,-3.0154106616973877,-0.09148677438497543]},{"children":[89],"name":"_03_Waist__58_LForeArm","translation":[-0.000002815770130837336,-8.266813278198242,0.00003194477176293731]},{"children":[90,94,98],"name":"_03_Waist__59_LHand","translation":[-9.083269105758518e-7,-6.617011070251465,0.000025269051548093557]},{"children":[91],"name":"_03_Waist__60_LFingerA1","rotation":[0,0.000647425651550293,0,0.9999998807907104],"translation":[0.131989523768425,-2.3292484283447266,0.0009231367148458958]},{"children":[92],"name":"_03_Waist__61_LFingerA2","rotation":[0,0,-2.9802315282267955e-8,1],"translation":[-0.28412026166915894,-1.3805255889892578,-0.0023293085396289825]},{"children":[93],"name":"_03_Waist__62_LFingerA3","rotation":[2.9799764433846576e-8,0.00008583080489188433,2.980488034154405e-8,1],"translation":[-0.28340110182762146,-1.3770512342453003,-0.0023242346942424774]},{"name":"_03_Waist__63_EndLFingerA3","rotation":[-2.9802322387695312e-8,-5.820588455662801e-11,5.960464477539063e-8,1],"translation":[-0.6713480949401855,-2.1811306476593018,-0.004163816105574369]},{"children":[95],"name":"_03_Waist__64_LFingerB1","rotation":[0,-0.452548086643219,0,0.8917400240898132],"translation":[0.3341328203678131,-2.2351226806640625,1.6842442750930786]},{"children":[96],"name":"_03_Waist__65_LFingerB2","rotation":[0,1.4901159417490817e-8,0,1],"scale":[1.0000001192092896,1,1.0000001192092896],"translation":[0.3227863311767578,-0.8142223358154297,0.7107334136962891]},{"children":[97],"name":"_03_Waist__66_LFingerB3","rotation":[0,1.6391277313232422e-7,0,1],"translation":[0.3401222229003906,-0.8579292297363281,0.7488880157470703]},{"name":"_03_Waist__67_EndLFingerB3","rotation":[0,1.4901161193847656e-8,0,1],"translation":[0.6310443878173828,-1.5917987823486328,1.3894810676574707]},{"children":[99],"name":"_03_Waist__68_LFingerC1","rotation":[0,0.47645431756973267,0,0.8791992664337158],"translation":[0.38193994760513306,-2.0907955169677734,-1.5233116149902344]},{"children":[100],"name":"_03_Waist__69_LFingerC2","rotation":[0,-0.0008849504520185292,0,0.9999996423721313],"translation":[0.3977891206741333,-0.8492927551269531,-0.7059693336486816]},{"children":[101],"name":"_03_Waist__70_LFingerC3","rotation":[0,-1.1920928955078125e-7,0,1],"translation":[0.4439302682876587,-0.9535083770751953,-0.7919950485229492]},{"name":"_03_Waist__71_EndLFingerC3","rotation":[0,-1.4901161193847656e-8,0,1],"translation":[0.7762129306793213,-1.6672134399414062,-1.3848156929016113]},{"children":[103],"name":"_03_Waist__72_RArm","rotation":[0,0.0000019073486328125,0,1],"translation":[2.7869677543640137,3.0154294967651367,-0.09150870889425278]},{"children":[104],"name":"_03_Waist__73_RForeArm","translation":[-0.00005860047895112075,8.266782760620117,-0.00003136535087833181]},{"children":[105,109,113],"name":"_03_Waist__74_RHand","translation":[-0.000047156292566796765,6.617001533508301,-0.000024689812562428415]},{"children":[106],"name":"_03_Waist__75_RFingerA1","rotation":[0,0.0006483793840743601,0,0.9999998807907104],"translation":[0.1319776028394699,2.3293018341064453,0.0009065939811989665]},{"children":[107],"name":"_03_Waist__76_RFingerA2","rotation":[0,0,-2.9802322387695312e-8,1],"translation":[-0.2841014266014099,1.3804969787597656,-0.0023412927985191345]},{"children":[108],"name":"_03_Waist__77_RFingerA3","rotation":[0,0.00008618831634521484,-2.1215973043057362e-16,1],"translation":[-0.2834154963493347,1.3770934343338013,-0.002336999401450157]},{"name":"_03_Waist__78_EndRFingerA3","rotation":[1.734723475976807e-18,0,0,1],"translation":[-0.6714078783988953,2.181096076965332,-0.0041875229217112064]},{"children":[110],"name":"_03_Waist__79_RFingerB1","rotation":[0,-0.45254772901535034,0,0.8917402029037476],"translation":[0.334073930978775,2.2352066040039062,1.6842321157455444]},{"children":[111],"name":"_03_Waist__80_RFingerB2","rotation":[0,0,-5.960464477539063e-8,1],"translation":[0.32274913787841797,0.8142051696777344,0.7107639312744141]},{"children":[112],"name":"_03_Waist__81_RFingerB3","rotation":[1.2434497875801753e-14,-1.0430813546236095e-7,1.1920928955078125e-7,1],"scale":[0.9999999403953552,1,1],"translation":[0.3401205837726593,0.8578880429267883,0.7488546371459961]},{"name":"_03_Waist__82_EndRFingerB3","rotation":[-1.7763578981914345e-15,1.4901161193847656e-8,-1.1920927533992653e-7,1],"scale":[0.9999999403953552,0.9999999403953552,1],"translation":[0.6310176253318787,1.5918055772781372,1.389486312866211]},{"children":[114],"name":"_03_Waist__83_RFingerC1","rotation":[0,0.4764563739299774,0,0.8791982531547546],"translation":[0.3818860650062561,2.090789794921875,-1.523328185081482]},{"children":[115],"name":"_03_Waist__84_RFingerC2","rotation":[0,-0.0008848312427289784,0,0.9999996423721313],"scale":[1,0.9999999403953552,1],"translation":[0.3978320360183716,0.8492927551269531,-0.705902099609375]},{"children":[116],"name":"_03_Waist__85_RFingerC3","rotation":[0,-1.4901161193847656e-8,0,1],"scale":[1,0.9999999403953552,1],"translation":[0.4439026117324829,0.9534931182861328,-0.7920627593994141]},{"name":"_03_Waist__86_EndRFingerC3","rotation":[0,-1.4901161193847656e-8,0,1],"scale":[1,0.9999999403953552,1],"translation":[0.776231050491333,1.6671886444091797,-1.3848214149475098]}],"samplers":[{}],"scene":0,"scenes":[{"name":"Scene","nodes":[28,27,26,25,24,23,22,21,20,18,17,16,15,14,13,12,11,10,9,8,7,6,5,4,3,0,32,31]}],"skins":[{"inverseBindMatrices":0,"joints":[34,35,36,37,38,39,40,41,42,43,44,45,46,47,48,49,50,51,52,53,54,55,56,57,58,59,60,61,62,63,64,65,66,67,68,69,70,71,72,73,74,75,76,77,78,79,80,81,82,83,84,85,86,87,88,89,90,91,92,93,94,95,96,97,98,99,100,101,102,103,104,105,106,107,108,109,110,111,112,113,114,115,116],"skeleton":2}],"textures":[{"sampler":0,"source":0},{"sampler":0,"source":1},{"sampler":0,"source":2}],"extensionsUsed":["ALI_amc_mesh_compression"],"extensionsRequired":["ALI_amc_mesh_compression"]}