{"accessors":[{"bufferView":0,"componentType":5126,"count":64,"max":[1,0,0.9995417594909668,0,0.9365334510803223,0,1,0,0,-1,0,0,34.01932144165039,50.011619567871094,46.96147537231445,1],"min":[-1,0,-0.9365334510803223,0,-0.9995417594909668,0,-1,0,0,-1.0000001192092896,0,0,-85.09390258789062,-92.74896240234375,-84.25084686279297,1],"type":"MAT4","byteOffset":0}],"asset":{"generator":"Khronos Blender glTF 2.0 exporter","version":"2.0"},"bufferViews":[{"buffer":0,"byteLength":4096,"byteOffset":0},{"buffer":0,"byteOffset":4096,"byteLength":707},{"buffer":0,"byteOffset":4803,"byteLength":100741},{"buffer":0,"byteOffset":105544,"byteLength":2155},{"buffer":0,"byteOffset":107699,"byteLength":79749}],"buffers":[{"byteLength":187448,"uri":"buffer.bin"}],"images":[{"name":"pm0136_00_BodyB1","uri":"pm0136_00_BodyB1.png"},{"name":"pm0136_00_BodyA1","uri":"pm0136_00_BodyA1.png"},{"name":"pm0136_00_Eye1","uri":"pm0136_00_Eye1.png"},{"name":"pm0136_00_Mouth1","uri":"pm0136_00_Mouth1.png"}],"materials":[{"alphaMode":"OPAQUE","name":"Material__10","pbrMetallicRoughness":{"baseColorFactor":[0.6400000190734865,0.6400000190734865,0.6400000190734865,1],"baseColorTexture":{"index":0},"metallicFactor":0}},{"alphaMode":"OPAQUE","name":"Material__11","pbrMetallicRoughness":{"baseColorFactor":[0.6400000190734865,0.6400000190734865,0.6400000190734865,1],"baseColorTexture":{"index":1},"metallicFactor":0}},{"alphaMode":"OPAQUE","name":"Material__12","pbrMetallicRoughness":{"baseColorFactor":[0.6400000190734865,0.6400000190734865,0.6400000190734865,1],"baseColorTexture":{"index":2},"metallicFactor":0}},{"alphaMode":"OPAQUE","name":"Material__13","pbrMetallicRoughness":{"baseColorFactor":[0.6400000190734865,0.6400000190734865,0.6400000190734865,1],"baseColorTexture":{"index":3},"metallicFactor":0}}],"meshes":[{"name":"Flareon","primitives":[{"material":3,"extensions":{"ALI_amc_mesh_compression":{"bufferView":1}}},{"material":0,"extensions":{"ALI_amc_mesh_compression":{"bufferView":2}}},{"material":2,"extensions":{"ALI_amc_mesh_compression":{"bufferView":3}}},{"material":1,"extensions":{"ALI_amc_mesh_compression":{"bufferView":4}}}]}],"nodes":[{"children":[2,4],"name":"Armature","scale":[0.02539999969303608,0.02539999969303608,0.02539999969303608]},{"name":"Camera","rotation":[0.483536034822464,0.33687159419059753,-0.20870360732078552,0.7804827094078064],"translation":[7.481131553649902,5.34366512298584,6.5076398849487305]},{"mesh":0,"name":"Flareon","skin":0},{"name":"Lamp","rotation":[0.16907575726509094,0.7558802962303162,-0.27217137813568115,0.570947527885437],"scale":[1,1,0.9999999403953552],"translation":[4.076245307922363,5.903861999511719,-1.0054539442062378]},{"children":[5,67],"name":"Armature_pm0136_00","rotation":[-0.7071068286895752,0,0,0.7071068286895752]},{"children":[6],"name":"Armature_Origin"},{"children":[7,44],"name":"Armature_Waist","rotation":[0,0.999882698059082,0,0.015322603285312653],"translation":[0,3.065768241882324,36.897098541259766]},{"children":[8],"name":"Armature_Spine1","rotation":[0,0.0000033369287848472595,0,1],"translation":[0.000004162726327194832,0.00003838539123535156,0.000007509090664825635]},{"children":[9,30,37],"name":"Armature_Spine2","rotation":[0,0.02724171057343483,0,0.9996289014816284],"translation":[0.0077220662496984005,-8.2200288772583,0.2518766522407532]},{"children":[10,20],"name":"Armature_Neck","rotation":[0,0.2149588167667389,0,0.9766231179237366],"translation":[0.007748036179691553,-13.619729995727539,-0.3246648609638214]},{"children":[11,13,15,16,18],"name":"Armature_Feeler","translation":[6.348782335408032e-7,0,2.505298652977217e-7]},{"children":[12],"name":"Armature_LFeeler","rotation":[0,0.9958281517028809,0,0.0912487804889679],"translation":[-6.473535060882568,0.30420684814453125,-4.262395858764648]},{"name":"Armature_EndLFeeler","rotation":[0,-4.470348358154297e-8,0,1],"translation":[16.3651123046875,4.49822998046875,3.2551350593566895]},{"children":[14],"name":"Armature_RFeeler","rotation":[0,-0.09125123172998428,0,0.9958279132843018],"scale":[0.9999999403953552,1,0.9999999403953552],"translation":[7.327486991882324,0.3042430877685547,2.526289463043213]},{"name":"Armature_EndRFeeler","rotation":[0,1.4901161193847656e-8,0,1],"translation":[15.660136222839355,4.49825382232666,5.7596025466918945]},{"name":"Armature_EndFeeler","translation":[6.782201290130615,-31.237667083740234,-13.787900924682617]},{"children":[17],"name":"Armature_FeelerA","rotation":[0,-0.9313809275627136,0,0.36404597759246826],"translation":[-3.583408832550049,-3.230398178100586,7.284897804260254]},{"name":"Armature_EndFeelerA","rotation":[0,-1.4901159417490817e-8,0,1],"scale":[1.0000001192092896,1,1.0000001192092896],"translation":[16.335798263549805,-6.760379791259766,-6.306694507598877]},{"children":[19],"name":"Armature_FeelerB","rotation":[0,0.80715411901474,0,0.590340793132782],"translation":[3.845337390899658,3.5257158279418945,-7.817347049713135]},{"name":"Armature_EndFeelerB","translation":[9.044987678527832,12.036321640014648,8.682933807373047]},{"children":[21,24,27],"name":"Armature_Head","rotation":[0,0.12337572872638702,0,0.9923601150512695],"scale":[0.9999999403953552,1,0.9999999403953552],"translation":[1.2297195196151733,-5.663839340209961,-2.499962568283081]},{"children":[22],"name":"Armature_FeelerC1","rotation":[0,0.8380476832389832,0,0.5455970764160156],"scale":[1,0.9999999403953552,1],"translation":[9.27710247039795,-16.8504695892334,-10.913630485534668]},{"children":[23],"name":"Armature_FeelerC2","rotation":[0,-0.222331240773201,0,0.9749712944030762],"scale":[1,0.9999999403953552,1],"translation":[7.663324356079102,7.278522491455078,4.606036186218262]},{"name":"Armature_EndFeelerC2","rotation":[0,1.4901161193847656e-8,0,1],"translation":[10.467663764953613,9.550302505493164,8.339247703552246]},{"children":[25],"name":"Armature_LEar1","rotation":[0,0.9695199131965637,0,0.2450123280286789],"translation":[1.474663257598877,-8.46308708190918,-16.236021041870117]},{"children":[26],"name":"Armature_LEar2","rotation":[0,1.4901161193847656e-8,0,1],"translation":[6.079072952270508,9.687820434570312,13.365287780761719]},{"name":"Armature_EndLEar2","translation":[7.737443447113037,12.330667495727539,17.011343002319336]},{"children":[28],"name":"Armature_REar1","rotation":[0,0.25131455063819885,0,0.9679054617881775],"translation":[15.786556243896484,-8.463033676147461,-4.070141792297363]},{"children":[29],"name":"Armature_REar2","rotation":[0,1.1920928955078125e-7,0,1],"translation":[14.11851978302002,9.687763214111328,4.031370162963867]},{"name":"Armature_EndREar2","rotation":[0,1.4901161193847656e-8,0,1],"translation":[17.970117568969727,12.330636024475098,5.131155014038086]},{"children":[31],"name":"Armature_LShoulder","rotation":[0,-0.9680577516555786,0,0.25072768330574036],"scale":[0.9999999403953552,1,0.9999999403953552],"translation":[-2.895458221435547,-10.888967514038086,-0.7761111259460449]},{"children":[32],"name":"Armature_LArm","rotation":[0,0.5332698225975037,0,0.8459452390670776],"translation":[7.924928665161133,-0.03639793395996094,-0.03647565841674805]},{"children":[33],"name":"Armature_LForeArm","rotation":[0,-0.11602016538381577,0,0.993246853351593],"translation":[19.23354721069336,1.6413955688476562,1.6355105638504028]},{"children":[34,35],"name":"Armature_LHand","rotation":[0,-0.654302716255188,0,0.7562327980995178],"scale":[0.9999999403953552,1,0.9999999403953552],"translation":[11.504888534545898,-1.7310895919799805,-1.7121604681015015]},{"name":"Armature_EndLHand","rotation":[0,-1.4435501682896756e-8,0,1],"scale":[0.9999999403953552,1,0.9999999403953552],"translation":[0.000014959834516048431,-7.229179382324219,-0.000014454126358032227]},{"children":[36],"name":"Armature_LFinger","rotation":[0,-1.4435501682896756e-8,0,1],"scale":[0.9999999403953552,1,0.9999999403953552],"translation":[0.00001228963810717687,-3.85589599609375,-2.3443541526794434]},{"name":"Armature_EndLFinger","scale":[0.9999999403953552,1,0.9999999403953552],"translation":[0.000011295625881757587,-5.9956207275390625,-0.000011995900422334671]},{"children":[38],"name":"Armature_RShoulder","rotation":[0,-0.27814847230911255,0,0.9605382084846497],"translation":[2.9292001724243164,-10.888967514038086,-0.6371989250183105]},{"children":[39],"name":"Armature_RArm","rotation":[0,-0.4555952548980713,0,0.8901870846748352],"translation":[7.924910545349121,-0.03639793395996094,-0.03629255294799805]},{"children":[40],"name":"Armature_RForeArm","rotation":[0,-0.11602006107568741,0,0.9932469725608826],"translation":[19.233657836914062,1.641383171081543,1.635517954826355]},{"children":[41,42],"name":"Armature_RHand","rotation":[0,-0.6453610062599182,0,0.7638776898384094],"translation":[11.504809379577637,-1.730926513671875,-1.7121226787567139]},{"name":"Armature_EndRHand","rotation":[0,2.7939677238464355e-8,0,1],"translation":[0.00002236291766166687,-7.229198455810547,-0.000014513731002807617]},{"children":[43],"name":"Armature_RFinger","rotation":[0,2.8870999813079834e-8,0,1],"translation":[0.000018547929357737303,-3.8558921813964844,-2.344372510910034]},{"name":"Armature_EndRFinger","translation":[0.00001688627526164055,-5.995599746704102,-0.000012006610631942749]},{"children":[45,50,58,59],"name":"Armature_Hips","rotation":[0,0.015322085469961166,0,0.9998826384544373],"translation":[0.000005088257239549421,-0.0000040531158447265625,0.000003662365770651377]},{"children":[46],"name":"Armature_Tail1","rotation":[0,1,0,-7.549789415861596e-8],"translation":[-0.000013023471183259971,18.41230010986328,0.8184700012207031]},{"children":[47],"name":"Armature_Tail2","rotation":[0,-2.3222696654556785e-8,0,1],"translation":[0.000037267422158038244,18.633703231811523,0.000019073442672379315]},{"children":[48],"name":"Armature_Tail3","rotation":[0,1.7053025658242404e-13,0,1],"translation":[0.00003476122219581157,17.380599975585938,0.00002288810173922684]},{"children":[49],"name":"Armature_Tail4","rotation":[0,-1.1368683772161603e-13,0,1],"translation":[0.00003689520963234827,18.44759750366211,0.00001144397356256377]},{"name":"Armature_Tail5","rotation":[0,5.684341886080802e-14,0,1],"translation":[0.000033618031011428684,16.808998107910156,0.000019073335352004506]},{"children":[51],"name":"Armature_RThigh","rotation":[0,-0.6963220834732056,0,0.7177294492721558],"translation":[9.835299491882324,8.016744613647461,3.159973621368408]},{"children":[52],"name":"Armature_RLeg","rotation":[0,0.43192628026008606,0,0.9019089341163635],"translation":[13.345203399658203,0.40410518646240234,0.4040573835372925]},{"children":[53,54],"name":"Armature_RFoot","rotation":[0,-0.948086142539978,0,0.31801384687423706],"translation":[4.340023040771484,9.521446228027344,5.741502285003662]},{"name":"Armature_EndRFoot","rotation":[0,8.260144568339456e-9,0,1],"translation":[0.00003662039671326056,-11.93329906463623,0.00006089904491091147]},{"children":[55,56],"name":"Armature_RToe1","rotation":[0,8.260201411758317e-9,0,1],"translation":[0.000013521770597435534,-1.286590576171875,-10.452625274658203]},{"name":"Armature_EndRToe1","translation":[0.000026828021873370744,-8.779399871826172,-0.00000888167051016353]},{"children":[57],"name":"Armature_RToe2","translation":[0.000018928132703877054,-4.756498336791992,-2.590545654296875]},{"name":"Armature_EndRToe2","translation":[0.00002178916838602163,-6.794899940490723,-0.000012800664080714341]},{"name":"Armature_EndHips","rotation":[0,-6.076561476220377e-11,0,1],"translation":[-0.00004301268927520141,21.506399154663086,0.000045776410843245685]},{"children":[60],"name":"Armature_LThigh","rotation":[0,-0.6963220834732056,0,0.7177294492721558],"translation":[-9.835280418395996,8.016706466674805,3.1600375175476074]},{"children":[61],"name":"Armature_LLeg","rotation":[0,0.43192628026008606,0,0.9019089341163635],"translation":[13.345206260681152,0.404144287109375,0.4040607213973999]},{"children":[62,63],"name":"Armature_LFoot","rotation":[0,-0.948086142539978,0,0.31801384687423706],"translation":[4.339996337890625,9.521400451660156,5.741465091705322]},{"name":"Armature_EndLFoot","rotation":[0,8.260087724920595e-9,0,1],"translation":[0.0000366204694728367,-11.933199882507324,-0.000012261806659807917]},{"children":[64,65],"name":"Armature_LToe1","rotation":[0,8.260201411758317e-9,0,1],"translation":[0.000012568085367092863,-1.286590576171875,-10.452613830566406]},{"name":"Armature_EndLToe1","translation":[0.000026828010959434323,-8.779419898986816,-0.000008761472599871922]},{"children":[66],"name":"Armature_LToe2","translation":[0.000018928121789940633,-4.756496429443359,-2.590545177459717]},{"name":"Armature_EndLToe2","translation":[0.000021789152015116997,-6.794910430908203,-0.000006794507498852909]},{"name":"Armature_pm0136_00_BodySkin"}],"samplers":[{}],"scene":0,"scenes":[{"name":"Scene","nodes":[0,3,1]}],"skins":[{"inverseBindMatrices":0,"joints":[4,5,6,7,8,9,10,11,12,13,14,15,16,17,18,19,20,21,22,23,24,25,26,27,28,29,30,31,32,33,34,35,36,37,38,39,40,41,42,43,44,45,46,47,48,49,50,51,52,53,54,55,56,57,58,59,60,61,62,63,64,65,66,67],"skeleton":0}],"textures":[{"sampler":0,"source":0},{"sampler":0,"source":1},{"sampler":0,"source":2},{"sampler":0,"source":3}],"extensionsUsed":["ALI_amc_mesh_compression"],"extensionsRequired":["ALI_amc_mesh_compression"]}