{"accessors":[{"bufferView":0,"componentType":5126,"count":58,"max":[1.0000001192092896,5.985104678529751e-8,1.0000001192092896,0,4.3312587649779744e-7,1.0000003576278687,4.3312587649779744e-7,0,1.0000001192092896,-4.331200500473642e-7,1.0000001192092896,0,66.85880279541016,44.108028411865234,9.236089706420898,1],"min":[-0.007350423838943243,-4.135905823778307e-24,-1.0000001192092896,0,-4.3312587649779744e-7,1.000000238418579,-3.1836584479805197e-9,0,-1.0000001192092896,-4.3480693534547754e-7,-0.007350423838943243,0,-145.57423400878906,-4.514672756195068,-128.92222595214844,1],"type":"MAT4","byteOffset":0}],"asset":{"generator":"Khronos Blender glTF 2.0 exporter","version":"2.0"},"bufferViews":[{"buffer":0,"byteLength":3712,"byteOffset":0},{"buffer":0,"byteOffset":3712,"byteLength":72083},{"buffer":0,"byteOffset":75795,"byteLength":67091},{"buffer":0,"byteOffset":142886,"byteLength":2491},{"buffer":0,"byteOffset":145377,"byteLength":2491}],"buffers":[{"byteLength":147868,"uri":"buffer.bin"}],"images":[{"name":"pm0084_00_Body1","uri":"pm0084_00_Body1.png"},{"name":"pm0084_00_Eye1","uri":"pm0084_00_Eye1.png"}],"materials":[{"alphaMode":"OPAQUE","name":"Body","pbrMetallicRoughness":{"baseColorFactor":[0.6400000190734865,0.6400000190734865,0.6400000190734865,1],"baseColorTexture":{"index":0},"metallicFactor":0}},{"alphaMode":"OPAQUE","name":"BodyFur","pbrMetallicRoughness":{"baseColorFactor":[0.6400000190734865,0.6400000190734865,0.6400000190734865,1],"baseColorTexture":{"index":0},"metallicFactor":0}},{"alphaMode":"OPAQUE","name":"EyeA","pbrMetallicRoughness":{"baseColorFactor":[0.6400000190734865,0.6400000190734865,0.6400000190734865,1],"baseColorTexture":{"index":2},"metallicFactor":0}},{"alphaMode":"OPAQUE","name":"EyeB","pbrMetallicRoughness":{"baseColorFactor":[0.6400000190734865,0.6400000190734865,0.6400000190734865,1],"baseColorTexture":{"index":2},"metallicFactor":0}}],"meshes":[{"name":"DoduoF","primitives":[{"material":0,"extensions":{"ALI_amc_mesh_compression":{"bufferView":1}}},{"material":1,"extensions":{"ALI_amc_mesh_compression":{"bufferView":2}}},{"material":3,"extensions":{"ALI_amc_mesh_compression":{"bufferView":3}}},{"material":2,"extensions":{"ALI_amc_mesh_compression":{"bufferView":4}}}]}],"nodes":[{"name":"Camera","rotation":[0.483536034822464,0.33687159419059753,-0.20870360732078552,0.7804827094078064],"translation":[7.481131553649902,5.34366512298584,6.5076398849487305]},{"mesh":0,"name":"DoduoF","rotation":[-0.7071065902709961,0,0,0.7071069478988647],"skin":0},{"name":"EndHips","translation":[26.04960060119629,0,0]},{"name":"EndLFoot","translation":[16.106800079345703,9.536739753457368e-7,0]},{"name":"EndLHead","translation":[27.021320343017578,-0.000002000479980779346,0]},{"name":"EndLLowerBeak","translation":[23.999990463256836,0,0]},{"name":"EndLToeA2","translation":[8.763202667236328,-0.0000014305099966804846,7.152560215217818e-7]},{"name":"EndLToeB2","translation":[11.943909645080566,-9.536739753457368e-7,0.000002145769940398168]},{"name":"EndLToeC2","translation":[12.329500198364258,9.536739753457368e-7,-0.000005722049991163658]},{"name":"EndLToeD2","translation":[8.26027774810791,4.768369876728684e-7,0]},{"name":"EndLTongue","translation":[11.769610404968262,0.00001525879997643642,0.0000019073499970545527]},{"name":"EndLUpperBeak","translation":[31.923799514770508,-0.00001525879997643642,9.536739753457368e-7]},{"name":"EndRFoot","translation":[16.106800079345703,0,0]},{"name":"EndRHead","translation":[27.020999908447266,-0.000002000479980779346,0]},{"name":"EndRLowerBeak","translation":[24.000099182128906,0.00012206999963382259,0.00000667572021484375]},{"name":"EndRToeA2","translation":[8.763200759887695,0.000004529949819698231,4.768369876728684e-7]},{"name":"EndRToeB2","translation":[11.943900108337402,0,0.000015020399587228894]},{"name":"EndRToeC2","translation":[12.32960033416748,0.000006198879873409169,-0.00002384189974691253]},{"name":"EndRToeD2","translation":[8.260261535644531,-0.000013351400411920622,-0.000017166099496535026]},{"name":"EndRTongue","translation":[11.769700050354004,-0.0002822880051098764,-9.536739753457368e-7]},{"name":"EndRUpperBeak","translation":[31.923799514770508,0.0007324219914153218,0.000003814699994109105]},{"name":"EndWaist","translation":[25.28399085998535,0,0]},{"name":"EnvironmentAmbientLight","scale":[0.02539999969303608,0.02539999969303608,0.02539999969303608]},{"children":[2],"name":"Hips","rotation":[0,1,0,-9.099629210140847e-7]},{"name":"Lamp","rotation":[0.16907575726509094,0.7558802962303162,-0.27217137813568115,0.570947527885437],"scale":[1,1,0.9999999403953552],"translation":[4.076245307922363,5.903861999511719,-1.0054539442062378]},{"children":[1,32],"name":"Origin"},{"name":"pm0084_00_BodySkin"},{"children":[25,26,30,31],"name":"pm0084_00_dodo","rotation":[0.7071065902709961,0,0,0.7071069478988647],"scale":[0.02539999969303608,0.02539999969303608,0.02539999969303608]},{"name":"pm0084_00_NeckASkin"},{"name":"pm0084_00_NeckBSkin"},{"children":[28],"name":"VriVis00"},{"children":[29],"name":"VriVis01"},{"children":[33,34,68,79],"name":"Origin_Waist","rotation":[-0.49999919533729553,-0.5000008940696716,0.5000008940696716,0.49999919533729553],"scale":[0.9999999403953552,0.9999997615814209,0.9999999403953552],"translation":[-4.4085604611332485e-10,66.85880279541016,-2.556411027908325]},{"name":"Origin_EndWaist","rotation":[0,-2.2737367544323206e-13,0,1],"translation":[25.28399658203125,0.00000762939453125,0.000009042334568221122]},{"children":[35,36,52],"name":"Origin_Hips","rotation":[-8.795674453191257e-24,1,-6.938892249546003e-18,0.0000012675913012571982],"translation":[0.00000762939453125,0,3.340247523020423e-11]},{"name":"Origin_EndHips","rotation":[2.0679515313825692e-25,-2.2737367544323206e-13,0,1],"translation":[26.04959487915039,-0.000007867813110351562,-0.000009316063369624317]},{"children":[37],"name":"Origin_LThigh","rotation":[8.630649830111098e-26,0.003678194945678115,2.144927245770514e-27,0.9999932646751404],"translation":[6.621608257293701,1.542778491973877,5.7441935539245605]},{"children":[38],"name":"Origin_LLeg","rotation":[-2.067698109816767e-25,-2.3283064365386963e-10,-1.8317350219231894e-27,1],"translation":[27.61100959777832,-0.000009059906005859375,-0.000010058283805847168]},{"children":[39,40,43,46,49],"name":"Origin_LFoot","rotation":[-1.2240752201124111e-25,-0.7097008228302002,-7.52473540409726e-28,0.7045032382011414],"translation":[25.05890464782715,-0.00000667572021484375,-0.0000098496675491333]},{"name":"Origin_EndLFoot","rotation":[1.617961035142084e-27,-2.3282531458335143e-10,6.93870158441481e-18,1],"translation":[4.733126957034983e-7,-16.10680389404297,0.0000014330061048895004]},{"children":[41],"name":"Origin_LToeA1","rotation":[-8.269571861905513e-27,-0.15453481674194336,-1.4044538127694353e-25,0.9879873394966125],"translation":[-3.5604782104492188,0.4154987335205078,-3.839979410171509]},{"children":[42],"name":"Origin_LToeA2","rotation":[-6.992710199209512e-26,-0.026067176833748817,-3.036845039797956e-25,0.9996601939201355],"scale":[0.9999999403953552,1,0.9999999403953552],"translation":[-6.187478065490723,-1.9932832717895508,0.00020384788513183594]},{"name":"Origin_EndLToeA2","rotation":[3.839780456163275e-26,0,-5.376954816076939e-26,1],"scale":[1,0.9999999403953552,1],"translation":[-7.895864009857178,-3.5561087131500244,1.3428250551223755]},{"children":[44],"name":"Origin_LToeB1","rotation":[1.5772404219954749e-30,-0.000007674982953176368,-2.0661504633283365e-25,1],"scale":[1,0.9999999403953552,1],"translation":[-1.678668737411499,-5.422060489654541,-4.719308853149414]},{"children":[45],"name":"Origin_LToeB2","rotation":[8.400009704435016e-26,0.07597630470991135,-3.3149877807366023e-25,0.9971096515655518],"translation":[-3.989086151123047,-9.001091957092285,0.0000901227758731693]},{"name":"Origin_EndLToeB2","rotation":[4.88857102965461e-26,0,-4.219449349084833e-25,1],"translation":[-4.478391170501709,-10.784015655517578,-2.5112032890319824]},{"children":[47],"name":"Origin_LToeC1","rotation":[3.767901669150832e-27,-0.012673355638980865,-1.161640207471112e-25,0.9999197125434875],"scale":[1,0.9999999403953552,1],"translation":[5.67698860168457,-5.069570541381836,-4.956028938293457]},{"children":[48],"name":"Origin_LToeC2","rotation":[1.345357653909484e-25,0.1017058864235878,-3.1376523422809846e-25,0.9948145151138306],"translation":[4.457976818084717,-9.523999214172363,0.00004455447196960449]},{"name":"Origin_EndLToeC2","rotation":[4.994593935316314e-26,7.450580596923828e-9,-2.257575943627333e-25,1],"translation":[5.4029436111450195,-10.991968154907227,-1.414766550064087]},{"children":[50],"name":"Origin_LToeD1","rotation":[-2.3559207674909077e-26,0.07488025724887848,-3.0589195865973357e-25,0.9971925616264343],"scale":[1.0000001192092896,1,1.0000001192092896],"translation":[6.712527275085449,0.03929615020751953,-4.261361122131348]},{"children":[51],"name":"Origin_LToeD2","rotation":[9.134562466712219e-26,0.03409140184521675,4.002780381448522e-26,0.9994187951087952],"scale":[1,0.9999999403953552,1],"translation":[7.216844081878662,-1.5177524089813232,0.0000030994415283203125]},{"name":"Origin_EndLToeD2","rotation":[4.955545320507874e-26,2.2351741790771484e-8,-4.255234051897921e-25,1],"translation":[7.513840675354004,-3.431302070617676,-0.024615764617919922]},{"children":[53],"name":"Origin_RThigh","rotation":[3.272838203013545e-25,-0.0036783136893063784,-1.0846910632126799e-27,0.9999932646751404],"translation":[6.621654987335205,1.542778491973877,-5.7441864013671875]},{"children":[54],"name":"Origin_RLeg","rotation":[-1.348459109862167e-29,0,-1.8325238828284104e-27,1],"translation":[27.610904693603516,-0.000007152557373046875,-0.0000095367431640625]},{"children":[55,56,59,62,65],"name":"Origin_RFoot","rotation":[1.2170851729350543e-25,-0.7044990658760071,-7.421415521853204e-28,0.7097049355506897],"scale":[0.9999999403953552,1,0.9999999403953552],"translation":[25.059003829956055,-0.0000095367431640625,-0.000005356967449188232]},{"name":"Origin_EndRFoot","rotation":[-2.0415578232156846e-23,9.87465398338827e-9,6.938893903907228e-18,1],"translation":[-1.5074351722432766e-7,-16.10680389404297,1.0736812328104861e-8]},{"children":[57],"name":"Origin_RToeA1","rotation":[-6.87684717820155e-27,0.15451262891292572,-6.785690294668977e-26,0.9879907965660095],"scale":[0.9999999403953552,1,0.9999999403953552],"translation":[3.5604803562164307,0.4154996871948242,-3.8399815559387207]},{"children":[58],"name":"Origin_RToeA2","rotation":[-6.657560178436037e-26,-0.054319266229867935,-1.8784885891043428e-26,0.9985236525535583],"scale":[0.9999999403953552,1,0.9999999403953552],"translation":[6.187466621398926,-1.9933156967163086,0.000005364418029785156]},{"name":"Origin_EndRToeA2","rotation":[-3.3779023961563726e-27,7.450580596923828e-9,2.0610470263096223e-25,1],"translation":[8.008981704711914,-3.5561492443084717,0.060797423124313354]},{"children":[60],"name":"Origin_RToeB1","rotation":[1.7749370367472766e-30,-0.000005063839580543572,1.1883895351355538e-28,1],"translation":[1.6786686182022095,-5.422060966491699,-4.719311714172363]},{"children":[61],"name":"Origin_RToeB2","rotation":[3.249947308436778e-26,0.07562331110239029,9.17701181157926e-26,0.9971365332603455],"translation":[3.9890265464782715,-9.00112247467041,0.000037505178624996915]},{"name":"Origin_EndRToeB2","rotation":[-2.817022292544233e-27,-7.450580596923828e-9,-8.315974447613601e-27,1],"translation":[5.024106025695801,-10.784040451049805,-1.0581319332122803]},{"children":[63],"name":"Origin_RToeC1","rotation":[-1.0861513995930115e-27,0.012661077082157135,-9.031867567994416e-26,0.9999199509620667],"translation":[-5.676982879638672,-5.069562911987305,-4.95603084564209]},{"children":[64],"name":"Origin_RToeC2","rotation":[8.748444019592897e-26,0.0994417667388916,-2.4920401958009906e-25,0.9950433969497681],"scale":[0.9999998807907104,1,0.9999998807907104],"translation":[-4.458038330078125,-9.52396297454834,0.00008827447891235352]},{"name":"Origin_EndRToeC2","rotation":[4.83374519674175e-26,0,-4.143578679372939e-25,1],"scale":[1,1.0000001192092896,1],"translation":[-4.415448188781738,-10.992042541503906,-3.420233726501465]},{"children":[66],"name":"Origin_RToeD1","rotation":[3.000679896487373e-26,-0.07491418719291687,-1.0831309212907702e-25,0.997189998626709],"translation":[-6.7124834060668945,0.03929948806762695,-4.261361598968506]},{"children":[67],"name":"Origin_RToeD2","rotation":[5.219581379568422e-26,-0.0011058830423280597,2.6175800749256864e-26,0.9999994039535522],"scale":[0.9999999403953552,0.9999999403953552,0.9999999403953552],"translation":[-7.216930866241455,-1.5177114009857178,0.00042247772216796875]},{"name":"Origin_EndRToeD2","rotation":[-5.451107741167714e-26,-1.4901161193847656e-8,8.360347873532283e-27,1],"translation":[-7.4958906173706055,-3.4312679767608643,-0.5195910334587097]},{"children":[69],"name":"Origin_LNeck1","rotation":[0,-2.2737367544323206e-13,0,1],"translation":[17.74901580810547,-2.61602520942688,-9.235864639282227]},{"children":[70],"name":"Origin_LNeck2","rotation":[0,-2.2737367544323206e-13,0,1],"translation":[13.30112361907959,0.000004231929779052734,0.0000065145723056048155]},{"children":[71],"name":"Origin_LNeck3","rotation":[0,-2.2737367544323206e-13,0,1],"translation":[10.61978816986084,0.000007331371307373047,0.000003981607733294368]},{"children":[72,73,77],"name":"Origin_LHead","rotation":[0,-2.2737367544323206e-13,0,1],"translation":[10.024214744567871,0.000005185604095458984,0.0000015552795957773924]},{"name":"Origin_EndLHead","rotation":[0,-2.2737367544323206e-13,0,1],"translation":[27.021331787109375,0.00001043081283569336,0.000008409202564507723]},{"children":[74,75],"name":"Origin_LLowerBeak","rotation":[0,0.7169652581214905,0,0.6971089243888855],"scale":[1,0.9999999403953552,1],"translation":[7.625357151031494,-12.138399124145508,-0.14999428391456604]},{"name":"Origin_EndLLowerBeak","rotation":[-1.3490945213825458e-16,-4.6566128730773926e-9,-2.8971582466397194e-8,1],"translation":[0.01892542839050293,-23.99053192138672,-0.6737312078475952]},{"children":[76],"name":"Origin_LTongue","rotation":[1.4792989966663783e-12,0.00004941318911733106,-2.993732550748973e-8,1],"scale":[0.9999999403953552,1,0.9999999403953552],"translation":[-0.024810075759887695,-0.24258136749267578,0.9330431222915649]},{"name":"Origin_EndLTongue","rotation":[1.489316855333555e-17,9.313225746154785e-10,2.993726866407087e-8,1],"translation":[0.009343881160020828,-11.764944076538086,-0.3314943313598633]},{"children":[78],"name":"Origin_LUpperBeak","rotation":[0,0.7206851243972778,0,0.6932626366615295],"translation":[10.101363182067871,-12.14859676361084,-0.16999071836471558]},{"name":"Origin_EndLUpperBeak","rotation":[0,-2.0489096641540527e-8,0,1],"translation":[0.04800081253051758,-31.899795532226562,-1.237000584602356]},{"children":[80],"name":"Origin_RNeck1","rotation":[0,-2.2737367544323206e-13,0,1],"translation":[17.749008178710938,-2.61602520942688,9.235877990722656]},{"children":[81],"name":"Origin_RNeck2","rotation":[0,-2.2737367544323206e-13,0,1],"translation":[13.301125526428223,0.000004231929779052734,0.000007468479452654719]},{"children":[82],"name":"Origin_RNeck3","rotation":[0,-2.2737367544323206e-13,0,1],"translation":[10.620087623596191,0.000007331371307373047,0.000001119798980653286]},{"children":[83,84,88],"name":"Origin_RHead","rotation":[0,-2.2737367544323206e-13,0,1],"translation":[10.024018287658691,0.000005125999450683594,0.000008230912499129772]},{"name":"Origin_EndRHead","rotation":[0,-2.2737367544323206e-13,0,1],"translation":[27.021011352539062,0.00001049041748046875,0.000010317540727555752]},{"children":[85,86],"name":"Origin_RLowerBeak","rotation":[0,0.7169679403305054,0,0.6971061825752258],"scale":[1.0000001192092896,0.9999999403953552,1.0000001192092896],"translation":[7.625047206878662,-12.13840103149414,0.14998969435691833]},{"name":"Origin_EndRLowerBeak","rotation":[0,9.313225746154785e-10,0,1],"translation":[0.01891803741455078,-23.990642547607422,-0.6736112833023071]},{"children":[87],"name":"Origin_RTongue","rotation":[0,0.000048026442527770996,0,1],"translation":[-0.02762770652770996,-0.24259471893310547,0.9335654973983765]},{"name":"Origin_EndRTongue","scale":[1,0.9999999403953552,1],"translation":[0.009354591369628906,-11.765019416809082,-0.33180874586105347]},{"children":[89],"name":"Origin_RUpperBeak","rotation":[0,0.7206867933273315,0,0.693260908126831],"translation":[10.100983619689941,-12.148599624633789,0.1699884533882141]},{"name":"Origin_EndRUpperBeak","rotation":[0,-3.725290298461914e-9,0,1],"translation":[0.047976016998291016,-31.899829864501953,-1.2362060546875]}],"samplers":[{}],"scene":0,"scenes":[{"name":"Scene","nodes":[20,19,14,13,11,10,5,4,18,17,16,15,12,9,8,7,6,3,23,21,27,22,24,0]}],"skins":[{"inverseBindMatrices":0,"joints":[32,33,34,35,36,37,38,39,40,41,42,43,44,45,46,47,48,49,50,51,52,53,54,55,56,57,58,59,60,61,62,63,64,65,66,67,68,69,70,71,72,73,74,75,76,77,78,79,80,81,82,83,84,85,86,87,88,89],"skeleton":25}],"textures":[{"sampler":0,"source":0},{"sampler":0,"source":0},{"sampler":0,"source":1},{"sampler":0,"source":1}],"extensionsUsed":["ALI_amc_mesh_compression"],"extensionsRequired":["ALI_amc_mesh_compression"]}