{"accessors":[{"bufferView":0,"componentType":5126,"count":8,"max":[1.0000001192092896,0,4.007400748046175e-12,0,0.9999998807907104,-1.1920927533992653e-7,0.9999998807907104,0,4.77719241023489e-19,-1,5.210802272390949e-15,0,0.00003304199708509259,9.936491966247559,8.730476253049346e-8,1],"min":[-4.371139183945161e-8,0,-1.0000001192092896,0,-4.007399880684437e-12,-1.1920927533992653e-7,-4.371138473402425e-8,0,-1.1920926112907182e-7,-1,-1.1920926112907182e-7,0,-21.470909118652344,0,-10.930412292480469,1],"type":"MAT4","byteOffset":0}],"asset":{"generator":"Khronos Blender glTF 2.0 exporter","version":"2.0"},"bufferViews":[{"buffer":0,"byteLength":512,"byteOffset":0},{"buffer":0,"byteOffset":512,"byteLength":1675},{"buffer":0,"byteOffset":2187,"byteLength":74777}],"buffers":[{"byteLength":76964,"uri":"buffer.bin"}],"images":[{"name":"pm0050_00_Body1","uri":"pm0050_00_Body1.png"},{"name":"pm0050_00_Eye1","uri":"pm0050_00_Eye1.png"}],"materials":[{"alphaMode":"OPAQUE","name":"Body00","pbrMetallicRoughness":{"baseColorFactor":[0.6400000190734865,0.6400000190734865,0.6400000190734865,1],"baseColorTexture":{"index":0},"metallicFactor":0}},{"alphaMode":"OPAQUE","name":"Eye","pbrMetallicRoughness":{"baseColorFactor":[0.6400000190734865,0.6400000190734865,0.6400000190734865,1],"baseColorTexture":{"index":1},"metallicFactor":0}}],"meshes":[{"name":"Diglett","primitives":[{"material":1,"extensions":{"ALI_amc_mesh_compression":{"bufferView":1}}},{"material":0,"extensions":{"ALI_amc_mesh_compression":{"bufferView":2}}}]}],"nodes":[{"children":[1,4],"name":"_01_pm0050_00","rotation":[0.7071068286895752,0,0,0.7071067094802856],"scale":[0.02539999783039093,0.02539999969303608,0.02539999969303608]},{"children":[6,8],"name":"_02_Origin"},{"name":"_08_EndHead","translation":[10.540499687194824,0,2.5465900221899318e-11]},{"name":"_10_EndNose","translation":[2.5478909015655518,0.0000019073499970545527,2.98022992950564e-8]},{"name":"_11_pm0050_00_Skin"},{"name":"Camera","rotation":[0.483536034822464,0.33687159419059753,-0.20870360732078552,0.7804827094078064],"translation":[7.481131553649902,5.34366512298584,6.5076398849487305]},{"mesh":0,"name":"Diglett","rotation":[5.960464477539063e-8,0,0,1],"scale":[1.0000001192092896,1,1],"skin":0},{"name":"Lamp","rotation":[0.16907575726509094,0.7558802962303162,-0.27217137813568115,0.570947527885437],"scale":[1,1,0.9999999403953552],"translation":[4.076245307922363,5.903861999511719,-1.0054539442062378]},{"children":[9],"name":"_02_Origin__03_Waist","rotation":[-0.5,-0.5000000596046448,0.5000000596046448,0.5],"scale":[1,0.9999999403953552,1],"translation":[0,1.9973000288009644,0]},{"children":[10],"name":"_02_Origin__04_Spine1","translation":[0.5754920244216919,-5.960464477539063e-8,0.0000021015644051658455]},{"children":[11],"name":"_02_Origin__05_Spine2","translation":[9.281464485866309e-14,0,7.105427357601002e-14]},{"children":[12],"name":"_02_Origin__06_Spine3","translation":[3.8075809478759766,0,0.000013904445950174704]},{"children":[13,14],"name":"_02_Origin__07_Head","translation":[4.550037384033203,0,0.000016615713320788927]},{"name":"_02_Origin__08_EndHead","translation":[10.540498733520508,0,-4.6076206672296394e-7]},{"children":[15],"name":"_02_Origin__09_Nose","rotation":[0,0.7071068286895752,0,0.7071068286895752],"translation":[1.4424017535930034e-12,-7.388600826263428,-5.132960723130964e-11]},{"name":"_02_Origin__10_EndNose","rotation":[0,2.003700157182653e-12,0,1],"translation":[-2.9802322387695312e-8,-2.547891139984131,0.0000019073486328125]}],"samplers":[{}],"scene":0,"scenes":[{"name":"Scene","nodes":[3,2,0,7,5]}],"skins":[{"inverseBindMatrices":0,"joints":[8,9,10,11,12,13,14,15],"skeleton":1}],"textures":[{"sampler":0,"source":0},{"sampler":0,"source":1}],"extensionsUsed":["ALI_amc_mesh_compression"],"extensionsRequired":["ALI_amc_mesh_compression"]}