{
    "accessors" : [
        {
            "bufferView" : 0,
            "componentType" : 5123,
            "count" : 108,
            "max" : [
                31
            ],
            "min" : [
                0
            ],
            "type" : "SCALAR"
        },
        {
            "bufferView" : 1,
            "componentType" : 5126,
            "count" : 32,
            "max" : [
                4.391170024871826,
                7.612090110778809,
                -12.444600105285645
            ],
            "min" : [
                -4.391170024871826,
                5.44989013671875,
                -16.7893009185791
            ],
            "type" : "VEC3"
        },
        {
            "bufferView" : 2,
            "componentType" : 5126,
            "count" : 32,
            "max" : [
                0.4290291965007782,
                0.9943235516548157,
                -0.10620441287755966
            ],
            "min" : [
                -0.4290291965007782,
                0.8060243725776672,
                -0.46403393149375916
            ],
            "type" : "VEC3"
        },
        {
            "bufferView" : 3,
            "componentType" : 5126,
            "count" : 32,
            "max" : [
                0.9999891519546509,
                0.0006305471761152148,
                0.11553865671157837,
                1.0
            ],
            "min" : [
                -0.9999891519546509,
                -0.4238604009151459,
                -0.02333889715373516,
                -1.0
            ],
            "type" : "VEC4"
        },
        {
            "bufferView" : 4,
            "componentType" : 5126,
            "count" : 32,
            "max" : [
                0.4918205142021179,
                -0.760890007019043
            ],
            "min" : [
                0.0,
                -0.9911600351333618
            ],
            "type" : "VEC2"
        },
        {
            "bufferView" : 5,
            "componentType" : 5126,
            "count" : 32,
            "max" : [
                1.0,
                1.0,
                1.0,
                1.0
            ],
            "min" : [
                1.0,
                1.0,
                1.0,
                1.0
            ],
            "type" : "VEC4"
        },
        {
            "bufferView" : 6,
            "componentType" : 5123,
            "count" : 32,
            "max" : [
                4,
                3,
                4,
                0
            ],
            "min" : [
                2,
                0,
                0,
                0
            ],
            "type" : "VEC4"
        },
        {
            "bufferView" : 7,
            "componentType" : 5126,
            "count" : 32,
            "max" : [
                1.0,
                0.1899999976158142,
                0.9599999785423279,
                0.0
            ],
            "min" : [
                0.029999999329447746,
                0.0,
                0.0,
                0.0
            ],
            "type" : "VEC4"
        },
        {
            "bufferView" : 8,
            "componentType" : 5123,
            "count" : 5412,
            "max" : [
                1517
            ],
            "min" : [
                0
            ],
            "type" : "SCALAR"
        },
        {
            "bufferView" : 9,
            "componentType" : 5126,
            "count" : 1518,
            "max" : [
                14.374799728393555,
                13.964599609375,
                0.0011035819770768285
            ],
            "min" : [
                -13.888299942016602,
                -14.008000373840332,
                -20.01099967956543
            ],
            "type" : "VEC3"
        },
        {
            "bufferView" : 10,
            "componentType" : 5126,
            "count" : 1518,
            "max" : [
                1.0,
                1.0,
                1.0
            ],
            "min" : [
                -1.0,
                -0.9964903593063354,
                -1.0
            ],
            "type" : "VEC3"
        },
        {
            "bufferView" : 11,
            "componentType" : 5126,
            "count" : 1518,
            "max" : [
                1.0,
                1.0,
                0.9806168675422668,
                1.0
            ],
            "min" : [
                -0.996993899345398,
                -1.0,
                -0.9982302784919739,
                1.0
            ],
            "type" : "VEC4"
        },
        {
            "bufferView" : 12,
            "componentType" : 5126,
            "count" : 1518,
            "max" : [
                0.9913070201873779,
                0.9913102397695184
            ],
            "min" : [
                0.009768320247530937,
                0.007242023944854736
            ],
            "type" : "VEC2"
        },
        {
            "bufferView" : 13,
            "componentType" : 5126,
            "count" : 1518,
            "max" : [
                1.0,
                1.0,
                1.0,
                1.0
            ],
            "min" : [
                1.0,
                1.0,
                1.0,
                1.0
            ],
            "type" : "VEC4"
        },
        {
            "bufferView" : 14,
            "componentType" : 5123,
            "count" : 1518,
            "max" : [
                4,
                6,
                4,
                1
            ],
            "min" : [
                0,
                0,
                0,
                0
            ],
            "type" : "VEC4"
        },
        {
            "bufferView" : 15,
            "componentType" : 5126,
            "count" : 1518,
            "max" : [
                1.0,
                0.9599999785423279,
                0.9599999785423279,
                0.10000000149011612
            ],
            "min" : [
                0.029999999329447746,
                0.0,
                0.0,
                0.0
            ],
            "type" : "VEC4"
        },
        {
            "bufferView" : 16,
            "componentType" : 5126,
            "count" : 8,
            "max" : [
                1.0000001192092896,
                0.0,
                4.007400748046175e-12,
                0.0,
                0.9999998807907104,
                -1.1920927533992653e-07,
                0.9999998807907104,
                0.0,
                4.77719241023489e-19,
                -1.0,
                5.210802272390949e-15,
                0.0,
                3.304199708509259e-05,
                9.936491966247559,
                8.730476253049346e-08,
                1.0
            ],
            "min" : [
                -4.371139183945161e-08,
                0.0,
                -1.0000001192092896,
                0.0,
                -4.007399880684437e-12,
                -1.1920927533992653e-07,
                -4.371138473402425e-08,
                0.0,
                -1.1920926112907182e-07,
                -1.0,
                -1.1920926112907182e-07,
                0.0,
                -21.470909118652344,
                0.0,
                -10.930412292480469,
                1.0
            ],
            "type" : "MAT4"
        }
    ],
    "asset" : {
        "generator" : "Khronos Blender glTF 2.0 exporter",
        "version" : "2.0"
    },
    "bufferViews" : [
        {
            "buffer" : 0,
            "byteLength" : 216,
            "byteOffset" : 0,
            "target" : 34963
        },
        {
            "buffer" : 0,
            "byteLength" : 384,
            "byteOffset" : 216,
            "target" : 34962
        },
        {
            "buffer" : 0,
            "byteLength" : 384,
            "byteOffset" : 600,
            "target" : 34962
        },
        {
            "buffer" : 0,
            "byteLength" : 512,
            "byteOffset" : 984,
            "target" : 34962
        },
        {
            "buffer" : 0,
            "byteLength" : 256,
            "byteOffset" : 1496,
            "target" : 34962
        },
        {
            "buffer" : 0,
            "byteLength" : 512,
            "byteOffset" : 1752,
            "target" : 34962
        },
        {
            "buffer" : 0,
            "byteLength" : 256,
            "byteOffset" : 2264,
            "target" : 34962
        },
        {
            "buffer" : 0,
            "byteLength" : 512,
            "byteOffset" : 2520,
            "target" : 34962
        },
        {
            "buffer" : 0,
            "byteLength" : 10824,
            "byteOffset" : 3032,
            "target" : 34963
        },
        {
            "buffer" : 0,
            "byteLength" : 18216,
            "byteOffset" : 13856,
            "target" : 34962
        },
        {
            "buffer" : 0,
            "byteLength" : 18216,
            "byteOffset" : 32072,
            "target" : 34962
        },
        {
            "buffer" : 0,
            "byteLength" : 24288,
            "byteOffset" : 50288,
            "target" : 34962
        },
        {
            "buffer" : 0,
            "byteLength" : 12144,
            "byteOffset" : 74576,
            "target" : 34962
        },
        {
            "buffer" : 0,
            "byteLength" : 24288,
            "byteOffset" : 86720,
            "target" : 34962
        },
        {
            "buffer" : 0,
            "byteLength" : 12144,
            "byteOffset" : 111008,
            "target" : 34962
        },
        {
            "buffer" : 0,
            "byteLength" : 24288,
            "byteOffset" : 123152,
            "target" : 34962
        },
        {
            "buffer" : 0,
            "byteLength" : 512,
            "byteOffset" : 147440
        }
    ],
    "buffers" : [
        {
            "byteLength" : 147952,
            "uri" : "origin.bin"
        }
    ],
    "images" : [
        {
            "name" : "pm0050_00_Body1",
            "uri" : "pm0050_00_Body1.png"
        },
        {
            "name" : "pm0050_00_Eye1",
            "uri" : "pm0050_00_Eye1.png"
        }
    ],
    "materials" : [
        {
            "alphaMode" : "BLEND",
            "name" : "Body00",
            "pbrMetallicRoughness" : {
                "baseColorFactor" : [
                    0.6400000190734865,
                    0.6400000190734865,
                    0.6400000190734865,
                    1.0
                ],
                "baseColorTexture" : {
                    "index" : 0
                },
                "metallicFactor" : 0.0
            }
        },
        {
            "alphaMode" : "BLEND",
            "name" : "Eye",
            "pbrMetallicRoughness" : {
                "baseColorFactor" : [
                    0.6400000190734865,
                    0.6400000190734865,
                    0.6400000190734865,
                    1.0
                ],
                "baseColorTexture" : {
                    "index" : 1
                },
                "metallicFactor" : 0.0
            }
        }
    ],
    "meshes" : [
        {
            "name" : "Diglett",
            "primitives" : [
                {
                    "attributes" : {
                        "COLOR_0" : 5,
                        "JOINTS_0" : 6,
                        "NORMAL" : 2,
                        "POSITION" : 1,
                        "TANGENT" : 3,
                        "TEXCOORD_0" : 4,
                        "WEIGHTS_0" : 7
                    },
                    "indices" : 0,
                    "material" : 1
                },
                {
                    "attributes" : {
                        "COLOR_0" : 13,
                        "JOINTS_0" : 14,
                        "NORMAL" : 10,
                        "POSITION" : 9,
                        "TANGENT" : 11,
                        "TEXCOORD_0" : 12,
                        "WEIGHTS_0" : 15
                    },
                    "indices" : 8,
                    "material" : 0
                }
            ]
        }
    ],
    "nodes" : [
        {
            "children" : [
                1,
                4
            ],
            "name" : "_01_pm0050_00",
            "rotation" : [
                0.7071068286895752,
                0.0,
                -0.0,
                0.7071067094802856
            ],
            "scale" : [
                0.02539999783039093,
                0.02539999969303608,
                0.02539999969303608
            ]
        },
        {
            "children" : [
                6,
                8
            ],
            "name" : "_02_Origin"
        },
        {
            "name" : "_08_EndHead",
            "translation" : [
                10.540499687194824,
                0.0,
                2.5465900221899318e-11
            ]
        },
        {
            "name" : "_10_EndNose",
            "translation" : [
                2.5478909015655518,
                1.9073499970545527e-06,
                2.98022992950564e-08
            ]
        },
        {
            "name" : "_11_pm0050_00_Skin"
        },
        {
            "name" : "Camera",
            "rotation" : [
                0.483536034822464,
                0.33687159419059753,
                -0.20870360732078552,
                0.7804827094078064
            ],
            "translation" : [
                7.481131553649902,
                5.34366512298584,
                6.5076398849487305
            ]
        },
        {
            "mesh" : 0,
            "name" : "Diglett",
            "rotation" : [
                5.960464477539063e-08,
                0.0,
                -0.0,
                1.0
            ],
            "scale" : [
                1.0000001192092896,
                1.0,
                1.0
            ],
            "skin" : 0
        },
        {
            "name" : "Lamp",
            "rotation" : [
                0.16907575726509094,
                0.7558802962303162,
                -0.27217137813568115,
                0.570947527885437
            ],
            "scale" : [
                1.0,
                1.0,
                0.9999999403953552
            ],
            "translation" : [
                4.076245307922363,
                5.903861999511719,
                -1.0054539442062378
            ]
        },
        {
            "children" : [
                9
            ],
            "name" : "_02_Origin__03_Waist",
            "rotation" : [
                -0.5,
                -0.5000000596046448,
                0.5000000596046448,
                0.5
            ],
            "scale" : [
                1.0,
                0.9999999403953552,
                1.0
            ],
            "translation" : [
                0.0,
                1.9973000288009644,
                0.0
            ]
        },
        {
            "children" : [
                10
            ],
            "name" : "_02_Origin__04_Spine1",
            "translation" : [
                0.5754920244216919,
                -5.960464477539063e-08,
                2.1015644051658455e-06
            ]
        },
        {
            "children" : [
                11
            ],
            "name" : "_02_Origin__05_Spine2",
            "translation" : [
                9.281464485866309e-14,
                0.0,
                7.105427357601002e-14
            ]
        },
        {
            "children" : [
                12
            ],
            "name" : "_02_Origin__06_Spine3",
            "translation" : [
                3.8075809478759766,
                0.0,
                1.3904445950174704e-05
            ]
        },
        {
            "children" : [
                13,
                14
            ],
            "name" : "_02_Origin__07_Head",
            "translation" : [
                4.550037384033203,
                0.0,
                1.6615713320788927e-05
            ]
        },
        {
            "name" : "_02_Origin__08_EndHead",
            "translation" : [
                10.540498733520508,
                0.0,
                -4.6076206672296394e-07
            ]
        },
        {
            "children" : [
                15
            ],
            "name" : "_02_Origin__09_Nose",
            "rotation" : [
                0.0,
                0.7071068286895752,
                0.0,
                0.7071068286895752
            ],
            "translation" : [
                1.4424017535930034e-12,
                -7.388600826263428,
                -5.132960723130964e-11
            ]
        },
        {
            "name" : "_02_Origin__10_EndNose",
            "rotation" : [
                0.0,
                2.003700157182653e-12,
                0.0,
                1.0
            ],
            "translation" : [
                -2.9802322387695312e-08,
                -2.547891139984131,
                1.9073486328125e-06
            ]
        }
    ],
    "samplers" : [
        {}
    ],
    "scene" : 0,
    "scenes" : [
        {
            "name" : "Scene",
            "nodes" : [
                3,
                2,
                0,
                7,
                5
            ]
        }
    ],
    "skins" : [
        {
            "inverseBindMatrices" : 16,
            "joints" : [
                8,
                9,
                10,
                11,
                12,
                13,
                14,
                15
            ],
            "skeleton" : 1
        }
    ],
    "textures" : [
        {
            "sampler" : 0,
            "source" : 0
        },
        {
            "sampler" : 0,
            "source" : 1
        }
    ]
}
