{"accessors":[{"bufferView":0,"componentType":5126,"count":65,"max":[1,3.178914482759865e-7,1,0,1,3.385341703146527e-12,1,0,3.3853423536678307e-12,-1,4.238553401592071e-7,0,31.273698806762695,21.584325790405273,33.46713638305664,1],"min":[-0.8981440663337708,-4.238553401592071e-7,-1,0,-1,-7.56648758405698e-13,-0.8981440663337708,0,-4.294837055440759e-13,-1,-3.178914482759865e-7,0,-94.77241516113281,-10.508004188537598,-35.28081512451172,1],"type":"MAT4","byteOffset":0}],"asset":{"generator":"Khronos Blender glTF 2.0 exporter","version":"2.0"},"bufferViews":[{"buffer":0,"byteLength":4160,"byteOffset":0},{"buffer":0,"byteOffset":4160,"byteLength":75853},{"buffer":0,"byteOffset":80013,"byteLength":39943}],"buffers":[{"byteLength":119956,"uri":"buffer.bin"}],"images":[{"name":"pm0012_01_BodyC1","uri":"pm0012_01_BodyC1.png"},{"name":"pm0012_00_BodyA1","uri":"pm0012_00_BodyA1.png"},{"name":"pm0012_00_BodyB1","uri":"pm0012_00_BodyB1.png"}],"materials":[{"alphaMode":"OPAQUE","name":"Material__96","pbrMetallicRoughness":{"baseColorFactor":[0.6400000190734865,0.6400000190734865,0.6400000190734865,1],"baseColorTexture":{"index":0},"metallicFactor":0}},{"alphaMode":"OPAQUE","name":"Material__97","pbrMetallicRoughness":{"baseColorFactor":[0.6400000190734865,0.6400000190734865,0.6400000190734865,1],"baseColorTexture":{"index":1},"metallicFactor":0}},{"alphaMode":"OPAQUE","name":"Material__98","pbrMetallicRoughness":{"baseColorFactor":[0.6400000190734865,0.6400000190734865,0.6400000190734865,1],"baseColorTexture":{"index":2},"metallicFactor":0}}],"meshes":[{"name":"ButterfreeF","primitives":[{"material":1,"extensions":{"ALI_amc_mesh_compression":{"bufferView":1}}},{"material":0,"extensions":{"ALI_amc_mesh_compression":{"bufferView":2}}}]}],"nodes":[{"children":[1,4],"name":"Armature","scale":[0.02539999969303608,0.02539999969303608,0.02539999969303608]},{"mesh":0,"name":"ButterfreeF","skin":0},{"name":"Camera","rotation":[0.483536034822464,0.33687159419059753,-0.20870360732078552,0.7804827094078064],"translation":[7.481131553649902,5.34366512298584,6.5076398849487305]},{"name":"Lamp","rotation":[0.16907575726509094,0.7558802962303162,-0.27217137813568115,0.570947527885437],"scale":[1,1,0.9999999403953552],"translation":[4.076245307922363,5.903861999511719,-1.0054539442062378]},{"children":[5,64,66,67],"name":"Armature_pm0012_00_butterfree","rotation":[-0.7071068286895752,0,0,0.7071068286895752]},{"children":[6],"name":"Armature_Origin"},{"children":[7,54],"name":"Armature_Waist","rotation":[0,-0.7260785102844238,0,0.6876118183135986],"translation":[0,0.04417663440108299,31.273700714111328]},{"children":[8,26,29,37,45,48,51],"name":"Armature_Spine","rotation":[0,4.76837158203125e-7,0,1],"translation":[-0.000012650181815843098,0.00003072991967201233,-0.00002155006950488314]},{"children":[9,17,25],"name":"Armature_Head","rotation":[0,0.027198055759072304,0,0.9996300935745239],"translation":[9.831047058105469,-0.5362063646316528,-0.5353651642799377]},{"children":[10],"name":"Armature_LFeelerC1","rotation":[0,0.0000010156377356906887,0,1],"translation":[19.21240997314453,-5.632225036621094,-2.672697067260742]},{"children":[11],"name":"Armature_LFeelerC2","rotation":[0,-5.684341886080802e-14,0,1],"translation":[5.053803443908691,0.00001049041748046875,0.000010125695553142577]},{"children":[12],"name":"Armature_LFeelerC3","rotation":[0,-0.000001013279188555316,0,1],"translation":[5.053776741027832,0.000040531158447265625,-0.0000018290156731382012]},{"children":[13],"name":"Armature_LFeelerC4","rotation":[5.298190686175985e-8,0.0000020265581497369567,1.0737091283349182e-13,1],"translation":[5.053748607635498,-0.00009822845458984375,-0.000014186865882948041]},{"children":[14],"name":"Armature_LFeelerC5","rotation":[-2.119276274470394e-7,-5.684337142696297e-14,1.3552527156068805e-20,1],"translation":[5.053706169128418,0.000027850170226884075,0.00003872274828609079]},{"children":[15],"name":"Armature_LFeelerC6","rotation":[1.5894572413799324e-7,-0.0000014901161193847656,-2.3684756955168196e-13,1],"translation":[5.053858757019043,0.000023737708033877425,0.0000048502024583285674]},{"children":[16],"name":"Armature_LFeelerC7","rotation":[-1.4360719741482757e-27,-1.1368683772161603e-13,-4.0871830132586887e-25,1],"translation":[5.0536980628967285,-3.893418920597469e-11,-2.0381412468850613e-7]},{"name":"Armature_EndLFeelerC7","rotation":[-1.4360719741482757e-27,0,-4.0871830132586887e-25,1],"translation":[4.1181206703186035,-4.070344061801734e-11,3.4454569686204195e-7]},{"children":[18],"name":"Armature_RFeelerC1","rotation":[0,0.0000010156377356906887,0,1],"translation":[19.212310791015625,-5.632216453552246,2.672683000564575]},{"children":[19],"name":"Armature_RFeelerC2","rotation":[0,-5.684341886080802e-14,0,1],"translation":[5.053801536560059,0.00001049041748046875,0.000010125811968464404]},{"children":[20],"name":"Armature_RFeelerC3","rotation":[0,-0.0000014901161193847656,0,1],"translation":[5.0537824630737305,0.00004673004150390625,0.000008661518222652376]},{"children":[21],"name":"Armature_RFeelerC4","rotation":[0,0.000004470348358154297,0,1],"translation":[5.053744316101074,-0.00010633468627929688,-0.0000017819402273744345]},{"children":[22],"name":"Armature_RFeelerC5","translation":[5.053712844848633,0.00003147125244140625,0.000043085135985165834]},{"children":[23],"name":"Armature_RFeelerC6","rotation":[2.1192767007960356e-7,-0.000003993511199951172,-8.46335534206849e-13,1],"translation":[5.053857803344727,0.000022411346435546875,0.000038127065636217594]},{"children":[24],"name":"Armature_RFeelerC7","rotation":[-2.1192759902532998e-7,-2.273740278089381e-13,9.881641769226251e-22,1],"translation":[5.053696155548096,6.562518706232368e-7,-2.1701862351619639e-7]},{"name":"Armature_EndRFeelerC7","rotation":[0,0,7.728968848542352e-24,1],"translation":[4.118118762969971,3.212168309119079e-10,-7.0131527252215164e-9]},{"name":"Armature_EndHead","rotation":[0,2.358547135372646e-9,0,1],"translation":[20.299999237060547,2.9802322387695312e-8,-5.818146746605635e-7]},{"children":[27],"name":"Armature_RFeelerA1","rotation":[0,-0.49610888957977295,0,0.8682603240013123],"scale":[0.9999999403953552,1,0.9999999403953552],"translation":[6.529449462890625,8.779512405395508,-0.1495095193386078]},{"children":[28],"name":"Armature_RFeelerA2","rotation":[0,-1.4901161193847656e-8,0,1],"translation":[25.563100814819336,-9.5367431640625e-7,-9.5367431640625e-7]},{"name":"Armature_EndRFeelerA2","translation":[42.396690368652344,-9.5367431640625e-7,-0.000049591064453125]},{"children":[30,32,34,36],"name":"Armature_LHand","rotation":[0,0.1533653438091278,0,0.9881695508956909],"translation":[1.9255359172821045,-8.269405364990234,-7.7294020652771]},{"children":[31],"name":"Armature_LFingerB","rotation":[0,-0.9307037591934204,0,0.3657737970352173],"scale":[0.9999999403953552,1,0.9999999403953552],"translation":[-0.6730504035949707,-1.1432018280029297,2.2007217407226562]},{"name":"Armature_EndLFingerB","rotation":[0,-2.980232594040899e-8,0,1],"scale":[0.9999998807907104,1,0.9999998807907104],"translation":[2.8193564414978027,-1.8999481201171875,-2.0894014835357666]},{"children":[33],"name":"Armature_LFingerA","rotation":[0,-0.908550500869751,0,0.4177749752998352],"scale":[0.9999999403953552,1,0.9999999403953552],"translation":[2.1176717281341553,-0.6832103729248047,3.027798652648926]},{"name":"Armature_EndLFingerA","rotation":[0,-5.960464477539063e-8,0,1],"translation":[2.338836431503296,-1.2594661712646484,-1.4464465379714966]},{"children":[35],"name":"Armature_LFingerC","rotation":[0,-0.9547709226608276,0,0.2973422706127167],"scale":[0.9999999403953552,1,0.9999999403953552],"translation":[-2.967963218688965,-1.858595848083496,1.3912187814712524]},{"name":"Armature_EndLFingerC","translation":[2.2164011001586914,-1.433328628540039,-1.4665297269821167]},{"name":"Armature_EndLHand","translation":[0.7148499488830566,-1.581089973449707,-0.4875262975692749]},{"children":[38,40,42,44],"name":"Armature_RHand","rotation":[0,-0.9486483335494995,0,0.31633269786834717],"scale":[0.9999999403953552,1,0.9999999403953552],"translation":[2.7535529136657715,-8.269375801086426,7.4746317863464355]},{"children":[39],"name":"Armature_RFingerB","rotation":[0,-0.9653500914573669,0,0.2609582245349884],"translation":[-1.1951639652252197,-1.1431875228881836,1.9666590690612793]},{"name":"Armature_EndRFingerB","translation":[3.253631591796875,-1.8999319076538086,-1.314650297164917]},{"children":[41],"name":"Armature_RFingerC","rotation":[0,-0.9405920505523682,0,0.3395389914512634],"scale":[0.9999998807907104,1,0.9999998807907104],"translation":[0.936093807220459,-1.8586511611938477,3.1413445472717285]},{"name":"Armature_EndRFingerC","rotation":[0,1.4901161193847656e-8,0,1],"translation":[2.4293336868286133,-1.4333972930908203,-1.0777297019958496]},{"children":[43],"name":"Armature_RFingerA","rotation":[0,-0.9622581005096436,0,0.27213868498802185],"scale":[0.9999999403953552,1,0.9999999403953552],"translation":[-3.6692821979522705,-0.6832275390625,0.43355274200439453]},{"name":"Armature_EndRFingerA","rotation":[0,1.4901161193847656e-8,0,1],"translation":[2.6001641750335693,-1.2594614028930664,-0.8953195810317993]},{"name":"Armature_EndRHand","rotation":[0,-2.980232594040899e-8,0,1],"scale":[0.9999999403953552,1,0.9999999403953552],"translation":[-0.11163759231567383,-1.5810909271240234,-0.8580327033996582]},{"children":[46],"name":"Armature_LFeelerB1","rotation":[0,0.888281524181366,0,0.45929938554763794],"translation":[5.882778644561768,8.570311546325684,-0.5556240081787109]},{"children":[47],"name":"Armature_LFeelerB2","rotation":[0,-2.9802318834981634e-8,0,1],"scale":[1.0000001192092896,1,1.0000001192092896],"translation":[27.46684455871582,1.8934803009033203,0.00000286102294921875]},{"name":"Armature_EndLFeelerB2","translation":[23.22179412841797,0.0000019073486328125,0.00000762939453125]},{"children":[49],"name":"Armature_LFeelerA1","rotation":[0,0.542586624622345,0,0.8399998545646667],"translation":[6.507095813751221,8.779512405395508,-0.5603302121162415]},{"children":[50],"name":"Armature_LFeelerA2","rotation":[0,2.980232594040899e-8,0,1],"scale":[0.9999998807907104,1,0.9999998807907104],"translation":[25.563100814819336,-9.5367431640625e-7,0]},{"name":"Armature_EndLFeelerA2","translation":[42.39680480957031,-0.0000019073486328125,0.0000057220458984375]},{"children":[52],"name":"Armature_RFeelerB1","rotation":[0,-0.8619928359985352,0,0.5069205164909363],"translation":[5.908222198486328,8.570311546325684,-0.08638553321361542]},{"children":[53],"name":"Armature_RFeelerB2","translation":[27.466670989990234,1.893484115600586,-0.00000762939453125]},{"name":"Armature_EndRFeelerB2","translation":[23.2218017578125,9.5367431640625e-7,-0.00002384185791015625]},{"children":[55,59,63],"name":"Armature_Hips","rotation":[0,-0.9996300935745239,0,0.02719755470752716],"scale":[0.9999999403953552,1,0.9999999403953552],"translation":[-0.000002361844508413924,0.0000013671815395355225,-0.000008345415153598879]},{"children":[56],"name":"Armature_RThigh","rotation":[0,-3.21610968967434e-8,0,1],"translation":[4.829010486602783,-0.12046200037002563,-5.364429473876953]},{"children":[57],"name":"Armature_RFoot","rotation":[0,-0.6724622249603271,0,0.7401314377784729],"translation":[7.594362258911133,0.000024266541004180908,0.000003153450961690396]},{"children":[58],"name":"Armature_RToe","rotation":[0,-0.05347921699285507,0,0.9985690712928772],"scale":[0.9999999403953552,1,0.9999999403953552],"translation":[0.10305070877075195,-11.226163864135742,-1.0732439756393433]},{"name":"Armature_EndRToe","rotation":[0,3.259629011154175e-9,0,1],"translation":[0.000010371208190917969,-10.281899452209473,-0.000008527189493179321]},{"children":[60],"name":"Armature_LThigh","rotation":[0,-3.21610968967434e-8,0,1],"translation":[4.829019069671631,-0.12046200037002563,5.3644304275512695]},{"children":[61],"name":"Armature_LFoot","rotation":[0,-0.6724622249603271,0,0.7401314377784729],"translation":[7.594453811645508,0.00001767277717590332,0.0000036300698411650956]},{"children":[62],"name":"Armature_LToe","rotation":[0,-0.03614570200443268,0,0.9993466138839722],"translation":[0.10301995277404785,-11.226128578186035,-1.0730715990066528]},{"name":"Armature_EndLToe","rotation":[0,-9.31322685637781e-10,0,1],"scale":[0.9999999403953552,1,0.9999999403953552],"translation":[0.000009655952453613281,-10.281900405883789,-5.364418029785156e-7]},{"name":"Armature_EndHips","rotation":[0,-3.21610968967434e-8,0,1],"translation":[12.516500473022461,0,3.54979420080781e-7]},{"children":[65],"name":"Armature_VriTex01"},{"name":"Armature_pm0012_01_FeelerSkin"},{"name":"Armature_pm0012_00_BodySkin"},{"children":[68],"name":"Armature_VriTex00"},{"name":"Armature_pm0012_00_FeelerSkin"}],"samplers":[{}],"scene":0,"scenes":[{"name":"Scene","nodes":[0,3,2]}],"skins":[{"inverseBindMatrices":0,"joints":[4,5,6,7,8,9,10,11,12,13,14,15,16,17,18,19,20,21,22,23,24,25,26,27,28,29,30,31,32,33,34,35,36,37,38,39,40,41,42,43,44,45,46,47,48,49,50,51,52,53,54,55,56,57,58,59,60,61,62,63,64,65,66,67,68],"skeleton":0}],"textures":[{"sampler":0,"source":0},{"sampler":0,"source":1},{"sampler":0,"source":2}],"extensionsUsed":["ALI_amc_mesh_compression"],"extensionsRequired":["ALI_amc_mesh_compression"]}