{
	"accessors": [{
		"bufferView": 0,
		"componentType": 5126,
		"count": 86,
		"max": [1, 0, 1.0000001192092896, 0, 1, 0, 1, 0, 0, -1, 0, 0, 78.28710174560547, 91.68608856201172, 163.29307556152344, 1],
		"min": [-1, 0, -1, 0, -1.0000001192092896, 0, -1, 0, 0, -1.0000001192092896, 0, 0, -164.85887145996094, -220.9292449951172, -130.10679626464844, 1],
		"type": "MAT4",
		"byteOffset": 0
	}],
	"asset": {
		"generator": "Khronos Blender glTF 2.0 exporter",
		"version": "2.0"
	},
	"bufferViews": [{
		"buffer": 0,
		"byteLength": 5504,
		"byteOffset": 0
	}, {
		"buffer": 0,
		"byteOffset": 5504,
		"byteLength": 4579
	}, {
		"buffer": 0,
		"byteOffset": 10083,
		"byteLength": 5467
	}, {
		"buffer": 0,
		"byteOffset": 15550,
		"byteLength": 76503
	}, {
		"buffer": 0,
		"byteOffset": 92053,
		"byteLength": 83721
	}, {
		"buffer": 0,
		"byteOffset": 175774,
		"byteLength": 6043
	}],
	"buffers": [{
		"byteLength": 181817,
		"uri": "buffer.bin"
	}],
	"images": [{
		"name": "pm0006_00_Eye1",
		"uri": "pm0006_00_Eye1.png"
	}, {
		"name": "pm0006_00_BodyA1",
		"uri": "pm0006_00_BodyA1.png"
	}, {
		"name": "pm0006_00_BodyB1",
		"uri": "pm0006_00_BodyB1.png"
	}, {
		"name": "pm0006_00_FireCoreA1",
		"uri": "pm0006_00_FireCoreA1.png"
	}, {
		"name": "pm0006_00_FireStenA1",
		"uri": "pm0006_00_FireStenA1.png"
	}],
	"materials": [{
		"alphaMode": "OPAQUE",
		"name": "Material__12",
		"pbrMetallicRoughness": {
			"baseColorFactor": [0.6400000190734865, 0.6400000190734865, 0.6400000190734865, 1],
			"baseColorTexture": {
				"index": 0
			},
			"metallicFactor": 0
		}
	}, {
		"alphaMode": "OPAQUE",
		"name": "Material__13",
		"pbrMetallicRoughness": {
			"baseColorFactor": [0.6400000190734865, 0.6400000190734865, 0.6400000190734865, 1],
			"baseColorTexture": {
				"index": 1
			},
			"metallicFactor": 0
		}
	}, {
		"alphaMode": "OPAQUE",
		"name": "Material__14",
		"pbrMetallicRoughness": {
			"baseColorFactor": [0.6400000190734865, 0.6400000190734865, 0.6400000190734865, 1],
			"baseColorTexture": {
				"index": 2
			},
			"metallicFactor": 0
		}
	}, {
		"alphaMode": "OPAQUE",
		"name": "fireCore",
		"doubleSided":true,
		"extensions": {
            "KHR_techniques_webgl": {
                "technique": 0,
                "values" : {
                    "u_fireCoreTexture":  {
                        "index": 3
                    }
                }
            }
        }
	}, {
		"alphaMode": "OPAQUE",
		"name": "fireSten",
		"doubleSided":true,
		"extensions": {
            "KHR_techniques_webgl": {
                "technique": 1,
                "values" : {
                    "u_fireStenTexture":  {
                        "index": 4
                    }
                }
            }
        }
	}],
	"meshes": [{
		"name": "Charizard",
		"primitives": [{
			"material": 0,
			"extensions": {
				"ALI_amc_mesh_compression": {
					"bufferView": 1
				}
			}
		}, {
			"material": 4,
			"extensions": {
				"ALI_amc_mesh_compression": {
					"bufferView": 2
				}
			}
		}, {
			"material": 2,
			"extensions": {
				"ALI_amc_mesh_compression": {
					"bufferView": 3
				}
			}
		}, {
			"material": 1,
			"extensions": {
				"ALI_amc_mesh_compression": {
					"bufferView": 4
				}
			}
		}, {
			"material": 3,
			"extensions": {
				"ALI_amc_mesh_compression": {
					"bufferView": 5
				}
			}
		}]
	}],
	"nodes": [{
		"children": [2, 4],
		"name": "Armature",
		"scale": [0.02539999969303608, 0.02539999969303608, 0.02539999969303608]
	}, {
		"name": "Camera",
		"rotation": [0.483536034822464, 0.33687159419059753, -0.20870360732078552, 0.7804827094078064],
		"translation": [7.481131553649902, 5.34366512298584, 6.5076398849487305]
	}, {
		"mesh": 0,
		"name": "Charizard",
		"skin": 0
	}, {
		"name": "Lamp",
		"rotation": [0.16907575726509094, 0.7558802962303162, -0.27217137813568115, 0.570947527885437],
		"scale": [1, 1, 0.9999999403953552],
		"translation": [4.076245307922363, 5.903861999511719, -1.0054539442062378]
	}, {
		"children": [5, 85, 86, 87, 88, 89],
		"name": "Armature_pm0006_00",
		"rotation": [-0.7071068286895752, 0, 0, 0.7071068286895752]
	}, {
		"children": [6],
		"name": "Armature_Origin"
	}, {
		"children": [7, 34],
		"name": "Armature_Waist",
		"rotation": [0, -0.8271487951278687, 0, 0.561983048915863],
		"translation": [0, -1.5465724468231201, 57.34640121459961]
	}, {
		"children": [8, 9, 15, 28],
		"name": "Armature_Hips",
		"rotation": [0, -0.9822649955749512, 0, 0.1874980926513672],
		"translation": [-0.000021094680050737225, 0.0000027418136596679688, -0.000053241325076669455]
	}, {
		"name": "Armature_EndHips",
		"rotation": [0, -2.2847871150588617e-8, 0, 1],
		"translation": [46.33720016479492, 9.5367431640625e-7, 0.00000382821963285096]
	}, {
		"children": [10],
		"name": "Armature_LThigh",
		"rotation": [0, -0.31293290853500366, 0, 0.9497752785682678],
		"translation": [13.143601417541504, 1.163733959197998, 25.717365264892578]
	}, {
		"children": [11],
		"name": "Armature_LLeg",
		"rotation": [0, 0.3425721824169159, 0, 0.9394915103912354],
		"translation": [19.167367935180664, -4.267874717712402, -4.170266151428223]
	}, {
		"children": [12, 13],
		"name": "Armature_LFoot",
		"rotation": [0, -0.8645521402359009, 0, 0.5025430917739868],
		"scale": [1, 0.9999999403953552, 1],
		"translation": [15.955167770385742, 9.506261825561523, 8.409587860107422]
	}, {
		"name": "Armature_EndLFoot",
		"translation": [0.000034809112548828125, -26.24700164794922, -0.0000286102294921875]
	}, {
		"children": [14],
		"name": "Armature_LToe",
		"rotation": [0, 0.021227704361081123, 0, 0.999774694442749],
		"scale": [0.9999999403953552, 1, 0.9999999403953552],
		"translation": [0.00003743171691894531, -14.01097297668457, -4.025253772735596]
	}, {
		"name": "Armature_EndLToe",
		"translation": [0.0018749237060546875, -19.442062377929688, -0.1907491683959961]
	}, {
		"children": [16],
		"name": "Armature_Tail1",
		"rotation": [0, -0.6069789528846741, 0, 0.7947180271148682],
		"translation": [25.717832565307617, 24.363441467285156, -0.0000048012734623625875]
	}, {
		"children": [17],
		"name": "Armature_Tail2",
		"rotation": [0, -0.016651039943099022, 0, 0.9998613595962524],
		"translation": [2.331817388534546, 32.48572540283203, -8.548681259155273]
	}, {
		"children": [18],
		"name": "Armature_Tail3",
		"rotation": [0, -0.050926323980093, 0, 0.9987024068832397],
		"translation": [1.5852934122085571, 28.935375213623047, -6.680624961853027]
	}, {
		"children": [19],
		"name": "Armature_Tail4",
		"rotation": [0, -0.03081420436501503, 0, 0.9995251297950745],
		"translation": [0.5388050675392151, 31.26392364501953, -4.086480617523193]
	}, {
		"children": [20],
		"name": "Armature_Tail5",
		"rotation": [0, -0.024413736537098885, 0, 0.9997020363807678],
		"scale": [1.0000001192092896, 1, 1.0000001192092896],
		"translation": [0.1421869993209839, 29.451583862304688, -2.0436768531799316]
	}, {
		"children": [21],
		"name": "Armature_Tail6",
		"rotation": [0, -0.025255244225263596, 0, 0.9996810555458069],
		"scale": [1.0000001192092896, 1, 1.0000001192092896],
		"translation": [0.0123513825237751, 28.946136474609375, -0.5969163179397583]
	}, {
		"children": [22, 23],
		"name": "Armature_Tail7",
		"rotation": [0, -0.013404566794633865, 0, 0.9999101758003235],
		"translation": [0.01934034749865532, 21.616378784179688, 0.646226704120636]
	}, {
		"name": "Armature_EndTail7",
		"translation": [0.0818028450012207, 25.413192749023438, 1.440446376800537]
	}, {
		"children": [24],
		"name": "Armature_TailA01",
		"rotation": [0, -0.6867740154266357, 0, 0.7268710732460022],
		"scale": [0.9999999403953552, 1, 0.9999999403953552],
		"translation": [0.08182008564472198, 25.41302490234375, 1.4406826496124268]
	}, {
		"children": [25],
		"name": "Armature_TailA02",
		"rotation": [0, 4.5684413407798274e-7, 0, 1],
		"translation": [13.581578254699707, 0.000030517578125, 0.00004168401937931776]
	}, {
		"children": [26],
		"name": "Armature_TailA03",
		"translation": [13.581598281860352, 0.0000457763671875, 0.000054093325161375105]
	}, {
		"children": [27],
		"name": "Armature_TailA04",
		"translation": [13.581600189208984, 0.000030517578125, 0.00005409340519690886]
	}, {
		"name": "Armature_EndTailA04",
		"translation": [13.581592559814453, 0.000030517578125, 0.00005409338336903602]
	}, {
		"children": [29],
		"name": "Armature_RThigh",
		"rotation": [0, 0.10385823249816895, 0, 0.9945921301841736],
		"translation": [13.143603324890137, 1.1637853384017944, -25.71746063232422]
	}, {
		"children": [30],
		"name": "Armature_RLeg",
		"rotation": [0, 0.3425726890563965, 0, 0.9394914507865906],
		"translation": [19.167373657226562, -4.267874717712402, -4.170257568359375]
	}, {
		"children": [31, 33],
		"name": "Armature_RFoot",
		"rotation": [0, -0.852508544921875, 0, 0.5227133631706238],
		"translation": [15.955187797546387, 9.506318092346191, 8.409628868103027]
	}, {
		"children": [32],
		"name": "Armature_RToe",
		"rotation": [0, -0.0022625683341175318, 0, 0.9999974370002747],
		"translation": [0.000049114227294921875, -14.011053085327148, -4.02520751953125]
	}, {
		"name": "Armature_EndRToe",
		"rotation": [0, -1.4901161193847656e-8, 0, 1],
		"translation": [0.0018520355224609375, -19.442062377929688, -0.19075345993041992]
	}, {
		"name": "Armature_EndRFoot",
		"translation": [0.0000209808349609375, -26.246997833251953, 0.0000019073486328125]
	}, {
		"children": [35, 42, 49],
		"name": "Armature_Spine1",
		"rotation": [0, 2.384185791015625e-7, 0, 1],
		"translation": [-0.000020507213775999844, -0.000042319297790527344, -0.000028687918529612944]
	}, {
		"children": [36],
		"name": "Armature_LFeeler1",
		"rotation": [0, 0.5719051957130432, 0, 0.8203197717666626],
		"translation": [29.709274291992188, 12.448945999145508, -20.399097442626953]
	}, {
		"children": [37],
		"name": "Armature_LFeeler2",
		"rotation": [0, 0.0964411124587059, 0, 0.9953386783599854],
		"translation": [20.189802169799805, -2.6089534759521484, 8.971230506896973]
	}, {
		"children": [38],
		"name": "Armature_LFeeler3",
		"rotation": [0, 0.1840258091688156, 0, 0.9829214215278625],
		"scale": [1.0000001192092896, 1, 1.0000001192092896],
		"translation": [18.48229217529297, -0.08412837982177734, 0.3137779235839844]
	}, {
		"children": [39],
		"name": "Armature_LFeeler4",
		"rotation": [0, -0.5491030812263489, 0, 0.8357547521591187],
		"scale": [0.9999998211860657, 1, 0.9999998211860657],
		"translation": [27.26080322265625, -9.5222749710083, 29.43401336669922]
	}, {
		"children": [40],
		"name": "Armature_LFeeler5",
		"rotation": [0, 0.11718570441007614, 0, 0.9931100606918335],
		"scale": [0.9999999403953552, 1, 0.9999999403953552],
		"translation": [-9.173032760620117, 14.788925170898438, -43.369327545166016]
	}, {
		"children": [41],
		"name": "Armature_LFeeler6",
		"rotation": [0, -0.0000018477439880371094, 0, 1],
		"translation": [-15.008480072021484, 15.995399475097656, -35.803627014160156]
	}, {
		"name": "Armature_EndLFeeler6",
		"translation": [-7.2635650634765625, 7.741188049316406, -17.327590942382812]
	}, {
		"children": [43],
		"name": "Armature_RFeeler1",
		"rotation": [0, -0.006208792794495821, 0, 0.9999807476997375],
		"translation": [35.61864471435547, 12.448871612548828, -5.484039306640625]
	}, {
		"children": [44],
		"name": "Armature_RFeeler2",
		"rotation": [0, -0.30780088901519775, 0, 0.9514508247375488],
		"translation": [22.081260681152344, -2.608902931213379, 0.7209396362304688]
	}, {
		"children": [45],
		"name": "Armature_RFeeler3",
		"rotation": [0, 0.24646317958831787, 0, 0.9691522121429443],
		"scale": [0.9999999403953552, 1, 0.9999999403953552],
		"translation": [18.48518180847168, -0.08405208587646484, 0.022180557250976562]
	}, {
		"children": [46],
		"name": "Armature_RFeeler4",
		"rotation": [0, -0.6982208490371704, 0, 0.715882420539856],
		"translation": [40.039772033691406, -9.522408485412598, 2.5142440795898438]
	}, {
		"children": [47],
		"name": "Armature_RFeeler5",
		"rotation": [0, -0.21469905972480774, 0, 0.9766802787780762],
		"translation": [44.288291931152344, 14.788979530334473, -1.8945884704589844]
	}, {
		"children": [48],
		"name": "Armature_RFeeler6",
		"rotation": [0, 1.341104507446289e-7, 0, 1],
		"translation": [38.769508361816406, 15.995264053344727, -2.0219345092773438]
	}, {
		"name": "Armature_EndRFeeler6",
		"rotation": [0, -1.4901161193847656e-8, 0, 1],
		"translation": [18.76289176940918, 7.741207122802734, -0.9789543151855469]
	}, {
		"children": [50, 63, 72],
		"name": "Armature_Spine2",
		"rotation": [0, 0.043881259858608246, 0, 0.9990367889404297],
		"translation": [17.47384262084961, -7.44667387008667, -6.923218250274658]
	}, {
		"children": [51],
		"name": "Armature_LShoulder",
		"rotation": [0, 0.8016917109489441, 0, 0.5977378487586975],
		"translation": [9.81435775756836, 1.8426589965820312, -13.683512687683105]
	}, {
		"children": [52],
		"name": "Armature_LArm",
		"rotation": [0, 0.5446304082870483, 0, 0.8386762738227844],
		"translation": [11.383193969726562, 0.000148773193359375, 0.00004293278470868245]
	}, {
		"children": [53],
		"name": "Armature_LForeArm",
		"rotation": [0, -0.4854036569595337, 0, 0.8742901682853699],
		"scale": [0.9999999403953552, 1, 0.9999999403953552],
		"translation": [20.105798721313477, 2.87637996673584, 2.278179168701172]
	}, {
		"children": [54, 57, 60],
		"name": "Armature_LHand",
		"rotation": [0, 0.38319477438926697, 0, 0.9236676096916199],
		"scale": [0.9999999403953552, 1, 0.9999999403953552],
		"translation": [8.41434383392334, -11.51142692565918, -5.948846340179443]
	}, {
		"children": [55],
		"name": "Armature_LFingerA1",
		"rotation": [0, 0.3181646168231964, 0, 0.948035478591919],
		"translation": [6.306346893310547, -8.703824996948242, -1.0114326477050781]
	}, {
		"children": [56],
		"name": "Armature_LFingerA2",
		"rotation": [0, 0.4731132984161377, 0, 0.8810015916824341],
		"translation": [6.967919826507568, -5.105442047119141, -2.2867398262023926]
	}, {
		"name": "Armature_EndLFingerA2",
		"scale": [1.0000001192092896, 1, 1.0000001192092896],
		"translation": [8.360824584960938, 1.9563465118408203, 1.0227546691894531]
	}, {
		"children": [58],
		"name": "Armature_LFingerB1",
		"rotation": [0, 0.10251019150018692, 0, 0.9947319626808167],
		"translation": [-0.413604736328125, -8.197328567504883, -3.6358375549316406]
	}, {
		"children": [59],
		"name": "Armature_LFingerB2",
		"rotation": [0, 0.1957065463066101, 0, 0.9806625247001648],
		"translation": [-0.25777626037597656, -2.438760757446289, -4.27949333190918]
	}, {
		"name": "Armature_EndLFingerB2",
		"rotation": [0, -1.4901161193847656e-8, 0, 1],
		"translation": [5.964917182922363, -2.081165313720703, -4.844655990600586]
	}, {
		"children": [61],
		"name": "Armature_LFingerC1",
		"rotation": [0, 0.31743428111076355, 0, 0.9482802748680115],
		"translation": [9.315328598022461, -2.8539676666259766, -1.712005615234375]
	}, {
		"children": [62],
		"name": "Armature_LFingerC2",
		"rotation": [0, 0.36491113901138306, 0, 0.9310423731803894],
		"translation": [6.3996686935424805, 0.0000629425048828125, 0.00003647738049039617]
	}, {
		"name": "Armature_EndLFingerC2",
		"scale": [1.0000001192092896, 1, 1.0000001192092896],
		"translation": [7.067232131958008, -0.6001300811767578, -0.020923852920532227]
	}, {
		"children": [64],
		"name": "Armature_Neck1",
		"rotation": [0, -0.14939680695533752, 0, 0.9887773990631104],
		"translation": [23.485050201416016, -7.297625541687012, -6.993907451629639]
	}, {
		"children": [65],
		"name": "Armature_Neck2",
		"rotation": [0, -0.04491913318634033, 0, 0.9989907145500183],
		"scale": [0.9999999403953552, 1, 0.9999999403953552],
		"translation": [9.45492172241211, -7.604547500610352, -6.321783065795898]
	}, {
		"children": [66],
		"name": "Armature_Neck3",
		"rotation": [0, -0.14948636293411255, 0, 0.9887638092041016],
		"scale": [0.9999999403953552, 1, 0.9999999403953552],
		"translation": [8.62106704711914, -8.945817947387695, -6.9604668617248535]
	}, {
		"children": [67, 71],
		"name": "Armature_Head",
		"rotation": [0, 0.470327228307724, 0, 0.8824921250343323],
		"translation": [4.842665672302246, -12.929988861083984, -7.209640026092529]
	}, {
		"children": [68, 70],
		"name": "Armature_Jaw",
		"rotation": [0, 0.7617736458778381, 0, 0.6478434205055237],
		"translation": [0.0327606201171875, -12.948837280273438, 0.00007258233381435275]
	}, {
		"children": [69],
		"name": "Armature_Tongue",
		"rotation": [0, -0.019582778215408325, 0, 0.9998082518577576],
		"scale": [0.9999999403953552, 1, 0.9999999403953552],
		"translation": [0.6823450922966003, -2.1646957397460938, -4.193637371063232]
	}, {
		"name": "Armature_EndTongue",
		"translation": [0.35903000831604004, -24.01123046875, -2.925163745880127]
	}, {
		"name": "Armature_EndJaw",
		"translation": [0.8614130020141602, -32.96599578857422, -5.29423189163208]
	}, {
		"name": "Armature_EndHead",
		"rotation": [0, -2.1855726117792074e-8, 0, 1],
		"translation": [13.0552978515625, 0.0000152587890625, 0.000014264893252402544]
	}, {
		"children": [73],
		"name": "Armature_RShoulder",
		"rotation": [0, -0.5977407097816467, 0, 0.8016895055770874],
		"scale": [0.9999999403953552, 1, 0.9999999403953552],
		"translation": [15.701455116271973, 1.8426690101623535, 6.0849504470825195]
	}, {
		"children": [74],
		"name": "Armature_RArm",
		"rotation": [0, -0.41796135902404785, 0, 0.9084649085998535],
		"translation": [11.383134841918945, 0.00008106231689453125, 0.0000034818222047761083]
	}, {
		"children": [75],
		"name": "Armature_RForeArm",
		"rotation": [0, -0.4854041337966919, 0, 0.8742899298667908],
		"translation": [19.919700622558594, 2.876370906829834, 3.556285858154297]
	}, {
		"children": [76, 79, 82],
		"name": "Armature_RHand",
		"rotation": [0, -0.7666070461273193, 0, 0.6421166658401489],
		"translation": [4.46735954284668, -11.511289596557617, -9.286103248596191]
	}, {
		"children": [77],
		"name": "Armature_RFingerA1",
		"rotation": [0, 0.3096468150615692, 0, 0.9508516788482666],
		"scale": [1.0000001192092896, 1, 1.0000001192092896],
		"translation": [-5.263242244720459, -8.703875541687012, -3.6181373596191406]
	}, {
		"children": [78],
		"name": "Armature_RFingerA2",
		"rotation": [0, 0.47142478823661804, 0, 0.8819063901901245],
		"translation": [3.299956798553467, -5.1055145263671875, -6.549089431762695]
	}, {
		"name": "Armature_EndRFingerA2",
		"translation": [7.675228118896484, 1.9563922882080078, 3.4698257446289062]
	}, {
		"children": [80],
		"name": "Armature_RFingerB1",
		"rotation": [0, 0.3571585714817047, 0, 0.9340437650680542],
		"scale": [0.9999999403953552, 1, 0.9999999403953552],
		"translation": [1.9328866004943848, -8.197394371032715, -3.1071243286132812]
	}, {
		"children": [81],
		"name": "Armature_RFingerB2",
		"rotation": [0, 0.2892295718193054, 0, 0.9572597742080688],
		"translation": [4.250134468078613, -2.4386844635009766, -0.5624370574951172]
	}, {
		"name": "Armature_EndRFingerB2",
		"translation": [7.64630126953125, -2.0812225341796875, -0.7642631530761719]
	}, {
		"children": [83],
		"name": "Armature_RFingerC1",
		"rotation": [0, 0.8553235530853271, 0, 0.5180942416191101],
		"scale": [1, 0.9999999403953552, 1],
		"translation": [-7.681132793426514, -2.8539953231811523, -5.541328430175781]
	}, {
		"children": [84],
		"name": "Armature_RFingerC2",
		"rotation": [0, -0.9510591626167297, 0, 0.3090091049671173],
		"translation": [6.39961051940918, -0.0000705718994140625, 0.00008619757136330009]
	}, {
		"name": "Armature_EndRFingerC2",
		"rotation": [0, 1.4901161193847656e-8, 0, 1],
		"translation": [-1.3516836166381836, -0.6001091003417969, -6.93682861328125]
	}, {
		"name": "Armature_pm0006_00_BodySkin"
	}, {
		"name": "Armature_pm0006_00_FireAStenSkin"
	}, {
		"name": "Armature_pm0006_00_FireCore1Skin"
	}, {
		"name": "Armature_pm0006_00_FireCore2Skin"
	}, {
		"name": "Armature_pm0006_00_FireCore3Skin"
	}],
	"samplers": [{}],
	"scene": 0,
	"scenes": [{
		"name": "Scene",
		"nodes": [0, 3, 1]
	}],
	"skins": [{
		"inverseBindMatrices": 0,
		"joints": [4, 5, 6, 7, 8, 9, 10, 11, 12, 13, 14, 15, 16, 17, 18, 19, 20, 21, 22, 23, 24, 25, 26, 27, 28, 29, 30, 31, 32, 33, 34, 35, 36, 37, 38, 39, 40, 41, 42, 43, 44, 45, 46, 47, 48, 49, 50, 51, 52, 53, 54, 55, 56, 57, 58, 59, 60, 61, 62, 63, 64, 65, 66, 67, 68, 69, 70, 71, 72, 73, 74, 75, 76, 77, 78, 79, 80, 81, 82, 83, 84, 85, 86, 87, 88, 89],
		"skeleton": 0
	}],
	"textures": [{
		"sampler": 0,
		"source": 0
	}, {
		"sampler": 0,
		"source": 1
	}, {
		"sampler": 0,
		"source": 2
	}, {
		"sampler": 0,
		"source": 3
	}, {
		"sampler": 0,
		"source": 4
	}],
	"extensions": {
        "KHR_techniques_webgl": {
            "programs": [
                {	
                	"name": "fireCore",
                    "fragmentShader": 0,
                    "vertexShader": 1
                },
                {
                    "name": "fireSten",
                    "fragmentShader": 2,
                    "vertexShader": 3
                }
            ],
            "shaders": [
                {
                    "type": 35632,
                    "uri": "../../fx/fireCoreFS.glsl"
                },
                {
                    "type": 35633,
                    "uri": "../../fx/fireCoreVS.glsl"
                },
                {
                    "type": 35632,
                    "uri": "../../fx/fireStenFS.glsl"
                },
                {
                    "type": 35633,
                    "uri": "../../fx/fireStenVS.glsl"
                }
            ],
            "techniques": [
                {
                    "program": 0,
                    "attributes": {
                        "a_position": {
                            "semantic": "POSITION"
                        },
                        "a_texcoord0": {
                            "semantic": "TEXCOORD_0"
                        }
                    },
                    "uniforms": {                   
                        "u_time": {
                            "type": 5126,
                            "semantic": "TIME"
                        },
                        "u_modelViewProjectionMatrix": {
                            "semantic": "MODELVIEWPROJECTION",
                            "type": 35676
                        },
                        "u_fireCoreTexture": {
                            "type": 35678
                        }
                    }
                },
                {
                    "program": 1,
                    "attributes": {
                        "a_position": {
                            "semantic": "POSITION"
                        },
                        "a_texcoord0": {
                            "semantic": "TEXCOORD_0"
                        }
                    },
                    "uniforms": {                   
                        "u_modelViewProjectionMatrix": {
                            "semantic": "MODELVIEWPROJECTION",
                            "type": 35676
                        },
                        "u_fireStenTexture": {
                            "type": 35678
                        }
                    }
                }
            ]
        }
    },
	"extensionsUsed": ["ALI_amc_mesh_compression", "KHR_techniques_webgl"],
	"extensionsRequired": ["ALI_amc_mesh_compression", "KHR_techniques_webgl"]
}