{"accessors":[{"bufferView":0,"componentType":5126,"count":69,"max":[0.000003899774583260296,-1,0.000004096682459930889,0,0.9518488049507141,0.00000417079445469426,1.0000001192092896,0,0.8767796754837036,8.15072276338924e-9,0.9518488645553589,0,62.171085357666016,95.0473861694336,116.20027923583984,1],"min":[-0.0000041427065298194066,-1.0000003576278687,-0.000003592440634747618,0,-1.000000238418579,0.000004037489816255402,-0.8767796158790588,0,-1.000000238418579,-6.4929692733528555e-9,-1.0000003576278687,0,-141.65277099609375,-95.04769897460938,-99.15333557128906,1],"type":"MAT4","byteOffset":0}],"asset":{"generator":"Khronos Blender glTF 2.0 exporter","version":"2.0"},"bufferViews":[{"buffer":0,"byteLength":4416,"byteOffset":0},{"buffer":0,"byteOffset":4416,"byteLength":189281},{"buffer":0,"byteOffset":193697,"byteLength":3063}],"buffers":[{"byteLength":196760,"uri":"buffer.bin"}],"images":[{"name":"pm0055_00_Body1","uri":"pm0055_00_Body1.png"},{"name":"pm0055_00_Eye1","uri":"pm0055_00_Eye1.png"}],"materials":[{"alphaMode":"OPAQUE","name":"BodySpc01","pbrMetallicRoughness":{"baseColorFactor":[0.6400000190734865,0.6400000190734865,0.6400000190734865,1],"baseColorTexture":{"index":0},"metallicFactor":0}},{"alphaMode":"OPAQUE","name":"Eye","pbrMetallicRoughness":{"baseColorFactor":[0.6400000190734865,0.6400000190734865,0.6400000190734865,1],"baseColorTexture":{"index":1},"metallicFactor":0}}],"meshes":[{"name":"Golduck","primitives":[{"material":0,"extensions":{"ALI_amc_mesh_compression":{"bufferView":1}}},{"material":1,"extensions":{"ALI_amc_mesh_compression":{"bufferView":2}}}]}],"nodes":[{"children":[1,23],"name":"_01_pm0055_00","rotation":[0.7071068286895752,0,0,0.7071067094802856],"scale":[0.02539999783039093,0.02539999969303608,0.02539999969303608]},{"children":[2],"name":"_02_Origin"},{"children":[25,27,63],"name":"_03_Waist","rotation":[0.044313061982393265,0.7057183980941772,0.04431287944316864,0.7057154774665833],"scale":[0.9999998807907104,0.9999998211860657,1],"translation":[0,1.6962000131607056,-69.97810363769531]},{"name":"_05_EndHips","translation":[30.231300354003906,0,-2.9103799231711136e-11]},{"name":"_09_EndLFoot","translation":[16.283910751342773,-9.536739753457368e-7,0.0000019073499970545527]},{"name":"_12_EndLToeA2","translation":[14.219400405883789,-4.768369876728684e-7,-0.000003814699994109105]},{"name":"_15_EndLToeB2","translation":[14.219389915466309,0,-0.000005722049991163658]},{"name":"_18_EndLToeC2","translation":[14.219409942626953,4.768369876728684e-7,0.0000028610199933609692]},{"name":"_20_EndLToeD","translation":[13.272199630737305,-2.3841900542720396e-7,-0.000003814699994109105]},{"name":"_24_EndRFoot","translation":[16.28380012512207,0.0000019073499970545527,0]},{"name":"_27_EndRToeA2","translation":[14.219490051269531,-2.3841900542720396e-7,0.000003814699994109105]},{"name":"_30_EndRToeB2","translation":[14.219400405883789,-4.768369876728684e-7,-0.0000019073499970545527]},{"name":"_33_EndRToeC2","translation":[14.219499588012695,-7.152560215217818e-7,0]},{"name":"_35_EndRToeD","translation":[13.272199630737305,-2.3841900542720396e-7,0]},{"name":"_39_EndTail3","translation":[28.94028091430664,0,7.27596021626864e-12]},{"name":"_48_EndLFingerA2","translation":[16.786100387573242,-0.000007629389983776491,-0.0000019073499970545527]},{"name":"_51_EndLFingerB2","translation":[14.430500030517578,0,0.000005722049991163658]},{"name":"_54_EndLFingerC2","translation":[14.469300270080566,0.000007629389983776491,0.0000019073499970545527]},{"name":"_57_EndHead","translation":[34.921791076660156,0,2.9103799231711136e-11]},{"name":"_59_EndJaw","translation":[41.17710876464844,-0.000022888199964654632,0]},{"name":"_66_EndRFingerA2","translation":[16.786130905151367,0.00001525879997643642,-4.768369876728684e-7]},{"name":"_69_EndRFingerB2","translation":[14.430399894714355,0.000007629389983776491,-0.000003814699994109105]},{"name":"_72_EndRFingerC2","translation":[14.469189643859863,0,0.000011444099982327316]},{"name":"_73_pm0055_00_Skin"},{"name":"Camera","rotation":[0.483536034822464,0.33687159419059753,-0.20870360732078552,0.7804827094078064],"translation":[7.481131553649902,5.34366512298584,6.5076398849487305]},{"mesh":0,"name":"Golduck","rotation":[0.46768176555633545,-0.5303530097007751,0.4676841199398041,0.5303499102592468],"scale":[1,0.9999998211860657,1.0000003576278687],"skin":0,"translation":[-69.64060974121094,7.070656776428223,-0.0002866798604372889]},{"name":"Lamp","rotation":[0.16907575726509094,0.7558802962303162,-0.27217137813568115,0.570947527885437],"scale":[1,1,0.9999999403953552],"translation":[4.076245307922363,5.903861999511719,-1.0054539442062378]},{"children":[28,29,44,59],"name":"_03_Waist__04_Hips","rotation":[-0.5846878886222839,0.3976683020591736,-0.3976683020591736,0.5846878886222839],"scale":[0.9999998807907104,0.9999998807907104,0.9999998807907104],"translation":[-62.569969177246094,76.71131896972656,-0.00028203072724863887]},{"name":"_03_Waist__05_EndHips","rotation":[0,1.4901161193847656e-8,0,1],"translation":[26.50619125366211,-9.537034202367067e-7,-14.538021087646484]},{"children":[30],"name":"_03_Waist__06_LThigh","rotation":[0,-0.9928749799728394,0,0.11916062235832214],"translation":[14.7076416015625,-16.472293853759766,-6.132295608520508]},{"children":[31],"name":"_03_Waist__07_LLeg","rotation":[0,0.19506828486919403,0,0.9807896614074707],"scale":[0.9999999403953552,1,0.9999999403953552],"translation":[-17.854846954345703,-4.443042755126953,11.060503005981445]},{"children":[32,33,36,39,42],"name":"_03_Waist__08_LFoot","rotation":[0,0.45248010754585266,0,0.8917744755744934],"translation":[-23.64712142944336,-5.31962776184082,-5.780309200286865]},{"name":"_03_Waist__09_EndLFoot","scale":[1,0.9999999403953552,1],"translation":[-14.27609920501709,-0.039936065673828125,7.833093643188477]},{"children":[34],"name":"_03_Waist__10_LToeA1","rotation":[0,0.25171732902526855,0,0.9678007960319519],"translation":[-13.684229850769043,8.13023567199707,-0.6866626739501953]},{"children":[35],"name":"_03_Waist__11_LToeA2","rotation":[0,2.2351741790771484e-8,0,1],"translation":[-6.979039669036865,3.5308055877685547,-0.671740710735321]},{"name":"_03_Waist__12_EndLToeA2","translation":[-12.641509056091309,6.395544052124023,-1.2167567014694214]},{"children":[37],"name":"_03_Waist__13_LToeB1","rotation":[0,0.2572164535522461,0,0.9663538336753845],"translation":[-15.550031661987305,0.09814453125,0.32876014709472656]},{"children":[38],"name":"_03_Waist__14_LToeB2","rotation":[0,-1.4901161193847656e-8,0,1],"translation":[-7.548995018005371,-1.4628410339355469,-0.7610566020011902]},{"name":"_03_Waist__15_EndLToeB2","scale":[1,0.9999999403953552,1],"translation":[-13.891827583312988,-2.6919498443603516,-1.400509238243103]},{"children":[40],"name":"_03_Waist__16_LToeC1","rotation":[0,0.27190008759498596,0,0.9623255729675293],"translation":[-11.213956832885742,-6.598167419433594,-2.3447084426879883]},{"children":[41],"name":"_03_Waist__17_LToeC2","rotation":[0,2.2351741790771484e-8,0,1],"translation":[-4.924816131591797,-6.231315612792969,-0.6062071323394775]},{"name":"_03_Waist__18_EndLToeC2","rotation":[0,-7.450580596923828e-9,0,1],"scale":[1,0.9999999403953552,1],"translation":[-8.791312217712402,-11.123558044433594,-1.082144021987915]},{"children":[43],"name":"_03_Waist__19_LToeD","rotation":[0,0.24829380214214325,0,0.9686847925186157],"translation":[5.11060094833374,1.1148223876953125,-10.535287857055664]},{"name":"_03_Waist__20_EndLToeD","scale":[1,0.9999999403953552,1],"translation":[13.272200584411621,-0.0000457763671875,-0.0000020265579223632812]},{"children":[45],"name":"_03_Waist__21_RThigh","rotation":[0,-0.9928703904151917,0,0.1191994696855545],"translation":[14.707881927490234,16.472105026245117,-6.132266998291016]},{"children":[46],"name":"_03_Waist__22_RLeg","rotation":[0,0.19507116079330444,0,0.9807891845703125],"scale":[0.9999999403953552,0.9999999403953552,0.9999999403953552],"translation":[-17.855758666992188,4.442880630493164,11.059076309204102]},{"children":[47,48,51,54,57],"name":"_03_Waist__23_RFoot","rotation":[0,0.457004189491272,0,0.8894646763801575],"scale":[1.0000001192092896,1,1.0000001192092896],"translation":[-23.64671516418457,5.319242477416992,-5.782350540161133]},{"name":"_03_Waist__24_EndRFoot","rotation":[0,2.9802322387695312e-8,0,1],"translation":[-14.355480194091797,0.04009246826171875,7.686407089233398]},{"children":[49],"name":"_03_Waist__25_RToeA1","rotation":[0,0.24673298001289368,0,0.9690835475921631],"translation":[-13.676676750183105,-8.129962921142578,-0.826812744140625]},{"children":[50],"name":"_03_Waist__26_RToeA2","rotation":[0,1.4901161193847656e-8,0,1],"translation":[-6.979078769683838,-3.5307788848876953,-0.6713420152664185]},{"name":"_03_Waist__27_EndRToeA2","rotation":[0,-1.4901161193847656e-8,0,1],"scale":[1,0.9999999403953552,1],"translation":[-12.641719818115234,-6.395488739013672,-1.2160500288009644]},{"children":[52],"name":"_03_Waist__28_RToeB1","rotation":[0,0.2523210942745209,0,0.9676436185836792],"translation":[-15.552592277526855,-0.09785079956054688,0.16945648193359375]},{"children":[53],"name":"_03_Waist__29_RToeB2","rotation":[0,-4.991888999938965e-7,0,1],"translation":[-7.548856735229492,1.4628410339355469,-0.761957049369812]},{"name":"_03_Waist__30_EndRToeB2","translation":[-13.891658782958984,2.6920642852783203,-1.402173638343811]},{"children":[55],"name":"_03_Waist__31_RToeC1","rotation":[0,0.2669796049594879,0,0.9637022018432617],"translation":[-11.189260482788086,6.598333358764648,-2.4593992233276367]},{"children":[56],"name":"_03_Waist__32_RToeC2","rotation":[0,5.21540641784668e-8,0,1],"translation":[-4.924710750579834,6.231422424316406,-0.6064016819000244]},{"name":"_03_Waist__33_EndRToeC2","translation":[-8.79123306274414,11.12369155883789,-1.082489252090454]},{"children":[58],"name":"_03_Waist__34_RToeD","rotation":[0,0.2433292716741562,0,0.9699437618255615],"translation":[5.2182207107543945,-1.114767074584961,-10.482390403747559]},{"name":"_03_Waist__35_EndRToeD","rotation":[0,-1.1175870895385742e-8,0,1],"translation":[13.272200584411621,-0.000049591064453125,-3.5762786865234375e-7]},{"children":[60],"name":"_03_Waist__36_Tail1","rotation":[0,-0.4246530532836914,0,0.9053562879562378],"translation":[24.32448387145996,-0.00018501283193472773,9.61248779296875]},{"children":[61],"name":"_03_Waist__37_Tail2","rotation":[0,-0.05641699954867363,0,0.9984073042869568],"scale":[0.9999999403953552,1,0.9999999403953552],"translation":[19.80451011657715,-0.00010395050048828125,-0.00000762939453125]},{"children":[62],"name":"_03_Waist__38_Tail3","rotation":[0,-0.039525918662548065,0,0.9992185831069946],"translation":[19.674898147583008,-0.00009775161743164062,0.00000858306884765625]},{"name":"_03_Waist__39_EndTail3","translation":[28.940290451049805,-0.00011396408081054688,-0.000008106231689453125]},{"children":[64],"name":"_03_Waist__40_Spine1","rotation":[-0.5,-0.4999999701976776,0.4999999701976776,0.5],"translation":[-62.569969177246094,76.7113037109375,-0.0002820310473907739]},{"children":[65,78,83],"name":"_03_Waist__41_Spine2","rotation":[0,-0.07487624883651733,0,0.9971928596496582],"translation":[11.337496757507324,0.00004673004150390625,0.000002832802238117438]},{"children":[66],"name":"_03_Waist__42_LShoulder","rotation":[0,0.13721886277198792,0,0.9905408620834351],"translation":[15.946328163146973,-3.407888174057007,-3.5681076049804688]},{"children":[67],"name":"_03_Waist__43_LArm","rotation":[0,-2.980232238769531e-7,0,1],"translation":[1.5347442626953125,-11.869990348815918,0.00006008148193359375]},{"children":[68],"name":"_03_Waist__44_LForeArm","rotation":[0,-5.960465188081798e-8,0,1],"scale":[0.9999999403953552,1,0.9999999403953552],"translation":[0.00010824203491210938,-23.518306732177734,0.00011157989501953125]},{"children":[69,72,75],"name":"_03_Waist__45_LHand","rotation":[0,-3.725290298461914e-9,0,1],"translation":[0.00009775161743164062,-16.27130126953125,0.00008296966552734375]},{"children":[70],"name":"_03_Waist__46_LFingerA1","rotation":[0,0.7424991130828857,0,0.6698470115661621],"scale":[0.9999999403953552,1,0.9999999403953552],"translation":[0.0000820159912109375,-15.317684173583984,0.00007534027099609375]},{"children":[71],"name":"_03_Waist__47_LFingerA2","rotation":[-2.775870922011592e-10,0.007451414130628109,3.72519046720754e-8,0.9999722242355347],"scale":[0.9999999403953552,1,0.9999999403953552],"translation":[0.08453559875488281,-7.992279052734375,-0.819972038269043]},{"name":"_03_Waist__48_EndLFingerA2","rotation":[6.38378239159465e-16,6.938893903907228e-18,-1.4901161193847656e-8,1],"translation":[0.23134858906269073,-16.669984817504883,-1.957306981086731]},{"children":[73],"name":"_03_Waist__49_LFingerB1","rotation":[0,0.7839660048484802,0,0.6208038926124573],"scale":[0.9999999403953552,0.9999999403953552,0.9999999403953552],"translation":[0.0001201629638671875,-12.591442108154297,8.43021297454834]},{"children":[74],"name":"_03_Waist__50_LFingerB2","rotation":[0,-0.010479370132088661,0,0.9999451041221619],"translation":[-4.404026031494141,-6.789558410644531,-1.8907089233398438]},{"name":"_03_Waist__51_EndLFingerB2","translation":[-7.4150543212890625,-12.012496948242188,-2.9926910400390625]},{"children":[76],"name":"_03_Waist__52_LFingerC1","rotation":[0,0.727821409702301,0,0.6857667565345764],"translation":[0.00003337860107421875,-12.258312225341797,-8.241422653198242]},{"children":[77],"name":"_03_Waist__53_LFingerC2","rotation":[0,-0.002938551362603903,0,0.9999957084655762],"scale":[0.9999999403953552,1,0.9999999403953552],"translation":[4.814876556396484,-7.582069396972656,-0.5317420959472656]},{"name":"_03_Waist__54_EndLFingerC2","rotation":[0,-7.450580596923828e-9,0,1],"translation":[8.130607604980469,-11.943984985351562,-0.7712345123291016]},{"children":[79],"name":"_03_Waist__55_Neck","rotation":[0,0.0009355474612675607,0,0.9999995827674866],"translation":[22.697185516357422,0.00010293719242326915,0]},{"children":[80,81],"name":"_03_Waist__56_Head","rotation":[0,-0.040939394384622574,0,0.9991616606712341],"scale":[1.0000001192092896,1,1.0000001192092896],"translation":[6.893869400024414,0.00003173944423906505,-0.00000762939453125]},{"name":"_03_Waist__57_EndHead","rotation":[0,7.450580596923828e-9,0,1],"translation":[34.92178726196289,0.0001674890227150172,-0.00000762939453125]},{"children":[82],"name":"_03_Waist__58_Jaw","rotation":[0,-0.6914687752723694,0,0.7224063873291016],"translation":[8.755241394042969,0.00006335970829240978,8.867454528808594]},{"name":"_03_Waist__59_EndJaw","rotation":[0,2.9802322387695312e-8,0,1],"translation":[41.177093505859375,0.00011128181358799338,-0.0000209808349609375]},{"children":[84],"name":"_03_Waist__60_RShoulder","rotation":[0,0.13722239434719086,0,0.9905402660369873],"scale":[1.0000001192092896,1,1.0000001192092896],"translation":[15.946393966674805,3.408015251159668,-3.568134307861328]},{"children":[85],"name":"_03_Waist__61_RArm","rotation":[0,7.450580596923828e-9,0,1],"translation":[1.5345683097839355,11.869913101196289,-0.00004291534423828125]},{"children":[86],"name":"_03_Waist__62_RForeArm","translation":[-0.00000858306884765625,23.518400192260742,-0.00006580352783203125]},{"children":[87,90,93],"name":"_03_Waist__63_RHand","translation":[-0.00001049041748046875,16.27130126953125,-0.00004482269287109375]},{"children":[88],"name":"_03_Waist__64_RFingerA1","rotation":[0,0.7424991130828857,0,0.6698470711708069],"translation":[0.000056743621826171875,15.317710876464844,-0.00004291534423828125]},{"children":[89],"name":"_03_Waist__65_RFingerA2","rotation":[0,0.007451011799275875,0,0.9999723434448242],"translation":[0.084625244140625,7.9922943115234375,-0.8201351165771484]},{"name":"_03_Waist__66_EndRFingerA2","rotation":[-2.220446049250313e-16,-7.450580596923828e-9,-2.9802322387695312e-8,1],"translation":[0.23149681091308594,16.670013427734375,-1.9573793411254883]},{"children":[91],"name":"_03_Waist__67_RFingerB1","rotation":[0,0.7839671969413757,0,0.6208022236824036],"translation":[-0.00003147125244140625,12.591514587402344,8.430148124694824]},{"children":[92],"name":"_03_Waist__68_RFingerB2","rotation":[0,-0.010479623451828957,0,0.9999451041221619],"translation":[-4.4039459228515625,6.78961181640625,-1.8908138275146484]},{"name":"_03_Waist__69_EndRFingerB2","translation":[-7.414867401123047,12.012466430664062,-2.992809295654297]},{"children":[94],"name":"_03_Waist__70_RFingerC1","rotation":[0,0.7278201580047607,0,0.6857681274414062],"scale":[0.9999999403953552,1,0.9999999403953552],"translation":[0.00007581710815429688,12.258270263671875,-8.241515159606934]},{"children":[95],"name":"_03_Waist__71_RFingerC2","rotation":[0,-0.002938715275377035,0,0.9999957084655762],"translation":[4.814943313598633,7.581993103027344,-0.5318527221679688]},{"name":"_03_Waist__72_EndRFingerC2","rotation":[0,-7.450580596923828e-9,0,1],"translation":[8.130657196044922,11.943824768066406,-0.7712898254394531]}],"samplers":[{}],"scene":0,"scenes":[{"name":"Scene","nodes":[22,21,20,19,18,17,16,15,14,13,12,11,10,9,8,7,6,5,4,3,0,26,24]}],"skins":[{"inverseBindMatrices":0,"joints":[27,28,29,30,31,32,33,34,35,36,37,38,39,40,41,42,43,44,45,46,47,48,49,50,51,52,53,54,55,56,57,58,59,60,61,62,63,64,65,66,67,68,69,70,71,72,73,74,75,76,77,78,79,80,81,82,83,84,85,86,87,88,89,90,91,92,93,94,95],"skeleton":2}],"textures":[{"sampler":0,"source":0},{"sampler":0,"source":1}],"extensionsUsed":["ALI_amc_mesh_compression"],"extensionsRequired":["ALI_amc_mesh_compression"]}