{"accessors":[{"bufferView":0,"componentType":5126,"count":27,"max":[1,-6.1767240898953465e-24,1,0,1.0000001192092896,0,1,0,6.1767240898953465e-24,-1,6.1767240898953465e-24,0,21.405372619628906,90.76539611816406,45.40237808227539,1],"min":[-1.0000001192092896,-6.176724878756252e-24,-1.0000001192092896,0,-1,0,-1.0000001192092896,0,-6.176724878756252e-24,-1.0000001192092896,-6.176724878756252e-24,0,-62.247100830078125,-31.817832946777344,-13.223173141479492,1],"type":"MAT4","byteOffset":0},{"bufferView":1,"componentType":5126,"count":27,"max":[1,-6.1767240898953465e-24,1,0,1.0000001192092896,0,1,0,6.1767240898953465e-24,-1,6.1767240898953465e-24,0,21.405372619628906,90.76539611816406,45.40237808227539,1],"min":[-1.0000001192092896,-6.176724878756252e-24,-1.0000001192092896,0,-1,0,-1.0000001192092896,0,-6.176724878756252e-24,-1.0000001192092896,-6.176724878756252e-24,0,-62.247100830078125,-31.817832946777344,-13.223173141479492,1],"type":"MAT4","byteOffset":0}],"asset":{"generator":"Khronos Blender glTF 2.0 exporter","version":"2.0"},"bufferViews":[{"buffer":0,"byteLength":1728,"byteOffset":0},{"buffer":0,"byteLength":1728,"byteOffset":1728},{"buffer":0,"byteOffset":3456,"byteLength":91331},{"buffer":0,"byteOffset":94787,"byteLength":10203}],"buffers":[{"byteLength":104990,"uri":"buffer.bin"}],"images":[{"name":"Body1_0","uri":"Body1_0.png"},{"name":"Eye1_0","uri":"Eye1_0.png"}],"materials":[{"name":"BodyNyorobon","pbrMetallicRoughness":{"baseColorFactor":[0.6400000190734865,0.6400000190734865,0.6400000190734865,1],"baseColorTexture":{"index":0},"metallicFactor":0}},{"name":"Eye","pbrMetallicRoughness":{"baseColorFactor":[0.6400000190734865,0.6400000190734865,0.6400000190734865,1],"baseColorTexture":{"index":1},"metallicFactor":0}}],"meshes":[{"name":"Mesh_1__BodyNyorobon_","primitives":[{"material":0,"extensions":{"ALI_amc_mesh_compression":{"bufferView":2}}}]},{"name":"Mesh_2__Eye_","primitives":[{"material":1,"extensions":{"ALI_amc_mesh_compression":{"bufferView":3}}}]}],"nodes":[{"children":[3,4,5],"name":"Armature","rotation":[1,-1.1102250098586267e-16,-5.551124387548643e-17,-1.9470718370939721e-7]},{"name":"Camera","rotation":[0.483536034822464,0.33687159419059753,-0.20870360732078552,0.7804827094078064],"translation":[7.481131553649902,5.34366512298584,6.5076398849487305]},{"name":"Lamp","rotation":[0.16907575726509094,0.7558802962303162,-0.27217137813568115,0.570947527885437],"scale":[1,1,0.9999999403953552],"translation":[4.076245307922363,5.903861999511719,-1.0054539442062378]},{"mesh":0,"name":"Mesh_1__BodyNyorobon_","skin":0},{"mesh":1,"name":"Mesh_2__Eye_","skin":1},{"children":[6,30,31],"name":"Armature_pm0060_00","rotation":[-0.7071068286895752,7.850476717442717e-17,-7.850476717442717e-17,0.7071068286895752]},{"children":[7],"name":"Armature_Origin","rotation":[0,-1.1735057370287905e-13,0,1],"translation":[1.434931139838655e-13,2.535039129725192e-7,5.4255817616422064e-8]},{"children":[8,13,18,25],"name":"Armature_Waist","rotation":[0,0.6817615628242493,0,0.7315744757652283],"scale":[0.9999999403953552,1,0.9999999403953552],"translation":[0.000014205156730895396,4.338309288024902,-20.27025032043457]},{"children":[9],"name":"Armature_LThigh","rotation":[0,-0.9993793964385986,0,0.035225819796323776],"scale":[0.9999999403953552,1,0.9999999403953552],"translation":[-6.246281147003174,-5.00425910949707,13.697052955627441]},{"children":[10,11],"name":"Armature_LFoot","rotation":[0,-0.7071059942245483,0,0.7071076035499573],"translation":[7.263766288757324,-0.000002562999725341797,9.881296136882156e-7]},{"name":"Armature_EndLFoot","rotation":[0,4.961293598171324e-10,0,1],"translation":[-1.7749390602111816,5.379525184631348,-0.000001283980964217335]},{"children":[12],"name":"Armature_LToe","rotation":[0,-2.3792244974174537e-7,0,1],"translation":[-3.75101900100708,11.368754386901855,-3.410773515701294]},{"name":"Armature_EndLToe","rotation":[0,2.2737367544323206e-13,0,1],"translation":[-4.430951118469238,13.429609298706055,-0.000002838729415088892]},{"children":[14],"name":"Armature_RThigh","rotation":[0,-0.9993793964385986,0,0.0352257676422596],"scale":[0.9999999403953552,1,0.9999999403953552],"translation":[-8.108329772949219,-5.004286766052246,-12.683894157409668]},{"children":[15,16],"name":"Armature_RFoot","rotation":[0,-0.7071072459220886,0,0.7071062922477722],"scale":[1,0.9999999403953552,1],"translation":[7.263710975646973,0.000011026859283447266,2.1486994228325784e-7]},{"name":"Armature_EndRFoot","rotation":[0,-1.1871338756463956e-7,0,1],"translation":[1.7749266624450684,5.379528999328613,-0.0000022886379156261683]},{"children":[17],"name":"Armature_RToe","rotation":[0,-1.1871338756463956e-7,0,1],"translation":[3.7510359287261963,11.368823051452637,-3.4107728004455566]},{"name":"Armature_EndRToe","rotation":[0,2.2737367544323206e-13,0,1],"translation":[4.430947303771973,13.429512977600098,-0.000004089022695552558]},{"children":[19],"name":"Armature_Spine","rotation":[0,-1.7881393432617188e-7,0,1],"translation":[-0.000006645720077358419,-9.5367431640625e-7,-9.973518899641931e-9]},{"children":[20,21,23],"name":"Armature_Head","rotation":[0,0.03522472456097603,0,0.9993794560432434],"scale":[0.9999999403953552,1,0.9999999403953552],"translation":[19.14043426513672,1.3543281555175781,-1.3509502410888672]},{"name":"Armature_EndHead","rotation":[0,-6.382583705999423e-8,0,1],"translation":[22.788803100585938,-0.000010967254638671875,-0.000002076601958833635]},{"children":[22],"name":"Armature_LowerJaw","rotation":[0,-0.573576033115387,0,0.8191524744033813],"scale":[0.9999999403953552,1,0.9999999403953552],"translation":[2.33074951171875,22.825403213500977,0.0002721298369579017]},{"name":"Armature_EndLowerJaw","rotation":[0,-1.6391277313232422e-7,0,1],"translation":[0.4107854962348938,3.2997894287109375,-1.128605604171753]},{"children":[24],"name":"Armature_UpperJaw","rotation":[0,-0.573576033115387,0,0.8191524744033813],"scale":[0.9999999403953552,1,0.9999999403953552],"translation":[7.566036224365234,20.736543655395508,0.00028183095855638385]},{"name":"Armature_EndUpperJaw","rotation":[0,-2.086162567138672e-7,0,1],"translation":[0.44189462065696716,3.5497589111328125,-1.2140939235687256]},{"children":[26],"name":"Armature_Tail1","rotation":[0,0.7315748333930969,0,0.6817611455917358],"scale":[1,0.9999999403953552,1],"translation":[-7.110264301300049,-20.05301284790039,0.501833438873291]},{"children":[27],"name":"Armature_Tail2","rotation":[0,-0.0000020834295355598442,0,1],"translation":[0.000004883244400843978,-15.789694786071777,0.00003337857924634591]},{"children":[28],"name":"Armature_Tail3","rotation":[0,-2.2737367544323206e-13,0,1],"translation":[0.000005269596840662416,-17.037805557250977,0.00003433231540839188]},{"children":[29],"name":"Armature_Tail4","rotation":[0,-2.2737367544323206e-13,0,1],"translation":[0.000005277305717754643,-17.062702178955078,0.0000371933238056954]},{"name":"Armature_EndTail4","rotation":[0,-2.2737367544323206e-13,0,1],"translation":[0.000007782359716657083,-25.16051483154297,0.00005054473876953125]},{"name":"Armature_pm0060_00_BodySkin","translation":[-3.76158192263132e-37,2.6511588657740504e-7,2.001572735679802e-14]},{"name":"Armature_pm0060_00_IrisSkin","translation":[-3.76158192263132e-37,2.6511588657740504e-7,2.001572735679802e-14]}],"samplers":[{}],"scene":0,"scenes":[{"name":"Scene","nodes":[0,2,1]}],"skins":[{"inverseBindMatrices":0,"joints":[5,6,7,8,9,10,11,12,13,14,15,16,17,18,19,20,21,22,23,24,25,26,27,28,29,30,31],"skeleton":0},{"inverseBindMatrices":1,"joints":[5,6,7,8,9,10,11,12,13,14,15,16,17,18,19,20,21,22,23,24,25,26,27,28,29,30,31],"skeleton":0}],"textures":[{"sampler":0,"source":0},{"sampler":0,"source":1}],"extensionsUsed":["ALI_amc_mesh_compression"],"extensionsRequired":["ALI_amc_mesh_compression"]}