{"accessors":[{"bufferView":0,"componentType":5126,"count":65,"max":[0.0000442810014646966,-1.0000001192092896,0.000023652988602407277,0,0.9999987483024597,-0.000044280997826717794,0.9985997676849365,0,0.5350344181060791,-4.600763503503913e-8,0.9999987483024597,0,38.84149169921875,18.32742691040039,48.86901092529297,1],"min":[-0.00004428101601661183,-1.0000005960464478,-0.00004422142592375167,0,-1.0000001192092896,-0.000044281019654590636,-0.5350344181060791,0,-0.9985997080802917,-4.60076563513212e-8,-1.0000001192092896,0,-67.35592651367188,-18.328372955322266,-69.89215087890625,1],"type":"MAT4","byteOffset":0}],"asset":{"generator":"Khronos Blender glTF 2.0 exporter","version":"2.0"},"bufferViews":[{"buffer":0,"byteLength":4160,"byteOffset":0},{"buffer":0,"byteOffset":4160,"byteLength":2467},{"buffer":0,"byteOffset":6627,"byteLength":2467},{"buffer":0,"byteOffset":9094,"byteLength":39159},{"buffer":0,"byteOffset":48253,"byteLength":143049}],"buffers":[{"byteLength":191302,"uri":"buffer.bin"}],"images":[{"name":"pm0058_00_BodyA1","uri":"pm0058_00_BodyA1.png"},{"name":"pm0058_00_BodyB1","uri":"pm0058_00_BodyB1.png"},{"name":"pm0058_00_Eye1","uri":"pm0058_00_Eye1.png"},{"name":"pm0058_00_Iris1","uri":"pm0058_00_Iris1.png"}],"materials":[{"alphaMode":"OPAQUE","name":"BodyA","pbrMetallicRoughness":{"baseColorFactor":[0.6400000190734865,0.6400000190734865,0.6400000190734865,1],"baseColorTexture":{"index":0},"metallicFactor":0}},{"alphaMode":"OPAQUE","name":"BodyBBuffronVco","pbrMetallicRoughness":{"baseColorFactor":[0.6400000190734865,0.6400000190734865,0.6400000190734865,1],"baseColorTexture":{"index":1},"metallicFactor":0}},{"alphaMode":"OPAQUE","name":"Eye","pbrMetallicRoughness":{"baseColorFactor":[0.6400000190734865,0.6400000190734865,0.6400000190734865,1],"baseColorTexture":{"index":2},"metallicFactor":0}},{"alphaMode":"MASK","name":"LIris","pbrMetallicRoughness":{"baseColorFactor":[0.6400000190734865,0.6400000190734865,0.6400000190734865,1],"baseColorTexture":{"index":3},"metallicFactor":0}}],"meshes":[{"name":"Growlithe","primitives":[{"material":2,"extensions":{"ALI_amc_mesh_compression":{"bufferView":1}}},{"material":3,"extensions":{"ALI_amc_mesh_compression":{"bufferView":2}}},{"material":1,"extensions":{"ALI_amc_mesh_compression":{"bufferView":3}}},{"material":0,"extensions":{"ALI_amc_mesh_compression":{"bufferView":4}}}]}],"nodes":[{"children":[1,26,27],"name":"_01_pm0058_00","rotation":[0.7071068286895752,0,0,0.7071067094802856],"scale":[0.02539999783039093,0.02539999969303608,0.02539999969303608]},{"children":[2],"name":"_02_Origin"},{"children":[29,31,53],"name":"_03_Waist","rotation":[0.5012117028236389,0.49876320362091064,0.5012338757514954,0.4987852871417999],"scale":[0.9999999403953552,0.9999999403953552,1],"translation":[0,-18.452600479125977,-37.06349563598633]},{"name":"_05_EndHips","translation":[37.502288818359375,0,-2.3841900542720396e-7]},{"name":"_09_EndLFoot","translation":[14.30210018157959,9.536739753457368e-7,9.536739753457368e-7]},{"name":"_11_EndLToe1","translation":[13.285799980163574,-4.768369876728684e-7,9.536739753457368e-7]},{"name":"_13_EndLToe2","translation":[5.58587121963501,2.3841900542720396e-7,0.0000028610199933609692]},{"name":"_17_EndRFoot","translation":[14.30210018157959,-9.536739753457368e-7,0]},{"name":"_19_EndRToe1","translation":[13.285799980163574,-4.768369876728684e-7,-9.536739753457368e-7]},{"name":"_21_EndRToe2","translation":[5.585900783538818,-2.3841900542720396e-7,0.0000019073499970545527]},{"name":"_25_EndTail3","translation":[22.4077091217041,0,-7.450580152834618e-9]},{"name":"_28_FeelerA1","rotation":[0.978330671787262,0.20704852044582367,3.081698878304451e-7,0.0000016954084003373282],"translation":[10.384300231933594,0,2.3283100447635263e-10]},{"name":"_32_EndFeelerA4","translation":[13.350099563598633,-0.0000019073499970545527,-3.4924599323638006e-10]},{"name":"_37_EndLHand","translation":[9.737770080566406,0,-0.0000019073499970545527]},{"name":"_39_EndLFinger","translation":[7.999042987823486,2.3841900542720396e-7,0]},{"name":"_41_EndLFingerA","translation":[4.427968978881836,0,0]},{"name":"_43_EndLFingerB","translation":[4.427970886230469,0,0]},{"name":"_48_EndFeelerB2","translation":[18.485599517822266,0.000007629389983776491,-5.96045985901128e-8]},{"name":"_50_EndJaw","translation":[14.918700218200684,0,-1.1641500263781523e-10]},{"name":"_53_EndTongue2","translation":[8.114705085754395,0,0]},{"name":"_55_EndLEar","translation":[9.761709213256836,0.000004291529876354616,-0.000003814699994109105]},{"name":"_57_EndREar","translation":[9.761720657348633,0.000004768370217789197,0]},{"name":"_62_EndRHand","translation":[9.737780570983887,0,-0.0000019073499970545527]},{"name":"_64_EndRFinger","translation":[7.999081134796143,3.576280107608909e-7,0]},{"name":"_66_EndRFingerA","rotation":[0.026226872578263283,-7.213649030326716e-14,2.896862979530346e-13,0.9996560215950012],"translation":[4.427920818328857,2.980229965032777e-7,9.536739753457368e-7]},{"name":"_68_EndRFingerB","rotation":[0.026226872578263283,-7.213649030326716e-14,2.896862979530346e-13,0.9996560215950012],"translation":[4.427968978881836,0,0]},{"name":"_69_pm0058_00_IrisSkin"},{"name":"_70_pm0058_00_Skin"},{"name":"Camera","rotation":[0.483536034822464,0.33687159419059753,-0.20870360732078552,0.7804827094078064],"translation":[7.481131553649902,5.34366512298584,6.5076398849487305]},{"mesh":0,"name":"Growlithe","rotation":[-0.001715638441964984,-0.7071046829223633,-0.0017469523008912802,0.7071046233177185],"scale":[1,1,0.9999999403953552],"skin":0,"translation":[18.633880615234375,36.97269821166992,0.0016403596382588148]},{"name":"Lamp","rotation":[0.16907575726509094,0.7558802962303162,-0.27217137813568115,0.570947527885437],"scale":[1,1,0.9999999403953552],"translation":[4.076245307922363,5.903861999511719,-1.0054539442062378]},{"children":[32,33,41,49],"name":"_03_Waist__04_Hips","rotation":[-0.49934232234954834,0.5006568431854248,-0.5006568431854248,0.49934232234954834],"scale":[1,0.9999999403953552,1],"translation":[55.60657501220703,18.33881378173828,0.0005778665072284639]},{"name":"_03_Waist__05_EndHips","rotation":[0,-1.1641532182693481e-10,0,1],"translation":[37.502197265625,0.0011606216430664062,-0.0850466638803482]},{"children":[34],"name":"_03_Waist__06_LThigh","rotation":[0,-0.6761152744293213,0,0.7367958426475525],"scale":[0.9999998211860657,0.9999998807907104,0.9999998211860657],"translation":[10.092170715332031,-11.253805160522461,-4.837818622589111]},{"children":[35],"name":"_03_Waist__07_LLeg","rotation":[0,0.2834118902683258,0,0.9589983224868774],"scale":[0.9999999403953552,1,0.9999999403953552],"translation":[-9.89962100982666,0.000049591064453125,-1.7701435089111328]},{"children":[36,37],"name":"_03_Waist__08_LFoot","rotation":[0,-0.9078035354614258,0,0.41939577460289],"scale":[1,0.9999999403953552,1],"translation":[-2.6955642700195312,0.000194549560546875,-10.806475639343262]},{"name":"_03_Waist__09_EndLFoot","rotation":[0,-2.9802322387695312e-8,0,1],"translation":[14.286334991455078,-0.0004425048828125,-0.6714304089546204]},{"children":[38,39],"name":"_03_Waist__10_LToe1","rotation":[0,-8.940696716308594e-8,0,1],"translation":[-1.8554396629333496,-0.01769733428955078,7.946597576141357]},{"name":"_03_Waist__11_EndLToe1","scale":[1,0.9999999403953552,1],"translation":[13.271153450012207,-0.00040912628173828125,-0.623721718788147]},{"children":[40],"name":"_03_Waist__12_LToe2","rotation":[0,5.960464477539063e-8,0,1],"scale":[1,0.9999999403953552,1],"translation":[7.531803131103516,-0.008004188537597656,3.0751688480377197]},{"name":"_03_Waist__13_EndLToe2","rotation":[0,-1.862645149230957e-9,0,1],"translation":[5.579712390899658,-0.00017070770263671875,-0.26223722100257874]},{"children":[42],"name":"_03_Waist__14_RThigh","rotation":[0,-0.6761153340339661,0,0.7367958426475525],"scale":[0.9999998807907104,1,0.9999998807907104],"translation":[10.092918395996094,11.500699043273926,-4.215604782104492]},{"children":[43],"name":"_03_Waist__15_RLeg","rotation":[0,0.2834118902683258,0,0.9589983224868774],"scale":[0.9999999403953552,1,0.9999999403953552],"translation":[-9.899592399597168,0.0000324249267578125,-1.7701988220214844]},{"children":[44,45],"name":"_03_Waist__16_RFoot","rotation":[0,-0.8998529314994812,0,0.4361936151981354],"translation":[-2.695546865463257,0.000209808349609375,-10.80648422241211]},{"name":"_03_Waist__17_EndRFoot","rotation":[0,3.026798367500305e-9,0,1],"translation":[14.301412582397461,-0.00044345855712890625,-0.140071302652359]},{"children":[46,47],"name":"_03_Waist__18_RToe1","rotation":[0,3.026798367500305e-9,0,1],"translation":[-2.149444580078125,0.0000667572021484375,7.872190952301025]},{"name":"_03_Waist__19_EndRToe1","translation":[13.285161972045898,-0.00041294097900390625,-0.13011911511421204]},{"children":[48],"name":"_03_Waist__20_RToe2","translation":[7.412296295166016,-0.00025177001953125,3.3529529571533203]},{"name":"_03_Waist__21_EndRToe2","translation":[5.585633754730225,-0.000171661376953125,-0.05470721796154976]},{"children":[50],"name":"_03_Waist__22_Tail1","rotation":[0,-0.5606674551963806,0,0.8280410766601562],"translation":[18.599748611450195,-0.028481008484959602,1.0190491676330566]},{"children":[51],"name":"_03_Waist__23_Tail2","rotation":[0,0.18109571933746338,0,0.9834654927253723],"scale":[0.9999999403953552,1,0.9999999403953552],"translation":[15.213811874389648,0.00014376454055309296,-0.00000667572021484375]},{"children":[52],"name":"_03_Waist__24_Tail3","rotation":[0,0.4755313992500305,0,0.8796987533569336],"translation":[10.598197937011719,0.00018358230590820312,-0.000003814697265625]},{"name":"_03_Waist__25_EndTail3","rotation":[0,-7.450580596923828e-9,0,1],"translation":[22.407711029052734,0.0005800705403089523,-0.0000057220458984375]},{"children":[54],"name":"_03_Waist__26_Spine1","rotation":[-0.4999992549419403,-0.5000008344650269,0.5000008344650269,0.4999992549419403],"scale":[1,0.9999999403953552,1],"translation":[55.6065673828125,18.338817596435547,0.0005777975893579423]},{"children":[55,60,71,85],"name":"_03_Waist__27_Spine2","rotation":[0,0.20214208960533142,0,0.9793562293052673],"translation":[8.472268104553223,-0.00026154518127441406,-3.480017767287791e-7]},{"children":[56],"name":"_03_Waist__28_FeelerA1","rotation":[0,-0.19722750782966614,0,0.9803577661514282],"scale":[1.0000001192092896,1,1.0000001192092896],"translation":[10.384305953979492,-0.00029861927032470703,0.0000057220458984375]},{"children":[57],"name":"_03_Waist__29_FeelerA2","rotation":[0,0.5940264463424683,0,0.8044455647468567],"translation":[12.410099029541016,-0.00038456928450614214,0.24892005324363708]},{"children":[58],"name":"_03_Waist__30_FeelerA3","rotation":[0,0.12002357840538025,0,0.9927710294723511],"scale":[1,0.9999999403953552,1],"translation":[-6.835760116577148,-0.00004363048356026411,4.452425956726074]},{"children":[59],"name":"_03_Waist__31_FeelerA4","rotation":[0,0.14522701501846313,0,0.9893983602523804],"translation":[-9.161622047424316,0.000019371509552001953,0.8828074932098389]},{"name":"_03_Waist__32_EndFeelerA4","rotation":[0,1.4901161193847656e-8,0,1],"translation":[-11.798608779907227,0.0001536606578156352,-6.246450901031494]},{"children":[61],"name":"_03_Waist__33_LShoulder","rotation":[0,0.5049508810043335,0,0.8631482124328613],"translation":[10.637222290039062,-6.34239387512207,3.651026725769043]},{"children":[62],"name":"_03_Waist__34_LArm","rotation":[0,0.12940993905067444,0,0.9915912747383118],"scale":[0.9999999403953552,1,0.9999999403953552],"translation":[-6.480716705322266,-4.889228343963623,1.630272388458252]},{"children":[63],"name":"_03_Waist__35_LForeArm","rotation":[0,-0.13450565934181213,0,0.9909128546714783],"translation":[-14.222705841064453,0.00005626678466796875,-4.539860725402832]},{"children":[64,65],"name":"_03_Waist__36_LHand","rotation":[0,-0.6670006513595581,0,0.7450571060180664],"scale":[0.9999999403953552,1,0.9999999403953552],"translation":[-12.867374420166016,-0.00005340576171875,3.0220882892608643]},{"name":"_03_Waist__37_EndLHand","rotation":[0,-1.955777406692505e-8,0,1],"translation":[9.7373046875,-0.00030994415283203125,-0.0953734964132309]},{"children":[66,67,69],"name":"_03_Waist__38_LFinger","rotation":[0,-1.955777406692505e-8,0,1],"translation":[4.070834159851074,-0.00012493133544921875,1.7604317665100098]},{"name":"_03_Waist__39_EndLFinger","translation":[7.998658180236816,-0.000247955322265625,-0.0783415138721466]},{"children":[68],"name":"_03_Waist__40_LFingerA","translation":[2.6970930099487305,-2.593355178833008,0.44810378551483154]},{"name":"_03_Waist__41_EndLFingerA","translation":[4.4277567863464355,-0.00013828277587890625,-0.043365493416786194]},{"children":[70],"name":"_03_Waist__42_LFingerB","translation":[2.82330322265625,3.241823673248291,0.5364770889282227]},{"name":"_03_Waist__43_EndLFingerB","translation":[4.427761554718018,-0.00013780593872070312,-0.04336726665496826]},{"children":[72],"name":"_03_Waist__44_Neck","rotation":[0,0.23901419341564178,0,0.9710161089897156],"translation":[10.384302139282227,-0.00029861927032470703,9.5367431640625e-7]},{"children":[73,76,81,83],"name":"_03_Waist__45_Head","rotation":[0,0.07716511189937592,0,0.9970183968544006],"translation":[5.590911865234375,-0.00011396408081054688,0.000003814697265625]},{"children":[74],"name":"_03_Waist__46_FeelerB1","rotation":[0,0.7924415469169617,0,0.609947919845581],"translation":[24.720298767089844,-0.0004109145374968648,-4.76837158203125e-7]},{"children":[75],"name":"_03_Waist__47_FeelerB2","rotation":[0,0.13588614761829376,0,0.9907245635986328],"scale":[1,0.9999999403953552,1],"translation":[11.76540756225586,0.00033742201048880816,0.00000667572021484375]},{"name":"_03_Waist__48_EndFeelerB2","rotation":[0,-2.7939677238464355e-9,0,1],"translation":[18.48560333251953,0.0005725622759200633,-0.00001605600118637085]},{"children":[77,78],"name":"_03_Waist__49_Jaw","rotation":[0,-0.7187212109565735,0,0.695298433303833],"translation":[8.710042953491211,-0.00024724018294364214,3.921687602996826]},{"name":"_03_Waist__50_EndJaw","rotation":[0,-1.4901161193847656e-8,0,1],"translation":[14.918701171875,-0.0003822445869445801,-0.000003814697265625]},{"children":[79],"name":"_03_Waist__51_Tongue1","rotation":[0,0.320252388715744,0,0.9473322629928589],"translation":[2.9635045528411865,-0.000005841255187988281,4.083942413330078]},{"children":[80],"name":"_03_Waist__52_Tongue2","rotation":[0,-0.12654376029968262,0,0.9919611215591431],"scale":[0.9999999403953552,1,0.9999999403953552],"translation":[5.765331745147705,-0.0001775027485564351,0.0000019073486328125]},{"name":"_03_Waist__53_EndTongue2","rotation":[0,-7.450580596923828e-9,0,1],"translation":[8.114713668823242,-0.0002454520436003804,-0.00000858306884765625]},{"children":[82],"name":"_03_Waist__54_LEar","rotation":[0,0.5017585754394531,0,0.8650076985359192],"translation":[11.162517547607422,-11.036112785339355,-2.805054187774658]},{"name":"_03_Waist__55_EndLEar","rotation":[0,1.4901161193847656e-8,0,1],"translation":[4.780281066894531,-7.2917022705078125,-4.389867782592773]},{"children":[84],"name":"_03_Waist__56_REar","rotation":[0,0.5017348527908325,0,0.8650214672088623],"translation":[11.162897109985352,11.035890579223633,-2.8044896125793457]},{"name":"_03_Waist__57_EndREar","translation":[4.77983283996582,7.2920942306518555,-4.389747619628906]},{"children":[86],"name":"_03_Waist__58_RShoulder","rotation":[0,0.5048701763153076,0,0.8631953597068787],"translation":[10.637588500976562,6.34169864654541,3.6512060165405273]},{"children":[87],"name":"_03_Waist__59_RArm","rotation":[0,0.1295025497674942,0,0.9915791153907776],"translation":[-6.480282306671143,4.889235019683838,1.6317663192749023]},{"children":[88],"name":"_03_Waist__60_RForeArm","rotation":[0,-0.13450507819652557,0,0.990912914276123],"translation":[-14.222715377807617,0.00012302398681640625,-4.539854049682617]},{"children":[89,90],"name":"_03_Waist__61_RHand","rotation":[0,-0.6639307737350464,0,0.7477940917015076],"translation":[-12.867376327514648,-0.00000762939453125,3.0220577716827393]},{"name":"_03_Waist__62_EndRHand","rotation":[0,-2.8521757400312708e-8,0,1],"scale":[0.9999999403953552,0.9999999403953552,0.9999999403953552],"translation":[9.737773895263672,-0.00029659271240234375,-0.015263944864273071]},{"children":[91,92,94],"name":"_03_Waist__63_RFinger","rotation":[0,0.0000015211992376862327,0,1],"scale":[0.9999999403953552,0.9999999403953552,0.9999999403953552],"translation":[4.056215763092041,0.07104682922363281,1.7924561500549316]},{"name":"_03_Waist__64_EndRFinger","scale":[0.9999999403953552,0.9999999403953552,0.9999999403953552],"translation":[7.9990692138671875,-0.00024890899658203125,-0.012512832880020142]},{"children":[93],"name":"_03_Waist__65_RFingerA","rotation":[0,-0.0000015497209915338317,0,1],"scale":[0.9999999403953552,0.9999999403953552,0.9999999403953552],"translation":[2.6933236122131348,2.60983943939209,0.3673781454563141]},{"name":"_03_Waist__66_EndRFingerA","rotation":[0,0.0031842540483921766,0,0.9999949336051941],"scale":[0.9999999403953552,0.9999999403953552,0.9999999403953552],"translation":[4.427915096282959,-0.00013637542724609375,-0.006939426064491272]},{"children":[95],"name":"_03_Waist__67_RFingerB","rotation":[0,0.0000014899997040629387,0,1],"scale":[1,0.9999999403953552,1],"translation":[2.8187804222106934,-3.2172107696533203,0.6874390244483948]},{"name":"_03_Waist__68_EndRFingerB","rotation":[0,0.0031737033277750015,0,0.9999949932098389],"scale":[1,0.9999999403953552,1],"translation":[4.42796516418457,-0.00013828277587890625,-0.0069113075733184814]}],"samplers":[{}],"scene":0,"scenes":[{"name":"Scene","nodes":[25,24,23,22,21,20,19,18,17,16,15,14,13,12,11,10,9,8,7,6,5,4,3,0,30,28]}],"skins":[{"inverseBindMatrices":0,"joints":[31,32,33,34,35,36,37,38,39,40,41,42,43,44,45,46,47,48,49,50,51,52,53,54,55,56,57,58,59,60,61,62,63,64,65,66,67,68,69,70,71,72,73,74,75,76,77,78,79,80,81,82,83,84,85,86,87,88,89,90,91,92,93,94,95],"skeleton":2}],"textures":[{"sampler":0,"source":0},{"sampler":0,"source":1},{"sampler":0,"source":2},{"sampler":0,"source":3}],"extensionsUsed":["ALI_amc_mesh_compression"],"extensionsRequired":["ALI_amc_mesh_compression"]}