{"accessors":[{"bufferView":0,"componentType":5126,"count":20,"max":[1,0,9.883205354649272e-23,0,0,0,1,0,0,-1,0,0,14.112798690795898,0,8.345590591430664,1],"min":[1,0,0,0,-9.883205354649272e-23,0,1,0,0,-1,0,0,-14.112811088562012,-13.547240257263184,-4.160827159881592,1],"type":"MAT4","byteOffset":0}],"asset":{"generator":"Khronos Blender glTF 2.0 exporter","version":"2.0"},"bufferViews":[{"buffer":0,"byteLength":1280,"byteOffset":0},{"buffer":0,"byteOffset":1280,"byteLength":99839},{"buffer":0,"byteOffset":101119,"byteLength":2123}],"buffers":[{"byteLength":103242,"uri":"buffer.bin"}],"images":[{"name":"pm0140_00_BodyA1","uri":"pm0140_00_BodyA1.png"},{"name":"pm0140_00_BodyB1","uri":"pm0140_00_BodyB1.png"}],"materials":[{"name":"BodyASpc_mat","pbrMetallicRoughness":{"baseColorFactor":[0.6400000190734865,0.6400000190734865,0.6400000190734865,1],"baseColorTexture":{"index":0},"metallicFactor":0}},{"name":"Keikouo_Neon_mat","pbrMetallicRoughness":{"baseColorFactor":[0.6400000190734865,0.6400000190734865,0.6400000190734865,1],"baseColorTexture":{"index":1},"metallicFactor":0}}],"meshes":[{"name":"mesh_0_BodyASpc","primitives":[{"material":0,"extensions":{"ALI_amc_mesh_compression":{"bufferView":1}}},{"material":1,"extensions":{"ALI_amc_mesh_compression":{"bufferView":2}}}]}],"nodes":[{"children":[3,4],"name":"Armature","rotation":[0.7071068286895752,0,0,0.7071067094802856]},{"name":"Camera","rotation":[0.483536034822464,0.33687159419059753,-0.20870360732078552,0.7804827094078064],"translation":[7.481131553649902,5.34366512298584,6.5076398849487305]},{"name":"Lamp","rotation":[0.16907575726509094,0.7558802962303162,-0.27217137813568115,0.570947527885437],"scale":[1,1,0.9999999403953552],"translation":[4.076245307922363,5.903861999511719,-1.0054539442062378]},{"mesh":0,"name":"vsn_mesh_0_BodyASpc","skin":0},{"children":[5,23],"name":"Armature_pm0140_00","rotation":[-0.7071068286895752,0,0,0.7071068286895752]},{"children":[6],"name":"Armature_Origin"},{"children":[7,11,15,19],"name":"Armature_Waist","translation":[0,13.547240257263184,0.1461690068244934]},{"children":[8],"name":"Armature_LArm","translation":[14.112811088562012,-2.571770668029785,1.5850410461425781]},{"children":[9],"name":"Armature_LForeArm","translation":[-1.4798412322998047,-5.453121185302734,1.572218656539917]},{"children":[10],"name":"Armature_LHand","translation":[-2.692171096801758,-2.893235206604004,0.8235073089599609]},{"name":"Armature_LFinger","translation":[-5.100148677825928,-0.2152700424194336,0.033887386322021484]},{"children":[12],"name":"Armature_RArm","translation":[-14.112798690795898,-2.5717315673828125,1.5850257873535156]},{"children":[13],"name":"Armature_RForeArm","translation":[1.4797992706298828,-5.453152656555176,1.572232961654663]},{"children":[14],"name":"Armature_RHand","translation":[2.6921911239624023,-2.8932437896728516,0.8235077857971191]},{"name":"Armature_RFinger","translation":[5.100159168243408,-0.21526718139648438,0.03389167785644531]},{"children":[16],"name":"Armature_LThigh","translation":[13.236101150512695,-4.02321720123291,-8.491759300231934]},{"children":[17],"name":"Armature_LLeg","translation":[-1.4994010925292969,-4.253988265991211,0.9486498832702637]},{"children":[18],"name":"Armature_LFoot","translation":[-2.9886770248413086,-3.479930877685547,0.8230576515197754]},{"name":"Armature_LToe","translation":[-4.754635810852051,-0.008578777313232422,0.1287522315979004]},{"children":[20],"name":"Armature_RThigh","translation":[-13.236101150512695,-4.0232133865356445,-8.491748809814453]},{"children":[21],"name":"Armature_RLeg","translation":[1.4994010925292969,-4.253978729248047,0.9486322402954102]},{"children":[22],"name":"Armature_RFoot","translation":[2.988668441772461,-3.4799423217773438,0.8230700492858887]},{"name":"Armature_RToe","rotation":[0,4.941602677324636e-23,0,1],"translation":[4.754640579223633,-0.008577823638916016,0.1287384033203125]},{"name":"Armature_pm0140_00_Skin"}],"samplers":[{}],"scene":0,"scenes":[{"name":"Scene","nodes":[0,2,1]}],"skins":[{"inverseBindMatrices":0,"joints":[4,5,6,7,8,9,10,11,12,13,14,15,16,17,18,19,20,21,22,23],"skeleton":0}],"textures":[{"sampler":0,"source":0},{"sampler":0,"source":1}],"extensionsUsed":["ALI_amc_mesh_compression"],"extensionsRequired":["ALI_amc_mesh_compression"]}