{
    "accessors" : [
        {
            "bufferView" : 0,
            "componentType" : 5123,
            "count" : 9036,
            "max" : [
                1726
            ],
            "min" : [
                0
            ],
            "type" : "SCALAR"
        },
        {
            "bufferView" : 1,
            "componentType" : 5126,
            "count" : 1727,
            "max" : [
                24.873960494995117,
                25.614259719848633,
                0.2682589888572693
            ],
            "min" : [
                -24.873960494995117,
                -26.83176040649414,
                -34.979698181152344
            ],
            "type" : "VEC3"
        },
        {
            "bufferView" : 2,
            "componentType" : 5126,
            "count" : 1727,
            "max" : [
                0.99993896484375,
                0.999481201171875,
                0.999969482421875
            ],
            "min" : [
                -0.99993896484375,
                -0.9974059462547302,
                -0.9993896484375
            ],
            "type" : "VEC3"
        },
        {
            "bufferView" : 3,
            "componentType" : 5126,
            "count" : 1727,
            "max" : [
                1.0,
                0.9999985098838806,
                0.9991068840026855,
                1.0
            ],
            "min" : [
                -0.9903300404548645,
                -0.9999985098838806,
                -0.9991068840026855,
                1.0
            ],
            "type" : "VEC4"
        },
        {
            "bufferView" : 4,
            "componentType" : 5126,
            "count" : 1727,
            "max" : [
                0.993923008441925,
                0.9898239998146892
            ],
            "min" : [
                0.006076991092413664,
                0.00955498218536377
            ],
            "type" : "VEC2"
        },
        {
            "bufferView" : 5,
            "componentType" : 5126,
            "count" : 1727,
            "max" : [
                1.0,
                1.0,
                1.0,
                1.0
            ],
            "min" : [
                1.0,
                1.0,
                1.0,
                1.0
            ],
            "type" : "VEC4"
        },
        {
            "bufferView" : 6,
            "componentType" : 5126,
            "count" : 1727,
            "max" : [
                1.0,
                1.0,
                1.0,
                1.0
            ],
            "min" : [
                1.0,
                1.0,
                1.0,
                1.0
            ],
            "type" : "VEC4"
        },
        {
            "bufferView" : 7,
            "componentType" : 5123,
            "count" : 1727,
            "max" : [
                17,
                18,
                8,
                0
            ],
            "min" : [
                2,
                0,
                0,
                0
            ],
            "type" : "VEC4"
        },
        {
            "bufferView" : 8,
            "componentType" : 5126,
            "count" : 1727,
            "max" : [
                1.0,
                0.8470587730407715,
                0.039215680211782455,
                0.0
            ],
            "min" : [
                0.11372549831867218,
                0.0,
                0.0,
                0.0
            ],
            "type" : "VEC4"
        },
        {
            "bufferView" : 9,
            "componentType" : 5123,
            "count" : 144,
            "max" : [
                34
            ],
            "min" : [
                0
            ],
            "type" : "SCALAR"
        },
        {
            "bufferView" : 10,
            "componentType" : 5126,
            "count" : 35,
            "max" : [
                13.361590385437012,
                18.701459884643555,
                -7.611384868621826
            ],
            "min" : [
                -13.361590385437012,
                7.0448760986328125,
                -14.091469764709473
            ],
            "type" : "VEC3"
        },
        {
            "bufferView" : 11,
            "componentType" : 5126,
            "count" : 35,
            "max" : [
                0.29548022150993347,
                0.8016601800918579,
                0.982085645198822
            ],
            "min" : [
                -0.29548022150993347,
                0.18829920887947083,
                0.5977355241775513
            ],
            "type" : "VEC3"
        },
        {
            "bufferView" : 12,
            "componentType" : 5126,
            "count" : 35,
            "max" : [
                1.0,
                0.04938265681266785,
                0.3002657890319824,
                1.0
            ],
            "min" : [
                0.953843355178833,
                -0.04938347637653351,
                -0.3002657890319824,
                1.0
            ],
            "type" : "VEC4"
        },
        {
            "bufferView" : 13,
            "componentType" : 5126,
            "count" : 35,
            "max" : [
                0.9794139862060547,
                -0.020966053009033203
            ],
            "min" : [
                0.02058595046401024,
                -0.9659479856491089
            ],
            "type" : "VEC2"
        },
        {
            "bufferView" : 14,
            "componentType" : 5126,
            "count" : 35,
            "max" : [
                1.0,
                1.0,
                1.0,
                1.0
            ],
            "min" : [
                1.0,
                1.0,
                1.0,
                1.0
            ],
            "type" : "VEC4"
        },
        {
            "bufferView" : 15,
            "componentType" : 5126,
            "count" : 35,
            "max" : [
                1.0,
                1.0,
                1.0,
                1.0
            ],
            "min" : [
                1.0,
                1.0,
                1.0,
                1.0
            ],
            "type" : "VEC4"
        },
        {
            "bufferView" : 16,
            "componentType" : 5123,
            "count" : 35,
            "max" : [
                2,
                0,
                0,
                0
            ],
            "min" : [
                2,
                0,
                0,
                0
            ],
            "type" : "VEC4"
        },
        {
            "bufferView" : 17,
            "componentType" : 5126,
            "count" : 35,
            "max" : [
                1.0,
                0.0,
                0.0,
                0.0
            ],
            "min" : [
                1.0,
                0.0,
                0.0,
                0.0
            ],
            "type" : "VEC4"
        },
        {
            "bufferView" : 18,
            "componentType" : 5126,
            "count" : 20,
            "max" : [
                1.0,
                0.0,
                9.883205354649272e-23,
                0.0,
                0.0,
                0.0,
                1.0,
                0.0,
                0.0,
                -1.0,
                0.0,
                0.0,
                14.112798690795898,
                0.0,
                8.345590591430664,
                1.0
            ],
            "min" : [
                1.0,
                0.0,
                0.0,
                0.0,
                -9.883205354649272e-23,
                0.0,
                1.0,
                0.0,
                0.0,
                -1.0,
                0.0,
                0.0,
                -14.112811088562012,
                -13.547240257263184,
                -4.160827159881592,
                1.0
            ],
            "type" : "MAT4"
        }
    ],
    "asset" : {
        "generator" : "Khronos Blender glTF 2.0 exporter",
        "version" : "2.0"
    },
    "bufferViews" : [
        {
            "buffer" : 0,
            "byteLength" : 18072,
            "byteOffset" : 0,
            "target" : 34963
        },
        {
            "buffer" : 0,
            "byteLength" : 20724,
            "byteOffset" : 18072,
            "target" : 34962
        },
        {
            "buffer" : 0,
            "byteLength" : 20724,
            "byteOffset" : 38796,
            "target" : 34962
        },
        {
            "buffer" : 0,
            "byteLength" : 27632,
            "byteOffset" : 59520,
            "target" : 34962
        },
        {
            "buffer" : 0,
            "byteLength" : 13816,
            "byteOffset" : 87152,
            "target" : 34962
        },
        {
            "buffer" : 0,
            "byteLength" : 27632,
            "byteOffset" : 100968,
            "target" : 34962
        },
        {
            "buffer" : 0,
            "byteLength" : 27632,
            "byteOffset" : 128600,
            "target" : 34962
        },
        {
            "buffer" : 0,
            "byteLength" : 13816,
            "byteOffset" : 156232,
            "target" : 34962
        },
        {
            "buffer" : 0,
            "byteLength" : 27632,
            "byteOffset" : 170048,
            "target" : 34962
        },
        {
            "buffer" : 0,
            "byteLength" : 288,
            "byteOffset" : 197680,
            "target" : 34963
        },
        {
            "buffer" : 0,
            "byteLength" : 420,
            "byteOffset" : 197968,
            "target" : 34962
        },
        {
            "buffer" : 0,
            "byteLength" : 420,
            "byteOffset" : 198388,
            "target" : 34962
        },
        {
            "buffer" : 0,
            "byteLength" : 560,
            "byteOffset" : 198808,
            "target" : 34962
        },
        {
            "buffer" : 0,
            "byteLength" : 280,
            "byteOffset" : 199368,
            "target" : 34962
        },
        {
            "buffer" : 0,
            "byteLength" : 560,
            "byteOffset" : 199648,
            "target" : 34962
        },
        {
            "buffer" : 0,
            "byteLength" : 560,
            "byteOffset" : 200208,
            "target" : 34962
        },
        {
            "buffer" : 0,
            "byteLength" : 280,
            "byteOffset" : 200768,
            "target" : 34962
        },
        {
            "buffer" : 0,
            "byteLength" : 560,
            "byteOffset" : 201048,
            "target" : 34962
        },
        {
            "buffer" : 0,
            "byteLength" : 1280,
            "byteOffset" : 201608
        }
    ],
    "buffers" : [
        {
            "byteLength" : 202888,
            "uri" : "origin.bin"
        }
    ],
    "images" : [
        {
            "name" : "pm0140_00_BodyA1",
            "uri" : "pm0140_00_BodyA1.png"
        },
        {
            "name" : "pm0140_00_BodyB1",
            "uri" : "pm0140_00_BodyB1.png"
        }
    ],
    "materials" : [
        {
            "name" : "BodyASpc_mat",
            "pbrMetallicRoughness" : {
                "baseColorFactor" : [
                    0.6400000190734865,
                    0.6400000190734865,
                    0.6400000190734865,
                    1.0
                ],
                "baseColorTexture" : {
                    "index" : 0
                },
                "metallicFactor" : 0.0
            }
        },
        {
            "name" : "Keikouo_Neon_mat",
            "pbrMetallicRoughness" : {
                "baseColorFactor" : [
                    0.6400000190734865,
                    0.6400000190734865,
                    0.6400000190734865,
                    1.0
                ],
                "baseColorTexture" : {
                    "index" : 1
                },
                "metallicFactor" : 0.0
            }
        }
    ],
    "meshes" : [
        {
            "name" : "mesh_0_BodyASpc",
            "primitives" : [
                {
                    "attributes" : {
                        "COLOR_0" : 5,
                        "COLOR_1" : 6,
                        "JOINTS_0" : 7,
                        "NORMAL" : 2,
                        "POSITION" : 1,
                        "TANGENT" : 3,
                        "TEXCOORD_0" : 4,
                        "WEIGHTS_0" : 8
                    },
                    "indices" : 0,
                    "material" : 0
                },
                {
                    "attributes" : {
                        "COLOR_0" : 14,
                        "COLOR_1" : 15,
                        "JOINTS_0" : 16,
                        "NORMAL" : 11,
                        "POSITION" : 10,
                        "TANGENT" : 12,
                        "TEXCOORD_0" : 13,
                        "WEIGHTS_0" : 17
                    },
                    "indices" : 9,
                    "material" : 1
                }
            ]
        }
    ],
    "nodes" : [
        {
            "children" : [
                3,
                4
            ],
            "name" : "Armature",
            "rotation" : [
                0.7071068286895752,
                0.0,
                -0.0,
                0.7071067094802856
            ]
        },
        {
            "name" : "Camera",
            "rotation" : [
                0.483536034822464,
                0.33687159419059753,
                -0.20870360732078552,
                0.7804827094078064
            ],
            "translation" : [
                7.481131553649902,
                5.34366512298584,
                6.5076398849487305
            ]
        },
        {
            "name" : "Lamp",
            "rotation" : [
                0.16907575726509094,
                0.7558802962303162,
                -0.27217137813568115,
                0.570947527885437
            ],
            "scale" : [
                1.0,
                1.0,
                0.9999999403953552
            ],
            "translation" : [
                4.076245307922363,
                5.903861999511719,
                -1.0054539442062378
            ]
        },
        {
            "mesh" : 0,
            "name" : "vsn_mesh_0_BodyASpc",
            "skin" : 0
        },
        {
            "children" : [
                5,
                23
            ],
            "name" : "Armature_pm0140_00",
            "rotation" : [
                -0.7071068286895752,
                0.0,
                0.0,
                0.7071068286895752
            ]
        },
        {
            "children" : [
                6
            ],
            "name" : "Armature_Origin"
        },
        {
            "children" : [
                7,
                11,
                15,
                19
            ],
            "name" : "Armature_Waist",
            "translation" : [
                0.0,
                13.547240257263184,
                0.1461690068244934
            ]
        },
        {
            "children" : [
                8
            ],
            "name" : "Armature_LArm",
            "translation" : [
                14.112811088562012,
                -2.571770668029785,
                1.5850410461425781
            ]
        },
        {
            "children" : [
                9
            ],
            "name" : "Armature_LForeArm",
            "translation" : [
                -1.4798412322998047,
                -5.453121185302734,
                1.572218656539917
            ]
        },
        {
            "children" : [
                10
            ],
            "name" : "Armature_LHand",
            "translation" : [
                -2.692171096801758,
                -2.893235206604004,
                0.8235073089599609
            ]
        },
        {
            "name" : "Armature_LFinger",
            "translation" : [
                -5.100148677825928,
                -0.2152700424194336,
                0.033887386322021484
            ]
        },
        {
            "children" : [
                12
            ],
            "name" : "Armature_RArm",
            "translation" : [
                -14.112798690795898,
                -2.5717315673828125,
                1.5850257873535156
            ]
        },
        {
            "children" : [
                13
            ],
            "name" : "Armature_RForeArm",
            "translation" : [
                1.4797992706298828,
                -5.453152656555176,
                1.572232961654663
            ]
        },
        {
            "children" : [
                14
            ],
            "name" : "Armature_RHand",
            "translation" : [
                2.6921911239624023,
                -2.8932437896728516,
                0.8235077857971191
            ]
        },
        {
            "name" : "Armature_RFinger",
            "translation" : [
                5.100159168243408,
                -0.21526718139648438,
                0.03389167785644531
            ]
        },
        {
            "children" : [
                16
            ],
            "name" : "Armature_LThigh",
            "translation" : [
                13.236101150512695,
                -4.02321720123291,
                -8.491759300231934
            ]
        },
        {
            "children" : [
                17
            ],
            "name" : "Armature_LLeg",
            "translation" : [
                -1.4994010925292969,
                -4.253988265991211,
                0.9486498832702637
            ]
        },
        {
            "children" : [
                18
            ],
            "name" : "Armature_LFoot",
            "translation" : [
                -2.9886770248413086,
                -3.479930877685547,
                0.8230576515197754
            ]
        },
        {
            "name" : "Armature_LToe",
            "translation" : [
                -4.754635810852051,
                -0.008578777313232422,
                0.1287522315979004
            ]
        },
        {
            "children" : [
                20
            ],
            "name" : "Armature_RThigh",
            "translation" : [
                -13.236101150512695,
                -4.0232133865356445,
                -8.491748809814453
            ]
        },
        {
            "children" : [
                21
            ],
            "name" : "Armature_RLeg",
            "translation" : [
                1.4994010925292969,
                -4.253978729248047,
                0.9486322402954102
            ]
        },
        {
            "children" : [
                22
            ],
            "name" : "Armature_RFoot",
            "translation" : [
                2.988668441772461,
                -3.4799423217773438,
                0.8230700492858887
            ]
        },
        {
            "name" : "Armature_RToe",
            "rotation" : [
                0.0,
                4.941602677324636e-23,
                0.0,
                1.0
            ],
            "translation" : [
                4.754640579223633,
                -0.008577823638916016,
                0.1287384033203125
            ]
        },
        {
            "name" : "Armature_pm0140_00_Skin"
        }
    ],
    "samplers" : [
        {}
    ],
    "scene" : 0,
    "scenes" : [
        {
            "name" : "Scene",
            "nodes" : [
                0,
                2,
                1
            ]
        }
    ],
    "skins" : [
        {
            "inverseBindMatrices" : 18,
            "joints" : [
                4,
                5,
                6,
                7,
                8,
                9,
                10,
                11,
                12,
                13,
                14,
                15,
                16,
                17,
                18,
                19,
                20,
                21,
                22,
                23
            ],
            "skeleton" : 0
        }
    ],
    "textures" : [
        {
            "sampler" : 0,
            "source" : 0
        },
        {
            "sampler" : 0,
            "source" : 1
        }
    ]
}
