{"accessors":[{"bufferView":0,"componentType":5126,"count":91,"max":[1.0000001192092896,0,0.9758769273757935,0,1,0,1.0000001192092896,0,0,-1,0,0,153.14059448242188,159.02752685546875,165.37396240234375,1],"min":[-0.9999998807907104,0,-1,0,-0.9758769273757935,0,-0.9999998807907104,0,0,-1.0000001192092896,0,0,-178.44174194335938,-121.34153747558594,-97.33032989501953,1],"type":"MAT4","byteOffset":0}],"asset":{"generator":"Khronos Blender glTF 2.0 exporter","version":"2.0"},"bufferViews":[{"buffer":0,"byteLength":5824,"byteOffset":0},{"buffer":0,"byteOffset":5824,"byteLength":52859},{"buffer":0,"byteOffset":58683,"byteLength":96593},{"buffer":0,"byteOffset":155276,"byteLength":28987},{"buffer":0,"byteOffset":184263,"byteLength":3003}],"buffers":[{"byteLength":187266,"uri":"buffer.bin"}],"images":[{"name":"pm0003_00_BodyC1","uri":"pm0003_00_BodyC1.png"},{"name":"pm0003_00_Eye1","uri":"pm0003_00_Eye1.png"},{"name":"pm0003_00_BodyA1","uri":"pm0003_00_BodyA1.png"},{"name":"pm0003_00_BodyB1","uri":"pm0003_00_BodyB1.png"}],"materials":[{"alphaMode":"OPAQUE","name":"Material__60","pbrMetallicRoughness":{"baseColorFactor":[0.6400000190734865,0.6400000190734865,0.6400000190734865,1],"baseColorTexture":{"index":0},"metallicFactor":0}},{"alphaMode":"OPAQUE","name":"Material__61","pbrMetallicRoughness":{"baseColorFactor":[0.6400000190734865,0.6400000190734865,0.6400000190734865,1],"baseColorTexture":{"index":1},"metallicFactor":0}},{"alphaMode":"OPAQUE","name":"Material__62","pbrMetallicRoughness":{"baseColorFactor":[0.6400000190734865,0.6400000190734865,0.6400000190734865,1],"baseColorTexture":{"index":2},"metallicFactor":0}},{"alphaMode":"OPAQUE","name":"Material__63","pbrMetallicRoughness":{"baseColorFactor":[0.6400000190734865,0.6400000190734865,0.6400000190734865,1],"baseColorTexture":{"index":3},"metallicFactor":0}}],"meshes":[{"name":"VenusaurF","primitives":[{"material":3,"extensions":{"ALI_amc_mesh_compression":{"bufferView":1}}},{"material":2,"extensions":{"ALI_amc_mesh_compression":{"bufferView":2}}},{"material":0,"extensions":{"ALI_amc_mesh_compression":{"bufferView":3}}},{"material":1,"extensions":{"ALI_amc_mesh_compression":{"bufferView":4}}}]}],"nodes":[{"children":[3,4],"name":"Armature","scale":[0.02539999969303608,0.02539999969303608,0.02539999969303608]},{"name":"Camera","rotation":[0.483536034822464,0.33687159419059753,-0.20870360732078552,0.7804827094078064],"translation":[7.481131553649902,5.34366512298584,6.5076398849487305]},{"name":"Lamp","rotation":[0.16907575726509094,0.7558802962303162,-0.27217137813568115,0.570947527885437],"scale":[1,1,0.9999999403953552],"translation":[4.076245307922363,5.903861999511719,-1.0054539442062378]},{"mesh":0,"name":"VenusaurF","skin":0},{"children":[5,88,90,91,92,93],"name":"Armature_pm0003_00_fushigibana","rotation":[-0.7071068286895752,0,0,0.7071068286895752]},{"children":[6],"name":"Armature_Origin"},{"children":[7,74],"name":"Armature_Waist","rotation":[0,-0.9985141158103943,0,0.054493099451065063],"translation":[0,23.954998016357422,60.84370040893555]},{"children":[8,45],"name":"Armature_Spine1","rotation":[0,0.00000225752592086792,0,1],"translation":[-0.00001557882751512807,0.000041961669921875,-0.00004800386886927299]},{"children":[9,13,17,21,41],"name":"Armature_FeelerA1","rotation":[0,0.667521595954895,0,0.7445905208587646],"translation":[4.0759077072143555,-38.4051513671875,-37.22932815551758]},{"children":[10],"name":"Armature_FeelerC1","rotation":[0,-0.6073610186576843,0,0.7944259643554688],"translation":[11.494331359863281,-12.388843536376953,0.000017131791537394747]},{"children":[11],"name":"Armature_FeelerC2","rotation":[0,-0.05796199291944504,0,0.9983187913894653],"translation":[2.1369788646698,-29.990419387817383,-7.864161491394043]},{"children":[12],"name":"Armature_FeelerC3","rotation":[0,-0.08351734280586243,0,0.9965063333511353],"translation":[1.0370913743972778,-46.32863998413086,-6.892804145812988]},{"name":"Armature_EndFeelerC3","rotation":[0,-9.313225746154785e-10,0,1],"translation":[0.015530308708548546,-48.519142150878906,0.8679558634757996]},{"children":[14],"name":"Armature_LFeelerA1","rotation":[0,-0.6171045303344727,0,0.7868812084197998],"translation":[8.540755271911621,-0.037102699279785156,-16.300275802612305]},{"children":[15],"name":"Armature_LFeelerA2","rotation":[0,-0.057439278811216354,0,0.9983490109443665],"translation":[-27.648765563964844,-0.00000762939453125,-14.441803932189941]},{"children":[16],"name":"Armature_LFeelerA3","rotation":[0,-0.08363021165132523,0,0.996496856212616],"translation":[-45.34785079956055,-0.00000286102294921875,-11.650461196899414]},{"name":"Armature_EndLFeelerA3","rotation":[0,1.30385160446167e-8,0,1],"translation":[-48.13615417480469,0.000003814697265625,4.025634288787842]},{"children":[18],"name":"Armature_RFeelerA1","rotation":[0,-0.6171073913574219,0,0.7868790030479431],"scale":[0.9999999403953552,1,0.9999999403953552],"translation":[8.540329933166504,-0.036988258361816406,16.300493240356445]},{"children":[19],"name":"Armature_RFeelerA2","rotation":[0,-0.057439763098955154,0,0.9983490705490112],"translation":[31.19325828552246,-0.0000057220458984375,-0.00002384185791015625]},{"children":[20],"name":"Armature_RFeelerA3","rotation":[0,-0.08362974226474762,0,0.9964969754219055],"scale":[0.9999999403953552,1,0.9999999403953552],"translation":[46.820674896240234,-0.000003814697265625,-0.0010728836059570312]},{"name":"Armature_EndRFeelerA3","rotation":[0,1.1175870895385742e-8,0,1],"translation":[48.30437088012695,0.0000019073486328125,-0.000001430511474609375]},{"children":[22,25,28,31,34,37,40],"name":"Armature_FeelerA2","rotation":[0,4.221362814860186e-9,0,1],"translation":[27.394500732421875,0.00005435943603515625,0.00005462933404487558]},{"children":[23],"name":"Armature_LFeelerB1","rotation":[0,-0.7603147625923157,0,0.6495548486709595],"translation":[38.76378631591797,-0.0500640869140625,-14.585689544677734]},{"children":[24],"name":"Armature_LFeelerB2","rotation":[0,-0.19039729237556458,0,0.9817071557044983],"translation":[-42.79216766357422,-0.00004100799560546875,13.878129005432129]},{"name":"Armature_EndLFeelerB2","translation":[-21.586135864257812,-0.00004100799560546875,40.37940979003906]},{"children":[26],"name":"Armature_RFeelerC1","rotation":[0,-0.7689253687858582,0,0.6393385529518127],"translation":[39.51786804199219,-14.040446281433105,8.15744686126709]},{"children":[27],"name":"Armature_RFeelerC2","rotation":[0,-0.1775575429201126,0,0.984110414981842],"translation":[23.187501907348633,-38.360939025878906,4.049032688140869]},{"name":"Armature_EndRFeelerC2","scale":[0.9999999403953552,1,0.9999999403953552],"translation":[28.910381317138672,-33.81775665283203,10.067323684692383]},{"children":[29],"name":"Armature_LFeelerD1","rotation":[0,-0.7636995911598206,0,0.6455718278884888],"translation":[39.563873291015625,13.89249324798584,-8.123213768005371]},{"children":[30],"name":"Armature_LFeelerD2","rotation":[0,-0.17557574808597565,0,0.9844659566879272],"translation":[-20.666120529174805,38.11531448364258,11.042587280273438]},{"name":"Armature_EndLFeelerD2","translation":[-5.852703094482422,34.26100158691406,29.6389102935791]},{"children":[32],"name":"Armature_RFeelerD1","rotation":[0,-0.7636963129043579,0,0.6455757021903992],"scale":[0.9999999403953552,1,0.9999999403953552],"translation":[39.56394958496094,13.892403602600098,8.123457908630371]},{"children":[33],"name":"Armature_RFeelerD2","rotation":[0,-0.17727962136268616,0,0.9841606020927429],"translation":[23.146183013916016,38.11541748046875,3.646012306213379]},{"name":"Armature_EndRFeelerD2","rotation":[0,1.4901161193847656e-8,0,1],"translation":[28.562076568603516,34.260868072509766,9.844619750976562]},{"children":[35],"name":"Armature_RFeelerB1","rotation":[0,-0.7603171467781067,0,0.6495521068572998],"scale":[0.9999999403953552,1,0.9999999403953552],"translation":[38.763816833496094,-0.050281524658203125,14.585919380187988]},{"children":[36],"name":"Armature_RFeelerB2","rotation":[0,-0.19039736688137054,0,0.9817070960998535],"translation":[44.986717224121094,0.00002193450927734375,0.0003719329833984375]},{"name":"Armature_EndRFeelerB2","translation":[45.78691864013672,0.00004482269287109375,0.000041961669921875]},{"children":[38],"name":"Armature_LFeelerC1","rotation":[0,-0.7689276337623596,0,0.6393358111381531],"translation":[39.5179443359375,-14.040299415588379,-8.157036781311035]},{"children":[39],"name":"Armature_LFeelerC2","rotation":[0,-0.1793566793203354,0,0.9837841391563416],"translation":[-20.19009780883789,-38.36111831665039,12.100457191467285]},{"name":"Armature_EndLFeelerC2","translation":[-4.604618072509766,-33.81774139404297,30.264802932739258]},{"name":"Armature_EndFeelerA2","translation":[52.75171661376953,0.0001049041748046875,0.00009964130003936589]},{"children":[42],"name":"Armature_FeelerB1","rotation":[0,-0.6099031567573547,0,0.7924760580062866],"scale":[0.9999999403953552,1,0.9999999403953552],"translation":[12.068046569824219,10.9026517868042,0.00008415651973336935]},{"children":[43],"name":"Armature_FeelerB2","rotation":[0,-0.057820964604616165,0,0.9983270168304443],"scale":[0.9999999403953552,1,0.9999999403953552],"translation":[2.039498805999756,30.070701599121094,-7.699985504150391]},{"children":[44],"name":"Armature_FeelerB3","rotation":[0,-0.08354072272777557,0,0.9965043663978577],"translation":[0.9542263746261597,46.363197326660156,-6.617115497589111]},{"name":"Armature_EndFeelerB3","rotation":[0,-8.381903171539307e-9,0,1],"translation":[0.028058800846338272,48.45508575439453,1.1657886505126953]},{"children":[46,53,60],"name":"Armature_Spine2","translation":[0.3380982577800751,-28.375856399536133,-3.088186025619507]},{"children":[47],"name":"Armature_LShoulder","rotation":[0,0.004240744281560183,0,0.9999910593032837],"translation":[-32.269691467285156,-10.752612113952637,-20.024459838867188]},{"children":[48],"name":"Armature_LArm","rotation":[0,-0.9346839189529419,0,0.35547977685928345],"scale":[0.9999999403953552,1,0.9999999403953552],"translation":[-27.661579132080078,-0.13785743713378906,0.033213138580322266]},{"children":[49],"name":"Armature_LForeArm","rotation":[0,-0.25265687704086304,0,0.9675559401512146],"translation":[35.90275955200195,-4.797746658325195,-15.110340118408203]},{"children":[50,52],"name":"Armature_LHand","rotation":[0,-0.16599208116531372,0,0.9861271381378174],"scale":[0.9999999403953552,1,0.9999999403953552],"translation":[5.948476791381836,-11.733592987060547,-28.23680877685547]},{"children":[51],"name":"Armature_LFinger1","rotation":[0,4.798948793904856e-9,0,1],"translation":[0.6888227462768555,-12.554004669189453,-7.176362037658691]},{"name":"Armature_EndLFinger1","translation":[1.3343991041183472,-24.31700897216797,-0.00002528827462811023]},{"name":"Armature_EndLHand","rotation":[0,8.324377631652169e-9,0,1],"translation":[1.592572808265686,-29.021831512451172,-0.000030066017643548548]},{"children":[54],"name":"Armature_RShoulder","rotation":[0,-0.11364356428384781,0,0.9935216903686523],"translation":[35.83808898925781,-10.752714157104492,-12.567912101745605]},{"children":[55],"name":"Armature_RArm","rotation":[0,-0.5485712885856628,0,0.8361038565635681],"scale":[1.0000001192092896,1,1.0000001192092896],"translation":[27.66155242919922,-0.1378316879272461,0.00003910064697265625]},{"children":[56],"name":"Armature_RForeArm","rotation":[0,-0.25265535712242126,0,0.967556357383728],"translation":[38.92597961425781,-4.7977190017700195,-1.4523086547851562]},{"children":[57,59],"name":"Armature_RHand","rotation":[0,-0.6251734495162964,0,0.7804858684539795],"translation":[28.72876739501953,-11.733573913574219,-2.713711977005005]},{"children":[58],"name":"Armature_RFinger1","rotation":[0,2.755791683739517e-8,0,1],"translation":[-0.6888728141784668,-12.553895950317383,-7.176346778869629]},{"name":"Armature_EndRFinger1","translation":[-1.3343656063079834,-24.317115783691406,-0.00005275278817862272]},{"name":"Armature_EndRHand","rotation":[0,2.3622305889148265e-8,0,1],"translation":[-1.5925745964050293,-29.021833419799805,-0.000060098012909293175]},{"children":[61],"name":"Armature_Neck1","rotation":[0,-0.04946215823292732,0,0.9987760782241821],"scale":[1.0000001192092896,1,1.0000001192092896],"translation":[0.3152358829975128,-26.457643508911133,-2.8793535232543945]},{"children":[62],"name":"Armature_Neck2","rotation":[0,9.555368478686432e-7,0,1],"scale":[1.0000001192092896,1,1.0000001192092896],"translation":[0.0020207762718200684,-19.87356185913086,-0.20043952763080597]},{"children":[63,69,71,72],"name":"Armature_Head","rotation":[0,-0.005039073992520571,0,0.9999873042106628],"translation":[0.001465844688937068,-13.68502426147461,-0.13806085288524628]},{"children":[64,66,67],"name":"Armature_Jaw","rotation":[0,-0.9527882933616638,0,0.30363547801971436],"translation":[-0.00007560452650068328,-12.221511840820312,3.3273582458496094]},{"children":[65],"name":"Armature_LJaw","rotation":[0,-0.9713960289955139,0,0.23746512830257416],"translation":[41.957115173339844,-38.620849609375,-2.388914108276367]},{"name":"Armature_EndLJaw","rotation":[0,1.4901161193847656e-8,0,1],"translation":[6.7267255783081055,-4.1558074951171875,-3.652223587036133]},{"name":"Armature_EndJaw","rotation":[0,-1.4901161193847656e-8,0,1],"translation":[24.64395523071289,-60.038108825683594,-34.738338470458984]},{"children":[68],"name":"Armature_RJaw","rotation":[0,-0.9766350984573364,0,0.214904323220253],"scale":[0.9999998807907104,0.9999999403953552,0.9999998807907104],"translation":[-11.609210968017578,-38.62043762207031,-40.389862060546875]},{"name":"Armature_EndRJaw","scale":[1.0000001192092896,1,1.0000001192092896],"translation":[6.726476669311523,-4.156089782714844,-3.6523637771606445]},{"children":[70],"name":"Armature_REar","rotation":[0,0.5294567346572876,0,0.848336935043335],"translation":[35.25897216796875,-10.877952575683594,-24.328672409057617]},{"name":"Armature_EndREar","translation":[26.81009292602539,11.968673706054688,11.063644409179688]},{"name":"Armature_EndHead","rotation":[0,6.093614501878619e-11,0,1],"translation":[-0.00018117950821761042,-94.59048461914062,-0.0003662114031612873]},{"children":[73],"name":"Armature_LEar","rotation":[0,0.9861561059951782,0,0.16581983864307404],"scale":[1,0.9999999403953552,1],"translation":[-35.2589111328125,-10.8778076171875,-24.328981399536133]},{"name":"Armature_EndLEar","rotation":[0,1.4901161193847656e-8,0,1],"scale":[1,0.9999999403953552,1],"translation":[26.81000518798828,11.968624114990234,11.063617706298828]},{"children":[75,81,87],"name":"Armature_Hips","rotation":[0,-0.05568736419081688,0,0.9984482526779175],"translation":[-0.00003384881347301416,0.0000057220458984375,-0.00005773776501882821]},{"children":[76],"name":"Armature_RThigh","rotation":[0,0.9980748295783997,0,0.062021344900131226],"translation":[58.13981246948242,45.75657653808594,15.592412948608398]},{"children":[77],"name":"Armature_RLeg","rotation":[0,0.8831266760826111,0,0.4691346287727356],"scale":[0.9999999403953552,1,0.9999999403953552],"translation":[-29.850608825683594,-37.18868637084961,8.620323181152344]},{"children":[78,79],"name":"Armature_RFoot","rotation":[0,-0.8517069220542908,0,0.524018406867981],"translation":[29.630775451660156,16.517066955566406,30.9633846282959]},{"name":"Armature_EndRFoot","rotation":[0,-1.4201759768184274e-8,0,1],"translation":[-19.188690185546875,-23.184646606445312,-0.00038336170837283134]},{"children":[80],"name":"Armature_RToe","rotation":[0,4.123376129427925e-8,0,1],"translation":[-9.244993209838867,-11.170085906982422,-5.252419948577881]},{"name":"Armature_EndRToe","rotation":[0,4.547473508864641e-13,0,1],"translation":[-11.255002975463867,-13.598846435546875,-0.00022626144345849752]},{"children":[82],"name":"Armature_LThigh","rotation":[0,0.9989790916442871,0,0.04517584294080734],"translation":[-58.139976501464844,45.75617218017578,15.592972755432129]},{"children":[83],"name":"Armature_LLeg","rotation":[0,0.8831263184547424,0,0.4691353738307953],"translation":[31.01083755493164,-37.18882751464844,1.9206886291503906]},{"children":[84,86],"name":"Armature_LFoot","rotation":[0,-0.8604227304458618,0,0.5095809698104858],"translation":[42.297950744628906,16.517257690429688,6.899142742156982]},{"children":[85],"name":"Armature_LToe","rotation":[0,5.941978997725528e-8,0,1],"translation":[9.245035171508789,-11.169994354248047,-5.252318859100342]},{"name":"Armature_EndLToe","translation":[11.255083084106445,-13.598770141601562,0.00000995668233372271]},{"name":"Armature_EndLFoot","rotation":[0,7.343896868405864e-8,0,1],"translation":[19.188779830932617,-23.184541702270508,0.00001442211214452982]},{"name":"Armature_EndHips","rotation":[0,1.1641532182693481e-10,0,1],"translation":[-0.00022451224504038692,76.50309753417969,0.0003935482818633318]},{"children":[89],"name":"Armature_VriVis01"},{"name":"Armature_pm0003_01_FlowerSkin"},{"name":"Armature_pm0003_00_BodySkin"},{"name":"Armature_pm0003_00_FlowerSkin"},{"name":"Armature_pm0003_00_LeafSkin"},{"children":[94],"name":"Armature_VriVis00"},{"name":"Armature_pm0003_00_dummySkin"}],"samplers":[{}],"scene":0,"scenes":[{"name":"Scene","nodes":[0,2,1]}],"skins":[{"inverseBindMatrices":0,"joints":[4,5,6,7,8,9,10,11,12,13,14,15,16,17,18,19,20,21,22,23,24,25,26,27,28,29,30,31,32,33,34,35,36,37,38,39,40,41,42,43,44,45,46,47,48,49,50,51,52,53,54,55,56,57,58,59,60,61,62,63,64,65,66,67,68,69,70,71,72,73,74,75,76,77,78,79,80,81,82,83,84,85,86,87,88,89,90,91,92,93,94],"skeleton":0}],"textures":[{"sampler":0,"source":0},{"sampler":0,"source":1},{"sampler":0,"source":2},{"sampler":0,"source":3}],"extensionsUsed":["ALI_amc_mesh_compression"],"extensionsRequired":["ALI_amc_mesh_compression"]}