{"accessors":[{"bufferView":0,"componentType":5126,"count":46,"max":[1,0,0.9987034797668457,0,1,0,1,0,0,-1,0,0,20.978105545043945,19.444299697875977,26.462921142578125,1],"min":[-0.9064474701881409,0,-1,0,-0.9987034797668457,0,-0.9064474701881409,0,0,-1.000000238418579,0,0,-44.063507080078125,-26.03101921081543,-25.914920806884766,1],"type":"MAT4","byteOffset":0}],"asset":{"generator":"Khronos Blender glTF 2.0 exporter","version":"2.0"},"bufferViews":[{"buffer":0,"byteLength":2944,"byteOffset":0},{"buffer":0,"byteOffset":2944,"byteLength":120143},{"buffer":0,"byteOffset":123087,"byteLength":5075}],"buffers":[{"byteLength":128162,"uri":"buffer.bin"}],"images":[{"name":"pm0007_00_Body1","uri":"pm0007_00_Body1.png"},{"name":"pm0007_00_Eye1","uri":"pm0007_00_Eye1.png"}],"materials":[{"alphaMode":"OPAQUE","name":"Material__60","pbrMetallicRoughness":{"baseColorFactor":[0.6400000190734865,0.6400000190734865,0.6400000190734865,1],"baseColorTexture":{"index":0},"metallicFactor":0}},{"alphaMode":"OPAQUE","name":"Material__61","pbrMetallicRoughness":{"baseColorFactor":[0.6400000190734865,0.6400000190734865,0.6400000190734865,1],"baseColorTexture":{"index":1},"metallicFactor":0}}],"meshes":[{"name":"Squirtle","primitives":[{"material":0,"extensions":{"ALI_amc_mesh_compression":{"bufferView":1}}},{"material":1,"extensions":{"ALI_amc_mesh_compression":{"bufferView":2}}}]}],"nodes":[{"children":[3,4],"name":"Armature","scale":[0.02539999969303608,0.02539999969303608,0.02539999969303608]},{"name":"Camera","rotation":[0.483536034822464,0.33687159419059753,-0.20870360732078552,0.7804827094078064],"translation":[7.481131553649902,5.34366512298584,6.5076398849487305]},{"name":"Lamp","rotation":[0.16907575726509094,0.7558802962303162,-0.27217137813568115,0.570947527885437],"scale":[1,1,0.9999999403953552],"translation":[4.076245307922363,5.903861999511719,-1.0054539442062378]},{"mesh":0,"name":"Squirtle","skin":0},{"children":[5,48,49],"name":"Armature_pm0007_00","rotation":[-0.7071068286895752,0,0,0.7071068286895752]},{"children":[6],"name":"Armature_Origin"},{"children":[7,13,23,24,28,38,42],"name":"Armature_Waist","rotation":[0,-0.7071078419685364,0,0.7071056962013245],"scale":[1,0.9999999403953552,1],"translation":[0.000012406398127495777,-0.7336649894714355,17.531200408935547]},{"children":[8],"name":"Armature_LThigh","rotation":[0,0.9792180061340332,0,0.20281077921390533],"translation":[-5.835195541381836,-2.0113253593444824,-7.185252666473389]},{"children":[9],"name":"Armature_LLeg","rotation":[0,0.40038734674453735,0,0.91634601354599],"scale":[1,0.9999999403953552,1],"translation":[5.985644340515137,-0.9706621170043945,-0.5926556587219238]},{"children":[10,11],"name":"Armature_LFoot","rotation":[0,-0.8377295136451721,0,0.5460853576660156],"translation":[3.831291675567627,2.583315849304199,1.2807013988494873]},{"name":"Armature_EndLFoot","rotation":[0,1.3674025467480533e-8,0,1],"translation":[3.7037899494171143,-6.461174011230469,-0.000017458980437368155]},{"children":[12],"name":"Armature_LToe","rotation":[0,0.0000298871127597522,0,1],"translation":[1.3427737951278687,-2.3424243927001953,-0.808028519153595]},{"name":"Armature_EndLToe","translation":[2.9839324951171875,-5.20539665222168,-0.000010376214049756527]},{"children":[14],"name":"Armature_RArm","rotation":[0,-0.9899182915687561,0,0.141639843583107],"translation":[6.429482460021973,-5.331751346588135,7.857158184051514]},{"children":[15],"name":"Armature_RForeArm","rotation":[0,-4.470348358154297e-8,0,1],"translation":[2.6796751022338867,-5.330177307128906,-3.968510150909424]},{"children":[16,17,19,21],"name":"Armature_RHand","rotation":[0,0.009962576441466808,0,0.9999504089355469],"translation":[1.487072467803955,-2.958080291748047,-2.202479362487793]},{"name":"Armature_EndRHand","translation":[1.8761653900146484,-3.04730224609375,-2.428886890411377]},{"children":[18],"name":"Armature_RFingerA","rotation":[0,0.4034813642501831,0,0.9149878621101379],"scale":[0.9999999403953552,1,0.9999999403953552],"translation":[-0.09828853607177734,-2.3200130462646484,-0.21816635131835938]},{"name":"Armature_EndRFingerA","rotation":[0,-1.4901162970204496e-8,0,1],"scale":[0.9999999403953552,1,0.9999999403953552],"translation":[1.2518491744995117,-1.4917964935302734,-0.26770925521850586]},{"children":[20],"name":"Armature_RFingerB","rotation":[0,-0.09273335337638855,0,0.9956910014152527],"scale":[1.0000001192092896,0.9999999403953552,1.0000001192092896],"translation":[-0.0172882080078125,-1.2532672882080078,-2.3162031173706055]},{"name":"Armature_EndRFingerB","rotation":[0,3.725290298461914e-9,0,1],"translation":[0.6928153038024902,-1.4602022171020508,-1.1354949474334717]},{"children":[22],"name":"Armature_RFingerC","rotation":[0,-0.7657686471939087,0,0.6431161761283875],"scale":[1,0.9999999403953552,1],"translation":[1.725806713104248,-0.37480640411376953,-1.9911203384399414]},{"name":"Armature_EndRFingerC","rotation":[0,-7.450580596923828e-9,0,1],"translation":[-1.0744454860687256,-1.373702049255371,-0.6293587684631348]},{"name":"Armature_EndWaist","rotation":[0,-1.1368683772161603e-13,0,1],"translation":[21.958202362060547,-2.384185791015625e-7,-5.257497832644731e-7]},{"children":[25,26],"name":"Armature_Head","rotation":[0,-0.15620967745780945,0,0.9877239465713501],"translation":[10.875003814697266,-5.87847900390625,-2.603774191811681e-7]},{"name":"Armature_EndHead","rotation":[0,-2.9802322387695312e-8,0,1],"translation":[17.043628692626953,-5.812920093536377,-5.52923583984375]},{"children":[27],"name":"Armature_Jaw","rotation":[0,0.9553360342979431,0,0.295522004365921],"translation":[4.112945079803467,-3.8807711601257324,-1.3342841863632202]},{"name":"Armature_EndJaw","translation":[4.2180304527282715,-8.951384544372559,-5.46764612197876]},{"children":[29],"name":"Armature_LArm","rotation":[0,0.5498590469360352,0,0.8352574706077576],"translation":[6.429448127746582,-5.331763744354248,-7.857107639312744]},{"children":[30],"name":"Armature_LForeArm","translation":[3.612442970275879,-5.3301682472229,-3.1432547569274902]},{"children":[31,32,34,36],"name":"Armature_LHand","rotation":[0,0.04701653867959976,0,0.9988940954208374],"translation":[2.0048294067382812,-2.9580793380737305,-1.7443890571594238]},{"name":"Armature_EndLHand","translation":[2.4134645462036133,-3.047300338745117,-1.8959546089172363]},{"children":[33],"name":"Armature_LFingerA","rotation":[0,-0.7432153224945068,0,0.6690523624420166],"translation":[0.2189807891845703,-2.320028305053711,0.09647083282470703]},{"name":"Armature_EndLFingerA","rotation":[0,1.4901161193847656e-8,0,1],"translation":[-0.7671518325805664,-1.491800308227539,-1.0248222351074219]},{"children":[35],"name":"Armature_LFingerB","rotation":[0,0.03625912219285965,0,0.9993424415588379],"translation":[2.316249370574951,-1.2532587051391602,-0.001720428466796875]},{"name":"Armature_EndLFingerB","rotation":[0,-7.450580596923828e-9,0,1],"scale":[1,0.9999999403953552,1],"translation":[1.0432519912719727,-1.460205078125,-0.8252067565917969]},{"children":[37],"name":"Armature_LFingerC","rotation":[0,0.29801398515701294,0,0.9545615911483765],"translation":[1.9769067764282227,-0.3748054504394531,-1.7420659065246582]},{"name":"Armature_EndLFingerC","rotation":[0,-1.4901161193847656e-8,0,1],"scale":[1,0.9999999403953552,1],"translation":[1.238144874572754,-1.3737010955810547,-0.13236379623413086]},{"children":[39],"name":"Armature_Tail1","rotation":[0,0.8201211094856262,0,0.5721901655197144],"translation":[-12.188007354736328,4.4075117111206055,-0.0000020513580238912255]},{"children":[40],"name":"Armature_Tail2","rotation":[0,-0.2250952422618866,0,0.9743367433547974],"translation":[0.49149709939956665,3.8711607456207275,-1.3362988233566284]},{"children":[41],"name":"Armature_Tail3","rotation":[0,-0.2104354053735733,0,0.977607786655426],"translation":[0.04344531521201134,4.198534965515137,0.4259956479072571]},{"name":"Armature_EndTail3","rotation":[0,-5.960464477539063e-8,0,1],"translation":[4.159127235412598,14.287479400634766,7.169412612915039]},{"children":[43],"name":"Armature_RThigh","rotation":[0,-0.9996758699417114,0,0.025461914017796516],"translation":[-5.835269927978516,-2.011324882507324,7.185262203216553]},{"children":[44],"name":"Armature_RLeg","rotation":[0,0.4003869593143463,0,0.9163461923599243],"translation":[5.814496040344238,-0.9706652164459229,-1.5395302772521973]},{"children":[45,46],"name":"Armature_RFoot","rotation":[0,-0.9400564432144165,0,0.3410188555717468],"scale":[1.0000001192092896,1,1.0000001192092896],"translation":[2.291508674621582,2.583322525024414,3.3268513679504395]},{"name":"Armature_EndRFoot","rotation":[0,-2.1912910597166047e-8,0,1],"translation":[-3.70379376411438,-6.461174011230469,-0.00004976490163244307]},{"children":[47],"name":"Armature_RToe","rotation":[0,-0.000033209071261808276,0,1],"translation":[-1.3427642583847046,-2.342430591583252,-0.8080365657806396]},{"name":"Armature_EndRToe","scale":[1,0.9999999403953552,1],"translation":[-2.9839203357696533,-5.205394744873047,-0.000007045047823339701]},{"name":"Armature_pm0007_00_BodySkin"},{"name":"Armature_pm0007_00_ShellSkin"}],"samplers":[{}],"scene":0,"scenes":[{"name":"Scene","nodes":[0,2,1]}],"skins":[{"inverseBindMatrices":0,"joints":[4,5,6,7,8,9,10,11,12,13,14,15,16,17,18,19,20,21,22,23,24,25,26,27,28,29,30,31,32,33,34,35,36,37,38,39,40,41,42,43,44,45,46,47,48,49],"skeleton":0}],"textures":[{"sampler":0,"source":0},{"sampler":0,"source":1}],"extensionsUsed":["ALI_amc_mesh_compression"],"extensionsRequired":["ALI_amc_mesh_compression"]}