{"accessors":[{"bufferView":0,"componentType":5126,"count":35,"max":[1,0,0.9853683114051819,0,1,0,1,0,0,-1,0,0,50.14051055908203,13.522209167480469,49.917545318603516,1],"min":[-0.9382767677307129,0,-1,0,-0.9853683114051819,0,-0.9382767677307129,0,0,-1.000000238418579,0,0,-78.40132141113281,-0.06507492065429688,-62.34150695800781,1],"type":"MAT4","byteOffset":0},{"bufferView":1,"componentType":5126,"count":35,"max":[1,0,0.9853683114051819,0,1,0,1,0,0,-1,0,0,50.14051055908203,13.522209167480469,49.917545318603516,1],"min":[-0.9382767677307129,0,-1,0,-0.9853683114051819,0,-0.9382767677307129,0,0,-1.000000238418579,0,0,-78.40132141113281,-0.06507492065429688,-62.34150695800781,1],"type":"MAT4","byteOffset":0},{"bufferView":2,"componentType":5126,"count":35,"max":[1,0,0.9853683114051819,0,1,0,1,0,0,-1,0,0,50.14051055908203,13.522209167480469,49.917545318603516,1],"min":[-0.9382767677307129,0,-1,0,-0.9853683114051819,0,-0.9382767677307129,0,0,-1.000000238418579,0,0,-78.40132141113281,-0.06507492065429688,-62.34150695800781,1],"type":"MAT4","byteOffset":0},{"bufferView":3,"componentType":5126,"count":35,"max":[1,0,0.9853683114051819,0,1,0,1,0,0,-1,0,0,50.14051055908203,13.522209167480469,49.917545318603516,1],"min":[-0.9382767677307129,0,-1,0,-0.9853683114051819,0,-0.9382767677307129,0,0,-1.000000238418579,0,0,-78.40132141113281,-0.06507492065429688,-62.34150695800781,1],"type":"MAT4","byteOffset":0},{"bufferView":4,"componentType":5126,"count":35,"max":[1,0,0.9853683114051819,0,1,0,1,0,0,-1,0,0,50.14051055908203,13.522209167480469,49.917545318603516,1],"min":[-0.9382767677307129,0,-1,0,-0.9853683114051819,0,-0.9382767677307129,0,0,-1.000000238418579,0,0,-78.40132141113281,-0.06507492065429688,-62.34150695800781,1],"type":"MAT4","byteOffset":0},{"bufferView":5,"componentType":5126,"count":35,"max":[1,0,0.9853683114051819,0,1,0,1,0,0,-1,0,0,50.14051055908203,13.522209167480469,49.917545318603516,1],"min":[-0.9382767677307129,0,-1,0,-0.9853683114051819,0,-0.9382767677307129,0,0,-1.000000238418579,0,0,-78.40132141113281,-0.06507492065429688,-62.34150695800781,1],"type":"MAT4","byteOffset":0},{"bufferView":6,"componentType":5126,"count":35,"max":[1,0,0.9853683114051819,0,1,0,1,0,0,-1,0,0,50.14051055908203,13.522209167480469,49.917545318603516,1],"min":[-0.9382767677307129,0,-1,0,-0.9853683114051819,0,-0.9382767677307129,0,0,-1.000000238418579,0,0,-78.40132141113281,-0.06507492065429688,-62.34150695800781,1],"type":"MAT4","byteOffset":0},{"bufferView":7,"componentType":5126,"count":35,"max":[1,0,0.9853683114051819,0,1,0,1,0,0,-1,0,0,50.14051055908203,13.522209167480469,49.917545318603516,1],"min":[-0.9382767677307129,0,-1,0,-0.9853683114051819,0,-0.9382767677307129,0,0,-1.000000238418579,0,0,-78.40132141113281,-0.06507492065429688,-62.34150695800781,1],"type":"MAT4","byteOffset":0},{"bufferView":8,"componentType":5126,"count":35,"max":[1,0,0.9853683114051819,0,1,0,1,0,0,-1,0,0,50.14051055908203,13.522209167480469,49.917545318603516,1],"min":[-0.9382767677307129,0,-1,0,-0.9853683114051819,0,-0.9382767677307129,0,0,-1.000000238418579,0,0,-78.40132141113281,-0.06507492065429688,-62.34150695800781,1],"type":"MAT4","byteOffset":0},{"bufferView":9,"componentType":5126,"count":35,"max":[1,0,0.9853683114051819,0,1,0,1,0,0,-1,0,0,50.14051055908203,13.522209167480469,49.917545318603516,1],"min":[-0.9382767677307129,0,-1,0,-0.9853683114051819,0,-0.9382767677307129,0,0,-1.000000238418579,0,0,-78.40132141113281,-0.06507492065429688,-62.34150695800781,1],"type":"MAT4","byteOffset":0},{"bufferView":10,"componentType":5126,"count":35,"max":[1,0,0.9853683114051819,0,1,0,1,0,0,-1,0,0,50.14051055908203,13.522209167480469,49.917545318603516,1],"min":[-0.9382767677307129,0,-1,0,-0.9853683114051819,0,-0.9382767677307129,0,0,-1.000000238418579,0,0,-78.40132141113281,-0.06507492065429688,-62.34150695800781,1],"type":"MAT4","byteOffset":0},{"bufferView":11,"componentType":5126,"count":35,"max":[1,0,0.9853683114051819,0,1,0,1,0,0,-1,0,0,50.14051055908203,13.522209167480469,49.917545318603516,1],"min":[-0.9382767677307129,0,-1,0,-0.9853683114051819,0,-0.9382767677307129,0,0,-1.000000238418579,0,0,-78.40132141113281,-0.06507492065429688,-62.34150695800781,1],"type":"MAT4","byteOffset":0},{"bufferView":12,"componentType":5126,"count":35,"max":[1,0,0.9853683114051819,0,1,0,1,0,0,-1,0,0,50.14051055908203,13.522209167480469,49.917545318603516,1],"min":[-0.9382767677307129,0,-1,0,-0.9853683114051819,0,-0.9382767677307129,0,0,-1.000000238418579,0,0,-78.40132141113281,-0.06507492065429688,-62.34150695800781,1],"type":"MAT4","byteOffset":0},{"bufferView":13,"componentType":5126,"count":35,"max":[1,0,0.9853683114051819,0,1,0,1,0,0,-1,0,0,50.14051055908203,13.522209167480469,49.917545318603516,1],"min":[-0.9382767677307129,0,-1,0,-0.9853683114051819,0,-0.9382767677307129,0,0,-1.000000238418579,0,0,-78.40132141113281,-0.06507492065429688,-62.34150695800781,1],"type":"MAT4","byteOffset":0},{"bufferView":14,"componentType":5126,"count":35,"max":[1,0,0.9853683114051819,0,1,0,1,0,0,-1,0,0,50.14051055908203,13.522209167480469,49.917545318603516,1],"min":[-0.9382767677307129,0,-1,0,-0.9853683114051819,0,-0.9382767677307129,0,0,-1.000000238418579,0,0,-78.40132141113281,-0.06507492065429688,-62.34150695800781,1],"type":"MAT4","byteOffset":0},{"bufferView":15,"componentType":5126,"count":35,"max":[1,0,0.9853683114051819,0,1,0,1,0,0,-1,0,0,50.14051055908203,13.522209167480469,49.917545318603516,1],"min":[-0.9382767677307129,0,-1,0,-0.9853683114051819,0,-0.9382767677307129,0,0,-1.000000238418579,0,0,-78.40132141113281,-0.06507492065429688,-62.34150695800781,1],"type":"MAT4","byteOffset":0},{"bufferView":16,"componentType":5126,"count":35,"max":[1,0,0.9853683114051819,0,1,0,1,0,0,-1,0,0,50.14051055908203,13.522209167480469,49.917545318603516,1],"min":[-0.9382767677307129,0,-1,0,-0.9853683114051819,0,-0.9382767677307129,0,0,-1.000000238418579,0,0,-78.40132141113281,-0.06507492065429688,-62.34150695800781,1],"type":"MAT4","byteOffset":0},{"bufferView":17,"componentType":5126,"count":35,"max":[1,0,0.9853683114051819,0,1,0,1,0,0,-1,0,0,50.14051055908203,13.522209167480469,49.917545318603516,1],"min":[-0.9382767677307129,0,-1,0,-0.9853683114051819,0,-0.9382767677307129,0,0,-1.000000238418579,0,0,-78.40132141113281,-0.06507492065429688,-62.34150695800781,1],"type":"MAT4","byteOffset":0}],"asset":{"generator":"Khronos Blender glTF 2.0 exporter","version":"2.0"},"bufferViews":[{"buffer":0,"byteLength":2240,"byteOffset":0},{"buffer":0,"byteLength":2240,"byteOffset":2240},{"buffer":0,"byteLength":2240,"byteOffset":4480},{"buffer":0,"byteLength":2240,"byteOffset":6720},{"buffer":0,"byteLength":2240,"byteOffset":8960},{"buffer":0,"byteLength":2240,"byteOffset":11200},{"buffer":0,"byteLength":2240,"byteOffset":13440},{"buffer":0,"byteLength":2240,"byteOffset":15680},{"buffer":0,"byteLength":2240,"byteOffset":17920},{"buffer":0,"byteLength":2240,"byteOffset":20160},{"buffer":0,"byteLength":2240,"byteOffset":22400},{"buffer":0,"byteLength":2240,"byteOffset":24640},{"buffer":0,"byteLength":2240,"byteOffset":26880},{"buffer":0,"byteLength":2240,"byteOffset":29120},{"buffer":0,"byteLength":2240,"byteOffset":31360},{"buffer":0,"byteLength":2240,"byteOffset":33600},{"buffer":0,"byteLength":2240,"byteOffset":35840},{"buffer":0,"byteLength":2240,"byteOffset":38080},{"buffer":0,"byteOffset":40320,"byteLength":18949},{"buffer":0,"byteOffset":59269,"byteLength":4929},{"buffer":0,"byteOffset":64198,"byteLength":4929},{"buffer":0,"byteOffset":69127,"byteLength":4929},{"buffer":0,"byteOffset":74056,"byteLength":6341},{"buffer":0,"byteOffset":80397,"byteLength":18949},{"buffer":0,"byteOffset":99346,"byteLength":33790},{"buffer":0,"byteOffset":133136,"byteLength":18223},{"buffer":0,"byteOffset":151359,"byteLength":18949},{"buffer":0,"byteOffset":170308,"byteLength":10835},{"buffer":0,"byteOffset":181143,"byteLength":11075},{"buffer":0,"byteOffset":192218,"byteLength":7347},{"buffer":0,"byteOffset":199565,"byteLength":18223},{"buffer":0,"byteOffset":217788,"byteLength":18607},{"buffer":0,"byteOffset":236395,"byteLength":6301},{"buffer":0,"byteOffset":242696,"byteLength":8775},{"buffer":0,"byteOffset":251471,"byteLength":29756},{"buffer":0,"byteOffset":281227,"byteLength":29756}],"buffers":[{"byteLength":310983,"uri":"buffer.bin"}],"images":[{"name":"pm0082_00_Body1","uri":"pm0082_00_Body1.png"},{"name":"pm0082_00_Eye1","uri":"pm0082_00_Eye1.png"}],"materials":[{"name":"Body_mat","pbrMetallicRoughness":{"baseColorFactor":[0.6400000190734865,0.6400000190734865,0.6400000190734865,1],"baseColorTexture":{"index":0},"metallicFactor":0}},{"name":"BodyDesukarn00_mat","pbrMetallicRoughness":{"baseColorFactor":[0.6400000190734865,0.6400000190734865,0.6400000190734865,1],"baseColorTexture":{"index":0},"metallicFactor":0}},{"name":"BodyDesukarn01_mat","pbrMetallicRoughness":{"baseColorFactor":[0.6400000190734865,0.6400000190734865,0.6400000190734865,1],"baseColorTexture":{"index":0},"metallicFactor":0}},{"name":"BodyDesukarnVco_mat","pbrMetallicRoughness":{"baseColorFactor":[0.6400000190734865,0.6400000190734865,0.6400000190734865,1],"baseColorTexture":{"index":0},"metallicFactor":0}},{"name":"BodySpc_mat","pbrMetallicRoughness":{"baseColorFactor":[0.6400000190734865,0.6400000190734865,0.6400000190734865,1],"baseColorTexture":{"index":0},"metallicFactor":0}},{"name":"Eye00_mat","pbrMetallicRoughness":{"baseColorFactor":[0.6400000190734865,0.6400000190734865,0.6400000190734865,1],"baseColorTexture":{"index":5},"metallicFactor":0}},{"name":"Eye01_mat","pbrMetallicRoughness":{"baseColorFactor":[0.6400000190734865,0.6400000190734865,0.6400000190734865,1],"baseColorTexture":{"index":5},"metallicFactor":0}},{"name":"Eye02_mat","pbrMetallicRoughness":{"baseColorFactor":[0.6400000190734865,0.6400000190734865,0.6400000190734865,1],"baseColorTexture":{"index":5},"metallicFactor":0}}],"meshes":[{"name":"mesh_1_pm0082_00_BodyASkin","primitives":[{"material":4,"extensions":{"ALI_amc_mesh_compression":{"bufferView":18}}}]},{"name":"mesh_7_pm0082_00_BodyBSkin","primitives":[{"material":6,"extensions":{"ALI_amc_mesh_compression":{"bufferView":19}}}]},{"name":"mesh_0_pm0082_00_BodyASkin","primitives":[{"material":5,"extensions":{"ALI_amc_mesh_compression":{"bufferView":20}}}]},{"name":"mesh_12_pm0082_00_BodyCSkin","primitives":[{"material":7,"extensions":{"ALI_amc_mesh_compression":{"bufferView":21}}}]},{"name":"mesh_10_pm0082_00_BodyBSkin","primitives":[{"material":2,"extensions":{"ALI_amc_mesh_compression":{"bufferView":22}}}]},{"name":"mesh_14_pm0082_00_BodyCSkin","primitives":[{"material":4,"extensions":{"ALI_amc_mesh_compression":{"bufferView":23}}}]},{"name":"mesh_3_pm0082_00_BodyASkin","primitives":[{"material":3,"extensions":{"ALI_amc_mesh_compression":{"bufferView":24}}}]},{"name":"mesh_13_pm0082_00_BodyCSkin","primitives":[{"material":1,"extensions":{"ALI_amc_mesh_compression":{"bufferView":25}}}]},{"name":"mesh_8_pm0082_00_BodyBSkin","primitives":[{"material":4,"extensions":{"ALI_amc_mesh_compression":{"bufferView":26}}}]},{"name":"mesh_5_pm0082_00_BodyASkin","primitives":[{"material":0,"extensions":{"ALI_amc_mesh_compression":{"bufferView":27}}}]},{"name":"mesh_4_pm0082_00_BodyASkin","primitives":[{"material":2,"extensions":{"ALI_amc_mesh_compression":{"bufferView":28}}}]},{"name":"mesh_11_pm0082_00_BodyBSkin","primitives":[{"material":0,"extensions":{"ALI_amc_mesh_compression":{"bufferView":29}}}]},{"name":"mesh_9_pm0082_00_BodyBSkin","primitives":[{"material":1,"extensions":{"ALI_amc_mesh_compression":{"bufferView":30}}}]},{"name":"mesh_2_pm0082_00_BodyASkin","primitives":[{"material":1,"extensions":{"ALI_amc_mesh_compression":{"bufferView":31}}}]},{"name":"mesh_16_pm0082_00_BodyCSkin","primitives":[{"material":2,"extensions":{"ALI_amc_mesh_compression":{"bufferView":32}}}]},{"name":"mesh_17_pm0082_00_BodyCSkin","primitives":[{"material":0,"extensions":{"ALI_amc_mesh_compression":{"bufferView":33}}}]},{"name":"mesh_15_pm0082_00_BodyCSkin","primitives":[{"material":3,"extensions":{"ALI_amc_mesh_compression":{"bufferView":34}}}]},{"name":"mesh_6_pm0082_00_BodyBSkin","primitives":[{"material":3,"extensions":{"ALI_amc_mesh_compression":{"bufferView":35}}}]}],"nodes":[{"children":[3,4,5,6,7,8,9,10,11,12,13,14,15,16,17,18,19,20,21],"name":"Armature"},{"name":"Camera","rotation":[0.483536034822464,0.33687159419059753,-0.20870360732078552,0.7804827094078064],"translation":[7.481131553649902,5.34366512298584,6.5076398849487305]},{"name":"Lamp","rotation":[0.16907575726509094,0.7558802962303162,-0.27217137813568115,0.570947527885437],"scale":[1,1,0.9999999403953552],"translation":[4.076245307922363,5.903861999511719,-1.0054539442062378]},{"mesh":2,"name":"vsn_mesh_0_pm0082_00_BodyASkin","skin":0},{"mesh":4,"name":"vsn_mesh_10_pm0082_00_BodyBSkin","skin":1},{"mesh":11,"name":"vsn_mesh_11_pm0082_00_BodyBSkin","skin":2},{"mesh":3,"name":"vsn_mesh_12_pm0082_00_BodyCSkin","skin":3},{"mesh":7,"name":"vsn_mesh_13_pm0082_00_BodyCSkin","skin":4},{"mesh":5,"name":"vsn_mesh_14_pm0082_00_BodyCSkin","skin":5},{"mesh":16,"name":"vsn_mesh_15_pm0082_00_BodyCSkin","skin":6},{"mesh":14,"name":"vsn_mesh_16_pm0082_00_BodyCSkin","skin":7},{"mesh":15,"name":"vsn_mesh_17_pm0082_00_BodyCSkin","skin":8},{"mesh":0,"name":"vsn_mesh_1_pm0082_00_BodyASkin","skin":9},{"mesh":13,"name":"vsn_mesh_2_pm0082_00_BodyASkin","skin":10},{"mesh":6,"name":"vsn_mesh_3_pm0082_00_BodyASkin","skin":11},{"mesh":10,"name":"vsn_mesh_4_pm0082_00_BodyASkin","skin":12},{"mesh":9,"name":"vsn_mesh_5_pm0082_00_BodyASkin","skin":13},{"mesh":17,"name":"vsn_mesh_6_pm0082_00_BodyBSkin","skin":14},{"mesh":1,"name":"vsn_mesh_7_pm0082_00_BodyBSkin","skin":15},{"mesh":8,"name":"vsn_mesh_8_pm0082_00_BodyBSkin","skin":16},{"mesh":12,"name":"vsn_mesh_9_pm0082_00_BodyBSkin","skin":17},{"children":[22,53,54,55],"name":"Armature_pm0082_00","rotation":[-0.7071068286895752,0,0,0.7071068286895752]},{"children":[23,24,35,44],"name":"Armature_Waist","rotation":[0,-0.7071068286895752,0,0.7071068286895752],"scale":[1,0.9999999403953552,1]},{"name":"Armature_EndWaist","translation":[41.56880187988281,-9.5367431640625e-7,0.00014886396820656955]},{"children":[25,27,29,31,33],"name":"Armature_WaistA","translation":[53.514503479003906,-9.5367431640625e-7,0.00019125681137666106]},{"children":[26],"name":"Armature_HeadA","rotation":[0,0.7071055769920349,0,0.7071080803871155],"translation":[8.827003479003906,0,0.000032038718927651644]},{"name":"Armature_EndHeadA","rotation":[0,-0.7071055769920349,0,0.7071080803871155],"translation":[0.000002871936885640025,0,16.059814453125]},{"children":[28],"name":"Armature_LArmA","rotation":[0,0.9848074913024902,0,0.1736500859260559],"translation":[4.165523052215576,0.06507492065429688,-11.873387336730957]},{"name":"Armature_EndLArmA","rotation":[0,-0.7085628509521484,0,0.7056477665901184],"scale":[1,0.9999999403953552,1],"translation":[-0.00002002716064453125,-9.5367431640625e-7,23.12559700012207]},{"children":[30],"name":"Armature_LLegA","rotation":[0,-0.9876521229743958,0,0.156663179397583],"translation":[-7.273262023925781,-3.4222071170806885,-3.7506961822509766]},{"name":"Armature_EndLLegA","rotation":[0,-0.5512261986732483,0,0.834355890750885],"translation":[-1.029052734375,-10.0999116897583,5.797369003295898]},{"children":[32],"name":"Armature_RArmA","rotation":[0,0.17364680767059326,0,0.984808087348938],"scale":[0.9999999403953552,1,0.9999999403953552],"translation":[4.165405750274658,0.06507396697998047,11.873419761657715]},{"name":"Armature_EndRArmA","rotation":[0,-0.7056488394737244,0,0.7085617184638977],"scale":[1,0.9999999403953552,1],"translation":[0.0000057220458984375,9.462237358093262e-7,23.125682830810547]},{"children":[34],"name":"Armature_RLegA","rotation":[0,0.9963353276252747,0,0.08553294092416763],"translation":[-7.273273468017578,-3.4221813678741455,3.7506420612335205]},{"name":"Armature_EndRLegA","rotation":[0,-0.9968860149383545,0,0.07885605096817017],"scale":[0.9999999403953552,1,0.9999999403953552],"translation":[-0.1902608871459961,-10.100010871887207,-5.884969234466553]},{"children":[36,38,40,42],"name":"Armature_WaistB","translation":[13.500000953674316,-9.5367431640625e-7,29.985149383544922]},{"children":[37],"name":"Armature_HeadB","rotation":[0,0.7071054577827454,0,0.7071080803871155],"translation":[9,0,0.0000333487696480006]},{"name":"Armature_EndHeadB","rotation":[0,-0.7071054577827454,0,0.7071080803871155],"translation":[0.0000011324882507324219,0,16]},{"children":[39],"name":"Armature_LArmB","rotation":[0,0.9848074316978455,0,0.17365041375160217],"translation":[4.179925918579102,0.06507492065429688,-11.873385429382324]},{"name":"Armature_EndLArmB","rotation":[0,-0.7085621356964111,0,0.7056484818458557],"scale":[1,0.9999999403953552,1],"translation":[0.0000017881393432617188,-7.450580596923828e-9,23.12560272216797]},{"children":[41],"name":"Armature_RArmB","rotation":[0,0.1736467182636261,0,0.9848080277442932],"scale":[0.9999999403953552,1,0.9999999403953552],"translation":[4.179793357849121,0.06507396697998047,11.87338924407959]},{"name":"Armature_EndRArmB","rotation":[0,-0.70564866065979,0,0.7085619568824768],"translation":[0.000003814697265625,0.0000019073486328125,23.125732421875]},{"children":[43],"name":"Armature_RLegB","rotation":[0,0.9963353276252747,0,0.08553293347358704],"translation":[-7.258871078491211,-3.4221889972686768,3.7506368160247803]},{"name":"Armature_EndRLegB","rotation":[0,-0.4541931748390198,0,0.8909032344818115],"translation":[-0.19025802612304688,-10.100020408630371,-5.884981632232666]},{"children":[45,47,49,51],"name":"Armature_WaistC","translation":[13.499998092651367,-9.5367431640625e-7,-29.985048294067383]},{"children":[46],"name":"Armature_HeadC","rotation":[0,0.7071055769920349,0,0.7071080803871155],"translation":[8.999999046325684,0,0.000027626723749563098]},{"name":"Armature_EndHeadC","rotation":[0,-0.7071055769920349,0,0.7071080803871155],"translation":[3.5762786865234375e-7,0,16.000001907348633]},{"children":[48],"name":"Armature_LArmC","rotation":[0,0.9848073720932007,0,0.1736506074666977],"translation":[4.180147171020508,0.06507492065429688,-11.873412132263184]},{"name":"Armature_EndLArmC","rotation":[0,-0.7085621953010559,0,0.7056484222412109],"translation":[0.00001049041748046875,0,23.125591278076172]},{"children":[50],"name":"Armature_LLegC","rotation":[0,-0.9876526594161987,0,0.15665991604328156],"translation":[-7.258656978607178,-3.4221813678741455,-3.750681161880493]},{"name":"Armature_EndLLegC","rotation":[0,-0.5512252449989319,0,0.8343566060066223],"translation":[-1.029012680053711,-10.099942207336426,5.797402381896973]},{"children":[52],"name":"Armature_RArmC","rotation":[0,0.17364680767059326,0,0.984808087348938],"scale":[0.9999999403953552,1,0.9999999403953552],"translation":[4.18001651763916,0.06507301330566406,11.873414039611816]},{"name":"Armature_EndRArmC","rotation":[0,-0.7056489586830139,0,0.7085616588592529],"scale":[0.9999999403953552,0.9999999403953552,0.9999999403953552],"translation":[-0.000006198883056640625,0.0000018998980522155762,23.125694274902344]},{"name":"Armature_pm0082_00_BodyASkin"},{"name":"Armature_pm0082_00_BodyBSkin"},{"name":"Armature_pm0082_00_BodyCSkin"}],"samplers":[{}],"scene":0,"scenes":[{"name":"Scene","nodes":[0,2,1]}],"skins":[{"inverseBindMatrices":0,"joints":[21,22,23,24,25,26,27,28,29,30,31,32,33,34,35,36,37,38,39,40,41,42,43,44,45,46,47,48,49,50,51,52,53,54,55],"skeleton":0},{"inverseBindMatrices":1,"joints":[21,22,23,24,25,26,27,28,29,30,31,32,33,34,35,36,37,38,39,40,41,42,43,44,45,46,47,48,49,50,51,52,53,54,55],"skeleton":0},{"inverseBindMatrices":2,"joints":[21,22,23,24,25,26,27,28,29,30,31,32,33,34,35,36,37,38,39,40,41,42,43,44,45,46,47,48,49,50,51,52,53,54,55],"skeleton":0},{"inverseBindMatrices":3,"joints":[21,22,23,24,25,26,27,28,29,30,31,32,33,34,35,36,37,38,39,40,41,42,43,44,45,46,47,48,49,50,51,52,53,54,55],"skeleton":0},{"inverseBindMatrices":4,"joints":[21,22,23,24,25,26,27,28,29,30,31,32,33,34,35,36,37,38,39,40,41,42,43,44,45,46,47,48,49,50,51,52,53,54,55],"skeleton":0},{"inverseBindMatrices":5,"joints":[21,22,23,24,25,26,27,28,29,30,31,32,33,34,35,36,37,38,39,40,41,42,43,44,45,46,47,48,49,50,51,52,53,54,55],"skeleton":0},{"inverseBindMatrices":6,"joints":[21,22,23,24,25,26,27,28,29,30,31,32,33,34,35,36,37,38,39,40,41,42,43,44,45,46,47,48,49,50,51,52,53,54,55],"skeleton":0},{"inverseBindMatrices":7,"joints":[21,22,23,24,25,26,27,28,29,30,31,32,33,34,35,36,37,38,39,40,41,42,43,44,45,46,47,48,49,50,51,52,53,54,55],"skeleton":0},{"inverseBindMatrices":8,"joints":[21,22,23,24,25,26,27,28,29,30,31,32,33,34,35,36,37,38,39,40,41,42,43,44,45,46,47,48,49,50,51,52,53,54,55],"skeleton":0},{"inverseBindMatrices":9,"joints":[21,22,23,24,25,26,27,28,29,30,31,32,33,34,35,36,37,38,39,40,41,42,43,44,45,46,47,48,49,50,51,52,53,54,55],"skeleton":0},{"inverseBindMatrices":10,"joints":[21,22,23,24,25,26,27,28,29,30,31,32,33,34,35,36,37,38,39,40,41,42,43,44,45,46,47,48,49,50,51,52,53,54,55],"skeleton":0},{"inverseBindMatrices":11,"joints":[21,22,23,24,25,26,27,28,29,30,31,32,33,34,35,36,37,38,39,40,41,42,43,44,45,46,47,48,49,50,51,52,53,54,55],"skeleton":0},{"inverseBindMatrices":12,"joints":[21,22,23,24,25,26,27,28,29,30,31,32,33,34,35,36,37,38,39,40,41,42,43,44,45,46,47,48,49,50,51,52,53,54,55],"skeleton":0},{"inverseBindMatrices":13,"joints":[21,22,23,24,25,26,27,28,29,30,31,32,33,34,35,36,37,38,39,40,41,42,43,44,45,46,47,48,49,50,51,52,53,54,55],"skeleton":0},{"inverseBindMatrices":14,"joints":[21,22,23,24,25,26,27,28,29,30,31,32,33,34,35,36,37,38,39,40,41,42,43,44,45,46,47,48,49,50,51,52,53,54,55],"skeleton":0},{"inverseBindMatrices":15,"joints":[21,22,23,24,25,26,27,28,29,30,31,32,33,34,35,36,37,38,39,40,41,42,43,44,45,46,47,48,49,50,51,52,53,54,55],"skeleton":0},{"inverseBindMatrices":16,"joints":[21,22,23,24,25,26,27,28,29,30,31,32,33,34,35,36,37,38,39,40,41,42,43,44,45,46,47,48,49,50,51,52,53,54,55],"skeleton":0},{"inverseBindMatrices":17,"joints":[21,22,23,24,25,26,27,28,29,30,31,32,33,34,35,36,37,38,39,40,41,42,43,44,45,46,47,48,49,50,51,52,53,54,55],"skeleton":0}],"textures":[{"sampler":0,"source":0},{"sampler":0,"source":0},{"sampler":0,"source":0},{"sampler":0,"source":0},{"sampler":0,"source":0},{"sampler":0,"source":1},{"sampler":0,"source":1},{"sampler":0,"source":1}],"extensionsUsed":["ALI_amc_mesh_compression"],"extensionsRequired":["ALI_amc_mesh_compression"]}