{"accessors":[{"bufferView":0,"componentType":5126,"count":59,"max":[1,0,1.4210854715202004e-14,0,1.4434725523161315e-14,1.4901164746561335e-8,1,0,2.1509422229667163e-22,-1,1.4901164746561335e-8,0,82.56665802001953,31.30596923828125,103.32471466064453,1],"min":[1,0,-1.4434725523161315e-14,0,-1.4210854715202004e-14,-1.4901161193847656e-8,1,0,-2.11758287300673e-22,-1,-1.4901161193847656e-8,0,-82.56671142578125,-141.16600036621094,-11.072810173034668,1],"type":"MAT4","byteOffset":0}],"asset":{"generator":"Khronos Blender glTF 2.0 exporter","version":"2.0"},"bufferViews":[{"buffer":0,"byteLength":3776,"byteOffset":0},{"buffer":0,"byteOffset":3776,"byteLength":88447},{"buffer":0,"byteOffset":92223,"byteLength":144147},{"buffer":0,"byteOffset":236370,"byteLength":4255},{"buffer":0,"byteOffset":240625,"byteLength":7443},{"buffer":0,"byteOffset":248068,"byteLength":24103},{"buffer":0,"byteOffset":272171,"byteLength":8786}],"buffers":[{"byteLength":280957,"uri":"buffer.bin"}],"images":[{"name":"pm0126_00_BodyA1","uri":"pm0126_00_BodyA1.png"},{"name":"pm0126_00_BodyB1","uri":"pm0126_00_BodyB1.png"},{"name":"pm0126_00_BodyD1.tga","uri":"pm0126_00_BodyD1.tga.png"},{"name":"pm0126_00_Eye1","uri":"pm0126_00_Eye1.png"},{"name":"pm0126_00_FireCoreA1.tga","uri":"pm0126_00_FireCoreA1.tga.png"},{"name":"FireStenA1.tga","uri":"FireStenA1.tga.png"}],"materials":[{"name":"BodyA","pbrMetallicRoughness":{"baseColorFactor":[0.6400000190734865,0.6400000190734865,0.6400000190734865,1],"baseColorTexture":{"index":0},"metallicFactor":0}},{"name":"BodyB","pbrMetallicRoughness":{"baseColorFactor":[0.6400000190734865,0.6400000190734865,0.6400000190734865,1],"baseColorTexture":{"index":1},"metallicFactor":0}},{"name":"BodyD","pbrMetallicRoughness":{"baseColorFactor":[0.6400000190734865,0.6400000190734865,0.6400000190734865,1],"baseColorTexture":{"index":2},"metallicFactor":0}},{"name":"Eye_mat","pbrMetallicRoughness":{"baseColorFactor":[0.6400000190734865,0.6400000190734865,0.6400000190734865,1],"baseColorTexture":{"index":3},"metallicFactor":0}},{"name":"FireCoreA_mat","pbrMetallicRoughness":{"baseColorFactor":[0.6400000190734865,0.6400000190734865,0.6400000190734865,1],"baseColorTexture":{"index":4},"metallicFactor":0}},{"name":"FireStenA_mat","pbrMetallicRoughness":{"baseColorFactor":[0.6400000190734865,0.6400000190734865,0.6400000190734865,1],"baseColorTexture":{"index":5},"metallicFactor":0}}],"meshes":[{"name":"FireStenA_OptMesh_6_0","primitives":[{"material":0,"extensions":{"ALI_amc_mesh_compression":{"bufferView":1}}},{"material":1,"extensions":{"ALI_amc_mesh_compression":{"bufferView":2}}},{"material":3,"extensions":{"ALI_amc_mesh_compression":{"bufferView":3}}},{"material":5,"extensions":{"ALI_amc_mesh_compression":{"bufferView":4}}},{"material":2,"extensions":{"ALI_amc_mesh_compression":{"bufferView":5}}},{"material":4,"extensions":{"ALI_amc_mesh_compression":{"bufferView":6}}}]}],"nodes":[{"children":[2,4],"name":"Armature","rotation":[0.7071068286895752,0,0,0.7071067094802856]},{"name":"Camera","rotation":[0.483536034822464,0.33687159419059753,-0.20870360732078552,0.7804827094078064],"translation":[7.481131553649902,5.34366512298584,6.5076398849487305]},{"mesh":0,"name":"FireStenA_OptMesh_6_0_node","skin":0},{"name":"Lamp","rotation":[0.16907575726509094,0.7558802962303162,-0.27217137813568115,0.570947527885437],"scale":[1,1,0.9999999403953552],"translation":[4.076245307922363,5.903861999511719,-1.0054539442062378]},{"children":[5,57,58,59,60,61,62],"name":"Armature_pm0126_00","rotation":[-0.7071068286895752,0,0,0.7071068286895752]},{"children":[6],"name":"Armature_Origin"},{"children":[7,38],"name":"Armature_Waist","translation":[0,61.156864166259766,-11.369229316711426]},{"children":[8],"name":"Armature_Spine1","rotation":[-7.450580596923828e-9,0,0,1]},{"children":[9,20,29],"name":"Armature_Spine2","translation":[0.0000029290999918885063,9.33083724975586,0.2916003167629242]},{"children":[10],"name":"Armature_Neck","rotation":[0,-5.805734039549195e-22,0,1],"translation":[0.0000065592998907959554,20.895065307617188,-0.6747708916664124]},{"children":[11,14,17],"name":"Armature_Head","rotation":[0,5.805734039549195e-22,0,1],"translation":[0.0000021198002286837436,6.752586364746094,0.5637412667274475]},{"children":[12,13],"name":"Armature_RootJaw","rotation":[3.725290742551124e-9,0,0,1],"translation":[-9.094947017729282e-13,1.6672402125550434e-7,-4.450179176274105e-7]},{"name":"Armature_UpperJaw","translation":[0.0000017634019968681969,5.617454528808594,22.2614688873291]},{"name":"Armature_LowerJaw","translation":[7.829994501662441e-7,2.4943466186523438,22.225120544433594]},{"children":[15],"name":"Armature_LFeeler1","translation":[10.234108924865723,29.18292999267578,-4.217231750488281]},{"children":[16],"name":"Armature_LFeeler2","translation":[2.864269256591797,6.663422107696533,-7.765266418457031]},{"name":"Armature_LFeeler3","translation":[2.924149513244629,7.184082508087158,-6.135221481323242]},{"children":[18],"name":"Armature_RFeeler1","translation":[-10.234090805053711,29.182647705078125,-4.217262268066406]},{"children":[19],"name":"Armature_RFeeler2","translation":[-2.8643198013305664,6.663994312286377,-7.765327453613281]},{"name":"Armature_RFeeler3","translation":[-2.9240903854370117,7.184006214141846,-6.135152816772461]},{"children":[21],"name":"Armature_LShoulder","rotation":[0,8.881784197001252e-16,0,1],"translation":[10.580327033996582,3.6360323429107666,1.4132720232009888]},{"children":[22],"name":"Armature_LArm","rotation":[0,-8.881784197001252e-16,0,1],"translation":[11.656940460205078,10.948509216308594,-0.000005408045126387151]},{"children":[23],"name":"Armature_LForeArm","translation":[27.806739807128906,1.4401028636257251e-7,-0.000003500696493574651]},{"children":[24,25,26,27,28],"name":"Armature_LHand","rotation":[1.4901162970204496e-8,0,0,1],"translation":[17.349002838134766,-0.000015114778761926573,-0.000002547022177168401]},{"name":"Armature_LFingerA","rotation":[0,-7.217362761580658e-15,0,1],"translation":[10.529167175292969,-3.824127197265625,8.90133285522461]},{"name":"Armature_LFingerB","translation":[14.953460693359375,-0.17537696659564972,4.642915725708008]},{"name":"Armature_LFingerC","rotation":[0,-1.4791074613411804e-17,0,1],"translation":[15.173698425292969,-0.2898484766483307,-1.2008689641952515]},{"name":"Armature_LFingerD","translation":[13.551528930664062,-1.8608782291412354,-6.132200717926025]},{"name":"Armature_LFingerE","rotation":[0,7.105427357601002e-15,0,1],"translation":[10.15570068359375,-3.370964288711548,-9.120718002319336]},{"children":[30],"name":"Armature_RShoulder","rotation":[0,-8.881784197001252e-16,0,1],"translation":[-10.580302238464355,3.636009454727173,1.413274884223938]},{"children":[31],"name":"Armature_RArm","rotation":[0,8.881784197001252e-16,0,1],"translation":[-11.656978607177734,10.948486328125,-0.000009222742846759502]},{"children":[32],"name":"Armature_RForeArm","rotation":[7.450580596923828e-9,-3.552713678800501e-15,-2.6469779601696886e-23,1],"translation":[-27.806705474853516,0.000038290982047328725,-0.000001593347860762151]},{"children":[33,34,35,36,37],"name":"Armature_RHand","rotation":[0,3.552713678800501e-15,0,1],"translation":[-17.34900665283203,0.0000152587890625,-0.000002861022494471399]},{"name":"Armature_RFingerA","translation":[-10.529220581054688,-3.8240585327148438,8.901336669921875]},{"name":"Armature_RFingerB","translation":[-14.953399658203125,-0.1753692626953125,4.6429123878479]},{"name":"Armature_RFingerC","rotation":[0,-7.120206388464695e-15,0,1],"translation":[-15.173667907714844,-0.2898101806640625,-1.2008419036865234]},{"name":"Armature_RFingerD","rotation":[0,-7.105427357601002e-15,0,1],"translation":[-13.551582336425781,-1.86077880859375,-6.132261276245117]},{"name":"Armature_RFingerE","rotation":[0,-7.105427357601002e-15,0,1],"translation":[-10.15570068359375,-3.3709182739257812,-9.120745658874512]},{"children":[39,44,49],"name":"Armature_Hips","rotation":[-7.450580596923828e-9,0,0,1],"translation":[0,0.0000152587890625,0]},{"children":[40],"name":"Armature_LHips","rotation":[0,-3.552713678800501e-15,0,1],"translation":[24.555341720581055,-13.38595962524414,-0.2258608341217041]},{"children":[41],"name":"Armature_LThigh","rotation":[0,3.552713678800501e-15,0,1],"translation":[4.031721115112305,-8.35751724243164,0.000007263025509018917]},{"children":[42],"name":"Armature_LLeg","translation":[0,-15.435003280639648,2.188493013381958]},{"children":[43],"name":"Armature_LFoot","translation":[0,-14.385164260864258,-5.052182197570801]},{"name":"Armature_LToe","translation":[0,-5.037012577056885,16.014892578125]},{"children":[45],"name":"Armature_RHips","translation":[-24.5552978515625,-13.385978698730469,-0.22587037086486816]},{"children":[46],"name":"Armature_RThigh","rotation":[0,3.552713678800501e-15,0,1],"translation":[-4.031801223754883,-8.35750961303711,-0.0000022737176550435834]},{"children":[47],"name":"Armature_RLeg","rotation":[0,-3.552713678800501e-15,0,1],"translation":[6.750155989720952e-14,-15.434993743896484,2.188518762588501]},{"children":[48],"name":"Armature_RFoot","translation":[0.0000095367431640625,-14.385162353515625,-5.052207946777344]},{"name":"Armature_RToe","translation":[0,-5.037006855010986,16.014917373657227]},{"children":[50],"name":"Armature_Tail1","translation":[5.332310024641629e-7,-29.25820541381836,-18.567790985107422]},{"children":[51],"name":"Armature_Tail2","rotation":[0,-1.7831951482474922e-23,0,1],"translation":[3.7713800793426344e-7,-16.59715461730957,-17.867462158203125]},{"children":[52],"name":"Armature_Tail3","rotation":[0,1.7831951482474922e-23,0,1],"translation":[-2.3428981421602657e-8,-15.174895286560059,-18.0767822265625]},{"children":[53],"name":"Armature_Tail4","rotation":[0,4.440892627896218e-16,0,1],"translation":[-2.1727032617491204e-8,-14.072842597961426,-16.76398468017578]},{"children":[54],"name":"Armature_TailA01","rotation":[0,-4.44089315729181e-16,0,1],"translation":[-2.6815961007287115e-8,-17.359752655029297,-20.679458618164062]},{"children":[55],"name":"Armature_TailA02","rotation":[0,5.785687632443464e-23,0,1],"translation":[-0.0000027217470233154017,10.865228652954102,-0.000007933985216368455]},{"children":[56],"name":"Armature_TailA03","rotation":[0,-1.2479362901064254e-20,0,1],"translation":[-0.000002721759983614902,10.86526107788086,0.000022745498426957056]},{"name":"Armature_TailA04","rotation":[0,1.2474445861622252e-20,0,1],"translation":[-0.000002721750206546858,10.865252494812012,1.921908676649764e-8]},{"name":"Armature_pm0126_00_BodySkin"},{"name":"Armature_pm0126_00_FireEffSkin"},{"name":"Armature_pm0126_00_FireAStenSkin"},{"name":"Armature_pm0126_00_FireCore1Skin"},{"name":"Armature_pm0126_00_FireCore2Skin"},{"name":"Armature_pm0126_00_FireCore3Skin"}],"samplers":[{}],"scene":0,"scenes":[{"name":"Scene","nodes":[0,3,1]}],"skins":[{"inverseBindMatrices":0,"joints":[4,5,6,7,8,9,10,11,12,13,14,15,16,17,18,19,20,21,22,23,24,25,26,27,28,29,30,31,32,33,34,35,36,37,38,39,40,41,42,43,44,45,46,47,48,49,50,51,52,53,54,55,56,57,58,59,60,61,62],"skeleton":0}],"textures":[{"sampler":0,"source":0},{"sampler":0,"source":1},{"sampler":0,"source":2},{"sampler":0,"source":3},{"sampler":0,"source":4},{"sampler":0,"source":5}],"extensionsUsed":["ALI_amc_mesh_compression"],"extensionsRequired":["ALI_amc_mesh_compression"]}