{"accessors":[{"bufferView":0,"componentType":5126,"count":68,"max":[1,0,1.0000001192092896,0,0.9978342056274414,0,1,0,0,-1,0,0,108.03009033203125,63.18302917480469,246.95489501953125,1],"min":[-0.9666514992713928,0,-0.9978342056274414,0,-1.0000001192092896,0,-0.9666514992713928,0,0,-1,0,0,-184.96116638183594,-45.21165084838867,-172.26004028320312,1],"type":"MAT4","byteOffset":0}],"asset":{"generator":"Khronos Blender glTF 2.0 exporter","version":"2.0"},"bufferViews":[{"buffer":0,"byteLength":4352,"byteOffset":0},{"buffer":0,"byteOffset":4352,"byteLength":1075},{"buffer":0,"byteOffset":5427,"byteLength":78373},{"buffer":0,"byteOffset":83800,"byteLength":113605}],"buffers":[{"byteLength":197405,"uri":"buffer.bin"}],"images":[{"name":"pm0144_00_BodyB1","uri":"pm0144_00_BodyB1.png"},{"name":"pm0144_00_Eye1","uri":"pm0144_00_Eye1.png"},{"name":"pm0144_00_BodyA1","uri":"pm0144_00_BodyA1.png"}],"materials":[{"alphaMode":"OPAQUE","name":"Material__35","pbrMetallicRoughness":{"baseColorFactor":[0.6400000190734865,0.6400000190734865,0.6400000190734865,1],"baseColorTexture":{"index":0},"metallicFactor":0}},{"alphaMode":"OPAQUE","name":"Material__36","pbrMetallicRoughness":{"baseColorFactor":[0.6400000190734865,0.6400000190734865,0.6400000190734865,1],"baseColorTexture":{"index":1},"metallicFactor":0}},{"alphaMode":"OPAQUE","name":"Material__37","pbrMetallicRoughness":{"baseColorFactor":[0.6400000190734865,0.6400000190734865,0.6400000190734865,1],"baseColorTexture":{"index":2},"metallicFactor":0}}],"meshes":[{"name":"Articuno","primitives":[{"material":1,"extensions":{"ALI_amc_mesh_compression":{"bufferView":1}}},{"material":0,"extensions":{"ALI_amc_mesh_compression":{"bufferView":2}}},{"material":2,"extensions":{"ALI_amc_mesh_compression":{"bufferView":3}}}]}],"nodes":[{"children":[1,4],"name":"Armature","scale":[0.02539999969303608,0.02539999969303608,0.02539999969303608]},{"mesh":0,"name":"Articuno","skin":0},{"name":"Camera","rotation":[0.483536034822464,0.33687159419059753,-0.20870360732078552,0.7804827094078064],"translation":[7.481131553649902,5.34366512298584,6.5076398849487305]},{"name":"Lamp","rotation":[0.16907575726509094,0.7558802962303162,-0.27217137813568115,0.570947527885437],"scale":[1,1,0.9999999403953552],"translation":[4.076245307922363,5.903861999511719,-1.0054539442062378]},{"children":[5,71],"name":"Armature_pm0144_00","rotation":[-0.7071068286895752,0,0,0.7071068286895752]},{"children":[6],"name":"Armature_Origin"},{"children":[7,46],"name":"Armature_Waist","rotation":[0,-0.8019384741783142,0,0.5974066257476807],"translation":[0,2.2756567001342773,78.10449981689453]},{"children":[8,25,28,29],"name":"Armature_Hips","rotation":[0,-0.9894868731498718,0,0.14462269842624664],"scale":[0.9999998807907104,1,0.9999998807907104],"translation":[-3.929604872610071e-7,0.000003337860107421875,-0.0000013155405440556933]},{"children":[9],"name":"Armature_LThigh","rotation":[0,-0.36797359585762024,0,0.9298362135887146],"scale":[0.9999999403953552,1,0.9999999403953552],"translation":[12.020919799804688,3.0235354900360107,13.742131233215332]},{"children":[10],"name":"Armature_LLeg","rotation":[0,-0.238017737865448,0,0.9712608456611633],"scale":[0.9999999403953552,1,0.9999999403953552],"translation":[21.348106384277344,-27.474506378173828,-20.034160614013672]},{"children":[11,12,16,19,22],"name":"Armature_LFoot","rotation":[0,-0.5737975239753723,0,0.8189972043037415],"translation":[2.1663386821746826,-18.757299423217773,-6.193212509155273]},{"name":"Armature_EndLFoot","rotation":[0,-1.4901161193847656e-8,0,1],"translation":[5.2832231521606445,-5.573726654052734,4.316350936889648]},{"children":[13],"name":"Armature_LToeA1","rotation":[0,0.03507113456726074,0,0.9993848204612732],"scale":[1.0000001192092896,1,1.0000001192092896],"translation":[-1.7586731910705566,-7.263301849365234,5.779985427856445]},{"children":[14],"name":"Armature_LToeA2","rotation":[0,-0.16681338846683502,0,0.9859884977340698],"translation":[1.156813144683838,-4.31707763671875,2.9187469482421875]},{"children":[15],"name":"Armature_LToeA3","rotation":[0,-2.9802322387695312e-8,0,1],"translation":[2.7897491455078125,-2.6880760192871094,2.5726752281188965]},{"name":"Armature_EndLToeA3","translation":[8.283806800842285,-7.981956481933594,7.639257907867432]},{"children":[17],"name":"Armature_LToeB1","rotation":[0,0.050195612013339996,0,0.9987394213676453],"scale":[0.9999999403953552,1,0.9999999403953552],"translation":[2.777986526489258,-8.613895416259766,2.269594192504883]},{"children":[18],"name":"Armature_LToeB2","translation":[3.1675806045532227,-4.480316162109375,3.167904853820801]},{"name":"Armature_LToeB3","rotation":[0,-0.040996864438056946,0,0.9991592764854431],"scale":[0.9999999403953552,1,0.9999999403953552],"translation":[2.3995065689086914,-3.394001007080078,2.3997507095336914]},{"children":[20],"name":"Armature_LToeC1","rotation":[0,0.24925115704536438,0,0.9684388637542725],"scale":[0.9999999403953552,1,0.9999999403953552],"translation":[5.523608207702637,-7.423500061035156,-2.8834381103515625]},{"children":[21],"name":"Armature_LToeC2","rotation":[0,-0.17518705129623413,0,0.9845352172851562],"scale":[0.9999999403953552,1,0.9999999403953552],"translation":[2.2170772552490234,-4.168285369873047,1.9698963165283203]},{"name":"Armature_LToeC3","rotation":[0,0.060913216322660446,0,0.9981430768966675],"translation":[3.2716121673583984,-2.610401153564453,1.7843255996704102]},{"children":[23],"name":"Armature_LToeD1","rotation":[0,0.8264418840408325,0,0.5630220770835876],"translation":[-4.734515190124512,-1.4499320983886719,-3.867990493774414]},{"children":[24],"name":"Armature_LToeD2","rotation":[0,-5.960465188081798e-8,0,1],"scale":[0.9999999403953552,1,0.9999999403953552],"translation":[3.5907201766967773,2.3084716796875,-2.013509750366211]},{"name":"Armature_EndLToeD2","rotation":[0,1.4901162970204496e-8,0,1],"scale":[0.9999999403953552,1,0.9999999403953552],"translation":[7.522584438323975,4.836277008056641,-4.218319892883301]},{"children":[26],"name":"Armature_Tail1","rotation":[0,0.33437398076057434,0,0.9424405097961426],"translation":[20.667728424072266,17.33308982849121,-0.0000016466510714963078]},{"children":[27],"name":"Armature_Tail2","rotation":[0,0.09524673968553543,0,0.9954537153244019],"translation":[6.406764984130859,6.69883918762207,5.200869560241699]},{"name":"Armature_Tail3","rotation":[0,-4.470348358154297e-8,0,1],"translation":[10.196152687072754,18.904062271118164,12.151298522949219]},{"name":"Armature_EndHips","rotation":[0,2.1855612430954352e-8,0,1],"translation":[45.450096130371094,2.384185791015625e-7,-0.0000036211713450029492]},{"children":[30],"name":"Armature_RThigh","rotation":[0,-0.36797359585762024,0,0.9298362135887146],"scale":[0.9999999403953552,1,0.9999999403953552],"translation":[12.021026611328125,3.0235636234283447,-13.742074012756348]},{"children":[31],"name":"Armature_RLeg","rotation":[0,-0.2380177080631256,0,0.9712608456611633],"translation":[21.347938537597656,-27.474502563476562,-20.034008026123047]},{"children":[32,33,37,40,43],"name":"Armature_RFoot","rotation":[0,-0.5737975835800171,0,0.8189971446990967],"translation":[2.1663570404052734,-18.75722885131836,-6.193271636962891]},{"name":"Armature_EndRFoot","rotation":[0,-1.4901161193847656e-8,0,1],"translation":[5.283232688903809,-5.573726654052734,4.316359519958496]},{"children":[34],"name":"Armature_RToeA1","rotation":[0,0.2389417588710785,0,0.9710339307785034],"translation":[5.312961578369141,-7.263359069824219,-2.875898838043213]},{"children":[35],"name":"Armature_RToeA2","rotation":[0,-0.16681283712387085,0,0.9859885573387146],"translation":[2.3411307334899902,-4.317165374755859,2.0921599864959717]},{"children":[36],"name":"Armature_RToeA3","rotation":[0,1.4901161193847656e-8,0,1],"translation":[3.3167099952697754,-2.6879920959472656,1.8439960479736328]},{"name":"Armature_EndRToeA3","rotation":[0,1.4901161193847656e-8,0,1],"translation":[9.848739624023438,-7.981952667236328,5.475605010986328]},{"children":[38],"name":"Armature_RToeB1","rotation":[0,0.0501955971121788,0,0.9987394213676453],"scale":[0.9999999403953552,1,0.9999999403953552],"translation":[2.7779541015625,-8.61397933959961,2.2695693969726562]},{"children":[39],"name":"Armature_RToeB2","translation":[3.167583465576172,-4.480308532714844,3.167901039123535]},{"name":"Armature_RToeB3","rotation":[0,-0.04099683463573456,0,0.9991592764854431],"scale":[1.0000001192092896,1,1.0000001192092896],"translation":[2.3994884490966797,-3.3939895629882812,2.3997392654418945]},{"children":[41],"name":"Armature_RToeC1","rotation":[0,0.036940574645996094,0,0.999317467212677],"scale":[0.9999999403953552,1,0.9999999403953552],"translation":[-1.7241296768188477,-7.423511505126953,5.987678527832031]},{"children":[42],"name":"Armature_RToeC2","rotation":[0,-0.17518767714500427,0,0.9845350980758667],"scale":[0.9999999403953552,1,0.9999999403953552],"translation":[1.0154848098754883,-4.168220520019531,2.786566734313965]},{"name":"Armature_RToeC3","rotation":[0,0.06091327592730522,0,0.9981430768966675],"translation":[2.7416982650756836,-2.6104736328125,2.5239171981811523]},{"children":[44],"name":"Armature_RToeD1","rotation":[0,0.8264418840408325,0,0.5630220770835876],"translation":[-4.734552383422852,-1.4499092102050781,-3.8680171966552734]},{"children":[45],"name":"Armature_RToeD2","scale":[0.9999999403953552,1,0.9999999403953552],"translation":[3.5907936096191406,2.3085250854492188,-2.0135488510131836]},{"name":"Armature_EndRToeD2","scale":[0.9999999403953552,1,0.9999999403953552],"translation":[7.522584438323975,4.836238861083984,-4.218316078186035]},{"children":[47],"name":"Armature_Spine1","rotation":[0,3.8743019104003906e-7,0,1],"translation":[-0.000044165986764710397,-0.000007867813110351562,-0.00003615496098063886]},{"children":[48,57,64],"name":"Armature_Spine2","rotation":[0,0.11198633164167404,0,0.9937097430229187],"translation":[15.059745788574219,-4.694711685180664,-4.498382091522217]},{"children":[49,53],"name":"Armature_Neck","rotation":[0,0.23361913859844208,0,0.9723281860351562],"scale":[0.9999999403953552,1,0.9999999403953552],"translation":[16.95821762084961,-1.1202561855316162,-1.117846965789795]},{"children":[50],"name":"Armature_FeelerB1","rotation":[0,0.9479321837425232,0,0.31847235560417175],"translation":[0.43046891689300537,-14.512179374694824,0.18497589230537415]},{"children":[51],"name":"Armature_FeelerB2","rotation":[0,0.11441528797149658,0,0.9934329986572266],"scale":[0.9999999403953552,1,0.9999999403953552],"translation":[14.93713092803955,-3.805744171142578,-3.694387674331665]},{"children":[52],"name":"Armature_FeelerB3","rotation":[0,0.04273971915245056,0,0.9990862607955933],"translation":[18.752182006835938,-0.2460803985595703,-0.2462378293275833]},{"name":"Armature_EndFeelerB3","scale":[0.9999999403953552,1,0.9999999403953552],"translation":[23.635053634643555,1.71807861328125,1.7135858535766602]},{"children":[54,55],"name":"Armature_Head","rotation":[0,0.051842935383319855,0,0.9986552596092224],"translation":[7.915374755859375,3.7011921405792236,3.4005727767944336]},{"name":"Armature_EndHead","rotation":[0,-2.9802322387695312e-8,0,1],"translation":[25.332561492919922,16.212848663330078,14.153575897216797]},{"children":[56],"name":"Armature_Jaw","rotation":[0,-0.7899082899093628,0,0.6132250428199768],"translation":[8.823484420776367,-5.748173713684082,4.929803371429443]},{"name":"Armature_EndJaw","rotation":[0,1.4901161193847656e-8,0,1],"translation":[0.9238248467445374,-13.615653991699219,-3.4869935512542725]},{"children":[58],"name":"Armature_RShoulder","rotation":[0,0.6475808620452881,0,0.7619967460632324],"translation":[9.781928062438965,1.0080453157424927,4.141866683959961]},{"children":[59],"name":"Armature_RArm","rotation":[0,-0.874799907207489,0,0.48448461294174194],"translation":[-9.52576732635498,1.5491844415664673,4.6967034339904785]},{"children":[60],"name":"Armature_RForeArm1","rotation":[0,-0.2557263970375061,0,0.9667491912841797],"translation":[45.64397430419922,6.317531585693359,21.93017578125]},{"children":[61],"name":"Armature_RForeArm2","rotation":[0,-0.46276524662971497,0,0.8864808678627014],"scale":[0.9999998807907104,1,0.9999998807907104],"translation":[41.219940185546875,-6.769589900970459,-23.27976417541504]},{"children":[62],"name":"Armature_RHand1","rotation":[0,0.01573897711932659,0,0.9998761415481567],"translation":[5.885530471801758,-3.4174599647521973,-20.562149047851562]},{"children":[63],"name":"Armature_RHand2","rotation":[0,-3.2782554626464844e-7,0,1],"translation":[24.106281280517578,-2.773151397705078,-16.8291015625]},{"name":"Armature_EndRHand2","translation":[39.5495491027832,-4.549233913421631,-27.60784912109375]},{"children":[65],"name":"Armature_LShoulder","rotation":[0,0.6475846767425537,0,0.7619936466217041],"scale":[0.9999999403953552,1,0.9999999403953552],"translation":[9.1533784866333,1.0080432891845703,-5.3899245262146]},{"children":[66],"name":"Armature_LArm","rotation":[0,-0.03707093000411987,0,0.9993126392364502],"translation":[10.62059497833252,1.54926598072052,0.025998353958129883]},{"children":[67],"name":"Armature_LForeArm1","rotation":[0,-0.25572580099105835,0,0.966749370098114],"scale":[0.9999999403953552,1,0.9999999403953552],"translation":[50.61057662963867,6.317409515380859,1.716531753540039]},{"children":[68],"name":"Armature_LForeArm2","rotation":[0,0.10131395608186722,0,0.9948545098304749],"scale":[0.9999998807907104,1,0.9999998807907104],"translation":[47.30442810058594,-6.769463062286377,-1.8218765258789062]},{"children":[69],"name":"Armature_LHand1","rotation":[0,0.322562038898468,0,0.946548342704773],"scale":[0.9999998807907104,1,0.9999998807907104],"translation":[21.38329315185547,-3.417607545852661,-0.4233856201171875]},{"children":[70],"name":"Armature_LHand2","rotation":[0,-4.6566128730773926e-8,0,1],"translation":[29.397573471069336,-2.773041009902954,-0.41396617889404297]},{"name":"Armature_EndLHand2","translation":[48.227535247802734,-4.549240589141846,-0.6791086196899414]},{"name":"Armature_pm0144_00_Skin"}],"samplers":[{}],"scene":0,"scenes":[{"name":"Scene","nodes":[0,3,2]}],"skins":[{"inverseBindMatrices":0,"joints":[4,5,6,7,8,9,10,11,12,13,14,15,16,17,18,19,20,21,22,23,24,25,26,27,28,29,30,31,32,33,34,35,36,37,38,39,40,41,42,43,44,45,46,47,48,49,50,51,52,53,54,55,56,57,58,59,60,61,62,63,64,65,66,67,68,69,70,71],"skeleton":0}],"textures":[{"sampler":0,"source":0},{"sampler":0,"source":1},{"sampler":0,"source":2}],"extensionsUsed":["ALI_amc_mesh_compression"],"extensionsRequired":["ALI_amc_mesh_compression"]}