{"accessors":[{"bufferView":0,"componentType":5126,"count":29,"max":[0.0000037392021567939082,-1,0.000003738896339200437,0,0.9999191164970398,-2.0111801113387173e-10,0.8183431029319763,0,1.0000001192092896,0.0000037392021567939082,0.9999189972877502,0,225.8470001220703,20.139562606811523,327.908447265625,1],"min":[-0.0000030600649552070536,-1,-0.0000037385984796856064,0,-0.999839723110199,-2.0111801113387173e-10,-1.000000238418579,0,-0.8183429837226868,0.0000037392021567939082,-0.9998396039009094,0,-374.0352478027344,-20.14065170288086,-302.0763854980469,1],"type":"MAT4","byteOffset":0}],"asset":{"generator":"Khronos Blender glTF 2.0 exporter","version":"2.0"},"bufferViews":[{"buffer":0,"byteLength":1856,"byteOffset":0},{"buffer":0,"byteOffset":1856,"byteLength":1123},{"buffer":0,"byteOffset":2979,"byteLength":5595},{"buffer":0,"byteOffset":8574,"byteLength":107905}],"buffers":[{"byteLength":116479,"uri":"buffer.bin"}],"images":[{"name":"pm0148_00_Mouth1","uri":"pm0148_00_Mouth1.png"},{"name":"pm0148_00_Body1","uri":"pm0148_00_Body1.png"},{"name":"pm0148_00_Eye1","uri":"pm0148_00_Eye1.png"}],"materials":[{"alphaMode":"OPAQUE","name":"Material__194","pbrMetallicRoughness":{"baseColorFactor":[0.6400000190734865,0.6400000190734865,0.6400000190734865,1],"baseColorTexture":{"index":0},"metallicFactor":0}},{"alphaMode":"OPAQUE","name":"Material__195","pbrMetallicRoughness":{"baseColorFactor":[0.6400000190734865,0.6400000190734865,0.6400000190734865,1],"baseColorTexture":{"index":1},"metallicFactor":0}},{"alphaMode":"OPAQUE","name":"Material__196","pbrMetallicRoughness":{"baseColorFactor":[0.6400000190734865,0.6400000190734865,0.6400000190734865,1],"baseColorTexture":{"index":2},"metallicFactor":0}}],"meshes":[{"name":"Dragonair","primitives":[{"material":0,"extensions":{"ALI_amc_mesh_compression":{"bufferView":1}}},{"material":2,"extensions":{"ALI_amc_mesh_compression":{"bufferView":2}}},{"material":1,"extensions":{"ALI_amc_mesh_compression":{"bufferView":3}}}]}],"nodes":[{"name":"Camera","rotation":[0.483536034822464,0.33687159419059753,-0.20870360732078552,0.7804827094078064],"translation":[7.481131553649902,5.34366512298584,6.5076398849487305]},{"mesh":0,"name":"Dragonair","rotation":[0.004504603799432516,-0.7070937752723694,0.004504750948399305,0.7070910930633545],"scale":[1,1.0000001192092896,0.9999999403953552],"skin":0,"translation":[-225.94873046875,-4.206497669219971,-0.0008449999731965363]},{"name":"EndFeeler","translation":[10.55370044708252,-0.00006103519990574569,3.725290076417309e-9]},{"name":"EndHead","translation":[34.343379974365234,-0.00003051759995287284,-9.997750112233916e-7]},{"name":"EndLEar2","translation":[20.991100311279297,0,-0.000007629389983776491]},{"name":"EndREar2","translation":[20.99087905883789,-0.00003051759995287284,0.00001525879997643642]},{"name":"EndTail10","translation":[14.364899635314941,0,0]},{"name":"EnvironmentAmbientLight","scale":[0.02539999969303608,0.02539999969303608,0.02539999969303608]},{"name":"Lamp","rotation":[0.16907575726509094,0.7558802962303162,-0.27217137813568115,0.570947527885437],"scale":[1,1,0.9999999403953552],"translation":[4.076245307922363,5.903861999511719,-1.0054539442062378]},{"children":[12],"name":"Origin"},{"children":[9,11],"name":"pm0148_00","rotation":[0.7071065902709961,0,0,0.7071069478988647],"scale":[0.02539999969303608,0.02539999969303608,0.02539999969303608]},{"name":"pm0148_00_Skin"},{"children":[1,13,25],"name":"Waist","rotation":[-0.004504603799432516,0.7070937752723694,-0.004504587035626173,0.7070910930633545],"scale":[0.9999998807907104,0.9999998211860657,1],"translation":[0,1.3274199962615967,-225.98399353027344]},{"children":[14],"name":"Waist_Hips","rotation":[-0.4958069324493408,0.5041581988334656,-0.5041581988334656,0.4958069324493408],"translation":[-230.1551513671875,221.74227905273438,-0.0008654909324832261]},{"children":[15],"name":"Waist_Tail1","rotation":[0,-0.005762545857578516,0,0.9999834299087524],"translation":[18.983997344970703,-0.00011920928955078125,0.634401798248291]},{"children":[16],"name":"Waist_Tail2","rotation":[0,0.0014659753069281578,0,0.999998927116394],"scale":[0.9999999403953552,1,0.9999999403953552],"translation":[21.66154670715332,-0.0001354217529296875,0.2243098020553589]},{"children":[17],"name":"Waist_Tail3","rotation":[0,0.0015195010928437114,0,0.9999988675117493],"translation":[25.271554946899414,-0.0001583099947310984,0.40993475914001465]},{"children":[18],"name":"Waist_Tail4","rotation":[0,-4.656613428188905e-10,0,1],"scale":[0.9999999403953552,1,0.9999999403953552],"translation":[28.291675567626953,-0.00017738339374773204,0.6309285163879395]},{"children":[19],"name":"Waist_Tail5","rotation":[0,0.004212485160678625,0,0.9999911785125732],"scale":[0.9999999403953552,1,0.9999999403953552],"translation":[29.87270164489746,-0.00018739700317382812,0.6661679744720459]},{"children":[20],"name":"Waist_Tail6","rotation":[0,0.0038444893434643745,0,0.9999926090240479],"scale":[0.9999999403953552,1,0.9999999403953552],"translation":[29.462440490722656,-0.00018548965454101562,1.1539469957351685]},{"children":[21],"name":"Waist_Tail7","rotation":[0,0.0011750486446544528,0,0.9999993443489075],"translation":[27.594036102294922,-0.00017499923706054688,1.5060606002807617]},{"children":[22],"name":"Waist_Tail8","rotation":[0,0.0006089798407629132,0,0.9999998211860657],"translation":[29.635265350341797,-0.00018835064838640392,1.757201910018921]},{"children":[23],"name":"Waist_Tail9","rotation":[0,0.002725477097555995,0,0.9999963045120239],"translation":[21.047422409057617,-0.000133514404296875,1.2994544506072998]},{"children":[24],"name":"Waist_Tail10","rotation":[0,-0.003916490823030472,0,0.9999924302101135],"scale":[0.9999999403953552,1,0.9999999403953552],"translation":[11.38356876373291,-0.000072479248046875,0.8274812698364258]},{"name":"Waist_EndTail10","rotation":[0,9.31322685637781e-10,0,1],"scale":[0.9999999403953552,1,0.9999999403953552],"translation":[14.341657638549805,-0.00009107595542445779,0.8168774843215942]},{"children":[26],"name":"Waist_Spine1","rotation":[-0.5000001192092896,-0.4999999701976776,0.4999999701976776,0.5000001192092896],"translation":[-230.1551513671875,221.7423095703125,-0.0008654901757836342]},{"children":[27],"name":"Waist_Spine2","translation":[25.038837432861328,0.00009238719940185547,0.0000011747179087251425]},{"children":[28],"name":"Waist_Spine3","translation":[19.944385528564453,0.00007361173629760742,0.00000743559212423861]},{"children":[29],"name":"Waist_Spine4","translation":[18.555988311767578,0.00006848573684692383,-0.0000019981671357527375]},{"children":[30],"name":"Waist_Spine5","translation":[17.786426544189453,0.00006565451622009277,0.0000035852935980074108]},{"children":[31,33],"name":"Waist_Spine6","translation":[17.054431915283203,0.0000629425048828125,-0.000006319824024103582]},{"children":[32],"name":"Waist_Feeler","rotation":[0,-0.7114586234092712,0,0.7027279734611511],"translation":[3.4764883518218994,0.00003653764724731445,6.159739017486572]},{"name":"Waist_EndFeeler","rotation":[0,2.7939677238464355e-8,0,1],"translation":[10.55372142791748,-0.004100203514099121,0.00004553794860839844]},{"children":[34],"name":"Waist_Spine7","rotation":[0,0.06545818597078323,0,0.9978553056716919],"translation":[14.102985382080078,0.000052034854888916016,-0.0000018926657503470778]},{"children":[35,36,39],"name":"Waist_Head","rotation":[0,-0.2083030641078949,0,0.9780643582344055],"translation":[15.402196884155273,0.000049591064453125,-0.0000152587890625]},{"name":"Waist_EndHead","rotation":[0,1.4901161193847656e-8,0,1],"translation":[34.343406677246094,0.0001601874828338623,-0.0000457763671875]},{"children":[37],"name":"Waist_LEar1","rotation":[0,0.5787738561630249,0,0.8154881000518799],"translation":[14.733573913574219,-14.76103687286377,0.14710235595703125]},{"children":[38],"name":"Waist_LEar2","rotation":[0,-0.047323182225227356,0,0.9988797307014465],"scale":[0.9999999403953552,1,0.9999999403953552],"translation":[12.659366607666016,-1.8100395202636719,-0.1802520751953125]},{"name":"Waist_EndLEar2","rotation":[0,-4.470348358154297e-8,0,1],"translation":[20.6824951171875,-3.568971633911133,-0.3520660400390625]},{"children":[40],"name":"Waist_REar1","rotation":[0,0.5787742733955383,0,0.815487802028656],"scale":[0.9999999403953552,1,0.9999999403953552],"translation":[14.733413696289062,14.761164665222168,0.147003173828125]},{"children":[41],"name":"Waist_REar2","rotation":[0,-0.04731719568371773,0,0.9988799095153809],"scale":[0.9999999403953552,1,0.9999999403953552],"translation":[12.659210205078125,1.810079574584961,-0.1802215576171875]},{"name":"Waist_EndREar2","rotation":[0,-2.9802322387695312e-8,0,1],"translation":[20.682273864746094,3.5689220428466797,-0.3521575927734375]}],"samplers":[{}],"scene":0,"scenes":[{"name":"Scene","nodes":[5,4,3,2,6,10,7,8,0]}],"skins":[{"inverseBindMatrices":0,"joints":[13,14,15,16,17,18,19,20,21,22,23,24,25,26,27,28,29,30,31,32,33,34,35,36,37,38,39,40,41],"skeleton":12}],"textures":[{"sampler":0,"source":0},{"sampler":0,"source":1},{"sampler":0,"source":2}],"extensionsUsed":["ALI_amc_mesh_compression"],"extensionsRequired":["ALI_amc_mesh_compression"]}