{"accessors":[{"bufferView":0,"componentType":5126,"count":50,"max":[0.000004003933099738788,-1,0.0000040042227738013025,0,1.000000238418579,4.673285758372003e-8,1.0000003576278687,0,0.9999871253967285,0.000004004225502285408,1,0,20.814777374267578,28.787389755249023,33.65028381347656,1],"min":[-0.000004004225047538057,-1.0000004768371582,-0.000003778970040002605,0,-0.9474789500236511,4.673283626743796e-8,-0.9999873042106628,0,-1.000000238418579,0.000004004223683296004,-0.947478711605072,0,-61.62310028076172,-28.787599563598633,-22.188899993896484,1],"type":"MAT4","byteOffset":0},{"bufferView":1,"componentType":5126,"count":50,"max":[0.000004003933099738788,-1,0.0000040042227738013025,0,1.000000238418579,4.673285758372003e-8,1.0000003576278687,0,0.9999871253967285,0.000004004225502285408,1,0,20.814777374267578,28.787389755249023,33.65028381347656,1],"min":[-0.000004004225047538057,-1.0000004768371582,-0.000003778970040002605,0,-0.9474789500236511,4.673283626743796e-8,-0.9999873042106628,0,-1.000000238418579,0.000004004223683296004,-0.947478711605072,0,-61.62310028076172,-28.787599563598633,-22.188899993896484,1],"type":"MAT4","byteOffset":0}],"asset":{"generator":"Khronos Blender glTF 2.0 exporter","version":"2.0"},"bufferViews":[{"buffer":0,"byteLength":3200,"byteOffset":0},{"buffer":0,"byteLength":3200,"byteOffset":3200},{"buffer":0,"byteOffset":6400,"byteLength":33515},{"buffer":0,"byteOffset":39915,"byteLength":100219},{"buffer":0,"byteOffset":140134,"byteLength":5423}],"buffers":[{"byteLength":145557,"uri":"buffer.bin"}],"images":[{"name":"pm0027_00_BodyA1","uri":"pm0027_00_BodyA1.png"},{"name":"pm0027_00_Eye1","uri":"pm0027_00_Eye1.png"},{"name":"pm0027_00_BodyB1","uri":"pm0027_00_BodyB1.png"}],"materials":[{"alphaMode":"OPAQUE","name":"Material__35","pbrMetallicRoughness":{"baseColorFactor":[0.6400000190734865,0.6400000190734865,0.6400000190734865,1],"baseColorTexture":{"index":0},"metallicFactor":0}},{"alphaMode":"OPAQUE","name":"Material__36","pbrMetallicRoughness":{"baseColorFactor":[0.6400000190734865,0.6400000190734865,0.6400000190734865,1],"baseColorTexture":{"index":1},"metallicFactor":0}},{"alphaMode":"OPAQUE","name":"Material__47","pbrMetallicRoughness":{"baseColorFactor":[0.6400000190734865,0.6400000190734865,0.6400000190734865,1],"baseColorTexture":{"index":2},"metallicFactor":0}}],"meshes":[{"name":"Sandshrew_Roll","primitives":[{"material":2,"extensions":{"ALI_amc_mesh_compression":{"bufferView":2}}}]},{"name":"Sandshrew","primitives":[{"material":0,"extensions":{"ALI_amc_mesh_compression":{"bufferView":3}}},{"material":1,"extensions":{"ALI_amc_mesh_compression":{"bufferView":4}}}]}],"nodes":[{"name":"Camera","rotation":[0.483536034822464,0.33687159419059753,-0.20870360732078552,0.7804827094078064],"translation":[7.481131553649902,5.34366512298584,6.5076398849487305]},{"name":"EndFeeler","translation":[21.529199600219727,0,-7.27596021626864e-12]},{"name":"EndHead","translation":[20.500499725341797,0.0000019073499970545527,7.27596021626864e-12]},{"name":"EndHips","translation":[22.93301010131836,-0.0000016689300537109375,-1.4551899615855568e-11]},{"name":"EndLEar","translation":[7.8244781494140625,0.0000019073499970545527,0]},{"name":"EndLFingerA","translation":[3.7709670066833496,0,0.0000019073499970545527]},{"name":"EndLFingerB","translation":[3.534363031387329,-0.000003814699994109105,-0.0000028610199933609692]},{"name":"EndLFingerC","translation":[3.499138116836548,-0.0000028610199933609692,0]},{"name":"EndLFoot","translation":[10.04889965057373,0,0.0000028610199933609692]},{"name":"EndLHand","translation":[4.628442764282227,0.0000019073499970545527,-0.0000019073499970545527]},{"name":"EndLToe","translation":[7.413021087646484,0,-0.0000019073499970545527]},{"name":"EndREar","translation":[7.824481964111328,-0.000020980800400138833,-0.00003051759995287284]},{"name":"EndRFingerA","translation":[3.7709999084472656,-0.00003623959855758585,0.000045776399929309264]},{"name":"EndRFingerB","translation":[3.534442901611328,0.000003814699994109105,-0.000022888199964654632]},{"name":"EndRFingerC","translation":[3.499195098876953,-0.00007629390165675431,-0.00003242490129196085]},{"name":"EndRFoot","translation":[10.048800468444824,-9.536739753457368e-7,0.0000028610199933609692]},{"name":"EndRHand","translation":[4.628442764282227,-0.0000724791971151717,-0.00003242490129196085]},{"name":"EndRToe","translation":[7.413061141967773,-8.344650268554688e-7,0.00005340580173651688]},{"name":"EndTail4","translation":[11.309800148010254,-9.536739753457368e-7,-0.000001000239990389673]},{"name":"EnvironmentAmbientLight","scale":[0.02539999969303608,0.02539999969303608,0.02539999969303608]},{"name":"Lamp","rotation":[0.16907575726509094,0.7558802962303162,-0.27217137813568115,0.570947527885437],"scale":[1,1,0.9999999403953552],"translation":[4.076245307922363,5.903861999511719,-1.0054539442062378]},{"children":[27],"name":"Origin"},{"children":[21,23,24],"name":"pm0027_00","rotation":[0.7071065902709961,0,0,0.7071069478988647],"scale":[0.02539999969303608,0.02539999969303608,0.02539999969303608]},{"name":"pm0027_00_BodySkin"},{"name":"pm0027_00_RollSkin"},{"mesh":1,"name":"Sandshrew","rotation":[-0.18094418942928314,-0.683565080165863,-0.18094338476657867,0.6835623383522034],"scale":[1,1,1.0000003576278687],"skin":0,"translation":[-24.715808868408203,11.461922645568848,-0.00010860753536690027]},{"mesh":0,"name":"Sandshrew_Roll","rotation":[-0.18094418942928314,-0.683565080165863,-0.18094338476657867,0.6835623383522034],"scale":[1,1,1.0000003576278687],"skin":1,"translation":[-24.715808868408203,11.461922645568848,-0.00010860753536690027]},{"children":[25,26,28,47,76],"name":"Waist","rotation":[0.18094417452812195,0.683565080165863,0.18094339966773987,0.6835623383522034],"scale":[1,0.9999999403953552,1],"translation":[0,2.2672200202941895,-27.149700164794922]},{"children":[29,30,36,42],"name":"Waist_Hips","rotation":[-0.6112991571426392,0.3554058372974396,-0.3554058372974396,0.6112991571426392],"scale":[0.9999999403953552,0.9999998807907104,0.9999999403953552],"translation":[-13.253876686096191,36.177711486816406,-0.00011688108497764915]},{"name":"Waist_EndHips","translation":[11.706191062927246,-0.00011754035949707031,-19.72024917602539]},{"children":[31],"name":"Waist_LThigh","rotation":[0,0.347354531288147,0,0.9377338886260986],"scale":[0.9999998807907104,1,0.9999998807907104],"translation":[1.9116802215576172,-12.744830131530762,-6.42161226272583]},{"children":[32],"name":"Waist_LLeg","rotation":[0,0.3594420850276947,0,0.9331674575805664],"translation":[6.94564151763916,-1.0888910293579102,-5.026554107666016]},{"children":[33,34],"name":"Waist_LFoot","rotation":[0,-0.8361824750900269,0,0.5484514236450195],"scale":[1.0000001192092896,1,1.0000001192092896],"translation":[7.850660800933838,1.7716064453125,7.917014122009277]},{"name":"Waist_EndLFoot","rotation":[0,2.9802322387695312e-8,0,1],"translation":[-9.236473083496094,-3.9582643508911133,0.00024800002574920654]},{"children":[35],"name":"Waist_LToe","rotation":[0,7.450580596923828e-8,0,1],"translation":[-5.500836372375488,-2.357365608215332,-0.9855965971946716]},{"name":"Waist_EndLToe","rotation":[0,1.4901161193847656e-8,0,1],"translation":[-6.813699722290039,-2.9199934005737305,0.00018155574798583984]},{"children":[37],"name":"Waist_RThigh","rotation":[0,0.34737855195999146,0,0.9377250671386719],"scale":[0.9999999403953552,1.0000001192092896,0.9999999403953552],"translation":[1.9118547439575195,12.744773864746094,-6.421640872955322]},{"children":[38],"name":"Waist_RLeg","rotation":[0,0.3594420552253723,0,0.9331674575805664],"scale":[0.9999999403953552,1,0.9999999403953552],"translation":[6.945939540863037,1.0887689590454102,-5.026200294494629]},{"children":[39,40],"name":"Waist_RFoot","rotation":[0,-0.8361831307411194,0,0.5484502911567688],"scale":[1,0.9999998807907104,1],"translation":[7.850189208984375,-1.7716665267944336,7.917332649230957]},{"name":"Waist_EndRFoot","rotation":[0,1.4901161193847656e-8,0,1],"scale":[1,1.0000001192092896,1],"translation":[-9.236348152160645,3.9583282470703125,-0.00023353099822998047]},{"children":[41],"name":"Waist_RToe","rotation":[0,7.450580596923828e-8,0,1],"scale":[1,1.0000001192092896,1],"translation":[-5.500761985778809,2.357318878173828,-0.9858788251876831]},{"name":"Waist_EndRToe","rotation":[0,2.9802322387695312e-8,0,1],"translation":[-6.813687324523926,2.92012882232666,-0.0001709461212158203]},{"children":[43],"name":"Waist_Tail1","rotation":[0,-0.26627689599990845,0,0.963896632194519],"scale":[0.9999999403953552,1,0.9999999403953552],"translation":[16.789899826049805,-0.00012063980102539062,-4.103911399841309]},{"children":[44],"name":"Waist_Tail2","rotation":[0,0.0016409328673034906,0,0.9999986886978149],"translation":[12.165700912475586,-0.000056028369726845995,0.00004410743713378906]},{"children":[45],"name":"Waist_Tail3","rotation":[0,-0.00007936358451843262,0,1],"translation":[10.547107696533203,-0.0007226467714644969,4.76837158203125e-7]},{"children":[46],"name":"Waist_Tail4","rotation":[0,0.00011104346776846796,0,1],"scale":[0.9999999403953552,1,0.9999999403953552],"translation":[8.812549591064453,-0.0019948482513427734,-0.000009298324584960938]},{"name":"Waist_EndTail4","rotation":[0,-1.4901161193847656e-8,0,1],"translation":[11.309798240661621,-0.000049829715862870216,-0.0000016689300537109375]},{"children":[48,54,65],"name":"Waist_Spine","rotation":[-0.5000001192092896,-0.49999988079071045,0.49999988079071045,0.5000001192092896],"translation":[-13.25387954711914,36.1777229309082,-0.00011688089580275118]},{"children":[49,50,52],"name":"Waist_Head","rotation":[0,0.03538810834288597,0,0.9993736743927002],"scale":[0.9999999403953552,1,0.9999999403953552],"translation":[15.697294235229492,0.00008186697959899902,-0.000008049171810853295]},{"name":"Waist_EndHead","rotation":[0,3.725290298461914e-9,0,1],"translation":[20.50049591064453,0.00010433791612740606,4.76837158203125e-7]},{"children":[51],"name":"Waist_LEar","rotation":[0,-0.06776125729084015,0,0.9977015852928162],"translation":[11.143148422241211,-9.331111907958984,-5.923567295074463]},{"name":"Waist_EndLEar","rotation":[0,7.450580596923828e-9,0,1],"translation":[4.847737789154053,-5.9521074295043945,-1.5146880149841309]},{"children":[53],"name":"Waist_REar","rotation":[0,-0.06776202470064163,0,0.9977015256881714],"translation":[11.143057823181152,9.33120346069336,-5.923585891723633]},{"name":"Waist_EndREar","rotation":[0,7.450580596923828e-9,0,1],"translation":[4.847653865814209,5.952166557312012,-1.5147435665130615]},{"children":[55],"name":"Waist_LShoulder","rotation":[0,-0.21356239914894104,0,0.9769294261932373],"scale":[0.9999999403953552,1,0.9999999403953552],"translation":[8.602192878723145,-7.2356696128845215,2.0975611209869385]},{"children":[56],"name":"Waist_LArm","rotation":[0,-0.010480189695954323,0,0.9999451041221619],"translation":[1.26206636428833,-4.871715068817139,2.359142780303955]},{"children":[57],"name":"Waist_LForeArm","translation":[3.3139171600341797,-5.177504539489746,2.2761764526367188]},{"children":[58,59,61,63],"name":"Waist_LHand","rotation":[0,-0.0024266312830150127,0,0.999997079372406],"translation":[3.73760986328125,-5.839450836181641,2.567171096801758]},{"name":"Waist_EndLHand","translation":[2.347672462463379,-3.6557350158691406,1.5957832336425781]},{"children":[60],"name":"Waist_LFingerA","rotation":[0,-0.07120265811681747,0,0.9974619150161743],"scale":[0.9999999403953552,1,0.9999999403953552],"translation":[0.4511556625366211,-2.8974056243896484,0.7041530609130859]},{"name":"Waist_EndLFingerA","translation":[2.2233333587646484,-2.765655517578125,1.2759876251220703]},{"children":[62],"name":"Waist_LFingerB","rotation":[0,-0.2965225279331207,0,0.955025851726532],"translation":[2.683757781982422,-0.8475933074951172,0.45543670654296875]},{"name":"Waist_EndLFingerB","translation":[2.012258529663086,-2.862520217895508,0.49851131439208984]},{"children":[64],"name":"Waist_LFingerC","rotation":[0,0.20726501941680908,0,0.9782848358154297],"translation":[-0.838047981262207,-2.3620262145996094,2.784391403198242]},{"name":"Waist_EndLFingerC","rotation":[0,-3.725290298461914e-9,0,1],"translation":[1.3081986904144287,-2.473705291748047,2.100799322128296]},{"children":[66],"name":"Waist_RShoulder","rotation":[0,-0.21356044709682465,0,0.9769299626350403],"translation":[8.602116584777832,7.235769748687744,2.097534418106079]},{"children":[67],"name":"Waist_RArm","rotation":[0,-0.0104806674644351,0,0.9999451637268066],"translation":[1.2620491981506348,4.8716936111450195,2.3591508865356445]},{"children":[68],"name":"Waist_RForeArm","rotation":[0,-1.4901161193847656e-8,0,1],"translation":[3.313871383666992,5.177610397338867,2.2761878967285156]},{"children":[69,70,72,74],"name":"Waist_RHand","rotation":[0,-0.0024266317486763,0,0.9999971389770508],"scale":[0.9999999403953552,1,0.9999999403953552],"translation":[3.737545967102051,5.839422225952148,2.567197799682617]},{"name":"Waist_EndRHand","translation":[2.347574234008789,3.6558074951171875,1.5957584381103516]},{"children":[71],"name":"Waist_RFingerA","rotation":[0,-0.07120294868946075,0,0.9974618554115295],"translation":[0.45102882385253906,2.897397994995117,0.7041816711425781]},{"name":"Waist_EndRFingerA","rotation":[0,4.470347647611561e-8,0,1],"scale":[1.0000001192092896,1,1.0000001192092896],"translation":[2.223348617553711,2.765697479248047,1.2759552001953125]},{"children":[73],"name":"Waist_RFingerB","rotation":[0,-0.2965255081653595,0,0.9550249576568604],"scale":[0.9999999403953552,1,0.9999999403953552],"translation":[2.683645248413086,0.84759521484375,0.45545005798339844]},{"name":"Waist_EndRFingerB","rotation":[0,1.4901161193847656e-8,0,1],"translation":[2.01226806640625,2.8626060485839844,0.4985504150390625]},{"children":[75],"name":"Waist_RFingerC","rotation":[0,0.20726899802684784,0,0.9782840013504028],"translation":[-0.8380937576293945,2.361989974975586,2.7844085693359375]},{"name":"Waist_EndRFingerC","rotation":[0,-9.313225746154785e-9,0,1],"translation":[1.3081005811691284,2.4738082885742188,2.100832462310791]},{"children":[77],"name":"Waist_Feeler","rotation":[-0.6112992167472839,-0.3554058074951172,0.3554058074951172,0.6112992167472839],"translation":[-13.253877639770508,36.17771911621094,-0.00011895486386492848]},{"name":"Waist_EndFeeler","translation":[21.529203414916992,0.00008147954940795898,0.0000040531158447265625]}],"samplers":[{}],"scene":0,"scenes":[{"name":"Scene","nodes":[14,13,12,16,7,6,5,9,11,4,2,18,17,15,10,8,3,1,22,19,20,0]}],"skins":[{"inverseBindMatrices":0,"joints":[28,29,30,31,32,33,34,35,36,37,38,39,40,41,42,43,44,45,46,47,48,49,50,51,52,53,54,55,56,57,58,59,60,61,62,63,64,65,66,67,68,69,70,71,72,73,74,75,76,77],"skeleton":27},{"inverseBindMatrices":1,"joints":[28,29,30,31,32,33,34,35,36,37,38,39,40,41,42,43,44,45,46,47,48,49,50,51,52,53,54,55,56,57,58,59,60,61,62,63,64,65,66,67,68,69,70,71,72,73,74,75,76,77],"skeleton":27}],"textures":[{"sampler":0,"source":0},{"sampler":0,"source":1},{"sampler":0,"source":2}],"extensionsUsed":["ALI_amc_mesh_compression"],"extensionsRequired":["ALI_amc_mesh_compression"]}