{"accessors":[{"bufferView":0,"componentType":5126,"count":24,"max":[1,0,4.889633619872824e-13,0,0.0021410321351140738,0,1,0,0,-1,0,0,43.426639556884766,1.5705642700195312,0.0943494439125061,1],"min":[0.9999977350234985,0,-0.0021410321351140738,0,-4.889633619872824e-13,0,0.9999977350234985,0,0,-1,0,0,-43.42655563354492,-85.0604019165039,-0.12114236503839493,1],"type":"MAT4","byteOffset":0},{"bufferView":1,"componentType":5126,"count":24,"max":[1,0,4.889633619872824e-13,0,0.0021410321351140738,0,1,0,0,-1,0,0,43.426639556884766,1.5705642700195312,0.0943494439125061,1],"min":[0.9999977350234985,0,-0.0021410321351140738,0,-4.889633619872824e-13,0,0.9999977350234985,0,0,-1,0,0,-43.42655563354492,-85.0604019165039,-0.12114236503839493,1],"type":"MAT4","byteOffset":0},{"bufferView":2,"componentType":5126,"count":24,"max":[1,0,4.889633619872824e-13,0,0.0021410321351140738,0,1,0,0,-1,0,0,43.426639556884766,1.5705642700195312,0.0943494439125061,1],"min":[0.9999977350234985,0,-0.0021410321351140738,0,-4.889633619872824e-13,0,0.9999977350234985,0,0,-1,0,0,-43.42655563354492,-85.0604019165039,-0.12114236503839493,1],"type":"MAT4","byteOffset":0},{"bufferView":3,"componentType":5126,"count":24,"max":[1,0,4.889633619872824e-13,0,0.0021410321351140738,0,1,0,0,-1,0,0,43.426639556884766,1.5705642700195312,0.0943494439125061,1],"min":[0.9999977350234985,0,-0.0021410321351140738,0,-4.889633619872824e-13,0,0.9999977350234985,0,0,-1,0,0,-43.42655563354492,-85.0604019165039,-0.12114236503839493,1],"type":"MAT4","byteOffset":0}],"asset":{"generator":"Khronos Blender glTF 2.0 exporter","version":"2.0"},"bufferViews":[{"buffer":0,"byteLength":1536,"byteOffset":0},{"buffer":0,"byteLength":1536,"byteOffset":1536},{"buffer":0,"byteLength":1536,"byteOffset":3072},{"buffer":0,"byteLength":1536,"byteOffset":4608},{"buffer":0,"byteOffset":6144,"byteLength":8919},{"buffer":0,"byteOffset":15063,"byteLength":8407},{"buffer":0,"byteOffset":23470,"byteLength":51111},{"buffer":0,"byteOffset":74581,"byteLength":27331}],"buffers":[{"byteLength":101912,"uri":"buffer.bin"}],"images":[{"name":"pm0120_00_Body1","uri":"pm0120_00_Body1.png"}],"materials":[{"name":"Body_004","pbrMetallicRoughness":{"baseColorFactor":[0.6400000190734865,0.6400000190734865,0.6400000190734865,1],"baseColorTexture":{"index":0},"metallicFactor":0}},{"name":"BodyHitodeman","pbrMetallicRoughness":{"baseColorFactor":[0.6400000190734865,0.6400000190734865,0.6400000190734865,1],"baseColorTexture":{"index":0},"metallicFactor":0}},{"name":"BodyNutrey","pbrMetallicRoughness":{"baseColorFactor":[0.6400000190734865,0.6400000190734865,0.6400000190734865,1],"baseColorTexture":{"index":0},"metallicFactor":0}},{"name":"BodyNutreyVco","pbrMetallicRoughness":{"baseColorFactor":[0.6400000190734865,0.6400000190734865,0.6400000190734865,1],"baseColorTexture":{"index":0},"metallicFactor":0}}],"meshes":[{"name":"mesh_3_pm0120_00_Skin.001","primitives":[{"material":1,"extensions":{"ALI_amc_mesh_compression":{"bufferView":4}}}]},{"name":"mesh_2_pm0120_00_Skin.001","primitives":[{"material":2,"extensions":{"ALI_amc_mesh_compression":{"bufferView":5}}}]},{"name":"mesh_1_pm0120_00_Skin.001","primitives":[{"material":3,"extensions":{"ALI_amc_mesh_compression":{"bufferView":6}}}]},{"name":"mesh_0_pm0120_00_Skin.001","primitives":[{"material":0,"extensions":{"ALI_amc_mesh_compression":{"bufferView":7}}}]}],"nodes":[{"children":[3,4,5,6,7],"name":"Armature","rotation":[0.7071068286895752,0,0,0.7071067094802856]},{"name":"Camera","rotation":[0.483536034822464,0.33687159419059753,-0.20870360732078552,0.7804827094078064],"translation":[7.481131553649902,5.34366512298584,6.5076398849487305]},{"name":"Lamp","rotation":[0.16907575726509094,0.7558802962303162,-0.27217137813568115,0.570947527885437],"scale":[1,1,0.9999999403953552],"translation":[4.076245307922363,5.903861999511719,-1.0054539442062378]},{"mesh":3,"name":"mesh_0_pm0120_00_Skin","skin":0},{"mesh":2,"name":"mesh_1_pm0120_00_Skin","skin":1},{"mesh":1,"name":"mesh_2_pm0120_00_Skin","skin":2},{"mesh":0,"name":"mesh_3_pm0120_00_Skin","skin":3},{"children":[8,30],"name":"Armature_pm0120_00","rotation":[-0.7071068286895752,0,0,0.7071068286895752]},{"children":[9],"name":"Armature_Origin","rotation":[0,-4.8980486550345703e-14,0,1]},{"children":[10,14,18,22,26],"name":"Armature_Waist","rotation":[0,4.8979409124436796e-14,0,1],"translation":[0.000021538042346946895,35.82059860229492,-4.547494650807005e-13]},{"children":[11],"name":"Armature_Head1","rotation":[0,2.444827651958137e-13,0,1],"translation":[-0.00003434019163250923,11.373100280761719,4.547473508864641e-13]},{"children":[12],"name":"Armature_Head2","rotation":[0,-1.0018028073766061e-16,0,1],"translation":[-0.000024923439923441038,8.304492950439453,-1.2186648478313069e-17]},{"children":[13],"name":"Armature_Head3","translation":[-0.00003450001895544119,11.500007629394531,-1.6862334867244586e-17]},{"name":"Armature_EndHead3","rotation":[0,-2.4438150071290354e-13,0,1],"translation":[-0.00005250539106782526,18.06220245361328,-2.5662692860583996e-17]},{"children":[15],"name":"Armature_LShoulder","rotation":[0,-0.0010705167660489678,0,0.9999995231628418],"translation":[10.59599781036377,3.4443435668945312,-0.07166319340467453]},{"children":[16],"name":"Armature_LArm","rotation":[0,1.979060471057892e-9,0,1],"translation":[8.24804973602295,2.7101669311523438,0.0009272880852222443]},{"children":[17],"name":"Armature_LForeArm","rotation":[0,-9.313225746154785e-10,0,1],"translation":[10.925333023071289,3.5898818969726562,0.0012284759432077408]},{"name":"Armature_EndLForeArm","rotation":[0,1.6530975699424744e-8,0,1],"translation":[13.657332420349121,4.487571716308594,0.001535035902634263]},{"children":[19],"name":"Armature_LThigh","rotation":[0,-0.00107050861697644,0,0.9999995231628418],"translation":[6.478278160095215,-9.232589721679688,-0.012109247036278248]},{"children":[20],"name":"Armature_LLeg","rotation":[0,2.0954757928848267e-9,0,1],"translation":[5.115842819213867,-6.935329437255859,0.007498647551983595]},{"children":[21],"name":"Armature_LFoot","rotation":[0,3.026798367500305e-9,0,1],"translation":[6.826614856719971,-9.254587173461914,0.010006237775087357]},{"name":"Armature_EndLFoot","rotation":[0,1.6530975699424744e-8,0,1],"translation":[8.828457832336426,-11.968395233154297,0.012940734624862671]},{"children":[23],"name":"Armature_RShoulder","rotation":[0,-0.001069543999619782,0,0.9999995231628418],"translation":[-10.596020698547363,3.444244384765625,-0.07166360318660736]},{"children":[24],"name":"Armature_RArm","rotation":[0,1.4086253941059113e-8,0,1],"translation":[-8.248124122619629,2.7100372314453125,0.03623097762465477]},{"children":[25],"name":"Armature_RForeArm","rotation":[0,-1.7811544239521027e-8,0,1],"translation":[-10.92518424987793,3.589893341064453,0.04798920452594757]},{"name":"Armature_EndRForeArm","rotation":[0,-5.820766091346741e-10,0,1],"translation":[-13.657200813293457,4.487335205078125,0.059990059584379196]},{"children":[27],"name":"Armature_RThigh","rotation":[0,-0.0010704566957429051,0,0.9999995231628418],"translation":[-6.478224277496338,-9.23271369934082,-0.012109861709177494]},{"children":[28],"name":"Armature_RLeg","rotation":[0,-3.14321368932724e-9,0,1],"translation":[-5.115692615509033,-6.93536376953125,0.02940376289188862]},{"children":[29],"name":"Armature_RFoot","rotation":[0,6.6356733441352844e-9,0,1],"translation":[-6.826435565948486,-9.254634857177734,0.03923695906996727]},{"name":"Armature_EndRFoot","rotation":[0,3.294553607702255e-8,0,1],"translation":[-8.828238487243652,-11.968452453613281,0.050744183361530304]},{"name":"Armature_pm0120_00_Skin"}],"samplers":[{}],"scene":0,"scenes":[{"name":"Scene","nodes":[0,2,1]}],"skins":[{"inverseBindMatrices":0,"joints":[7,8,9,10,11,12,13,14,15,16,17,18,19,20,21,22,23,24,25,26,27,28,29,30],"skeleton":0},{"inverseBindMatrices":1,"joints":[7,8,9,10,11,12,13,14,15,16,17,18,19,20,21,22,23,24,25,26,27,28,29,30],"skeleton":0},{"inverseBindMatrices":2,"joints":[7,8,9,10,11,12,13,14,15,16,17,18,19,20,21,22,23,24,25,26,27,28,29,30],"skeleton":0},{"inverseBindMatrices":3,"joints":[7,8,9,10,11,12,13,14,15,16,17,18,19,20,21,22,23,24,25,26,27,28,29,30],"skeleton":0}],"textures":[{"sampler":0,"source":0},{"sampler":0,"source":0},{"sampler":0,"source":0},{"sampler":0,"source":0}],"extensionsUsed":["ALI_amc_mesh_compression"],"extensionsRequired":["ALI_amc_mesh_compression"]}