{"accessors":[{"bufferView":0,"componentType":5126,"count":58,"max":[0.9996517300605774,7.616342001526277e-10,0.9999967813491821,0,0.9934619665145874,-2.1335038770387005e-14,0.9996516108512878,0,8.529036479084252e-15,-1,7.61632590329242e-10,0,28.789901733398438,103.51786804199219,52.869903564453125,1],"min":[-1.0000001192092896,9.156195766857333e-15,-0.993462085723877,0,-0.9999966621398926,-2.010793007795053e-12,-1,0,-7.971478735620003e-15,-1.0000001192092896,-8.686906479793508e-15,0,-122.57369232177734,-37.58830642700195,-52.77669906616211,1],"type":"MAT4","byteOffset":0},{"bufferView":1,"componentType":5126,"count":58,"max":[0.9999966621398926,-3.04803222661576e-7,1,0,3.31702295852665e-7,-1.0000001192092896,3.45536619761333e-7,0,1.0000001192092896,1.62921310220554e-7,0.9934616684913635,0,64.99388122558594,63.292152404785156,86.6956558227539,1],"min":[-0.993461549282074,-3.0480524060294556e-7,-0.9996514916419983,0,-3.392671885649179e-7,-1.000000238418579,-3.341251613164786e-7,0,-0.9996516108512878,1.6215966525123804e-7,-0.9999967813491821,0,-119.28144836425781,-77.81401824951172,-103.33920288085938,1],"type":"MAT4","byteOffset":0}],"asset":{"generator":"Khronos Blender glTF 2.0 exporter","version":"2.0"},"bufferViews":[{"buffer":0,"byteLength":3712,"byteOffset":0},{"buffer":0,"byteLength":3712,"byteOffset":3712},{"buffer":0,"byteOffset":7424,"byteLength":1515},{"buffer":0,"byteOffset":8939,"byteLength":1515},{"buffer":0,"byteOffset":10454,"byteLength":107231},{"buffer":0,"byteOffset":117685,"byteLength":83351}],"buffers":[{"byteLength":201036,"uri":"buffer.bin"}],"images":[{"name":"pm0017_00_BodyA1","uri":"pm0017_00_BodyA1.png"},{"name":"pm0017_00_BodyB1","uri":"pm0017_00_BodyB1.png"},{"name":"pm0017_00_Eye1","uri":"pm0017_00_Eye1.png"},{"name":"pm0017_00_Iris1","uri":"pm0017_00_Iris1.png"}],"materials":[{"alphaMode":"OPAQUE","name":"BodyA00","pbrMetallicRoughness":{"baseColorFactor":[0.6400000190734865,0.6400000190734865,0.6400000190734865,1],"baseColorTexture":{"index":0},"metallicFactor":0}},{"alphaMode":"OPAQUE","name":"BodyB01","pbrMetallicRoughness":{"baseColorFactor":[0.6400000190734865,0.6400000190734865,0.6400000190734865,1],"baseColorTexture":{"index":1},"metallicFactor":0}},{"alphaMode":"OPAQUE","name":"Eye","pbrMetallicRoughness":{"baseColorFactor":[0.6400000190734865,0.6400000190734865,0.6400000190734865,1],"baseColorTexture":{"index":2},"metallicFactor":0}},{"alphaMode":"MASK","name":"LIris","pbrMetallicRoughness":{"baseColorFactor":[0.6400000190734865,0.6400000190734865,0.6400000190734865,1],"baseColorTexture":{"index":3},"metallicFactor":0}}],"meshes":[{"name":"Pidgeotto","primitives":[{"material":2,"extensions":{"ALI_amc_mesh_compression":{"bufferView":2}}},{"material":3,"extensions":{"ALI_amc_mesh_compression":{"bufferView":3}}},{"material":0,"extensions":{"ALI_amc_mesh_compression":{"bufferView":4}}},{"material":1,"extensions":{"ALI_amc_mesh_compression":{"bufferView":5}}}]}],"nodes":[{"children":[1,21,22,23,24],"name":"_01_pm0017_00","rotation":[0.7071068286895752,0,0,0.7071067094802856],"scale":[0.02539999783039093,0.02539999969303608,0.02539999969303608]},{"children":[2],"name":"_02_Origin"},{"children":[3,27,28,59],"name":"_03_Waist","rotation":[1.0776491876640648e-7,1.0776494008268855e-7,0.7071080803871155,0.7071055769920349],"scale":[1,1,0.9999999403953552],"translation":[0,8.778539657592773,-40.22570037841797]},{"name":"_04_EndWaist","rotation":[-6.394884621840902e-14,-3.906950496457284e-8,-5.061259029069676e-16,1],"scale":[0.9999998807907104,1,0.9999999403953552],"translation":[41.844886779785156,0,0.000003814697265625]},{"name":"_06_EndHips","translation":[25.799789428710938,0,-9.0949502703358e-13]},{"name":"_10_EndLFoot","translation":[12.287699699401855,-9.536739753457368e-7,0]},{"name":"_13_EndLToeA2","translation":[13.369500160217285,-9.536739753457368e-7,-9.536739753457368e-7]},{"name":"_16_EndLToeB2","translation":[13.394209861755371,0,-9.536739753457368e-7]},{"name":"_19_EndLToeC2","translation":[11.80620002746582,0.0000028610199933609692,0]},{"name":"_23_EndRFoot","translation":[12.287699699401855,0.0000019073499970545527,0]},{"name":"_26_EndRToeA2","translation":[13.369500160217285,0.000007629389983776491,-4.768369876728684e-7]},{"name":"_29_EndRToeB2","translation":[13.39430046081543,0.000018119799278792925,0.0000715256028342992]},{"name":"_32_EndRToeC2","translation":[11.80620002746582,-0.0000028610199933609692,0.0000019073499970545527]},{"name":"_35_EndTail2","translation":[35.16300964355469,0.000003814699994109105,0]},{"name":"_41_EndLHand","translation":[59.8568000793457,0.00001525879997643642,0.000003814699994109105]},{"name":"_44_EndLFeeler2","translation":[41.42729187011719,0,-0.000003814699994109105]},{"name":"_49_EndHairA2","translation":[18.89999008178711,0.00001525879997643642,0.0000019073499970545527]},{"name":"_53_EndHairB3","translation":[30.132099151611328,-0.000007629389983776491,-5.820770254683083e-11]},{"name":"_55_EndJaw","translation":[13.497309684753418,0.000007629389983776491,2.9103799231711136e-11]},{"name":"_59_EndRHand","translation":[59.85688018798828,0,0.000003814699994109105]},{"name":"_62_EndRFeeler2","translation":[41.42729949951172,0.000022888199964654632,-0.00002670290086825844]},{"name":"_63_pm0017_00_BodySkin"},{"name":"_64_pm0017_00_IrisSkin"},{"name":"_65_pm0017_00_LWingSkin"},{"name":"_66_pm0017_00_RWingSkin"},{"name":"Camera","rotation":[0.483536034822464,0.33687159419059753,-0.20870360732078552,0.7804827094078064],"translation":[7.481131553649902,5.34366512298584,6.5076398849487305]},{"name":"Lamp","rotation":[0.16907575726509094,0.7558802962303162,-0.27217137813568115,0.570947527885437],"scale":[1,1,0.9999999403953552],"translation":[4.076245307922363,5.903861999511719,-1.0054539442062378]},{"mesh":0,"name":"Pidgeotto","rotation":[0.499999076128006,-0.500001072883606,-0.5000008344650269,0.499999076128006],"scale":[1,1.0000001192092896,0.9999998807907104],"skin":1,"translation":[-8.778539657592773,0.00004403923230711371,40.225704193115234]},{"children":[29,30,43,56],"name":"_03_Waist__05_Hips","rotation":[-0.0000013177907476347173,-0.7071068286895752,0.7071068286895752,0.0000013177907476347173],"translation":[31.447160720825195,-0.0001027789112413302,49.00424575805664]},{"name":"_03_Waist__06_EndHips","translation":[25.799787521362305,0,-3.0765841074753553e-7]},{"children":[31],"name":"_03_Waist__07_LThigh","rotation":[0,0.10141953080892563,0,0.9948437809944153],"translation":[0.7092502117156982,4.745521545410156,10.550803184509277]},{"children":[32],"name":"_03_Waist__08_LLeg","rotation":[0,-0.20104382932186127,0,0.9795822501182556],"scale":[0.9999999403953552,1,0.9999999403953552],"translation":[21.65620994567871,4.5555877685546875,4.461864471435547]},{"children":[33,34,37,40],"name":"_03_Waist__09_LFoot","rotation":[0,-0.631328284740448,0,0.7755157351493835],"scale":[0.9999998807907104,1,0.9999998807907104],"translation":[7.893538475036621,-1.6471138000488281,-1.6137421131134033]},{"name":"_03_Waist__10_EndLFoot","rotation":[0,2.0256265997886658e-8,0,1],"translation":[0.00007971946615725756,-12.287662506103516,-0.032050710171461105]},{"children":[35],"name":"_03_Waist__11_LToeA1","rotation":[0,0.014125972054898739,0,0.999900221824646],"scale":[0.9999999403953552,1,0.9999999403953552],"translation":[-4.108633041381836,-8.481128692626953,-4.332452297210693]},{"children":[36],"name":"_03_Waist__12_LToeA2","rotation":[0,0.12586289644241333,0,0.9920476675033569],"scale":[0.9999999403953552,1,0.9999999403953552],"translation":[-1.8492002487182617,-7.120670318603516,-0.2780952453613281]},{"name":"_03_Waist__13_EndLToeA2","scale":[0.9999999403953552,1,0.9999999403953552],"translation":[-1.4423043727874756,-12.567802429199219,-4.325939178466797]},{"children":[38],"name":"_03_Waist__14_LToeB1","rotation":[0,0.013959450647234917,0,0.999902606010437],"translation":[3.826542854309082,-8.208084106445312,-4.3110456466674805]},{"children":[39],"name":"_03_Waist__15_LToeB2","rotation":[0,0.12551963329315186,0,0.9920912384986877],"scale":[0.9999998807907104,1,0.9999998807907104],"translation":[1.91383695602417,-7.455295562744141,-0.18053686618804932]},{"name":"_03_Waist__16_EndLToeB2","scale":[0.9999999403953552,1,0.9999999403953552],"translation":[3.6078040599823,-12.584663391113281,-2.831089496612549]},{"children":[41],"name":"_03_Waist__17_LToeC1","rotation":[0,0.06096385791897774,0,0.9981399774551392],"translation":[-0.133340522646904,4.425941467285156,-3.4795563220977783]},{"children":[42],"name":"_03_Waist__18_LToeC2","rotation":[0,0.14108245074748993,0,0.9899978637695312],"translation":[0.07556921243667603,4.853294372558594,-0.6032090187072754]},{"name":"_03_Waist__19_EndLToeC2","translation":[1.8562793731689453,10.838424682617188,-4.297611713409424]},{"children":[44],"name":"_03_Waist__20_RThigh","rotation":[0,0.10141953080892563,0,0.9948437809944153],"translation":[0.7092640399932861,4.745525360107422,-10.550796508789062]},{"children":[45],"name":"_03_Waist__21_RLeg","rotation":[0,-0.20104382932186127,0,0.9795822501182556],"scale":[0.9999999403953552,1,0.9999999403953552],"translation":[21.65621566772461,4.5555877685546875,4.461854934692383]},{"children":[46,47,50,53],"name":"_03_Waist__22_RFoot","rotation":[0,-0.631328284740448,0,0.7755157351493835],"scale":[0.9999998807907104,1,0.9999998807907104],"translation":[7.893540859222412,-1.6471099853515625,-1.6137319803237915]},{"name":"_03_Waist__23_EndRFoot","rotation":[3.8081371389608876e-10,2.0256265997886658e-8,7.669530958446742e-18,1],"translation":[0.0000719260424375534,-12.287662506103516,-0.032052792608737946]},{"children":[48],"name":"_03_Waist__24_RToeA1","rotation":[0,0.013446124270558357,0,0.9999096393585205],"translation":[4.131158351898193,-8.481128692626953,-4.310963153839111]},{"children":[49],"name":"_03_Waist__25_RToeA2","rotation":[0,0.12743058800697327,0,0.9918475151062012],"scale":[1.0000001192092896,1,1.0000001192092896],"translation":[1.8625952005386353,-7.120708465576172,-0.1660366654396057]},{"name":"_03_Waist__26_EndRToeA2","rotation":[0,-1.4901161193847656e-8,0,1],"translation":[3.5438477993011475,-12.567802429199219,-2.8696746826171875]},{"children":[51],"name":"_03_Waist__27_RToeB1","rotation":[0,0.014626477845013142,0,0.999893069267273],"translation":[-3.8040144443511963,-8.208080291748047,-4.3309478759765625]},{"children":[52],"name":"_03_Waist__28_RToeB2","rotation":[0,0.12423135340213776,0,0.992253303527832],"translation":[-1.8988322019577026,-7.455257415771484,-0.29951542615890503]},{"name":"_03_Waist__29_EndRToeB2","rotation":[0,-1.4901161193847656e-8,0,1],"translation":[-1.539170265197754,-12.584728240966797,-4.320054054260254]},{"children":[54],"name":"_03_Waist__30_RToeC1","rotation":[0,0.06096351519227028,0,0.9981400966644287],"scale":[0.9999999403953552,1,0.9999999403953552],"translation":[0.1514856070280075,4.425945281982422,-3.4788241386413574]},{"children":[55],"name":"_03_Waist__31_RToeC2","rotation":[0,0.14108262956142426,0,0.989997923374176],"scale":[0.9999999403953552,1,0.9999999403953552],"translation":[0.07553809881210327,4.853302001953125,-0.6032121181488037]},{"name":"_03_Waist__32_EndRToeC2","translation":[1.856229305267334,10.83841323852539,-4.297638416290283]},{"children":[57],"name":"_03_Waist__33_Tail1","rotation":[0,-0.5082578659057617,0,0.8612049221992493],"translation":[2.4205093383789062,33.23619842529297,0.000009791277989279479]},{"children":[58],"name":"_03_Waist__34_Tail2","rotation":[0,0.07094315439462662,0,0.9974803924560547],"translation":[6.748789310455322,25.288902282714844,-12.223227500915527]},{"name":"_03_Waist__35_EndTail2","translation":[12.759328842163086,28.067455291748047,-16.907238006591797]},{"children":[60],"name":"_03_Waist__36_Spine1","rotation":[-0.6351780891418457,-0.31072312593460083,0.31072312593460083,0.6351780891418457],"scale":[0.9999999403953552,1,0.9999999403953552],"translation":[31.447160720825195,-0.0001027881953632459,49.004249572753906]},{"children":[61,65,68,79,83],"name":"_03_Waist__37_Spine2","rotation":[0,0.17634248733520508,0,0.9843288660049438],"translation":[7.199398517608643,-15.085674285888672,-9.25963306427002]},{"children":[62],"name":"_03_Waist__38_LArm","rotation":[0,0.8745437860488892,0,0.4849466383457184],"translation":[5.169669151306152,5.2035675048828125,-24.166915893554688]},{"children":[63],"name":"_03_Waist__39_LForeArm","rotation":[0,-0.4238925278186798,0,0.9057126045227051],"translation":[29.37912368774414,1.6820907592773438,0.8138499855995178]},{"children":[64],"name":"_03_Waist__40_LHand","rotation":[0,0.4518842101097107,0,0.8920766115188599],"scale":[0.9999999403953552,1,0.9999999403953552],"translation":[17.145389556884766,-22.006488800048828,-8.37143325805664]},{"name":"_03_Waist__41_EndLHand","rotation":[0,1.4901161193847656e-8,0,1],"translation":[59.83949279785156,-1.2569046020507812,-0.7014627456665039]},{"children":[66],"name":"_03_Waist__42_LFeeler1","rotation":[0,-0.9869797825813293,0,0.1608443409204483],"scale":[1,0.9999999403953552,1],"translation":[6.9094696044921875,-2.7371444702148438,-24.827075958251953]},{"children":[67],"name":"_03_Waist__43_LFeeler2","rotation":[0,0.2248210459947586,0,0.9744001626968384],"scale":[0.9999999403953552,1,0.9999999403953552],"translation":[29.123689651489258,19.33077621459961,0.3066682815551758]},{"name":"_03_Waist__44_EndLFeeler2","translation":[20.23213005065918,35.953895568847656,-3.7681479454040527]},{"children":[69],"name":"_03_Waist__45_Neck","rotation":[0,0.08746115863323212,0,0.9961679577827454],"translation":[14.689139366149902,-10.727638244628906,-9.115211486816406]},{"children":[70,73,77],"name":"_03_Waist__46_Head","rotation":[0,-0.04464554414153099,0,0.9990029335021973],"scale":[0.9999998807907104,1,0.9999998807907104],"translation":[8.333572387695312,-3.587066650390625,-3.330860137939453]},{"children":[71],"name":"_03_Waist__47_HairA1","rotation":[0,0.21977150440216064,0,0.9755514860153198],"translation":[9.147311210632324,-19.117774963378906,-4.64145040512085]},{"children":[72],"name":"_03_Waist__48_HairA2","rotation":[0,0.37847456336021423,0,0.9256117343902588],"translation":[7.924478530883789,-2.4098892211914062,-2.313326835632324]},{"name":"_03_Waist__49_EndHairA2","translation":[16.002952575683594,7.664100646972656,6.509734630584717]},{"children":[74],"name":"_03_Waist__50_HairB1","rotation":[0,0.764793872833252,0,0.6442750692367554],"translation":[19.09783935546875,-10.866676330566406,-9.690512657165527]},{"children":[75],"name":"_03_Waist__51_HairB2","rotation":[0,0.17311671376228333,0,0.9849013090133667],"translation":[1.1282131671905518,12.432418823242188,3.6612093448638916]},{"children":[76],"name":"_03_Waist__52_HairB3","rotation":[0,0.2502058148384094,0,0.9681927561759949],"scale":[1.0000001192092896,1,1.0000001192092896],"translation":[0.03387907147407532,14.055770874023438,-0.689500629901886]},{"name":"_03_Waist__53_EndHairB3","translation":[8.362903594970703,25.61156463623047,-13.492701530456543]},{"children":[78],"name":"_03_Waist__54_Jaw","rotation":[0,-0.6081281900405884,0,0.7938389778137207],"scale":[0.9999999403953552,1,0.9999999403953552],"translation":[1.7887886762619019,-11.901741027832031,-0.9076359272003174]},{"name":"_03_Waist__55_EndJaw","rotation":[0,2.9802322387695312e-8,0,1],"translation":[0.5656405091285706,-13.211471557617188,2.704514265060425]},{"children":[80],"name":"_03_Waist__56_RArm","rotation":[0,-0.4225776493549347,0,0.9063267707824707],"translation":[23.949798583984375,5.203704833984375,6.097036361694336]},{"children":[81],"name":"_03_Waist__57_RForeArm","rotation":[0,-0.5613311529159546,0,0.8275913000106812],"translation":[29.18612289428711,1.6821098327636719,3.4583687782287598]},{"children":[82],"name":"_03_Waist__58_RHand","rotation":[0,0.45053917169570923,0,0.8927567005157471],"translation":[1.9653244018554688,-22.00638198852539,-18.978607177734375]},{"name":"_03_Waist__59_EndRHand","rotation":[0,1.862645149230957e-8,0,1],"translation":[59.801395416259766,-1.2566757202148438,-2.2503652572631836]},{"children":[84],"name":"_03_Waist__60_RFeeler1","rotation":[0,0.3347324728965759,0,0.9423132538795471],"translation":[25.313705444335938,-2.737091064453125,4.831238746643066]},{"children":[85],"name":"_03_Waist__61_RFeeler2","rotation":[0,0.0017086440930142999,0,0.9999985694885254],"translation":[-28.930944442749023,19.330768585205078,3.3583874702453613]},{"name":"_03_Waist__62_EndRFeeler2","translation":[-17.69356346130371,35.9538688659668,-10.51091194152832]}],"samplers":[{}],"scene":0,"scenes":[{"name":"Scene","nodes":[20,19,18,17,16,15,14,13,12,11,10,9,8,7,6,5,4,0,26,25]}],"skins":[{"inverseBindMatrices":0,"joints":[28,29,30,31,32,33,34,35,36,37,38,39,40,41,42,43,44,45,46,47,48,49,50,51,52,53,54,55,56,57,58,59,60,61,62,63,64,65,66,67,68,69,70,71,72,73,74,75,76,77,78,79,80,81,82,83,84,85],"skeleton":2},{"inverseBindMatrices":1,"joints":[28,29,30,31,32,33,34,35,36,37,38,39,40,41,42,43,44,45,46,47,48,49,50,51,52,53,54,55,56,57,58,59,60,61,62,63,64,65,66,67,68,69,70,71,72,73,74,75,76,77,78,79,80,81,82,83,84,85],"skeleton":2}],"textures":[{"sampler":0,"source":0},{"sampler":0,"source":1},{"sampler":0,"source":2},{"sampler":0,"source":3}],"extensionsUsed":["ALI_amc_mesh_compression"],"extensionsRequired":["ALI_amc_mesh_compression"]}