{"accessors":[{"bufferView":0,"componentType":5126,"count":60,"max":[0.0000036209792142471997,-1,0.000003649796553872875,0,1,0.000003649789960036287,1.0000001192092896,0,1.0000001192092896,-0.0000016239237083937041,1,0,51.96230697631836,141.67605590820312,131.73179626464844,1],"min":[-0.0000038114769722596975,-1.0000001192092896,-0.0000036199921851221006,0,-1.0000001192092896,0.000003619987182901241,-1.0000001192092896,0,-1.0000001192092896,-0.0000016239240494542173,-1.0000001192092896,0,-344.53778076171875,-141.67588806152344,-137.5826416015625,1],"type":"MAT4","byteOffset":0}],"asset":{"generator":"Khronos Blender glTF 2.0 exporter","version":"2.0"},"bufferViews":[{"buffer":0,"byteLength":3840,"byteOffset":0},{"buffer":0,"byteOffset":3840,"byteLength":119385},{"buffer":0,"byteOffset":123225,"byteLength":2371}],"buffers":[{"byteLength":125596,"uri":"buffer.bin"}],"images":[{"name":"pm0071_00_Body1","uri":"pm0071_00_Body1.png"},{"name":"pm0071_00_Eye1","uri":"pm0071_00_Eye1.png"}],"materials":[{"alphaMode":"OPAQUE","name":"BodyVco","pbrMetallicRoughness":{"baseColorFactor":[0.6400000190734865,0.6400000190734865,0.6400000190734865,1],"baseColorTexture":{"index":0},"metallicFactor":0}},{"alphaMode":"OPAQUE","name":"Eye","pbrMetallicRoughness":{"baseColorFactor":[0.6400000190734865,0.6400000190734865,0.6400000190734865,1],"baseColorTexture":{"index":1},"metallicFactor":0}}],"meshes":[{"name":"Victreebel","primitives":[{"material":0,"extensions":{"ALI_amc_mesh_compression":{"bufferView":1}}},{"material":1,"extensions":{"ALI_amc_mesh_compression":{"bufferView":2}}}]}],"nodes":[{"children":[1,24],"name":"_01_pm0071_00","rotation":[0.7071068286895752,0,0,0.7071067094802856],"scale":[0.02539999783039093,0.02539999969303608,0.02539999969303608]},{"children":[2],"name":"_02_Origin"},{"children":[27,28,40],"name":"_03_Waist","rotation":[-2.2910831218303507e-12,0.7071080803871155,-0.0000011482871968837571,0.7071055173873901],"scale":[1,0.9999999403953552,1],"translation":[0,-0.00018146901857107878,-51.96229553222656]},{"name":"_05_EndHips","translation":[54.74359130859375,-2.9103799231711136e-11,5.820770254683083e-11]},{"name":"_10_EndLToe","translation":[29.823720932006836,0,0]},{"name":"_15_EndRToe","translation":[29.82387924194336,0,0.00010681199637474492]},{"name":"_19_EndHead","translation":[12.137999534606934,0.00001971120036614593,5.820770254683083e-11]},{"name":"_21_EndFeelerA","translation":[23.249910354614258,0,8.731149830909501e-11]},{"name":"_24_EndFeeler2","translation":[36.6244010925293,0.00001525879997643642,0]},{"name":"_26_EndLFeeler","translation":[38.0873908996582,0.00003051759995287284,-0.000011444099982327316]},{"name":"_28_EndRFeeler","translation":[38.08729934692383,0,0.000011444099982327316]},{"name":"_41_EndTail12","translation":[21.12200927734375,0,-4.768369876728684e-7]},{"children":[13],"name":"_42_RootJaw"},{"name":"_43_EndRootJaw","translation":[12.137999534606934,0.00001971120036614593,5.820770254683083e-11]},{"name":"_45_EndJawD","translation":[10.907999992370605,0,4.768369876728684e-7]},{"name":"_47_EndJawE","translation":[10.716500282287598,0.00001525879997643642,1.1920899822825959e-7]},{"name":"_49_EndLJawA","translation":[10.449999809265137,0.00001525879997643642,5.820770254683083e-11]},{"name":"_51_EndLJawB","translation":[10.45011043548584,0,0.00004768370126839727]},{"name":"_53_EndLJawC","translation":[10.449999809265137,0,-0.000010490400200069416]},{"name":"_55_EndLTeeth","translation":[12.387310028076172,0,-0.000003814699994109105]},{"name":"_57_EndRJawA","translation":[10.449999809265137,0.00001525879997643642,1.7462299661819003e-10]},{"name":"_59_EndRJawB","translation":[10.449999809265137,0.00001525879997643642,-0.0000019073499970545527]},{"name":"_61_EndRJawC","translation":[10.45009994506836,0,0.000042915300582535565]},{"name":"_63_EndRTeeth","translation":[12.387700080871582,0.0005340580246411264,0.0000715256028342992]},{"name":"_64_pm0071_00_Skin"},{"name":"Camera","rotation":[0.483536034822464,0.33687159419059753,-0.20870360732078552,0.7804827094078064],"translation":[7.481131553649902,5.34366512298584,6.5076398849487305]},{"name":"Lamp","rotation":[0.16907575726509094,0.7558802962303162,-0.27217137813568115,0.570947527885437],"scale":[1,1,0.9999999403953552],"translation":[4.076245307922363,5.903861999511719,-1.0054539442062378]},{"mesh":0,"name":"Victreebel","rotation":[0.49999913573265076,-0.5000000596046448,0.5000017881393433,0.4999990463256836],"scale":[1,1.0000001192092896,1.0000001192092896],"skin":0,"translation":[-51.96230697631836,0.00009708591096568853,-0.00018810319306794554]},{"children":[29,30,35],"name":"_03_Waist__04_Hips","rotation":[-0.4999995827674866,0.5000004172325134,-0.5000004172325134,0.4999995827674866],"scale":[1,0.9999999403953552,1],"translation":[-51.96220779418945,51.962406158447266,-0.00027867965400218964]},{"name":"_03_Waist__05_EndHips","rotation":[0,5.684341886080802e-14,0,1],"translation":[54.74359893798828,-0.00008916854858398438,0.00017227831995114684]},{"children":[31],"name":"_03_Waist__06_LThigh","rotation":[0,1,0,0.0000030557300760847284],"translation":[25.840137481689453,-34.61470031738281,-1.8368221521377563]},{"children":[32],"name":"_03_Waist__07_LLeg","rotation":[0,-3.85445900974446e-7,0,1],"translation":[4.7243757247924805,-15.814823150634766,0.00004755416011903435]},{"children":[33],"name":"_03_Waist__08_LFoot","rotation":[0,-1.7881393432617188e-7,0,1],"translation":[0.46897733211517334,-31.971675872802734,0.00012047647032886744]},{"children":[34],"name":"_03_Waist__09_LToe","rotation":[0,-1.7881416169984732e-7,0,1],"translation":[-2.528134822845459,-29.857139587402344,0.00011973766959272325]},{"name":"_03_Waist__10_EndLToe","translation":[-4.903743267059326,-29.417823791503906,0.00013125600526109338]},{"children":[36],"name":"_03_Waist__11_RThigh","rotation":[0,1,0,1.9470718370939721e-7],"translation":[25.840686798095703,34.61429977416992,-1.8365665674209595]},{"children":[37],"name":"_03_Waist__12_RLeg","rotation":[0,4.4901901219418505e-7,0,1],"translation":[4.724185943603516,15.814884185791016,-0.00004678432014770806]},{"children":[38],"name":"_03_Waist__13_RFoot","rotation":[0,1.7881393432617188e-7,0,1],"translation":[0.46843090653419495,31.97156524658203,-0.0001172809861600399]},{"children":[39],"name":"_03_Waist__14_RToe","rotation":[0,1.7881393432617188e-7,0,1],"translation":[-2.5286624431610107,29.857139587402344,-0.00011993120278930292]},{"name":"_03_Waist__15_EndRToe","rotation":[1.4901161193847656e-8,0,0,1],"translation":[-4.904120445251465,29.41791534423828,-0.0001310824736719951]},{"children":[41],"name":"_03_Waist__16_Spine1","rotation":[-0.4999995827674866,-0.5000004172325134,0.5000004172325134,0.4999995827674866],"scale":[1,0.9999999403953552,1],"translation":[-51.96220779418945,51.9624137878418,-0.0002786796831060201]},{"children":[42],"name":"_03_Waist__17_Spine2","rotation":[0,-5.684341886080802e-14,0,1],"translation":[26.927400588989258,0.00014317035675048828,0.000003994136932305992]},{"children":[43,44,66],"name":"_03_Waist__18_Head","translation":[43.774314880371094,0.00023287537624128163,0.000021980769815854728]},{"name":"_03_Waist__19_EndHead","translation":[12.137991905212402,0.000019729137420654297,0.00001789849193301052]},{"children":[45,46,49,51,53],"name":"_03_Waist__20_FeelerA","rotation":[0,0.0000016093254089355469,0,1],"translation":[7.231463432312012,-0.0000795125961303711,-30.990116119384766]},{"name":"_03_Waist__21_EndFeelerA","rotation":[0,5.684341886080802e-14,0,1],"translation":[23.24990463256836,0.000037729740142822266,0.00007532627205364406]},{"children":[47],"name":"_03_Waist__22_Feeler1","rotation":[0,-0.7068917155265808,0,0.7073217630386353],"translation":[1.8173792362213135,0.000009626150131225586,-0.003942050039768219]},{"children":[48],"name":"_03_Waist__23_Feeler2","rotation":[0,-2.9103830456733704e-11,0,1],"translation":[21.26579475402832,0.000024586915969848633,0.013012723997235298]},{"name":"_03_Waist__24_EndFeeler2","translation":[36.624385833740234,0.000136733113322407,0.022391095757484436]},{"children":[50],"name":"_03_Waist__25_LFeeler","rotation":[0,0.7549143433570862,0,0.6558234095573425],"translation":[3.5168707370758057,-36.9979133605957,-8.212540626525879]},{"name":"_03_Waist__26_EndLFeeler","rotation":[0,-2.2351741790771484e-8,0,1],"translation":[-22.1331787109375,-29.911224365234375,-8.12960433959961]},{"children":[52],"name":"_03_Waist__27_RFeeler","rotation":[0,0.754920482635498,0,0.6558163166046143],"scale":[0.9999999403953552,1,0.9999999403953552],"translation":[3.516336679458618,36.99789047241211,-8.212849617004395]},{"name":"_03_Waist__28_EndRFeeler","scale":[0.9999999403953552,0.9999999403953552,0.9999999403953552],"translation":[-22.132646560668945,29.911312103271484,-8.13027572631836]},{"children":[54],"name":"_03_Waist__29_Tail01","rotation":[0,0.7071055769920349,0,0.7071079611778259],"translation":[1.817458152770996,-0.00008314847946166992,-20.35639190673828]},{"children":[55],"name":"_03_Waist__30_Tail02","rotation":[0,1.128472604250419e-8,0,1],"translation":[20.836299896240234,-0.00013291838695295155,0.00010358258441556245]},{"children":[56],"name":"_03_Waist__31_Tail03","rotation":[0,-2.7853275241795927e-12,0,1],"translation":[23.29399871826172,-0.00014817713235970587,0.00006568862590938807]},{"children":[57],"name":"_03_Waist__32_Tail04","rotation":[0,2.7853275241795927e-12,0,1],"translation":[25.002334594726562,-0.00015872716903686523,0.000024525383196305484]},{"children":[58],"name":"_03_Waist__33_Tail05","translation":[26.125492095947266,-0.00016689300537109375,0.0000883253087522462]},{"children":[59],"name":"_03_Waist__34_Tail06","translation":[26.728107452392578,-0.0001690983772277832,0.000074838797445409]},{"children":[60],"name":"_03_Waist__35_Tail07","translation":[26.27420425415039,-0.0001662373833823949,0.000016323203453794122]},{"children":[61],"name":"_03_Waist__36_Tail08","translation":[26.12649917602539,-0.0001668930344749242,0.00009537988808006048]},{"children":[62],"name":"_03_Waist__37_Tail09","translation":[24.533084869384766,-0.00015485292533412576,0.000009213224984705448]},{"children":[63],"name":"_03_Waist__38_Tail10","translation":[25.60312271118164,-0.00016373401740565896,0.00007387276855297387]},{"children":[64],"name":"_03_Waist__39_Tail11","translation":[23.16989517211914,-0.00014793872833251953,0.0001120207307394594]},{"children":[65],"name":"_03_Waist__40_Tail12","translation":[24.376087188720703,-0.00015407800674438477,-0.0000044050393626093864]},{"name":"_03_Waist__41_EndTail12","translation":[21.122013092041016,-0.00007855892181396484,-0.000008661911124363542]},{"children":[67,68,70,72,74,76,80,82,84],"name":"_03_Waist__42_RootJaw","translation":[-0.0000011248630471527576,0,-9.074137778952718e-7]},{"name":"_03_Waist__43_EndRootJaw","translation":[12.137991905212402,0.000019729137420654297,0.00001789849193301052]},{"children":[69],"name":"_03_Waist__44_JawD","rotation":[0,-0.7071882486343384,0,0.7070253491401672],"translation":[0.9893943071365356,0.00013217335799708962,33.70439910888672]},{"name":"_03_Waist__45_EndJawD","rotation":[0,2.782326191663742e-8,0,1],"translation":[10.907994270324707,0.00004127621650695801,-0.0025182608515024185]},{"children":[71],"name":"_03_Waist__46_JawE","rotation":[0,0.7071068286895752,0,0.7071068286895752],"translation":[0.9893804788589478,-0.00009834766387939453,-27.655603408813477]},{"name":"_03_Waist__47_EndJawE","rotation":[0,8.677943696966395e-9,0,1],"translation":[10.716501235961914,-0.00004029273986816406,0.00001505177169747185]},{"children":[73],"name":"_03_Waist__48_LJawA","rotation":[0,0.7071045637130737,0,0.7071089744567871],"translation":[0.9895389676094055,-30.57080078125,0.00011195673141628504]},{"name":"_03_Waist__49_EndLJawA","rotation":[0,-2.2213043848751113e-8,0,1],"translation":[-0.00003749242750927806,-10.450000762939453,0.00002879646490328014]},{"children":[75],"name":"_03_Waist__50_LJawB","rotation":[0,0.7071061134338379,0,0.7071074843406677],"translation":[0.9890176057815552,-22.44893455505371,-20.764753341674805]},{"name":"_03_Waist__51_EndLJawB","rotation":[0,-2.0641778064600658e-8,0,1],"translation":[6.144694805145264,-8.452667236328125,-0.00000958597956923768]},{"children":[77,78],"name":"_03_Waist__52_LJawC","rotation":[0,0.7071005702018738,0,0.7071130275726318],"translation":[0.9890584349632263,-21.366348266601562,24.01255226135254]},{"name":"_03_Waist__53_EndLJawC","rotation":[0,1.3622411643154919e-8,0,1],"translation":[-7.517707824707031,-7.258552551269531,0.00016281637363135815]},{"children":[79],"name":"_03_Waist__54_LTeeth","rotation":[0,-0.3185633420944214,0,0.9479016661643982],"translation":[-4.1598920822143555,1.7670135498046875,2.6232287883758545]},{"name":"_03_Waist__55_EndLTeeth","translation":[11.094993591308594,5.382539749145508,1.1725387573242188]},{"children":[81],"name":"_03_Waist__56_RJawA","rotation":[0,0.7071082592010498,0,0.707105278968811],"translation":[0.9888065457344055,30.570812225341797,-0.0001588856102898717]},{"name":"_03_Waist__57_EndRJawA","rotation":[0,1.490627710154513e-8,0,1],"translation":[0.000038103724364191294,10.44999885559082,-0.00007524099783040583]},{"children":[83],"name":"_03_Waist__58_RJawB","rotation":[0,0.7071077823638916,0,0.7071057558059692],"translation":[0.9887810945510864,22.44886016845703,-20.76494789123535]},{"name":"_03_Waist__59_EndRJawB","rotation":[0,1.3269755072542466e-8,0,1],"translation":[6.14472770690918,8.452508926391602,-0.00004811041071661748]},{"children":[85,86],"name":"_03_Waist__60_RJawC","rotation":[0,0.707109808921814,0,0.7071037888526917],"translation":[0.9888295531272888,21.366453170776367,24.0124454498291]},{"name":"_03_Waist__61_EndRJawC","rotation":[0,1.651096681598574e-8,0,1],"translation":[-7.5177083015441895,7.258701324462891,-0.0001195150543935597]},{"children":[87],"name":"_03_Waist__62_RTeeth","rotation":[0,-0.31857720017433167,0,0.9478970170021057],"scale":[0.9999999403953552,1,0.9999999403953552],"translation":[-4.159923076629639,-1.76690673828125,2.6229658126831055]},{"name":"_03_Waist__63_EndRTeeth","translation":[11.09536361694336,-5.382530212402344,1.1731414794921875]}],"samplers":[{}],"scene":0,"scenes":[{"name":"Scene","nodes":[23,22,21,20,19,18,17,16,15,14,12,11,10,9,8,7,6,5,4,3,0,26,25]}],"skins":[{"inverseBindMatrices":0,"joints":[28,29,30,31,32,33,34,35,36,37,38,39,40,41,42,43,44,45,46,47,48,49,50,51,52,53,54,55,56,57,58,59,60,61,62,63,64,65,66,67,68,69,70,71,72,73,74,75,76,77,78,79,80,81,82,83,84,85,86,87],"skeleton":2}],"textures":[{"sampler":0,"source":0},{"sampler":0,"source":1}],"extensionsUsed":["ALI_amc_mesh_compression"],"extensionsRequired":["ALI_amc_mesh_compression"]}