{"accessors":[{"bufferView":0,"componentType":5126,"count":119,"max":[1,0,1,0,1,0,1,0,0,-1,0,0,118.03987884521484,29.010623931884766,131.6259002685547,1],"min":[-1,0,-1,0,-1,0,-1,0,0,-1.0000004768371582,0,0,-119.41608428955078,-23.743507385253906,-144.5670166015625,1],"type":"MAT4","byteOffset":0}],"asset":{"generator":"Khronos Blender glTF 2.0 exporter","version":"2.0"},"bufferViews":[{"buffer":0,"byteLength":7616,"byteOffset":0},{"buffer":0,"byteOffset":7616,"byteLength":82255},{"buffer":0,"byteOffset":89871,"byteLength":2863},{"buffer":0,"byteOffset":92734,"byteLength":89451}],"buffers":[{"byteLength":182185,"uri":"buffer.bin"}],"images":[{"name":"pm0068_00_BodyA1","uri":"pm0068_00_BodyA1.png"},{"name":"pm0068_00_BodyB1","uri":"pm0068_00_BodyB1.png"},{"name":"pm0068_00_Eye1","uri":"pm0068_00_Eye1.png"}],"materials":[{"alphaMode":"OPAQUE","name":"Material__101","pbrMetallicRoughness":{"baseColorFactor":[0.6400000190734865,0.6400000190734865,0.6400000190734865,1],"baseColorTexture":{"index":0},"metallicFactor":0}},{"alphaMode":"OPAQUE","name":"Material__102","pbrMetallicRoughness":{"baseColorFactor":[0.6400000190734865,0.6400000190734865,0.6400000190734865,1],"baseColorTexture":{"index":1},"metallicFactor":0}},{"alphaMode":"OPAQUE","name":"Material__103","pbrMetallicRoughness":{"baseColorFactor":[0.6400000190734865,0.6400000190734865,0.6400000190734865,1],"baseColorTexture":{"index":2},"metallicFactor":0}}],"meshes":[{"name":"Machamp","primitives":[{"material":1,"extensions":{"ALI_amc_mesh_compression":{"bufferView":1}}},{"material":2,"extensions":{"ALI_amc_mesh_compression":{"bufferView":2}}},{"material":0,"extensions":{"ALI_amc_mesh_compression":{"bufferView":3}}}]}],"nodes":[{"children":[3,4],"name":"Armature","scale":[0.02539999969303608,0.02539999969303608,0.02539999969303608]},{"name":"Camera","rotation":[0.483536034822464,0.33687159419059753,-0.20870360732078552,0.7804827094078064],"translation":[7.481131553649902,5.34366512298584,6.5076398849487305]},{"name":"Lamp","rotation":[0.16907575726509094,0.7558802962303162,-0.27217137813568115,0.570947527885437],"scale":[1,1,0.9999999403953552],"translation":[4.076245307922363,5.903861999511719,-1.0054539442062378]},{"mesh":0,"name":"Machamp","skin":0},{"children":[5,122],"name":"Armature_pm0068_00","rotation":[-0.7071068286895752,0,0,0.7071068286895752]},{"children":[6],"name":"Armature_Origin"},{"children":[7,21],"name":"Armature_Waist","rotation":[0,-0.7071080803871155,0,0.7071055769920349],"scale":[1,0.9999999403953552,1],"translation":[0,-0.000003324514182168059,76.05599975585938]},{"children":[8,14,20],"name":"Armature_Hips","rotation":[0,1,0,0.0000012675908465098473],"scale":[1,0.9999997615814209,1],"translation":[-7.23332505003782e-11,0.0000033245123631786555,-0.00002066395063593518]},{"children":[9],"name":"Armature_LThigh","rotation":[0,-0.11911770701408386,0,0.9928801655769348],"translation":[13.1614351272583,-0.1347316950559616,14.639835357666016]},{"children":[10],"name":"Armature_LLeg","rotation":[0,0.12339728325605392,0,0.9923573732376099],"translation":[29.516340255737305,0.6186872124671936,0.5985288619995117]},{"children":[11,13],"name":"Armature_LFoot","rotation":[0,-0.7926782369613647,0,0.6096402406692505],"translation":[22.72208595275879,6.461594104766846,6.028073310852051]},{"children":[12],"name":"Armature_LToe","rotation":[0,2.2351741790771484e-8,0,1],"translation":[0.6140912771224976,-16.554126739501953,-7.7095947265625]},{"name":"Armature_EndLToe","translation":[0.5419011116027832,-16.3880615234375,-0.1397550106048584]},{"name":"Armature_EndLFoot","rotation":[0,2.2351741790771484e-8,0,1],"translation":[0.5509517192840576,-16.66210174560547,-0.1420903205871582]},{"children":[15],"name":"Armature_RThigh","rotation":[0,0.13990649580955505,0,0.9901647567749023],"translation":[13.161482810974121,-0.13476230204105377,-14.639784812927246]},{"children":[16],"name":"Armature_RLeg","rotation":[0,0.12339723110198975,0,0.9923573732376099],"scale":[1,1.0000001192092896,1],"translation":[29.515474319458008,0.6187319159507751,0.6393299102783203]},{"children":[17,19],"name":"Armature_RFoot","rotation":[0,-0.7926758527755737,0,0.6096433401107788],"scale":[0.9999999403953552,1,0.9999999403953552],"translation":[22.609073638916016,6.461580276489258,6.439048767089844]},{"children":[18],"name":"Armature_RToe","rotation":[0,1.4901162970204496e-8,0,1],"scale":[0.9999999403953552,1,0.9999999403953552],"translation":[-0.4780977964401245,-16.55413055419922,-7.719262599945068]},{"name":"Armature_EndRToe","scale":[0.9999999403953552,1,0.9999999403953552],"translation":[-0.5393095016479492,-16.388164520263672,-0.1492938995361328]},{"name":"Armature_EndRFoot","scale":[0.9999999403953552,1,0.9999999403953552],"translation":[-0.5483500957489014,-16.66210174560547,-0.15181207656860352]},{"name":"Armature_EndHips","translation":[27.267898559570312,-5.4569682106375694e-12,-9.805953595787287e-7]},{"children":[22],"name":"Armature_Spine1","rotation":[0,2.3841846541472478e-7,0,1],"translation":[-1.9545609575288836e-10,0.0000033245123631786555,-0.00005583197344094515]},{"children":[23,47,71,74,98],"name":"Armature_Spine2","rotation":[0,-0.06180868670344353,0,0.9980881214141846],"scale":[1,0.9999999403953552,1],"translation":[14.59405517578125,0.000005361876901588403,-3.4942422644235194e-7]},{"children":[24],"name":"Armature_RShoulder2","rotation":[0,-0.5343473553657532,0,0.8452650904655457],"scale":[0.9999999403953552,1,0.9999999403953552],"translation":[33.30592346191406,14.160408973693848,0.7130098342895508]},{"children":[25],"name":"Armature_RArm2","rotation":[0,-0.16476064920425415,0,0.9863336682319641],"translation":[17.816925048828125,2.194782257080078,2.178370475769043]},{"children":[26],"name":"Armature_RForeArm2","rotation":[0,-1.1641532182693481e-8,0,1],"translation":[31.59600830078125,-0.4155559539794922,-0.4265173077583313]},{"children":[27,30,34,35,39,43],"name":"Armature_RHand2","rotation":[0,0.004888514988124371,0,0.9999880790710449],"translation":[21.83416175842285,-0.28713130950927734,-0.2940182685852051]},{"children":[28],"name":"Armature_RFingerF1","rotation":[0,-0.015653444454073906,0,0.9998775720596313],"translation":[9.535609245300293,-10.124151229858398,5.521193504333496]},{"children":[29],"name":"Armature_RFingerF2","rotation":[0,-0.06409980356693268,0,0.9979435205459595],"translation":[5.002260208129883,-3.414778470993042,2.8827836513519287]},{"name":"Armature_EndRFingerF2","scale":[1,0.9999999403953552,1],"translation":[7.22654914855957,-3.368074417114258,3.035336494445801]},{"children":[31],"name":"Armature_RFingerG1","rotation":[0,0.000811696401797235,0,0.9999997615814209],"translation":[18.42854881286621,-8.759559631347656,-2.0206191539764404]},{"children":[32],"name":"Armature_RFingerG2","rotation":[0,-2.5011104298755527e-12,0,1],"translation":[6.567793369293213,0.00001621246337890625,0.000012045667972415686]},{"children":[33],"name":"Armature_RFingerG3","translation":[5.732016086578369,0.00000667572021484375,-0.000010686257155612111]},{"name":"Armature_EndRFingerG3","scale":[1,0.9999999403953552,1],"translation":[6.264997959136963,0.000006198883056640625,0.000010245043085888028]},{"name":"Armature_EndRHand2","rotation":[0,2.9103830456733704e-10,0,1],"translation":[38.65114212036133,-0.13052654266357422,-0.13371612131595612]},{"children":[36],"name":"Armature_RFingerH1","rotation":[0,0.000811696401797235,0,0.9999997615814209],"translation":[18.905149459838867,-2.8478174209594727,-2.199373722076416]},{"children":[37],"name":"Armature_RFingerH2","rotation":[0,-2.5011104298755527e-12,0,1],"translation":[7.077901840209961,-0.020691871643066406,0.000008131522918120027]},{"children":[38],"name":"Armature_RFingerH3","translation":[6.131017684936523,0.00000858306884765625,-0.00003144150832667947]},{"name":"Armature_EndRFingerH3","scale":[1,0.9999999403953552,1],"translation":[6.067998886108398,0.00000667572021484375,0.000020788604160770774]},{"children":[40],"name":"Armature_RFingerI1","rotation":[0,0.000811696401797235,0,0.9999997615814209],"translation":[18.43187713623047,2.8896865844726562,-2.0565896034240723]},{"children":[41],"name":"Armature_RFingerI2","rotation":[0,-2.5011104298755527e-12,0,1],"translation":[6.159414768218994,0.0000057220458984375,-0.00001686584437265992]},{"children":[42],"name":"Armature_RFingerI3","translation":[5.674986362457275,0.000003814697265625,0.00002166355261579156]},{"name":"Armature_EndRFingerI3","translation":[7.202002048492432,0.0000057220458984375,0.00000836138497106731]},{"children":[44],"name":"Armature_RFingerJ1","rotation":[0,0.000811696401797235,0,0.9999997615814209],"translation":[16.628864288330078,8.090982437133789,-1.6906479597091675]},{"children":[45],"name":"Armature_RFingerJ2","rotation":[0,-2.5011104298755527e-12,0,1],"translation":[5.7686004638671875,0.00000762939453125,-0.00000816347892396152]},{"children":[46],"name":"Armature_RFingerJ3","scale":[1,0.9999999403953552,1],"translation":[4.786407470703125,0.00000762939453125,-0.00001188658643513918]},{"name":"Armature_EndRFingerJ3","translation":[5.6719970703125,0.0000057220458984375,0.000026655150577425957]},{"children":[48],"name":"Armature_LShoulder","rotation":[0,0.6914260387420654,0,0.7224473357200623],"translation":[14.463037490844727,-5.435815811157227,-8.77065658569336]},{"children":[49],"name":"Armature_LArm","rotation":[0,0.05393638461828232,0,0.998544454574585],"translation":[18.08841323852539,-0.6457071304321289,-0.6452183723449707]},{"children":[50],"name":"Armature_LForeArm","rotation":[0,3.725290298461914e-9,0,1],"translation":[32.436920166015625,-1.8666529655456543,-1.872199535369873]},{"children":[51,52,55,59,63,67],"name":"Armature_LHand","rotation":[0,0.027736717835068703,0,0.9996153712272644],"translation":[22.921878814697266,-1.3190064430236816,-1.3229961395263672]},{"name":"Armature_EndLHand","rotation":[0,-2.3283064365386963e-9,0,1],"translation":[38.651641845703125,-0.07372379302978516,-0.07410737872123718]},{"children":[53],"name":"Armature_LFingerA1","rotation":[0,0.5250497460365295,0,0.8510715365409851],"translation":[9.727290153503418,-8.912813186645508,-4.860845565795898]},{"children":[54],"name":"Armature_LFingerA2","rotation":[0,-0.06410025805234909,0,0.9979434609413147],"translation":[4.934963226318359,-3.4147682189941406,2.996257781982422]},{"name":"Armature_EndLFingerA2","rotation":[0,-2.9802322387695312e-8,0,1],"translation":[7.174928665161133,-3.3681087493896484,3.1548995971679688]},{"children":[56],"name":"Armature_LFingerB1","rotation":[0,0.9999978542327881,0,-0.002087428467348218],"translation":[18.27662467956543,-7.949731826782227,3.4754562377929688]},{"children":[57],"name":"Armature_LFingerB2","rotation":[0,-1.088233148038853e-8,0,1],"translation":[-6.13559627532959,0.0000019073486328125,-0.00008594268001616001]},{"children":[58],"name":"Armature_LFingerB3","translation":[-5.732011318206787,0.0000019073486328125,-0.00007075536996126175]},{"name":"Armature_EndLFingerB3","scale":[1,0.9999999403953552,1],"translation":[-6.265252590179443,0,-0.00009213201701641083]},{"children":[60],"name":"Armature_LFingerC1","rotation":[0,0.9999978542327881,0,-0.002087428467348218],"translation":[18.749168395996094,-2.1556272506713867,3.651491165161133]},{"children":[61],"name":"Armature_LFingerC2","rotation":[0,-1.088233148038853e-8,0,1],"translation":[-6.794789791107178,0,-0.0000939579913392663]},{"children":[62],"name":"Armature_LFingerC3","translation":[-6.131004333496094,-0.00000286102294921875,-0.00008919439278542995]},{"name":"Armature_EndLFingerC3","scale":[1,0.9999999403953552,1],"translation":[-6.0684661865234375,0,-0.00008629256626591086]},{"children":[64],"name":"Armature_LFingerD1","rotation":[0,0.9999978542327881,0,-0.002087428467348218],"translation":[18.27518081665039,3.6977033615112305,3.5114657878875732]},{"children":[65],"name":"Armature_LFingerD2","rotation":[0,-1.088233148038853e-8,0,1],"translation":[-5.892210483551025,-9.5367431640625e-7,-0.00008420652011409402]},{"children":[66],"name":"Armature_LFingerD3","scale":[1,0.9999999403953552,1],"translation":[-5.675972938537598,4.76837158203125e-7,-0.00006099924212321639]},{"name":"Armature_EndLFingerD3","translation":[-7.201180458068848,-4.76837158203125e-7,-0.00010424712672829628]},{"children":[68],"name":"Armature_LFingerE1","rotation":[0,0.9999978542327881,0,-0.002087428467348218],"translation":[16.470073699951172,8.871857643127441,3.154961585998535]},{"children":[69],"name":"Armature_LFingerE2","rotation":[0,-1.088233148038853e-8,0,1],"translation":[-5.442795753479004,2.9802322387695312e-8,-0.0010676903184503317]},{"children":[70],"name":"Armature_LFingerE3","translation":[-4.786021709442139,-8.940696716308594e-8,-0.00007694069063290954]},{"name":"Armature_EndLFingerE3","translation":[-5.671824932098389,-2.9802322387695312e-8,-0.00008649524534121156]},{"children":[72],"name":"Armature_Head","rotation":[0,-0.3663850426673889,0,0.9304633140563965],"translation":[38.42258071899414,-4.813984394073486,-4.777061939239502]},{"children":[73],"name":"Armature_Jaw","rotation":[0,-0.6868963241577148,0,0.7267554402351379],"scale":[0.9999998807907104,0.9999999403953552,0.9999998807907104],"translation":[4.258991718292236,-7.928889751434326,-5.0889434814453125]},{"name":"Armature_EndJaw","scale":[0.9999998807907104,0.9999999403953552,0.9999998807907104],"translation":[12.656017303466797,-16.26775550842285,11.867021560668945]},{"children":[75],"name":"Armature_RShoulder","rotation":[0,-0.6252290606498718,0,0.7804413437843323],"scale":[0.9999999403953552,1,0.9999999403953552],"translation":[16.170358657836914,-5.435820579528809,4.962063312530518]},{"children":[76],"name":"Armature_RArm","rotation":[0,-0.07561925053596497,0,0.9971367716789246],"translation":[18.08840560913086,-0.6457233428955078,-0.645430326461792]},{"children":[77],"name":"Armature_RForeArm","rotation":[0,1.862645149230957e-9,0,1],"translation":[32.437984466552734,-1.8666234016418457,-1.8549890518188477]},{"children":[78,82,86,89,93,97],"name":"Armature_RHand","rotation":[0,0.027736838907003403,0,0.9996153712272644],"scale":[0.9999999403953552,1,0.9999999403953552],"translation":[22.922748565673828,-1.3189458847045898,-1.3098173141479492]},{"children":[79],"name":"Armature_RFingerE1","rotation":[0,-0.00017252851102966815,0,1],"scale":[0.9999999403953552,1,0.9999999403953552],"translation":[16.45762062072754,8.871795654296875,-3.2188055515289307]},{"children":[80],"name":"Armature_RFingerE2","rotation":[0,1.198685595227289e-11,0,1],"translation":[5.442495822906494,2.9802322387695312e-8,-0.0009843690786510706]},{"children":[81],"name":"Armature_RFingerE3","translation":[4.786001682281494,-2.9802322387695312e-8,-8.974584488896653e-7]},{"name":"Armature_EndRFingerE3","translation":[5.671995639801025,-2.9802322387695312e-8,-0.0000017539059626869857]},{"children":[83],"name":"Armature_RFingerD1","rotation":[0,-0.00017252851102966815,0,1],"scale":[0.9999999403953552,1,0.9999999403953552],"translation":[18.261333465576172,3.6976466178894043,-3.5821666717529297]},{"children":[84],"name":"Armature_RFingerD2","rotation":[0,1.198685595227289e-11,0,1],"translation":[5.891904830932617,-9.5367431640625e-7,-0.000008146884283632971]},{"children":[85],"name":"Armature_RFingerD3","scale":[1,0.9999999403953552,1],"translation":[5.675992965698242,4.76837158203125e-7,-0.0000013720364222535864]},{"name":"Armature_EndRFingerD3","translation":[7.201009750366211,-4.76837158203125e-7,0.000012799429896404035]},{"children":[87],"name":"Armature_RFingerA1","rotation":[0,-0.016637545078992844,0,0.9998615980148315],"translation":[9.746036529541016,-8.912826538085938,4.822558879852295]},{"children":[88],"name":"Armature_RFingerA2","rotation":[0,-0.06409956514835358,0,0.9979435205459595],"translation":[5.001946926116943,-3.414813995361328,2.8824057579040527]},{"name":"Armature_EndRFingerA2","translation":[7.226916313171387,-3.368101119995117,3.0352725982666016]},{"children":[90],"name":"Armature_RFingerB1","rotation":[0,-0.00017252851102966815,0,1],"scale":[0.9999999403953552,1,0.9999999403953552],"translation":[18.263023376464844,-7.949794769287109,-3.5461630821228027]},{"children":[91],"name":"Armature_RFingerB2","rotation":[0,1.198685595227289e-11,0,1],"translation":[6.135213851928711,-0.0000019073486328125,-0.000008183886166079901]},{"children":[92],"name":"Armature_RFingerB3","scale":[1,0.9999999403953552,1],"translation":[5.732992172241211,0,-0.000001417638486600481]},{"name":"Armature_EndRFingerB3","translation":[6.264997482299805,-0.000003814697265625,0.00000526576695847325]},{"children":[94],"name":"Armature_RFingerC1","rotation":[0,-0.00017252851102966815,0,1],"scale":[0.9999999403953552,1,0.9999999403953552],"translation":[18.734901428222656,-2.155695915222168,-3.7240092754364014]},{"children":[95],"name":"Armature_RFingerC2","rotation":[0,1.198685595227289e-11,0,1],"translation":[6.795400619506836,-9.5367431640625e-7,-7.254457159433514e-7]},{"children":[96],"name":"Armature_RFingerC3","scale":[1,0.9999999403953552,1],"translation":[6.129987716674805,9.5367431640625e-7,0.000005980882633593865]},{"name":"Armature_EndRFingerC3","translation":[6.069005966186523,0,0.000005064488505013287]},{"name":"Armature_EndRHand","rotation":[0,-8.585629984736443e-10,0,1],"translation":[38.65129470825195,-0.07367706298828125,-0.0736459493637085]},{"children":[99],"name":"Armature_LShoulder2","rotation":[0,0.7236650586128235,0,0.6901513934135437],"scale":[0.9999999403953552,1,0.9999999403953552],"translation":[32.1185188293457,14.160402297973633,-8.846959114074707]},{"children":[100],"name":"Armature_LArm2","rotation":[0,0.030690958723425865,0,0.9995289444923401],"scale":[0.9999999403953552,0.9999999403953552,0.9999999403953552],"translation":[17.816829681396484,2.19466495513916,2.177525520324707]},{"children":[101],"name":"Armature_LForeArm2","rotation":[0,1.862645149230957e-9,0,1],"translation":[31.596288681030273,-0.41550731658935547,-0.40566396713256836]},{"children":[102,106,109,110,114,118],"name":"Armature_LHand2","rotation":[0,0.004887675400823355,0,0.9999880790710449],"translation":[21.834556579589844,-0.2871551513671875,-0.28036344051361084]},{"children":[103],"name":"Armature_LFingerG1","rotation":[0,0.9999967217445374,0,-0.0025672446936368942],"translation":[18.441905975341797,-8.759504318237305,1.8970129489898682]},{"children":[104],"name":"Armature_LFingerG2","rotation":[0,1.4496322364720982e-8,0,1],"translation":[-6.5671892166137695,-0.000001430511474609375,-0.0000062953331507742405]},{"children":[105],"name":"Armature_LFingerG3","scale":[1,0.9999999403953552,1],"translation":[-5.73201847076416,9.5367431640625e-7,-0.00002101770951412618]},{"name":"Armature_EndLFingerG3","translation":[-6.265252113342285,4.76837158203125e-7,-0.00003391374775674194]},{"children":[107],"name":"Armature_LFingerF1","rotation":[0,0.5254611372947693,0,0.8508177399635315],"scale":[0.9999999403953552,1,0.9999999403953552],"translation":[9.49797534942627,-10.124122619628906,-5.584685325622559]},{"children":[108],"name":"Armature_LFingerF2","rotation":[0,-0.06409994512796402,0,0.9979435205459595],"scale":[0.9999999403953552,1,0.9999999403953552],"translation":[4.935142517089844,-3.414731502532959,2.9962425231933594]},{"name":"Armature_EndLFingerF2","rotation":[0,-1.4901162970204496e-8,0,1],"scale":[0.9999998807907104,0.9999999403953552,0.9999998807907104],"translation":[7.174983978271484,-3.368101119995117,3.1548385620117188]},{"name":"Armature_EndLHand2","rotation":[0,-2.3283064365386963e-10,0,1],"translation":[38.6513786315918,-0.13049602508544922,-0.1274172067642212]},{"children":[111],"name":"Armature_LFingerJ1","rotation":[0,0.9999967217445374,0,-0.0025672446936368942],"translation":[16.64004898071289,8.09108829498291,1.579226016998291]},{"children":[112],"name":"Armature_LFingerJ2","rotation":[0,1.4496322364720982e-8,0,1],"translation":[-5.7685980796813965,0,-0.00001628026075195521]},{"children":[113],"name":"Armature_LFingerJ3","translation":[-4.785806179046631,0,-0.00002897964441217482]},{"name":"Armature_EndLFingerJ3","scale":[1,0.9999999403953552,1],"translation":[-5.671815395355225,0,-0.000025395405828021467]},{"children":[115],"name":"Armature_LFingerH1","rotation":[0,0.9999967217445374,0,-0.0025672446936368942],"translation":[18.919710159301758,-2.847712516784668,2.0725438594818115]},{"children":[116],"name":"Armature_LFingerH2","rotation":[0,1.4496322364720982e-8,0,1],"translation":[-7.077297687530518,-0.020699501037597656,-0.00003881589509546757]},{"children":[117],"name":"Armature_LFingerH3","translation":[-6.131012439727783,0,-0.000008611779776401818]},{"name":"Armature_EndLFingerH3","scale":[1,0.9999999403953552,1],"translation":[-6.068481922149658,9.5367431640625e-7,-0.000005844020051881671]},{"children":[119],"name":"Armature_LFingerI1","rotation":[0,0.9999967217445374,0,-0.0025672446936368942],"translation":[18.445493698120117,2.8897886276245117,1.9329605102539062]},{"children":[120],"name":"Armature_LFingerI2","rotation":[0,1.4496322364720982e-8,0,1],"translation":[-6.1588029861450195,-0.0000019073486328125,-0.000020732273696921766]},{"children":[121],"name":"Armature_LFingerI3","scale":[1,0.9999999403953552,1],"translation":[-5.675995826721191,0,-0.000020068793673999608]},{"name":"Armature_EndLFingerI3","translation":[-7.202004432678223,-0.000003814697265625,-0.00001963421527761966]},{"name":"Armature_pm0068_00_Skin"}],"samplers":[{}],"scene":0,"scenes":[{"name":"Scene","nodes":[0,2,1]}],"skins":[{"inverseBindMatrices":0,"joints":[4,5,6,7,8,9,10,11,12,13,14,15,16,17,18,19,20,21,22,23,24,25,26,27,28,29,30,31,32,33,34,35,36,37,38,39,40,41,42,43,44,45,46,47,48,49,50,51,52,53,54,55,56,57,58,59,60,61,62,63,64,65,66,67,68,69,70,71,72,73,74,75,76,77,78,79,80,81,82,83,84,85,86,87,88,89,90,91,92,93,94,95,96,97,98,99,100,101,102,103,104,105,106,107,108,109,110,111,112,113,114,115,116,117,118,119,120,121,122],"skeleton":0}],"textures":[{"sampler":0,"source":0},{"sampler":0,"source":1},{"sampler":0,"source":2}],"extensionsUsed":["ALI_amc_mesh_compression"],"extensionsRequired":["ALI_amc_mesh_compression"]}