{"accessors":[{"bufferView":0,"componentType":5126,"count":58,"max":[0.000005406098807725357,-0.9999999403953552,0.00000539712800673442,0,1,0.000005381880782806547,0.9993835687637329,0,0.14713691174983978,-5.288962370286754e-7,1.0000001192092896,0,13.663649559020996,20.442325592041016,13.453166961669922,1],"min":[-0.00000540112432645401,-1,-5.577751949203957e-7,0,-0.9958606958389282,0.000005381877599575091,-0.14713692665100098,0,-0.9993836879730225,-5.582427320405259e-7,-0.9958608150482178,0,-60.64189529418945,-20.442502975463867,-23.342315673828125,1],"type":"MAT4","byteOffset":0}],"asset":{"generator":"Khronos Blender glTF 2.0 exporter","version":"2.0"},"bufferViews":[{"buffer":0,"byteLength":3712,"byteOffset":0},{"buffer":0,"byteOffset":3712,"byteLength":4563},{"buffer":0,"byteOffset":8275,"byteLength":131561},{"buffer":0,"byteOffset":139836,"byteLength":4563}],"buffers":[{"byteLength":144399,"uri":"buffer.bin"}],"images":[{"name":"pm0019_00_Body1","uri":"pm0019_00_Body1.png"},{"name":"pm0019_00_Eye1","uri":"pm0019_00_Eye1.png"},{"name":"pm0019_00_Iris1","uri":"pm0019_00_Iris1.png"}],"materials":[{"alphaMode":"OPAQUE","name":"Body00","pbrMetallicRoughness":{"baseColorFactor":[0.6400000190734865,0.6400000190734865,0.6400000190734865,1],"baseColorTexture":{"index":0},"metallicFactor":0}},{"alphaMode":"OPAQUE","name":"Eye","pbrMetallicRoughness":{"baseColorFactor":[0.6400000190734865,0.6400000190734865,0.6400000190734865,1],"baseColorTexture":{"index":1},"metallicFactor":0}},{"alphaMode":"MASK","name":"RIris","pbrMetallicRoughness":{"baseColorFactor":[0.6400000190734865,0.6400000190734865,0.6400000190734865,1],"baseColorTexture":{"index":2},"metallicFactor":0}}],"meshes":[{"name":"Rattata_F","primitives":[{"material":1,"extensions":{"ALI_amc_mesh_compression":{"bufferView":1}}},{"material":0,"extensions":{"ALI_amc_mesh_compression":{"bufferView":2}}},{"material":2,"extensions":{"ALI_amc_mesh_compression":{"bufferView":3}}}]}],"nodes":[{"children":[1,21,23,24],"name":"_01_pm0019_00_koratta","rotation":[0.7071068286895752,0,0,0.7071067094802856],"scale":[0.02539999783039093,0.02539999969303608,0.02539999969303608]},{"children":[2],"name":"_02_Origin"},{"children":[27,28,53],"name":"_03_Waist","rotation":[0.49081507325172424,0.5090218186378479,0.49081215262413025,0.5090193748474121],"translation":[0,-2.1956799030303955,-13.382100105285645]},{"name":"_05_EndHips","translation":[13.112199783325195,0,0]},{"name":"_10_EndLFoot","translation":[5.656221866607666,-2.3841900542720396e-7,0]},{"name":"_13_EndLToe2","translation":[3.3896310329437256,2.980229965032777e-7,-4.768369876728684e-7]},{"name":"_18_EndRFoot","translation":[5.656250953674316,0,0]},{"name":"_21_EndRToe2","translation":[3.389599084854126,-1.7881400538044545e-7,0]},{"name":"_28_EndTail6","translation":[8.413917541503906,9.536739753457368e-7,0]},{"name":"_33_EndJaw","translation":[9.956899642944336,0,-2.9103799231711136e-11]},{"name":"_36_EndLEar2","translation":[4.840550899505615,-0.0000019073499970545527,0.0000019073499970545527]},{"children":[12],"name":"_38_LFeeler2","translation":[4.5334320068359375,0,0.0000019073499970545527]},{"name":"_39_EndLFeeler2","rotation":[0,-7.105427357601002e-15,0,1],"translation":[9.839509963989258,0,0.0000019073504518019035]},{"name":"_41_EndNose","translation":[3.3357090950012207,0.0000019073499970545527,-7.27596021626864e-12]},{"name":"_44_EndREar2","translation":[4.840548992156982,-0.0000028610199933609692,0.000013351400411920622]},{"children":[16],"name":"_46_RFeeler2","translation":[8.253451347351074,0,-0.000004768370217789197]},{"name":"_47_EndRFeeler2","translation":[6.119485855102539,-0.00002670290086825844,0.00005149839853402227]},{"name":"_52_EndLHand","translation":[3.2006309032440186,2.3841900542720396e-7,0]},{"name":"_54_EndLFinger","translation":[3.481257915496826,-5.96045985901128e-8,-4.768369876728684e-7]},{"name":"_59_EndRHand","translation":[3.200611114501953,-2.3841900542720396e-7,-4.768369876728684e-7]},{"name":"_61_EndRFinger","translation":[3.4812989234924316,5.96045985901128e-8,9.536739753457368e-7]},{"children":[22],"name":"_62_VriVis00"},{"name":"_63_pm0019_00_MustacheSkin"},{"name":"_64_pm0019_00_BodySkin"},{"name":"_65_pm0019_00_IrisSkin"},{"name":"Camera","rotation":[0.483536034822464,0.33687159419059753,-0.20870360732078552,0.7804827094078064],"translation":[7.481131553649902,5.34366512298584,6.5076398849487305]},{"name":"Lamp","rotation":[0.16907575726509094,0.7558802962303162,-0.27217137813568115,0.570947527885437],"scale":[1,1,0.9999999403953552],"translation":[4.076245307922363,5.903861999511719,-1.0054539442062378]},{"mesh":0,"name":"Rattata_F","rotation":[0.012872288934886456,-0.7069894075393677,0.012876264750957489,0.7069897055625916],"scale":[1,0.9999998807907104,1.0000001192092896],"skin":0,"translation":[1.7070090770721436,13.453166007995605,-0.0000731821492081508]},{"children":[29,30,38,46],"name":"_03_Waist__04_Hips","rotation":[-0.47142675518989563,0.5270264744758606,-0.5270264744758606,0.47142675518989563],"translation":[15.160171508789062,11.746158599853516,-0.000058510806411504745]},{"name":"_03_Waist__05_EndHips","translation":[12.969490051269531,-0.00005936622619628906,1.9292885065078735]},{"children":[31],"name":"_03_Waist__06_LHips","rotation":[0,-0.7824133634567261,0,0.6227594017982483],"translation":[4.898678779602051,-3.0207951068878174,3.0416035652160645]},{"children":[32],"name":"_03_Waist__07_LThigh","rotation":[0,0.167167529463768,0,0.9859285950660706],"translation":[-2.153113603591919,-2.8456008434295654,0.4528087377548218]},{"children":[33],"name":"_03_Waist__08_LLeg","rotation":[0,0.3362155556678772,0,0.9417851567268372],"scale":[0.9999998807907104,1,0.9999998807907104],"translation":[-4.645178318023682,-0.5367283821105957,-2.635687828063965]},{"children":[34,35],"name":"_03_Waist__09_LFoot","rotation":[0,-0.9511675238609314,0,0.3086753785610199],"translation":[1.9632527828216553,-0.381807804107666,-5.961829662322998]},{"name":"_03_Waist__10_EndLFoot","rotation":[0,-3.3527612686157227e-8,0,1],"translation":[5.656223773956299,0.00002574920654296875,-0.0004920065402984619]},{"children":[36],"name":"_03_Waist__11_LToe1","rotation":[0,0.15285959839820862,0,0.9882479310035706],"translation":[1.0399065017700195,0.04225301742553711,2.9151737689971924]},{"children":[37],"name":"_03_Waist__12_LToe2","rotation":[0,-0.15285979211330414,0,0.9882479906082153],"translation":[1.6610677242279053,0.017943859100341797,1.1686567068099976]},{"name":"_03_Waist__13_EndLToe2","rotation":[0,9.313225746154785e-9,0,1],"translation":[3.3896303176879883,0.0000152587890625,-0.0002966970205307007]},{"children":[39],"name":"_03_Waist__14_RHips","rotation":[0,-0.782404363155365,0,0.6227707862854004],"scale":[0.9999999403953552,1,0.9999999403953552],"translation":[4.902719497680664,3.041088342666626,3.0147929191589355]},{"children":[40],"name":"_03_Waist__15_RThigh","rotation":[0,0.16728761792182922,0,0.9859081506729126],"translation":[-2.1531779766082764,2.8455700874328613,0.45271778106689453]},{"children":[41],"name":"_03_Waist__16_RLeg","rotation":[0,0.33620840311050415,0,0.9417876601219177],"translation":[-4.644474983215332,0.5366663932800293,-2.6369729042053223]},{"children":[42,43],"name":"_03_Waist__17_RFoot","rotation":[0,-0.9511803984642029,0,0.30863580107688904],"translation":[1.9648176431655884,0.3817167282104492,-5.961349964141846]},{"name":"_03_Waist__18_EndRFoot","rotation":[0,9.313225746154785e-9,0,1],"translation":[5.656250476837158,0.00002574920654296875,0.0004930943250656128]},{"children":[44],"name":"_03_Waist__19_RToe1","rotation":[0,0.1522640436887741,0,0.9883398413658142],"scale":[0.9999999403953552,1,0.9999999403953552],"translation":[1.0393614768981934,-0.04235982894897461,2.915361166000366]},{"children":[45],"name":"_03_Waist__20_RToe2","rotation":[0,-0.15226423740386963,0,0.988339900970459],"translation":[1.6623516082763672,-0.017925262451171875,1.166969895362854]},{"name":"_03_Waist__21_EndRToe2","rotation":[-1.4673249282282086e-8,-5.587935447692871e-9,8.19931664885756e-17,1],"translation":[3.3895983695983887,0.0000152587890625,0.00029471516609191895]},{"children":[47],"name":"_03_Waist__22_Tail1","rotation":[0,-0.11906196177005768,0,0.9928868412971497],"translation":[10.781682968139648,0.01220083236694336,4.377359390258789]},{"children":[48],"name":"_03_Waist__23_Tail2","translation":[7.324522495269775,-0.0000476837158203125,-0.0000016093254089355469]},{"children":[49],"name":"_03_Waist__24_Tail3","translation":[7.353695869445801,-0.00004792213439941406,0.0000015497207641601562]},{"children":[50],"name":"_03_Waist__25_Tail4","translation":[8.26362419128418,-0.000053882598876953125,-4.76837158203125e-7]},{"children":[51],"name":"_03_Waist__26_Tail5","translation":[7.595216751098633,-0.000049591995775699615,0.0000040531158447265625]},{"children":[52],"name":"_03_Waist__27_Tail6","translation":[6.777067184448242,-0.00004434678703546524,-0.00000286102294921875]},{"name":"_03_Waist__28_EndTail6","translation":[8.413914680480957,-0.00005483720451593399,9.5367431640625e-7]},{"children":[54],"name":"_03_Waist__29_Spine1","rotation":[-0.5000001192092896,-0.4999999701976776,0.4999999701976776,0.5000001192092896],"translation":[15.160175323486328,11.746158599853516,-0.000058529494708636776]},{"children":[55,72,79],"name":"_03_Waist__30_Spine2","rotation":[0,0.13162454962730408,0,0.9912996292114258],"translation":[4.586729049682617,0.000020980831322958693,3.587911123759113e-7]},{"children":[56,58,61,64,66,69],"name":"_03_Waist__31_Head","rotation":[0,-0.03700561821460724,0,0.999315083026886],"translation":[6.818504810333252,0.00003707408905029297,0.0000057220458984375]},{"children":[57],"name":"_03_Waist__32_Jaw","rotation":[0,0.458736389875412,0,0.8885723948478699],"translation":[6.908021450042725,0.000030487775802612305,1.8628616333007812]},{"name":"_03_Waist__33_EndJaw","rotation":[0,-1.4901162970204496e-8,0,1],"scale":[0.9999999403953552,1,0.9999999403953552],"translation":[-6.531437873840332,-0.00001537799835205078,7.515326976776123]},{"children":[59],"name":"_03_Waist__34_LEar1","rotation":[0,0.7159645557403564,0,0.6981366872787476],"translation":[4.822720527648926,-7.097883224487305,-5.095093250274658]},{"children":[60],"name":"_03_Waist__35_LEar2","rotation":[0,-1.4901162970204496e-8,0,1],"scale":[0.9999999403953552,1,0.9999999403953552],"translation":[2.4011669158935547,-3.0546822547912598,-0.871955394744873]},{"name":"_03_Waist__36_EndLEar2","rotation":[0,7.450580596923828e-9,0,1],"translation":[2.9188170433044434,-3.713214874267578,-1.0599403381347656]},{"children":[62],"name":"_03_Waist__37_LFeeler1","rotation":[0,0.8081493377685547,0,0.5889776349067688],"scale":[1,0.9999999403953552,1],"translation":[8.22999095916748,-8.214884757995605,0.3573145866394043]},{"children":[63],"name":"_03_Waist__38_LFeeler2","rotation":[0,-1.4901161193847656e-8,0,1],"translation":[1.6499500274658203,-3.8567256927490234,-1.7191143035888672]},{"name":"_03_Waist__39_EndLFeeler2","translation":[3.581106424331665,-8.37076187133789,-3.7312231063842773]},{"children":[65],"name":"_03_Waist__40_Nose","rotation":[0,0.002510980237275362,0,0.9999968409538269],"scale":[0.9999999403953552,1,0.9999999403953552],"translation":[17.106903076171875,0.00009182095527648926,0]},{"name":"_03_Waist__41_EndNose","scale":[0.9999999403953552,1,0.9999999403953552],"translation":[3.3357062339782715,0.0000184476375579834,0.0000019073486328125]},{"children":[67],"name":"_03_Waist__42_REar1","rotation":[0,0.7159659266471863,0,0.6981353163719177],"translation":[4.822693347930908,7.0979719161987305,-5.095074653625488]},{"children":[68],"name":"_03_Waist__43_REar2","rotation":[0,-6.705523247774181e-8,0,1],"scale":[0.9999999403953552,1,0.9999999403953552],"translation":[2.4011125564575195,3.054680347442627,-0.8720340728759766]},{"name":"_03_Waist__44_EndREar2","translation":[2.918811798095703,3.7132110595703125,-1.0599603652954102]},{"children":[70],"name":"_03_Waist__45_RFeeler1","rotation":[0,0.808147668838501,0,0.5889800786972046],"scale":[0.9999999403953552,1,0.9999999403953552],"translation":[8.229897499084473,8.21496868133545,0.357330322265625]},{"children":[71],"name":"_03_Waist__46_RFeeler2","rotation":[0,-2.9802322387695312e-8,0,1],"translation":[3.003744125366211,7.02147102355957,-3.129833221435547]},{"name":"_03_Waist__47_EndRFeeler2","scale":[0.9999999403953552,1,0.9999999403953552],"translation":[2.2271676063537598,5.206019401550293,-2.3205947875976562]},{"children":[73],"name":"_03_Waist__48_LShoulder","rotation":[0,0.5597472190856934,0,0.8286634087562561],"scale":[1.0000001192092896,1,1.0000001192092896],"translation":[4.593364715576172,-2.921128273010254,-1.2528915405273438]},{"children":[74],"name":"_03_Waist__49_LArm","rotation":[0,0.058622609823942184,0,0.9982802271842957],"scale":[0.9999999403953552,1,0.9999999403953552],"translation":[-1.86991548538208,-2.95231032371521,0.4443027973175049]},{"children":[75],"name":"_03_Waist__50_LForeArm","rotation":[0,-0.06418676674365997,0,0.9979379177093506],"translation":[-6.848315238952637,-0.000016689300537109375,0.01790103316307068]},{"children":[76,77],"name":"_03_Waist__51_LHand","rotation":[0,-0.6459795832633972,0,0.7633547186851501],"scale":[0.9999999403953552,1,0.9999999403953552],"translation":[-5.899910926818848,-0.000011920928955078125,1.5665802955627441]},{"name":"_03_Waist__52_EndLHand","rotation":[0,-2.2351741790771484e-8,0,1],"translation":[3.192146062850952,0.00001430511474609375,0.2329026460647583]},{"children":[78],"name":"_03_Waist__53_LFinger","rotation":[0,-2.2351741790771484e-8,0,1],"translation":[2.050901174545288,-9.5367431640625e-7,0.9920879602432251]},{"name":"_03_Waist__54_EndLFinger","translation":[3.472029447555542,0.0000152587890625,0.2533235549926758]},{"children":[80],"name":"_03_Waist__55_RShoulder","rotation":[0,0.5597537755966187,0,0.8286590576171875],"translation":[4.593332290649414,2.921186923980713,-1.2528777122497559]},{"children":[81],"name":"_03_Waist__56_RArm","rotation":[0,0.058614667505025864,0,0.9982807040214539],"translation":[-1.869950771331787,2.952303409576416,0.4442570209503174]},{"children":[82],"name":"_03_Waist__57_RForeArm","rotation":[0,-0.06418673694133759,0,0.9979379177093506],"translation":[-6.848311424255371,-0.00003910064697265625,0.01789379119873047]},{"children":[83,84],"name":"_03_Waist__58_RHand","rotation":[0,-0.6167340874671936,0,0.7871716022491455],"scale":[0.9999999403953552,1,0.9999999403953552],"translation":[-5.89990758895874,-0.00002765655517578125,1.5665874481201172]},{"name":"_03_Waist__59_EndRHand","rotation":[0,-2.9802322387695312e-8,0,1],"translation":[3.165494203567505,0.000013828277587890625,0.47281715273857117]},{"children":[85],"name":"_03_Waist__60_RFinger","rotation":[0,-2.9802322387695312e-8,0,1],"translation":[1.9702495336532593,-0.002903461456298828,1.1438263654708862]},{"name":"_03_Waist__61_EndRFinger","translation":[3.443101406097412,0.00001621246337890625,0.5142817497253418]}],"samplers":[{}],"scene":0,"scenes":[{"name":"Scene","nodes":[20,19,18,17,15,14,13,11,10,9,8,7,6,5,4,3,0,26,25]}],"skins":[{"inverseBindMatrices":0,"joints":[28,29,30,31,32,33,34,35,36,37,38,39,40,41,42,43,44,45,46,47,48,49,50,51,52,53,54,55,56,57,58,59,60,61,62,63,64,65,66,67,68,69,70,71,72,73,74,75,76,77,78,79,80,81,82,83,84,85],"skeleton":2}],"textures":[{"sampler":0,"source":0},{"sampler":0,"source":1},{"sampler":0,"source":2}],"extensionsUsed":["ALI_amc_mesh_compression"],"extensionsRequired":["ALI_amc_mesh_compression"]}