{"accessors":[{"bufferView":0,"componentType":5126,"count":74,"max":[0.000010535160981817171,-0.9999999403953552,4.155040187470149e-7,0,0.9999992847442627,-0.000010543067219259683,0.9999999403953552,0,0.04675678163766861,-7.754062636422532e-8,0.9999993443489075,0,19.40985870361328,35.912784576416016,24.414209365844727,1],"min":[-0.000010543136340857018,-1,-0.000010543066309764981,0,-0.9989061951637268,-0.000010543068128754385,-0.04675678536295891,0,-1,-7.754063346965268e-8,-0.9989062547683716,0,-70.4854965209961,-35.91300964355469,-24.27361297607422,1],"type":"MAT4","byteOffset":0}],"asset":{"generator":"Khronos Blender glTF 2.0 exporter","version":"2.0"},"bufferViews":[{"buffer":0,"byteLength":4736,"byteOffset":0},{"buffer":0,"byteOffset":4736,"byteLength":687},{"buffer":0,"byteOffset":5423,"byteLength":2475},{"buffer":0,"byteOffset":7898,"byteLength":113346},{"buffer":0,"byteOffset":121244,"byteLength":62755}],"buffers":[{"byteLength":183999,"uri":"buffer.bin"}],"images":[{"name":"pm0037_00_BodyA1","uri":"pm0037_00_BodyA1.png"},{"name":"pm0037_00_BodyB1","uri":"pm0037_00_BodyB1.png"},{"name":"pm0037_00_Eye1","uri":"pm0037_00_Eye1.png"},{"name":"pm0037_00_Mouth1","uri":"pm0037_00_Mouth1.png"}],"materials":[{"alphaMode":"OPAQUE","name":"BodyA01","pbrMetallicRoughness":{"baseColorFactor":[0.6400000190734865,0.6400000190734865,0.6400000190734865,1],"baseColorTexture":{"index":0},"metallicFactor":0}},{"alphaMode":"OPAQUE","name":"BodyB","pbrMetallicRoughness":{"baseColorFactor":[0.6400000190734865,0.6400000190734865,0.6400000190734865,1],"baseColorTexture":{"index":1},"metallicFactor":0}},{"alphaMode":"OPAQUE","name":"Eye","pbrMetallicRoughness":{"baseColorFactor":[0.6400000190734865,0.6400000190734865,0.6400000190734865,1],"baseColorTexture":{"index":2},"metallicFactor":0}},{"alphaMode":"OPAQUE","name":"Mouth","pbrMetallicRoughness":{"baseColorFactor":[0.6400000190734865,0.6400000190734865,0.6400000190734865,1],"baseColorTexture":{"index":3},"metallicFactor":0}}],"meshes":[{"name":"Vulpix","primitives":[{"material":3,"extensions":{"ALI_amc_mesh_compression":{"bufferView":1}}},{"material":2,"extensions":{"ALI_amc_mesh_compression":{"bufferView":2}}},{"material":0,"extensions":{"ALI_amc_mesh_compression":{"bufferView":3}}},{"material":1,"extensions":{"ALI_amc_mesh_compression":{"bufferView":4}}}]}],"nodes":[{"children":[1,24],"name":"_01_pm0037_00","rotation":[0.7071068286895752,0,0,0.7071067094802856],"scale":[0.02539999783039093,0.02539999969303608,0.02539999969303608]},{"children":[2],"name":"_02_Origin"},{"children":[27,28,76],"name":"_03_Waist","rotation":[0.5058097839355469,0.49411657452583313,0.5058150887489319,0.49412181973457336],"translation":[0,-5.155189514160156,-24.541500091552734]},{"name":"_05_EndHips","translation":[18.181400299072266,0,-2.7284799853505293e-12]},{"name":"_10_EndLTailA4","translation":[10.000109672546387,0.00003433230085647665,0.00003528589877532795]},{"name":"_15_EndLTailB4","translation":[10.000020027160645,-0.0000019073499970545527,0.0000019073499970545527]},{"name":"_20_EndLTailC4","translation":[10.000020027160645,-0.000003814699994109105,0.000003814699994109105]},{"name":"_24_EndLFoot","translation":[4.251277923583984,-9.536739753457368e-7,-9.536739753457368e-7]},{"name":"_26_EndLToe1","translation":[5.986378192901611,-2.3841900542720396e-7,-4.768369876728684e-7]},{"name":"_28_EndLToe2","translation":[4.321710109710693,1.1920899822825959e-7,0]},{"name":"_33_EndRTailA4","translation":[10.000020027160645,-0.000011444099982327316,-9.536739753457368e-7]},{"name":"_38_EndRTailB4","translation":[10,0.000017166099496535026,0.00009346009755972773]},{"name":"_43_EndRTailC4","translation":[9.999992370605469,-0.000005722049991163658,0.000045776399929309264]},{"name":"_47_EndRFoot","translation":[4.251300811767578,0,0]},{"name":"_49_EndRToe1","translation":[5.9864020347595215,-2.3841900542720396e-7,0]},{"name":"_51_EndRToe2","translation":[4.321700096130371,-1.1920899822825959e-7,0]},{"name":"_58_EndLHand","translation":[4.877241134643555,0,9.536739753457368e-7]},{"name":"_60_EndLFinger","translation":[3.645250082015991,0,0]},{"name":"_64_EndFeeler","translation":[10.821100234985352,0,1.4551899615855568e-11]},{"name":"_66_EndHair","translation":[7.72172212600708,0,8.731149830909501e-11]},{"name":"_68_EndLEar","translation":[15.250200271606445,0.000005722049991163658,0]},{"name":"_70_EndREar","translation":[15.250189781188965,-0.000043869000364793465,0.00001907350088004023]},{"name":"_75_EndRHand","translation":[4.877199172973633,4.768369876728684e-7,4.768369876728684e-7]},{"name":"_77_EndRFinger","translation":[3.6452300548553467,1.1920899822825959e-7,-9.536739753457368e-7]},{"name":"_78_pm0037_00_BodySkin"},{"name":"Camera","rotation":[0.483536034822464,0.33687159419059753,-0.20870360732078552,0.7804827094078064],"translation":[7.481131553649902,5.34366512298584,6.5076398849487305]},{"name":"Lamp","rotation":[0.16907575726509094,0.7558802962303162,-0.27217137813568115,0.570947527885437],"scale":[1,1,0.9999999403953552],"translation":[4.076245307922363,5.903861999511719,-1.0054539442062378]},{"mesh":0,"name":"Vulpix","rotation":[-0.00826453510671854,-0.7070584893226624,-0.00827204529196024,0.7070584297180176],"scale":[1,1,1.0000001192092896],"skin":0,"translation":[5.727680683135986,24.414236068725586,0.000258342974120751]},{"children":[29,30,35,40,45,53,58,63,68],"name":"_03_Waist__04_Hips","rotation":[-0.5058124661445618,0.49411919713020325,-0.49411919713020325,0.5058124661445618],"translation":[30.14191246032715,18.686553955078125,0.00007351115345954895]},{"name":"_03_Waist__05_EndHips","translation":[18.161514282226562,0.00007152557373046875,-0.8501083850860596]},{"children":[31],"name":"_03_Waist__06_LTailA1","rotation":[0,-0.35898637771606445,0,0.9333428144454956],"translation":[12.786897659301758,0.000023603439331054688,1.5293076038360596]},{"children":[32],"name":"_03_Waist__07_LTailA2","rotation":[0,0.00009264051914215088,0,1],"translation":[9.757967948913574,-2.1859307289123535,-0.05472719669342041]},{"children":[33],"name":"_03_Waist__08_LTailA3","rotation":[0,1.4901162614933128e-7,0,1],"scale":[0.9999998807907104,1,0.9999998807907104],"translation":[9.757589340209961,-2.1882269382476807,-0.054619789123535156]},{"children":[34],"name":"_03_Waist__09_LTailA4","translation":[9.75740909576416,-2.1883277893066406,-0.05475616455078125]},{"name":"_03_Waist__10_EndLTailA4","translation":[9.757589340209961,-2.1882781982421875,-0.054622650146484375]},{"children":[36],"name":"_03_Waist__11_LTailB1","rotation":[0,-0.35489422082901,0,0.9349064826965332],"translation":[12.786893844604492,0.0000209808349609375,1.5293190479278564]},{"children":[37],"name":"_03_Waist__12_LTailB2","rotation":[0,0.0000978708267211914,0,1],"translation":[7.878658771514893,-6.158134460449219,0.06560179591178894]},{"children":[38],"name":"_03_Waist__13_LTailB3","rotation":[0,-4.470348358154297e-8,0,1],"translation":[7.879528999328613,-6.156999111175537,0.06458353996276855]},{"children":[39],"name":"_03_Waist__14_LTailB4","rotation":[0,1.0430814256778831e-7,0,1],"scale":[0.9999998807907104,1,0.9999998807907104],"translation":[7.879544258117676,-6.156999588012695,0.06458854675292969]},{"name":"_03_Waist__15_EndLTailB4","translation":[7.879555702209473,-6.157012939453125,0.06458282470703125]},{"children":[41],"name":"_03_Waist__16_LTailC1","rotation":[0,-0.3197442591190338,0,0.9475039839744568],"translation":[12.786890029907227,0.000023126602172851562,1.5293172597885132]},{"children":[42],"name":"_03_Waist__17_LTailC2","rotation":[0,-0.00002403557300567627,0,1],"translation":[4.389086723327637,-8.979206085205078,0.3314814567565918]},{"children":[43],"name":"_03_Waist__18_LTailC3","rotation":[0,5.960465188081798e-8,0,1],"scale":[0.9999999403953552,1,0.9999999403953552],"translation":[4.3916802406311035,-8.97791576385498,0.3318254053592682]},{"children":[44],"name":"_03_Waist__19_LTailC4","rotation":[0,-1.4901161193847656e-8,0,1],"translation":[4.391668796539307,-8.977926254272461,0.33182692527770996]},{"name":"_03_Waist__20_EndLTailC4","rotation":[0,-1.4901161193847656e-8,0,1],"translation":[4.391682147979736,-8.977941513061523,0.33182811737060547]},{"children":[46],"name":"_03_Waist__21_LThigh","rotation":[0,-0.649935245513916,0,0.7599895596504211],"scale":[0.9999999403953552,1,0.9999999403953552],"translation":[8.228216171264648,-5.999746322631836,-1.8701801300048828]},{"children":[47],"name":"_03_Waist__22_LLeg","rotation":[0,0.28297796845436096,0,0.9591264724731445],"scale":[0.9999999403953552,1,0.9999999403953552],"translation":[-7.580868244171143,0.000045299530029296875,-2.055866003036499]},{"children":[48,49],"name":"_03_Waist__23_LFoot","rotation":[0,-0.9032575488090515,0,0.42909881472587585],"translation":[-1.1166951656341553,0.000041961669921875,-6.991423606872559]},{"name":"_03_Waist__24_EndLFoot","rotation":[0,-1.862645326866641e-8,0,1],"scale":[0.9999999403953552,1,0.9999999403953552],"translation":[4.251276016235352,-0.000017642974853515625,-0.0041981041431427]},{"children":[50,51],"name":"_03_Waist__25_LToe1","rotation":[0,-1.862645326866641e-8,0,1],"scale":[0.9999999403953552,1,0.9999999403953552],"translation":[1.4025033712387085,0.055977821350097656,6.9159393310546875]},{"name":"_03_Waist__26_EndLToe1","scale":[0.9999999403953552,1,0.9999999403953552],"translation":[5.986374378204346,-0.000024318695068359375,-0.005912959575653076]},{"children":[52],"name":"_03_Waist__27_LToe2","scale":[0.9999999403953552,1,0.9999999403953552],"translation":[2.2460477352142334,0.011130809783935547,1.3751734495162964]},{"name":"_03_Waist__28_EndLToe2","scale":[0.9999999403953552,1,0.9999999403953552],"translation":[4.3217058181762695,-0.000017642974853515625,-0.004269123077392578]},{"children":[54],"name":"_03_Waist__29_RTailA1","rotation":[0,-0.3589867353439331,0,0.933342695236206],"translation":[12.78689193725586,0.000024080276489257812,1.5293115377426147]},{"children":[55],"name":"_03_Waist__30_RTailA2","rotation":[0,0.00009268522262573242,0,1],"translation":[9.758012771606445,2.185870885848999,-0.05471646785736084]},{"children":[56],"name":"_03_Waist__31_RTailA3","rotation":[0,8.642672355563263e-7,0,1],"scale":[1.0000001192092896,1,1.0000001192092896],"translation":[9.757513046264648,2.188156843185425,-0.05464506149291992]},{"children":[57],"name":"_03_Waist__32_RTailA4","rotation":[0,-1.0430811414607888e-7,0,1],"scale":[1.0000001192092896,1,1.0000001192092896],"translation":[9.75748348236084,2.188267230987549,-0.05464744567871094]},{"name":"_03_Waist__33_EndRTailA4","translation":[9.757518768310547,2.1882052421569824,-0.054656982421875]},{"children":[59],"name":"_03_Waist__34_RTailB1","rotation":[0,-0.3548958897590637,0,0.9349059462547302],"translation":[12.786893844604492,0.000024318695068359375,1.5293076038360596]},{"children":[60],"name":"_03_Waist__35_RTailB2","rotation":[0,0.0000975877046585083,0,1],"translation":[7.878687858581543,6.158082962036133,0.06570561230182648]},{"children":[61],"name":"_03_Waist__36_RTailB3","translation":[7.879572868347168,6.156959533691406,0.0645747184753418]},{"children":[62],"name":"_03_Waist__37_RTailB4","translation":[7.879498481750488,6.15696907043457,0.06462907791137695]},{"name":"_03_Waist__38_EndRTailB4","translation":[7.879641532897949,6.156871795654297,0.0646371841430664]},{"children":[64],"name":"_03_Waist__39_RTailC1","rotation":[0,-0.3197477459907532,0,0.9475027322769165],"scale":[0.9999999403953552,1,0.9999999403953552],"translation":[12.786895751953125,0.000022411346435546875,1.5293056964874268]},{"children":[65],"name":"_03_Waist__40_RTailC2","rotation":[0,-0.000024020671844482422,0,1],"scale":[1,0.9999999403953552,1],"translation":[4.389084815979004,8.97917366027832,0.331587553024292]},{"children":[66],"name":"_03_Waist__41_RTailC3","rotation":[0,-5.960464477539063e-8,0,1],"translation":[4.391779899597168,8.977849006652832,0.33190345764160156]},{"children":[67],"name":"_03_Waist__42_RTailC4","rotation":[0,-5.960464477539063e-8,0,1],"translation":[4.3916544914245605,8.977910995483398,0.33188939094543457]},{"name":"_03_Waist__43_EndRTailC4","scale":[1,0.9999999403953552,1],"translation":[4.39176607131958,8.977867126464844,0.3318924903869629]},{"children":[69],"name":"_03_Waist__44_RThigh","rotation":[0,-0.649935245513916,0,0.7599895596504211],"scale":[0.9999999403953552,1,0.9999999403953552],"translation":[8.228154182434082,5.999773979187012,-1.8701519966125488]},{"children":[70],"name":"_03_Waist__45_RLeg","rotation":[0,0.28297796845436096,0,0.9591264724731445],"scale":[0.9999999403953552,1,0.9999999403953552],"translation":[-7.580892562866211,0.000051975250244140625,-2.0559654235839844]},{"children":[71,72],"name":"_03_Waist__46_RFoot","rotation":[0,-0.9032575488090515,0,0.42909881472587585],"translation":[-1.1167209148406982,0.00003814697265625,-6.991415023803711]},{"name":"_03_Waist__47_EndRFoot","rotation":[0,-1.862645326866641e-8,0,1],"scale":[0.9999999403953552,1,0.9999999403953552],"translation":[4.251297950744629,-0.000016689300537109375,-0.004198804497718811]},{"children":[73,74],"name":"_03_Waist__48_RToe1","rotation":[0,-1.862645326866641e-8,0,1],"scale":[0.9999999403953552,1,0.9999999403953552],"translation":[1.4025120735168457,0.05597496032714844,6.915914535522461]},{"name":"_03_Waist__49_EndRToe1","scale":[0.9999999403953552,1,0.9999999403953552],"translation":[5.986397743225098,-0.00002288818359375,-0.005912512540817261]},{"children":[75],"name":"_03_Waist__50_RToe2","scale":[0.9999999403953552,1,0.9999999403953552],"translation":[2.2460482120513916,0.011134147644042969,1.3751720190048218]},{"name":"_03_Waist__51_EndRToe2","scale":[0.9999999403953552,1,0.9999999403953552],"translation":[4.321697235107422,-0.0000171661376953125,-0.004268854856491089]},{"children":[77],"name":"_03_Waist__52_Spine1","rotation":[-0.499999076128006,-0.5000010132789612,0.5000010132789612,0.499999076128006],"scale":[1,0.9999999403953552,1],"translation":[30.141910552978516,18.686553955078125,0.00007351108069997281]},{"children":[78,85,95],"name":"_03_Waist__53_Spine2","rotation":[0,0.1385529488325119,0,0.9903550148010254],"scale":[0.9999999403953552,1,0.9999999403953552],"translation":[4.470682144165039,-0.00001704692840576172,-0.000005426736606750637]},{"children":[79],"name":"_03_Waist__54_LShoulder","rotation":[0,0.5481818914413452,0,0.8363592624664307],"scale":[0.9999999403953552,1,0.9999999403953552],"translation":[5.259550094604492,-3.2811362743377686,1.122021198272705]},{"children":[80],"name":"_03_Waist__55_LArm","rotation":[0,0.09562307596206665,0,0.9954177141189575],"translation":[-4.332924842834473,-2.4301834106445312,1.495635747909546]},{"children":[81],"name":"_03_Waist__56_LForeArm","rotation":[0,-0.17209894955158234,0,0.9850797057151794],"translation":[-9.702641487121582,0.000019073486328125,-1.1525471210479736]},{"children":[82,83],"name":"_03_Waist__57_LHand","rotation":[0,-0.6081197261810303,0,0.7938452959060669],"scale":[1,0.9999999403953552,1],"translation":[-6.200081825256348,0.00000286102294921875,4.005685806274414]},{"name":"_03_Waist__58_EndLHand","rotation":[0,9.313225746154785e-10,0,1],"translation":[4.871908187866211,-0.00001811981201171875,-0.22804445028305054]},{"children":[84],"name":"_03_Waist__59_LFinger","rotation":[0,9.313225746154785e-10,0,1],"translation":[2.6887362003326416,-0.00001049041748046875,2.2290821075439453]},{"name":"_03_Waist__60_EndLFinger","translation":[3.6412582397460938,-0.000014781951904296875,-0.17044103145599365]},{"children":[86],"name":"_03_Waist__61_Neck","rotation":[0,0.2984101474285126,0,0.9544377326965332],"translation":[7.29970645904541,-0.00003993511927546933,0.000003814697265625]},{"children":[87,89,91,93],"name":"_03_Waist__62_Head","rotation":[0,0.15712563693523407,0,0.9875786304473877],"translation":[4.759153366088867,-0.00003451108932495117,0.0000054836273193359375]},{"children":[88],"name":"_03_Waist__63_Feeler","rotation":[0,0.19601023197174072,0,0.9806018471717834],"translation":[18.665918350219727,-0.00013017654418945312,0]},{"name":"_03_Waist__64_EndFeeler","translation":[10.821104049682617,0.0000010132498573511839,-0.000002384185791015625]},{"children":[90],"name":"_03_Waist__65_Hair","rotation":[0,-0.03697409853339195,0,0.9993162155151367],"translation":[19.41971778869629,-0.0001469254493713379,9.584365844726562]},{"name":"_03_Waist__66_EndHair","translation":[-4.858304977416992,0.000044792890548706055,6.001823425292969]},{"children":[92],"name":"_03_Waist__67_LEar","rotation":[0,0.08774764835834503,0,0.9961427450180054],"translation":[12.98355484008789,-8.804169654846191,-0.3826141357421875]},{"name":"_03_Waist__68_EndLEar","translation":[7.209588050842285,-11.537879943847656,-6.889693260192871]},{"children":[94],"name":"_03_Waist__69_REar","rotation":[0,0.08774993568658829,0,0.996142566204071],"translation":[12.983675956726074,8.803999900817871,-0.3825950622558594]},{"name":"_03_Waist__70_EndREar","translation":[7.209802627563477,11.5377779006958,-6.889612197875977]},{"children":[96],"name":"_03_Waist__71_RShoulder","rotation":[0,0.5481685400009155,0,0.8363679051399231],"translation":[5.25958251953125,3.281087875366211,1.1219878196716309]},{"children":[97],"name":"_03_Waist__72_RArm","rotation":[0,0.09563899040222168,0,0.9954161047935486],"scale":[1,0.9999999403953552,1],"translation":[-4.332819938659668,2.4302351474761963,1.4957849979400635]},{"children":[98],"name":"_03_Waist__73_RForeArm","rotation":[0,-0.17209890484809875,0,0.9850797057151794],"translation":[-9.702620506286621,0.0001068115234375,-1.1525492668151855]},{"children":[99,100],"name":"_03_Waist__74_RHand","rotation":[0,-0.6081198453903198,0,0.7938452959060669],"translation":[-6.200127601623535,0.00007009506225585938,4.005692481994629]},{"name":"_03_Waist__75_EndRHand","rotation":[0,-2.9802322387695312e-8,0,1],"translation":[4.8718671798706055,-0.000019073486328125,-0.22804301977157593]},{"children":[101],"name":"_03_Waist__76_RFinger","rotation":[0,-2.9802322387695312e-8,0,1],"translation":[2.6887409687042236,0.000011920928955078125,2.2290823459625244]},{"name":"_03_Waist__77_EndRFinger","translation":[3.6412453651428223,-0.000015735626220703125,-0.170440673828125]}],"samplers":[{}],"scene":0,"scenes":[{"name":"Scene","nodes":[23,22,21,20,19,18,17,16,15,14,13,12,11,10,9,8,7,6,5,4,3,0,26,25]}],"skins":[{"inverseBindMatrices":0,"joints":[28,29,30,31,32,33,34,35,36,37,38,39,40,41,42,43,44,45,46,47,48,49,50,51,52,53,54,55,56,57,58,59,60,61,62,63,64,65,66,67,68,69,70,71,72,73,74,75,76,77,78,79,80,81,82,83,84,85,86,87,88,89,90,91,92,93,94,95,96,97,98,99,100,101],"skeleton":2}],"textures":[{"sampler":0,"source":0},{"sampler":0,"source":1},{"sampler":0,"source":2},{"sampler":0,"source":3}],"extensionsUsed":["ALI_amc_mesh_compression"],"extensionsRequired":["ALI_amc_mesh_compression"]}