{"accessors":[{"bufferView":0,"componentType":5126,"count":16,"max":[1,0,0.9679398536682129,0,1,0,1,0,0,-1,0,0,12.648686408996582,14.146110534667969,13.701539993286133,1],"min":[-0.9486832022666931,0,-1,0,-0.9679398536682129,0,-0.9486832022666931,0,0,-1.000000238418579,0,0,-37.819000244140625,0,-26.496801376342773,1],"type":"MAT4","byteOffset":0},{"bufferView":1,"componentType":5126,"count":16,"max":[1,0,0.9679398536682129,0,1,0,1,0,0,-1,0,0,12.648686408996582,14.146110534667969,13.701539993286133,1],"min":[-0.9486832022666931,0,-1,0,-0.9679398536682129,0,-0.9486832022666931,0,0,-1.000000238418579,0,0,-37.819000244140625,0,-26.496801376342773,1],"type":"MAT4","byteOffset":0},{"bufferView":2,"componentType":5126,"count":16,"max":[1,0,0.9679398536682129,0,1,0,1,0,0,-1,0,0,12.648686408996582,14.146110534667969,13.701539993286133,1],"min":[-0.9486832022666931,0,-1,0,-0.9679398536682129,0,-0.9486832022666931,0,0,-1.000000238418579,0,0,-37.819000244140625,0,-26.496801376342773,1],"type":"MAT4","byteOffset":0},{"bufferView":3,"componentType":5126,"count":16,"max":[1,0,0.9679398536682129,0,1,0,1,0,0,-1,0,0,12.648686408996582,14.146110534667969,13.701539993286133,1],"min":[-0.9486832022666931,0,-1,0,-0.9679398536682129,0,-0.9486832022666931,0,0,-1.000000238418579,0,0,-37.819000244140625,0,-26.496801376342773,1],"type":"MAT4","byteOffset":0},{"bufferView":4,"componentType":5126,"count":16,"max":[1,0,0.9679398536682129,0,1,0,1,0,0,-1,0,0,12.648686408996582,14.146110534667969,13.701539993286133,1],"min":[-0.9486832022666931,0,-1,0,-0.9679398536682129,0,-0.9486832022666931,0,0,-1.000000238418579,0,0,-37.819000244140625,0,-26.496801376342773,1],"type":"MAT4","byteOffset":0},{"bufferView":5,"componentType":5126,"count":16,"max":[1,0,0.9679398536682129,0,1,0,1,0,0,-1,0,0,12.648686408996582,14.146110534667969,13.701539993286133,1],"min":[-0.9486832022666931,0,-1,0,-0.9679398536682129,0,-0.9486832022666931,0,0,-1.000000238418579,0,0,-37.819000244140625,0,-26.496801376342773,1],"type":"MAT4","byteOffset":0},{"bufferView":6,"componentType":5126,"count":16,"max":[1,0,0.9679398536682129,0,1,0,1,0,0,-1,0,0,12.648686408996582,14.146110534667969,13.701539993286133,1],"min":[-0.9486832022666931,0,-1,0,-0.9679398536682129,0,-0.9486832022666931,0,0,-1.000000238418579,0,0,-37.819000244140625,0,-26.496801376342773,1],"type":"MAT4","byteOffset":0},{"bufferView":7,"componentType":5126,"count":16,"max":[1,0,0.9679398536682129,0,1,0,1,0,0,-1,0,0,12.648686408996582,14.146110534667969,13.701539993286133,1],"min":[-0.9486832022666931,0,-1,0,-0.9679398536682129,0,-0.9486832022666931,0,0,-1.000000238418579,0,0,-37.819000244140625,0,-26.496801376342773,1],"type":"MAT4","byteOffset":0}],"asset":{"generator":"Khronos Blender glTF 2.0 exporter","version":"2.0"},"bufferViews":[{"buffer":0,"byteLength":1024,"byteOffset":0},{"buffer":0,"byteLength":1024,"byteOffset":1024},{"buffer":0,"byteLength":1024,"byteOffset":2048},{"buffer":0,"byteLength":1024,"byteOffset":3072},{"buffer":0,"byteLength":1024,"byteOffset":4096},{"buffer":0,"byteLength":1024,"byteOffset":5120},{"buffer":0,"byteLength":1024,"byteOffset":6144},{"buffer":0,"byteLength":1024,"byteOffset":7168},{"buffer":0,"byteOffset":8192,"byteLength":11075},{"buffer":0,"byteOffset":19267,"byteLength":25583},{"buffer":0,"byteOffset":44850,"byteLength":11315},{"buffer":0,"byteOffset":56165,"byteLength":10215},{"buffer":0,"byteOffset":66380,"byteLength":8171},{"buffer":0,"byteOffset":74551,"byteLength":3631},{"buffer":0,"byteOffset":78182,"byteLength":7919},{"buffer":0,"byteOffset":86101,"byteLength":18563}],"buffers":[{"byteLength":104664,"uri":"buffer.bin"}],"images":[{"name":"pm0081_00_Body1","uri":"pm0081_00_Body1.png"},{"name":"pm0081_00_Eye1","uri":"pm0081_00_Eye1.png"}],"materials":[{"name":"BodyEnv00_006","pbrMetallicRoughness":{"baseColorFactor":[0.6400000190734865,0.6400000190734865,0.6400000190734865,1],"baseColorTexture":{"index":0},"metallicFactor":0}},{"name":"BodyEnv00Vco00_006","pbrMetallicRoughness":{"baseColorFactor":[0.6400000190734865,0.6400000190734865,0.6400000190734865,1],"baseColorTexture":{"index":0},"metallicFactor":0}},{"name":"BodyEnv01_006","pbrMetallicRoughness":{"baseColorFactor":[0.6400000190734865,0.6400000190734865,0.6400000190734865,1],"baseColorTexture":{"index":0},"metallicFactor":0}},{"name":"BodyEnv01Vco_006","pbrMetallicRoughness":{"baseColorFactor":[0.6400000190734865,0.6400000190734865,0.6400000190734865,1],"baseColorTexture":{"index":0},"metallicFactor":0}},{"name":"BodyEnv02_006","pbrMetallicRoughness":{"baseColorFactor":[0.6400000190734865,0.6400000190734865,0.6400000190734865,1],"baseColorTexture":{"index":0},"metallicFactor":0}},{"name":"BodyEnv02Vco_006","pbrMetallicRoughness":{"baseColorFactor":[0.6400000190734865,0.6400000190734865,0.6400000190734865,1],"baseColorTexture":{"index":0},"metallicFactor":0}},{"name":"BodySpc_006","pbrMetallicRoughness":{"baseColorFactor":[0.6400000190734865,0.6400000190734865,0.6400000190734865,1],"baseColorTexture":{"index":0},"metallicFactor":0}},{"name":"Eye_006","pbrMetallicRoughness":{"baseColorFactor":[0.6400000190734865,0.6400000190734865,0.6400000190734865,1],"baseColorTexture":{"index":7},"metallicFactor":0}}],"meshes":[{"name":"mesh_4_pm0081_00_Skin.006","primitives":[{"material":0,"extensions":{"ALI_amc_mesh_compression":{"bufferView":8}}}]},{"name":"mesh_7_pm0081_00_Skin.006","primitives":[{"material":5,"extensions":{"ALI_amc_mesh_compression":{"bufferView":9}}}]},{"name":"mesh_0_pm0081_00_Skin.006","primitives":[{"material":1,"extensions":{"ALI_amc_mesh_compression":{"bufferView":10}}}]},{"name":"mesh_6_pm0081_00_Skin.006","primitives":[{"material":3,"extensions":{"ALI_amc_mesh_compression":{"bufferView":11}}}]},{"name":"mesh_3_pm0081_00_Skin.006","primitives":[{"material":4,"extensions":{"ALI_amc_mesh_compression":{"bufferView":12}}}]},{"name":"mesh_2_pm0081_00_Skin.006","primitives":[{"material":7,"extensions":{"ALI_amc_mesh_compression":{"bufferView":13}}}]},{"name":"mesh_5_pm0081_00_Skin.006","primitives":[{"material":2,"extensions":{"ALI_amc_mesh_compression":{"bufferView":14}}}]},{"name":"mesh_1_pm0081_00_Skin.006","primitives":[{"material":6,"extensions":{"ALI_amc_mesh_compression":{"bufferView":15}}}]}],"nodes":[{"children":[3,4,5,6,7,8,9,10,11],"name":"Armature"},{"name":"Camera","rotation":[0.483536034822464,0.33687159419059753,-0.20870360732078552,0.7804827094078064],"translation":[7.481131553649902,5.34366512298584,6.5076398849487305]},{"name":"Lamp","rotation":[0.16907575726509094,0.7558802962303162,-0.27217137813568115,0.570947527885437],"scale":[1,1,0.9999999403953552],"translation":[4.076245307922363,5.903861999511719,-1.0054539442062378]},{"mesh":2,"name":"mesh_0_pm0081_00_Skin","skin":0},{"mesh":7,"name":"mesh_1_pm0081_00_Skin","skin":1},{"mesh":5,"name":"mesh_2_pm0081_00_Skin","skin":2},{"mesh":4,"name":"mesh_3_pm0081_00_Skin","skin":3},{"mesh":0,"name":"mesh_4_pm0081_00_Skin","skin":4},{"mesh":6,"name":"mesh_5_pm0081_00_Skin","skin":5},{"mesh":3,"name":"mesh_6_pm0081_00_Skin","skin":6},{"mesh":1,"name":"mesh_7_pm0081_00_Skin","skin":7},{"children":[12,26],"name":"Armature_pm0081_00","rotation":[-0.7071068286895752,0,0,0.7071068286895752]},{"children":[13],"name":"Armature_Origin","rotation":[0,2.98023479672338e-7,0,1]},{"children":[14,16,19,21,24],"name":"Armature_Waist","rotation":[0,-0.7071070671081543,0,0.7071065902709961],"scale":[1,0.9999999403953552,1],"translation":[-4.547473508864641e-12,-0.0000010174799172091298,13.47700023651123]},{"children":[15],"name":"Armature_Feeler","rotation":[0,0.7071058750152588,0,0.7071077823638916],"translation":[13.019801139831543,-1.1823431123048067e-11,0.00003785023000091314]},{"name":"Armature_EndFeeler","rotation":[0,-0.7071058750152588,0,0.7071077823638916],"translation":[8.610368240624666e-8,1.000444171950221e-11,11.322198867797852]},{"children":[17],"name":"Armature_LArm","rotation":[0,0.9845142960548401,0,0.1753043681383133],"translation":[0.000025749208361958154,-3.6030178307555616e-7,0.000014441239727602806]},{"children":[18],"name":"Armature_LHand","rotation":[0,-4.3213367462158203e-7,0,1],"translation":[-0.000007152557373046875,-0.0000014589597867598059,13.162393569946289]},{"name":"Armature_EndLHand","rotation":[0,-0.6961769461631775,0,0.7178702354431152],"translation":[-0.00000286102294921875,0.0000014204852050170302,16.711498260498047]},{"children":[20],"name":"Armature_LFoot","rotation":[0,-0.991952657699585,0,0.1266098916530609],"translation":[-7.5443644523620605,-7.244913578033447,-5.958042144775391]},{"name":"Armature_EndLFoot","rotation":[0,-0.9960321187973022,0,0.08899479359388351],"scale":[1,0.9999999403953552,1],"translation":[-0.4614224433898926,-6.901144981384277,3.996361255645752]},{"children":[22],"name":"Armature_RArm","rotation":[0,0.17530125379562378,0,0.9845148324966431],"scale":[0.9999999403953552,1,0.9999999403953552],"translation":[0.00001049041748046875,-1.6512149159098044e-7,0.000008409879228565842]},{"children":[23],"name":"Armature_RHand","rotation":[0,-0.0000011771917343139648,0,1],"translation":[0.000006198883056640625,-0.0000023039447114570066,13.162403106689453]},{"name":"Armature_EndRHand","rotation":[0,-0.7178667783737183,0,0.696180522441864],"translation":[-0.00000476837158203125,-3.4553136174508836e-7,16.711475372314453]},{"children":[25],"name":"Armature_RFoot","rotation":[0,0.846272349357605,0,0.5327505469322205],"translation":[-7.544402122497559,-7.244913578033447,5.957996845245361]},{"name":"Armature_EndRFoot","rotation":[0,0.8477447628974915,0,0.5304043889045715],"scale":[1,0.9999999403953552,1],"translation":[-3.3515942096710205,-6.9011945724487305,-2.2250075340270996]},{"name":"Armature_pm0081_00_Skin"}],"samplers":[{}],"scene":0,"scenes":[{"name":"Scene","nodes":[0,2,1]}],"skins":[{"inverseBindMatrices":0,"joints":[11,12,13,14,15,16,17,18,19,20,21,22,23,24,25,26],"skeleton":0},{"inverseBindMatrices":1,"joints":[11,12,13,14,15,16,17,18,19,20,21,22,23,24,25,26],"skeleton":0},{"inverseBindMatrices":2,"joints":[11,12,13,14,15,16,17,18,19,20,21,22,23,24,25,26],"skeleton":0},{"inverseBindMatrices":3,"joints":[11,12,13,14,15,16,17,18,19,20,21,22,23,24,25,26],"skeleton":0},{"inverseBindMatrices":4,"joints":[11,12,13,14,15,16,17,18,19,20,21,22,23,24,25,26],"skeleton":0},{"inverseBindMatrices":5,"joints":[11,12,13,14,15,16,17,18,19,20,21,22,23,24,25,26],"skeleton":0},{"inverseBindMatrices":6,"joints":[11,12,13,14,15,16,17,18,19,20,21,22,23,24,25,26],"skeleton":0},{"inverseBindMatrices":7,"joints":[11,12,13,14,15,16,17,18,19,20,21,22,23,24,25,26],"skeleton":0}],"textures":[{"sampler":0,"source":0},{"sampler":0,"source":0},{"sampler":0,"source":0},{"sampler":0,"source":0},{"sampler":0,"source":0},{"sampler":0,"source":0},{"sampler":0,"source":0},{"sampler":0,"source":1}],"extensionsUsed":["ALI_amc_mesh_compression"],"extensionsRequired":["ALI_amc_mesh_compression"]}