{"accessors":[{"bufferView":0,"componentType":5126,"count":41,"max":[1,0,8.60990496676095e-8,0,1.2914854607970483e-7,0,1,0,0,-1,0,0,102.54110717773438,0,97.92327880859375,1],"min":[1,0,-1.2914854607970483e-7,0,-8.60990496676095e-8,0,1,0,0,-1,0,0,-102.54080963134766,-145.7670135498047,-106.45033264160156,1],"type":"MAT4","byteOffset":0},{"bufferView":1,"componentType":5126,"count":41,"max":[1,0,8.60990496676095e-8,0,1.2914854607970483e-7,0,1,0,0,-1,0,0,102.54110717773438,0,97.92327880859375,1],"min":[1,0,-1.2914854607970483e-7,0,-8.60990496676095e-8,0,1,0,0,-1,0,0,-102.54080963134766,-145.7670135498047,-106.45033264160156,1],"type":"MAT4","byteOffset":0}],"asset":{"generator":"Khronos Blender glTF 2.0 exporter","version":"2.0"},"bufferViews":[{"buffer":0,"byteLength":2624,"byteOffset":0},{"buffer":0,"byteLength":2624,"byteOffset":2624},{"buffer":0,"byteOffset":5248,"byteLength":1811},{"buffer":0,"byteOffset":7059,"byteLength":4427},{"buffer":0,"byteOffset":11486,"byteLength":167625}],"buffers":[{"byteLength":179111,"uri":"buffer.bin"}],"images":[{"name":"pm0093_00_Body1","uri":"pm0093_00_Body1.png"},{"name":"pm0093_00_Eye1","uri":"pm0093_00_Eye1.png"}],"materials":[{"name":"Body00_mat","pbrMetallicRoughness":{"baseColorFactor":[0.6400000190734865,0.6400000190734865,0.6400000190734865,1],"baseColorTexture":{"index":0},"metallicFactor":0}},{"name":"Body_Mask_mat","pbrMetallicRoughness":{"baseColorFactor":[0.6400000190734865,0.6400000190734865,0.6400000190734865,1],"baseColorTexture":{"index":1},"metallicFactor":0}},{"name":"Eye_mat","pbrMetallicRoughness":{"baseColorFactor":[0.6400000190734865,0.6400000190734865,0.6400000190734865,1],"baseColorTexture":{"index":1},"metallicFactor":0}}],"meshes":[{"name":"mesh_8_Body_Mask","primitives":[{"material":1,"extensions":{"ALI_amc_mesh_compression":{"bufferView":2}}}]},{"name":"mesh_2_Body00","primitives":[{"material":2,"extensions":{"ALI_amc_mesh_compression":{"bufferView":3}}},{"material":0,"extensions":{"ALI_amc_mesh_compression":{"bufferView":4}}}]}],"nodes":[{"children":[3,4,5],"name":"Armature","rotation":[0.7071068286895752,0,0,0.7071067094802856],"scale":[0.3461399972438812,0.3461399972438812,0.3461399972438812]},{"name":"Camera","rotation":[0.483536034822464,0.33687159419059753,-0.20870360732078552,0.7804827094078064],"translation":[7.481131553649902,5.34366512298584,6.5076398849487305]},{"name":"Lamp","rotation":[0.16907575726509094,0.7558802962303162,-0.27217137813568115,0.570947527885437],"scale":[1,1,0.9999999403953552],"translation":[4.076245307922363,5.903861999511719,-1.0054539442062378]},{"mesh":1,"name":"vsn_mesh_2_Body00","skin":0},{"mesh":0,"name":"vsn_mesh_8_Body_Mask","skin":1},{"children":[6,43,44,45],"name":"Armature_pm0093_00","rotation":[-0.7071068286895752,0,0,0.7071068286895752]},{"children":[7],"name":"Armature_Origin"},{"children":[8,13,23,33,34,35,36,37,38,39],"name":"Armature_Waist","rotation":[0,2.4470817679899367e-21,0,1],"translation":[0.000025000003006425686,100.27601623535156,7.275957614183426e-12]},{"children":[9],"name":"Armature_Jaw","rotation":[0,-2.66323561349805e-21,0,1],"translation":[-0.000028401373128872365,-7.649726867675781,11.918822288513184]},{"children":[10],"name":"Armature_Tongue1","rotation":[0,2.1615384550811346e-22,0,1],"translation":[0.00005667988443747163,-1.0195388793945312,-3.2084388732910156]},{"children":[11],"name":"Armature_Tongue2","rotation":[0,-4.0233362719047e-22,0,1],"translation":[-0.00005761303327744827,-11.659034729003906,13.76516056060791]},{"children":[12],"name":"Armature_Tongue3","rotation":[0,4.0233362719047e-22,0,1],"translation":[-0.000003594861482270062,-7.146995544433594,7.745561599731445]},{"name":"Armature_Tongue4","translation":[-0.0000033915202948264778,-6.74200439453125,7.306577682495117]},{"children":[14,17,20],"name":"Armature_LHand","rotation":[0,-2.4470817679899367e-21,0,1],"translation":[79.99995422363281,-68.27601623535156,-0.000010045307135442272]},{"children":[15],"name":"Armature_LFingerA1","translation":[-15.237503051757812,4.2904052734375,60.974403381347656]},{"children":[16],"name":"Armature_LFingerA2","rotation":[0,2.1524758864188698e-8,0,1],"translation":[-15.22153091430664,-6.583797454833984,9.043071746826172]},{"name":"Armature_LFingerA3","rotation":[0,-2.1524758864188698e-8,0,1],"translation":[-4.270678520202637,2.9501724243164062,-0.7379664778709412]},{"children":[18],"name":"Armature_LFingerB1","translation":[0.1391143798828125,9.625499725341797,68.19779968261719]},{"children":[19],"name":"Armature_LFingerB2","translation":[-0.9990081787109375,6.2161865234375,23.5816650390625]},{"name":"Armature_LFingerB3","rotation":[0,-4.7609869777314055e-23,0,1],"translation":[-3.5098495483398438,-3.1827163696289062,14.670875549316406]},{"children":[21],"name":"Armature_LFingerC1","translation":[14.493644714355469,-2.9264774322509766,24.381732940673828]},{"children":[22],"name":"Armature_LFingerC2","translation":[6.456596374511719,-3.890094757080078,65.05859375]},{"name":"Armature_LFingerC3","translation":[1.5905914306640625,-10.547918319702148,12.348907470703125]},{"children":[24,27,30],"name":"Armature_RHand","rotation":[0,-2.4470817679899367e-21,0,1],"translation":[-79.99998474121094,-84.27601623535156,-6.139089670648135e-12]},{"children":[25],"name":"Armature_RFingerA1","translation":[15.237457275390625,20.29039764404297,60.9743537902832]},{"children":[26],"name":"Armature_RFingerA2","rotation":[0,2.1524758864188698e-8,0,1],"translation":[15.22158432006836,-6.583759307861328,9.043148040771484]},{"name":"Armature_RFingerA3","rotation":[0,2.1524765969616055e-8,0,1],"translation":[4.909729957580566,-2.475505828857422,-4.800302505493164]},{"children":[28],"name":"Armature_RFingerB1","translation":[-0.13918304443359375,25.625450134277344,68.19742584228516]},{"children":[29],"name":"Armature_RFingerB2","translation":[0.9990310668945312,6.216281890869141,23.58203887939453]},{"name":"Armature_RFingerB3","rotation":[0,-6.457427303985241e-8,0,1],"translation":[3.5098800659179688,-3.1826934814453125,14.670570373535156]},{"children":[31],"name":"Armature_RFingerC1","translation":[-16.257278442382812,12.010971069335938,29.80601692199707]},{"children":[32],"name":"Armature_RFingerC2","translation":[-4.692771911621094,-2.8274803161621094,59.63426971435547]},{"name":"Armature_RFingerC3","translation":[-1.591094970703125,-10.547933578491211,12.348731994628906]},{"name":"Armature_LEar","rotation":[0,2.096324488137628e-17,0,1],"translation":[49.70208740234375,45.49095153808594,-10.156691551208496]},{"name":"Armature_REar","rotation":[0,-2.5659537530506576e-15,0,1],"translation":[-49.702003479003906,45.490997314453125,-10.156721115112305]},{"name":"Armature_LFeelerA","rotation":[0,-2.4470817679899367e-21,0,1],"translation":[63.26084518432617,14.346908569335938,-14.215211868286133]},{"name":"Armature_RFeelerA","rotation":[0,-5.00009096830018e-15,0,1],"translation":[-63.26078796386719,14.347023010253906,-14.215193748474121]},{"name":"Armature_LFeelerB","rotation":[0,-5.695064137346915e-15,0,1],"translation":[59.367881774902344,-16.59992218017578,-20.369304656982422]},{"name":"Armature_RFeelerB","rotation":[0,-2.4470817679899367e-21,0,1],"translation":[-59.3679313659668,-16.59986114501953,-20.36931800842285]},{"children":[40],"name":"Armature_Tail1","translation":[0,0,-0.000011703801646945067]},{"children":[41],"name":"Armature_Tail2","rotation":[0,-2.58320185026571e-21,0,1],"translation":[-0.000023671153030591086,-25.135269165039062,-29.174030303955078]},{"children":[42],"name":"Armature_Tail3","rotation":[0,-6.335878355245496e-23,0,1],"translation":[-0.00002701445555430837,-21.51494598388672,-35.317535400390625]},{"name":"Armature_Tail4","rotation":[0,1.9947886582822827e-22,0,1],"translation":[-0.000025040304535650648,-17.479022979736328,-33.43170166015625]},{"name":"Armature_pm0093_00_IrisSkin"},{"name":"Armature_pm0093_00_BodySkin"},{"name":"Armature_pm0093_00_MaskSkin"}],"samplers":[{}],"scene":0,"scenes":[{"name":"Scene","nodes":[0,2,1]}],"skins":[{"inverseBindMatrices":0,"joints":[5,6,7,8,9,10,11,12,13,14,15,16,17,18,19,20,21,22,23,24,25,26,27,28,29,30,31,32,33,34,35,36,37,38,39,40,41,42,43,44,45],"skeleton":0},{"inverseBindMatrices":1,"joints":[5,6,7,8,9,10,11,12,13,14,15,16,17,18,19,20,21,22,23,24,25,26,27,28,29,30,31,32,33,34,35,36,37,38,39,40,41,42,43,44,45],"skeleton":0}],"textures":[{"sampler":0,"source":0},{"sampler":0,"source":1},{"sampler":0,"source":1}],"extensionsUsed":["ALI_amc_mesh_compression"],"extensionsRequired":["ALI_amc_mesh_compression"]}