{"accessors":[{"bufferView":0,"componentType":5126,"count":61,"max":[1,0,7.105427357601002e-15,0,1.4210854715202004e-14,0,1,0,0,-1,0,0,75.8811264038086,0,62.23948669433594,1],"min":[1,0,-1.4210854715202004e-14,0,-7.105427357601002e-15,0,1,0,0,-1,0,0,-75.88127136230469,-172.2281036376953,-76.50688934326172,1],"type":"MAT4","byteOffset":0}],"asset":{"generator":"Khronos Blender glTF 2.0 exporter","version":"2.0"},"bufferViews":[{"buffer":0,"byteLength":3904,"byteOffset":0},{"buffer":0,"byteOffset":3904,"byteLength":135129},{"buffer":0,"byteOffset":139033,"byteLength":67675},{"buffer":0,"byteOffset":206708,"byteLength":1199},{"buffer":0,"byteOffset":207907,"byteLength":1543},{"buffer":0,"byteOffset":209450,"byteLength":2639},{"buffer":0,"byteOffset":212089,"byteLength":2287}],"buffers":[{"byteLength":214376,"uri":"buffer.bin"}],"images":[{"name":"pm0103_00_BodyA1","uri":"pm0103_00_BodyA1.png"},{"name":"pm0103_00_BodyB1","uri":"pm0103_00_BodyB1.png"},{"name":"pm0103_00_EyeA1","uri":"pm0103_00_EyeA1.png"},{"name":"pm0103_00_EyeB1","uri":"pm0103_00_EyeB1.png"},{"name":"pm0103_00_EyeC1","uri":"pm0103_00_EyeC1.png"},{"name":"pm0103_00_Mouth1","uri":"pm0103_00_Mouth1.png"}],"materials":[{"name":"BodyA_mat","pbrMetallicRoughness":{"baseColorFactor":[0.6400000190734865,0.6400000190734865,0.6400000190734865,1],"baseColorTexture":{"index":0},"metallicFactor":0}},{"name":"BodyB_mat","pbrMetallicRoughness":{"baseColorFactor":[0.6400000190734865,0.6400000190734865,0.6400000190734865,1],"baseColorTexture":{"index":1},"metallicFactor":0}},{"name":"EyeA_mat","pbrMetallicRoughness":{"baseColorFactor":[0.6400000190734865,0.6400000190734865,0.6400000190734865,1],"baseColorTexture":{"index":2},"metallicFactor":0}},{"name":"EyeB_mat","pbrMetallicRoughness":{"baseColorFactor":[0.6400000190734865,0.6400000190734865,0.6400000190734865,1],"baseColorTexture":{"index":3},"metallicFactor":0}},{"name":"EyeC_mat","pbrMetallicRoughness":{"baseColorFactor":[0.6400000190734865,0.6400000190734865,0.6400000190734865,1],"baseColorTexture":{"index":4},"metallicFactor":0}},{"name":"Mouth_mat","pbrMetallicRoughness":{"baseColorFactor":[0.6400000190734865,0.6400000190734865,0.6400000190734865,1],"baseColorTexture":{"index":5},"metallicFactor":0}}],"meshes":[{"name":"mesh_2_EyeA","primitives":[{"material":0,"extensions":{"ALI_amc_mesh_compression":{"bufferView":1}}},{"material":1,"extensions":{"ALI_amc_mesh_compression":{"bufferView":2}}},{"material":5,"extensions":{"ALI_amc_mesh_compression":{"bufferView":3}}},{"material":4,"extensions":{"ALI_amc_mesh_compression":{"bufferView":4}}},{"material":2,"extensions":{"ALI_amc_mesh_compression":{"bufferView":5}}},{"material":3,"extensions":{"ALI_amc_mesh_compression":{"bufferView":6}}}]}],"nodes":[{"children":[3,4],"name":"Armature","rotation":[0.7071068286895752,0,0,0.7071067094802856]},{"name":"Camera","rotation":[0.483536034822464,0.33687159419059753,-0.20870360732078552,0.7804827094078064],"translation":[7.481131553649902,5.34366512298584,6.5076398849487305]},{"name":"Lamp","rotation":[0.16907575726509094,0.7558802962303162,-0.27217137813568115,0.570947527885437],"scale":[1,1,0.9999999403953552],"translation":[4.076245307922363,5.903861999511719,-1.0054539442062378]},{"mesh":0,"name":"vsn_mesh_2_EyeA","skin":0},{"children":[5,64],"name":"Armature_pm0103_00","rotation":[-0.7071068286895752,0,0,0.7071068286895752]},{"children":[6],"name":"Armature_Origin"},{"children":[7,55],"name":"Armature_Waist","translation":[0,62.45106506347656,0]},{"children":[8],"name":"Armature_Spine1","translation":[0,0.000003814697265625,0]},{"children":[9,11,12,14,18,22,25,28,31,34,37,40,43,46,49,52],"name":"Armature_Spine2","translation":[0.000005161220087757101,16.441394805908203,0]},{"children":[10],"name":"Armature_Head","translation":[0.00000941237885854207,29.983734130859375,22.38821029663086]},{"name":"Armature_Jaw","translation":[-2.4559903977205977e-7,-0.7822952270507812,8.432861328125]},{"name":"Armature_LHead","rotation":[0,-6.029053114970318e-23,0,1],"translation":[-0.000011508019269967917,-36.71792221069336,48.33207702636719]},{"children":[13],"name":"Armature_RHead","rotation":[0,4.235164736271502e-22,0,1],"translation":[-4.541802809399087e-7,-1.1363372802734375,39.55926513671875]},{"name":"Armature_RJaw","rotation":[0,1.5260984338874604e-17,0,1],"translation":[-0.1306857019662857,1.21600341796875,9.77288818359375]},{"children":[15],"name":"Armature_LFeelerA1","translation":[1.3422118425369263,33.677650451660156,-14.96674919128418]},{"children":[16],"name":"Armature_LFeelerA2","translation":[2.147357702255249,8.687469482421875,-11.146257400512695]},{"children":[17],"name":"Armature_LFeelerA3","rotation":[0,-5.526958272865682e-16,0,1],"translation":[3.0412700176239014,-6.220085144042969,-11.098731994628906]},{"name":"Armature_LFeelerA4","rotation":[0,6.811464149739923e-16,0,1],"translation":[2.8323888778686523,-12.791893005371094,-8.292282104492188]},{"children":[19],"name":"Armature_RFeelerA1","translation":[-1.342189073562622,33.67753601074219,-14.96668815612793]},{"children":[20],"name":"Armature_RFeelerA2","translation":[-2.1473679542541504,8.688095092773438,-11.146341323852539]},{"children":[21],"name":"Armature_RFeelerA3","translation":[-3.0412635803222656,-6.220069885253906,-11.098670959472656]},{"name":"Armature_RFeelerA4","rotation":[0,9.38428225779513e-16,0,1],"translation":[-2.832393169403076,-12.791984558105469,-8.29229736328125]},{"children":[23],"name":"Armature_LFeelerB1","translation":[4.615443706512451,31.787734985351562,-8.872901916503906]},{"children":[24],"name":"Armature_LFeelerB2","translation":[11.972331047058105,19.00371551513672,-19.795780181884766]},{"name":"Armature_LFeelerB3","translation":[18.94683074951172,9.085601806640625,-33.57069396972656]},{"children":[26],"name":"Armature_RFeelerB1","translation":[-4.615419387817383,31.78752899169922,-8.872908592224121]},{"children":[27],"name":"Armature_RFeelerB2","translation":[-11.972236633300781,19.003982543945312,-19.79564666748047]},{"name":"Armature_RFeelerB3","translation":[-18.94696044921875,9.08612060546875,-33.57093048095703]},{"children":[29],"name":"Armature_LFeelerC1","rotation":[0,1.8473259184024256e-18,0,1],"translation":[11.860274314880371,37.945526123046875,-7.111995697021484]},{"children":[30],"name":"Armature_LFeelerC2","rotation":[0,-1.8473259184024256e-18,0,1],"translation":[22.211566925048828,25.771690368652344,-13.711864471435547]},{"name":"Armature_LFeelerC3","translation":[31.56713104248047,20.171127319335938,-20.33880615234375]},{"children":[32],"name":"Armature_RFeelerC1","translation":[-11.860274314880371,37.94554138183594,-7.112003803253174]},{"children":[33],"name":"Armature_RFeelerC2","rotation":[0,1.7800515971161737e-15,0,1],"translation":[-22.211530685424805,25.77198028564453,-13.711935043334961]},{"name":"Armature_RFeelerC3","rotation":[0,1.7726620816843272e-15,0,1],"translation":[-31.56707000732422,20.171035766601562,-20.338651657104492]},{"children":[35],"name":"Armature_LFeelerD1","translation":[11.221025466918945,36.091941833496094,2.455651044845581]},{"children":[36],"name":"Armature_LFeelerD2","rotation":[0,-1.7763568394002505e-15,0,1],"translation":[24.520275115966797,22.235610961914062,0.07969284057617188]},{"name":"Armature_LFeelerD3","rotation":[0,1.7698683552660457e-15,0,1],"translation":[40.13996505737305,18.706298828125,0.29802370071411133]},{"children":[38],"name":"Armature_RFeelerD1","translation":[-11.221004486083984,36.091529846191406,2.451744794845581]},{"children":[39],"name":"Armature_RFeelerD2","rotation":[0,1.7763568394002505e-15,0,1],"translation":[-24.520267486572266,22.236007690429688,0.07997393608093262]},{"name":"Armature_RFeelerD3","rotation":[0,1.7698683552660457e-15,0,1],"translation":[-40.13985824584961,18.706085205078125,0.30628013610839844]},{"children":[41],"name":"Armature_LFeelerE1","rotation":[0,-5.810197620098048e-16,0,1],"translation":[12.791556358337402,39.302345275878906,13.016279220581055]},{"children":[42],"name":"Armature_LFeelerE2","rotation":[0,2.3573763367122592e-15,0,1],"translation":[14.910226821899414,25.196975708007812,14.501174926757812]},{"name":"Armature_LFeelerE3","rotation":[0,-3.5527132552840273e-15,0,1],"translation":[28.586233139038086,21.557510375976562,27.802091598510742]},{"children":[44],"name":"Armature_RFeelerE1","translation":[-12.791585922241211,39.30254364013672,13.0162992477417]},{"children":[45],"name":"Armature_RFeelerE2","translation":[-14.910140037536621,25.196990966796875,14.501235008239746]},{"name":"Armature_RFeelerE3","rotation":[0,3.5527132552840273e-15,0,1],"translation":[-28.586318969726562,21.556991577148438,27.802072525024414]},{"children":[47],"name":"Armature_LFeelerF1","translation":[3.482351541519165,38.109031677246094,12.368688583374023]},{"children":[48],"name":"Armature_LFeelerF2","rotation":[0,-1.7763568394002505e-15,0,1],"translation":[9.484663963317871,25.760421752929688,28.64637565612793]},{"name":"Armature_LFeelerF3","rotation":[0,8.881784197001252e-16,0,1],"translation":[11.751080513000488,8.118408203125,35.491825103759766]},{"children":[50],"name":"Armature_RFeelerF1","translation":[-3.4823219776153564,38.10852813720703,12.368688583374023]},{"children":[51],"name":"Armature_RFeelerF2","rotation":[0,1.7763568394002505e-15,0,1],"translation":[-9.484663963317871,25.761001586914062,28.6464900970459]},{"name":"Armature_RFeelerF3","rotation":[0,-8.881784197001252e-16,0,1],"translation":[-11.751029014587402,8.118011474609375,35.49149703979492]},{"children":[53],"name":"Armature_FeelerA1","rotation":[0,-1.161146807909839e-21,0,1],"translation":[0.000011388379789423198,36.278236389160156,3.3530030250549316]},{"children":[54],"name":"Armature_FeelerA2","rotation":[0,1.161146807909839e-21,0,1],"translation":[0.000009893197784549557,31.515304565429688,4.15171480178833]},{"name":"Armature_FeelerA3","rotation":[0,1.1876165875115359e-21,0,1],"translation":[0.000011210900993319228,25.542098999023438,13.2484712600708]},{"children":[56,60],"name":"Armature_Hips","translation":[0,0.000003814697265625,0]},{"children":[57],"name":"Armature_LThigh","rotation":[0,-3.552713678800501e-15,0,1],"translation":[20.694990158081055,-14.813087463378906,1.5957839488983154]},{"children":[58],"name":"Armature_LLeg","rotation":[0,3.552713678800501e-15,0,1],"translation":[4.943689346313477,-20.45536994934082,2.90832781791687]},{"children":[59],"name":"Armature_LFoot","translation":[1.35552978515625,-19.891468048095703,-5.370480060577393]},{"name":"Armature_LToe","translation":[7.997341156005859,-0.0000095367431640625,18.33145523071289]},{"children":[61],"name":"Armature_RThigh","translation":[-20.695009231567383,-14.813064575195312,1.5957940816879272]},{"children":[62],"name":"Armature_RLeg","rotation":[0,-7.105427357601002e-15,0,1],"translation":[-4.943700790405273,-20.45540428161621,2.908301830291748]},{"children":[63],"name":"Armature_RFoot","rotation":[0,7.105427357601002e-15,0,1],"translation":[0.36079978942871094,-19.891420364379883,-6.803747177124023]},{"name":"Armature_RToe","translation":[-7.997331619262695,-0.00000762939453125,18.331462860107422]},{"name":"Armature_pm0103_00_Skin"}],"samplers":[{}],"scene":0,"scenes":[{"name":"Scene","nodes":[0,2,1]}],"skins":[{"inverseBindMatrices":0,"joints":[4,5,6,7,8,9,10,11,12,13,14,15,16,17,18,19,20,21,22,23,24,25,26,27,28,29,30,31,32,33,34,35,36,37,38,39,40,41,42,43,44,45,46,47,48,49,50,51,52,53,54,55,56,57,58,59,60,61,62,63,64],"skeleton":0}],"textures":[{"sampler":0,"source":0},{"sampler":0,"source":1},{"sampler":0,"source":2},{"sampler":0,"source":3},{"sampler":0,"source":4},{"sampler":0,"source":5}],"extensionsUsed":["ALI_amc_mesh_compression"],"extensionsRequired":["ALI_amc_mesh_compression"]}