{"accessors":[{"bufferView":0,"componentType":5126,"count":87,"max":[1,0,1,0,1,0,1,0,0,-1,0,0,105.27034759521484,5.925648212432861,33.568580627441406,1],"min":[-1,0,-1,0,-1,0,-1,0,0,-1.0000001192092896,0,0,-137.78500366210938,-206.72052001953125,-82.2505111694336,1],"type":"MAT4","byteOffset":0},{"bufferView":1,"componentType":5126,"count":87,"max":[1,0,1,0,1,0,1,0,0,-1,0,0,105.27034759521484,5.925648212432861,33.568580627441406,1],"min":[-1,0,-1,0,-1,0,-1,0,0,-1.0000001192092896,0,0,-137.78500366210938,-206.72052001953125,-82.2505111694336,1],"type":"MAT4","byteOffset":0},{"bufferView":2,"componentType":5126,"count":87,"max":[1,0,1,0,1,0,1,0,0,-1,0,0,105.27034759521484,5.925648212432861,33.568580627441406,1],"min":[-1,0,-1,0,-1,0,-1,0,0,-1.0000001192092896,0,0,-137.78500366210938,-206.72052001953125,-82.2505111694336,1],"type":"MAT4","byteOffset":0},{"bufferView":3,"componentType":5126,"count":87,"max":[1,0,1,0,1,0,1,0,0,-1,0,0,105.27034759521484,5.925648212432861,33.568580627441406,1],"min":[-1,0,-1,0,-1,0,-1,0,0,-1.0000001192092896,0,0,-137.78500366210938,-206.72052001953125,-82.2505111694336,1],"type":"MAT4","byteOffset":0},{"bufferView":4,"componentType":5126,"count":87,"max":[1,0,1,0,1,0,1,0,0,-1,0,0,105.27034759521484,5.925648212432861,33.568580627441406,1],"min":[-1,0,-1,0,-1,0,-1,0,0,-1.0000001192092896,0,0,-137.78500366210938,-206.72052001953125,-82.2505111694336,1],"type":"MAT4","byteOffset":0}],"asset":{"generator":"Khronos Blender glTF 2.0 exporter","version":"2.0"},"bufferViews":[{"buffer":0,"byteLength":5568,"byteOffset":0},{"buffer":0,"byteLength":5568,"byteOffset":5568},{"buffer":0,"byteLength":5568,"byteOffset":11136},{"buffer":0,"byteLength":5568,"byteOffset":16704},{"buffer":0,"byteLength":5568,"byteOffset":22272},{"buffer":0,"byteOffset":27840,"byteLength":4255},{"buffer":0,"byteOffset":32095,"byteLength":62049},{"buffer":0,"byteOffset":94144,"byteLength":12337},{"buffer":0,"byteOffset":106481,"byteLength":109867},{"buffer":0,"byteOffset":216348,"byteLength":116505}],"buffers":[{"byteLength":332853,"uri":"buffer.bin"}],"images":[{"name":"pm0089_00_BetoMask","uri":"pm0089_00_BetoMask.png"},{"name":"pm0089_00_BodyA1","uri":"pm0089_00_BodyA1.png"},{"name":"pm0089_00_BodyB1","uri":"pm0089_00_BodyB1.png"},{"name":"pm0089_00_Eye1","uri":"pm0089_00_Eye1.png"}],"materials":[{"alphaMode":"OPAQUE","name":"Beto","pbrMetallicRoughness":{"baseColorFactor":[0.6400000190734865,0.6400000190734865,0.6400000190734865,1],"baseColorTexture":{"index":0},"metallicFactor":0}},{"alphaMode":"OPAQUE","name":"BodyASpc","pbrMetallicRoughness":{"baseColorFactor":[0.6400000190734865,0.6400000190734865,0.6400000190734865,1],"baseColorTexture":{"index":1},"metallicFactor":0}},{"alphaMode":"OPAQUE","name":"BodyBSpc00","pbrMetallicRoughness":{"baseColorFactor":[0.6400000190734865,0.6400000190734865,0.6400000190734865,1],"baseColorTexture":{"index":2},"metallicFactor":0}},{"alphaMode":"OPAQUE","name":"BodyBSpc01","pbrMetallicRoughness":{"baseColorFactor":[0.6400000190734865,0.6400000190734865,0.6400000190734865,1],"baseColorTexture":{"index":2},"metallicFactor":0}},{"alphaMode":"OPAQUE","name":"Eye","pbrMetallicRoughness":{"baseColorFactor":[0.6400000190734865,0.6400000190734865,0.6400000190734865,1],"baseColorTexture":{"index":4},"metallicFactor":0}}],"meshes":[{"name":"mesh_4_pm0089_00_EyeSkin","primitives":[{"material":4,"extensions":{"ALI_amc_mesh_compression":{"bufferView":5}}}]},{"name":"mesh_2_pm0089_00_BodySkin","primitives":[{"material":2,"extensions":{"ALI_amc_mesh_compression":{"bufferView":6}}}]},{"name":"mesh_0_pm0089_00_BodySkin","primitives":[{"material":3,"extensions":{"ALI_amc_mesh_compression":{"bufferView":7}}}]},{"name":"mesh_1_pm0089_00_BodySkin","primitives":[{"material":1,"extensions":{"ALI_amc_mesh_compression":{"bufferView":8}}}]},{"name":"mesh_3_pm0089_00_BetoSkin","primitives":[{"material":0,"extensions":{"ALI_amc_mesh_compression":{"bufferView":9}}}]}],"nodes":[{"children":[3,4,5,6,7,8],"name":"Armature","rotation":[0.7071068286895752,0,0,0.7071067094802856]},{"name":"Camera","rotation":[0.483536034822464,0.33687159419059753,-0.20870360732078552,0.7804827094078064],"translation":[7.481131553649902,5.34366512298584,6.5076398849487305]},{"name":"Lamp","rotation":[0.16907575726509094,0.7558802962303162,-0.27217137813568115,0.570947527885437],"scale":[1,1,0.9999999403953552],"translation":[4.076245307922363,5.903861999511719,-1.0054539442062378]},{"mesh":2,"name":"mesh_0_pm0089_00_BodySkin","skin":0},{"mesh":3,"name":"mesh_1_pm0089_00_BodySkin","skin":1},{"mesh":1,"name":"mesh_2_pm0089_00_BodySkin","skin":2},{"mesh":4,"name":"mesh_3_pm0089_00_BetoSkin","skin":3},{"mesh":0,"name":"mesh_4_pm0089_00_EyeSkin","skin":4},{"children":[9,92,93,94],"name":"Armature_pm0089_00","rotation":[-0.7071068286895752,0,0,0.7071068286895752]},{"children":[10],"name":"Armature_Origin"},{"children":[11,12,50],"name":"Armature_Waist","translation":[0.00003495310011203401,56.68230438232422,0]},{"name":"Armature_EndWaist","translation":[-0.0002653731207828969,88.45771026611328,0]},{"children":[13],"name":"Armature_Hips","translation":[-0.00003063539770664647,0,0]},{"children":[14,31],"name":"Armature_Tail1","translation":[0.00003177189501002431,-31.77190399169922,0]},{"children":[15,17,19,21,23,25,27,29],"name":"Armature_FeelerG","translation":[-0.00001217919634655118,0,0]},{"children":[16],"name":"Armature_FeelerC","rotation":[0,-0.5375424027442932,0,0.8432366847991943],"translation":[-0.000006625516107305884,15.517890930175781,45.10084533691406]},{"name":"Armature_EndFeelerC","translation":[30.71696662902832,-15.776302337646484,14.302083969116211]},{"children":[18],"name":"Armature_FeelerD","rotation":[0,0.8694174885749817,0,0.4940781891345978],"translation":[0.00008142326259985566,25.264060974121094,-72.14302062988281]},{"name":"Armature_EndFeelerD","rotation":[0,-1.043081283569336e-7,0,1],"translation":[33.92770767211914,-23.524639129638672,20.210588455200195]},{"children":[20],"name":"Armature_LFeelerD","rotation":[0,-0.06890219449996948,0,0.9976234436035156],"translation":[64.87639617919922,18.324317932128906,23.129432678222656]},{"name":"Armature_EndLFeelerD","rotation":[0,5.21540641784668e-8,0,1],"translation":[17.068058013916016,-20.748517990112305,14.429281234741211]},{"children":[22],"name":"Armature_LFeelerE","rotation":[0,0.16072766482830048,0,0.9869987964630127],"translation":[83.95330047607422,18.555709838867188,-19.754215240478516]},{"name":"Armature_EndLFeelerE","rotation":[0,4.470347647611561e-8,0,1],"scale":[1.0000001192092896,1,1.0000001192092896],"translation":[36.044517517089844,-12.716083526611328,12.059118270874023]},{"children":[24],"name":"Armature_LFeelerF","rotation":[0,0.7034603357315063,0,0.710734486579895],"scale":[0.9999999403953552,1,0.9999999403953552],"translation":[31.61521339416504,28.3016357421875,-57.24559020996094]},{"name":"Armature_EndLFeelerF","rotation":[0,-4.76837158203125e-7,0,1],"translation":[31.913057327270508,-16.836688995361328,15.200403213500977]},{"children":[26],"name":"Armature_RFeelerD","rotation":[0,-0.6833613514900208,0,0.7300803065299988],"translation":[-64.87641143798828,18.32452392578125,23.129520416259766]},{"name":"Armature_EndRFeelerD","rotation":[0,-5.401670932769775e-7,0,1],"translation":[15.616955757141113,-20.748502731323242,15.988420486450195]},{"children":[28],"name":"Armature_RFeelerE","rotation":[0,-0.9869991540908813,0,0.16072553396224976],"translation":[-79.66581726074219,19.990280151367188,-19.754215240478516]},{"name":"Armature_EndRFeelerE","rotation":[0,-1.3411046495548362e-7,0,1],"scale":[0.9999999403953552,1,0.9999999403953552],"translation":[42.0997428894043,-14.851985931396484,14.08476448059082]},{"children":[30],"name":"Armature_RFeelerF","rotation":[0,0.9441671967506409,0,0.329466849565506],"translation":[-31.615137100219727,28.30176544189453,-57.24557876586914]},{"name":"Armature_EndRFeelerF","translation":[31.913074493408203,-16.836669921875,15.200477600097656]},{"children":[32,33],"name":"Armature_Tail2","translation":[0.00002491000122972764,-24.909997940063477,0]},{"name":"Armature_EndTail2","translation":[0.000005926049198023975,-5.926050662994385,0]},{"children":[34,36,38,40,42,44,46,48],"name":"Armature_FeelerH","translation":[8.003553375601768e-10,-7.352209649980068e-7,0]},{"children":[35],"name":"Armature_FeelerA","rotation":[0,-0.7071068286895752,0,0.7071068286895752],"scale":[1,0.9999999403953552,1],"translation":[0.000012051445082761347,7.947750568389893,40.36119842529297]},{"name":"Armature_EndFeelerA","translation":[40.58430480957031,0,-0.000001773995336407097]},{"children":[37],"name":"Armature_FeelerB","rotation":[0,0.7071068286895752,0,0.7071068286895752],"scale":[1,0.9999999403953552,1],"translation":[0.000007947746780700982,7.947751045227051,-86.1343002319336]},{"name":"Armature_EndFeelerB","translation":[51.65070343017578,4.76837158203125e-7,0.0000022577351046493277]},{"children":[39],"name":"Armature_LFeelerA","rotation":[0,-0.5345868468284607,0,0.8451135754585266],"translation":[49.11619567871094,7.947683334350586,25.23505401611328]},{"name":"Armature_EndLFeelerA","rotation":[0,-1.1920928955078125e-7,0,1],"translation":[34.00281524658203,-0.00008678436279296875,0.0000743865966796875]},{"children":[41],"name":"Armature_LFeelerB","rotation":[0,0.000002500007667549653,0,1],"translation":[83.8362808227539,7.9476518630981445,-19.75422477722168]},{"name":"Armature_EndLFeelerB","translation":[53.04070281982422,-0.00026416778564453125,0.00026477064238861203]},{"children":[43],"name":"Armature_LFeelerC","rotation":[0,0.5519746541976929,0,0.8338608741760254],"scale":[0.9999999403953552,1,0.9999999403953552],"translation":[40.80984878540039,7.9477434158325195,-64.95356750488281]},{"name":"Armature_EndLFeelerC","rotation":[0,-5.960464477539063e-8,0,1],"translation":[46.314292907714844,-0.00006103515625,0.00004863739013671875]},{"children":[45],"name":"Armature_RFeelerA","rotation":[0,-0.8451130390167236,0,0.5345876216888428],"translation":[-49.1161994934082,7.9478302001953125,25.235095977783203]},{"name":"Armature_EndRFeelerA","rotation":[0,1.1920928955078125e-7,0,1],"translation":[34.002803802490234,-0.000041961669921875,-0.00000762939453125]},{"children":[47],"name":"Armature_RFeelerB","rotation":[0,1,0,-0.0000010291722674082848],"translation":[-80.21217346191406,7.9478912353515625,-19.75422477722168]},{"name":"Armature_EndRFeelerB","translation":[53.0409049987793,-0.00010633468627929688,0.0001083413080777973]},{"children":[49],"name":"Armature_RFeelerC","rotation":[0,0.8693382740020752,0,0.49421757459640503],"translation":[-40.80990219116211,7.9478254318237305,-64.95365142822266]},{"name":"Armature_EndRFeelerC","rotation":[0,-1.341104507446289e-7,0,1],"translation":[46.31419372558594,-0.00004100799560546875,0.000209808349609375]},{"children":[51,64,79],"name":"Armature_Spine"},{"children":[52,53,60,62],"name":"Armature_Head","rotation":[0,-0.1793585568666458,0,0.9837837815284729],"translation":[-0.00008367383270524442,27.891265869140625,0.00001414993494108785]},{"name":"Armature_EndHead","rotation":[0,-2.9802322387695312e-8,0,1],"translation":[8.345460891723633,62.701316833496094,22.127256393432617]},{"children":[54,56,58],"name":"Armature_FeelerF","rotation":[0,1.4901161193847656e-8,0,1],"translation":[-0.00003245795232942328,0.000030517578125,-0.00008605703624198213]},{"children":[55],"name":"Armature_FeelerE","rotation":[0,0.9550697803497314,0,0.2963811755180359],"translation":[-15.61638069152832,7.4018402099609375,-41.403953552246094]},{"name":"Armature_EndFeelerE","rotation":[0,4.470348358154297e-8,0,1],"translation":[22.638378143310547,-19.21263885498047,15.766008377075195]},{"children":[57],"name":"Armature_LFeelerG","rotation":[0,0.8343600630760193,0,0.5512198209762573],"translation":[18.687744140625,7.35284423828125,-44.48968505859375]},{"name":"Armature_EndLFeelerG","rotation":[0,-3.0174851417541504e-7,0,1],"translation":[20.632654190063477,-12.741943359375,11.198944091796875]},{"children":[59],"name":"Armature_RFeelerG","rotation":[0,0.9916881918907166,0,0.1286647915840149],"scale":[0.9999999403953552,0.9999999403953552,0.9999999403953552],"translation":[-43.4138069152832,7.352882385253906,-21.067258834838867]},{"name":"Armature_EndRFeelerG","rotation":[0,2.682209014892578e-7,0,1],"translation":[20.632495880126953,-12.742156982421875,11.198845863342285]},{"children":[61],"name":"Armature_LowerJaw","rotation":[0,-0.6498943567276001,0,0.7600245475769043],"translation":[2.2770421504974365,-13.386962890625,6.0371174812316895]},{"name":"Armature_EndLowerJaw","scale":[0.9999999403953552,1,0.9999999403953552],"translation":[73.58056640625,-15.606658935546875,-15.280814170837402]},{"children":[63],"name":"Armature_UpperJaw","rotation":[0,-0.4140165150165558,0,0.9102693796157837],"translation":[5.068833351135254,39.404869079589844,13.439745903015137]},{"name":"Armature_EndUpperJaw","rotation":[0,1.4901161193847656e-8,0,1],"translation":[64.096923828125,-25.46356201171875,23.863391876220703]},{"children":[65],"name":"Armature_LShoulder","translation":[80.03849792480469,-1.7194595336914062,0]},{"children":[66],"name":"Armature_LArm","translation":[-0.00006103515625,21.420501708984375,0]},{"children":[67],"name":"Armature_LForeArm","translation":[-0.00008392333984375,20.743492126464844,0]},{"children":[68,75],"name":"Armature_LHand","translation":[-0.00006866455078125,28.888397216796875,0]},{"children":[69,71,73],"name":"Armature_LFeeler","translation":[-0.000091552734375,29.59699249267578,0]},{"children":[70],"name":"Armature_LFingerA","translation":[-0.00032806396484375,25.976028442382812,0]},{"name":"Armature_EndLFingerA","translation":[0.7678909301757812,25.13226318359375,0]},{"children":[72],"name":"Armature_LFingerB","translation":[11.339187622070312,8.88592529296875,1.5016200542449951]},{"name":"Armature_EndLFingerB","translation":[13.892265319824219,-4.4349365234375,0]},{"children":[74],"name":"Armature_LFingerC","translation":[-10.787803649902344,15.1353759765625,1.4604899883270264]},{"name":"Armature_EndLFingerC","translation":[-19.80575180053711,-3.7092437744140625,2.384185791015625e-7]},{"children":[76],"name":"Armature_LFingerD","translation":[-0.00014495849609375,23.44873809814453,11.837300300598145]},{"children":[77],"name":"Armature_LFeelerI1","rotation":[0,0.010031554847955704,0,0.9999496936798096],"translation":[-0.8823394775390625,-10.933334350585938,-9.5367431640625e-7]},{"children":[78],"name":"Armature_LFeelerI2","rotation":[0,-0.010031554847955704,0,0.9999496936798096],"translation":[0.08879265189170837,-10.997177124023438,-0.21896469593048096]},{"name":"Armature_EndLFeelerI2","translation":[0.00008392333984375,-12.536979675292969,0.0000019073486328125]},{"children":[80],"name":"Armature_RShoulder","translation":[-80.03849792480469,-1.7199440002441406,0]},{"children":[81],"name":"Armature_RArm","translation":[-0.00006866455078125,21.42049789428711,0]},{"children":[82],"name":"Armature_RForeArm","translation":[-0.00006866455078125,20.743499755859375,0]},{"children":[83],"name":"Armature_RHand","translation":[-0.00008392333984375,28.888404846191406,0]},{"children":[84,86,88,90],"name":"Armature_RFeeler","translation":[-0.00008392333984375,29.59801483154297,0]},{"children":[85],"name":"Armature_RFingerA","translation":[-0.00025177001953125,25.974990844726562,0]},{"name":"Armature_EndRFingerA","translation":[-0.768096923828125,25.132247924804688,0]},{"children":[87],"name":"Armature_RFingerB","translation":[-11.33935546875,8.88482666015625,1.5016201734542847]},{"name":"Armature_EndRFingerB","translation":[-13.892227172851562,-4.4350433349609375,0]},{"children":[89],"name":"Armature_RFingerC","translation":[10.787673950195312,15.135284423828125,1.460490107536316]},{"name":"Armature_EndRFingerC","translation":[19.80609130859375,-3.7091827392578125,-2.384185791015625e-7]},{"children":[91],"name":"Armature_RFingerD","rotation":[0,-0.11908254772424698,0,0.9928844571113586],"scale":[0.9999999403953552,1,0.9999999403953552],"translation":[-0.00003814697265625,4.57659912109375,9.849002838134766]},{"name":"Armature_EndRFingerD","rotation":[0,-9.685754776000977e-8,0,1],"translation":[1.830827236175537,-18.281204223632812,4.137825012207031]},{"name":"Armature_pm0089_00_BetoSkin"},{"name":"Armature_pm0089_00_BodySkin"},{"name":"Armature_pm0089_00_EyeSkin"}],"samplers":[{}],"scene":0,"scenes":[{"name":"Scene","nodes":[0,2,1]}],"skins":[{"inverseBindMatrices":0,"joints":[8,9,10,11,12,13,14,15,16,17,18,19,20,21,22,23,24,25,26,27,28,29,30,31,32,33,34,35,36,37,38,39,40,41,42,43,44,45,46,47,48,49,50,51,52,53,54,55,56,57,58,59,60,61,62,63,64,65,66,67,68,69,70,71,72,73,74,75,76,77,78,79,80,81,82,83,84,85,86,87,88,89,90,91,92,93,94],"skeleton":0},{"inverseBindMatrices":1,"joints":[8,9,10,11,12,13,14,15,16,17,18,19,20,21,22,23,24,25,26,27,28,29,30,31,32,33,34,35,36,37,38,39,40,41,42,43,44,45,46,47,48,49,50,51,52,53,54,55,56,57,58,59,60,61,62,63,64,65,66,67,68,69,70,71,72,73,74,75,76,77,78,79,80,81,82,83,84,85,86,87,88,89,90,91,92,93,94],"skeleton":0},{"inverseBindMatrices":2,"joints":[8,9,10,11,12,13,14,15,16,17,18,19,20,21,22,23,24,25,26,27,28,29,30,31,32,33,34,35,36,37,38,39,40,41,42,43,44,45,46,47,48,49,50,51,52,53,54,55,56,57,58,59,60,61,62,63,64,65,66,67,68,69,70,71,72,73,74,75,76,77,78,79,80,81,82,83,84,85,86,87,88,89,90,91,92,93,94],"skeleton":0},{"inverseBindMatrices":3,"joints":[8,9,10,11,12,13,14,15,16,17,18,19,20,21,22,23,24,25,26,27,28,29,30,31,32,33,34,35,36,37,38,39,40,41,42,43,44,45,46,47,48,49,50,51,52,53,54,55,56,57,58,59,60,61,62,63,64,65,66,67,68,69,70,71,72,73,74,75,76,77,78,79,80,81,82,83,84,85,86,87,88,89,90,91,92,93,94],"skeleton":0},{"inverseBindMatrices":4,"joints":[8,9,10,11,12,13,14,15,16,17,18,19,20,21,22,23,24,25,26,27,28,29,30,31,32,33,34,35,36,37,38,39,40,41,42,43,44,45,46,47,48,49,50,51,52,53,54,55,56,57,58,59,60,61,62,63,64,65,66,67,68,69,70,71,72,73,74,75,76,77,78,79,80,81,82,83,84,85,86,87,88,89,90,91,92,93,94],"skeleton":0}],"textures":[{"sampler":0,"source":0},{"sampler":0,"source":1},{"sampler":0,"source":2},{"sampler":0,"source":2},{"sampler":0,"source":3}],"extensionsUsed":["ALI_amc_mesh_compression"],"extensionsRequired":["ALI_amc_mesh_compression"]}