{"accessors":[{"bufferView":0,"componentType":5126,"count":53,"max":[1.0000001192092896,0,1.0000001192092896,0,0.9999998807907104,-1.1920926112907182e-7,0.9999998807907104,0,1.1920926112907182e-7,-0.9999998807907104,1.1920926112907182e-7,0,107.57949829101562,87.44318389892578,82.5801773071289,1],"min":[-1.0000001192092896,0,-1.0000001192092896,0,-0.9999998807907104,-1.1920928955078125e-7,-0.9999998807907104,0,-1.1920926112907182e-7,-1.0000001192092896,-1.1920926112907182e-7,0,-137.51470947265625,-24.955835342407227,-67.59248352050781,1],"type":"MAT4","byteOffset":0}],"asset":{"generator":"Khronos Blender glTF 2.0 exporter","version":"2.0"},"bufferViews":[{"buffer":0,"byteLength":3392,"byteOffset":0},{"buffer":0,"byteOffset":3392,"byteLength":5153},{"buffer":0,"byteOffset":8545,"byteLength":55688},{"buffer":0,"byteOffset":64233,"byteLength":117099}],"buffers":[{"byteLength":181332,"uri":"buffer.bin"}],"images":[{"name":"pm0076_00_BodyA1","uri":"pm0076_00_BodyA1.png"},{"name":"pm0076_00_BodyB1","uri":"pm0076_00_BodyB1.png"},{"name":"pm0076_00_Eye1","uri":"pm0076_00_Eye1.png"}],"materials":[{"alphaMode":"OPAQUE","name":"BodyA00","pbrMetallicRoughness":{"baseColorFactor":[0.6400000190734865,0.6400000190734865,0.6400000190734865,1],"baseColorTexture":{"index":0},"metallicFactor":0}},{"alphaMode":"OPAQUE","name":"BodyB00","pbrMetallicRoughness":{"baseColorFactor":[0.6400000190734865,0.6400000190734865,0.6400000190734865,1],"baseColorTexture":{"index":1},"metallicFactor":0}},{"alphaMode":"OPAQUE","name":"Eye","pbrMetallicRoughness":{"baseColorFactor":[0.6400000190734865,0.6400000190734865,0.6400000190734865,1],"baseColorTexture":{"index":2},"metallicFactor":0}}],"meshes":[{"name":"Golem","primitives":[{"material":2,"extensions":{"ALI_amc_mesh_compression":{"bufferView":1}}},{"material":1,"extensions":{"ALI_amc_mesh_compression":{"bufferView":2}}},{"material":0,"extensions":{"ALI_amc_mesh_compression":{"bufferView":3}}}]}],"nodes":[{"children":[1,23,24,25,26,27,28,29,30,31,32,33],"name":"_01_pm0076_00","rotation":[0.7071068286895752,0,0,0.7071067094802856],"scale":[0.02539999783039093,0.02539999969303608,0.02539999969303608]},{"children":[35,37],"name":"_02_Origin"},{"name":"_04_EndWaist","translation":[61.23939895629883,0,1.1641500263781523e-10]},{"name":"_06_EndFeeler","translation":[47.01020050048828,0.000007629389983776491,1.4551899615855568e-11]},{"name":"_09_EndJaw","translation":[26.611000061035156,0,7.27596021626864e-12]},{"name":"_11_EndLFeelerA","translation":[18.884300231933594,0,0]},{"name":"_13_EndLFeelerB","translation":[27.172300338745117,0,0]},{"name":"_18_EndLHand","translation":[14.963600158691406,0.0000019073499970545527,0]},{"name":"_20_EndLFingerA","translation":[14.963600158691406,-0.00001525879997643642,0.0000019073499970545527]},{"name":"_22_EndLFingerB","translation":[14.96360969543457,0,-0.000011444099982327316]},{"name":"_24_EndLFingerC","translation":[14.96362018585205,0.0000019073499970545527,-0.000007629389983776491]},{"name":"_28_EndLFoot","translation":[40.320499420166016,0.0000019073499970545527,-0.00001907350088004023]},{"name":"_30_EndLToeA","translation":[25.5039005279541,0,0.000003814699994109105]},{"name":"_32_EndLToeB","translation":[15.622400283813477,-0.0000028610199933609692,0.000003814699994109105]},{"name":"_34_EndRFeelerA","translation":[18.884300231933594,0,-0.000007629389983776491]},{"name":"_36_EndRFeelerB","translation":[27.172300338745117,0,0]},{"name":"_41_EndRHand","translation":[14.96362018585205,0,0]},{"name":"_43_EndRFingerA","translation":[14.96362018585205,0.00001525879997643642,0.0000019073499970545527]},{"name":"_45_EndRFingerB","translation":[14.963500022888184,-0.0000019073499970545527,-0.00001525879997643642]},{"name":"_47_EndRFingerC","translation":[14.963899612426758,-0.00007820130122127011,0.000045776399929309264]},{"name":"_51_EndRFoot","translation":[40.320499420166016,-0.000025749199267011136,0.0000724791971151717]},{"name":"_53_EndRToeA","translation":[25.503799438476562,-0.000007629389983776491,0.00001525879997643642]},{"name":"_55_EndRToeB","translation":[15.6225004196167,0.0000019073499970545527,0.000003814699994109105]},{"name":"_56_pm0076_00_HeadSkin"},{"name":"_57_pm0076_00_LFootSkin"},{"name":"_58_pm0076_00_LHandSkin"},{"name":"_59_pm0076_00_RFootSkin"},{"name":"_60_pm0076_00_RHandSkin"},{"name":"_61_pm0076_00_RockHoleHeadSkin"},{"name":"_62_pm0076_00_RockHoleLFSkin"},{"name":"_63_pm0076_00_RockHoleLHSkin"},{"name":"_64_pm0076_00_RockHoleRFSkin"},{"name":"_65_pm0076_00_RockHoleRHSkin"},{"name":"_66_pm0076_00_RockSkin"},{"name":"Camera","rotation":[0.483536034822464,0.33687159419059753,-0.20870360732078552,0.7804827094078064],"translation":[7.481131553649902,5.34366512298584,6.5076398849487305]},{"mesh":0,"name":"Golem","rotation":[5.960464477539063e-8,0,0,1],"scale":[1.0000001192092896,1,1],"skin":0},{"name":"Lamp","rotation":[0.16907575726509094,0.7558802962303162,-0.27217137813568115,0.570947527885437],"scale":[1,1,0.9999999403953552],"translation":[4.076245307922363,5.903861999511719,-1.0054539442062378]},{"children":[38,39,41,44,46,48,59,67,69,71,82],"name":"_02_Origin__03_Waist","rotation":[-0.5,-0.5000000596046448,0.5000000596046448,0.5],"scale":[1,0.9999999403953552,1],"translation":[-4.8877396711434224e-15,76.27530670166016,-3.5470199584960938]},{"name":"_02_Origin__04_EndWaist","translation":[61.239402770996094,-7.152557373046875e-7,-0.0000026769757823785767]},{"children":[40],"name":"_02_Origin__05_Feeler","rotation":[0,-0.7071068286895752,0,0.7071067094802856],"translation":[-13.685211181640625,-43.98000717163086,-0.00004997531505068764]},{"name":"_02_Origin__06_EndFeeler","rotation":[0,2.781813890351259e-8,0,1],"translation":[-1.0913936421275139e-11,-47.010196685791016,0.00000762940453569172]},{"children":[42],"name":"_02_Origin__07_Head","rotation":[0,-0.7518479228019714,0,0.6593365669250488],"translation":[-13.685199737548828,-43.98001480102539,-0.00004997465657652356]},{"children":[43],"name":"_02_Origin__08_Jaw","rotation":[0,-0.21194523572921753,0,0.9772816300392151],"scale":[0.9999999403953552,1.0000001192092896,0.9999999403953552],"translation":[0.2374928742647171,-13.815139770507812,1.8035954236984253]},{"name":"_02_Origin__09_EndJaw","translation":[7.461990833282471,-22.573749542236328,11.953661918640137]},{"children":[45],"name":"_02_Origin__10_LFeelerA","rotation":[0,0.7071068286895752,0,0.7071068286895752],"translation":[-14.692449569702148,-13.892401695251465,-42.00004577636719]},{"name":"_02_Origin__11_EndLFeelerA","translation":[18.884300231933594,-9.5367431640625e-7,0]},{"children":[47],"name":"_02_Origin__12_LFeelerB","rotation":[0,1,0,-7.549790126404332e-8],"translation":[-39.712276458740234,2.1488592624664307,-33.146541595458984]},{"name":"_02_Origin__13_EndLFeelerB","rotation":[0,-3.178651297730539e-8,0,1],"translation":[27.172300338745117,0,0.0000028072181521565653]},{"children":[49],"name":"_02_Origin__14_LShoulder","rotation":[0,0.6360177397727966,0,0.7716744542121887],"translation":[-14.692472457885742,-13.892399787902832,-38.06945037841797]},{"children":[50],"name":"_02_Origin__15_LArm","rotation":[0,0.09592381864786148,0,0.9953886866569519],"translation":[8.238770484924316,-1.632843017578125,-1.6027956008911133]},{"children":[51],"name":"_02_Origin__16_LForeArm","rotation":[0,-1.164154606048129e-10,0,1],"translation":[10.428203582763672,-9.5367431640625e-7,0]},{"children":[52,53,55,57],"name":"_02_Origin__17_LHand","rotation":[0,3.0454452293326995e-9,0,1],"translation":[24.785099029541016,9.5367431640625e-7,0.00000379568064090563]},{"name":"_02_Origin__18_EndLHand","translation":[14.963600158691406,-0.0000019073486328125,5.66120377243351e-7]},{"children":[54],"name":"_02_Origin__19_LFingerA","rotation":[0,1.1641554387153974e-10,0,1],"translation":[10.939498901367188,-0.3822364807128906,6.009644031524658]},{"name":"_02_Origin__20_EndLFingerA","translation":[14.963600158691406,-0.00000286102294921875,-0.00001460353632865008]},{"children":[56],"name":"_02_Origin__21_LFingerB","rotation":[0,0.05149732902646065,0,0.998673141002655],"scale":[0.9999999403953552,1,0.9999999403953552],"translation":[10.300994873046875,7.157137393951416,-5.211989879608154]},{"name":"_02_Origin__22_EndLFingerB","translation":[14.963619232177734,-0.000002384185791015625,-0.00001049041748046875]},{"children":[58],"name":"_02_Origin__23_LFingerC","rotation":[0,-0.07012674957513809,0,0.9975380897521973],"scale":[0.9999999403953552,1,0.9999999403953552],"translation":[8.502944946289062,-9.041553497314453,-5.495650768280029]},{"name":"_02_Origin__24_EndLFingerC","rotation":[0,-7.450580596923828e-9,0,1],"translation":[14.035272598266602,-3.133411407470703,-4.135536193847656]},{"children":[60],"name":"_02_Origin__25_LThigh","rotation":[0,0.8626008033752441,0,0.5058853030204773],"translation":[-37.1253547668457,0.0032961368560791016,-39.99552917480469]},{"children":[61],"name":"_02_Origin__26_LLeg","rotation":[0,0.6120457053184509,0,0.7908223867416382],"scale":[0.9999998807907104,1,0.9999998807907104],"translation":[14.605915069580078,-13.017265319824219,-10.539037704467773]},{"children":[62,63,65],"name":"_02_Origin__27_LFoot","rotation":[0,-0.9021349549293518,0,0.4314540922641754],"translation":[7.593389511108398,8.154277801513672,6.274623870849609]},{"name":"_02_Origin__28_EndLFoot","scale":[1,0.9999999403953552,1],"translation":[0.049692630767822266,-40.317142486572266,-0.5187835693359375]},{"children":[64],"name":"_02_Origin__29_LToeA","rotation":[0,-1.4901161193847656e-7,0,1],"scale":[1,0.9999999403953552,1],"translation":[0.10478973388671875,-16.79375457763672,-6.747419357299805]},{"name":"_02_Origin__30_EndLToeA","translation":[0.03133034706115723,-25.50177001953125,-0.3281588554382324]},{"children":[66],"name":"_02_Origin__31_LToeB","rotation":[0,-0.012880738824605942,0,0.9999170303344727],"scale":[1,0.9999999403953552,1],"translation":[0.07281851768493652,10.647308349609375,-6.530418872833252]},{"name":"_02_Origin__32_EndLToeB","scale":[1,0.9999999403953552,1],"translation":[-0.013970136642456055,15.62109375,0.20143985748291016]},{"children":[68],"name":"_02_Origin__33_RFeelerA","rotation":[0,-0.7071093916893005,0,0.7071042060852051],"translation":[-14.692758560180664,-13.892401695251465,40.57234191894531]},{"name":"_02_Origin__34_EndRFeelerA","rotation":[0,2.7818032322102226e-8,0,1],"translation":[18.884300231933594,-9.5367431640625e-7,0.000008766917744651437]},{"children":[70],"name":"_02_Origin__35_RFeelerB","rotation":[0,1,0,-7.549790126404332e-8],"translation":[-39.71251678466797,2.1488592624664307,31.718652725219727]},{"name":"_02_Origin__36_EndRFeelerB","rotation":[0,-3.178651297730539e-8,0,1],"translation":[27.172298431396484,9.5367431640625e-7,0.0000028072438453818904]},{"children":[72],"name":"_02_Origin__37_RShoulder","rotation":[0,-0.7716766595840454,0,0.6360150575637817],"translation":[-14.692758560180664,-13.892399787902832,38.0693359375]},{"children":[73],"name":"_02_Origin__38_RArm","rotation":[0,0.09592363238334656,0,0.9953887462615967],"scale":[0.9999999403953552,0.9999999403953552,0.9999999403953552],"translation":[8.23884105682373,-1.6328020095825195,-1.6028270721435547]},{"children":[74],"name":"_02_Origin__39_RForeArm","rotation":[0,-8.44261194288265e-9,0,1],"translation":[10.42809772491455,0,0.0000012581003829836845]},{"children":[75,76,78,80],"name":"_02_Origin__40_RHand","translation":[24.785091400146484,-9.5367431640625e-7,0.000006198417395353317]},{"name":"_02_Origin__41_EndRHand","translation":[14.963623046875,0,-9.237555786967278e-8]},{"children":[77],"name":"_02_Origin__42_RFingerA","rotation":[0,1,0,-0.000007347264727286529],"translation":[10.939508438110352,-0.3823089599609375,-6.009599208831787]},{"name":"_02_Origin__43_EndRFingerA","rotation":[0,-4.289768185117282e-8,0,1],"translation":[-14.963626861572266,9.5367431640625e-7,-0.00020002108067274094]},{"children":[79],"name":"_02_Origin__44_RFingerB","rotation":[0,-0.0514972060918808,0,0.998673141002655],"translation":[10.301010131835938,7.157100200653076,5.212001323699951]},{"name":"_02_Origin__45_EndRFingerB","translation":[14.963502883911133,9.5367431640625e-7,-0.00001811981201171875]},{"children":[81],"name":"_02_Origin__46_RFingerC","rotation":[0,-0.15006539225578308,0,0.9886760711669922],"translation":[8.503007888793945,-9.041609764099121,5.495687007904053]},{"name":"_02_Origin__47_EndRFingerC","translation":[14.45651626586914,-3.1334056854248047,-2.2603206634521484]},{"children":[83],"name":"_02_Origin__48_RThigh","rotation":[0,0.9954515099525452,0,0.09526986628770828],"translation":[-37.12575149536133,0.003298044204711914,39.99525833129883]},{"children":[84],"name":"_02_Origin__49_RLeg","rotation":[0,0.6120458245277405,0,0.7908223271369934],"translation":[14.589649200439453,-13.017290115356445,-10.56149673461914]},{"children":[85,86,88],"name":"_02_Origin__50_RFoot","rotation":[0,-0.9021347165107727,0,0.4314544200897217],"translation":[7.582386493682861,8.154303550720215,6.288087844848633]},{"name":"_02_Origin__51_EndRFoot","rotation":[0,-1.4901161193847656e-8,0,1],"translation":[-0.036238670349121094,-40.317142486572266,-0.5199155807495117]},{"children":[87],"name":"_02_Origin__52_RToeA","rotation":[0,-1.4901161193847656e-8,0,1],"translation":[0.06901168823242188,-16.79376220703125,-6.747893810272217]},{"name":"_02_Origin__53_EndRToeA","translation":[-0.022878408432006836,-25.501676559448242,-0.3288693428039551]},{"children":[89],"name":"_02_Origin__54_RToeB","rotation":[0,-0.012881498783826828,0,0.9999170303344727],"translation":[0.09544730186462402,10.647306442260742,-6.530101299285889]},{"name":"_02_Origin__55_EndRToeB","rotation":[0,-2.980232594040899e-8,0,1],"scale":[0.9999998807907104,0.9999999403953552,0.9999998807907104],"translation":[0.019160747528076172,15.621195793151855,0.2010207176208496]}],"samplers":[{}],"scene":0,"scenes":[{"name":"Scene","nodes":[22,21,20,19,18,17,16,15,14,13,12,11,10,9,8,7,6,5,4,3,2,0,36,34]}],"skins":[{"inverseBindMatrices":0,"joints":[37,38,39,40,41,42,43,44,45,46,47,48,49,50,51,52,53,54,55,56,57,58,59,60,61,62,63,64,65,66,67,68,69,70,71,72,73,74,75,76,77,78,79,80,81,82,83,84,85,86,87,88,89],"skeleton":1}],"textures":[{"sampler":0,"source":0},{"sampler":0,"source":1},{"sampler":0,"source":2}],"extensionsUsed":["ALI_amc_mesh_compression"],"extensionsRequired":["ALI_amc_mesh_compression"]}