{"accessors":[{"bufferView":0,"componentType":5126,"count":25,"max":[1,0,1.4210853021136109e-14,0,1.462538247519289e-14,0,1,0,0,-1,0,0,44.61399841308594,0,2,1],"min":[1,0,-1.462538247519289e-14,0,-1.4210853021136109e-14,0,1,0,0,-1,0,0,-44.614009857177734,-44.5648307800293,-15.999998092651367,1],"type":"MAT4","byteOffset":0}],"asset":{"generator":"Khronos Blender glTF 2.0 exporter","version":"2.0"},"bufferViews":[{"buffer":0,"byteLength":1600,"byteOffset":0},{"buffer":0,"byteOffset":1600,"byteLength":182619},{"buffer":0,"byteOffset":184219,"byteLength":3075}],"buffers":[{"byteLength":187294,"uri":"buffer.bin"}],"images":[{"name":"pm0098_00_Body1","uri":"pm0098_00_Body1.png"},{"name":"pm0098_00_Eye1","uri":"pm0098_00_Eye1.png"}],"materials":[{"name":"Body_mat","pbrMetallicRoughness":{"baseColorFactor":[0.6400000190734865,0.6400000190734865,0.6400000190734865,1],"baseColorTexture":{"index":0},"metallicFactor":0}},{"name":"Eye_mat","pbrMetallicRoughness":{"baseColorFactor":[0.6400000190734865,0.6400000190734865,0.6400000190734865,1],"baseColorTexture":{"index":1},"metallicFactor":0}}],"meshes":[{"name":"mesh_6_BodySpc01","primitives":[{"material":0,"extensions":{"ALI_amc_mesh_compression":{"bufferView":1}}},{"material":1,"extensions":{"ALI_amc_mesh_compression":{"bufferView":2}}}]}],"nodes":[{"children":[3,4],"name":"Armature","rotation":[0.7071068286895752,0,0,0.7071067094802856]},{"name":"Camera","rotation":[0.483536034822464,0.33687159419059753,-0.20870360732078552,0.7804827094078064],"translation":[7.481131553649902,5.34366512298584,6.5076398849487305]},{"name":"Lamp","rotation":[0.16907575726509094,0.7558802962303162,-0.27217137813568115,0.570947527885437],"scale":[1,1,0.9999999403953552],"translation":[4.076245307922363,5.903861999511719,-1.0054539442062378]},{"mesh":0,"name":"vsn_mesh_6_BodySpc01","skin":0},{"children":[5,27,28],"name":"Armature_pm0098_00","rotation":[-0.7071068286895752,0,0,0.7071068286895752]},{"children":[6],"name":"Armature_Origin"},{"children":[7,11,15,18,21,24],"name":"Armature_Waist","translation":[0,13.191999435424805,0]},{"children":[8],"name":"Armature_LArm","translation":[21.520320892333984,12.911951065063477,0]},{"children":[9],"name":"Armature_LForeArm","translation":[13.409000396728516,1.019510269165039,8]},{"children":[10],"name":"Armature_LHand","translation":[1.0705490112304688,16.87653923034668,0]},{"name":"Armature_LFinger","translation":[-1.7480010986328125,0.5648307800292969,7.999998092651367]},{"children":[12],"name":"Armature_RArm","rotation":[0,-7.312691237596446e-15,0,1],"translation":[-21.52029037475586,12.912010192871094,8.000001907348633]},{"children":[13],"name":"Armature_RForeArm","rotation":[0,7.312691237596446e-15,0,1],"translation":[-13.409008026123047,1.0194015502929688,-0.000002384185336268274]},{"children":[14],"name":"Armature_RHand","rotation":[0,7.1054265105680546e-15,0,1],"translation":[-1.0705909729003906,14.876623153686523,3.9999804496765137]},{"name":"Armature_RFinger","rotation":[0,-7.1054265105680546e-15,0,1],"translation":[1.7481002807617188,2.564777374267578,-11.999980926513672]},{"children":[16],"name":"Armature_LThigh","translation":[19.845430374145508,2.407459259033203,7.999999523162842]},{"children":[17],"name":"Armature_LLeg","translation":[16.606950759887695,4.532928466796875,-2.500000476837158]},{"name":"Armature_LFoot","translation":[7.028667449951172,-16.107168197631836,-0.24963045120239258]},{"children":[19],"name":"Armature_RThigh","translation":[-19.84539031982422,2.4075002670288086,5.999999523162842]},{"children":[20],"name":"Armature_RLeg","translation":[-16.607009887695312,4.532910346984863,-0.5]},{"name":"Armature_RFoot","translation":[-7.028690338134766,-16.107179641723633,-0.24961423873901367]},{"children":[22],"name":"Armature_LThigh2","translation":[18.8004093170166,1.6840505599975586,0]},{"children":[23],"name":"Armature_LLeg2","translation":[16.922780990600586,3.886969566345215,0]},{"name":"Armature_LFoot2","translation":[8.890819549560547,-14.809406280517578,-5.684341886080802e-14]},{"children":[25],"name":"Armature_RThigh2","translation":[-18.800399780273438,1.6841106414794922,-2]},{"children":[26],"name":"Armature_RLeg2","translation":[-16.92279052734375,3.8869094848632812,1.999999761581421]},{"name":"Armature_RFoot2","translation":[-8.89080810546875,-14.809368133544922,-1.9999817609786987]},{"name":"Armature_pm0098_00_BodySkin"},{"name":"Armature_pm0098_00_IrisSkin"}],"samplers":[{}],"scene":0,"scenes":[{"name":"Scene","nodes":[0,2,1]}],"skins":[{"inverseBindMatrices":0,"joints":[4,5,6,7,8,9,10,11,12,13,14,15,16,17,18,19,20,21,22,23,24,25,26,27,28],"skeleton":0}],"textures":[{"sampler":0,"source":0},{"sampler":0,"source":1}],"extensionsUsed":["ALI_amc_mesh_compression"],"extensionsRequired":["ALI_amc_mesh_compression"]}