{"accessors":[{"bufferView":0,"componentType":5126,"count":59,"max":[0.49749431014060974,-1.4210854715202004e-14,1.0000001192092896,0,0.9803265929222107,-3.733231945801663e-9,0.49749431014060974,0,7.786884852201137e-12,-1.0000001192092896,3.944798047245124e-12,0,26.12881088256836,33.994022369384766,21.0468807220459,1],"min":[-1.0000001192092896,-1.4210856409267898e-14,-0.9803265929222107,0,-1.0000001192092896,-3.7332323898908726e-9,-1.0000001192092896,0,-7.941723667581613e-12,-1.000000238418579,-7.941723667581613e-12,0,-23.68867301940918,-33.994232177734375,-19.90654754638672,1],"type":"MAT4","byteOffset":0},{"bufferView":1,"componentType":5126,"count":59,"max":[0.04080040380358696,0.9991674423217773,0.04080040380358696,0,0.9991673231124878,-0.04080040007829666,0.9991673231124878,0,1,-0.0000028305346404522425,0.9803270697593689,0,21.150480270385742,33.47262191772461,29.453763961791992,1],"min":[-0.03999830037355423,0.9991673231124878,-0.02029540203511715,0,-0.9795107841491699,-0.04080040380358696,-0.4970773756504059,0,-0.4974915385246277,-0.000002830534867825918,-1,0,-18.639598846435547,-34.51563262939453,-22.06114959716797,1],"type":"MAT4","byteOffset":0}],"asset":{"generator":"Khronos Blender glTF 2.0 exporter","version":"2.0"},"bufferViews":[{"buffer":0,"byteLength":3776,"byteOffset":0},{"buffer":0,"byteLength":3776,"byteOffset":3776},{"buffer":0,"byteOffset":7552,"byteLength":2963},{"buffer":0,"byteOffset":10515,"byteLength":72371},{"buffer":0,"byteOffset":82886,"byteLength":97935}],"buffers":[{"byteLength":180821,"uri":"buffer.bin"}],"images":[{"name":"pm0021_00_BodyA1","uri":"pm0021_00_BodyA1.png"},{"name":"pm0021_00_BodyB1","uri":"pm0021_00_BodyB1.png"},{"name":"pm0021_00_Eye1","uri":"pm0021_00_Eye1.png"}],"materials":[{"alphaMode":"OPAQUE","name":"BodyA00","pbrMetallicRoughness":{"baseColorFactor":[0.6400000190734865,0.6400000190734865,0.6400000190734865,1],"baseColorTexture":{"index":0},"metallicFactor":0}},{"alphaMode":"OPAQUE","name":"BodyB","pbrMetallicRoughness":{"baseColorFactor":[0.6400000190734865,0.6400000190734865,0.6400000190734865,1],"baseColorTexture":{"index":1},"metallicFactor":0}},{"alphaMode":"OPAQUE","name":"Eye","pbrMetallicRoughness":{"baseColorFactor":[0.6400000190734865,0.6400000190734865,0.6400000190734865,1],"baseColorTexture":{"index":2},"metallicFactor":0}}],"meshes":[{"name":"Spearow","primitives":[{"material":2,"extensions":{"ALI_amc_mesh_compression":{"bufferView":2}}},{"material":1,"extensions":{"ALI_amc_mesh_compression":{"bufferView":3}}},{"material":0,"extensions":{"ALI_amc_mesh_compression":{"bufferView":4}}}]}],"nodes":[{"children":[1,24,25,26],"name":"_01_pm0021_00","rotation":[0.7071068286895752,0,0,0.7071067094802856],"scale":[0.02539999783039093,0.02539999969303608,0.02539999969303608]},{"children":[2],"name":"_02_Origin"},{"children":[3,29,30,60],"name":"_03_Waist","rotation":[-0.48969367146492004,-0.48969367146492004,0.5100995898246765,0.5100966691970825],"translation":[0,-7.522829532623291,-12.779800415039062]},{"name":"_04_EndWaist","rotation":[9.313225746154785e-10,5.282263515482555e-10,4.609773895936087e-9,1],"scale":[1.0000001192092896,1,1],"translation":[10.589900970458984,-9.5367431640625e-7,0]},{"name":"_06_EndHips","translation":[7.980000019073486,0,3.63798010813432e-12]},{"name":"_10_EndLFoot","translation":[2.5093719959259033,-4.768369876728684e-7,0]},{"name":"_13_EndLToeB2","translation":[4,-4.4703500634568627e-7,3.576280107608909e-7]},{"name":"_16_EndLToeC2","translation":[4,-5.960459930065554e-7,0]},{"name":"_19_EndLToeD2","translation":[3.2541310787200928,0,0]},{"name":"_23_EndRFoot","translation":[2.5093719959259033,-4.768369876728684e-7,0]},{"name":"_26_EndRToeB2","translation":[4,-8.940700269022273e-8,0.000004410740075400099]},{"name":"_29_EndRToeC2","translation":[4.000001907348633,2.980229965032777e-7,0.000003814699994109105]},{"name":"_32_EndRToeD2","translation":[3.2541089057922363,-0.000010013600331149064,0]},{"name":"_34_EndTail","translation":[14.26140022277832,0,2.1827900598125893e-11]},{"name":"_39_EndLHand","translation":[17.210899353027344,9.536739753457368e-7,-0.000003814699994109105]},{"name":"_42_EndLFeeler2","translation":[10.436599731445312,0,0]},{"name":"_46_EndHairA","translation":[5.891158103942871,0,-1.8189899239628993e-11]},{"name":"_48_EndLHairB","translation":[8.06875991821289,9.536739753457368e-7,-0.0000019073499970545527]},{"name":"_50_EndLHairC","translation":[3.4283690452575684,0.000003814699994109105,9.536739753457368e-7]},{"name":"_52_EndLowerBeak","translation":[3.6794888973236084,-0.000003814699994109105,-1.0004400086138787e-11]},{"name":"_54_EndRHairB","translation":[8.068763732910156,0.00000667572021484375,0.00004196169902570546]},{"name":"_56_EndRHairC","translation":[3.4283690452575684,-0.000009536740435578395,-0.000006437299816752784]},{"name":"_60_EndRHand","translation":[17.210800170898438,-0.00002050399962172378,0.000003814699994109105]},{"name":"_63_EndRFeeler2","translation":[10.436599731445312,0.00003242490129196085,0.000012397799764585216]},{"name":"_64_pm0021_00_BodySkin"},{"name":"_65_pm0021_00_LWingSkin"},{"name":"_66_pm0021_00_RWingSkin"},{"name":"Camera","rotation":[0.483536034822464,0.33687159419059753,-0.20870360732078552,0.7804827094078064],"translation":[7.481131553649902,5.34366512298584,6.5076398849487305]},{"name":"Lamp","rotation":[0.16907575726509094,0.7558802962303162,-0.27217137813568115,0.570947527885437],"scale":[1,1,0.9999999403953552],"translation":[4.076245307922363,5.903861999511719,-1.0054539442062378]},{"mesh":0,"name":"Spearow","rotation":[0.7069587111473083,-0.01442806702107191,-0.7069604992866516,0.014426001347601414],"scale":[0.9999999403953552,0.9999998807907104,1],"skin":1,"translation":[7.522793292999268,-12.769180297851562,0.5213996171951294]},{"children":[31,32,45,58],"name":"_03_Waist__05_Hips","rotation":[-9.806159368963563e-7,-0.7071068286895752,0.7071068286895752,9.806159368963563e-7],"translation":[20.302614212036133,-5.257025718688965,-0.00005828623034176417]},{"name":"_03_Waist__06_EndHips","translation":[7.980000019073486,-0.000022411346435546875,1.542684913147241e-7]},{"children":[33],"name":"_03_Waist__07_LThigh","rotation":[0,0.02923346683382988,0,0.9995726943016052],"translation":[-0.9747708439826965,2.528787136077881,0.000012510612577898428]},{"children":[34],"name":"_03_Waist__08_LLeg","rotation":[0,-0.17460934817790985,0,0.9846378564834595],"translation":[6.225796699523926,-0.00003886222839355469,-8.344650268554688e-7]},{"children":[35,36,39,42],"name":"_03_Waist__09_LFoot","rotation":[0,-0.5964948534965515,0,0.8026169538497925],"scale":[0.9999999403953552,1,0.9999999403953552],"translation":[5.191882133483887,-0.00003910064697265625,0]},{"name":"_03_Waist__10_EndLFoot","rotation":[0,-7.946596269903239e-9,0,1],"translation":[2.5093729496002197,7.152557373046875e-7,-8.171136869350448e-7]},{"children":[37],"name":"_03_Waist__11_LToeB1","rotation":[0,0.06367198377847672,0,0.9979708790779114],"translation":[2.348202705383301,-1.058976411819458,-0.8586104512214661]},{"children":[38],"name":"_03_Waist__12_LToeB2","rotation":[0,0.14425785839557648,0,0.9895402193069458],"translation":[2.155818462371826,-0.24466443061828613,-0.0017733573913574219]},{"name":"_03_Waist__13_EndLToeB2","translation":[3.978320598602295,-0.4157991409301758,-0.009602069854736328]},{"children":[40],"name":"_03_Waist__14_LToeC1","rotation":[0,0.07900203764438629,0,0.9968744516372681],"translation":[2.3659448623657227,0.9915289878845215,-0.9107143878936768]},{"children":[41],"name":"_03_Waist__15_LToeC2","rotation":[0,0.1134209856390953,0,0.9935470223426819],"translation":[2.033822536468506,0.26230454444885254,-0.002687811851501465]},{"name":"_03_Waist__16_EndLToeC2","translation":[3.9710681438446045,0.4800853729248047,-0.011742115020751953]},{"children":[43],"name":"_03_Waist__17_LToeD1","rotation":[0,-0.995069682598114,0,0.09917911887168884],"translation":[-0.7696197032928467,-0.0037679672241210938,-0.643735408782959]},{"children":[44],"name":"_03_Waist__18_LToeD2","rotation":[0,0.16031529009342194,0,0.987065851688385],"translation":[1.68996000289917,0.00000762939453125,0.7092803120613098]},{"name":"_03_Waist__19_EndLToeD2","rotation":[0,1.4901161193847656e-8,0,1],"translation":[1.6433336734771729,0.0000064373016357421875,2.808706283569336]},{"children":[46],"name":"_03_Waist__20_RThigh","rotation":[0,0.02923346683382988,0,0.9995726943016052],"translation":[-0.9748337864875793,-2.528773546218872,-0.000008470397006021813]},{"children":[47],"name":"_03_Waist__21_RLeg","rotation":[0,-0.1746094673871994,0,0.9846378564834595],"translation":[6.225830078125,-0.0000400543212890625,0.0000069141387939453125]},{"children":[48,49,52,55],"name":"_03_Waist__22_RFoot","rotation":[0,-0.5964946746826172,0,0.802617073059082],"scale":[0.9999999403953552,1,0.9999999403953552],"translation":[5.191877365112305,-0.000037670135498046875,-0.00000286102294921875]},{"name":"_03_Waist__23_EndRFoot","rotation":[0,-2.2847757463750895e-8,0,1],"translation":[2.5093727111816406,7.152557373046875e-7,-5.519304977497086e-7]},{"children":[50],"name":"_03_Waist__24_RToeB1","rotation":[0,0.06367217004299164,0,0.9979709386825562],"scale":[0.9999999403953552,1,0.9999999403953552],"translation":[2.348193645477295,1.059704303741455,-0.8577309250831604]},{"children":[51],"name":"_03_Waist__25_RToeB2","rotation":[0,0.1442580372095108,0,0.9895401000976562],"scale":[0.9999999403953552,1,0.9999999403953552],"translation":[2.155822277069092,0.2446497678756714,-0.0017800331115722656]},{"name":"_03_Waist__26_EndRToeB2","rotation":[0,-2.9802322387695312e-8,0,1],"translation":[3.978325366973877,0.41574937105178833,-0.009603500366210938]},{"children":[53],"name":"_03_Waist__27_RToeC1","rotation":[0,0.07900142669677734,0,0.9968745112419128],"scale":[0.9999999403953552,1,0.9999999403953552],"translation":[2.3659512996673584,-0.9907641410827637,-0.9115400314331055]},{"children":[54],"name":"_03_Waist__28_RToeC2","rotation":[0,0.11342097818851471,0,0.9935470223426819],"translation":[2.0338311195373535,-0.2623176574707031,-0.0026816129684448242]},{"name":"_03_Waist__29_EndRToeC2","rotation":[0,-1.4901161193847656e-8,0,1],"translation":[3.9710631370544434,-0.4801335334777832,-0.011742115020751953]},{"children":[56],"name":"_03_Waist__30_RToeD1","rotation":[0,-0.995069682598114,0,0.09917911887168884],"translation":[-0.7696123719215393,0.0042934417724609375,-0.6437361836433411]},{"children":[57],"name":"_03_Waist__31_RToeD2","rotation":[0,0.16031521558761597,0,0.987065851688385],"scale":[0.9999999403953552,1,0.9999999403953552],"translation":[1.6899590492248535,0.000008344650268554688,0.7092822790145874]},{"name":"_03_Waist__32_EndRToeD2","translation":[1.6433134078979492,0.00000667572021484375,2.808692216873169]},{"children":[59],"name":"_03_Waist__33_Tail","rotation":[0,0.5277127027511597,0,0.8494230508804321],"scale":[0.9999999403953552,1,0.9999999403953552],"translation":[0.9507753849029541,0.000025272365746786818,-9.461997032165527]},{"name":"_03_Waist__34_EndTail","rotation":[0,1.4901161193847656e-8,0,1],"translation":[8.662912368774414,0.00009846687316894531,-11.328790664672852]},{"children":[61,65,68,82,86],"name":"_03_Waist__35_Spine","rotation":[-0.2769668400287628,0.6506069302558899,-0.6506069302558899,0.2769668400287628],"scale":[1,0.9999999403953552,1],"translation":[20.302614212036133,-5.257025241851807,-0.00005828617577208206]},{"children":[62],"name":"_03_Waist__36_LArm","rotation":[0,0.33531808853149414,0,0.9421049952507019],"translation":[-2.063718318939209,4.795594215393066,6.779057025909424]},{"children":[63],"name":"_03_Waist__37_LForeArm","rotation":[0,-0.1711251586675644,0,0.9852493405342102],"translation":[-2.6396877765655518,7.689958572387695,0.9853711128234863]},{"children":[64],"name":"_03_Waist__38_LHand","rotation":[0,0.38252687454223633,0,0.9239444732666016],"translation":[1.5831871032714844,6.411364555358887,2.8221311569213867]},{"name":"_03_Waist__39_EndLHand","scale":[0.9999999403953552,0.9999999403953552,0.9999999403953552],"translation":[6.736921310424805,15.097253799438477,-4.785585403442383]},{"children":[66],"name":"_03_Waist__40_LFeeler1","rotation":[0,0.7190992832183838,0,0.6949073672294617],"scale":[0.9999999403953552,1,0.9999999403953552],"translation":[-1.862882137298584,4.212499141693115,8.61777114868164]},{"children":[67],"name":"_03_Waist__41_LFeeler2","rotation":[0,0.14196094870567322,0,0.9898723363876343],"scale":[0.9999999403953552,1,0.9999999403953552],"translation":[9.162981033325195,0.8914470672607422,-0.2593076229095459]},{"name":"_03_Waist__42_EndLFeeler2","translation":[10.088066101074219,-2.656829595565796,0.3078498840332031]},{"children":[69],"name":"_03_Waist__43_Neck","rotation":[0,0.13366009294986725,0,0.9910272359848022],"scale":[0.9999999403953552,1,0.9999999403953552],"translation":[0.35736656188964844,0.000018388032913208008,9.140861511230469]},{"children":[70,72,74,76,78,80],"name":"_03_Waist__44_Head","rotation":[0,-0.46529439091682434,0,0.8851560950279236],"translation":[-1.6283392906188965,0.000010162591934204102,3.0008020401000977]},{"children":[71],"name":"_03_Waist__45_HairA","rotation":[0,0.6416372060775757,0,0.7670083045959473],"scale":[0.9999999403953552,1,0.9999999403953552],"translation":[3.018827438354492,-0.000012516975402832031,-2.3127989768981934]},{"name":"_03_Waist__46_EndHairA","rotation":[0,3.725290298461914e-9,0,1],"translation":[5.891160011291504,-0.00002902746564359404,0.00000286102294921875]},{"children":[73],"name":"_03_Waist__47_LHairB","rotation":[0,0.9253701567649841,0,0.3790648579597473],"scale":[0.9999999403953552,1,0.9999999403953552],"translation":[0.23426532745361328,3.215653657913208,4.654805660247803]},{"name":"_03_Waist__48_EndLHairB","rotation":[0,-5.960464477539063e-8,0,1],"translation":[3.997725486755371,5.179582595825195,-4.721754550933838]},{"children":[75],"name":"_03_Waist__49_LHairC","rotation":[0,0.5251051187515259,0,0.8510373830795288],"scale":[0.9999999403953552,1,0.9999999403953552],"translation":[0.00000667572021484375,4.319921493530273,-0.000018477439880371094]},{"name":"_03_Waist__50_EndLHairC","rotation":[0,1.4901161193847656e-8,0,1],"translation":[0.44977712631225586,0.8399701118469238,-3.293306350708008]},{"children":[77],"name":"_03_Waist__51_LowerBeak","rotation":[0,-0.08797372877597809,0,0.9961228370666504],"translation":[4.462143898010254,-0.0000059604644775390625,0.5928906202316284]},{"name":"_03_Waist__52_EndLowerBeak","rotation":[0,-7.450580596923828e-9,0,1],"translation":[3.5906031131744385,-0.000007212162017822266,-0.8038749694824219]},{"children":[79],"name":"_03_Waist__53_RHairB","rotation":[0,0.9253708720207214,0,0.37906283140182495],"translation":[0.2342541217803955,-3.2156260013580322,4.654812812805176]},{"name":"_03_Waist__54_EndRHairB","rotation":[0,-5.960464477539063e-8,0,1],"scale":[1,0.9999999403953552,1],"translation":[3.9976983070373535,-5.17955207824707,-4.721817493438721]},{"children":[81],"name":"_03_Waist__55_RHairC","rotation":[0,0.5250889658927917,0,0.8510473370552063],"scale":[0.9999999403953552,1,0.9999999403953552],"translation":[-0.0000034570693969726562,-4.319918155670166,0.000003814697265625]},{"name":"_03_Waist__56_EndRHairC","translation":[0.4496607780456543,-0.8399786949157715,-3.2933225631713867]},{"children":[83],"name":"_03_Waist__57_RArm","rotation":[0,0.3353199362754822,0,0.9421043395996094],"translation":[-2.0637307167053223,-4.795551300048828,6.779043197631836]},{"children":[84],"name":"_03_Waist__58_RForeArm","rotation":[0,-0.17112542688846588,0,0.9852492809295654],"scale":[0.9999999403953552,0.9999999403953552,0.9999999403953552],"translation":[-2.639852523803711,-7.689918518066406,0.9853501319885254]},{"children":[85],"name":"_03_Waist__59_RHand","rotation":[0,0.38252606987953186,0,0.9239447116851807],"scale":[0.9999999403953552,1,0.9999999403953552],"translation":[1.5831661224365234,-6.411417007446289,2.8221235275268555]},{"name":"_03_Waist__60_EndRHand","rotation":[0,-2.980232594040899e-8,0,1],"scale":[0.9999999403953552,1,0.9999999403953552],"translation":[6.7367844581604,-15.09719467163086,-4.785650253295898]},{"children":[87],"name":"_03_Waist__61_RFeeler1","rotation":[0,0.7190990447998047,0,0.6949076652526855],"scale":[0.9999999403953552,1,0.9999999403953552],"translation":[-1.8629531860351562,-4.212436199188232,8.617817878723145]},{"children":[88],"name":"_03_Waist__62_RFeeler2","rotation":[0,0.14196069538593292,0,0.9898723363876343],"translation":[9.162958145141602,-0.8914833068847656,-0.2593207359313965]},{"name":"_03_Waist__63_EndRFeeler2","translation":[10.088074684143066,2.6567888259887695,0.3078920841217041]}],"samplers":[{}],"scene":0,"scenes":[{"name":"Scene","nodes":[23,22,21,20,19,18,17,16,15,14,13,12,11,10,9,8,7,6,5,4,0,28,27]}],"skins":[{"inverseBindMatrices":0,"joints":[30,31,32,33,34,35,36,37,38,39,40,41,42,43,44,45,46,47,48,49,50,51,52,53,54,55,56,57,58,59,60,61,62,63,64,65,66,67,68,69,70,71,72,73,74,75,76,77,78,79,80,81,82,83,84,85,86,87,88],"skeleton":2},{"inverseBindMatrices":1,"joints":[30,31,32,33,34,35,36,37,38,39,40,41,42,43,44,45,46,47,48,49,50,51,52,53,54,55,56,57,58,59,60,61,62,63,64,65,66,67,68,69,70,71,72,73,74,75,76,77,78,79,80,81,82,83,84,85,86,87,88],"skeleton":2}],"textures":[{"sampler":0,"source":0},{"sampler":0,"source":1},{"sampler":0,"source":2}],"extensionsUsed":["ALI_amc_mesh_compression"],"extensionsRequired":["ALI_amc_mesh_compression"]}