{"accessors":[{"bufferView":0,"componentType":5126,"count":44,"max":[0.9977102279663086,2.6775941819323634e-7,0.9999930262565613,0,0.9999998807907104,7.213572530417878e-7,0.9977099895477295,0,5.401092835199961e-7,-0.9999998807907104,3.5235729001215077e-7,0,73.59226989746094,61.48623275756836,68.17208099365234,1],"min":[-0.9733172655105591,-1.2840818897075224e-7,-1.0000001192092896,0,-0.9999927878379822,-0.000001377162561766454,-0.97331702709198,0,-7.207607382042625e-7,-1.0000001192092896,-0.0000013797767905998626,0,-100.79763793945312,-43.290771484375,-92.20330810546875,1],"type":"MAT4","byteOffset":0}],"asset":{"generator":"Khronos Blender glTF 2.0 exporter","version":"2.0"},"bufferViews":[{"buffer":0,"byteLength":2816,"byteOffset":0},{"buffer":0,"byteOffset":2816,"byteLength":125679},{"buffer":0,"byteOffset":128495,"byteLength":4951},{"buffer":0,"byteOffset":133446,"byteLength":26719}],"buffers":[{"byteLength":160165,"uri":"buffer.bin"}],"images":[{"name":"pm0015_00_BodyA1","uri":"pm0015_00_BodyA1.png"},{"name":"pm0015_00_BodyB1","uri":"pm0015_00_BodyB1.png"},{"name":"pm0015_00_BodyC1","uri":"pm0015_00_BodyC1.png"}],"materials":[{"alphaMode":"OPAQUE","name":"BodyANutrey_Env","pbrMetallicRoughness":{"baseColorFactor":[0.6400000190734865,0.6400000190734865,0.6400000190734865,1],"baseColorTexture":{"index":0},"metallicFactor":0}},{"alphaMode":"OPAQUE","name":"BodyBRediba_Wing00","pbrMetallicRoughness":{"baseColorFactor":[0.6400000190734865,0.6400000190734865,0.6400000190734865,1],"baseColorTexture":{"index":1},"metallicFactor":0}},{"alphaMode":"OPAQUE","name":"Bug","pbrMetallicRoughness":{"baseColorFactor":[0.6400000190734865,0.6400000190734865,0.6400000190734865,1],"baseColorTexture":{"index":2},"metallicFactor":0}}],"meshes":[{"name":"Beedrill","primitives":[{"material":0,"extensions":{"ALI_amc_mesh_compression":{"bufferView":1}}},{"material":2,"extensions":{"ALI_amc_mesh_compression":{"bufferView":2}}},{"material":1,"extensions":{"ALI_amc_mesh_compression":{"bufferView":3}}}]}],"nodes":[{"children":[1,17],"name":"_01_pm0015_00","rotation":[0.7071068286895752,0,0,0.7071067094802856],"scale":[0.02539999783039093,0.02539999969303608,0.02539999969303608]},{"children":[18,21],"name":"_02_Origin"},{"name":"_04_EndWaist","translation":[20.127300262451172,-4.5474699852075806e-13,7.275959695851597e-11]},{"name":"_06_EndHead","translation":[15.394499778747559,0,4.365570058229018e-11]},{"name":"_09_EndLFeelerC2","translation":[18.99049949645996,0.000011444099982327316,0.000007629389983776491]},{"name":"_12_EndRFeelerC2","translation":[18.99049949645996,0.00009918209980241954,-0.000007629389983776491]},{"name":"_16_EndLHand","rotation":[-0.1478092521429062,-6.757898241005478e-9,-2.2622502982017068e-8,0.9890158772468567],"translation":[50.944210052490234,0.000007629389983776491,0]},{"name":"_18_EndLFeelerA","translation":[63.18013000488281,-0.00001907350088004023,0.000007629389983776491]},{"name":"_20_EndLFeelerB","translation":[70.6250991821289,0.000003814699994109105,-0.000011444099982327316]},{"name":"_24_EndLFoot","translation":[15.583399772644043,-9.536739753457368e-7,-0.000003814699994109105]},{"name":"_27_EndLToe2","translation":[8.535446166992188,9.536739753457368e-7,0.0000019073499970545527]},{"name":"_31_EndRHand","rotation":[0.14780938625335693,4.2600593275210485e-8,1.6079592768392104e-8,0.9890158772468567],"translation":[50.94430160522461,0.000045776399929309264,0.00004196169902570546]},{"name":"_33_EndRFeelerA","translation":[63.180091857910156,0.000005722049991163658,0.00005722049900214188]},{"name":"_35_EndRFeelerB","translation":[70.62518310546875,-0.000017166099496535026,0]},{"name":"_39_EndRFoot","translation":[15.583399772644043,-0.000007629389983776491,0.00003242490129196085]},{"name":"_42_EndRToe2","translation":[8.535478591918945,0.000012397799764585216,0.000022888199964654632]},{"name":"_46_EndTail3","translation":[21.396699905395508,2.3841900542720396e-7,8.731149830909501e-11]},{"name":"_47_pm0015_00_BodySkin"},{"mesh":0,"name":"Beedrill","rotation":[5.960464477539063e-8,0,0,1],"scale":[1.0000001192092896,1,1],"skin":0},{"name":"Camera","rotation":[0.483536034822464,0.33687159419059753,-0.20870360732078552,0.7804827094078064],"translation":[7.481131553649902,5.34366512298584,6.5076398849487305]},{"name":"Lamp","rotation":[0.16907575726509094,0.7558802962303162,-0.27217137813568115,0.570947527885437],"scale":[1,1,0.9999999403953552],"translation":[4.076245307922363,5.903861999511719,-1.0054539442062378]},{"children":[22,23,31,35,37,39,46,50,52,54,61],"name":"_02_Origin__03_Waist","rotation":[-0.5,-0.5000000596046448,0.5000000596046448,0.5],"scale":[1,0.9999999403953552,1],"translation":[-3.1609399766299425e-15,51.62200927734375,0]},{"name":"_02_Origin__04_EndWaist","translation":[20.127304077148438,-4.76837158203125e-7,-8.798651833785698e-7]},{"children":[24,25,28],"name":"_02_Origin__05_Head","translation":[9.93741226196289,-6.007560729980469,0.00003628922058851458]},{"name":"_02_Origin__06_EndHead","translation":[15.39449691772461,-9.5367431640625e-7,-6.729569577146322e-7]},{"children":[26],"name":"_02_Origin__07_LFeelerC1","rotation":[0,-0.16760900616645813,0,0.9858535528182983],"translation":[14.706493377685547,-12.129898071289062,-3.929095983505249]},{"children":[27],"name":"_02_Origin__08_LFeelerC2","rotation":[-1.4807493187163345e-7,-0.763558030128479,1.2379230085457493e-8,0.6457392573356628],"translation":[4.971846580505371,-6.647209167480469,-9.824939727783203]},{"name":"_02_Origin__09_EndLFeelerC2","rotation":[2.1014001561070472e-7,2.9802318834981634e-8,-2.6267503017152194e-7,1],"scale":[1,1.0000001192092896,1],"translation":[5.8546552658081055,-10.421586036682129,14.756452560424805]},{"children":[29],"name":"_02_Origin__10_RFeelerC1","rotation":[0,-0.48662248253822327,0,0.8736124038696289],"translation":[14.70645523071289,-12.129901885986328,3.929215669631958]},{"children":[30],"name":"_02_Origin__11_RFeelerC2","rotation":[-1.4807490344992402e-7,-0.7635587453842163,1.2379373082183065e-8,0.645738422870636],"translation":[10.666491508483887,-6.647222518920898,-2.7339415550231934]},{"name":"_02_Origin__12_EndRFeelerC2","rotation":[1.5760505789330637e-7,8.076873351180961e-15,-3.1521011578661273e-7,1],"scale":[0.9999999403953552,0.9999999403953552,0.9999999403953552],"translation":[15.335209846496582,-10.42152214050293,4.106338024139404]},{"children":[32],"name":"_02_Origin__13_LArm","rotation":[0,-0.3294234871864319,0,0.944182276725769],"translation":[3.062244176864624,-5.821338176727295,-7.600439071655273]},{"children":[33],"name":"_02_Origin__14_LForeArm","rotation":[0,0.9999936819076538,0,-0.0035801467020064592],"translation":[1.7199220657348633,-15.760677337646484,-16.467300415039062]},{"children":[34],"name":"_02_Origin__15_LHand","rotation":[0,-0.03521652892231941,0,0.9993798136711121],"translation":[6.816025733947754,-6.835540771484375,-2.493368148803711]},{"name":"_02_Origin__16_EndLHand","rotation":[0,0.07546191662549973,0,0.9971486926078796],"scale":[0.9999999403953552,1,0.9999999403953552],"translation":[32.61536407470703,-33.06861877441406,-20.928897857666016]},{"children":[36],"name":"_02_Origin__17_LFeelerA","rotation":[0,0.9410790801048279,0,0.3381865918636322],"translation":[1.1386299133300781,10.216402053833008,-1.3552972078323364]},{"name":"_02_Origin__18_EndLFeelerA","rotation":[0,7.450580596923828e-8,0,1],"scale":[1,0.9999999403953552,1],"translation":[40.967796325683594,33.07427978515625,34.920738220214844]},{"children":[38],"name":"_02_Origin__19_LFeelerB","rotation":[0,0.730628252029419,0,0.6827755570411682],"translation":[8.897647857666016,6.3559699058532715,-0.5815862417221069]},{"name":"_02_Origin__20_EndLFeelerB","rotation":[-6.304202315732255e-7,-3.725290298461914e-9,5.721417449918364e-16,1],"translation":[59.847843170166016,19.899539947509766,31.782867431640625]},{"children":[40],"name":"_02_Origin__21_LThigh","rotation":[0,0.811957061290741,0,0.5837171673774719],"translation":[-6.391620635986328,-4.351630687713623,-3.928454875946045]},{"children":[41],"name":"_02_Origin__22_LLeg","rotation":[3.2202407851400494e-7,0.6425873041152954,2.700668630950531e-7,0.7662124633789062],"translation":[21.063796997070312,-16.12554359436035,-9.194914817810059]},{"children":[42,43],"name":"_02_Origin__23_LFoot","rotation":[-3.0844861953482905e-7,-0.7339118123054504,-2.8547316333060735e-7,0.6792448163032532],"scale":[1,0.9999999403953552,1],"translation":[28.35605812072754,26.429840087890625,13.942155838012695]},{"name":"_02_Origin__24_EndLFoot","rotation":[0,1.862645149230957e-8,4.9404924595819466e-15,1],"translation":[11.204620361328125,-9.883151054382324,-4.429723262786865]},{"children":[44],"name":"_02_Origin__25_LToe1","rotation":[-9.00552549198963e-11,0.12487859278917313,1.0588768617481037e-7,0.9921720623970032],"translation":[4.849348545074463,-4.277426719665527,-1.917178988456726]},{"children":[45],"name":"_02_Origin__26_LToe2","rotation":[2.2377685482410925e-8,0.18004274368286133,-4.931190389356743e-8,0.9836587905883789],"translation":[3.6702628135681152,-2.502182960510254,-0.9296383857727051]},{"name":"_02_Origin__27_EndLToe2","rotation":[-2.6267510833122287e-8,1.4901161193847656e-8,1.082467554888646e-15,1],"scale":[1,0.9999999403953552,0.9999999403953552],"translation":[8.193178176879883,-2.142756223678589,-1.0650423765182495]},{"children":[47],"name":"_02_Origin__28_RArm","rotation":[0,-0.5424086451530457,0,0.8401148319244385],"translation":[3.0621492862701416,-5.821330547332764,7.600462436676025]},{"children":[48],"name":"_02_Origin__29_RForeArm","rotation":[0,0.9999936819076538,0,-0.003577911527827382],"scale":[0.9999999403953552,1,0.9999999403953552],"translation":[15.545936584472656,-15.760700225830078,-5.696809768676758]},{"children":[49],"name":"_02_Origin__30_RHand","rotation":[8.556079222898916e-8,0.21607404947280884,9.96438913603015e-8,0.976377010345459],"translation":[0.8530540466308594,-6.835517883300781,-7.207405090332031]},{"name":"_02_Origin__31_EndRHand","rotation":[-2.8132756568766126e-8,-0.13387617468833923,-2.082485224264019e-7,0.9909980893135071],"scale":[0.9999999403953552,0.9999999403953552,1],"translation":[25.047443389892578,-33.06867980957031,-29.57042694091797]},{"children":[51],"name":"_02_Origin__32_RFeelerA","rotation":[0,-0.6125503778457642,0,0.7904316782951355],"translation":[1.1386260986328125,10.216398239135742,1.3553175926208496]},{"name":"_02_Origin__33_EndRFeelerA","translation":[48.99424362182617,33.074371337890625,22.30203628540039]},{"children":[53],"name":"_02_Origin__34_RFeelerB","rotation":[0,-0.47267353534698486,0,0.8812376260757446],"scale":[0.9999999403953552,1,0.9999999403953552],"translation":[8.897636413574219,6.355966091156006,0.5816518068313599]},{"name":"_02_Origin__35_EndRFeelerB","rotation":[0,5.960465188081798e-8,0,1],"scale":[0.9999998807907104,0.9999999403953552,0.9999998807907104],"translation":[66.83605194091797,19.899585723876953,11.174415588378906]},{"children":[55],"name":"_02_Origin__36_RThigh","rotation":[0,0.9996014833450317,0,0.028231628239154816],"translation":[-6.391624450683594,-4.3516316413879395,3.9284088611602783]},{"children":[56],"name":"_02_Origin__37_RLeg","rotation":[0,0.6425870060920715,0,0.7662127017974854],"scale":[0.9999999403953552,1.0000001192092896,0.9999999403953552],"translation":[14.439680099487305,-16.125532150268555,-17.880847930908203]},{"children":[57,58],"name":"_02_Origin__38_RFoot","rotation":[0,-0.6440357565879822,0,0.7649953961372375],"translation":[16.228139877319336,26.42984390258789,27.1126651763916]},{"name":"_02_Origin__39_EndRFoot","rotation":[0,-7.450580596923828e-9,0,1],"translation":[4.558979511260986,-9.883132934570312,-11.152656555175781]},{"children":[59],"name":"_02_Origin__40_RToe1","rotation":[0,-0.0965721532702446,0,0.9953259825706482],"scale":[0.9999999403953552,1,0.9999999403953552],"translation":[1.9731248617172241,-4.277412414550781,-4.82682991027832]},{"children":[60],"name":"_02_Origin__41_RToe2","rotation":[0,0.25626900792121887,0,0.9666054844856262],"translation":[1.1787757873535156,-2.502185583114624,-3.5980112552642822]},{"name":"_02_Origin__42_EndRToe2","translation":[7.279732704162598,-2.142756462097168,-3.9074923992156982]},{"children":[62],"name":"_02_Origin__43_Tail1","rotation":[0,0.9999983310699463,0,0.0018820316763594747],"translation":[-8.412765502929688,4.108039855957031,-0.00003072137405979447]},{"children":[63],"name":"_02_Origin__44_Tail2","rotation":[9.362896236098095e-9,-0.01837215945124626,4.2017907730951265e-7,0.9998313188552856],"translation":[19.40873908996582,-0.07114267349243164,-0.07293780148029327]},{"children":[64],"name":"_02_Origin__45_Tail3","rotation":[-1.582130337851595e-8,-0.0063952975906431675,-4.2018757540063234e-7,0.999979555606842],"translation":[22.02695655822754,-2.1323561668395996,-0.8926796317100525]},{"name":"_02_Origin__46_EndTail3","rotation":[-1.3133757192917983e-8,1.8626442610525373e-9,-2.1014010087583301e-7,1],"translation":[21.335983276367188,-1.1397976875305176,-1.1381827592849731]}],"samplers":[{}],"scene":0,"scenes":[{"name":"Scene","nodes":[16,15,14,13,12,11,10,9,8,7,6,5,4,3,2,0,20,19]}],"skins":[{"inverseBindMatrices":0,"joints":[21,22,23,24,25,26,27,28,29,30,31,32,33,34,35,36,37,38,39,40,41,42,43,44,45,46,47,48,49,50,51,52,53,54,55,56,57,58,59,60,61,62,63,64],"skeleton":1}],"textures":[{"sampler":0,"source":0},{"sampler":0,"source":1},{"sampler":0,"source":2}],"extensionsUsed":["ALI_amc_mesh_compression"],"extensionsRequired":["ALI_amc_mesh_compression"]}