{"accessors":[{"bufferView":0,"componentType":5126,"count":52,"max":[1,0,1,0,1,0,1,0,0,-1.0000001192092896,0,0,16.800403594970703,15.901355743408203,22.625280380249023,1],"min":[-0.9999815821647644,0,-1,0,-1,0,-0.9999815821647644,0,0,-1.0000003576278687,0,0,-40.12699890136719,-17.545434951782227,-21.65289306640625,1],"type":"MAT4","byteOffset":0}],"asset":{"generator":"Khronos Blender glTF 2.0 exporter","version":"2.0"},"bufferViews":[{"buffer":0,"byteLength":3328,"byteOffset":0},{"buffer":0,"byteOffset":3328,"byteLength":128633},{"buffer":0,"byteOffset":131961,"byteLength":2571}],"buffers":[{"byteLength":134532,"uri":"buffer.bin"}],"images":[{"name":"pm0104_00_Eye1","uri":"pm0104_00_Eye1.png"},{"name":"pm0104_00_Body1","uri":"pm0104_00_Body1.png"}],"materials":[{"alphaMode":"OPAQUE","name":"Material__139","pbrMetallicRoughness":{"baseColorFactor":[0.6400000190734865,0.6400000190734865,0.6400000190734865,1],"baseColorTexture":{"index":0},"metallicFactor":0}},{"alphaMode":"OPAQUE","name":"Material__140","pbrMetallicRoughness":{"baseColorFactor":[0.6400000190734865,0.6400000190734865,0.6400000190734865,1],"baseColorTexture":{"index":1},"metallicFactor":0}}],"meshes":[{"name":"Cubone","primitives":[{"material":1,"extensions":{"ALI_amc_mesh_compression":{"bufferView":1}}},{"material":0,"extensions":{"ALI_amc_mesh_compression":{"bufferView":2}}}]}],"nodes":[{"children":[2,4],"name":"Armature","scale":[0.02539999969303608,0.02539999969303608,0.02539999969303608]},{"name":"Camera","rotation":[0.483536034822464,0.33687159419059753,-0.20870360732078552,0.7804827094078064],"translation":[7.481131553649902,5.34366512298584,6.5076398849487305]},{"mesh":0,"name":"Cubone","skin":0},{"name":"Lamp","rotation":[0.16907575726509094,0.7558802962303162,-0.27217137813568115,0.570947527885437],"scale":[1,1,0.9999999403953552],"translation":[4.076245307922363,5.903861999511719,-1.0054539442062378]},{"children":[5,53,54,55],"name":"Armature_pm0104_00","rotation":[-0.7071068286895752,0,0,0.7071068286895752],"scale":[1,0.9999999403953552,1]},{"children":[6],"name":"Armature_Origin","translation":[0,-2.2737367544323206e-13,0]},{"children":[7,24],"name":"Armature_Waist","rotation":[0,-0.7071080803871155,0,0.7071055769920349],"translation":[0,-5.84714371143491e-7,13.376700401306152]},{"children":[8,14,20,21],"name":"Armature_Hips","rotation":[0,1,0,0.0000012675908465098473],"translation":[-9.590550575921952e-12,5.84714371143491e-7,-0.000002739791625572252]},{"children":[9],"name":"Armature_LThigh","rotation":[0,-0.06775215268135071,0,0.9977021813392639],"scale":[0.9999999403953552,0.9999999403953552,0.9999999403953552],"translation":[3.813856363296509,0.05024634674191475,6.675356388092041]},{"children":[10],"name":"Armature_LLeg","rotation":[0,0.34089258313179016,0,0.9401022791862488],"translation":[5.133011817932129,-0.7068683505058289,-0.7003755569458008]},{"children":[11,13],"name":"Armature_LFoot","rotation":[0,-0.8923154473304749,0,0.45141226053237915],"scale":[1,0.9999999403953552,1],"translation":[2.6606926918029785,1.969545602798462,1.6685879230499268]},{"children":[12],"name":"Armature_LToe","rotation":[0,-2.60770320892334e-8,0,1],"translation":[0.00000807642936706543,-3.932731866836548,-0.6336026191711426]},{"name":"Armature_EndLToe","rotation":[0,-3.725290298461914e-9,0,1],"translation":[0.0000038370490074157715,-2.020000696182251,2.2351741790771484e-8]},{"name":"Armature_EndLFoot","rotation":[0,-2.60770320892334e-8,0,1],"translation":[0.000010736286640167236,-5.381391525268555,-9.834766387939453e-7]},{"children":[15],"name":"Armature_RThigh","rotation":[0,-0.06775215268135071,0,0.9977021813392639],"scale":[0.9999999403953552,0.9999999403953552,0.9999999403953552],"translation":[3.813854932785034,0.05023552104830742,-6.675363063812256]},{"children":[16],"name":"Armature_RLeg","rotation":[0,0.34089258313179016,0,0.9401022791862488],"translation":[5.133001327514648,-0.7068611979484558,-0.700376033782959]},{"children":[17,18],"name":"Armature_RFoot","rotation":[0,-0.8923154473304749,0,0.45141226053237915],"scale":[1,0.9999999403953552,1],"translation":[2.6606996059417725,1.9695525169372559,1.6685798168182373]},{"name":"Armature_EndRFoot","rotation":[0,-2.9802322387695312e-8,0,1],"translation":[0.000010758638381958008,-5.381392478942871,-2.384185791015625e-7]},{"children":[19],"name":"Armature_RToe","rotation":[0,-2.60770320892334e-8,0,1],"translation":[0.000008255243301391602,-3.9327316284179688,-0.6335996389389038]},{"name":"Armature_EndRToe","rotation":[0,-3.725290298461914e-9,0,1],"translation":[0.0000035427510738372803,-2.020000696182251,2.086162567138672e-7]},{"name":"Armature_EndHips","rotation":[0,-2.2737367544323206e-13,0,1],"translation":[12.725000381469727,0,-4.576145329338033e-7]},{"children":[22],"name":"Armature_Tail1","rotation":[0,0.6112229228019714,0,0.7914584875106812],"scale":[0.9999999403953552,1,0.9999999403953552],"translation":[7.301295757293701,5.702610969543457,-2.625638444442302e-7]},{"children":[23],"name":"Armature_Tail2","rotation":[0,0.0874175950884819,0,0.996171772480011],"translation":[0.32241132855415344,4.880514621734619,1.233866572380066]},{"name":"Armature_EndTail2","translation":[0.04519789665937424,6.962308883666992,0.5600546598434448]},{"children":[25],"name":"Armature_Spine1","rotation":[0,2.3841835172788706e-7,0,1],"translation":[-3.455191688317427e-11,5.84714371143491e-7,-0.000009869895620795432]},{"children":[26,38,43],"name":"Armature_Spine2","rotation":[0,-0.020529795438051224,0,0.9997892379760742],"translation":[2.361665725708008,0.00001833571877796203,-5.654692358803004e-8]},{"children":[27],"name":"Armature_RShoulder","rotation":[0,-0.7390671968460083,0,0.6736317276954651],"scale":[0.9999999403953552,0.9999998807907104,0.9999999403953552],"translation":[3.0790743827819824,-0.7720674276351929,4.228524208068848]},{"children":[28],"name":"Armature_RArm","rotation":[0,0.06373538821935654,0,0.9979669451713562],"scale":[0.9999998807907104,1,0.9999998807907104],"translation":[2.5240514278411865,-1.7881393432617188e-7,-0.00002676248550415039]},{"children":[29],"name":"Armature_RForeArm","rotation":[0,-4.190951585769653e-9,0,1],"translation":[3.925417184829712,1.7881393432617188e-7,-0.0000019669532775878906]},{"children":[30,32,33,35],"name":"Armature_RHand","rotation":[0,2.3283064365386963e-10,0,1],"translation":[3.01050066947937,-5.960464477539063e-8,-0.000005595386028289795]},{"children":[31],"name":"Armature_RFingerB","rotation":[0,-0.29436856508255005,0,0.9556920528411865],"scale":[1.0000001192092896,1,1.0000001192092896],"translation":[1.1739073991775513,-1.8630274534225464,1.0859004259109497]},{"name":"Armature_EndRFingerB","rotation":[0,1.4901161193847656e-8,0,1],"translation":[1.8566169738769531,-1.2844536304473877,-0.00004482269287109375]},{"name":"Armature_EndRHand","rotation":[0,2.3283064365386963e-10,0,1],"translation":[5.732903957366943,5.960464477539063e-8,0.00006836652755737305]},{"children":[34],"name":"Armature_FeelerA","rotation":[0,0.999999463558197,0,0.001126007060520351],"scale":[0.9999999403953552,0.9999999403953552,0.9999999403953552],"translation":[3.1632823944091797,2.384185791015625e-7,0.4818848967552185]},{"name":"Armature_EndFeelerA","rotation":[0,-3.026798367500305e-8,0,1],"translation":[0.000002428889274597168,-15.12930679321289,0.000001430511474609375]},{"children":[36],"name":"Armature_RFingerA1","rotation":[0,2.3283064365386963e-10,0,1],"translation":[2.424896478652954,2.384185791015625e-7,-0.7287005186080933]},{"children":[37],"name":"Armature_RFingerA2","rotation":[0,-0.08068209886550903,0,0.99673992395401],"translation":[1.4699432849884033,-5.960464477539063e-8,0.00014629215002059937]},{"name":"Armature_EndRFingerA2","scale":[1,1.0000001192092896,1],"translation":[1.5673701763153076,-5.960464477539063e-8,0.00000762939453125]},{"children":[39],"name":"Armature_Neck","rotation":[0,0.020529795438051224,0,0.999789297580719],"scale":[0.9999999403953552,0.9999999403953552,0.9999999403953552],"translation":[5.477912425994873,-0.22528336942195892,-0.225063294172287]},{"children":[40,42],"name":"Armature_Head","rotation":[0,2.3584334485349245e-9,0,1],"translation":[3.328399658203125,1.4901161193847656e-8,-9.539871825836599e-8]},{"children":[41],"name":"Armature_Feeler","translation":[7.339195917666075e-11,-1.4901161193847656e-8,6.484060577349737e-7]},{"name":"Armature_EndFeeler","translation":[15.577699661254883,-1.4901161193847656e-8,-3.7298741517588496e-7]},{"name":"Armature_EndHead","translation":[14.005998611450195,-1.4901161193847656e-8,-3.353525244165212e-7]},{"children":[44],"name":"Armature_LShoulder","rotation":[0,0.7660971283912659,0,0.642724871635437],"scale":[0.9999998807907104,0.9999998807907104,0.9999998807907104],"translation":[2.721893310546875,-0.7720686793327332,-4.4668402671813965]},{"children":[45],"name":"Armature_LArm","rotation":[0,-0.06373587250709534,0,0.9979668259620667],"scale":[0.9999998807907104,1,0.9999998807907104],"translation":[2.5240559577941895,1.1920928955078125e-7,-0.000044286251068115234]},{"children":[46],"name":"Armature_LForeArm","rotation":[0,9.313225746154785e-10,0,1],"translation":[3.9255080223083496,0,-0.000003509223461151123]},{"children":[47,49,52],"name":"Armature_LHand","rotation":[0,2.3283064365386963e-10,0,1],"translation":[3.010500907897949,0,8.121132850646973e-7]},{"children":[48],"name":"Armature_LFingerB","rotation":[0,-0.9556930065155029,0,0.2943653166294098],"scale":[0.9999999403953552,1,0.9999999403953552],"translation":[1.173857569694519,-1.863005518913269,-1.0858556032180786]},{"name":"Armature_EndLFingerB","rotation":[0,-4.470348358154297e-8,0,1],"translation":[-1.8565576076507568,-1.2844552993774414,0.00000762939453125]},{"children":[50],"name":"Armature_LFingerA1","rotation":[0,6.984919309616089e-10,0,1],"translation":[2.424899101257324,1.1920928955078125e-7,0.7285962104797363]},{"children":[51],"name":"Armature_LFingerA2","rotation":[0,0.08068244904279709,0,0.9967398643493652],"scale":[0.9999999403953552,1,0.9999999403953552],"translation":[1.4698703289031982,1.1920928955078125e-7,0.0000214502215385437]},{"name":"Armature_EndLFingerA2","rotation":[0,7.450580596923828e-9,0,1],"translation":[1.5673885345458984,0,-0.0000016689300537109375]},{"name":"Armature_EndLHand","rotation":[0,2.3283064365386963e-10,0,1],"translation":[5.7328667640686035,0,-0.000002771615982055664]},{"name":"Armature_pm0104_00_WeaponSkin","translation":[0,-2.2737367544323206e-13,0]},{"name":"Armature_pm0104_00_HeadSkin","translation":[0,-2.2737367544323206e-13,0]},{"name":"Armature_pm0104_00_BodySkin","translation":[0,-2.2737367544323206e-13,0]}],"samplers":[{}],"scene":0,"scenes":[{"name":"Scene","nodes":[0,3,1]}],"skins":[{"inverseBindMatrices":0,"joints":[4,5,6,7,8,9,10,11,12,13,14,15,16,17,18,19,20,21,22,23,24,25,26,27,28,29,30,31,32,33,34,35,36,37,38,39,40,41,42,43,44,45,46,47,48,49,50,51,52,53,54,55],"skeleton":0}],"textures":[{"sampler":0,"source":0},{"sampler":0,"source":1}],"extensionsUsed":["ALI_amc_mesh_compression"],"extensionsRequired":["ALI_amc_mesh_compression"]}