{"accessors":[{"bufferView":0,"componentType":5126,"count":62,"max":[0.000003374425432411954,-1,0.000003619989911385346,0,0.9321643710136414,0.000003619990820880048,1.0000001192092896,0,1.0000001192092896,-5.897712873625949e-13,0.9321643710136414,0,114.13343811035156,84.44245147705078,70.56689453125,1],"min":[-0.000003619989911385346,-1.0000001192092896,-0.000003619989911385346,0,-1.0000001192092896,0.0000036050896596862003,-1.0000001192092896,0,-1.0000001192092896,-6.395093330759105e-13,-1.0000001192092896,0,-143.2056121826172,-84.44239044189453,-57.02385330200195,1],"type":"MAT4","byteOffset":0}],"asset":{"generator":"Khronos Blender glTF 2.0 exporter","version":"2.0"},"bufferViews":[{"buffer":0,"byteLength":3968,"byteOffset":0},{"buffer":0,"byteOffset":3968,"byteLength":1279},{"buffer":0,"byteOffset":5247,"byteLength":1279},{"buffer":0,"byteOffset":6526,"byteLength":147369}],"buffers":[{"byteLength":153895,"uri":"buffer.bin"}],"images":[{"name":"pm0036_00_Body1","uri":"pm0036_00_Body1.png"},{"name":"pm0036_00_Mouth1","uri":"pm0036_00_Mouth1.png"},{"name":"pm0036_00_Eye1","uri":"pm0036_00_Eye1.png"}],"materials":[{"alphaMode":"OPAQUE","name":"Body","pbrMetallicRoughness":{"baseColorFactor":[0.6400000190734865,0.6400000190734865,0.6400000190734865,1],"baseColorTexture":{"index":0},"metallicFactor":0}},{"alphaMode":"OPAQUE","name":"Mouth","pbrMetallicRoughness":{"baseColorFactor":[0.6400000190734865,0.6400000190734865,0.6400000190734865,1],"baseColorTexture":{"index":1},"metallicFactor":0}},{"alphaMode":"OPAQUE","name":"REye","pbrMetallicRoughness":{"baseColorFactor":[0.6400000190734865,0.6400000190734865,0.6400000190734865,1],"baseColorTexture":{"index":2},"metallicFactor":0}}],"meshes":[{"name":"Clefable","primitives":[{"material":1,"extensions":{"ALI_amc_mesh_compression":{"bufferView":1}}},{"material":2,"extensions":{"ALI_amc_mesh_compression":{"bufferView":2}}},{"material":0,"extensions":{"ALI_amc_mesh_compression":{"bufferView":3}}}]}],"nodes":[{"children":[1,23],"name":"_01_pm0036_00","rotation":[0.7071068286895752,0,0,0.7071067094802856],"scale":[0.02539999783039093,0.02539999969303608,0.02539999969303608]},{"children":[2],"name":"_02_Origin"},{"children":[25,27,41],"name":"_03_Waist","rotation":[-5.024286464438499e-15,0.7071080803871155,0,0.7071055173873901],"scale":[1,0.9999999403953552,1],"translation":[0,-5.718400001525879,-55.42369842529297]},{"name":"_05_EndHips","translation":[16.899999618530273,-9.536739753457368e-7,0]},{"name":"_09_EndLFoot","translation":[18,-4.768369876728684e-7,0]},{"name":"_11_EndLToe","translation":[8.999998092651367,0,0]},{"name":"_15_EndRFoot","translation":[18,0,0]},{"name":"_17_EndRToe","translation":[8.999998092651367,0,0]},{"name":"_21_EndCurl","translation":[26.000009536743164,0.000007629389983776491,0]},{"name":"_22_EndHead","translation":[59.9999885559082,0,5.820770254683083e-11]},{"name":"_25_EndLEar2","translation":[40,0.0000014305099966804846,0.000022888199964654632]},{"name":"_28_EndLFeeler2","translation":[44.99998092651367,0,0.000007629389983776491]},{"name":"_31_EndREar2","translation":[39.9999885559082,-0.0000019073499970545527,0.00001525879997643642]},{"name":"_34_EndRFeeler2","translation":[45.0000114440918,0,0.00001525879997643642]},{"name":"_39_EndLHand","translation":[12.291910171508789,0,0]},{"name":"_42_EndLFingerA2","translation":[3.932526111602783,0,-0.000011444099982327316]},{"name":"_45_EndLFingerB2","translation":[3.993964910507202,0.000007629389983776491,0.000007629389983776491]},{"name":"_48_EndLFingerC2","translation":[3.9963459968566895,0,0.000007629389983776491]},{"name":"_53_EndRHand","translation":[12.291919708251953,0.00001525879997643642,0]},{"name":"_56_EndRFingerA2","translation":[3.932526111602783,-0.000007629389983776491,0]},{"name":"_59_EndRFingerB2","translation":[3.993988037109375,0,0]},{"name":"_62_EndRFingerC2","translation":[3.9963529109954834,0,0]},{"name":"_65_EndTail2","translation":[41,0,-5.820770254683083e-11]},{"name":"_66_pm0036_00_Skin"},{"name":"Camera","rotation":[0.483536034822464,0.33687159419059753,-0.20870360732078552,0.7804827094078064],"translation":[7.481131553649902,5.34366512298584,6.5076398849487305]},{"mesh":0,"name":"Clefable","rotation":[0.49999913573265076,-0.5000008344650269,0.5000009536743164,0.4999990463256836],"scale":[1,1,1.0000001192092896],"skin":0,"translation":[-55.42369842529297,5.718400955200195,-0.00020063323609065264]},{"name":"Lamp","rotation":[0.16907575726509094,0.7558802962303162,-0.27217137813568115,0.570947527885437],"scale":[1,1,0.9999999403953552],"translation":[4.076245307922363,5.903861999511719,-1.0054539442062378]},{"children":[28,29,35],"name":"_03_Waist__04_Hips","rotation":[-0.5,0.5000000596046448,-0.5000000596046448,0.5],"scale":[1,0.9999999403953552,1],"translation":[-49.705299377441406,61.14210510253906,-0.0001858580217231065]},{"name":"_03_Waist__05_EndHips","translation":[16.899999618530273,-2.3840402718633413e-7,0.0000018808134427672485]},{"children":[30],"name":"_03_Waist__06_LThigh","translation":[26.199880599975586,-19.40017318725586,1.079931616783142]},{"children":[31],"name":"_03_Waist__07_LLeg","translation":[16.69999885559082,-0.000110626220703125,-7.973928290994081e-7]},{"children":[32,33],"name":"_03_Waist__08_LFoot","rotation":[0,-0.7071068286895752,0,0.7071068286895752],"translation":[8.399999618530273,-0.000049591064453125,-4.302171987546899e-7]},{"name":"_03_Waist__09_EndLFoot","rotation":[0,-2.246438305557666e-13,0,1],"translation":[-17.999996185302734,0.0000667572021484375,0]},{"children":[34],"name":"_03_Waist__10_LToe","rotation":[0,-2.2286746016383918e-13,0,1],"translation":[-10.599990844726562,0.00000762939453125,-2.900026798248291]},{"name":"_03_Waist__11_EndLToe","translation":[-8.999996185302734,0.000034332275390625,3.041034091211259e-11]},{"children":[36],"name":"_03_Waist__12_RThigh","translation":[26.200132369995117,19.399829864501953,1.0800765752792358]},{"children":[37],"name":"_03_Waist__13_RLeg","translation":[16.699995040893555,-0.000110626220703125,-7.973820288498246e-7]},{"children":[38,39],"name":"_03_Waist__14_RFoot","rotation":[0,-0.7071068286895752,0,0.7071068286895752],"translation":[8.39999771118164,-0.0000476837158203125,-4.302064553485252e-7]},{"name":"_03_Waist__15_EndRFoot","rotation":[0,-2.2464384410829374e-13,0,1],"translation":[-18.000003814697266,0.0000667572021484375,0]},{"children":[40],"name":"_03_Waist__16_RToe","rotation":[0,-2.2286746016383918e-13,0,1],"translation":[-10.599990844726562,0.0000057220458984375,-2.9000282287597656]},{"name":"_03_Waist__17_EndRToe","translation":[-8.999996185302734,0.000034332275390625,3.041034091211259e-11]},{"children":[42,58,72,86],"name":"_03_Waist__18_Spine1","rotation":[-0.5,-0.5000000596046448,0.5000000596046448,0.5],"scale":[1,0.9999999403953552,1],"translation":[-49.705299377441406,61.142120361328125,-0.0001858580217231065]},{"children":[43,45,46,49,52,55],"name":"_03_Waist__19_Head","translation":[25.29908561706543,0.00009343029523734003,3.623199518187903e-8]},{"children":[44],"name":"_03_Waist__20_Curl","rotation":[0,0.9622811675071716,0,0.27205702662467957],"translation":[46.372623443603516,0.0002345740795135498,16.895002365112305]},{"name":"_03_Waist__21_EndCurl","scale":[1,0.9999999403953552,1],"translation":[11.744335174560547,-0.00009000301361083984,-23.196365356445312]},{"name":"_03_Waist__22_EndHead","translation":[60.000003814697266,5.960464477539063e-8,-0.000002586451046227012]},{"children":[47],"name":"_03_Waist__23_LEar1","rotation":[0,0.05919487401843071,0,0.998246431350708],"translation":[30.000085830688477,-28.499879837036133,-0.5798962712287903]},{"children":[48],"name":"_03_Waist__24_LEar2","rotation":[0,-6.705523247774181e-8,0,1],"scale":[0.9999999403953552,1,0.9999999403953552],"translation":[11.19347095489502,-17.72979164123535,-1.1671123504638672]},{"name":"_03_Waist__25_EndLEar2","translation":[21.32086944580078,-33.77098846435547,-2.2230758666992188]},{"children":[50],"name":"_03_Waist__26_LFeeler1","rotation":[0,-0.0000017285348121731658,0,1],"translation":[2.120018482208252,-7.630141735076904,-39.99997329711914]},{"children":[51],"name":"_03_Waist__27_LFeeler2","translation":[2.2324254512786865,-31.92204475402832,0.00011416577035561204]},{"name":"_03_Waist__28_EndLFeeler2","rotation":[-7.450580596923828e-9,0,0,1],"translation":[3.139331579208374,-44.89034652709961,0.00015944245387800038]},{"children":[53],"name":"_03_Waist__29_REar1","rotation":[0,0.05919695645570755,0,0.9982463121414185],"translation":[29.999910354614258,28.500110626220703,-0.5801098942756653]},{"children":[54],"name":"_03_Waist__30_REar2","rotation":[0,-3.725290298461914e-9,0,1],"translation":[11.193340301513672,17.72979736328125,-1.1672077178955078]},{"name":"_03_Waist__31_EndREar2","translation":[21.3206844329834,33.77107238769531,-2.223264694213867]},{"children":[56],"name":"_03_Waist__32_RFeeler1","rotation":[0,0.0000017881393432617188,0,1],"translation":[2.1199803352355957,7.629856109619141,-40.00002670288086]},{"children":[57],"name":"_03_Waist__33_RFeeler2","translation":[2.2321739196777344,31.922054290771484,-0.00011414181790314615]},{"name":"_03_Waist__34_EndRFeeler2","translation":[3.1390342712402344,44.89039993286133,-0.0001555050548631698]},{"children":[59],"name":"_03_Waist__35_LShoulder","rotation":[0,-0.5421759486198425,0,0.8402649760246277],"translation":[23.576414108276367,-31.689882278442383,9.148513793945312]},{"children":[60],"name":"_03_Waist__36_LArm","rotation":[0,8.940696716308594e-8,0,1],"translation":[6.3896636962890625,-10.0152587890625,2.889925003051758]},{"children":[61],"name":"_03_Waist__37_LForeArm","rotation":[0,-8.940696716308594e-8,0,1],"translation":[6.118232727050781,-9.589786529541016,2.767148971557617]},{"children":[62,63,66,69],"name":"_03_Waist__38_LHand","rotation":[0,8.940696716308594e-8,0,1],"translation":[5.437095642089844,-8.522186279296875,2.459064483642578]},{"name":"_03_Waist__39_EndLHand","rotation":[0,1.4901161193847656e-8,0,1],"translation":[6.4239044189453125,-10.068920135498047,2.9053955078125]},{"children":[64],"name":"_03_Waist__40_LFingerA1","rotation":[0,0.13085626065731049,0,0.9914013743400574],"scale":[0.9999998807907104,1,0.9999998807907104],"translation":[7.866878509521484,0.43660736083984375,-1.4004478454589844]},{"children":[65],"name":"_03_Waist__41_LFingerA2","rotation":[0,1.4901161193847656e-7,0,1],"translation":[2.524658203125,0.009845733642578125,-0.0020761489868164062]},{"name":"_03_Waist__42_EndLFingerA2","rotation":[0,4.470348358154297e-8,0,1],"translation":[3.9324913024902344,0.015331268310546875,-0.0032548904418945312]},{"children":[67],"name":"_03_Waist__43_LFingerB1","rotation":[0,0.004957170691341162,0,0.9999877214431763],"scale":[0.9999999403953552,1,0.9999999403953552],"translation":[6.3067626953125,-4.532970428466797,0.3938446044921875]},{"children":[68],"name":"_03_Waist__44_LFingerB2","rotation":[0,1.4901161193847656e-8,0,1],"translation":[2.1194610595703125,-3.1090621948242188,0.8794822692871094]},{"name":"_03_Waist__45_EndLFingerB2","translation":[2.1906509399414062,-3.2134857177734375,0.9090385437011719]},{"children":[70],"name":"_03_Waist__46_LFingerC1","rotation":[0,-0.027145005762577057,0,0.9996315240859985],"scale":[0.9999999403953552,1,0.9999999403953552],"translation":[1.4490966796875,-7.121150970458984,2.883087158203125]},{"children":[71],"name":"_03_Waist__47_LFingerC2","rotation":[0,1.1920928955078125e-7,0,1],"translation":[1.3705177307128906,-3.1228866577148438,1.0098915100097656]},{"name":"_03_Waist__48_EndLFingerC2","rotation":[0,2.9802322387695312e-8,0,1],"translation":[1.539896011352539,-3.5088348388671875,1.1347064971923828]},{"children":[73],"name":"_03_Waist__49_RShoulder","rotation":[0,-0.5421757102012634,0,0.8402652740478516],"translation":[23.576169967651367,31.690122604370117,9.148284912109375]},{"children":[74],"name":"_03_Waist__50_RArm","translation":[6.3895721435546875,10.015317916870117,2.8899574279785156]},{"children":[75],"name":"_03_Waist__51_RForeArm","rotation":[0,-1.3411046495548362e-7,0,1],"scale":[0.9999999403953552,1,0.9999999403953552],"translation":[6.118125915527344,9.589836120605469,2.767190933227539]},{"children":[76,77,80,83],"name":"_03_Waist__52_RHand","translation":[5.437019348144531,8.522247314453125,2.4590988159179688]},{"name":"_03_Waist__53_EndRHand","translation":[6.423809051513672,10.0689697265625,2.905445098876953]},{"children":[78],"name":"_03_Waist__54_RFingerA1","rotation":[0,0.1308574229478836,0,0.9914013147354126],"translation":[7.866893768310547,-0.4365348815917969,-1.4004402160644531]},{"children":[79],"name":"_03_Waist__55_RFingerA2","rotation":[0,-1.4901161193847656e-8,0,1],"translation":[2.5246620178222656,-0.009807586669921875,-0.002079010009765625]},{"name":"_03_Waist__56_EndRFingerA2","rotation":[0,-1.4901161193847656e-8,0,1],"translation":[3.9324874877929688,-0.01528167724609375,-0.00324249267578125]},{"children":[81],"name":"_03_Waist__57_RFingerB1","rotation":[0,0.004957274999469519,0,0.9999877214431763],"translation":[6.306735992431641,4.5330352783203125,0.3939094543457031]},{"children":[82],"name":"_03_Waist__58_RFingerB2","rotation":[0,1.341104507446289e-7,0,1],"translation":[2.1194305419921875,3.1090621948242188,0.8794937133789062]},{"name":"_03_Waist__59_EndRFingerB2","rotation":[0,-1.4901161193847656e-8,0,1],"translation":[2.190631866455078,3.2135238647460938,0.9090461730957031]},{"children":[84],"name":"_03_Waist__60_RFingerC1","rotation":[0,-0.027145031839609146,0,0.9996315240859985],"translation":[1.44903564453125,7.121147155761719,2.883129119873047]},{"children":[85],"name":"_03_Waist__61_RFingerC2","translation":[1.3704662322998047,3.1228790283203125,1.0099163055419922]},{"name":"_03_Waist__62_EndRFingerC2","translation":[1.5398731231689453,3.50885009765625,1.1347274780273438]},{"children":[87],"name":"_03_Waist__63_Tail1","rotation":[0,-0.8256657719612122,0,0.5641595721244812],"translation":[4.709988117218018,-0.0001322031021118164,-40.000003814697266]},{"children":[88],"name":"_03_Waist__64_Tail2","rotation":[0,-0.08216476440429688,0,0.9966187477111816],"translation":[-22.810134887695312,-0.00018197298049926758,20.992801666259766]},{"name":"_03_Waist__65_EndTail2","rotation":[0,4.470348358154297e-8,0,1],"translation":[-19.578449249267578,-0.00026148557662963867,36.02338409423828]}],"samplers":[{}],"scene":0,"scenes":[{"name":"Scene","nodes":[22,21,20,19,18,17,16,15,14,13,12,11,10,9,8,7,6,5,4,3,0,26,24]}],"skins":[{"inverseBindMatrices":0,"joints":[27,28,29,30,31,32,33,34,35,36,37,38,39,40,41,42,43,44,45,46,47,48,49,50,51,52,53,54,55,56,57,58,59,60,61,62,63,64,65,66,67,68,69,70,71,72,73,74,75,76,77,78,79,80,81,82,83,84,85,86,87,88],"skeleton":2}],"textures":[{"sampler":0,"source":0},{"sampler":0,"source":1},{"sampler":0,"source":2}],"extensionsUsed":["ALI_amc_mesh_compression"],"extensionsRequired":["ALI_amc_mesh_compression"]}