{"accessors":[{"bufferView":0,"componentType":5126,"count":12,"max":[1,0,0.05128198862075806,0,0.9302690029144287,0,1,0,0,-1,0,0,0.4078036844730377,30.686756134033203,27.017454147338867,1],"min":[-0.9997740387916565,0,-0.9302690029144287,0,-0.05128198862075806,0,-0.9997740387916565,0,0,-1.0000001192092896,0,0,-68.50697326660156,-58.67828369140625,0,1],"type":"MAT4","byteOffset":0}],"asset":{"generator":"Khronos Blender glTF 2.0 exporter","version":"2.0"},"bufferViews":[{"buffer":0,"byteLength":768,"byteOffset":0},{"buffer":0,"byteOffset":768,"byteLength":8319},{"buffer":0,"byteOffset":9087,"byteLength":81467}],"buffers":[{"byteLength":90554,"uri":"buffer.bin"}],"images":[{"name":"pm0011_00_Body1","uri":"pm0011_00_Body1.png"},{"name":"pm0011_00_Eye1","uri":"pm0011_00_Eye1.png"}],"materials":[{"alphaMode":"OPAQUE","name":"Material__58","pbrMetallicRoughness":{"baseColorFactor":[0.6400000190734865,0.6400000190734865,0.6400000190734865,1],"baseColorTexture":{"index":0},"metallicFactor":0}},{"alphaMode":"OPAQUE","name":"Material__59","pbrMetallicRoughness":{"baseColorFactor":[0.6400000190734865,0.6400000190734865,0.6400000190734865,1],"baseColorTexture":{"index":1},"metallicFactor":0}}],"meshes":[{"name":"Metapod","primitives":[{"material":1,"extensions":{"ALI_amc_mesh_compression":{"bufferView":1}}},{"material":0,"extensions":{"ALI_amc_mesh_compression":{"bufferView":2}}}]}],"nodes":[{"children":[3,4],"name":"Armature","scale":[0.02539999969303608,0.02539999969303608,0.02539999969303608]},{"name":"Camera","rotation":[0.483536034822464,0.33687159419059753,-0.20870360732078552,0.7804827094078064],"translation":[7.481131553649902,5.34366512298584,6.5076398849487305]},{"name":"Lamp","rotation":[0.16907575726509094,0.7558802962303162,-0.27217137813568115,0.570947527885437],"scale":[1,1,0.9999999403953552],"translation":[4.076245307922363,5.903861999511719,-1.0054539442062378]},{"mesh":0,"name":"Metapod","skin":0},{"children":[5,15],"name":"Armature_pm0011_00","rotation":[-0.7071068286895752,0,0,0.7071068286895752]},{"children":[6],"name":"Armature_Origin"},{"children":[7,11],"name":"Armature_Waist","rotation":[0,-0.9939532279968262,0,0.10980463027954102],"scale":[1,0.9999999403953552,1],"translation":[0,13.151200294494629,7.951950550079346]},{"children":[8],"name":"Armature_Hips","rotation":[0,-0.13526280224323273,0,0.9908098578453064],"scale":[0.9999999403953552,0.9999999403953552,0.9999999403953552],"translation":[-0.000011270915820205119,-0.00001621246337890625,-0.000004004860784334596]},{"children":[9],"name":"Armature_Tail1","rotation":[0,0.01502338144928217,0,0.9998871684074402],"translation":[0.026031235232949257,9.875601768493652,0.5064351558685303]},{"children":[10],"name":"Armature_Tail2","rotation":[0,-9.313225746154785e-10,0,1],"scale":[1,0.9999999403953552,1],"translation":[0.000017106063751270995,8.557100296020508,-0.000016885960576473735]},{"name":"Armature_EndTail2","rotation":[0,-9.313225746154785e-10,0,1],"scale":[1,0.9999999403953552,1],"translation":[0.00005918143142480403,27.094398498535156,-0.00005154556856723502]},{"children":[12],"name":"Armature_Spine1","rotation":[0,4.6938657760620117e-7,0,1],"scale":[1,0.9999999403953552,1],"translation":[-0.000003046130359507515,0.00003337860107421875,0.000003823504357569618]},{"children":[13],"name":"Armature_Spine2","rotation":[0,0.24075710773468018,0,0.9705854058265686],"translation":[0.5744063854217529,-11.76442813873291,-2.567988872528076]},{"children":[14],"name":"Armature_Head","rotation":[0,0.24197421967983246,0,0.9702826738357544],"scale":[0.9999998807907104,0.9999999403953552,0.9999998807907104],"translation":[6.013148784637451,-10.858407974243164,-7.047765731811523]},{"name":"Armature_EndHead","scale":[1,0.9999999403953552,1],"translation":[50.04317855834961,-21.21515464782715,-19.735774993896484]},{"name":"Armature_pm0011_00_Skin"}],"samplers":[{}],"scene":0,"scenes":[{"name":"Scene","nodes":[0,2,1]}],"skins":[{"inverseBindMatrices":0,"joints":[4,5,6,7,8,9,10,11,12,13,14,15],"skeleton":0}],"textures":[{"sampler":0,"source":0},{"sampler":0,"source":1}],"extensionsUsed":["ALI_amc_mesh_compression"],"extensionsRequired":["ALI_amc_mesh_compression"]}