{"accessors":[{"bufferView":0,"componentType":5126,"count":42,"max":[0.042535386979579926,-0.9990950226783752,0.042535386979579926,0,1,0.0000028926890536240535,0.27750682830810547,0,0.9990949630737305,0.04253540188074112,0.9990949630737305,0,2.456979751586914,3.1190314292907715,10.774896621704102,1],"min":[-0.011806631460785866,-0.9990953803062439,-0.042535386979579926,0,-1,0.0000028926879167556763,-1,0,-0.27725550532341003,0.042535386979579926,-0.9990949630737305,0,-17.91234016418457,-2.971949577331543,-1.727325201034546,1],"type":"MAT4","byteOffset":0}],"asset":{"generator":"Khronos Blender glTF 2.0 exporter","version":"2.0"},"bufferViews":[{"buffer":0,"byteLength":2688,"byteOffset":0},{"buffer":0,"byteOffset":2688,"byteLength":2071},{"buffer":0,"byteOffset":4759,"byteLength":131487}],"buffers":[{"byteLength":136246,"uri":"buffer.bin"}],"images":[{"name":"pm0013_00_Body1","uri":"pm0013_00_Body1.png"},{"name":"pm0013_00_Eye1","uri":"pm0013_00_Eye1.png"}],"materials":[{"alphaMode":"OPAQUE","name":"Body","pbrMetallicRoughness":{"baseColorFactor":[0.6400000190734865,0.6400000190734865,0.6400000190734865,1],"baseColorTexture":{"index":0},"metallicFactor":0}},{"alphaMode":"OPAQUE","name":"Eye","pbrMetallicRoughness":{"baseColorFactor":[0.6400000190734865,0.6400000190734865,0.6400000190734865,1],"baseColorTexture":{"index":1},"metallicFactor":0}}],"meshes":[{"name":"Weedle","primitives":[{"material":1,"extensions":{"ALI_amc_mesh_compression":{"bufferView":1}}},{"material":0,"extensions":{"ALI_amc_mesh_compression":{"bufferView":2}}}]}],"nodes":[{"children":[1,20],"name":"_01_pm0013_00","scale":[0.02539999969303608,0.02539999969303608,0.02539999969303608]},{"children":[2],"name":"_02_Origin"},{"children":[23,24,42],"name":"_03_Waist","rotation":[0.5105231404304504,0.5105231404304504,0.48924919962882996,0.4892520308494568],"scale":[0.9999999403953552,0.9999999403953552,0.9999999403953552],"translation":[0,-2.456979990005493,-1.7288398742675781]},{"name":"_06_EndLFootE","translation":[2.2555389404296875,0,0]},{"name":"_08_EndRFootE","translation":[2.255539894104004,0,4.768369876728684e-7]},{"name":"_11_EndLFootF","translation":[2.1050989627838135,0,9.536739753457368e-7]},{"name":"_13_EndRFootF","translation":[2.10509991645813,0,0]},{"name":"_16_EndLFootG","translation":[1.8815900087356567,0,0]},{"name":"_18_EndRFootG","translation":[1.8815900087356567,0,0]},{"name":"_21_EndTail4","translation":[2.7112998962402344,0,-9.0949502703358e-13]},{"name":"_24_EndLFootD","translation":[2.4335389137268066,0,1.1920899822825959e-7]},{"name":"_26_EndRFootD","translation":[2.433540105819702,0,2.3841900542720396e-7]},{"name":"_29_EndLFootC","translation":[2.6357998847961426,0,-2.3841900542720396e-7]},{"name":"_31_EndRFootC","translation":[2.635798931121826,0,-3.576280107608909e-7]},{"name":"_34_EndLFootB","translation":[2.8257510662078857,0,4.768369876728684e-7]},{"name":"_36_EndRFootB","translation":[2.825748920440674,0,0]},{"name":"_39_EndHead","translation":[10.611100196838379,0,5.4569699453610454e-12]},{"name":"_41_EndNose","translation":[2.14096999168396,0,0]},{"name":"_43_EndLFootA","translation":[3.045490026473999,0,0]},{"name":"_45_EndRFootA","translation":[3.0454909801483154,0,9.536739753457368e-7]},{"name":"_46_pm0013_00_Skin"},{"name":"Camera","rotation":[0.483536034822464,0.33687159419059753,-0.20870360732078552,0.7804827094078064],"translation":[7.481131553649902,5.34366512298584,6.5076398849487305]},{"name":"Lamp","rotation":[0.16907575726509094,0.7558802962303162,-0.27217137813568115,0.570947527885437],"scale":[1,1,0.9999999403953552],"translation":[4.076245307922363,5.903861999511719,-1.0054539442062378]},{"mesh":0,"name":"Weedle","rotation":[-0.5105231404304504,-0.5105232000350952,-0.48924919962882996,0.4892520010471344],"scale":[0.9999999403953552,0.9999999403953552,1],"skin":0,"translation":[2.456974744796753,1.7272820472717285,-0.0735439881682396]},{"children":[25,27,29],"name":"_03_Waist__04_Hips","rotation":[9.806158232095186e-7,-0.7071068286895752,0.7071068286895752,-9.806158232095186e-7],"scale":[1,0.9999997019767761,1],"translation":[0,-2.384185791015625e-7,-3.8198777474462986e-11]},{"children":[26],"name":"_03_Waist__05_LFootE","rotation":[0,-0.000003218651045244769,0,1],"translation":[1.071650505065918,-0.0000040531158447265625,8.423673989454983e-7]},{"name":"_03_Waist__06_EndLFootE","translation":[-0.000017642805687501095,-2.255539894104004,0.000014217206626199186]},{"children":[28],"name":"_03_Waist__07_RFootE","rotation":[0,0.000003012018623849144,0,1],"translation":[1.0716500282287598,-0.0000040531158447265625,-0.000003449165660640574]},{"name":"_03_Waist__08_EndRFootE","rotation":[0,1.1368683772161603e-13,0,1],"translation":[0.0000019073954717896413,2.255540609359741,-0.000014149876733426936]},{"children":[30,32,34],"name":"_03_Waist__09_Tail1","translation":[2.1385810375213623,-0.000007748603820800781,0.0000018170353541790973]},{"children":[31],"name":"_03_Waist__10_LFootF","rotation":[0,-0.000003218651045244769,0,1],"translation":[1.0046710968017578,-0.0000035762786865234375,0.0000012665602753259009]},{"name":"_03_Waist__11_EndLFootF","translation":[-0.00001740432344377041,-2.105099678039551,0.00001325327502854634]},{"children":[33],"name":"_03_Waist__12_RFootF","rotation":[0,0.000003012018623849144,0,1],"translation":[1.004669189453125,-0.0000035762786865234375,-0.0000042170613596681505]},{"name":"_03_Waist__13_EndRFootF","rotation":[0,1.1368683772161603e-13,0,1],"translation":[0.000001430532734048029,2.105100631713867,-0.000013080623830319382]},{"children":[35,37,39],"name":"_03_Waist__14_Tail2","translation":[2.00614857673645,-0.000007092952728271484,0.0000020651411887229187]},{"children":[36],"name":"_03_Waist__15_LFootG","rotation":[0,-0.000003218651045244769,0,1],"translation":[0.9377021789550781,-0.0000032782581911305897,-0.000002720019892876735]},{"name":"_03_Waist__16_EndLFootG","translation":[-0.000014781699974264484,-1.8815906047821045,0.000011832082236651331]},{"children":[38],"name":"_03_Waist__17_RFootG","rotation":[0,0.000003012018623849144,0,1],"translation":[0.9377069473266602,-0.0000032782581911305897,2.6019961296697147e-7]},{"name":"_03_Waist__18_EndRFootG","rotation":[0,1.1368683772161603e-13,0,1],"translation":[9.536519769426377e-7,1.8815908432006836,-0.00001160767897090409]},{"children":[40],"name":"_03_Waist__19_Tail3","translation":[0.9377050399780273,-0.0000032782581911305897,0.000001094669187295949]},{"children":[41],"name":"_03_Waist__20_Tail4","rotation":[0,-0.1401362121105194,0,0.990132212638855],"translation":[1.6805410385131836,-0.000005900861651753075,3.4564118323032744e-7]},{"name":"_03_Waist__21_EndTail4","rotation":[0,-1.4901161193847656e-8,0,1],"translation":[2.71130108833313,-0.000005543235602090135,8.940696716308594e-7]},{"children":[43,45,47],"name":"_03_Waist__22_Spine1","rotation":[-0.7071068286895752,-9.837608558882494e-7,9.837608558882494e-7,0.7071068286895752],"translation":[0,-2.384185791015625e-7,0]},{"children":[44],"name":"_03_Waist__23_LFootD","rotation":[0,-0.00008371870353585109,0,1],"translation":[1.135029911994934,3.2782554626464844e-7,0.00019115292525384575]},{"name":"_03_Waist__24_EndLFootD","translation":[0.000007064822057145648,-2.4335389137268066,-0.000009173236321657896]},{"children":[46],"name":"_03_Waist__25_RFootD","rotation":[0,-0.0000877265993040055,0,1],"translation":[1.1350202560424805,3.2782554626464844e-7,0.00019580211665015668]},{"name":"_03_Waist__26_EndRFootD","translation":[-0.00002475843211868778,2.433539867401123,0.000009437513654120266]},{"children":[48,50,52],"name":"_03_Waist__27_Spine2","translation":[2.2736499309539795,6.854534149169922e-7,-0.000005611165306618204]},{"children":[49],"name":"_03_Waist__28_LFootC","rotation":[0,0.000001852061586760101,0,1],"translation":[1.2052500247955322,3.5762786865234375e-7,-0.0000028767658477590885]},{"name":"_03_Waist__29_EndLFootC","translation":[0.000008106239874905441,-2.6357998847961426,-0.000009934303307090886]},{"children":[51],"name":"_03_Waist__30_RFootC","rotation":[0,-0.000002103444785461761,0,1],"translation":[1.2052505016326904,3.5762786865234375e-7,0.0000011763490874727722]},{"name":"_03_Waist__31_EndRFootC","rotation":[0,-2.2737367544323206e-13,0,1],"translation":[-0.000027418031095294282,2.635798931121826,0.000010217234375886619]},{"children":[53,55,57],"name":"_03_Waist__32_Spine3","translation":[2.4108498096466064,7.152557373046875e-7,-0.000005516085821000161]},{"children":[54],"name":"_03_Waist__33_LFootB","rotation":[0,0.000001800537688723125,0,1],"translation":[1.2710800170898438,3.8743019104003906e-7,-0.000003775192453758791]},{"name":"_03_Waist__34_EndLFootB","translation":[0.000007629401807207614,-2.825751304626465,-0.000010650232070474885]},{"children":[56],"name":"_03_Waist__35_RFootB","rotation":[0,-0.0000021413288777694106,0,1],"translation":[1.271080493927002,3.8743019104003906e-7,8.739680197322741e-7]},{"name":"_03_Waist__36_EndRFootB","translation":[-0.00002908694659708999,2.825748920440674,0.000010953541277558543]},{"children":[58,62,64],"name":"_03_Waist__37_Spine4","translation":[2.5403900146484375,7.450580596923828e-7,-0.000006472577297245152]},{"children":[59,60],"name":"_03_Waist__38_Head","translation":[2.533329963684082,7.748603820800781e-7,-0.00000633372519587283]},{"name":"_03_Waist__39_EndHead","translation":[10.611100196838379,0.00003096461296081543,0.0000022563217498827726]},{"children":[61],"name":"_03_Waist__40_Nose","rotation":[0,-0.7071047425270081,0,0.7071087956428528],"translation":[3.47367000579834,2.980232238769531e-7,4.0713019371032715]},{"name":"_03_Waist__41_EndNose","rotation":[0,2.034084900515154e-8,0,1],"translation":[2.140970468521118,-3.5762786865234375e-7,0.000013221406334196217]},{"children":[63],"name":"_03_Waist__42_LFootA","rotation":[0,0.000001800537688723125,0,1],"translation":[1.3395605087280273,4.172325134277344e-7,-0.0000037273223369993502]},{"name":"_03_Waist__43_EndLFootA","translation":[0.000008583076123613864,-3.045490026473999,-0.000011478423402877524]},{"children":[65],"name":"_03_Waist__44_RFootA","rotation":[0,-0.0000021413288777694106,0,1],"translation":[1.3395605087280273,4.172325134277344e-7,8.737515599932522e-8]},{"name":"_03_Waist__45_EndRFootA","translation":[-0.000030517452614731155,3.0454909801483154,0.000011805332178482786]}],"samplers":[{}],"scene":0,"scenes":[{"name":"Scene","nodes":[19,18,17,16,15,14,13,12,11,10,9,8,7,6,5,4,3,0,22,21]}],"skins":[{"inverseBindMatrices":0,"joints":[24,25,26,27,28,29,30,31,32,33,34,35,36,37,38,39,40,41,42,43,44,45,46,47,48,49,50,51,52,53,54,55,56,57,58,59,60,61,62,63,64,65],"skeleton":2}],"textures":[{"sampler":0,"source":0},{"sampler":0,"source":1}],"extensionsUsed":["ALI_amc_mesh_compression"],"extensionsRequired":["ALI_amc_mesh_compression"]}