{"accessors":[{"bufferView":0,"componentType":5126,"count":38,"max":[0.000004685610292654019,-1,0.000004885230282525299,0,0.9994112253189087,1.7336151358904317e-7,0.9991356134414673,0,0.9816995859146118,0.000004894060111837462,0.9994112253189087,0,4.732815742492676,46.50712966918945,17.507564544677734,1],"min":[-0.000004733831246994669,-1.0000001192092896,3.4577925589474034e-7,0,0.04157121479511261,1.0912496861692489e-7,-0.9816995859146118,0,-0.9991356134414673,0.000004593655830831267,0.04157114028930664,0,-71.06500244140625,-46.50725555419922,-42.981842041015625,1],"type":"MAT4","byteOffset":0}],"asset":{"generator":"Khronos Blender glTF 2.0 exporter","version":"2.0"},"bufferViews":[{"buffer":0,"byteLength":2432,"byteOffset":0},{"buffer":0,"byteOffset":2432,"byteLength":113809},{"buffer":0,"byteOffset":116241,"byteLength":2987}],"buffers":[{"byteLength":119228,"uri":"buffer.bin"}],"images":[{"name":"pm0086_00_Body1","uri":"pm0086_00_Body1.png"},{"name":"pm0086_00_Eye1","uri":"pm0086_00_Eye1.png"}],"materials":[{"alphaMode":"OPAQUE","name":"Body","pbrMetallicRoughness":{"baseColorFactor":[0.6400000190734865,0.6400000190734865,0.6400000190734865,1],"baseColorTexture":{"index":0},"metallicFactor":0}},{"alphaMode":"OPAQUE","name":"Eye","pbrMetallicRoughness":{"baseColorFactor":[0.6400000190734865,0.6400000190734865,0.6400000190734865,1],"baseColorTexture":{"index":1},"metallicFactor":0}}],"meshes":[{"name":"Seel","primitives":[{"material":0,"extensions":{"ALI_amc_mesh_compression":{"bufferView":1}}},{"material":1,"extensions":{"ALI_amc_mesh_compression":{"bufferView":2}}}]}],"nodes":[{"name":"Camera","rotation":[0.483536034822464,0.33687159419059753,-0.20870360732078552,0.7804827094078064],"translation":[7.481131553649902,5.34366512298584,6.5076398849487305]},{"name":"EndHead","translation":[23.22610092163086,0.00000667572021484375,0.0000019999599771836074]},{"name":"EndLFinger","translation":[9.099716186523438,0.000005722049991163658,0.0000019073499970545527]},{"name":"EndLTail4","translation":[11.524909973144531,-0.000003814699994109105,-0.000009536740435578395]},{"name":"EndNose","translation":[3.308532953262329,0.000003814699994109105,-7.27596021626864e-12]},{"name":"EndRFinger","translation":[9.09976577758789,0.000020980800400138833,0]},{"name":"EndRTail4","translation":[11.524900436401367,0.000022888199964654632,-0.000011444099982327316]},{"name":"EndTail4","translation":[12.482500076293945,0.0000028610199933609692,0]},{"name":"EndTongue2","translation":[4.735176086425781,-0.000007629389983776491,0]},{"name":"EnvironmentAmbientLight","scale":[0.02539999969303608,0.02539999969303608,0.02539999969303608]},{"name":"Lamp","rotation":[0.16907575726509094,0.7558802962303162,-0.27217137813568115,0.570947527885437],"scale":[1,1,0.9999999403953552],"translation":[4.076245307922363,5.903861999511719,-1.0054539442062378]},{"children":[15],"name":"Origin"},{"children":[11,13],"name":"pm0086_00","rotation":[0.7071065902709961,0,0,0.7071069478988647],"scale":[0.02539999969303608,0.02539999969303608,0.02539999969303608]},{"name":"pm0086_00_Skin"},{"mesh":0,"name":"Seel","rotation":[-0.4498799443244934,-0.5455368161201477,-0.4498777389526367,0.5455343127250671],"skin":0,"translation":[-8.935396194458008,17.139949798583984,-0.0000870795120135881]},{"children":[14,16,32],"name":"Waist","rotation":[0.4498799741268158,0.5455368161201477,0.4498777687549591,0.5455342531204224],"translation":[0,5.507810115814209,-18.52790069580078]},{"children":[17],"name":"Waist_Hips","rotation":[-0.5547707080841064,0.4384399354457855,-0.4384399354457855,0.5547707080841064],"translation":[8.204551696777344,26.07533836364746,-0.00009200342901749536]},{"children":[18],"name":"Waist_Tail1","rotation":[0,-0.10658130794763565,0,0.9943040013313293],"scale":[0.9999999403953552,1,0.9999999403953552],"translation":[9.885919570922852,-0.00001239776611328125,-0.0000050067901611328125]},{"children":[19],"name":"Waist_Tail2","rotation":[0,-0.11763854324817657,0,0.9930565357208252],"translation":[9.983953475952148,-0.000011205673217773438,2.384185791015625e-7]},{"children":[20],"name":"Waist_Tail3","rotation":[0,-0.13172616064548492,0,0.9912861585617065],"translation":[6.645895004272461,-0.00000476837158203125,0.000004410743713378906]},{"children":[21,22,27],"name":"Waist_Tail4","rotation":[0,-0.14945678412914276,0,0.9887682795524597],"translation":[6.6856513023376465,-0.0000011920928955078125,-0.000003814697265625]},{"name":"Waist_EndTail4","rotation":[0,-2.9802322387695312e-8,0,1],"translation":[12.482499122619629,0.000005483620043378323,0.000005245208740234375]},{"children":[23],"name":"Waist_LTail1","rotation":[0,-0.006343567743897438,0,0.9999799728393555],"translation":[6.7334794998168945,-2.812987804412842,-0.009298563003540039]},{"children":[24],"name":"Waist_LTail2","rotation":[0,-0.0005699844914488494,0,0.9999999403953552],"scale":[1,0.9999999403953552,1],"translation":[6.715607643127441,-3.3766613006591797,-0.024938106536865234]},{"children":[25],"name":"Waist_LTail3","rotation":[0,-0.0005657376605086029,0,0.9999999403953552],"scale":[0.9999999403953552,1,0.9999999403953552],"translation":[5.259638786315918,-2.7165470123291016,-0.02660512924194336]},{"children":[26],"name":"Waist_LTail4","rotation":[0,-0.001937348279170692,0,0.999998152256012],"translation":[4.908881187438965,-2.600102424621582,-0.0313420295715332]},{"name":"Waist_EndLTail4","rotation":[0,1.4901161193847656e-8,0,1],"translation":[10.001481056213379,-5.725567817687988,-0.10903072357177734]},{"children":[28],"name":"Waist_RTail1","rotation":[0,-0.006343180313706398,0,0.9999799728393555],"scale":[1,0.9999999403953552,1],"translation":[6.73345947265625,2.812992811203003,-0.009335041046142578]},{"children":[29],"name":"Waist_RTail2","rotation":[0,-0.0005699247703887522,0,0.9999998807907104],"translation":[6.715590953826904,3.3766636848449707,-0.024889469146728516]},{"children":[30],"name":"Waist_RTail3","rotation":[0,-0.0005658120498992503,0,0.9999998807907104],"translation":[5.2596893310546875,2.716549873352051,-0.026639461517333984]},{"children":[31],"name":"Waist_RTail4","rotation":[0,-0.001937289023771882,0,0.9999982118606567],"translation":[4.908799171447754,2.6001062393188477,-0.03132963180541992]},{"name":"Waist_EndRTail4","rotation":[0,1.4901161193847656e-8,0,1],"translation":[10.001458168029785,5.725598335266113,-0.10901927947998047]},{"children":[33],"name":"Waist_Spine1","rotation":[-0.5000000596046448,-0.4999999403953552,0.4999999403953552,0.5000000596046448],"translation":[8.20455551147461,26.07533836364746,-0.00009200343629345298]},{"children":[34,40,48],"name":"Waist_Spine2","rotation":[0,0.2710318863391876,0,0.9625703692436218],"translation":[9.097578048706055,0.00004035234451293945,0.000013524139831133652]},{"children":[35],"name":"Waist_LShoulder","rotation":[0,0.3772139847278595,0,0.92612624168396],"translation":[5.2046613693237305,-4.520564079284668,4.461641311645508]},{"children":[36],"name":"Waist_LArm","rotation":[0,0.011180756613612175,0,0.9999375343322754],"translation":[0.03985595703125,-12.394063949584961,0.7021865844726562]},{"children":[37],"name":"Waist_LForeArm","rotation":[0,-2.9802322387695312e-8,0,1],"translation":[0.009289264678955078,-7.876472473144531,0.27031564712524414]},{"children":[38],"name":"Waist_LHand","rotation":[0,7.450580596923828e-9,0,1],"translation":[0.008218765258789062,-6.970636367797852,0.23921966552734375]},{"children":[39],"name":"Waist_LFinger","translation":[0.006661415100097656,-5.651081085205078,0.19394338130950928]},{"name":"Waist_EndLFinger","translation":[0.01072072982788086,-9.094356536865234,0.31210029125213623]},{"children":[41],"name":"Waist_Neck","rotation":[0,0.13622760772705078,0,0.9906776547431946],"scale":[0.9999999403953552,1,0.9999999403953552],"translation":[12.982211112976074,0.00007081031799316406,-0.00000762939453125]},{"children":[42,43,45],"name":"Waist_Head","rotation":[0,0.08157037198543549,0,0.9966676831245422],"scale":[1.0000001192092896,1,1.0000001192092896],"translation":[7.625309944152832,0.000040918588638305664,0.0000019073486328125]},{"name":"Waist_EndHead","translation":[23.22610092163086,0.0001169443130493164,0]},{"children":[44],"name":"Waist_Nose","rotation":[0,-0.3948490023612976,0,0.9187460541725159],"translation":[5.838174819946289,0.000060558319091796875,14.320683479309082]},{"name":"Waist_EndNose","rotation":[0,-2.2351741790771484e-8,0,1],"translation":[3.308537006378174,0.00001630184124223888,0.000003814697265625]},{"children":[46],"name":"Waist_Tongue1","rotation":[0,0.02094758301973343,0,0.9997805953025818],"translation":[1.9708948135375977,0.00004407763481140137,17.07349967956543]},{"children":[47],"name":"Waist_Tongue2","rotation":[0,0.055464547127485275,0,0.9984606504440308],"translation":[-1.924346923828125,-0.000006377696990966797,3.6594667434692383]},{"name":"Waist_EndTongue2","translation":[-3.072481155395508,-0.000011265306966379285,3.6030197143554688]},{"children":[49],"name":"Waist_RShoulder","rotation":[0,0.37721773982048035,0,0.926124632358551],"translation":[5.204622268676758,4.520617961883545,4.461670875549316]},{"children":[50],"name":"Waist_RArm","rotation":[0,0.011180736124515533,0,0.9999375939369202],"scale":[0.9999999403953552,1,0.9999999403953552],"translation":[0.03975534439086914,12.39396858215332,0.7020912170410156]},{"children":[51],"name":"Waist_RForeArm","rotation":[-7.771561172376096e-16,5.21540641784668e-8,1.4901161193847656e-8,1],"translation":[0.009242534637451172,7.876501083374023,0.270186185836792]},{"children":[52],"name":"Waist_RHand","rotation":[7.450580596923828e-8,-1.1102230246251565e-15,-2.9802320611338473e-8,1],"translation":[0.00816916674375534,6.9706130027771,0.23920822143554688]},{"children":[53],"name":"Waist_RFinger","rotation":[-1.4901161193847656e-7,-7.4505797087454084e-9,3.725290298461914e-8,1],"translation":[0.006623107008635998,5.651106834411621,0.19384554028511047]},{"name":"Waist_EndRFinger","rotation":[8.940696716308594e-8,-8.881784197001252e-16,-1.4901161193847656e-8,1],"translation":[0.010657958686351776,9.09441089630127,0.3120439350605011]}],"samplers":[{}],"scene":0,"scenes":[{"name":"Scene","nodes":[5,8,4,1,2,6,3,7,12,9,10,0]}],"skins":[{"inverseBindMatrices":0,"joints":[16,17,18,19,20,21,22,23,24,25,26,27,28,29,30,31,32,33,34,35,36,37,38,39,40,41,42,43,44,45,46,47,48,49,50,51,52,53],"skeleton":15}],"textures":[{"sampler":0,"source":0},{"sampler":0,"source":1}],"extensionsUsed":["ALI_amc_mesh_compression"],"extensionsRequired":["ALI_amc_mesh_compression"]}