{"accessors":[{"bufferView":0,"componentType":5126,"count":67,"max":[1,0,1,0,1,0,1,0,0,-1,0,0,58.94040298461914,26.44915199279785,122.0953598022461,1],"min":[-1,0,-1,0,-1,0,-1,0,0,-1.000000238418579,0,0,-131.2315216064453,-18.497068405151367,-126.23515319824219,1],"type":"MAT4","byteOffset":0}],"asset":{"generator":"Khronos Blender glTF 2.0 exporter","version":"2.0"},"bufferViews":[{"buffer":0,"byteLength":4288,"byteOffset":0},{"buffer":0,"byteOffset":4288,"byteLength":5971},{"buffer":0,"byteOffset":10259,"byteLength":1739},{"buffer":0,"byteOffset":11998,"byteLength":120049},{"buffer":0,"byteOffset":132047,"byteLength":1579}],"buffers":[{"byteLength":133626,"uri":"buffer.bin"}],"images":[{"name":"pm0122_00_Mouth1","uri":"pm0122_00_Mouth1.png"},{"name":"pm0122_00_Body1","uri":"pm0122_00_Body1.png"},{"name":"pm0122_00_Eye1","uri":"pm0122_00_Eye1.png"},{"name":"pm0122_00_Iris1","uri":"pm0122_00_Iris1.png"}],"materials":[{"alphaMode":"OPAQUE","name":"Material__35","pbrMetallicRoughness":{"baseColorFactor":[0.6400000190734865,0.6400000190734865,0.6400000190734865,1],"baseColorTexture":{"index":0},"metallicFactor":0}},{"alphaMode":"OPAQUE","name":"Material__36","pbrMetallicRoughness":{"baseColorFactor":[0.6400000190734865,0.6400000190734865,0.6400000190734865,1],"baseColorTexture":{"index":1},"metallicFactor":0}},{"alphaMode":"OPAQUE","name":"Material__37","pbrMetallicRoughness":{"baseColorFactor":[0.6400000190734865,0.6400000190734865,0.6400000190734865,1],"baseColorTexture":{"index":2},"metallicFactor":0}},{"alphaMode":"MASK","name":"Material__38","pbrMetallicRoughness":{"baseColorFactor":[0.6400000190734865,0.6400000190734865,0.6400000190734865,1],"baseColorTexture":{"index":3},"metallicFactor":0}}],"meshes":[{"name":"MrMime","primitives":[{"material":0,"extensions":{"ALI_amc_mesh_compression":{"bufferView":1}}},{"material":3,"extensions":{"ALI_amc_mesh_compression":{"bufferView":2}}},{"material":1,"extensions":{"ALI_amc_mesh_compression":{"bufferView":3}}},{"material":2,"extensions":{"ALI_amc_mesh_compression":{"bufferView":4}}}]}],"nodes":[{"children":[3,4],"name":"Armature","scale":[0.02539999969303608,0.02539999969303608,0.02539999969303608]},{"name":"Camera","rotation":[0.483536034822464,0.33687159419059753,-0.20870360732078552,0.7804827094078064],"translation":[7.481131553649902,5.34366512298584,6.5076398849487305]},{"name":"Lamp","rotation":[0.16907575726509094,0.7558802962303162,-0.27217137813568115,0.570947527885437],"scale":[1,1,0.9999999403953552],"translation":[4.076245307922363,5.903861999511719,-1.0054539442062378]},{"mesh":0,"name":"MrMime","skin":0},{"children":[5,69,70],"name":"Armature_pm0122_00","rotation":[-0.7071068286895752,0,0,0.7071068286895752]},{"children":[6],"name":"Armature_Origin"},{"children":[7,21],"name":"Armature_Waist","rotation":[0,-0.7071078419685364,0,0.7071056962013245],"scale":[1,0.9999999403953552,1],"translation":[0.000049178797780768946,0,58.94040298461914]},{"children":[8,14,20],"name":"Armature_Hips","rotation":[0,1,0,-7.549795100203482e-8],"translation":[-1.4871659459458897e-10,-4.76837158203125e-7,1.0913936421275139e-11]},{"children":[9],"name":"Armature_LThigh","rotation":[0,-0.0000015815073766134446,0,1],"translation":[6.571857452392578,0,14.655618667602539]},{"children":[10],"name":"Armature_LLeg","translation":[26.055200576782227,-0.0005700588226318359,-0.0000013906683307141066]},{"children":[11,13],"name":"Armature_LFoot","rotation":[0,-0.7069830298423767,0,0.7072305083274841],"translation":[20.988235473632812,0.0005753040313720703,-0.00006799338734708726]},{"children":[12],"name":"Armature_LToe","rotation":[0,-1.900480128824711e-8,0,1],"translation":[0.0008791442378424108,-10.998659133911133,-2.5555033683776855]},{"name":"Armature_EndLToe","translation":[0.000004651083145290613,-15.45050048828125,-0.005314795300364494]},{"name":"Armature_EndLFoot","rotation":[0,-1.900480128824711e-8,0,1],"translation":[0.0000012966338545084,-11.346101760864258,-0.003902801312506199]},{"children":[15],"name":"Armature_RThigh","rotation":[0,-0.0000015815073766134446,0,1],"translation":[6.571949005126953,0,-14.655582427978516]},{"children":[16],"name":"Armature_RLeg","translation":[26.055200576782227,-0.0005700588226318359,-4.3805630411952734e-7]},{"children":[17,18],"name":"Armature_RFoot","rotation":[0,-0.7069830298423767,0,0.7072305083274841],"translation":[20.988182067871094,0.0005753040313720703,-0.00006990147812757641]},{"name":"Armature_EndRFoot","rotation":[0,-1.900480128824711e-8,0,1],"translation":[0.0000013386597856879234,-11.346101760864258,-0.00390281667932868]},{"children":[19],"name":"Armature_RToe","rotation":[0,-1.9019353203475475e-8,0,1],"translation":[0.0008810937288217247,-10.998659133911133,-2.5555038452148438]},{"name":"Armature_EndRToe","translation":[0.000002786051481962204,-15.45050048828125,-0.0053151268512010574]},{"name":"Armature_EndHips","rotation":[0,-3.178649876645068e-8,0,1],"translation":[17.979297637939453,0,7.125199772417545e-7]},{"children":[22],"name":"Armature_Spine1","rotation":[0,-1.1368683772161603e-13,0,1],"translation":[-1.4871659459458897e-10,-4.76837158203125e-7,1.0913936421275139e-11]},{"children":[23,29,49],"name":"Armature_Spine2","translation":[14.753299713134766,0,-3.532586561050266e-7]},{"children":[24,25,27],"name":"Armature_Head","translation":[13.0010986328125,0,-3.1128001864999533e-7]},{"name":"Armature_EndHead","translation":[31.82550048828125,0,-7.620110409334302e-7]},{"children":[26],"name":"Armature_LFeeler","rotation":[0,0.49209532141685486,0,0.8705413341522217],"translation":[17.85565185546875,-2.404010772705078,-12.753897666931152]},{"name":"Armature_EndLFeeler","translation":[38.03830337524414,-0.000015020370483398438,0.0000247955322265625]},{"children":[28],"name":"Armature_RFeeler","rotation":[0,-0.49209582805633545,0,0.8705410361289978],"translation":[17.855194091796875,-2.404013156890869,12.754019737243652]},{"name":"Armature_EndRFeeler","translation":[38.038291931152344,-0.000014781951904296875,-0.0001239776611328125]},{"children":[30],"name":"Armature_LShoulder","rotation":[0,0.7071080803871155,0,0.7071055769920349],"translation":[6.343282222747803,0,-18.462900161743164]},{"children":[31],"name":"Armature_LArm","rotation":[0,-2.3841846541472478e-7,0,1],"translation":[10.060714721679688,5.684341886080802e-14,0.00007463626388926059]},{"children":[32],"name":"Armature_LForeArm","translation":[31.871192932128906,0.0004360675811767578,-0.0000152587890625]},{"children":[33,34,37,40,43,46],"name":"Armature_LHand","translation":[19.950801849365234,-0.0004360675811767578,0.00000762939453125]},{"name":"Armature_EndLHand","translation":[40.42100524902344,0,0]},{"children":[35],"name":"Armature_LFingerA1","rotation":[0,-0.4090668857097626,0,0.9125043749809265],"translation":[7.5600738525390625,-9.150886535644531,-1.03643798828125]},{"children":[36],"name":"Armature_LFingerA2","rotation":[0,0.000013425946235656738,0,1],"translation":[1.290557861328125,-2.921963691711426,-1.9518461227416992]},{"name":"Armature_EndLFingerA2","rotation":[0,0.04552949592471123,0,0.9989629983901978],"scale":[0.9999999403953552,1,0.9999999403953552],"translation":[3.14556884765625,-7.1221771240234375,-4.757875442504883]},{"children":[38],"name":"Armature_LFingerB1","rotation":[0,-0.23682901263237,0,0.9715513586997986],"translation":[13.595932006835938,-5.2143120765686035,0.0000152587890625]},{"children":[39],"name":"Armature_LFingerB2","rotation":[0,0.000010758638381958008,0,1],"translation":[4.512611389160156,-2.6347222328186035,-2.3390274047851562]},{"name":"Armature_EndLFingerB2","translation":[6.484180450439453,-3.7853927612304688,-3.3608131408691406]},{"children":[41],"name":"Armature_LFingerC1","rotation":[0,-0.00023349995899479836,0,1],"translation":[14.583869934082031,-0.31868791580200195,-0.0000762939453125]},{"children":[42],"name":"Armature_LFingerC2","rotation":[0,0.000010500037205929402,0,1],"scale":[0.9999999403953552,1,0.9999999403953552],"translation":[6.731705665588379,-0.0031707286834716797,-0.003171868622303009]},{"name":"Armature_EndLFingerC2","translation":[8.583257675170898,-0.003862351179122925,-0.003865659236907959]},{"children":[44],"name":"Armature_LFingerD1","rotation":[0,0.19411812722682953,0,0.9809781908988953],"translation":[13.945045471191406,4.441196441650391,0.00002288818359375]},{"children":[45],"name":"Armature_LFingerD2","rotation":[0,0.000012531876564025879,0,1],"translation":[4.429143905639648,1.9729442596435547,1.8242835998535156]},{"name":"Armature_EndLFingerD2","translation":[7.5242767333984375,3.3520312309265137,3.0993919372558594]},{"children":[47],"name":"Armature_LFingerE1","rotation":[0,0.4694318473339081,0,0.8829687237739563],"translation":[10.913688659667969,8.089418411254883,0.00008392333984375]},{"children":[48],"name":"Armature_LFingerE2","rotation":[0,0.00001220405101776123,0,1],"translation":[1.2232856750488281,3.2419652938842773,1.8131828308105469]},{"name":"Armature_EndLFingerE2","translation":[2.7033958435058594,7.165553092956543,4.007316589355469]},{"children":[50],"name":"Armature_RShoulder","rotation":[0,-0.7071080803871155,0,0.7071055769920349],"translation":[6.34331750869751,0,18.462900161743164]},{"children":[51],"name":"Armature_RArm","rotation":[0,-2.106000920321094e-7,0,1],"translation":[10.060844421386719,5.684341886080802e-14,-0.000006404501618817449]},{"children":[52],"name":"Armature_RForeArm","translation":[31.871204376220703,0.0004360675811767578,5.475594662129879e-7]},{"children":[53,54,57,60,63,66],"name":"Armature_RHand","translation":[19.950794219970703,-0.0004360675811767578,-0.000010707764886319637]},{"name":"Armature_EndRHand","translation":[40.421302795410156,0,0.0000012566451914608479]},{"children":[55],"name":"Armature_RFingerA1","rotation":[0,-0.45932602882385254,0,0.8882677555084229],"translation":[7.559896945953369,-9.150863647460938,1.0363738536834717]},{"children":[56],"name":"Armature_RFingerA2","rotation":[0,0.000013723967640544288,0,1],"scale":[1.0000001192092896,1,1.0000001192092896],"translation":[1.6122474670410156,-2.921968460083008,-1.6958694458007812]},{"name":"Armature_EndRFingerA2","rotation":[0,-0.04243756830692291,0,0.9990991950035095],"scale":[1,0.9999998807907104,1],"translation":[3.930051803588867,-7.122101783752441,-4.1336212158203125]},{"children":[58],"name":"Armature_RFingerB1","rotation":[0,-0.23683251440525055,0,0.9715505838394165],"translation":[13.59586238861084,-5.21433687210083,-0.000015211640857160091]},{"children":[59],"name":"Armature_RFingerB2","rotation":[0,0.000010251998901367188,0,1],"translation":[4.512626647949219,-2.6346230506896973,-2.3390235900878906]},{"name":"Armature_EndRFingerB2","scale":[0.9999999403953552,1,0.9999999403953552],"translation":[6.484287261962891,-3.7854056358337402,-3.360767364501953]},{"children":[61],"name":"Armature_RFingerC1","rotation":[0,-0.00023746490478515625,0,1],"translation":[14.583769798278809,-0.31868886947631836,6.968621164560318e-7]},{"children":[62],"name":"Armature_RFingerC2","rotation":[0,0.00001049041748046875,0,1],"translation":[6.731198310852051,-0.003169536590576172,-0.0031778179109096527]},{"name":"Armature_EndRFingerC2","translation":[8.583005905151367,-0.0038623809814453125,-0.0038039609789848328]},{"children":[64],"name":"Armature_RFingerD1","rotation":[0,0.19411441683769226,0,0.9809789061546326],"scale":[0.9999999403953552,1,0.9999999403953552],"translation":[13.94504451751709,4.441201686859131,-0.00001004926161840558]},{"children":[65],"name":"Armature_RFingerD2","rotation":[0,0.000012516975402832031,0,1],"scale":[1,1.0000001192092896,1],"translation":[4.429113388061523,1.973036289215088,1.8243064880371094]},{"name":"Armature_EndRFingerD2","scale":[0.9999999403953552,1,0.9999999403953552],"translation":[7.524686813354492,3.3520336151123047,3.0996170043945312]},{"children":[67],"name":"Armature_RFingerE1","rotation":[0,0.46942904591560364,0,0.8829702138900757],"translation":[10.913664817810059,8.089462280273438,0.000011367839761078358]},{"children":[68],"name":"Armature_RFingerE2","rotation":[0,0.000012308360965107568,0,1],"scale":[0.9999999403953552,1.0000001192092896,0.9999999403953552],"translation":[1.2232131958007812,3.2420215606689453,1.813161849975586]},{"name":"Armature_EndRFingerE2","translation":[2.703289031982422,7.165587425231934,4.0073394775390625]},{"name":"Armature_pm0122_00_BodySkin"},{"name":"Armature_pm0122_00_IrisSkin"}],"samplers":[{}],"scene":0,"scenes":[{"name":"Scene","nodes":[0,2,1]}],"skins":[{"inverseBindMatrices":0,"joints":[4,5,6,7,8,9,10,11,12,13,14,15,16,17,18,19,20,21,22,23,24,25,26,27,28,29,30,31,32,33,34,35,36,37,38,39,40,41,42,43,44,45,46,47,48,49,50,51,52,53,54,55,56,57,58,59,60,61,62,63,64,65,66,67,68,69,70],"skeleton":0}],"textures":[{"sampler":0,"source":0},{"sampler":0,"source":1},{"sampler":0,"source":2},{"sampler":0,"source":3}],"extensionsUsed":["ALI_amc_mesh_compression"],"extensionsRequired":["ALI_amc_mesh_compression"]}