{"accessors":[{"bufferView":0,"componentType":5126,"count":28,"max":[0.000003684116109070601,-1,0.0000038031034819141496,0,1,4.95279088852385e-8,0.9497143626213074,0,0.9653129577636719,0.0000038031039366615005,1,0,36.42286682128906,52.501468658447266,6.651579856872559,1],"min":[-0.000003627369778769207,-1.0000001192092896,-0.0000020348863927210914,0,-0.5459702014923096,4.9527901779811145e-8,-0.9653129577636719,0,-0.9497143626213074,0.0000038031034819141496,-0.5459701418876648,0,-81.40573120117188,-52.50205612182617,-58.426124572753906,1],"type":"MAT4","byteOffset":0}],"asset":{"generator":"Khronos Blender glTF 2.0 exporter","version":"2.0"},"bufferViews":[{"buffer":0,"byteLength":1792,"byteOffset":0},{"buffer":0,"byteOffset":1792,"byteLength":118165},{"buffer":0,"byteOffset":119957,"byteLength":2155}],"buffers":[{"byteLength":122112,"uri":"buffer.bin"}],"images":[{"name":"pm0087_00_Body1","uri":"pm0087_00_Body1.png"},{"name":"pm0087_00_Eye1","uri":"pm0087_00_Eye1.png"}],"materials":[{"alphaMode":"OPAQUE","name":"Body","pbrMetallicRoughness":{"baseColorFactor":[0.6400000190734865,0.6400000190734865,0.6400000190734865,1],"baseColorTexture":{"index":0},"metallicFactor":0}},{"alphaMode":"OPAQUE","name":"Eye","pbrMetallicRoughness":{"baseColorFactor":[0.6400000190734865,0.6400000190734865,0.6400000190734865,1],"baseColorTexture":{"index":1},"metallicFactor":0}}],"meshes":[{"name":"Dewgong","primitives":[{"material":0,"extensions":{"ALI_amc_mesh_compression":{"bufferView":1}}},{"material":1,"extensions":{"ALI_amc_mesh_compression":{"bufferView":2}}}]}],"nodes":[{"name":"Camera","rotation":[0.483536034822464,0.33687159419059753,-0.20870360732078552,0.7804827094078064],"translation":[7.481131553649902,5.34366512298584,6.5076398849487305]},{"mesh":0,"name":"Dewgong","rotation":[-0.42979884147644043,-0.561493456363678,-0.42979714274406433,0.5614913105964661],"scale":[1,0.9999999403953552,0.9999998807907104],"skin":0,"translation":[-36.11500930786133,6.651581287384033,-0.000058639685448724777]},{"name":"EndHead","translation":[16.990400314331055,-0.00001525879997643642,-0.0000010000400152421207]},{"name":"EndJaw","translation":[15.083600044250488,0,-9.99986013994203e-7]},{"name":"EndLHand","translation":[14.238490104675293,0.000007629389983776491,-0.000003814699994109105]},{"name":"EndRHand","translation":[14.238499641418457,0.000007629389983776491,0.000003814699994109105]},{"name":"EndTail9","translation":[21.33980941772461,0,9.99992948891304e-7]},{"name":"EnvironmentAmbientLight","scale":[0.02539999969303608,0.02539999969303608,0.02539999969303608]},{"name":"Lamp","rotation":[0.16907575726509094,0.7558802962303162,-0.27217137813568115,0.570947527885437],"scale":[1,1,0.9999999403953552],"translation":[4.076245307922363,5.903861999511719,-1.0054539442062378]},{"children":[12],"name":"Origin"},{"children":[9,11],"name":"pm0087_00","rotation":[0.7071065902709961,0,0,0.7071069478988647],"scale":[0.02539999969303608,0.02539999969303608,0.02539999969303608]},{"name":"pm0087_00_Skin"},{"children":[1,13,24],"name":"Waist","rotation":[0.42979884147644043,0.561493456363678,0.42979714274406433,0.5614913105964661],"scale":[0.9999999403953552,1,1],"translation":[0,33.12559509277344,-15.850299835205078]},{"children":[14],"name":"Waist_Hips","rotation":[-0.48623788356781006,0.5133934020996094,-0.5133934020996094,0.48623788356781006],"scale":[0.9999999403953552,0.9999999403953552,0.9999999403953552],"translation":[-29.463411331176758,42.76659393310547,-0.00017586033209227026]},{"children":[15],"name":"Waist_Tail1","rotation":[0,0.04106492921710014,0,0.9991564750671387],"scale":[0.9999999403953552,1,0.9999999403953552],"translation":[8.878923416137695,-0.00006151198613224551,0.9683712720870972]},{"children":[16],"name":"Waist_Tail2","rotation":[0,0.025493308901786804,0,0.9996749758720398],"translation":[11.04666519165039,-0.0000743865966796875,3.092259168624878]},{"children":[17],"name":"Waist_Tail3","rotation":[0,0.005361954215914011,0,0.9999856352806091],"scale":[0.9999999403953552,1,0.9999999403953552],"translation":[10.932387351989746,-0.00007486343383789062,4.302334785461426]},{"children":[18],"name":"Waist_Tail4","rotation":[0,0.01588534563779831,0,0.9998738169670105],"translation":[10.458934783935547,-0.00007009506225585938,4.377323150634766]},{"children":[19],"name":"Waist_Tail5","rotation":[0,0.02998451516032219,0,0.999550461769104],"scale":[0.9999998807907104,1,0.9999998807907104],"translation":[10.912662506103516,-0.00007390975952148438,5.405536651611328]},{"children":[20],"name":"Waist_Tail6","rotation":[0,0.011726710014045238,0,0.999931275844574],"scale":[0.9999999403953552,1,0.9999999403953552],"translation":[10.43674087524414,-0.00007629397441633046,6.835933208465576]},{"children":[21],"name":"Waist_Tail7","rotation":[0,-0.013178613968193531,0,0.9999131560325623],"translation":[10.510313034057617,-0.0000762939453125,7.611538887023926]},{"children":[22],"name":"Waist_Tail8","rotation":[0,-0.005947053898125887,0,0.9999823570251465],"translation":[11.389135360717773,-0.00008249282836914062,7.3655571937561035]},{"children":[23],"name":"Waist_Tail9","rotation":[0,-0.00031255188514478505,0,0.9999999403953552],"translation":[9.514936447143555,-0.00006818774272687733,5.837280750274658]},{"name":"Waist_EndTail9","translation":[18.20355796813965,-0.00013017654418945312,11.136327743530273]},{"children":[25],"name":"Waist_Spine1","rotation":[-0.5000001192092896,-0.49999988079071045,0.49999988079071045,0.5000001192092896],"translation":[-29.46341323852539,42.7665901184082,-0.00017586043395567685]},{"children":[26],"name":"Waist_Spine2","rotation":[0,0.11778397113084793,0,0.9930392503738403],"translation":[8.75220775604248,0.0000400543212890625,-0.0000043887612264370546]},{"children":[27,31,37],"name":"Waist_Spine3","rotation":[0,0.19989024102687836,0,0.9798184037208557],"translation":[10.39468765258789,0.000051468596211634576,-0.000003814697265625]},{"children":[28],"name":"Waist_LArm","rotation":[0,0.32784074544906616,0,0.9447330832481384],"translation":[6.203533172607422,-13.41456127166748,0.1703338623046875]},{"children":[29],"name":"Waist_LForeArm","rotation":[0,-1.1920928955078125e-7,0,1],"translation":[-9.5367431640625e-7,-12.449298858642578,0.000009059906005859375]},{"children":[30],"name":"Waist_LHand","rotation":[0,8.940696716308594e-8,0,1],"translation":[0.000010013580322265625,-12.399320602416992,0.0000209808349609375]},{"name":"Waist_EndLHand","translation":[0.000010013580322265625,-14.238494873046875,0.000023365020751953125]},{"children":[32],"name":"Waist_Neck1","rotation":[0,0.06269354373216629,0,0.9980328679084778],"translation":[9.419102668762207,0.00004953143070451915,0.0000019073486328125]},{"children":[33],"name":"Waist_Neck2","rotation":[0,0.06619145721197128,0,0.997806966304779],"translation":[6.812434196472168,0.000034332275390625,-0.000003814697265625]},{"children":[34,35],"name":"Waist_Head","rotation":[0,0.0037920596078038216,0,0.999992847442627],"translation":[7.448936462402344,0.00003606081008911133,-0.00000476837158203125]},{"name":"Waist_EndHead","rotation":[0,-4.4703490686970326e-8,0,1],"scale":[0.9999999403953552,1,0.9999999403953552],"translation":[16.990400314331055,0.0000829994969535619,-0.0000152587890625]},{"children":[36],"name":"Waist_Jaw","rotation":[0,-0.08036775141954422,0,0.9967652559280396],"scale":[0.9999999403953552,1,0.9999999403953552],"translation":[4.220582962036133,0.00001847746898420155,-0.9966607093811035]},{"name":"Waist_EndJaw","translation":[1.2705135345458984,0.00002822279930114746,15.029999732971191]},{"children":[38],"name":"Waist_RArm","rotation":[0,0.3278440237045288,0,0.9447319507598877],"translation":[6.203435897827148,13.414634704589844,0.17031478881835938]},{"children":[39],"name":"Waist_RForeArm","rotation":[0,-1.4901161193847656e-8,0,1],"translation":[-0.00007724761962890625,12.449302673339844,-0.00008630752563476562]},{"children":[40],"name":"Waist_RHand","rotation":[0,1.4901161193847656e-8,0,1],"translation":[-0.00008487701416015625,12.399404525756836,-0.00007534027099609375]},{"name":"Waist_EndRHand","rotation":[0,1.4901161193847656e-8,0,1],"translation":[-0.00009059906005859375,14.238502502441406,-0.00008106231689453125]}],"samplers":[{}],"scene":0,"scenes":[{"name":"Scene","nodes":[5,3,2,4,6,10,7,8,0]}],"skins":[{"inverseBindMatrices":0,"joints":[13,14,15,16,17,18,19,20,21,22,23,24,25,26,27,28,29,30,31,32,33,34,35,36,37,38,39,40],"skeleton":12}],"textures":[{"sampler":0,"source":0},{"sampler":0,"source":1}],"extensionsUsed":["ALI_amc_mesh_compression"],"extensionsRequired":["ALI_amc_mesh_compression"]}