{"accessors":[{"bufferView":0,"componentType":5126,"count":4,"max":[0.6453033685684204,1.1081595197026672e-8,0.76392662525177,0,0.9999998807907104,-1.1783165376755278e-7,0.6453032493591309,0,4.255806800301798e-7,-1,2.2610871982793428e-14,0,8.804675102233887,7.516385555267334,0.0000026079676445078803,1],"min":[-4.371139183945161e-8,0,-1.0000001192092896,0,-0.7639263868331909,-5.570965413426165e-7,-4.371138473402425e-8,0,-5.570963139689411e-7,-1.000000238418579,-3.5949608445662307e-7,0,-59.663509368896484,-4.657110214233398,-7.437566757202148,1],"type":"MAT4","byteOffset":0}],"asset":{"generator":"Khronos Blender glTF 2.0 exporter","version":"2.0"},"bufferViews":[{"buffer":0,"byteLength":256,"byteOffset":0},{"buffer":0,"byteOffset":256,"byteLength":3267},{"buffer":0,"byteOffset":3523,"byteLength":115857}],"buffers":[{"byteLength":119380,"uri":"buffer.bin"}],"images":[{"name":"pm0014_00_Body1","uri":"pm0014_00_Body1.png"},{"name":"pm0014_00_Eye1","uri":"pm0014_00_Eye1.png"}],"materials":[{"alphaMode":"OPAQUE","name":"BodySpc00","pbrMetallicRoughness":{"baseColorFactor":[0.6400000190734865,0.6400000190734865,0.6400000190734865,1],"baseColorTexture":{"index":0},"metallicFactor":0}},{"alphaMode":"OPAQUE","name":"Bug","pbrMetallicRoughness":{"baseColorFactor":[0.6400000190734865,0.6400000190734865,0.6400000190734865,1],"baseColorTexture":{"index":1},"metallicFactor":0}}],"meshes":[{"name":"Kakuna","primitives":[{"material":1,"extensions":{"ALI_amc_mesh_compression":{"bufferView":1}}},{"material":0,"extensions":{"ALI_amc_mesh_compression":{"bufferView":2}}}]}],"nodes":[{"children":[1,4],"name":"_01_pm0014_00","rotation":[0.7071068286895752,0,0,0.7071067094802856],"scale":[0.02539999783039093,0.02539999969303608,0.02539999969303608]},{"children":[6,8],"name":"_02_Origin"},{"name":"_04_EndWaist","translation":[29.66349983215332,9.536739753457368e-7,-7.27596021626864e-12]},{"name":"_06_EndTail","translation":[13.067399978637695,0,-2.9103799231711136e-11]},{"name":"_07_pm0014_00_BodySkin"},{"name":"Camera","rotation":[0.483536034822464,0.33687159419059753,-0.20870360732078552,0.7804827094078064],"translation":[7.481131553649902,5.34366512298584,6.5076398849487305]},{"mesh":0,"name":"Kakuna","rotation":[5.960464477539063e-8,0,0,1],"scale":[1.0000001192092896,1,1],"skin":0},{"name":"Lamp","rotation":[0.16907575726509094,0.7558802962303162,-0.27217137813568115,0.570947527885437],"scale":[1,1,0.9999999403953552],"translation":[4.076245307922363,5.903861999511719,-1.0054539442062378]},{"children":[9,10],"name":"_02_Origin__03_Waist","rotation":[-0.5,-0.5000000596046448,0.5000000596046448,0.5],"scale":[1,0.9999999403953552,1],"translation":[-2.12215994594095e-15,29.999998092651367,-4.65710973739624]},{"name":"_02_Origin__04_EndWaist","rotation":[8.700034643443003e-15,0,2.1894354063078936e-7,1],"translation":[29.66350746154785,-9.5367431640625e-7,-0.0000012966257827429217]},{"children":[11],"name":"_02_Origin__05_Tail","rotation":[-2.0561623159665032e-7,0.9391289949417114,7.522124434444777e-8,0.3435647785663605],"scale":[1,0.9999997615814209,1],"translation":[-18.474388122558594,-3.741107940673828,-0.0000674644106766209]},{"name":"_02_Origin__06_EndTail","rotation":[1.4596230357710738e-7,-4.470348002882929e-8,1.6420757731339108e-7,1],"scale":[1.0000001192092896,1,1],"translation":[7.626006126403809,-8.43238353729248,-6.441755294799805]}],"samplers":[{}],"scene":0,"scenes":[{"name":"Scene","nodes":[3,2,0,7,5]}],"skins":[{"inverseBindMatrices":0,"joints":[8,9,10,11],"skeleton":1}],"textures":[{"sampler":0,"source":0},{"sampler":0,"source":1}],"extensionsUsed":["ALI_amc_mesh_compression"],"extensionsRequired":["ALI_amc_mesh_compression"]}