{
    "accessors" : [
        {
            "bufferView" : 0,
            "componentType" : 5123,
            "count" : 276,
            "max" : [
                63
            ],
            "min" : [
                0
            ],
            "type" : "SCALAR"
        },
        {
            "bufferView" : 1,
            "componentType" : 5126,
            "count" : 64,
            "max" : [
                11.244400024414062,
                3.145508050918579,
                -43.94820022583008
            ],
            "min" : [
                -11.244400024414062,
                -3.00862193107605,
                -51.40599822998047
            ],
            "type" : "VEC3"
        },
        {
            "bufferView" : 2,
            "componentType" : 5126,
            "count" : 64,
            "max" : [
                0.772850751876831,
                0.965727686882019,
                0.020416881889104843
            ],
            "min" : [
                -0.772850751876831,
                0.5507370233535767,
                -0.5020599961280823
            ],
            "type" : "VEC3"
        },
        {
            "bufferView" : 3,
            "componentType" : 5126,
            "count" : 64,
            "max" : [
                0.9487535953521729,
                0.8119993209838867,
                0.19458669424057007,
                1.0
            ],
            "min" : [
                -0.9487535953521729,
                0.25889822840690613,
                0.04330809786915779,
                -1.0
            ],
            "type" : "VEC4"
        },
        {
            "bufferView" : 4,
            "componentType" : 5126,
            "count" : 64,
            "max" : [
                0.9833781719207764,
                0.7054770886898041
            ],
            "min" : [
                0.010821159929037094,
                0.12342697381973267
            ],
            "type" : "VEC2"
        },
        {
            "bufferView" : 5,
            "componentType" : 5126,
            "count" : 64,
            "max" : [
                1.0,
                1.0,
                1.0,
                1.0
            ],
            "min" : [
                1.0,
                1.0,
                1.0,
                1.0
            ],
            "type" : "VEC4"
        },
        {
            "bufferView" : 6,
            "componentType" : 5123,
            "count" : 64,
            "max" : [
                0,
                0,
                0,
                0
            ],
            "min" : [
                0,
                0,
                0,
                0
            ],
            "type" : "VEC4"
        },
        {
            "bufferView" : 7,
            "componentType" : 5126,
            "count" : 64,
            "max" : [
                1.0,
                0.0,
                0.0,
                0.0
            ],
            "min" : [
                1.0,
                0.0,
                0.0,
                0.0
            ],
            "type" : "VEC4"
        },
        {
            "bufferView" : 8,
            "componentType" : 5123,
            "count" : 11442,
            "max" : [
                2331
            ],
            "min" : [
                0
            ],
            "type" : "SCALAR"
        },
        {
            "bufferView" : 9,
            "componentType" : 5126,
            "count" : 2332,
            "max" : [
                15.072799682617188,
                3.7313079833984375,
                -0.7207720875740051
            ],
            "min" : [
                -15.072799682617188,
                -26.303199768066406,
                -59.149200439453125
            ],
            "type" : "VEC3"
        },
        {
            "bufferView" : 10,
            "componentType" : 5126,
            "count" : 2332,
            "max" : [
                0.9989013075828552,
                0.99993896484375,
                0.999969482421875
            ],
            "min" : [
                -0.9989013075828552,
                -0.999969482421875,
                -0.999481201171875
            ],
            "type" : "VEC3"
        },
        {
            "bufferView" : 11,
            "componentType" : 5126,
            "count" : 2332,
            "max" : [
                1.0,
                0.9958733916282654,
                0.5537126660346985,
                1.0
            ],
            "min" : [
                -1.0,
                -0.997887909412384,
                -0.9398079514503479,
                -1.0
            ],
            "type" : "VEC4"
        },
        {
            "bufferView" : 12,
            "componentType" : 5126,
            "count" : 2332,
            "max" : [
                0.9907358884811401,
                0.9921875
            ],
            "min" : [
                0.007363349199295044,
                0.007812023162841797
            ],
            "type" : "VEC2"
        },
        {
            "bufferView" : 13,
            "componentType" : 5126,
            "count" : 2332,
            "max" : [
                1.0,
                1.0,
                1.0,
                1.0
            ],
            "min" : [
                1.0,
                1.0,
                1.0,
                1.0
            ],
            "type" : "VEC4"
        },
        {
            "bufferView" : 14,
            "componentType" : 5123,
            "count" : 2332,
            "max" : [
                2,
                2,
                0,
                0
            ],
            "min" : [
                0,
                0,
                0,
                0
            ],
            "type" : "VEC4"
        },
        {
            "bufferView" : 15,
            "componentType" : 5126,
            "count" : 2332,
            "max" : [
                1.0,
                0.9900000095367432,
                0.0,
                0.0
            ],
            "min" : [
                0.009999999776482582,
                0.0,
                0.0,
                0.0
            ],
            "type" : "VEC4"
        },
        {
            "bufferView" : 16,
            "componentType" : 5126,
            "count" : 4,
            "max" : [
                0.6453033685684204,
                1.1081595197026672e-08,
                0.76392662525177,
                0.0,
                0.9999998807907104,
                -1.1783165376755278e-07,
                0.6453032493591309,
                0.0,
                4.255806800301798e-07,
                -1.0,
                2.2610871982793428e-14,
                0.0,
                8.804675102233887,
                7.516385555267334,
                2.6079676445078803e-06,
                1.0
            ],
            "min" : [
                -4.371139183945161e-08,
                0.0,
                -1.0000001192092896,
                0.0,
                -0.7639263868331909,
                -5.570965413426165e-07,
                -4.371138473402425e-08,
                0.0,
                -5.570963139689411e-07,
                -1.000000238418579,
                -3.5949608445662307e-07,
                0.0,
                -59.663509368896484,
                -4.657110214233398,
                -7.437566757202148,
                1.0
            ],
            "type" : "MAT4"
        }
    ],
    "asset" : {
        "generator" : "Khronos Blender glTF 2.0 exporter",
        "version" : "2.0"
    },
    "bufferViews" : [
        {
            "buffer" : 0,
            "byteLength" : 552,
            "byteOffset" : 0,
            "target" : 34963
        },
        {
            "buffer" : 0,
            "byteLength" : 768,
            "byteOffset" : 552,
            "target" : 34962
        },
        {
            "buffer" : 0,
            "byteLength" : 768,
            "byteOffset" : 1320,
            "target" : 34962
        },
        {
            "buffer" : 0,
            "byteLength" : 1024,
            "byteOffset" : 2088,
            "target" : 34962
        },
        {
            "buffer" : 0,
            "byteLength" : 512,
            "byteOffset" : 3112,
            "target" : 34962
        },
        {
            "buffer" : 0,
            "byteLength" : 1024,
            "byteOffset" : 3624,
            "target" : 34962
        },
        {
            "buffer" : 0,
            "byteLength" : 512,
            "byteOffset" : 4648,
            "target" : 34962
        },
        {
            "buffer" : 0,
            "byteLength" : 1024,
            "byteOffset" : 5160,
            "target" : 34962
        },
        {
            "buffer" : 0,
            "byteLength" : 22884,
            "byteOffset" : 6184,
            "target" : 34963
        },
        {
            "buffer" : 0,
            "byteLength" : 27984,
            "byteOffset" : 29068,
            "target" : 34962
        },
        {
            "buffer" : 0,
            "byteLength" : 27984,
            "byteOffset" : 57052,
            "target" : 34962
        },
        {
            "buffer" : 0,
            "byteLength" : 37312,
            "byteOffset" : 85036,
            "target" : 34962
        },
        {
            "buffer" : 0,
            "byteLength" : 18656,
            "byteOffset" : 122348,
            "target" : 34962
        },
        {
            "buffer" : 0,
            "byteLength" : 37312,
            "byteOffset" : 141004,
            "target" : 34962
        },
        {
            "buffer" : 0,
            "byteLength" : 18656,
            "byteOffset" : 178316,
            "target" : 34962
        },
        {
            "buffer" : 0,
            "byteLength" : 37312,
            "byteOffset" : 196972,
            "target" : 34962
        },
        {
            "buffer" : 0,
            "byteLength" : 256,
            "byteOffset" : 234284
        }
    ],
    "buffers" : [
        {
            "byteLength" : 234540,
            "uri" : "origin.bin"
        }
    ],
    "images" : [
        {
            "name" : "pm0014_00_Body1",
            "uri" : "pm0014_00_Body1.png"
        },
        {
            "name" : "pm0014_00_Eye1",
            "uri" : "pm0014_00_Eye1.png"
        }
    ],
    "materials" : [
        {
            "alphaMode" : "BLEND",
            "name" : "BodySpc00",
            "pbrMetallicRoughness" : {
                "baseColorFactor" : [
                    0.6400000190734865,
                    0.6400000190734865,
                    0.6400000190734865,
                    1.0
                ],
                "baseColorTexture" : {
                    "index" : 0
                },
                "metallicFactor" : 0.0
            }
        },
        {
            "alphaMode" : "BLEND",
            "name" : "Bug",
            "pbrMetallicRoughness" : {
                "baseColorFactor" : [
                    0.6400000190734865,
                    0.6400000190734865,
                    0.6400000190734865,
                    1.0
                ],
                "baseColorTexture" : {
                    "index" : 1
                },
                "metallicFactor" : 0.0
            }
        }
    ],
    "meshes" : [
        {
            "name" : "Kakuna",
            "primitives" : [
                {
                    "attributes" : {
                        "COLOR_0" : 5,
                        "JOINTS_0" : 6,
                        "NORMAL" : 2,
                        "POSITION" : 1,
                        "TANGENT" : 3,
                        "TEXCOORD_0" : 4,
                        "WEIGHTS_0" : 7
                    },
                    "indices" : 0,
                    "material" : 1
                },
                {
                    "attributes" : {
                        "COLOR_0" : 13,
                        "JOINTS_0" : 14,
                        "NORMAL" : 10,
                        "POSITION" : 9,
                        "TANGENT" : 11,
                        "TEXCOORD_0" : 12,
                        "WEIGHTS_0" : 15
                    },
                    "indices" : 8,
                    "material" : 0
                }
            ]
        }
    ],
    "nodes" : [
        {
            "children" : [
                1,
                4
            ],
            "name" : "_01_pm0014_00",
            "rotation" : [
                0.7071068286895752,
                0.0,
                -0.0,
                0.7071067094802856
            ],
            "scale" : [
                0.02539999783039093,
                0.02539999969303608,
                0.02539999969303608
            ]
        },
        {
            "children" : [
                6,
                8
            ],
            "name" : "_02_Origin"
        },
        {
            "name" : "_04_EndWaist",
            "translation" : [
                29.66349983215332,
                9.536739753457368e-07,
                -7.27596021626864e-12
            ]
        },
        {
            "name" : "_06_EndTail",
            "translation" : [
                13.067399978637695,
                0.0,
                -2.9103799231711136e-11
            ]
        },
        {
            "name" : "_07_pm0014_00_BodySkin"
        },
        {
            "name" : "Camera",
            "rotation" : [
                0.483536034822464,
                0.33687159419059753,
                -0.20870360732078552,
                0.7804827094078064
            ],
            "translation" : [
                7.481131553649902,
                5.34366512298584,
                6.5076398849487305
            ]
        },
        {
            "mesh" : 0,
            "name" : "Kakuna",
            "rotation" : [
                5.960464477539063e-08,
                0.0,
                -0.0,
                1.0
            ],
            "scale" : [
                1.0000001192092896,
                1.0,
                1.0
            ],
            "skin" : 0
        },
        {
            "name" : "Lamp",
            "rotation" : [
                0.16907575726509094,
                0.7558802962303162,
                -0.27217137813568115,
                0.570947527885437
            ],
            "scale" : [
                1.0,
                1.0,
                0.9999999403953552
            ],
            "translation" : [
                4.076245307922363,
                5.903861999511719,
                -1.0054539442062378
            ]
        },
        {
            "children" : [
                9,
                10
            ],
            "name" : "_02_Origin__03_Waist",
            "rotation" : [
                -0.5,
                -0.5000000596046448,
                0.5000000596046448,
                0.5
            ],
            "scale" : [
                1.0,
                0.9999999403953552,
                1.0
            ],
            "translation" : [
                -2.12215994594095e-15,
                29.999998092651367,
                -4.65710973739624
            ]
        },
        {
            "name" : "_02_Origin__04_EndWaist",
            "rotation" : [
                8.700034643443003e-15,
                0.0,
                2.1894354063078936e-07,
                1.0
            ],
            "translation" : [
                29.66350746154785,
                -9.5367431640625e-07,
                -1.2966257827429217e-06
            ]
        },
        {
            "children" : [
                11
            ],
            "name" : "_02_Origin__05_Tail",
            "rotation" : [
                -2.0561623159665032e-07,
                0.9391289949417114,
                7.522124434444777e-08,
                0.3435647785663605
            ],
            "scale" : [
                1.0,
                0.9999997615814209,
                1.0
            ],
            "translation" : [
                -18.474388122558594,
                -3.741107940673828,
                -6.74644106766209e-05
            ]
        },
        {
            "name" : "_02_Origin__06_EndTail",
            "rotation" : [
                1.4596230357710738e-07,
                -4.470348002882929e-08,
                1.6420757731339108e-07,
                1.0
            ],
            "scale" : [
                1.0000001192092896,
                1.0,
                1.0
            ],
            "translation" : [
                7.626006126403809,
                -8.43238353729248,
                -6.441755294799805
            ]
        }
    ],
    "samplers" : [
        {}
    ],
    "scene" : 0,
    "scenes" : [
        {
            "name" : "Scene",
            "nodes" : [
                3,
                2,
                0,
                7,
                5
            ]
        }
    ],
    "skins" : [
        {
            "inverseBindMatrices" : 16,
            "joints" : [
                8,
                9,
                10,
                11
            ],
            "skeleton" : 1
        }
    ],
    "textures" : [
        {
            "sampler" : 0,
            "source" : 0
        },
        {
            "sampler" : 0,
            "source" : 1
        }
    ]
}
