{"accessors":[{"bufferView":0,"componentType":5126,"count":37,"max":[0.0000024840467176545644,-1,0.0000036793928757106187,0,0.6749613285064697,0.0000036795922824239824,1.0000001192092896,0,1.0000001192092896,4.157215300892858e-7,0.6749613285064697,0,29.174236297607422,110.67375946044922,39.62498474121094,1],"min":[-0.000003653709654827253,-1.000000238418579,-0.0000036199901387590216,0,-1.000000238418579,0.0000028481517801992595,-1.0000001192092896,0,-1.0000001192092896,-4.6775195983173035e-7,-1.000000238418579,0,-95.92321014404297,-110.67423248291016,-78.48197174072266,1],"type":"MAT4","byteOffset":0}],"asset":{"generator":"Khronos Blender glTF 2.0 exporter","version":"2.0"},"bufferViews":[{"buffer":0,"byteLength":2368,"byteOffset":0},{"buffer":0,"byteOffset":2368,"byteLength":5559},{"buffer":0,"byteOffset":7927,"byteLength":2831},{"buffer":0,"byteOffset":10758,"byteLength":135263},{"buffer":0,"byteOffset":146021,"byteLength":2831}],"buffers":[{"byteLength":148852,"uri":"buffer.bin"}],"images":[{"name":"pm0061_00_Body1","uri":"pm0061_00_Body1.png"},{"name":"pm0061_00_Eye1","uri":"pm0061_00_Eye1.png"},{"name":"pm0061_00_Iris1","uri":"pm0061_00_Iris1.png"}],"materials":[{"alphaMode":"OPAQUE","name":"BodyNyorobon","pbrMetallicRoughness":{"baseColorFactor":[0.6400000190734865,0.6400000190734865,0.6400000190734865,1],"baseColorTexture":{"index":0},"metallicFactor":0}},{"alphaMode":"OPAQUE","name":"Eye","pbrMetallicRoughness":{"baseColorFactor":[0.6400000190734865,0.6400000190734865,0.6400000190734865,1],"baseColorTexture":{"index":1},"metallicFactor":0}},{"alphaMode":"MASK","name":"LIris","pbrMetallicRoughness":{"baseColorFactor":[0.6400000190734865,0.6400000190734865,0.6400000190734865,1],"baseColorTexture":{"index":2},"metallicFactor":0}},{"alphaMode":"MASK","name":"RIris","pbrMetallicRoughness":{"baseColorFactor":[0.6400000190734865,0.6400000190734865,0.6400000190734865,1],"baseColorTexture":{"index":2},"metallicFactor":0}}],"meshes":[{"name":"Poliwhirl","primitives":[{"material":1,"extensions":{"ALI_amc_mesh_compression":{"bufferView":1}}},{"material":3,"extensions":{"ALI_amc_mesh_compression":{"bufferView":2}}},{"material":0,"extensions":{"ALI_amc_mesh_compression":{"bufferView":3}}},{"material":2,"extensions":{"ALI_amc_mesh_compression":{"bufferView":4}}}]}],"nodes":[{"children":[1,15,16],"name":"_01_pm0061_00","rotation":[0.7071068286895752,0,0,0.7071067094802856],"scale":[0.02539999783039093,0.02539999969303608,0.02539999969303608]},{"children":[2],"name":"_02_Origin"},{"children":[19,20,32],"name":"_03_Waist","rotation":[-5.024286464438499e-15,0.7071080803871155,0,0.7071055173873901],"scale":[1,0.9999999403953552,1],"translation":[0,0,-24.605600357055664]},{"name":"_05_EndHips","rotation":[1.3457533734523216e-17,0.0043960618786513805,-1.776400461597034e-15,0.9999903440475464],"translation":[13.453800201416016,-1.136870003519419e-13,0]},{"name":"_08_EndLFoot","translation":[25.957300186157227,9.536739753457368e-7,0]},{"name":"_10_EndLToe","translation":[14.1596097946167,4.768369876728684e-7,0]},{"name":"_13_EndRFoot","translation":[25.957300186157227,0.0000019073499970545527,-0.000045776399929309264]},{"name":"_15_EndRToe","translation":[14.1596097946167,4.768369876728684e-7,0.000007629389983776491]},{"name":"_18_EndHead","translation":[16.127399444580078,0,1.3096700113290893e-10]},{"name":"_23_EndLHand","translation":[45.272499084472656,-1.1920899822825959e-7,-0.00020599400158971548]},{"name":"_26_EndLFingerA2","translation":[17.382219314575195,0.00001525879997643642,-2.3841900542720396e-7]},{"name":"_29_EndLFingerB2","translation":[12.112000465393066,-0.0000028610199933609692,0.00001525879997643642]},{"name":"_34_EndRHand","translation":[45.272911071777344,0.000004351139978098217,-0.00019073499424848706]},{"name":"_37_EndRFingerA2","translation":[17.382070541381836,0,-2.3841900542720396e-7]},{"name":"_40_EndRFingerB2","translation":[12.112099647521973,0.00002765660065051634,-0.000022888199964654632]},{"name":"_41_pm0061_00_IrisSkin"},{"name":"_42_pm0061_00_Skin"},{"name":"Camera","rotation":[0.483536034822464,0.33687159419059753,-0.20870360732078552,0.7804827094078064],"translation":[7.481131553649902,5.34366512298584,6.5076398849487305]},{"name":"Lamp","rotation":[0.16907575726509094,0.7558802962303162,-0.27217137813568115,0.570947527885437],"scale":[1,1,0.9999999403953552],"translation":[4.076245307922363,5.903861999511719,-1.0054539442062378]},{"mesh":0,"name":"Poliwhirl","rotation":[0.49999913573265076,-0.5000008940696716,0.5000009536743164,0.4999990463256836],"scale":[1,1,1.0000001192092896],"skin":0,"translation":[-24.605600357055664,0,-0.00008907202573027462]},{"children":[21,22,27],"name":"_03_Waist__04_Hips","rotation":[-0.5,0.5000000596046448,-0.5000000596046448,0.5],"scale":[1,0.9999999403953552,1],"translation":[-24.605600357055664,24.60560417175293,-0.00009200524800689891]},{"name":"_03_Waist__05_EndHips","rotation":[0,1,0,0.00042505667079240084],"translation":[13.453801155090332,-9.5367431640625e-7,0.0000014198878943716409]},{"children":[23],"name":"_03_Waist__06_LThigh","translation":[-0.00014006825222168118,-21.559307098388672,-0.00007736949919490144]},{"children":[24,25],"name":"_03_Waist__07_LFoot","rotation":[0,-0.707119345664978,0,0.7070942521095276],"translation":[14.888203620910645,-0.000087738037109375,-0.000004239464487909572]},{"name":"_03_Waist__08_EndLFoot","rotation":[0,-1.4077158994041383e-8,0,1],"translation":[-24.02225685119629,-9.83426284790039,0.001010238891467452]},{"children":[26],"name":"_03_Waist__09_LToe","rotation":[0,6.166010280139744e-8,0,1],"translation":[-16.07040786743164,-6.578884124755859,-5.162225723266602]},{"name":"_03_Waist__10_EndLToe","translation":[-13.104048728942871,-5.364555358886719,0.000548006733879447]},{"children":[28],"name":"_03_Waist__11_RThigh","translation":[0.00014031199680175632,21.559301376342773,0.00008284780051326379]},{"children":[29,30],"name":"_03_Waist__12_RFoot","rotation":[0,-0.7070968151092529,0,0.7071167230606079],"translation":[14.888296127319336,-0.0001010894775390625,-4.2475082295823086e-7]},{"name":"_03_Waist__13_EndRFoot","rotation":[0,-1.1332303984090686e-9,0,1],"translation":[-24.02219581604004,9.834403991699219,-0.000644223764538765]},{"children":[31],"name":"_03_Waist__14_RToe","rotation":[0,1.1245901987422258e-7,0,1],"translation":[-16.070039749145508,6.578939437866211,-5.163331031799316]},{"name":"_03_Waist__15_EndRToe","translation":[-13.104002952575684,5.364665985107422,-0.00035351281985640526]},{"children":[33,35,46],"name":"_03_Waist__16_Spine","rotation":[-0.5,-0.5000000596046448,0.5000000596046448,0.5],"scale":[1,0.9999999403953552,1],"translation":[-24.605600357055664,24.60560417175293,-0.00009200524800689891]},{"children":[34],"name":"_03_Waist__17_Head","translation":[55.19020080566406,0.00020387770200613886,0.0000041414091356273275]},{"name":"_03_Waist__18_EndHead","translation":[16.127405166625977,5.960464477539063e-8,-3.7823929233127274e-7]},{"children":[36],"name":"_03_Waist__19_LShoulder","rotation":[0,0.005280052311718464,0,0.9999860525131226],"translation":[46.82609558105469,-26.920026779174805,0.5793941020965576]},{"children":[37],"name":"_03_Waist__20_LArm","rotation":[-2.9802322387695312e-8,4.656612873077393e-10,-1.3877786980633844e-17,1],"scale":[1,0.9999999403953552,1],"translation":[0.0010186433792114258,-8.366350173950195,-0.08834755420684814]},{"children":[38],"name":"_03_Waist__21_LForeArm","rotation":[1.4901161193847656e-8,-1.9741153156616065e-15,6.624031811952591e-8,1],"scale":[1,0.9999999403953552,1],"translation":[0.001894921064376831,-15.999109268188477,-0.1689482480287552]},{"children":[39,40,43],"name":"_03_Waist__22_LHand","rotation":[4.470348358154297e-8,-1.9741153156616065e-15,-6.624031811952591e-8,1],"scale":[1,0.9999999403953552,1],"translation":[0.0012242678785696626,-10.889883995056152,-0.11499769240617752]},{"name":"_03_Waist__23_EndLHand","rotation":[-2.9802322387695312e-8,0,-4.35178479493229e-18,1],"scale":[1,0.9999999403953552,1],"translation":[0.005334913730621338,-45.269962310791016,-0.4780445396900177]},{"children":[41],"name":"_03_Waist__24_LFingerA1","rotation":[7.84034924741821e-16,0.6511980891227722,-3.383010416059865e-16,0.7589077949523926],"scale":[0.9999999403953552,0.9999999403953552,0.9999999403953552],"translation":[5.436842918395996,-19.525522232055664,1.2666734457015991]},{"children":[42],"name":"_03_Waist__25_LFingerA2","rotation":[2.112756858352327e-9,0.07089235633611679,-2.972734058914739e-8,0.997484028339386],"scale":[0.9999999403953552,0.9999999403953552,0.9999999403953552],"translation":[-0.167832151055336,-11.590620040893555,1.6402615308761597]},{"name":"_03_Waist__26_EndLFingerA2","rotation":[1.3658406274475593e-20,-6.821210263296962e-12,6.776263578034403e-21,1],"translation":[-0.00005825922198710032,-17.382225036621094,0.0001262236328329891]},{"children":[44],"name":"_03_Waist__27_LFingerB1","rotation":[7.272800247415284e-17,-0.36695754528045654,1.3874241916139013e-15,0.9302377700805664],"scale":[1,0.9999999403953552,1],"translation":[-3.8038792610168457,-8.077730178833008,7.991158962249756]},{"children":[45],"name":"_03_Waist__28_LFingerB2","rotation":[-1.8858536090549815e-16,0.11426838487386703,-7.822799783542285e-16,0.9934499263763428],"scale":[1.0000001192092896,1.0000001192092896,1.0000001192092896],"translation":[2.545436143875122,-7.3728766441345215,7.1688551902771]},{"name":"_03_Waist__29_EndLFingerB2","rotation":[-4.76837158203125e-7,-1.4901168299275014e-8,1.2545520178264269e-14,1],"translation":[0.2068335860967636,-10.196255683898926,6.53406286239624]},{"children":[47],"name":"_03_Waist__30_RShoulder","rotation":[0,0.005283807870000601,0,0.9999860525131226],"translation":[46.825889587402344,26.920381546020508,0.5791919231414795]},{"children":[48],"name":"_03_Waist__31_RArm","translation":[0.001038879156112671,8.36639404296875,-0.08840984106063843]},{"children":[49],"name":"_03_Waist__32_RForeArm","rotation":[2.9802322387695312e-8,0,0,1],"translation":[0.001757502555847168,15.99911880493164,-0.16907000541687012]},{"children":[50,51,54],"name":"_03_Waist__33_RHand","rotation":[-2.9802322387695312e-8,-0.000004053581960761221,1.20806156419552e-13,1],"scale":[0.9999999403953552,1,0.9999999403953552],"translation":[0.0011197030544281006,10.889909744262695,-0.1150815561413765]},{"name":"_03_Waist__34_EndRHand","rotation":[0,4.656612873077393e-10,0,1],"translation":[0.004999309778213501,45.2703971862793,-0.4783875346183777]},{"children":[52],"name":"_03_Waist__35_RFingerA1","rotation":[0,0.6512019634246826,0,0.7589044570922852],"scale":[0.9999999403953552,1,0.9999999403953552],"translation":[5.436689853668213,19.525646209716797,1.2665138244628906]},{"children":[53],"name":"_03_Waist__36_RFingerA2","rotation":[1.1890937656744427e-7,0.07089219242334366,8.451009669840914e-9,0.9974840879440308],"scale":[0.9999999403953552,1,0.9999999403953552],"translation":[-0.1677703857421875,11.590728759765625,1.640249252319336]},{"name":"_03_Waist__37_EndRFingerA2","rotation":[-1.1920928955078125e-7,-2.1381649784046886e-9,-1.4901159417490817e-8,1],"translation":[0.0000600617568125017,17.382091522216797,-0.00002158672214136459]},{"children":[55],"name":"_03_Waist__38_RFingerB1","rotation":[0,-0.36695244908332825,0,0.930239737033844],"translation":[-3.8039228916168213,8.077823638916016,7.991097927093506]},{"children":[56],"name":"_03_Waist__39_RFingerB2","rotation":[0,0.11426804214715958,0,0.9934500455856323],"translation":[2.5452880859375,7.372894287109375,7.168861389160156]},{"name":"_03_Waist__40_EndRFingerB2","rotation":[-3.552713467042264e-15,1.4901161193847656e-8,2.384185791015625e-7,1],"translation":[0.20668792724609375,10.196357727050781,6.534118175506592]}],"samplers":[{}],"scene":0,"scenes":[{"name":"Scene","nodes":[14,13,12,11,10,9,8,7,6,5,4,3,0,18,17]}],"skins":[{"inverseBindMatrices":0,"joints":[20,21,22,23,24,25,26,27,28,29,30,31,32,33,34,35,36,37,38,39,40,41,42,43,44,45,46,47,48,49,50,51,52,53,54,55,56],"skeleton":2}],"textures":[{"sampler":0,"source":0},{"sampler":0,"source":1},{"sampler":0,"source":2},{"sampler":0,"source":2}],"extensionsUsed":["ALI_amc_mesh_compression"],"extensionsRequired":["ALI_amc_mesh_compression"]}