{"accessors":[{"bufferView":0,"componentType":5126,"count":65,"max":[0.000003430864808251499,-1,0.000003865335656882962,0,1.0000001192092896,8.679072038830782e-7,1.000000238418579,0,0.8902665972709656,0.000004306954906496685,1.0000001192092896,0,111.82403564453125,126.97927856445312,139.4924774169922,1],"min":[-0.000003865336566377664,-1.0000003576278687,-0.0000037492568480956834,0,-0.9685107469558716,2.264562759535238e-8,-0.8902665972709656,0,-1.000000238418579,0.000003865335656882962,-0.9685107469558716,0,-177.19911193847656,-126.98039245605469,-146.10870361328125,1],"type":"MAT4","byteOffset":0}],"asset":{"generator":"Khronos Blender glTF 2.0 exporter","version":"2.0"},"bufferViews":[{"buffer":0,"byteLength":4160,"byteOffset":0},{"buffer":0,"byteOffset":4160,"byteLength":82147},{"buffer":0,"byteOffset":86307,"byteLength":61035},{"buffer":0,"byteOffset":147342,"byteLength":4259}],"buffers":[{"byteLength":151601,"uri":"buffer.bin"}],"images":[{"name":"pm0112_00_BodyB1","uri":"pm0112_00_BodyB1.png"},{"name":"pm0112_00_BodyA1","uri":"pm0112_00_BodyA1.png"},{"name":"pm0112_00_Eye1","uri":"pm0112_00_Eye1.png"}],"materials":[{"alphaMode":"OPAQUE","name":"Material__63","pbrMetallicRoughness":{"baseColorFactor":[0.6400000190734865,0.6400000190734865,0.6400000190734865,1],"baseColorTexture":{"index":0},"metallicFactor":0}},{"alphaMode":"OPAQUE","name":"Material__64","pbrMetallicRoughness":{"baseColorFactor":[0.6400000190734865,0.6400000190734865,0.6400000190734865,1],"baseColorTexture":{"index":1},"metallicFactor":0}},{"alphaMode":"OPAQUE","name":"Material__65","pbrMetallicRoughness":{"baseColorFactor":[0.6400000190734865,0.6400000190734865,0.6400000190734865,1],"baseColorTexture":{"index":2},"metallicFactor":0}}],"meshes":[{"name":"RhydonF","primitives":[{"material":1,"extensions":{"ALI_amc_mesh_compression":{"bufferView":1}}},{"material":0,"extensions":{"ALI_amc_mesh_compression":{"bufferView":2}}},{"material":2,"extensions":{"ALI_amc_mesh_compression":{"bufferView":3}}}]}],"nodes":[{"name":"Camera","rotation":[0.483536034822464,0.33687159419059753,-0.20870360732078552,0.7804827094078064],"translation":[7.481131553649902,5.34366512298584,6.5076398849487305]},{"name":"EndHead","translation":[45.27840042114258,-0.000011444099982327316,-0.000002999940079462249]},{"name":"EndHips","translation":[62.95037841796875,0.0000019073499970545527,0.0000010000900374507182]},{"name":"EndJaw","translation":[52.476898193359375,0.00000499991983815562,0]},{"name":"EndLEar","translation":[33.29938888549805,0.00003051759995287284,0]},{"name":"EndLFeeler","translation":[32.020591735839844,0.000003814699994109105,0]},{"name":"EndLFingerA","translation":[18.882360458374023,-0.00001907350088004023,0.000007629389983776491]},{"name":"EndLFingerB","translation":[18.882400512695312,-0.000007629389983776491,0.000007629389983776491]},{"name":"EndLFingerC","translation":[18.882410049438477,-0.0000019073499970545527,0.000007629389983776491]},{"name":"EndLFoot","translation":[37.405521392822266,0.000008583069757150952,0]},{"name":"EndLHand","translation":[21.93021011352539,0,-0.00001525879997643642]},{"name":"EndLToe","translation":[13.724809646606445,9.536739753457368e-7,-0.000003814699994109105]},{"name":"EndLToeA","translation":[14.199390411376953,0.0000023841901111154584,0]},{"name":"EndLToeB","translation":[14.199419975280762,0.0000019073499970545527,0.000011444099982327316]},{"name":"EndREar","translation":[33.29899978637695,0.0003814699884969741,-0.00005340580173651688]},{"name":"EndRFeeler","translation":[32.020599365234375,0.000022888199964654632,0.0002746579993981868]},{"name":"EndRFingerA","translation":[18.8826904296875,-0.00008010859892237931,-0.000045776399929309264]},{"name":"EndRFingerB","translation":[18.882530212402344,-0.00008583070302847773,0.000007629389983776491]},{"name":"EndRFingerC","translation":[18.88180923461914,0.0002117160038324073,-0.00008392330346396193]},{"name":"EndRFoot","translation":[37.40549087524414,0.000004768370217789197,0.000007629389983776491]},{"name":"EndRHand","translation":[21.930099487304688,0.000007629389983776491,0]},{"name":"EndRToe","translation":[13.724800109863281,0.0000019073499970545527,0.000022888199964654632]},{"name":"EndRToeA","translation":[14.199390411376953,0.0000011920900533368695,-0.000011444099982327316]},{"name":"EndRToeB","translation":[14.199399948120117,-4.768369876728684e-7,0.00008010859892237931]},{"name":"EndTail6","translation":[37.02286911010742,-0.000007629389983776491,0.000007000000096013537]},{"name":"EnvironmentAmbientLight","scale":[0.02539999969303608,0.02539999969303608,0.02539999969303608]},{"name":"Lamp","rotation":[0.16907575726509094,0.7558802962303162,-0.27217137813568115,0.570947527885437],"scale":[1,1,0.9999999403953552],"translation":[4.076245307922363,5.903861999511719,-1.0054539442062378]},{"children":[35],"name":"Origin"},{"name":"pm0112_00_AngleSkin","translation":[0,-0.28776800632476807,0.11087200045585632]},{"name":"pm0112_00_BodySkin"},{"children":[27,29,33,34],"name":"pm0112_00_sidon","rotation":[0.7071065902709961,0,0,0.7071069478988647],"scale":[0.02539999969303608,0.02539999969303608,0.02539999969303608]},{"name":"pm0112_01_AngleSkin"},{"mesh":0,"name":"RhydonF","rotation":[-0.10456386208534241,-0.6993342041969299,-0.10456334799528122,0.699331521987915],"scale":[1,0.9999999403953552,1.000000238418579],"skin":0,"translation":[-74.16276550292969,0.5606657266616821,-0.0002742817159742117]},{"children":[28],"name":"VriVis00"},{"children":[31],"name":"VriVis01"},{"children":[32,36,65],"name":"Waist","rotation":[0.104563869535923,0.6993342041969299,0.10456344485282898,0.699331521987915],"scale":[0.9999999403953552,0.9999999403953552,1],"translation":[0,21.156400680541992,-71.08329010009766]},{"children":[37,38,48,58],"name":"Waist_Hips","rotation":[-0.5684406757354736,0.4205654561519623,-0.4205654561519623,0.5684406757354736],"scale":[0.9999999403953552,0.9999999403953552,0.9999999403953552],"translation":[-73.60206604003906,74.7234115600586,-0.00036172562977299094]},{"name":"Waist_EndHips","translation":[52.178863525390625,-0.00038909912109375,-35.21531295776367]},{"children":[39],"name":"Waist_LThigh","rotation":[0,0.12545548379421234,0,0.9920993447303772],"translation":[15.69731330871582,-45.53992462158203,-6.839441299438477]},{"children":[40],"name":"Waist_LLeg","rotation":[0,0.29252082109451294,0,0.9562592506408691],"scale":[0.9999999403953552,1,0.9999999403953552],"translation":[19.843381881713867,-1.4303436279296875,-10.246129989624023]},{"children":[41,42],"name":"Waist_LFoot","rotation":[0,-0.7902666330337524,0,0.6127632260322571],"scale":[0.9999999403953552,0.9999998211860657,0.9999999403953552],"translation":[16.856857299804688,2.0106773376464844,13.931920051574707]},{"name":"Waist_EndLFoot","rotation":[0,2.9802322387695312e-8,0,1],"translation":[-36.03640365600586,-10.027572631835938,0.002605438232421875]},{"children":[43,44,46],"name":"Waist_LToe","rotation":[0,-1.4901162970204496e-8,0,1],"scale":[0.9999999403953552,1,0.9999999403953552],"translation":[-21.642745971679688,-6.022285461425781,-6.547204971313477]},{"name":"Waist_EndLToe","rotation":[0,1.4901161193847656e-8,0,1],"translation":[-13.222455978393555,-3.679309844970703,0.0009555816650390625]},{"children":[45],"name":"Waist_LToeA","rotation":[0,2.9802322387695312e-8,0,1],"translation":[-10.732723236083984,4.6296844482421875,-2.451923370361328]},{"name":"Waist_EndLToeA","translation":[-13.679676055908203,-3.806537628173828,0.000988006591796875]},{"children":[47],"name":"Waist_LToeB","rotation":[0,1.4901161193847656e-8,0,1],"translation":[-5.251823902130127,-10.275775909423828,-2.452167510986328]},{"name":"Waist_EndLToeB","rotation":[0,1.4901161193847656e-8,0,1],"translation":[-13.679689407348633,-3.806537628173828,0.0009899139404296875]},{"children":[49],"name":"Waist_RThigh","rotation":[0,0.12550286948680878,0,0.9920932650566101],"scale":[0.9999999403953552,1,0.9999999403953552],"translation":[15.698041915893555,45.539676666259766,-6.839378356933594]},{"children":[50],"name":"Waist_RLeg","rotation":[0,0.2925221621990204,0,0.9562587738037109],"scale":[1,0.9999999403953552,1],"translation":[19.844390869140625,1.4300918579101562,-10.244218826293945]},{"children":[51,52],"name":"Waist_RFoot","rotation":[0,-0.7902700304985046,0,0.6127588152885437],"scale":[0.9999999403953552,0.9999998807907104,0.9999999403953552],"translation":[16.855426788330078,-2.0109901428222656,13.933466911315918]},{"name":"Waist_EndRFoot","rotation":[0,2.9802322387695312e-8,0,1],"translation":[-36.03624725341797,10.027931213378906,-0.0007114410400390625]},{"children":[53,54,56],"name":"Waist_RToe","rotation":[0,8.940698137394065e-8,0,1],"scale":[0.9999999403953552,1,0.9999999403953552],"translation":[-21.642044067382812,6.022472381591797,-6.549233436584473]},{"name":"Waist_EndRToe","rotation":[0,2.980232594040899e-8,0,1],"scale":[0.9999999403953552,1,0.9999999403953552],"translation":[-13.222389221191406,3.6794586181640625,-0.00026226043701171875]},{"children":[55],"name":"Waist_RToeA","rotation":[0,5.960465188081798e-8,0,1],"scale":[0.9999999403953552,1,0.9999999403953552],"translation":[-10.732568740844727,-4.629665374755859,-2.452822685241699]},{"name":"Waist_EndRToeA","rotation":[0,-1.4901162970204496e-8,0,1],"scale":[0.9999999403953552,1,0.9999999403953552],"translation":[-13.679617881774902,3.8066635131835938,-0.0002765655517578125]},{"children":[57],"name":"Waist_RToeB","rotation":[0,-1.4901162970204496e-8,0,1],"scale":[0.9999999403953552,1,0.9999999403953552],"translation":[-5.251519203186035,10.275733947753906,-2.452756881713867]},{"name":"Waist_EndRToeB","scale":[0.9999999403953552,1,0.9999999403953552],"translation":[-13.679611206054688,3.8067550659179688,-0.0002727508544921875]},{"children":[59],"name":"Waist_Tail1","rotation":[0,0.6022487878799438,0,0.7983084917068481],"scale":[1,0.9999998807907104,1],"translation":[52.18311309814453,-0.00041103363037109375,17.53246307373047]},{"children":[60],"name":"Waist_Tail2","rotation":[0,-1.4901161193847656e-8,0,1],"scale":[1,0.9999999403953552,1],"translation":[-10.561281204223633,-0.00015830992197152227,23.599815368652344]},{"children":[61],"name":"Waist_Tail3","rotation":[0,-1.4901161193847656e-8,0,1],"translation":[-10.799574851989746,-0.0001611709885764867,24.132326126098633]},{"children":[62],"name":"Waist_Tail4","rotation":[0,-1.4901161193847656e-8,0,1],"translation":[-9.735776901245117,-0.0001440048508811742,21.755207061767578]},{"children":[63],"name":"Waist_Tail5","rotation":[0,-1.4901161193847656e-8,0,1],"translation":[-11.598525047302246,-0.0001697540283203125,25.917667388916016]},{"children":[64],"name":"Waist_Tail6","rotation":[0,-1.4901161193847656e-8,0,1],"translation":[-10.673290252685547,-0.00015544897178187966,23.850536346435547]},{"name":"Waist_EndTail6","rotation":[0,-1.4901161193847656e-8,0,1],"translation":[-15.123027801513672,-0.0002212523831985891,33.793304443359375]},{"children":[66],"name":"Waist_Spine1","rotation":[-0.5000001192092896,-0.4999999701976776,0.4999999701976776,0.5000001192092896],"translation":[-73.60206604003906,74.72341918945312,-0.0003617253969423473]},{"children":[67,79,90],"name":"Waist_Spine2","rotation":[0,0.10875897109508514,0,0.9940682649612427],"scale":[0.9999999403953552,1,0.9999999403953552],"translation":[15.018684387207031,0.00006914138793945312,0.000005283340215100907]},{"children":[68,69,71,73,75,77],"name":"Waist_Head","rotation":[0,-0.148992657661438,0,0.9888383150100708],"scale":[0.9999998807907104,1,0.9999998807907104],"translation":[45.07963562011719,0.00018194317817687988,-0.000003814697265625]},{"name":"Waist_EndHead","rotation":[0,-3.725290298461914e-9,0,1],"translation":[45.27840042114258,0.00022643798729404807,-0.00000762939453125]},{"children":[70],"name":"Waist_Jaw","rotation":[0,-0.7398430109024048,0,0.6727795600891113],"scale":[0.9999999403953552,1,0.9999999403953552],"translation":[9.596607208251953,0.00006264442345127463,6.414949417114258]},{"name":"Waist_EndJaw","rotation":[0,3.725290298461914e-8,0,1],"translation":[52.476905822753906,0.00009235739707946777,-0.000072479248046875]},{"children":[72],"name":"Waist_LEar","rotation":[0,-0.1386326253414154,0,0.9903439283370972],"scale":[0.9999999403953552,1,0.9999999403953552],"translation":[35.646629333496094,-17.882909774780273,-0.2466869354248047]},{"name":"Waist_EndLEar","rotation":[0,-1.4901161193847656e-8,0,1],"translation":[19.453500747680664,-20.175159454345703,-17.982585906982422]},{"children":[74],"name":"Waist_LFeeler","rotation":[0,0.5886903405189514,0,0.8083586692810059],"scale":[0.9999999403953552,1,0.9999999403953552],"translation":[11.564474105834961,-33.935455322265625,-4.532044410705566]},{"name":"Waist_EndLFeeler","rotation":[0,-4.470348358154297e-8,0,1],"translation":[26.275360107421875,-14.317756652832031,-11.398507118225098]},{"children":[76],"name":"Waist_REar","rotation":[0,-0.13863706588745117,0,0.9903432726860046],"translation":[35.646602630615234,17.88327980041504,-0.24680805206298828]},{"name":"Waist_EndREar","translation":[19.45269012451172,20.175369262695312,-17.98251724243164]},{"children":[78],"name":"Waist_RFeeler","rotation":[0,0.5886921882629395,0,0.808357298374176],"scale":[0.9999999403953552,1,0.9999999403953552],"translation":[11.563970565795898,33.9355583190918,-4.532196044921875]},{"name":"Waist_EndRFeeler","translation":[26.27555274963379,14.317596435546875,-11.398293495178223]},{"children":[80],"name":"Waist_LShoulder","rotation":[0,-0.10580705851316452,0,0.9943867325782776],"translation":[19.08257293701172,-15.352508544921875,0.8946037292480469]},{"children":[81],"name":"Waist_LArm","rotation":[0,0.14493638277053833,0,0.9894409775733948],"scale":[0.9999999403953552,1,0.9999999403953552],"translation":[5.07938814163208,-20.03643798828125,5.8116559982299805]},{"children":[82],"name":"Waist_LForeArm","rotation":[0,5.960464477539063e-8,0,1],"translation":[0.00003814697265625,-38.7457160949707,0.000179290771484375]},{"children":[83,84,86,88],"name":"Waist_LHand","rotation":[0,-5.960464477539063e-8,0,1],"translation":[0,-21.95208740234375,0.000110626220703125]},{"name":"Waist_EndLHand","translation":[0.000026702880859375,-21.930213928222656,0.00011444091796875]},{"children":[85],"name":"Waist_LFingerA","rotation":[0,-0.36516934633255005,0,0.9309411644935608],"translation":[7.811040878295898,-10.231369018554688,2.8983726501464844]},{"name":"Waist_EndLFingerA","translation":[5.547359466552734,-17.02861785888672,5.982993125915527]},{"children":[87],"name":"Waist_LFingerB","rotation":[0,-0.23840871453285217,0,0.9711650013923645],"translation":[0.20650672912597656,-14.156929016113281,-0.5640029907226562]},{"name":"Waist_EndLFingerB","rotation":[0,0,-4.76837158203125e-7,1],"translation":[4.049077033996582,-16.735862731933594,7.749912261962891]},{"children":[89],"name":"Waist_LFingerC","rotation":[0,-0.02873990312218666,0,0.9995869398117065],"translation":[-7.894819259643555,-9.968673706054688,2.4268054962158203]},{"name":"Waist_EndLFingerC","translation":[0.5024700164794922,-16.73558807373047,8.729991912841797]},{"children":[91],"name":"Waist_RShoulder","rotation":[0,-0.10580339282751083,0,0.9943870902061462],"translation":[19.082653045654297,15.352690696716309,0.8944530487060547]},{"children":[92],"name":"Waist_RArm","rotation":[0,0.14493657648563385,0,0.9894409775733948],"scale":[0.9999999403953552,1,0.9999999403953552],"translation":[5.079042434692383,20.0365047454834,5.811659812927246]},{"children":[93],"name":"Waist_RForeArm","translation":[-0.000274658203125,38.74571228027344,-0.000110626220703125]},{"children":[94,95,97,99],"name":"Waist_RHand","rotation":[0,5.960464477539063e-8,0,1],"translation":[-0.0001697540283203125,21.952102661132812,-0.000072479248046875]},{"name":"Waist_EndRHand","rotation":[0,-1.4901161193847656e-8,0,1],"translation":[-0.0001621246337890625,21.930099487304688,-0.000064849853515625]},{"children":[96],"name":"Waist_RFingerA","rotation":[0,-0.3651711344718933,0,0.9309404492378235],"translation":[7.810911178588867,10.231147766113281,2.898273468017578]},{"name":"Waist_EndRFingerA","rotation":[0,1.4901161193847656e-8,0,1],"translation":[5.5471954345703125,17.029022216796875,5.983077049255371]},{"children":[98],"name":"Waist_RFingerB","rotation":[0,-0.23840877413749695,0,0.971164882183075],"translation":[0.20601654052734375,14.157135009765625,-0.5641326904296875]},{"name":"Waist_EndRFingerB","rotation":[0,7.450580596923828e-9,0,1],"translation":[4.04884147644043,16.73607635498047,7.749866485595703]},{"children":[100],"name":"Waist_RFingerC","rotation":[0,-0.028737537562847137,0,0.9995869994163513],"translation":[-7.894937515258789,9.969032287597656,2.426647186279297]},{"name":"Waist_EndRFingerC","translation":[0.5022296905517578,16.735015869140625,8.729791641235352]}],"samplers":[{}],"scene":0,"scenes":[{"name":"Scene","nodes":[18,17,16,20,8,7,6,10,15,14,5,4,3,1,24,23,22,21,19,13,12,11,9,2,30,25,26,0]}],"skins":[{"inverseBindMatrices":0,"joints":[36,37,38,39,40,41,42,43,44,45,46,47,48,49,50,51,52,53,54,55,56,57,58,59,60,61,62,63,64,65,66,67,68,69,70,71,72,73,74,75,76,77,78,79,80,81,82,83,84,85,86,87,88,89,90,91,92,93,94,95,96,97,98,99,100],"skeleton":35}],"textures":[{"sampler":0,"source":0},{"sampler":0,"source":1},{"sampler":0,"source":2}],"extensionsUsed":["ALI_amc_mesh_compression"],"extensionsRequired":["ALI_amc_mesh_compression"]}