{"accessors":[{"bufferView":0,"componentType":5126,"count":75,"max":[0.000003879290488839615,-1.0000001192092896,0.000003784077307500411,0,0.9998992681503296,0.00000387663567380514,0.9607909917831421,0,1.0000001192092896,-2.1438030728404556e-7,0.99989914894104,0,25.22852325439453,32.63837814331055,47.115455627441406,1],"min":[-0.000003882536020682892,-1.0000003576278687,-0.000003876631126331631,0,-1.000000238418579,0.000003876634764310438,-1.0000001192092896,0,-0.9607908725738525,-2.1438036412746442e-7,-1.0000001192092896,0,-122.00753021240234,-32.638641357421875,-52.621395111083984,1],"type":"MAT4","byteOffset":0}],"asset":{"generator":"Khronos Blender glTF 2.0 exporter","version":"2.0"},"bufferViews":[{"buffer":0,"byteLength":4800,"byteOffset":0},{"buffer":0,"byteOffset":4800,"byteLength":2767},{"buffer":0,"byteOffset":7567,"byteLength":196863}],"buffers":[{"byteLength":204430,"uri":"buffer.bin"}],"images":[{"name":"pm0020_00_Body1","uri":"pm0020_00_Body1.png"},{"name":"pm0020_00_Eye1","uri":"pm0020_00_Eye1.png"}],"materials":[{"alphaMode":"OPAQUE","name":"Body00","pbrMetallicRoughness":{"baseColorFactor":[0.6400000190734865,0.6400000190734865,0.6400000190734865,1],"baseColorTexture":{"index":0},"metallicFactor":0}},{"alphaMode":"OPAQUE","name":"Eye","pbrMetallicRoughness":{"baseColorFactor":[0.6400000190734865,0.6400000190734865,0.6400000190734865,1],"baseColorTexture":{"index":1},"metallicFactor":0}}],"meshes":[{"name":"Raticate_F","primitives":[{"material":1,"extensions":{"ALI_amc_mesh_compression":{"bufferView":1}}},{"material":0,"extensions":{"ALI_amc_mesh_compression":{"bufferView":2}}}]}],"nodes":[{"children":[1,28,30],"name":"_01_pm0020_00_ratta","rotation":[0.7071068286895752,0,0,0.7071067094802856],"scale":[0.02539999783039093,0.02539999969303608,0.02539999969303608]},{"children":[2],"name":"_02_Origin"},{"children":[33,34,68],"name":"_03_Waist","rotation":[0.19883598387241364,0.678576648235321,0.19883506000041962,0.6785740256309509],"scale":[0.9999999403953552,0.9999999403953552,1],"translation":[0,1.4448299407958984,-25.228498458862305]},{"name":"_05_EndHips","translation":[24.604999542236328,2.3841900542720396e-7,0]},{"name":"_08_EndLFoot","translation":[28.54400062561035,0,0.0000019073499970545527]},{"name":"_11_EndLToeA2","translation":[8.463266372680664,-0.000004291529876354616,0.000003814699994109105]},{"name":"_14_EndLToeB2","translation":[7.966588973999023,-0.000008583069757150952,-0.00003433230085647665]},{"name":"_17_EndLToeC2","translation":[7.404038906097412,0.000003814699994109105,0.000004768370217789197]},{"name":"_20_EndRFoot","translation":[28.544099807739258,-4.768369876728684e-7,-0.000003814699994109105]},{"name":"_23_EndRToeA2","translation":[8.463272094726562,-0.000009536740435578395,-0.000022888199964654632]},{"name":"_26_EndRToeB2","translation":[7.966548919677734,-0.00002384189974691253,0.000010490400200069416]},{"name":"_29_EndRToeC2","translation":[7.40403413772583,0.000004768370217789197,-0.00003147129973513074]},{"name":"_37_EndTail7","translation":[12.23960018157959,0.0000019073499970545527,-2.98022992950564e-8]},{"name":"_40_EndHead","translation":[28.723100662231445,0.000005722049991163658,3.6379798479257985e-11]},{"name":"_42_EndJaw","translation":[18.796600341796875,-0.000003814699994109105,-5.820770254683083e-11]},{"name":"_44_EndLEar","translation":[25.51300048828125,0.0000019073499970545527,0.000003814699994109105]},{"children":[17],"name":"_46_LFeeler2","rotation":[1.1165202984386724e-8,-2.036148159800799e-11,-0.0437261238694191,0.9990436434745789],"translation":[9.165169715881348,0.000007629389983776491,0]},{"name":"_47_EndLFeeler2","rotation":[4.440892627896218e-16,0,0,1],"scale":[1,0.9999999403953552,1],"translation":[11.188899040222168,-1.1920928955078125e-7,-0.000003814699994109105]},{"name":"_49_EndNose","translation":[4.943522930145264,0,-2.9103799231711136e-11]},{"name":"_51_EndREar","translation":[25.51300048828125,0.000003814699994109105,-0.000007629389983776491]},{"children":[21],"name":"_53_RFeeler2","rotation":[3.774356827079828e-8,-1.375287661531388e-9,-0.04372614249587059,0.9990436434745789],"translation":[9.165188789367676,-0.00008010859892237931,0.000007629389983776491]},{"name":"_54_EndRFeeler2","rotation":[0,8.881785255792436e-16,0,1],"scale":[0.9999999403953552,0.9999999403953552,1],"translation":[11.188899993896484,0.00006878376007080078,0.00006484989717137069]},{"name":"_60_EndLFingerA2","translation":[4.231663227081299,-0.000003814699994109105,-0.000004768370217789197]},{"name":"_63_EndLFingerB2","translation":[4.147227764129639,-0.000007629389983776491,0.0000028610199933609692]},{"name":"_66_EndLFingerC2","translation":[4.010498046875,-0.0000667572021484375,0.00005340580173651688]},{"name":"_72_EndRFingerA2","translation":[4.231669902801514,-0.0000019073499970545527,-0.0000028610199933609692]},{"name":"_75_EndRFingerB2","translation":[4.147235870361328,-0.00006103519990574569,-0.00006961820326978341]},{"name":"_78_EndRFingerC2","translation":[4.0105061531066895,-0.00005531309943762608,-0.000003814699994109105]},{"children":[29],"name":"_79_VriVis00"},{"name":"_80_pm0020_00_MustacheSkin"},{"name":"_81_pm0020_00_BodySkin"},{"name":"Camera","rotation":[0.483536034822464,0.33687159419059753,-0.20870360732078552,0.7804827094078064],"translation":[7.481131553649902,5.34366512298584,6.5076398849487305]},{"name":"Lamp","rotation":[0.16907575726509094,0.7558802962303162,-0.27217137813568115,0.570947527885437],"scale":[1,1,0.9999999403953552],"translation":[4.076245307922363,5.903861999511719,-1.0054539442062378]},{"mesh":0,"name":"Raticate_F","rotation":[0.3392263352870941,-0.620423436164856,0.33922863006591797,0.6204225420951843],"scale":[1,1.000000238418579,1],"skin":0,"translation":[-22.01858901977539,12.399466514587402,-0.00009749196033226326]},{"children":[35,36,48,60],"name":"_03_Waist__04_Hips","rotation":[-0.3392323851585388,0.6204203367233276,-0.6204203367233276,0.3392323851585388],"scale":[1,0.9999999403953552,1],"translation":[-9.619118690490723,34.41804885864258,-0.00010855538857867941]},{"name":"_03_Waist__05_EndHips","rotation":[0,1.4901161193847656e-8,0,1],"translation":[24.605009078979492,-0.000005006782885175198,-0.00040435791015625]},{"children":[37],"name":"_03_Waist__06_LThigh","rotation":[0,-0.990135908126831,0,0.14011050760746002],"translation":[-2.128187656402588,-15.715774536132812,-3.920365333557129]},{"children":[38,39,42,45],"name":"_03_Waist__07_LFoot","rotation":[0,0.6010502576828003,0,0.7992112636566162],"translation":[-21.877445220947266,2.9998111724853516,-13.841643333435059]},{"name":"_03_Waist__08_EndLFoot","translation":[-26.977825164794922,-9.325093269348145,0.0009613037109375]},{"children":[40],"name":"_03_Waist__09_LToeA1","rotation":[0,-0.035767629742622375,0,0.9993601441383362],"translation":[-14.181967735290527,-4.838576316833496,-1.0476016998291016]},{"children":[41],"name":"_03_Waist__10_LToeA2","rotation":[0,0.11095116287469864,0,0.9938258528709412],"translation":[-5.061020851135254,-1.7264385223388672,0.36270737648010254]},{"name":"_03_Waist__11_EndLToeA2","rotation":[0,1.4901162970204496e-8,0,1],"scale":[0.9999998807907104,0.9999998807907104,0.9999998807907104],"translation":[-7.438762664794922,-2.679971694946289,-3.0181937217712402]},{"children":[43],"name":"_03_Waist__12_LToeB1","rotation":[0,-0.04766489192843437,0,0.9988633990287781],"scale":[0.9999999403953552,1,0.9999999403953552],"translation":[-11.872779846191406,-9.67946720123291,-0.8860282897949219]},{"children":[44],"name":"_03_Waist__13_LToeB2","rotation":[0,0.1489517241716385,0,0.9888445138931274],"scale":[0.9999999403953552,0.9999999403953552,0.9999999403953552],"translation":[-3.2406606674194336,-2.155122756958008,0.3037090301513672]},{"name":"_03_Waist__14_EndLToeB2","scale":[1,0.9999999403953552,1],"translation":[-5.69951057434082,-4.258113861083984,-3.5847721099853516]},{"children":[46],"name":"_03_Waist__15_LToeC1","rotation":[0,0.025840401649475098,0,0.9996660947799683],"translation":[-14.816555976867676,0.9432401657104492,-1.0266551971435547]},{"children":[47],"name":"_03_Waist__16_LToeC2","rotation":[0,0.13723330199718475,0,0.9905387759208679],"translation":[-4.966592788696289,-0.5864152908325195,-0.25746941566467285]},{"name":"_03_Waist__17_EndLToeC2","translation":[-6.054828643798828,-0.8282833099365234,-4.180048942565918]},{"children":[49],"name":"_03_Waist__18_RThigh","rotation":[0,-0.9901480674743652,0,0.14002466201782227],"scale":[0.9999999403953552,1,0.9999999403953552],"translation":[-2.1280102729797363,15.715838432312012,-3.9201974868774414]},{"children":[50,51,54,57],"name":"_03_Waist__19_RFoot","rotation":[0,0.6011477112770081,0,0.799138069152832],"scale":[0.9999999403953552,0.9999999403953552,0.9999999403953552],"translation":[-21.879833221435547,-3.0001697540283203,-13.83780574798584]},{"name":"_03_Waist__20_EndRFoot","translation":[-26.977807998657227,9.325429916381836,-0.001040816307067871]},{"children":[52],"name":"_03_Waist__21_RToeA1","rotation":[0,-0.03576677665114403,0,0.999360203742981],"translation":[-14.181828498840332,4.838752746582031,-1.0486634969711304]},{"children":[53],"name":"_03_Waist__22_RToeA2","rotation":[0,0.11095023155212402,0,0.9938259720802307],"scale":[0.9999999403953552,1,0.9999999403953552],"translation":[-5.061041831970215,1.726511001586914,0.362335205078125]},{"name":"_03_Waist__23_EndRToeA2","rotation":[0,5.960464477539063e-8,0,1],"translation":[-7.43852424621582,2.680021286010742,-3.0187463760375977]},{"children":[55],"name":"_03_Waist__24_RToeB1","rotation":[0,-0.04767861217260361,0,0.9988628029823303],"scale":[0.9999999403953552,1,0.9999999403953552],"translation":[-11.872621536254883,9.679548263549805,-0.8869794607162476]},{"children":[56],"name":"_03_Waist__25_RToeB2","rotation":[0,0.14895059168338776,0,0.988844633102417],"scale":[0.9999999403953552,1,0.9999999403953552],"translation":[-3.2406063079833984,2.15521240234375,0.3035457134246826]},{"name":"_03_Waist__26_EndRToeB2","rotation":[0,-4.470348358154297e-8,0,1],"translation":[-5.699294090270996,4.258115768432617,-3.5850424766540527]},{"children":[58],"name":"_03_Waist__27_RToeC1","rotation":[0,0.025914210826158524,0,0.9996641874313354],"scale":[0.9999999403953552,1,0.9999999403953552],"translation":[-14.816483497619629,-0.9430370330810547,-1.0276826620101929]},{"children":[59],"name":"_03_Waist__28_RToeC2","rotation":[0,0.13722407817840576,0,0.9905401468276978],"scale":[0.9999999403953552,0.9999999403953552,0.9999999403953552],"translation":[-4.9665679931640625,0.5864171981811523,-0.25855767726898193]},{"name":"_03_Waist__29_EndRToeC2","rotation":[0,2.9802322387695312e-8,0,1],"scale":[1,0.9999999403953552,1],"translation":[-6.053985595703125,0.8283061981201172,-4.181262969970703]},{"children":[61],"name":"_03_Waist__30_Tail1","rotation":[0,-0.7071009874343872,0,0.7071126699447632],"translation":[8.822528839111328,-0.0001430511474609375,17.56186294555664]},{"children":[62],"name":"_03_Waist__31_Tail2","rotation":[0,-4.470347647611561e-8,0,1],"scale":[1.0000001192092896,1,1.0000001192092896],"translation":[19.92869758605957,-0.00013232229684945196,0.000060558319091796875]},{"children":[63],"name":"_03_Waist__32_Tail3","rotation":[0,1.4901161193847656e-8,0,1],"translation":[14.375900268554688,-0.00009536746074445546,0.00004285573959350586]},{"children":[64],"name":"_03_Waist__33_Tail4","rotation":[0,1.4901161193847656e-8,0,1],"translation":[14.672405242919922,-0.00009751319885253906,0.0000362396240234375]},{"children":[65],"name":"_03_Waist__34_Tail5","rotation":[0,1.4901161193847656e-8,0,1],"translation":[14.509700775146484,-0.00009632116416469216,0.00003719329833984375]},{"children":[66],"name":"_03_Waist__35_Tail6","rotation":[0,1.4901161193847656e-8,0,1],"translation":[14.672414779663086,-0.00009751325706019998,0.0000400543212890625]},{"children":[67],"name":"_03_Waist__36_Tail7","rotation":[0,1.4901161193847656e-8,0,1],"translation":[15.49162483215332,-0.000102996826171875,0.0000476837158203125]},{"name":"_03_Waist__37_EndTail7","rotation":[0,1.4901161193847656e-8,0,1],"translation":[12.239612579345703,-0.0000476837158203125,-0.0000019073486328125]},{"children":[69,85,97],"name":"_03_Waist__38_Spine","rotation":[-0.5,-0.5000000596046448,0.5000000596046448,0.5],"scale":[1,0.9999999403953552,1],"translation":[-9.619122505187988,34.41804885864258,-0.00010855832078959793]},{"children":[70,71,73,75,78,80,82],"name":"_03_Waist__39_Head","rotation":[0,-0.05117671564221382,0,0.9986896514892578],"translation":[23.295696258544922,0.00012424588203430176,-0.000013013165698794182]},{"name":"_03_Waist__40_EndHead","rotation":[0,3.725290298461914e-9,0,1],"translation":[28.723098754882812,0.0001563429832458496,0.0000054836273193359375]},{"children":[72],"name":"_03_Waist__41_Jaw","rotation":[0,0.8040757775306702,0,0.5945268273353577],"translation":[7.7970075607299805,0.000046372413635253906,5.7714033126831055]},{"name":"_03_Waist__42_EndJaw","rotation":[0,7.450580596923828e-9,0,1],"translation":[-17.384517669677734,-0.000004351109964773059,-7.1477837562561035]},{"children":[74],"name":"_03_Waist__43_LEar","rotation":[0,0.6118947267532349,0,0.790939211845398],"translation":[12.300188064575195,-12.577144622802734,-4.769736289978027]},{"name":"_03_Waist__44_EndLEar","translation":[13.185189247131348,-18.52044677734375,-11.57832145690918]},{"children":[76],"name":"_03_Waist__45_LFeeler1","rotation":[0,0.500251054763794,0,0.8658804297447205],"scale":[0.9999999403953552,1,0.9999999403953552],"translation":[14.627107620239258,-12.000019073486328,10.56530475616455]},{"children":[77],"name":"_03_Waist__46_LFeeler2","rotation":[0,0.043726082891225815,0,0.9990435838699341],"scale":[0.9999999403953552,1,0.9999999403953552],"translation":[1.0302658081054688,-8.524519920349121,-3.2049074172973633]},{"name":"_03_Waist__47_EndLFeeler2","translation":[2.0028648376464844,-10.008783340454102,-4.583045959472656]},{"children":[79],"name":"_03_Waist__48_Nose","rotation":[0,-0.3274380564689636,0,0.9448726773262024],"scale":[0.9999999403953552,1,0.9999999403953552],"translation":[24.81462287902832,0.00014260411262512207,11.043905258178711]},{"name":"_03_Waist__49_EndNose","rotation":[0,-4.470348358154297e-8,0,1],"translation":[4.943523406982422,0.000023156433599069715,0]},{"children":[81],"name":"_03_Waist__50_REar","rotation":[0,0.6118972301483154,0,0.7909374237060547],"scale":[0.9999999403953552,1,0.9999999403953552],"translation":[12.300132751464844,12.57726764678955,-4.769754409790039]},{"name":"_03_Waist__51_EndREar","translation":[13.185251235961914,18.52033233642578,-11.578423500061035]},{"children":[83],"name":"_03_Waist__52_RFeeler1","rotation":[0,0.5002545714378357,0,0.8658784031867981],"translation":[14.626919746398926,12.000187873840332,10.5654296875]},{"children":[84],"name":"_03_Waist__53_RFeeler2","rotation":[0,0.04372609406709671,0,0.9990435838699341],"translation":[1.0302982330322266,8.524479866027832,-3.205059051513672]},{"name":"_03_Waist__54_EndRFeeler2","rotation":[0,2.9802322387695312e-8,0,1],"translation":[2.002897262573242,10.008777618408203,-4.583047389984131]},{"children":[86],"name":"_03_Waist__55_LShoulder","rotation":[0,-0.47349217534065247,0,0.8807981610298157],"translation":[4.688122272491455,-8.673848152160645,5.0006303787231445]},{"children":[87],"name":"_03_Waist__56_LArm","rotation":[0,-0.06185358017683029,0,0.9980853199958801],"scale":[0.9999999403953552,1,0.9999999403953552],"translation":[4.494053840637207,-12.564108848571777,-0.1896533966064453]},{"children":[88,91,94],"name":"_03_Waist__57_LHand","rotation":[0,0.42624732851982117,0,0.9046066999435425],"translation":[5.438804626464844,-1.8343048095703125,0.5369224548339844]},{"children":[89],"name":"_03_Waist__58_LFingerA1","rotation":[0,-0.14838732779026031,0,0.9889293313026428],"translation":[6.010679244995117,-2.6912078857421875,-0.013001441955566406]},{"children":[90],"name":"_03_Waist__59_LFingerA2","rotation":[0,-0.11574754118919373,0,0.9932786822319031],"translation":[3.9368953704833984,-1.6849327087402344,0.09786844253540039]},{"name":"_03_Waist__60_EndLFingerA2","rotation":[0,-4.4703490686970326e-8,0,1],"scale":[0.9999999403953552,0.9999999403953552,0.9999999403953552],"translation":[3.949247360229492,-1.5118732452392578,0.15695762634277344]},{"children":[92],"name":"_03_Waist__61_LFingerB1","rotation":[0,-0.1387467235326767,0,0.9903278946876526],"scale":[0.9999999403953552,1,0.9999999403953552],"translation":[3.8802905082702637,-5.195091247558594,0.37478065490722656]},{"children":[93],"name":"_03_Waist__62_LFingerB2","rotation":[0,-0.165816992521286,0,0.9861566424369812],"translation":[2.504307746887207,-2.256723403930664,0.4840834140777588]},{"name":"_03_Waist__63_EndLFingerB2","translation":[3.49749755859375,-2.1143150329589844,0.7047710418701172]},{"children":[95],"name":"_03_Waist__64_LFingerC1","rotation":[0,-0.21460159122943878,0,0.9767016768455505],"scale":[0.9999999403953552,1,0.9999999403953552],"translation":[6.604544639587402,0.651702880859375,0.1385049819946289]},{"children":[96],"name":"_03_Waist__65_LFingerC2","rotation":[0,-0.06622857600450516,0,0.9978045225143433],"scale":[0.9999999403953552,1,0.9999999403953552],"translation":[3.7235488891601562,-0.3395423889160156,-0.01762676239013672]},{"name":"_03_Waist__66_EndLFingerC2","rotation":[0,4.470348358154297e-8,0,1],"translation":[3.9888134002685547,-0.4160289764404297,-0.019075393676757812]},{"children":[98],"name":"_03_Waist__67_RShoulder","rotation":[0,-0.4734945297241211,0,0.8807967901229858],"translation":[4.688011646270752,8.673911094665527,5.0006208419799805]},{"children":[99],"name":"_03_Waist__68_RArm","rotation":[0,-0.06185057386755943,0,0.9980854392051697],"translation":[4.493925094604492,12.564152717590332,-0.18963623046875]},{"children":[100,103,106],"name":"_03_Waist__69_RHand","rotation":[0,0.42624732851982117,0,0.9046066999435425],"translation":[5.438833236694336,1.834310531616211,0.5369901657104492]},{"children":[101],"name":"_03_Waist__70_RFingerA1","rotation":[0,-0.14838775992393494,0,0.988929271697998],"translation":[6.010695457458496,2.691234588623047,-0.013059616088867188]},{"children":[102],"name":"_03_Waist__71_RFingerA2","rotation":[0,-0.11574728786945343,0,0.9932786822319031],"translation":[3.93682861328125,1.6850223541259766,0.09794807434082031]},{"name":"_03_Waist__72_EndRFingerA2","translation":[3.949237823486328,1.5119209289550781,0.15697097778320312]},{"children":[104],"name":"_03_Waist__73_RFingerB1","rotation":[0,-0.13874629139900208,0,0.9903280735015869],"translation":[3.8802599906921387,5.195127487182617,0.37479591369628906]},{"children":[105],"name":"_03_Waist__74_RFingerB2","rotation":[0,-0.16581708192825317,0,0.9861565232276917],"scale":[1,0.9999999403953552,1],"translation":[2.504305839538574,2.2567100524902344,0.4840831756591797]},{"name":"_03_Waist__75_EndRFingerB2","translation":[3.497438430786133,2.1144180297851562,0.7047863006591797]},{"children":[107],"name":"_03_Waist__76_RFingerC1","rotation":[0,-0.21460232138633728,0,0.976701557636261],"translation":[6.604568004608154,-0.6516628265380859,0.13849544525146484]},{"children":[108],"name":"_03_Waist__77_RFingerC2","rotation":[0,-0.06622818112373352,0,0.9978045225143433],"scale":[1,0.9999999403953552,1],"translation":[3.7235107421875,0.33960533142089844,-0.017683029174804688]},{"name":"_03_Waist__78_EndRFingerC2","translation":[3.9888267517089844,0.4160194396972656,-0.019063949584960938]}],"samplers":[{}],"scene":0,"scenes":[{"name":"Scene","nodes":[27,26,25,24,23,22,20,19,18,16,15,14,13,12,11,10,9,8,7,6,5,4,3,0,32,31]}],"skins":[{"inverseBindMatrices":0,"joints":[34,35,36,37,38,39,40,41,42,43,44,45,46,47,48,49,50,51,52,53,54,55,56,57,58,59,60,61,62,63,64,65,66,67,68,69,70,71,72,73,74,75,76,77,78,79,80,81,82,83,84,85,86,87,88,89,90,91,92,93,94,95,96,97,98,99,100,101,102,103,104,105,106,107,108],"skeleton":2}],"textures":[{"sampler":0,"source":0},{"sampler":0,"source":1}],"extensionsUsed":["ALI_amc_mesh_compression"],"extensionsRequired":["ALI_amc_mesh_compression"]}