{"accessors":[{"bufferView":0,"componentType":5126,"count":45,"max":[1.0000001192092896,0,0.9982079863548279,0,0.6973462104797363,0,1.0000001192092896,0,0,-1,0,0,35.920772552490234,68.80610656738281,49.39842987060547,1],"min":[-1,0,-0.6973462104797363,0,-0.9982079863548279,0,-1,0,0,-1.0000001192092896,0,0,-66.69053649902344,-188.63043212890625,-77.8841781616211,1],"type":"MAT4","byteOffset":0}],"asset":{"generator":"Khronos Blender glTF 2.0 exporter","version":"2.0"},"bufferViews":[{"buffer":0,"byteLength":2880,"byteOffset":0},{"buffer":0,"byteOffset":2880,"byteLength":104701},{"buffer":0,"byteOffset":107581,"byteLength":2487}],"buffers":[{"byteLength":110068,"uri":"buffer.bin"}],"images":[{"name":"pm0079_00_Body1","uri":"pm0079_00_Body1.png"},{"name":"pm0079_00_Eye1","uri":"pm0079_00_Eye1.png"}],"materials":[{"alphaMode":"OPAQUE","name":"Material__35","pbrMetallicRoughness":{"baseColorFactor":[0.6400000190734865,0.6400000190734865,0.6400000190734865,1],"baseColorTexture":{"index":0},"metallicFactor":0}},{"alphaMode":"OPAQUE","name":"Material__36","pbrMetallicRoughness":{"baseColorFactor":[0.6400000190734865,0.6400000190734865,0.6400000190734865,1],"baseColorTexture":{"index":1},"metallicFactor":0}}],"meshes":[{"name":"Slowpoke","primitives":[{"material":0,"extensions":{"ALI_amc_mesh_compression":{"bufferView":1}}},{"material":1,"extensions":{"ALI_amc_mesh_compression":{"bufferView":2}}}]}],"nodes":[{"children":[3,4],"name":"Armature","scale":[0.02539999969303608,0.02539999969303608,0.02539999969303608]},{"name":"Camera","rotation":[0.483536034822464,0.33687159419059753,-0.20870360732078552,0.7804827094078064],"translation":[7.481131553649902,5.34366512298584,6.5076398849487305]},{"name":"Lamp","rotation":[0.16907575726509094,0.7558802962303162,-0.27217137813568115,0.570947527885437],"scale":[1,1,0.9999999403953552],"translation":[4.076245307922363,5.903861999511719,-1.0054539442062378]},{"mesh":0,"name":"Slowpoke","skin":0},{"children":[5,48],"name":"Armature_pm0079_00","rotation":[-0.7071068286895752,0,0,0.7071068286895752]},{"children":[6],"name":"Armature_Origin"},{"children":[7,27],"name":"Armature_Waist","rotation":[0,1,0,-7.549790126404332e-8],"translation":[0,12.750198364257812,42.85340118408203]},{"children":[8],"name":"Armature_Spine1","rotation":[0,-1.5099580252808664e-7,0,1],"translation":[0.000012000000424450263,0.00000286102294921875,-0.0000038146954466355965]},{"children":[9,17,22],"name":"Armature_Spine2","rotation":[0,0.037026796489953995,0,0.9993143677711487],"scale":[0.9999999403953552,1,0.9999999403953552],"translation":[-0.00004900409476249479,-22.40801429748535,-0.00001907348087115679]},{"children":[10,12,14,15],"name":"Armature_Head","rotation":[0,0.06856755912303925,0,0.9976465106010437],"scale":[0.9999999403953552,1,0.9999999403953552],"translation":[0.13763964176177979,-25.040538787841797,-1.8530815839767456]},{"children":[11],"name":"Armature_LEar","rotation":[0,0.8816255927085876,0,0.4719494581222534],"translation":[-17.980457305908203,-9.664600372314453,-8.932010650634766]},{"name":"Armature_EndLEar","translation":[18.107561111450195,-2.088603973388672,-2.4957962036132812]},{"children":[13],"name":"Armature_REar","rotation":[0,0.16372071206569672,0,0.9865067601203918],"scale":[0.9999998807907104,1,0.9999998807907104],"translation":[20.06216049194336,-9.664413452148438,-0.7711410522460938]},{"name":"Armature_EndREar","rotation":[0,4.470348358154297e-8,0,1],"translation":[18.19715118408203,-2.0884552001953125,-1.7244453430175781]},{"name":"Armature_EndHead","rotation":[0,-7.450580596923828e-9,0,1],"translation":[1.2188957929611206,-27.08706283569336,-5.681384563446045]},{"children":[16],"name":"Armature_Jaw","rotation":[0,-0.4856005609035492,0,0.8741809129714966],"scale":[0.9999999403953552,1,0.9999999403953552],"translation":[-2.6987926959991455,-8.505634307861328,12.580940246582031]},{"name":"Armature_EndJaw","rotation":[0,4.4703490686970326e-8,0,1],"scale":[0.9999999403953552,1,0.9999999403953552],"translation":[19.067298889160156,-25.60211944580078,18.415359497070312]},{"children":[18],"name":"Armature_LShoulder","rotation":[0,-0.9973633289337158,0,0.07257021963596344],"scale":[0.9999999403953552,1,0.9999999403953552],"translation":[-14.103142738342285,-11.887059211730957,6.365408897399902]},{"children":[19],"name":"Armature_LArm","rotation":[0,0.3518387973308563,0,0.9360607266426086],"translation":[9.29720687866211,-4.596158981323242,-4.190250873565674]},{"children":[20],"name":"Armature_LForeArm","rotation":[0,-4.023313522338867e-7,0,1],"translation":[17.224143981933594,-5.110565185546875,-4.914444446563721]},{"children":[21],"name":"Armature_LHand","rotation":[0,-0.45217564702033997,0,0.891929030418396],"translation":[9.977476119995117,-2.9603500366210938,-2.8468008041381836]},{"name":"Armature_EndLHand","rotation":[0,-2.278113697684603e-9,0,1],"translation":[1.220313310623169,-9.724349975585938,-0.000023823286028346047]},{"children":[23],"name":"Armature_RShoulder","rotation":[0,-0.5397438406944275,0,0.8418292999267578],"translation":[13.009356498718262,-11.8868989944458,8.377323150634766]},{"children":[24],"name":"Armature_RArm","rotation":[0,-0.21241332590579987,0,0.9771799445152283],"translation":[9.297342300415039,-4.596044540405273,-4.19003963470459]},{"children":[25],"name":"Armature_RForeArm","rotation":[0,-1.862645149230957e-8,0,1],"translation":[17.22410011291504,-5.110483169555664,-4.914366722106934]},{"children":[26],"name":"Armature_RHand","rotation":[0,-0.7336335182189941,0,0.6795453429222107],"scale":[1,0.9999999403953552,1],"translation":[9.97746753692627,-2.9603233337402344,-2.8467695713043213]},{"name":"Armature_EndRHand","rotation":[0,1.6555190995859448e-8,0,1],"translation":[-1.2204711437225342,-9.724384307861328,-0.000032078547519631684]},{"children":[28,33,42,43],"name":"Armature_Hips","rotation":[0,-0.0000011046702184103196,0,1],"translation":[0.000019498880647006445,-0.0000133514404296875,0.000026702884497353807]},{"children":[29],"name":"Armature_RHips","rotation":[0,-0.16114018857479095,0,0.9869316220283508],"translation":[13.163575172424316,15.967283248901367,4.981246471405029]},{"children":[30],"name":"Armature_RThigh","rotation":[0,-0.5028535723686218,0,0.8643715977668762],"scale":[0.9999999403953552,1,0.9999999403953552],"translation":[15.066974639892578,0.8326263427734375,0.8312473297119141]},{"children":[31],"name":"Armature_RLeg","rotation":[0,0.09706331789493561,0,0.9952782392501831],"translation":[19.601219177246094,0.5762367248535156,0.5759479999542236]},{"children":[32],"name":"Armature_RFoot","rotation":[0,-0.8282359838485718,0,0.5603795051574707],"scale":[1,0.9999999403953552,1],"translation":[10.879801750183105,2.5398998260498047,2.4764678478240967]},{"name":"Armature_EndRFoot","rotation":[0,2.9569495296755122e-8,0,1],"scale":[0.9999999403953552,0.9999999403953552,0.9999999403953552],"translation":[-3.703623056411743,-9.890073776245117,-0.00009270012378692627]},{"children":[34],"name":"Armature_Tail1","rotation":[0,0.9970458149909973,0,0.07680925726890564],"translation":[-0.000214450599742122,31.85829734802246,2.1589012145996094]},{"children":[35],"name":"Armature_Tail2","rotation":[0,-0.0657905787229538,0,0.9978334903717041],"translation":[0.30698758363723755,12.927108764648438,1.980012059211731]},{"children":[36],"name":"Armature_Tail3","rotation":[0,-1.4901161193847656e-8,0,1],"translation":[1.6422024965286255,19.871719360351562,5.595497131347656]},{"children":[37],"name":"Armature_Tail4","rotation":[0,1.4901162970204496e-8,0,1],"scale":[0.9999999403953552,1,0.9999999403953552],"translation":[1.5295188426971436,18.508216857910156,5.211544513702393]},{"children":[38],"name":"Armature_Tail5","rotation":[0,-5.960465045973251e-7,0,1],"scale":[0.9999998807907104,1,0.9999998807907104],"translation":[1.5215442180633545,18.411651611328125,5.1843695640563965]},{"children":[39],"name":"Armature_Tail6","rotation":[0,-4.917383762403915e-7,0,1],"scale":[0.9999999403953552,1,0.9999999403953552],"translation":[1.542191743850708,18.660995483398438,5.254701137542725]},{"children":[40],"name":"Armature_Tail7","rotation":[0,0.0000011175869758517365,0,1],"scale":[1.0000001192092896,1,1.0000001192092896],"translation":[1.5590205192565918,18.865447998046875,5.312016487121582]},{"children":[41],"name":"Armature_Tail8","rotation":[0,-2.9802322387695312e-8,0,1],"translation":[1.5108611583709717,18.28204345703125,5.147974014282227]},{"name":"Armature_EndTail8","rotation":[0,1.4901162970204496e-8,0,1],"scale":[0.9999999403953552,1,0.9999999403953552],"translation":[1.5284150838851929,18.494796752929688,5.207777500152588]},{"name":"Armature_EndHips","translation":[-0.00022520628408528864,37.534400939941406,0.00006485027552116662]},{"children":[44],"name":"Armature_LHips","rotation":[0,-0.976557195186615,0,0.2152581363916397],"translation":[-13.163820266723633,15.967191696166992,4.981205463409424]},{"children":[45],"name":"Armature_LThigh","rotation":[0,0.48044589161872864,0,0.8770243525505066],"translation":[15.067124366760254,0.8322257995605469,0.8311090469360352]},{"children":[46],"name":"Armature_LLeg","rotation":[0,0.09706410020589828,0,0.9952781796455383],"scale":[0.9999999403953552,1,0.9999999403953552],"translation":[19.601213455200195,0.576324462890625,0.5759847164154053]},{"children":[47],"name":"Armature_LFoot","rotation":[0,-0.7302225232124329,0,0.6832094788551331],"scale":[0.9999998211860657,0.9999999403953552,0.9999998211860657],"translation":[10.879814147949219,2.5398406982421875,2.476541519165039]},{"name":"Armature_EndLFoot","rotation":[0,-1.4202669262886047e-8,0,1],"translation":[3.7034239768981934,-9.890047073364258,-0.000031948089599609375]},{"name":"Armature_pm0079_00_Skin"}],"samplers":[{}],"scene":0,"scenes":[{"name":"Scene","nodes":[0,2,1]}],"skins":[{"inverseBindMatrices":0,"joints":[4,5,6,7,8,9,10,11,12,13,14,15,16,17,18,19,20,21,22,23,24,25,26,27,28,29,30,31,32,33,34,35,36,37,38,39,40,41,42,43,44,45,46,47,48],"skeleton":0}],"textures":[{"sampler":0,"source":0},{"sampler":0,"source":1}],"extensionsUsed":["ALI_amc_mesh_compression"],"extensionsRequired":["ALI_amc_mesh_compression"]}