{"accessors":[{"bufferView":0,"componentType":5126,"count":24,"max":[1.000000238418579,0,0.9971949458122253,0,0.9999998807907104,-1.1920927533992653e-7,1,0,1.1887485840134104e-7,-1,9.992277227865998e-8,0,32.507511138916016,30.43787384033203,35.14775085449219,1],"min":[-0.8382132649421692,0,-1.0000001192092896,0,-0.9971947073936462,-1.1920931797249068e-7,-0.8382130265235901,0,-1.1920926112907182e-7,-1.0000003576278687,-1.1920927533992653e-7,0,-60.61039352416992,-5.201170444488525,-15.486783981323242,1],"type":"MAT4","byteOffset":0}],"asset":{"generator":"Khronos Blender glTF 2.0 exporter","version":"2.0"},"bufferViews":[{"buffer":0,"byteLength":1536,"byteOffset":0},{"buffer":0,"byteOffset":1536,"byteLength":9659},{"buffer":0,"byteOffset":11195,"byteLength":983},{"buffer":0,"byteOffset":12178,"byteLength":9659},{"buffer":0,"byteOffset":21837,"byteLength":117533}],"buffers":[{"byteLength":139370,"uri":"buffer.bin"}],"images":[{"name":"pm0039_00_Body1","uri":"pm0039_00_Body1.png"},{"name":"pm0039_00_Eye1","uri":"pm0039_00_Eye1.png"},{"name":"pm0039_00_Iris1","uri":"pm0039_00_Iris1.png"},{"name":"pm0039_00_Mouth1","uri":"pm0039_00_Mouth1.png"}],"materials":[{"alphaMode":"OPAQUE","name":"Body","pbrMetallicRoughness":{"baseColorFactor":[0.6400000190734865,0.6400000190734865,0.6400000190734865,1],"baseColorTexture":{"index":0},"metallicFactor":0}},{"alphaMode":"OPAQUE","name":"LEye","pbrMetallicRoughness":{"baseColorFactor":[0.6400000190734865,0.6400000190734865,0.6400000190734865,1],"baseColorTexture":{"index":1},"metallicFactor":0}},{"alphaMode":"OPAQUE","name":"LIris","pbrMetallicRoughness":{"baseColorFactor":[0.6400000190734865,0.6400000190734865,0.6400000190734865,1],"baseColorTexture":{"index":2},"metallicFactor":0}},{"alphaMode":"OPAQUE","name":"Mouth","pbrMetallicRoughness":{"baseColorFactor":[0.6400000190734865,0.6400000190734865,0.6400000190734865,1],"baseColorTexture":{"index":3},"metallicFactor":0}}],"meshes":[{"name":"Jigglypuff","primitives":[{"material":1,"extensions":{"ALI_amc_mesh_compression":{"bufferView":1}}},{"material":3,"extensions":{"ALI_amc_mesh_compression":{"bufferView":2}}},{"material":2,"extensions":{"ALI_amc_mesh_compression":{"bufferView":3}}},{"material":0,"extensions":{"ALI_amc_mesh_compression":{"bufferView":4}}}]}],"nodes":[{"children":[1,13,14],"name":"_01_pm0039_00","rotation":[0.7071068286895752,0,0,0.7071067094802856],"scale":[0.02539999783039093,0.02539999969303608,0.02539999969303608]},{"children":[16,18],"name":"_02_Origin"},{"name":"_04_EndWaist","translation":[28.679889678955078,3.410610010558257e-13,7.27596021626864e-12]},{"name":"_06_EndHair1","translation":[21.441999435424805,-0.000011444099982327316,-7.27596021626864e-12]},{"name":"_08_EndHair2","translation":[12.307299613952637,0,2.1827900598125893e-11]},{"name":"_11_EndLHand","translation":[4.889334201812744,-6.556509788424592e-7,0]},{"name":"_13_EndLEar","translation":[18.33370018005371,4.768369876728684e-7,0.0000019073499970545527]},{"name":"_14_LThigh","rotation":[0.058921005576848984,-0.873442530632019,-0.4708288013935089,0.10930068045854568],"scale":[0.9999999403953552,1,1.0000001192092896],"translation":[3.155869960784912,-1.136870003519419e-13,5.3898491859436035]},{"name":"_17_EndLToe","translation":[10.735799789428711,-2.3841900542720396e-7,-0.0000019073499970545527]},{"name":"_20_EndRHand","translation":[4.889307022094727,-0.0000688284999341704,0.000024795499484753236]},{"name":"_22_EndREar","translation":[18.333599090576172,0.0000028610199933609692,-0.000009536740435578395]},{"name":"_23_RThigh","rotation":[-0.058920878916978836,0.8734425902366638,-0.4708288311958313,0.10930069535970688],"scale":[0.9999999403953552,1,1],"translation":[3.155827045440674,0,-5.3898491859436035]},{"name":"_26_EndRToe","translation":[10.735799789428711,2.3841900542720396e-7,-9.536739753457368e-7]},{"name":"_27_pm0039_00_IrisSkin"},{"name":"_28_pm0039_00_Skin"},{"name":"Camera","rotation":[0.483536034822464,0.33687159419059753,-0.20870360732078552,0.7804827094078064],"translation":[7.481131553649902,5.34366512298584,6.5076398849487305]},{"mesh":0,"name":"Jigglypuff","rotation":[5.960464477539063e-8,0,0,1],"scale":[1.0000001192092896,1,1],"skin":0},{"name":"Lamp","rotation":[0.16907575726509094,0.7558802962303162,-0.27217137813568115,0.570947527885437],"scale":[1,1,0.9999999403953552],"translation":[4.076245307922363,5.903861999511719,-1.0054539442062378]},{"children":[19,20,24,27,29,33,36,38],"name":"_02_Origin__03_Waist","rotation":[-0.5,-0.5000000596046448,0.5000000596046448,0.5],"scale":[1,0.9999999403953552,1],"translation":[-1.5302899565746136e-15,24.991600036621094,0]},{"name":"_02_Origin__04_EndWaist","translation":[28.679889678955078,-4.76837158203125e-7,-0.000001253644768439699]},{"children":[21,22],"name":"_02_Origin__05_Hair1","rotation":[0,-0.3355126976966858,0,0.9420357942581177],"translation":[13.995986938476562,-10.49510383605957,0.00005111026985105127]},{"name":"_02_Origin__06_EndHair1","rotation":[0,-1.4901161193847656e-8,0,1],"scale":[1,0.9999999403953552,1],"translation":[12.87410831451416,-13.554062843322754,-10.502573013305664]},{"children":[23],"name":"_02_Origin__07_Hair2","rotation":[0,-0.7581304907798767,0,0.6521029472351074],"translation":[3.788426637649536,-11.676737785339355,-3.0905632972717285]},{"name":"_02_Origin__08_EndHair2","translation":[6.7555341720581055,-8.266031265258789,6.124145984649658]},{"children":[25],"name":"_02_Origin__09_LArm","rotation":[0,0.4595448672771454,0,0.8881546258926392],"scale":[0.9999999403953552,0.9999999403953552,0.9999999403953552],"translation":[-8.208600044250488,-17.08690071105957,-16.45612907409668]},{"children":[26],"name":"_02_Origin__10_LHand","rotation":[0,-1.0430814256778831e-7,0,1],"scale":[0.9999999403953552,1,0.9999999403953552],"translation":[1.8661060333251953,-3.272909164428711,-2.760523796081543]},{"name":"_02_Origin__11_EndLHand","rotation":[0,-1.4901161193847656e-8,0,1],"translation":[1.9534921646118164,-3.426166534423828,-2.889787197113037]},{"children":[28],"name":"_02_Origin__12_LEar","rotation":[0,0.3569421172142029,0,0.9341264963150024],"translation":[17.049560546875,1.5219799280166626,-16.839733123779297]},{"name":"_02_Origin__13_EndLEar","scale":[1,0.9999999403953552,1],"translation":[18.052249908447266,-2.397392749786377,-2.119760513305664]},{"children":[30],"name":"_02_Origin__14_LThigh","rotation":[0,0.9992985129356384,0,0.0374516062438488],"scale":[1,0.9999997019767761,1],"translation":[3.155870199203491,-4.76837158203125e-7,-5.3898491859436035]},{"children":[31],"name":"_02_Origin__15_LFoot","rotation":[0,-0.68012934923172,0,0.7330921292304993],"translation":[24.674907684326172,5.201170921325684,1.5800187587738037]},{"children":[32],"name":"_02_Origin__16_LToe","rotation":[0,2.7945134206674993e-8,0,1],"translation":[6.090909481048584,-11.788668632507324,-0.00003133285281364806]},{"name":"_02_Origin__17_EndLToe","rotation":[0,5.684341886080802e-14,0,1],"translation":[4.928013324737549,-9.537933349609375,-0.000025591547455405816]},{"children":[34],"name":"_02_Origin__18_RArm","rotation":[0,-0.9553346633911133,0,0.29552608728408813],"scale":[0.9999999403953552,0.9999997615814209,0.9999999403953552],"translation":[-8.208727836608887,-17.08690071105957,16.45606231689453]},{"children":[35],"name":"_02_Origin__19_RHand","rotation":[0,1.7881393432617188e-7,0,1],"translation":[2.730710983276367,-3.2729110717773438,-1.9095535278320312]},{"name":"_02_Origin__20_EndRHand","rotation":[0,-2.9802322387695312e-8,0,1],"translation":[2.858537197113037,-3.4261016845703125,-1.998983383178711]},{"children":[37],"name":"_02_Origin__21_REar","rotation":[0,-0.4767898619174957,0,0.8790173530578613],"scale":[0.9999999403953552,0.9999999403953552,0.9999999403953552],"translation":[17.049434661865234,1.5219813585281372,16.839860916137695]},{"name":"_02_Origin__22_EndREar","rotation":[0,-2.9802322387695312e-8,0,1],"scale":[1,0.9999999403953552,1],"translation":[17.979833602905273,-2.397390842437744,-2.6644039154052734]},{"children":[39],"name":"_02_Origin__23_RThigh","rotation":[0,-0.9226975440979004,0,0.3855245113372803],"scale":[0.9999999403953552,0.9999997615814209,0.9999999403953552],"translation":[3.1558268070220947,-4.76837158203125e-7,5.3898491859436035]},{"children":[40],"name":"_02_Origin__24_RFoot","rotation":[0,-0.9250523447990417,0,0.37983980774879456],"scale":[0.9999999403953552,1,0.9999999403953552],"translation":[19.64311981201172,5.201165199279785,15.016416549682617]},{"children":[41],"name":"_02_Origin__25_RToe","rotation":[0,1.8072296370519325e-7,0,1],"translation":[-6.090916156768799,-11.788665771484375,-0.0000855016041896306]},{"name":"_02_Origin__26_EndRToe","rotation":[0,-1.1368683772161603e-13,0,1],"translation":[-4.928012847900391,-9.537931442260742,-0.00007052709406707436]}],"samplers":[{}],"scene":0,"scenes":[{"name":"Scene","nodes":[12,11,10,9,8,7,6,5,4,3,2,0,17,15]}],"skins":[{"inverseBindMatrices":0,"joints":[18,19,20,21,22,23,24,25,26,27,28,29,30,31,32,33,34,35,36,37,38,39,40,41],"skeleton":1}],"textures":[{"sampler":0,"source":0},{"sampler":0,"source":1},{"sampler":0,"source":2},{"sampler":0,"source":3}],"extensionsUsed":["ALI_amc_mesh_compression"],"extensionsRequired":["ALI_amc_mesh_compression"]}