{"accessors":[{"bufferView":0,"componentType":5126,"count":71,"max":[1.0000001192092896,7.947286206899662e-8,0.9954301714897156,0,1,0,1.0000001192092896,0,7.947286206899662e-8,-1,0,0,19.848480224609375,45.92720031738281,28.5044002532959,1],"min":[-1,0,-1,0,-0.9954301714897156,-1.628327193133744e-13,-1,0,0,-1,-3.8872984692295276e-15,0,-148.8350830078125,-32.88667678833008,-24.801555633544922,1],"type":"MAT4","byteOffset":0},{"bufferView":1,"componentType":5126,"count":71,"max":[1.0000001192092896,7.947286206899662e-8,0.9954301714897156,0,1,0,1.0000001192092896,0,7.947286206899662e-8,-1,0,0,19.848480224609375,45.92720031738281,28.5044002532959,1],"min":[-1,0,-1,0,-0.9954301714897156,-1.628327193133744e-13,-1,0,0,-1,-3.8872984692295276e-15,0,-148.8350830078125,-32.88667678833008,-24.801555633544922,1],"type":"MAT4","byteOffset":0},{"bufferView":2,"componentType":5126,"count":71,"max":[1.0000001192092896,7.947286206899662e-8,0.9954301714897156,0,1,0,1.0000001192092896,0,7.947286206899662e-8,-1,0,0,19.848480224609375,45.92720031738281,28.5044002532959,1],"min":[-1,0,-1,0,-0.9954301714897156,-1.628327193133744e-13,-1,0,0,-1,-3.8872984692295276e-15,0,-148.8350830078125,-32.88667678833008,-24.801555633544922,1],"type":"MAT4","byteOffset":0}],"asset":{"generator":"Khronos Blender glTF 2.0 exporter","version":"2.0"},"bufferViews":[{"buffer":0,"byteLength":4544,"byteOffset":0},{"buffer":0,"byteLength":4544,"byteOffset":4544},{"buffer":0,"byteLength":4544,"byteOffset":9088},{"buffer":0,"byteOffset":13632,"byteLength":30843},{"buffer":0,"byteOffset":44475,"byteLength":4663},{"buffer":0,"byteOffset":49138,"byteLength":4663},{"buffer":0,"byteOffset":53801,"byteLength":91561},{"buffer":0,"byteOffset":145362,"byteLength":10383},{"buffer":0,"byteOffset":155745,"byteLength":10383}],"buffers":[{"byteLength":166128,"uri":"buffer.bin"}],"images":[{"name":"pm0001_00_BodyA1","uri":"pm0001_00_BodyA1.png"},{"name":"pm0001_00_Eye1","uri":"pm0001_00_Eye1.png"},{"name":"pm0001_00_BodyB1","uri":"pm0001_00_BodyB1.png"},{"name":"pm0001_00_Iris1","uri":"pm0001_00_Iris1.png"}],"materials":[{"alphaMode":"OPAQUE","name":"Material__10","pbrMetallicRoughness":{"baseColorFactor":[0.6400000190734865,0.6400000190734865,0.6400000190734865,1],"baseColorTexture":{"index":0},"metallicFactor":0}},{"alphaMode":"OPAQUE","name":"Material__11","pbrMetallicRoughness":{"baseColorFactor":[0.6400000190734865,0.6400000190734865,0.6400000190734865,1],"baseColorTexture":{"index":1},"metallicFactor":0}},{"alphaMode":"OPAQUE","name":"Material__12","pbrMetallicRoughness":{"baseColorFactor":[0.6400000190734865,0.6400000190734865,0.6400000190734865,1],"baseColorTexture":{"index":2},"metallicFactor":0}},{"alphaMode":"MASK","name":"Material__13","pbrMetallicRoughness":{"baseColorFactor":[0.6400000190734865,0.6400000190734865,0.6400000190734865,1],"baseColorTexture":{"index":3},"metallicFactor":0}}],"meshes":[{"name":"Bulbasaur","primitives":[{"material":2,"extensions":{"ALI_amc_mesh_compression":{"bufferView":3}}},{"material":3,"extensions":{"ALI_amc_mesh_compression":{"bufferView":4}}},{"material":1,"extensions":{"ALI_amc_mesh_compression":{"bufferView":5}}},{"material":0,"extensions":{"ALI_amc_mesh_compression":{"bufferView":6}}}]},{"name":"Bulbasaur_LVine","primitives":[{"material":2,"extensions":{"ALI_amc_mesh_compression":{"bufferView":7}}}]},{"name":"Bulbasaur_RVine","primitives":[{"material":2,"extensions":{"ALI_amc_mesh_compression":{"bufferView":8}}}]}],"nodes":[{"children":[1,2,3,6],"name":"Armature","scale":[0.02539999969303608,0.02539999969303608,0.02539999969303608]},{"mesh":0,"name":"Bulbasaur","skin":0},{"mesh":1,"name":"Bulbasaur_LVine","skin":1},{"mesh":2,"name":"Bulbasaur_RVine","skin":2},{"name":"Camera","rotation":[0.483536034822464,0.33687159419059753,-0.20870360732078552,0.7804827094078064],"translation":[7.481131553649902,5.34366512298584,6.5076398849487305]},{"name":"Lamp","rotation":[0.16907575726509094,0.7558802962303162,-0.27217137813568115,0.570947527885437],"scale":[1,1,0.9999999403953552],"translation":[4.076245307922363,5.903861999511719,-1.0054539442062378]},{"children":[7,73,74,75,76],"name":"Armature_pm0001_00","rotation":[-0.7071068286895752,0,0,0.7071068286895752]},{"children":[8],"name":"Armature_Origin"},{"children":[9,57],"name":"Armature_Waist","rotation":[0,-0.9917418360710144,0,0.12825079262256622],"translation":[9.99999883788405e-7,11.309598922729492,19.78619956970215]},{"children":[10,33],"name":"Armature_Spine1","rotation":[0,0.0000019073486328125,0,1],"translation":[-0.000022783171516493894,0.0000095367431640625,0.000022215182980289683]},{"children":[11,18,25],"name":"Armature_Spine2","rotation":[0,0.019597457721829414,0,0.9998079538345337],"translation":[0.9596243500709534,-14.340658187866211,-3.6481590270996094]},{"children":[12],"name":"Armature_LShoulder","rotation":[0,-0.988961398601532,0,0.14817382395267487],"translation":[-8.985071182250977,-11.02638053894043,-2.764643669128418]},{"children":[13],"name":"Armature_LArm","rotation":[0,0.4090255796909332,0,0.9125230312347412],"translation":[10.045080184936523,-0.35550594329833984,-0.3553476333618164]},{"children":[14],"name":"Armature_LForeArm","rotation":[0,-0.011335751041769981,0,0.9999357461929321],"translation":[10.305001258850098,-1.4036102294921875,-1.3909587860107422]},{"children":[15,17],"name":"Armature_LHand","rotation":[0,-0.6512213349342346,0,0.7588878870010376],"translation":[4.758031845092773,-0.7617578506469727,-0.752440333366394]},{"children":[16],"name":"Armature_LFinger","rotation":[0,0.0017919822130352259,0,0.9999983906745911],"scale":[0.9999998807907104,1,0.9999998807907104],"translation":[-0.008338931947946548,-1.5003585815429688,-1.8853552341461182]},{"name":"Armature_EndLFinger","rotation":[0,-8.731149137020111e-11,0,1],"translation":[-0.0002811476297210902,-5.637367248535156,0.0002931468188762665]},{"name":"Armature_EndLHand","rotation":[0,2.3283066585833012e-9,0,1],"scale":[0.9999999403953552,1,0.9999999403953552],"translation":[0.00015819910913705826,-7.200090408325195,0.0318530797958374]},{"children":[19],"name":"Armature_RShoulder","rotation":[0,-0.46221625804901123,0,0.8867672681808472],"translation":[8.996543884277344,-11.026383399963379,2.727180242538452]},{"children":[20],"name":"Armature_RArm","rotation":[0,-0.49705082178115845,0,0.867721438407898],"translation":[10.045089721679688,-0.3556070327758789,-0.3553133010864258]},{"children":[21],"name":"Armature_RForeArm","rotation":[0,-0.011336421594023705,0,0.9999357461929321],"translation":[10.305081367492676,-1.4034185409545898,-1.3909580707550049]},{"children":[22,23],"name":"Armature_RHand","rotation":[0,-0.6512153744697571,0,0.7588929533958435],"scale":[0.9999999403953552,1,0.9999999403953552],"translation":[4.758069038391113,-0.7618494033813477,-0.7524148225784302]},{"name":"Armature_EndRHand","rotation":[0,-1.25728565336658e-8,0,1],"scale":[0.9999999403953552,1,0.9999999403953552],"translation":[0.00012499094009399414,-7.200111389160156,0.03185349702835083]},{"children":[24],"name":"Armature_RFinger","rotation":[0,0.0018195179291069508,0,0.9999983310699463],"translation":[-0.008377470076084137,-1.5004005432128906,-1.8852992057800293]},{"name":"Armature_EndRFinger","rotation":[0,-5.820766091346741e-11,0,1],"translation":[0.0002770113933365792,-5.637300491333008,-0.00028649065643548965]},{"children":[26,28,30,32],"name":"Armature_Head","rotation":[0,-0.14766524732112885,0,0.9890373945236206],"translation":[1.4447087049484253,-16.19464874267578,-4.7302680015563965]},{"children":[27],"name":"Armature_Jaw","rotation":[0,-0.9819367527961731,0,0.189209446310997],"scale":[1,0.9999999403953552,1],"translation":[0.00001283293022424914,-3.6777591705322266,5.891313552856445]},{"name":"Armature_EndJaw","scale":[1,0.9999999403953552,1],"translation":[2.6516518592834473,-17.829736709594727,-6.625188827514648]},{"children":[29],"name":"Armature_REar","rotation":[0,0.4947047531604767,0,0.8690612316131592],"scale":[0.9999999403953552,1,0.9999999403953552],"translation":[16.023103713989258,-3.7600841522216797,-12.563488960266113]},{"name":"Armature_EndREar","rotation":[0,1.4901161193847656e-8,0,1],"translation":[9.033344268798828,0.9037818908691406,0.8994174003601074]},{"children":[31],"name":"Armature_LEar","rotation":[0,0.9137983918190002,0,0.40616804361343384],"translation":[-16.023120880126953,-3.760112762451172,-12.56333065032959]},{"name":"Armature_EndLEar","rotation":[0,-4.470348358154297e-8,0,1],"translation":[9.03332233428955,0.9038677215576172,0.8994026184082031]},{"name":"Armature_EndHead","rotation":[0,-9.92145032796543e-10,0,1],"translation":[0.0000020000006770715117,-26.701501846313477,-1.106208458168112e-10]},{"children":[34,45,56],"name":"Armature_Feeler","rotation":[0,0.7087199687957764,0,0.7054899334907532],"translation":[2.717865228652954,-2.9955625534057617,-10.332344055175781]},{"children":[35],"name":"Armature_LFeelerC01","rotation":[0,-0.13051602244377136,0,0.9914461970329285],"scale":[0.9999998807907104,1,0.9999998807907104],"translation":[7.5240373611450195,-6.089165687561035,-10.38022232055664]},{"children":[36],"name":"Armature_LFeelerC02","rotation":[0,1.5397176866827067e-8,0,1],"translation":[14.265096664428711,-0.00018548965454101562,0.00008623632311355323]},{"children":[37],"name":"Armature_LFeelerC03","translation":[11.382993698120117,-0.00014829635620117188,0.00007008627289906144]},{"children":[38],"name":"Armature_LFeelerC04","translation":[11.382997512817383,-0.00014781951904296875,0.00006863001908641309]},{"children":[39],"name":"Armature_LFeelerC05","translation":[11.38300895690918,-0.00014781951904296875,0.00006908114301040769]},{"children":[40],"name":"Armature_LFeelerC06","translation":[11.382986068725586,-0.00014829635620117188,0.00006857854896225035]},{"children":[41],"name":"Armature_LFeelerC07","translation":[11.38270378112793,-0.0001475811004638672,0.00006998240132816136]},{"children":[42],"name":"Armature_LFeelerC08","translation":[11.382993698120117,-0.00014781951904296875,0.00006947983638383448]},{"children":[43],"name":"Armature_LFeelerC09","translation":[11.384016036987305,-0.0001480579376220703,0.00006802668212912977]},{"children":[44],"name":"Armature_LFeelerC10","translation":[11.382986068725586,-0.00014829635620117188,0.00007038508192636073]},{"name":"Armature_EndLFeelerC10","translation":[8.454000473022461,-0.00010991096496582031,0.00005139550194144249]},{"children":[46],"name":"Armature_RFeelerC01","rotation":[0,-0.13051602244377136,0,0.9914461970329285],"scale":[0.9999998807907104,1,0.9999998807907104],"translation":[1.326275110244751,-6.089147567749023,12.751471519470215]},{"children":[47],"name":"Armature_RFeelerC02","rotation":[0,1.5397176866827067e-8,0,1],"translation":[14.265096664428711,-0.00018548965454101562,0.00008528243051841855]},{"children":[48],"name":"Armature_RFeelerC03","translation":[11.383001327514648,-0.0001480579376220703,0.00006913238030392677]},{"children":[49],"name":"Armature_RFeelerC04","translation":[11.38300895690918,-0.0001475811004638672,0.00006958350422792137]},{"children":[50],"name":"Armature_RFeelerC05","translation":[11.382997512817383,-0.00014829635620117188,0.00006908091017976403]},{"children":[51],"name":"Armature_RFeelerC06","translation":[11.382997512817383,-0.00014829635620117188,0.0000685783161316067]},{"children":[52],"name":"Armature_RFeelerC07","translation":[11.382707595825195,-0.00014734268188476562,0.00006998219760134816]},{"children":[53],"name":"Armature_RFeelerC08","translation":[11.382989883422852,-0.00014829635620117188,0.00006852592923678458]},{"children":[54],"name":"Armature_RFeelerC09","translation":[11.38401985168457,-0.00014781951904296875,0.00006993379793129861]},{"children":[55],"name":"Armature_RFeelerC10","translation":[11.382974624633789,-0.0001480579376220703,0.00006847750046290457]},{"name":"Armature_EndRFeelerC10","translation":[8.453989028930664,-0.00010991096496582031,0.000051395269110798836]},{"name":"Armature_EndFeeler","translation":[40.299072265625,11.178333282470703,10.797470092773438]},{"children":[58,65,72],"name":"Armature_Hips","rotation":[0,-0.12825031578540802,0,0.9917418360710144],"translation":[0.000007505669145757565,-0.00002002716064453125,-0.00000844045734993415]},{"children":[59],"name":"Armature_LHips","rotation":[0,-0.9817003607749939,0,0.19043254852294922],"scale":[0.9999999403953552,1,0.9999999403953552],"translation":[-7.818624496459961,6.3627519607543945,2.1610629558563232]},{"children":[60],"name":"Armature_LThigh","rotation":[0,0.5133958458900452,0,0.858151912689209],"translation":[8.772971153259277,1.6262855529785156,1.5998883247375488]},{"children":[61],"name":"Armature_LLeg","rotation":[0,0.10229761898517609,0,0.9947538375854492],"scale":[0.9999999403953552,1,0.9999999403953552],"translation":[8.382802963256836,-0.9254798889160156,-0.9199925065040588]},{"children":[62,64],"name":"Armature_LFoot","rotation":[0,-0.740098237991333,0,0.6724988222122192],"translation":[4.894251346588135,0.47168922424316406,0.469546914100647]},{"children":[63],"name":"Armature_LToe","rotation":[0,-2.6317366064176895e-8,0,1],"translation":[-0.08439050614833832,-2.399995803833008,-1.6125693321228027]},{"name":"Armature_EndLToe","translation":[0.000009714589396025985,-6.379600524902344,-0.000012780150427715853]},{"name":"Armature_EndLFoot","rotation":[-9.718246173073819e-16,-2.4456767278024927e-8,-3.973643103449831e-8,1],"translation":[0.00001399438133375952,-8.011159896850586,-0.000015912701201159507]},{"children":[66],"name":"Armature_RHips","rotation":[0,-0.01122085377573967,0,0.9999370574951172],"scale":[0.9999999403953552,1,0.9999999403953552],"translation":[7.818620204925537,6.362692832946777,2.1611130237579346]},{"children":[67],"name":"Armature_RThigh","rotation":[0,-0.7371431589126587,0,0.6757366061210632],"translation":[8.773019790649414,1.6263236999511719,1.5998055934906006]},{"children":[68],"name":"Armature_RLeg","rotation":[0,0.10229768604040146,0,0.9947538375854492],"translation":[8.3828706741333,-0.9255142211914062,-0.9199995398521423]},{"children":[69,71],"name":"Armature_RFoot","rotation":[0,-0.740100622177124,0,0.6724961400032043],"scale":[0.9999999403953552,1,0.9999999403953552],"translation":[4.894287109375,0.47168540954589844,0.4695386290550232]},{"children":[70],"name":"Armature_RToe","rotation":[0,1.862648701944636e-9,0,1],"translation":[0.08440209180116653,-2.4000988006591797,-1.6125560998916626]},{"name":"Armature_EndRToe","rotation":[0,-1.1102230246251565e-16,0,1],"translation":[0.00001335466731688939,-6.379598617553711,6.13521393688643e-8]},{"name":"Armature_EndRFoot","rotation":[0,3.725290298461914e-9,0,1],"translation":[0.000015277259080903605,-8.011096954345703,1.2333336485426116e-7]},{"name":"Armature_EndHips","rotation":[0,-6.458492407546146e-9,0,1],"translation":[0.000019577117200242355,21.577098846435547,-0.000013351414054341149]},{"name":"Armature_pm0001_00_BodySkin"},{"name":"Armature_pm0001_00_IrisSkin"},{"name":"Armature_pm0001_00_LTutaSkin"},{"name":"Armature_pm0001_00_RTutaSkin"}],"samplers":[{}],"scene":0,"scenes":[{"name":"Scene","nodes":[0,5,4]}],"skins":[{"inverseBindMatrices":0,"joints":[6,7,8,9,10,11,12,13,14,15,16,17,18,19,20,21,22,23,24,25,26,27,28,29,30,31,32,33,34,35,36,37,38,39,40,41,42,43,44,45,46,47,48,49,50,51,52,53,54,55,56,57,58,59,60,61,62,63,64,65,66,67,68,69,70,71,72,73,74,75,76],"skeleton":0},{"inverseBindMatrices":1,"joints":[6,7,8,9,10,11,12,13,14,15,16,17,18,19,20,21,22,23,24,25,26,27,28,29,30,31,32,33,34,35,36,37,38,39,40,41,42,43,44,45,46,47,48,49,50,51,52,53,54,55,56,57,58,59,60,61,62,63,64,65,66,67,68,69,70,71,72,73,74,75,76],"skeleton":0},{"inverseBindMatrices":2,"joints":[6,7,8,9,10,11,12,13,14,15,16,17,18,19,20,21,22,23,24,25,26,27,28,29,30,31,32,33,34,35,36,37,38,39,40,41,42,43,44,45,46,47,48,49,50,51,52,53,54,55,56,57,58,59,60,61,62,63,64,65,66,67,68,69,70,71,72,73,74,75,76],"skeleton":0}],"textures":[{"sampler":0,"source":0},{"sampler":0,"source":1},{"sampler":0,"source":2},{"sampler":0,"source":3}],"extensionsUsed":["ALI_amc_mesh_compression"],"extensionsRequired":["ALI_amc_mesh_compression"]}