{"accessors":[{"bufferView":0,"componentType":5126,"count":46,"max":[1.0000001192092896,0,0.999248206615448,0,0.9998804330825806,0,1.0000001192092896,0,0,-1.0000001192092896,0,0,31.177814483642578,73.56134033203125,36.21950149536133,1],"min":[-1.0000001192092896,0,-0.9998804330825806,0,-0.999248206615448,0,-1.0000001192092896,0,0,-1.0000004768371582,0,0,-75.24746704101562,-43.99424362182617,-61.47072982788086,1],"type":"MAT4","byteOffset":0}],"asset":{"generator":"Khronos Blender glTF 2.0 exporter","version":"2.0"},"bufferViews":[{"buffer":0,"byteLength":2944,"byteOffset":0},{"buffer":0,"byteOffset":2944,"byteLength":2827},{"buffer":0,"byteOffset":5771,"byteLength":137775}],"buffers":[{"byteLength":143546,"uri":"buffer.bin"}],"images":[{"name":"pm0033_00_Eye1","uri":"pm0033_00_Eye1.png"},{"name":"pm0033_00_Body1","uri":"pm0033_00_Body1.png"}],"materials":[{"alphaMode":"OPAQUE","name":"Material__152","pbrMetallicRoughness":{"baseColorFactor":[0.6400000190734865,0.6400000190734865,0.6400000190734865,1],"baseColorTexture":{"index":0},"metallicFactor":0}},{"alphaMode":"OPAQUE","name":"Material__153","pbrMetallicRoughness":{"baseColorFactor":[0.6400000190734865,0.6400000190734865,0.6400000190734865,1],"baseColorTexture":{"index":1},"metallicFactor":0}}],"meshes":[{"name":"Nidorino","primitives":[{"material":0,"extensions":{"ALI_amc_mesh_compression":{"bufferView":1}}},{"material":1,"extensions":{"ALI_amc_mesh_compression":{"bufferView":2}}}]}],"nodes":[{"children":[3,4],"name":"Armature","scale":[0.02539999969303608,0.02539999969303608,0.02539999969303608]},{"name":"Camera","rotation":[0.483536034822464,0.33687159419059753,-0.20870360732078552,0.7804827094078064],"translation":[7.481131553649902,5.34366512298584,6.5076398849487305]},{"name":"Lamp","rotation":[0.16907575726509094,0.7558802962303162,-0.27217137813568115,0.570947527885437],"scale":[1,1,0.9999999403953552],"translation":[4.076245307922363,5.903861999511719,-1.0054539442062378]},{"mesh":0,"name":"Nidorino","skin":0},{"children":[5,49],"name":"Armature_pm0033_00","rotation":[-0.7071068286895752,0,0,0.7071068286895752],"scale":[1,0.9999999403953552,1]},{"children":[6],"name":"Armature_Origin","translation":[0,-1.8189894035458565e-12,0]},{"children":[7,23],"name":"Armature_Waist","rotation":[0,-0.06552699208259583,0,0.9978508353233337],"scale":[0.9999999403953552,1,0.9999999403953552],"translation":[0,0.5721254348754883,36.21950149536133]},{"children":[8,9,16],"name":"Armature_Hips","rotation":[0,-0.9978510141372681,0,0.06552443653345108],"scale":[0.9999999403953552,0.9999997615814209,0.9999999403953552],"translation":[-0.000011096314665337559,0.00000864267349243164,-0.0000024139344532159157]},{"name":"Armature_EndHips","rotation":[0,1.3909129847888835e-8,0,1],"translation":[-0.00017368729459121823,43.42211151123047,0.00022506793902721256]},{"children":[10],"name":"Armature_LHips","rotation":[0,-0.8801512122154236,0,0.47469332814216614],"translation":[-12.256929397583008,18.304061889648438,2.741847515106201]},{"children":[11],"name":"Armature_LThigh","rotation":[0,0.2604350745677948,0,0.9654913544654846],"scale":[1,1.0000001192092896,1],"translation":[9.331512451171875,0.6605072021484375,0.6589899063110352]},{"children":[12],"name":"Armature_LLeg","rotation":[0,0.1664632111787796,0,0.9860476851463318],"translation":[13.48690128326416,-0.7385158538818359,-0.7374139428138733]},{"children":[13,14],"name":"Armature_LFoot","rotation":[0,-0.7990861535072327,0,0.6012165546417236],"translation":[9.165678977966309,2.7409000396728516,2.6342852115631104]},{"name":"Armature_EndLFoot","rotation":[0,-3.559398464858532e-8,0,1],"translation":[0.000051803188398480415,-11.115506172180176,-0.00005593150854110718]},{"children":[15],"name":"Armature_LToe","rotation":[0,-3.562308847904205e-8,0,1],"translation":[0.000028874841518700123,-5.0113983154296875,-1.6531354188919067]},{"name":"Armature_EndLToe","rotation":[0,2.9103830456733704e-11,0,1],"translation":[0.00002703629434108734,-6.0774335861206055,-0.000030396506190299988]},{"children":[17],"name":"Armature_RHips","rotation":[0,-0.4115191698074341,0,0.9114012122154236],"translation":[12.256875038146973,18.304180145263672,2.741753101348877]},{"children":[18],"name":"Armature_RThigh","rotation":[0,-0.3788812756538391,0,0.9254453182220459],"scale":[1.0000001192092896,1.0000001192092896,1.0000001192092896],"translation":[9.331412315368652,0.6605110168457031,0.6588554382324219]},{"children":[19],"name":"Armature_RLeg","rotation":[0,0.16646377742290497,0,0.9860475659370422],"translation":[13.48698902130127,-0.7385234832763672,-0.7374095916748047]},{"children":[20,21],"name":"Armature_RFoot","rotation":[0,-0.7996399998664856,0,0.6004797220230103],"scale":[1,1.0000001192092896,1],"translation":[9.165642738342285,2.74102783203125,2.6342697143554688]},{"name":"Armature_EndRFoot","rotation":[0,1.7578713595867157e-8,0,1],"translation":[0.00004849955439567566,-11.115605354309082,-0.00004433095455169678]},{"children":[22],"name":"Armature_RToe","rotation":[0,-4.789326339960098e-7,0,1],"translation":[0.000028133857995271683,-5.0113983154296875,-1.653126835823059]},{"name":"Armature_EndRToe","translation":[0.000025541521608829498,-6.077402114868164,-0.000024374574422836304]},{"children":[24],"name":"Armature_Spine1","rotation":[0,-2.980232238769531e-7,0,1],"translation":[0.000009219677849614527,0.000023305416107177734,-0.000005093716481496813]},{"children":[25,35,42],"name":"Armature_Spine2","rotation":[0,0.09299717098474503,0,0.9956663846969604],"translation":[0.19082847237586975,-11.062562942504883,1.4467076063156128]},{"children":[26,29,30,32],"name":"Armature_Head","rotation":[0,-0.027553506195545197,0,0.9996203780174255],"translation":[0.06289266049861908,-20.700122833251953,-1.1403396129608154]},{"children":[27],"name":"Armature_REar1","rotation":[0,-0.7016175985336304,0,0.7125537395477295],"scale":[0.9999999403953552,1,0.9999999403953552],"translation":[-13.94248104095459,-11.79892349243164,6.821176528930664]},{"children":[28],"name":"Armature_REar2","rotation":[0,1.1734664440155029e-7,0,1],"translation":[12.271937370300293,14.772407531738281,15.416938781738281]},{"name":"Armature_EndREar2","translation":[19.83850860595703,23.880586624145508,24.92261505126953]},{"name":"Armature_EndHead","rotation":[0,-1.863895704445895e-9,0,1],"translation":[0.0001271124347113073,-42.37080383300781,-0.00004196156078251079]},{"children":[31],"name":"Armature_Jaw","rotation":[0,0.4015996754169464,0,0.9158154129981995],"translation":[0.000028869035304524004,-5.778553009033203,-1.52105712890625]},{"name":"Armature_EndJaw","translation":[18.364849090576172,-22.992740631103516,-16.913066864013672]},{"children":[33],"name":"Armature_LEar1","rotation":[0,-0.11725903302431107,0,0.9931014776229858],"scale":[0.9999999403953552,1,0.9999999403953552],"translation":[13.942544937133789,-11.798847198486328,6.821218490600586]},{"children":[34],"name":"Armature_LEar2","rotation":[0,1.4901161193847656e-7,0,1],"translation":[17.719898223876953,14.772377014160156,8.619041442871094]},{"name":"Armature_EndLEar2","rotation":[0,7.450580596923828e-9,0,1],"translation":[28.645523071289062,23.880657196044922,13.93330192565918]},{"children":[36],"name":"Armature_LShoulder","rotation":[0,0.5951143503189087,0,0.8036410808563232],"scale":[0.9999999403953552,1,0.9999999403953552],"translation":[15.531699180603027,-8.897228240966797,-2.090933084487915]},{"children":[37],"name":"Armature_LArm","rotation":[0,0.19198299944400787,0,0.981398344039917],"translation":[10.366207122802734,-0.25766944885253906,-0.257601261138916]},{"children":[38],"name":"Armature_LForeArm","rotation":[0,-0.053331390023231506,0,0.9985768795013428],"translation":[12.61202621459961,1.8677692413330078,1.848069190979004]},{"children":[39,40],"name":"Armature_LHand","rotation":[0,-0.7206832766532898,0,0.6932644844055176],"scale":[0.9999999403953552,1,0.9999999403953552],"translation":[7.980245590209961,0.30997276306152344,0.309589684009552]},{"name":"Armature_EndLHand","rotation":[0,-2.3309894459089264e-8,0,1],"translation":[0.00014817187911830842,-17.017797470092773,-0.0001361939066555351]},{"children":[41],"name":"Armature_LFinger","rotation":[0,-2.4157088773790747e-8,0,1],"translation":[0.000050372971600154415,-3.6301803588867188,-2.3612899780273438]},{"name":"Armature_EndLFinger","translation":[0.0000809641569503583,-9.308780670166016,-0.00007434115104842931]},{"children":[43],"name":"Armature_RShoulder","rotation":[0,0.7535374164581299,0,0.6574051380157471],"scale":[0.9999999403953552,0.9999999403953552,0.9999999403953552],"translation":[-15.207401275634766,-8.897146224975586,-3.786823034286499]},{"children":[44],"name":"Armature_RArm","rotation":[0,-0.02283594198524952,0,0.9997392296791077],"translation":[10.366252899169922,-0.25778770446777344,-0.25750112533569336]},{"children":[45],"name":"Armature_RForeArm","rotation":[0,-0.053332049399614334,0,0.998576819896698],"scale":[0.9999999403953552,1,0.9999999403953552],"translation":[12.61191463470459,1.8678817749023438,1.8480935096740723]},{"children":[46,47],"name":"Armature_RHand","rotation":[0,-0.7202115058898926,0,0.6937546133995056],"translation":[7.980241775512695,0.3098793029785156,0.3095656931400299]},{"name":"Armature_EndRHand","rotation":[0,-2.741580829024315e-8,0,1],"translation":[0.00014980696141719818,-17.0177059173584,-0.00010251440107822418]},{"children":[48],"name":"Armature_RFinger","rotation":[0,-2.922024577856064e-8,0,1],"translation":[0.00004941457882523537,-3.630189895629883,-2.361281633377075]},{"name":"Armature_EndRFinger","translation":[0.00008200411684811115,-9.30880355834961,-0.000055944547057151794]},{"name":"Armature_pm0033_00_Skin","translation":[0,-1.8189894035458565e-12,0]}],"samplers":[{}],"scene":0,"scenes":[{"name":"Scene","nodes":[0,2,1]}],"skins":[{"inverseBindMatrices":0,"joints":[4,5,6,7,8,9,10,11,12,13,14,15,16,17,18,19,20,21,22,23,24,25,26,27,28,29,30,31,32,33,34,35,36,37,38,39,40,41,42,43,44,45,46,47,48,49],"skeleton":0}],"textures":[{"sampler":0,"source":0},{"sampler":0,"source":1}],"extensionsUsed":["ALI_amc_mesh_compression"],"extensionsRequired":["ALI_amc_mesh_compression"]}