{"accessors":[{"bufferView":0,"componentType":5126,"count":59,"max":[1,0,1,0,0.9934114813804626,0,1,0,0,-1,0,0,50.45869827270508,47.759830474853516,89.62041473388672,1],"min":[-1,0,-0.9934114813804626,0,-1,0,-1,0,0,-1.0000001192092896,0,0,-106.77490997314453,-88.12928771972656,-82.8926010131836,1],"type":"MAT4","byteOffset":0}],"asset":{"generator":"Khronos Blender glTF 2.0 exporter","version":"2.0"},"bufferViews":[{"buffer":0,"byteLength":3776,"byteOffset":0},{"buffer":0,"byteOffset":3776,"byteLength":3995},{"buffer":0,"byteOffset":7771,"byteLength":133665}],"buffers":[{"byteLength":141436,"uri":"buffer.bin"}],"images":[{"name":"pm0031_00_Body1","uri":"pm0031_00_Body1.png"},{"name":"pm0031_00_Eye1","uri":"pm0031_00_Eye1.png"}],"materials":[{"alphaMode":"OPAQUE","name":"Material__127","pbrMetallicRoughness":{"baseColorFactor":[0.6400000190734865,0.6400000190734865,0.6400000190734865,1],"baseColorTexture":{"index":0},"metallicFactor":0}},{"alphaMode":"OPAQUE","name":"Material__128","pbrMetallicRoughness":{"baseColorFactor":[0.6400000190734865,0.6400000190734865,0.6400000190734865,1],"baseColorTexture":{"index":1},"metallicFactor":0}}],"meshes":[{"name":"Nidoqueen","primitives":[{"material":1,"extensions":{"ALI_amc_mesh_compression":{"bufferView":1}}},{"material":0,"extensions":{"ALI_amc_mesh_compression":{"bufferView":2}}}]}],"nodes":[{"children":[3,4],"name":"Armature","scale":[0.02539999969303608,0.02539999969303608,0.02539999969303608]},{"name":"Camera","rotation":[0.483536034822464,0.33687159419059753,-0.20870360732078552,0.7804827094078064],"translation":[7.481131553649902,5.34366512298584,6.5076398849487305]},{"name":"Lamp","rotation":[0.16907575726509094,0.7558802962303162,-0.27217137813568115,0.570947527885437],"scale":[1,1,0.9999999403953552],"translation":[4.076245307922363,5.903861999511719,-1.0054539442062378]},{"mesh":0,"name":"Nidoqueen","skin":0},{"children":[5,62],"name":"Armature_pm0031_00","rotation":[-0.7071068286895752,0,0,0.7071068286895752]},{"children":[6],"name":"Armature_Origin"},{"children":[7,44],"name":"Armature_Waist","rotation":[0,-0.7731844186782837,0,0.6341812610626221],"translation":[0,-2.7814321517944336,50.45869827270508]},{"children":[8],"name":"Armature_Spine1","rotation":[0,-2.8312206268310547e-7,0,1],"translation":[-0.000005990898443997139,0.000019311904907226562,-0.000030032184440642595]},{"children":[9,21,32],"name":"Armature_Spine2","rotation":[0,-0.04224032908678055,0,0.9991074800491333],"scale":[1.0000001192092896,1,1.0000001192092896],"translation":[9.314399719238281,-1.894683599472046,-1.858036756515503]},{"children":[10],"name":"Armature_LShoulder","rotation":[0,0.7492923140525818,0,0.6622394323348999],"scale":[0.9999999403953552,1,0.9999999403953552],"translation":[10.364287376403809,-2.7547545433044434,-14.201138496398926]},{"children":[11],"name":"Armature_LArm","rotation":[0,0.07902316749095917,0,0.9968727827072144],"scale":[0.9999999403953552,1,0.9999999403953552],"translation":[15.562424659729004,9.5367431640625e-7,-0.000022411346435546875]},{"children":[12],"name":"Armature_LForeArm","rotation":[0,-2.2737367544323206e-13,0,1],"translation":[24.090892791748047,0,-0.0000022030144464224577]},{"children":[13],"name":"Armature_LHand","rotation":[0,2.2737367544323206e-13,0,1],"translation":[21.917503356933594,-0.000001430511474609375,0.00000945129431784153]},{"children":[14,15,17,19],"name":"Armature_LHandSub","translation":[-4.3457839637994766e-7,0,0.0000018219288904219866]},{"name":"Armature_EndLHandSub","translation":[19.83660125732422,0,0.000014156976249068975]},{"children":[16],"name":"Armature_LFingerA","rotation":[0,-3.2443949748994783e-9,0,1],"translation":[4.848404407501221,0.3705005645751953,-7.4637017250061035]},{"name":"Armature_EndLFingerA","translation":[9.524453163146973,0,0.000012526812497526407]},{"children":[18],"name":"Armature_LFingerB","translation":[4.913897514343262,1.0493512153625488,6.583798885345459]},{"name":"Armature_EndLFingerB","translation":[9.259554862976074,0,-0.0000013740500435233116]},{"children":[20],"name":"Armature_LFingerC","rotation":[0,-3.2443949748994783e-9,0,1],"translation":[8.493497848510742,3.9354805946350098,-0.3861023485660553]},{"name":"Armature_EndLFingerC","translation":[8.452108383178711,0,0.000009865325409919024]},{"children":[22],"name":"Armature_Neck","rotation":[0,0.08317936211824417,0,0.9965347051620483],"translation":[21.30599594116211,-6.411055088043213,-6.15897274017334]},{"children":[23,25,28,29],"name":"Armature_Head","rotation":[0,-0.200291246175766,0,0.9797364473342896],"scale":[0.9999999403953552,1,0.9999999403953552],"translation":[8.369006156921387,-0.9718647003173828,-0.9654297232627869]},{"children":[24],"name":"Armature_Jaw","rotation":[0,-0.6907680034637451,0,0.7230764627456665],"translation":[2.4711389541625977,-3.66672420501709,-1.4088574647903442]},{"name":"Armature_EndJaw","rotation":[0,-1.4901161193847656e-8,0,1],"translation":[7.450477600097656,-32.034088134765625,14.578149795532227]},{"children":[26],"name":"Armature_LEar1","rotation":[0,0.6455605030059814,0,0.7637091875076294],"translation":[5.532608985900879,-5.17308235168457,-22.702587127685547]},{"children":[27],"name":"Armature_LEar2","rotation":[0,7.450580596923828e-8,0,1],"translation":[13.071163177490234,-1.2887916564941406,-2.320779800415039]},{"name":"Armature_EndLEar2","rotation":[0,-1.4901162970204496e-8,0,1],"scale":[0.9999999403953552,1,0.9999999403953552],"translation":[13.071161270141602,-1.2887802124023438,-2.3207836151123047]},{"name":"Armature_EndHead","rotation":[0,1.4901161193847656e-8,0,1],"translation":[24.62673568725586,-16.161781311035156,-14.040244102478027]},{"children":[30],"name":"Armature_REar1","rotation":[0,-0.29367855191230774,0,0.9559042453765869],"translation":[22.354671478271484,-5.173009872436523,6.80356502532959]},{"children":[31],"name":"Armature_REar2","rotation":[0,4.917383762403915e-7,0,1],"scale":[0.9999999403953552,1,0.9999999403953552],"translation":[13.256853103637695,-1.2888031005859375,-0.7067451477050781]},{"name":"Armature_EndREar2","translation":[13.256507873535156,-1.2888202667236328,-0.7058315277099609]},{"children":[33],"name":"Armature_RShoulder","rotation":[0,-0.5359155535697937,0,0.8442716002464294],"scale":[0.9999999403953552,1,0.9999999403953552],"translation":[16.342824935913086,-2.7547335624694824,6.480899810791016]},{"children":[34],"name":"Armature_RArm","rotation":[0,-0.07902271300554276,0,0.9968729019165039],"scale":[0.9999999403953552,1,0.9999999403953552],"translation":[15.562431335449219,4.76837158203125e-7,0.000049591064453125]},{"children":[35],"name":"Armature_RForeArm","rotation":[0,6.458435564127285e-9,0,1],"translation":[24.090906143188477,9.5367431640625e-7,-0.000012473174137994647]},{"children":[36],"name":"Armature_RHand","translation":[21.917495727539062,-4.76837158203125e-7,0.000011726355296559632]},{"children":[37,39,41,43],"name":"Armature_RHandSub","translation":[0.0000031480012694373727,0,-0.000003532433765940368]},{"children":[38],"name":"Armature_RFingerA","translation":[4.848399639129639,0.37049055099487305,7.463701248168945]},{"name":"Armature_EndRFingerA","translation":[9.524401664733887,0,0.0000050303933676332235]},{"children":[40],"name":"Armature_RFingerB","rotation":[0,1.192093463942001e-7,0,1],"translation":[4.9138994216918945,1.049349308013916,-6.583807468414307]},{"name":"Armature_EndRFingerB","translation":[9.259500503540039,0,0.0000031315430533140898]},{"children":[42],"name":"Armature_RFingerC","translation":[8.49350357055664,3.9354801177978516,0.3860950171947479]},{"name":"Armature_EndRFingerC","translation":[8.452098846435547,0,-2.6535417418926954e-7]},{"name":"Armature_EndRHandSub","translation":[19.836498260498047,0,-0.000006215806934051216]},{"children":[45,51,55,56],"name":"Armature_Hips","rotation":[0,-0.9951581358909607,0,0.09828711301088333],"scale":[1,0.9999999403953552,1],"translation":[-0.000001222245145982015,0.0000021457672119140625,-0.000006127075721451547]},{"children":[46],"name":"Armature_RThigh","rotation":[0,2.930619302787818e-8,0,1],"translation":[12.553996086120605,0.25821995735168457,-29.6278133392334]},{"children":[47],"name":"Armature_RLeg","translation":[16.13140296936035,-0.000010013580322265625,0.000003629378625191748]},{"children":[48,49],"name":"Armature_RFoot","rotation":[0,-0.7034444212913513,0,0.7107503414154053],"scale":[0.9999999403953552,1,0.9999999403953552],"translation":[14.732423782348633,0.000010013580322265625,-0.000026167177566094324]},{"name":"Armature_EndRFoot","rotation":[0,1.1175870895385742e-8,0,1],"translation":[-0.0000014603137969970703,-22.951303482055664,-2.086162567138672e-7]},{"children":[50],"name":"Armature_RToe","rotation":[0,-0.008120330050587654,0,0.9999670386314392],"scale":[0.9999998807907104,1,0.9999998807907104],"translation":[0.010577540844678879,-12.739296913146973,-4.5857391357421875]},{"name":"Armature_EndRToe","rotation":[0,2.3283064365386963e-10,0,1],"translation":[-0.0011486401781439781,-10.465497970581055,0.001161828637123108]},{"children":[52],"name":"Armature_Tail1","rotation":[0,0.6571152210235596,0,0.7537901401519775],"translation":[21.987865447998047,30.937305450439453,9.204959496855736e-7]},{"children":[53],"name":"Armature_Tail2","rotation":[0,0.03004470095038414,0,0.9995485544204712],"scale":[0.9999999403953552,0.9999999403953552,0.9999999403953552],"translation":[0.34033864736557007,18.12179183959961,2.4718129634857178]},{"children":[54],"name":"Armature_Tail3","rotation":[0,0.014586172066628933,0,0.9998936653137207],"translation":[0.10811436176300049,18.3453369140625,1.4062409400939941]},{"name":"Armature_EndTail3","rotation":[0,1.862645149230957e-9,0,1],"translation":[0.053181909024715424,23.50627899169922,1.117441177368164]},{"name":"Armature_EndHips","rotation":[0,2.930619302787818e-8,0,1],"translation":[41.271400451660156,0.0000021457672119140625,-0.000003903242031810805]},{"children":[57],"name":"Armature_LThigh","rotation":[0,2.930619302787818e-8,0,1],"translation":[12.553898811340332,0.2582099437713623,29.627790451049805]},{"children":[58],"name":"Armature_LLeg","translation":[16.131498336791992,-2.384185791015625e-7,0.000003631561412476003]},{"children":[59,60],"name":"Armature_LFoot","rotation":[0,-0.7034444212913513,0,0.7107503414154053],"scale":[0.9999999403953552,1,0.9999999403953552],"translation":[14.732276916503906,4.76837158203125e-7,0.00001579756644787267]},{"name":"Armature_EndLFoot","rotation":[0,1.862645149230957e-8,0,1],"translation":[-0.000021927058696746826,-22.95130157470703,-0.000004798173904418945]},{"children":[61],"name":"Armature_LToe","rotation":[0,-0.0021868625190109015,0,0.999997615814209],"translation":[-0.010549984872341156,-12.739339828491211,-4.585744380950928]},{"name":"Armature_EndLToe","rotation":[0,2.3283064365386963e-10,0,1],"translation":[0.001105189323425293,-10.465502738952637,-0.001098737120628357]},{"name":"Armature_pm0031_00_Skin"}],"samplers":[{}],"scene":0,"scenes":[{"name":"Scene","nodes":[0,2,1]}],"skins":[{"inverseBindMatrices":0,"joints":[4,5,6,7,8,9,10,11,12,13,14,15,16,17,18,19,20,21,22,23,24,25,26,27,28,29,30,31,32,33,34,35,36,37,38,39,40,41,42,43,44,45,46,47,48,49,50,51,52,53,54,55,56,57,58,59,60,61,62],"skeleton":0}],"textures":[{"sampler":0,"source":0},{"sampler":0,"source":1}],"extensionsUsed":["ALI_amc_mesh_compression"],"extensionsRequired":["ALI_amc_mesh_compression"]}