{"accessors":[{"bufferView":0,"componentType":5126,"count":15,"max":[1,0,3.552713678800501e-15,0,9.908491890609503e-16,0,1,0,0,-1,0,0,28.12590980529785,0,0,1],"min":[1,0,-9.908491890609503e-16,0,-3.552713678800501e-15,0,1,0,0,-1,0,0,-27.77615737915039,-95.69189453125,-57.58411407470703,1],"type":"MAT4","byteOffset":0}],"asset":{"generator":"Khronos Blender glTF 2.0 exporter","version":"2.0"},"bufferViews":[{"buffer":0,"byteLength":960,"byteOffset":0},{"buffer":0,"byteOffset":960,"byteLength":60543},{"buffer":0,"byteOffset":61503,"byteLength":2831},{"buffer":0,"byteOffset":64334,"byteLength":2155}],"buffers":[{"byteLength":66489,"uri":"buffer.bin"}],"images":[{"name":"pm0101_00_Body1","uri":"pm0101_00_Body1.png"},{"name":"pm0101_00_Eye1","uri":"pm0101_00_Eye1.png"},{"name":"pm0101_00_Mouth1.tga","uri":"pm0101_00_Mouth1.tga.png"}],"materials":[{"name":"Body_mat","pbrMetallicRoughness":{"baseColorFactor":[0.6400000190734865,0.6400000190734865,0.6400000190734865,1],"baseColorTexture":{"index":0},"metallicFactor":0}},{"name":"Eye_mat","pbrMetallicRoughness":{"baseColorFactor":[0.6400000190734865,0.6400000190734865,0.6400000190734865,1],"baseColorTexture":{"index":1},"metallicFactor":0}},{"name":"Mouth_mat","pbrMetallicRoughness":{"baseColorFactor":[0.6400000190734865,0.6400000190734865,0.6400000190734865,1],"baseColorTexture":{"index":2},"metallicFactor":0}}],"meshes":[{"name":"mesh_0_Body","primitives":[{"material":0,"extensions":{"ALI_amc_mesh_compression":{"bufferView":1}}},{"material":2,"extensions":{"ALI_amc_mesh_compression":{"bufferView":2}}},{"material":1,"extensions":{"ALI_amc_mesh_compression":{"bufferView":3}}}]}],"nodes":[{"children":[3,4],"name":"Armature","rotation":[0.7071068286895752,0,0,0.7071067094802856]},{"name":"Camera","rotation":[0.483536034822464,0.33687159419059753,-0.20870360732078552,0.7804827094078064],"translation":[7.481131553649902,5.34366512298584,6.5076398849487305]},{"name":"Lamp","rotation":[0.16907575726509094,0.7558802962303162,-0.27217137813568115,0.570947527885437],"scale":[1,1,0.9999999403953552],"translation":[4.076245307922363,5.903861999511719,-1.0054539442062378]},{"mesh":0,"name":"vsn_mesh_0_Body","skin":0},{"children":[5,17,18],"name":"Armature_pm0101_00","rotation":[-0.7071068286895752,0,0,0.7071068286895752]},{"children":[6],"name":"Armature_Origin"},{"children":[7,12],"name":"Armature_Waist","translation":[0,59.999996185302734,0]},{"children":[8,11],"name":"Armature_LFeeler","translation":[4.279867172241211,16.937244415283203,57.584102630615234]},{"children":[9],"name":"Armature_LFeelerA1","rotation":[0,-4.9542459453047515e-16,0,1],"translation":[-0.0000057220458984375,0.00000762939453125,0.000011444091796875]},{"children":[10],"name":"Armature_LFeelerA2","rotation":[0,4.9542459453047515e-16,0,1],"translation":[11.087998390197754,11.467033386230469,-5.094886779785156]},{"name":"Armature_LFeelerA3","translation":[12.408297538757324,7.2876129150390625,-5.354804992675781]},{"name":"Armature_LFeelerB","translation":[-0.0000057220458984375,0,-0.000011444091796875]},{"children":[13,16],"name":"Armature_RFeeler","translation":[-3.9652178287506104,17.538135528564453,57.570709228515625]},{"children":[14],"name":"Armature_RFeelerA1","translation":[0.00000286102294921875,0.0000152587890625,-0.000011444091796875]},{"children":[15],"name":"Armature_RFeelerA2","translation":[-11.45568561553955,10.928756713867188,-5.527233123779297]},{"name":"Armature_RFeelerA3","rotation":[0,1.7763568394002505e-15,0,1],"translation":[-12.705009460449219,6.8125457763671875,-5.284030914306641]},{"name":"Armature_RFeelerB","translation":[-0.0000073909759521484375,0,0]},{"name":"Armature_pm0101_00_BodySkin"},{"name":"Armature_pm0101_00_IrisSkin"}],"samplers":[{}],"scene":0,"scenes":[{"name":"Scene","nodes":[0,2,1]}],"skins":[{"inverseBindMatrices":0,"joints":[4,5,6,7,8,9,10,11,12,13,14,15,16,17,18],"skeleton":0}],"textures":[{"sampler":0,"source":0},{"sampler":0,"source":1},{"sampler":0,"source":2}],"extensionsUsed":["ALI_amc_mesh_compression"],"extensionsRequired":["ALI_amc_mesh_compression"]}