{"accessors":[{"bufferView":0,"componentType":5126,"count":37,"max":[1,0,1.424041277692939e-14,0,1.4210854715202004e-14,0,1,0,0,-1,0,0,113.91600036621094,0,9.192588806152344,1],"min":[1,0,-1.4210854715202004e-14,0,-1.424041277692939e-14,0,1,0,0,-1,0,0,-113.91600036621094,-122.86009216308594,-13.838000297546387,1],"type":"MAT4","byteOffset":0}],"asset":{"generator":"Khronos Blender glTF 2.0 exporter","version":"2.0"},"bufferViews":[{"buffer":0,"byteLength":2368,"byteOffset":0},{"buffer":0,"byteOffset":2368,"byteLength":184939},{"buffer":0,"byteOffset":187307,"byteLength":5861}],"buffers":[{"byteLength":193168,"uri":"buffer.bin"}],"images":[{"name":"pm0106_00_Body1","uri":"pm0106_00_Body1.png"},{"name":"pm0106_00_Eye1","uri":"pm0106_00_Eye1.png"}],"materials":[{"name":"Body_mat","pbrMetallicRoughness":{"baseColorFactor":[0.6400000190734865,0.6400000190734865,0.6400000190734865,1],"baseColorTexture":{"index":0},"metallicFactor":0}},{"name":"Eye_mat","pbrMetallicRoughness":{"baseColorFactor":[0.6400000190734865,0.6400000190734865,0.6400000190734865,1],"baseColorTexture":{"index":1},"metallicFactor":0}}],"meshes":[{"name":"mesh_1_Body","primitives":[{"material":0,"extensions":{"ALI_amc_mesh_compression":{"bufferView":1}}},{"material":1,"extensions":{"ALI_amc_mesh_compression":{"bufferView":2}}}]}],"nodes":[{"children":[3,4],"name":"Armature","rotation":[0.7071068286895752,0,0,0.7071067094802856]},{"name":"Camera","rotation":[0.483536034822464,0.33687159419059753,-0.20870360732078552,0.7804827094078064],"translation":[7.481131553649902,5.34366512298584,6.5076398849487305]},{"name":"Lamp","rotation":[0.16907575726509094,0.7558802962303162,-0.27217137813568115,0.570947527885437],"scale":[1,1,0.9999999403953552],"translation":[4.076245307922363,5.903861999511719,-1.0054539442062378]},{"mesh":0,"name":"vsn_mesh_1_Body","skin":0},{"children":[5,40],"name":"Armature_pm0106_00","rotation":[-0.7071068286895752,0,0,0.7071068286895752]},{"children":[6],"name":"Armature_Origin"},{"children":[7,27],"name":"Armature_Waist","translation":[0,82.6388931274414,-1.4663480520248413]},{"children":[8],"name":"Armature_Spine1"},{"children":[9,18],"name":"Armature_Spine2","translation":[0.0000036588896819012007,11.655624389648438,0]},{"children":[10],"name":"Armature_LArm","rotation":[0,-1.7763568394002505e-15,0,1],"translation":[29.5366153717041,27.027076721191406,1.4663480520248413]},{"children":[11],"name":"Armature_LForeArm","rotation":[0,1.7763568394002505e-15,0,1],"translation":[38.570335388183594,0.00000762939453125,1.6819600183112793e-12]},{"children":[12,14,16],"name":"Armature_LHand","translation":[26.795089721679688,0,0]},{"children":[13],"name":"Armature_LFingerA1","translation":[8.864860534667969,0.7466049194335938,5.270937442779541]},{"name":"Armature_LFingerA2","rotation":[0,7.105427357601002e-15,0,1],"translation":[7.706993103027344,0,3.710984706878662]},{"children":[15],"name":"Armature_LFingerB1","rotation":[0,7.105427357601002e-15,0,1],"translation":[9.868263244628906,1.5384063720703125,-1.8189894035458565e-12]},{"name":"Armature_LFingerB2","rotation":[0,-1.4210854715202004e-14,0,1],"translation":[9.14569091796875,-0.00000762939453125,1.2996808490539635e-13]},{"children":[17],"name":"Armature_LFingerC1","translation":[8.795265197753906,0.7675018310546875,-5.361518859863281]},{"name":"Armature_LFingerC2","rotation":[0,7.120206388464695e-15,0,1],"translation":[8.28759765625,0,-3.8310699462890625]},{"children":[19],"name":"Armature_RArm","translation":[-29.536596298217773,27.027488708496094,1.4663480520248413]},{"children":[20],"name":"Armature_RForeArm","translation":[-38.570289611816406,0,0]},{"children":[21,23,25],"name":"Armature_RHand","translation":[-26.795082092285156,0.000091552734375,1.8189894035458565e-12]},{"children":[22],"name":"Armature_RFingerA1","translation":[-8.865036010742188,0.74700927734375,5.270932197570801]},{"name":"Armature_RFingerA2","translation":[-7.707000732421875,-0.0000152587890625,3.7109718322753906]},{"children":[24],"name":"Armature_RFingerB1","translation":[-9.868034362792969,1.537994384765625,0]},{"name":"Armature_RFingerB2","translation":[-9.146003723144531,0,0]},{"children":[26],"name":"Armature_RFingerC1","translation":[-8.795028686523438,0.766998291015625,-5.361519813537598]},{"name":"Armature_RFingerC2","translation":[-8.288002014160156,0,-3.8310365676879883]},{"children":[28,34],"name":"Armature_Hips"},{"children":[29],"name":"Armature_LHips","translation":[15.094359397888184,-19.884258270263672,0.31820595264434814]},{"children":[30],"name":"Armature_LThigh","translation":[0.0000019073486328125,-4.610664367675781,-0.00002002716064453125]},{"children":[31],"name":"Armature_LLeg1","rotation":[0,1.7763568394002505e-15,0,1],"translation":[-9.5367431640625e-7,-12.61322021484375,0.0000020265579223632812]},{"children":[32],"name":"Armature_LLeg2","rotation":[0,-1.7763568394002505e-15,0,1],"translation":[9.5367431640625e-7,-15.024169921875,0.0000020265579223632812]},{"children":[33],"name":"Armature_LFoot","rotation":[0,7.105427357601002e-15,0,1],"translation":[-9.5367431640625e-7,-13.320699691772461,0.0069561004638671875]},{"name":"Armature_LToe","rotation":[0,-7.105427357601002e-15,0,1],"translation":[-1.971756091734278e-13,-12.878426551818848,14.979182243347168]},{"children":[35],"name":"Armature_RHips","rotation":[0,1.7763568394002505e-15,0,1],"translation":[-15.094400405883789,-19.884258270263672,0.3182089328765869]},{"children":[36],"name":"Armature_RThigh","rotation":[0,-1.7763568394002505e-15,0,1],"translation":[-9.5367431640625e-7,-4.610664367675781,-0.000019788742065429688]},{"children":[37],"name":"Armature_RLeg1","translation":[0.0000019073486328125,-12.616683959960938,0.0000020265579223632812]},{"children":[38],"name":"Armature_RLeg2","translation":[0,-15.00385856628418,0.0000020265579223632812]},{"children":[39],"name":"Armature_RFoot","rotation":[0,7.105427357601002e-15,0,1],"translation":[-9.5367431640625e-7,-13.308277130126953,0.006952762603759766]},{"name":"Armature_RToe","rotation":[0,-7.105427357601002e-15,0,1],"translation":[9.536741458759934e-7,-12.922063827514648,14.979202270507812]},{"name":"Armature_pm0106_00_Skin"}],"samplers":[{}],"scene":0,"scenes":[{"name":"Scene","nodes":[0,2,1]}],"skins":[{"inverseBindMatrices":0,"joints":[4,5,6,7,8,9,10,11,12,13,14,15,16,17,18,19,20,21,22,23,24,25,26,27,28,29,30,31,32,33,34,35,36,37,38,39,40],"skeleton":0}],"textures":[{"sampler":0,"source":0},{"sampler":0,"source":1}],"extensionsUsed":["ALI_amc_mesh_compression"],"extensionsRequired":["ALI_amc_mesh_compression"]}