{"accessors":[{"bufferView":0,"componentType":5126,"count":45,"max":[1.0000001192092896,0,1.0000001192092896,0,0.9997584223747253,0,1.0000001192092896,0,0,-1,0,0,98.81245422363281,25.706607818603516,85.27020263671875,1],"min":[-1,-2.119276298504988e-13,-0.9997584223747253,0,-1.0000001192092896,-1.0596382082894706e-7,-1,0,0,-1,-1.059638137235197e-7,0,-126.98882293701172,-2.1129698753356934,-89.62065124511719,1],"type":"MAT4","byteOffset":0}],"asset":{"generator":"Khronos Blender glTF 2.0 exporter","version":"2.0"},"bufferViews":[{"buffer":0,"byteLength":2880,"byteOffset":0},{"buffer":0,"byteOffset":2880,"byteLength":140611},{"buffer":0,"byteOffset":143491,"byteLength":1955}],"buffers":[{"byteLength":145446,"uri":"buffer.bin"}],"images":[{"name":"pm0107_00_Eye1","uri":"pm0107_00_Eye1.png"},{"name":"pm0107_00_Body1","uri":"pm0107_00_Body1.png"},{"name":"pm0107_00_Iris1","uri":"pm0107_00_Iris1.png"}],"materials":[{"alphaMode":"OPAQUE","name":"Material__109","pbrMetallicRoughness":{"baseColorFactor":[0.6400000190734865,0.6400000190734865,0.6400000190734865,1],"baseColorTexture":{"index":0},"metallicFactor":0}},{"alphaMode":"OPAQUE","name":"Material__110","pbrMetallicRoughness":{"baseColorFactor":[0.6400000190734865,0.6400000190734865,0.6400000190734865,1],"baseColorTexture":{"index":1},"metallicFactor":0}},{"alphaMode":"MASK","name":"Material__111","pbrMetallicRoughness":{"baseColorFactor":[0.6400000190734865,0.6400000190734865,0.6400000190734865,1],"baseColorTexture":{"index":2},"metallicFactor":0}}],"meshes":[{"name":"Hitmonchan","primitives":[{"material":1,"extensions":{"ALI_amc_mesh_compression":{"bufferView":1}}},{"material":0,"extensions":{"ALI_amc_mesh_compression":{"bufferView":2}}}]}],"nodes":[{"children":[2,4],"name":"Armature","scale":[0.02539999969303608,0.02539999969303608,0.02539999969303608]},{"name":"Camera","rotation":[0.483536034822464,0.33687159419059753,-0.20870360732078552,0.7804827094078064],"translation":[7.481131553649902,5.34366512298584,6.5076398849487305]},{"mesh":0,"name":"Hitmonchan","skin":0},{"name":"Lamp","rotation":[0.16907575726509094,0.7558802962303162,-0.27217137813568115,0.570947527885437],"scale":[1,1,0.9999999403953552],"translation":[4.076245307922363,5.903861999511719,-1.0054539442062378]},{"children":[5,47,48],"name":"Armature_pm0107_00","rotation":[-0.7071068286895752,0,0,0.7071068286895752]},{"children":[6],"name":"Armature_Origin"},{"children":[7,33],"name":"Armature_Waist","rotation":[0,-0.6992921829223633,0,0.7148359417915344],"scale":[0.9999999403953552,1,0.9999999403953552],"translation":[0,-0.08925182372331619,64.63130187988281]},{"children":[8],"name":"Armature_Spine1","rotation":[0,5.960464477539062e-7,0,1],"translation":[0.0000010354319783800747,-0.000010475516319274902,-0.000047094697947613895]},{"children":[9,19,23],"name":"Armature_Spine2","rotation":[0,-0.06994766741991043,0,0.9975506663322449],"scale":[0.9999999403953552,1,0.9999999403953552],"translation":[8.415657997131348,0.1851237565279007,0.185063436627388]},{"children":[10,12],"name":"Armature_RShoulder","rotation":[0,-0.5742085576057434,0,0.8187090754508972],"scale":[0.9999998807907104,1,0.9999998807907104],"translation":[11.537980079650879,-0.7252007722854614,8.267738342285156]},{"children":[11],"name":"Armature_RFeeler","rotation":[0,0.013746308162808418,0,0.999905526638031],"translation":[4.271244049072266,-0.26241379976272583,-1.8071489334106445]},{"name":"Armature_EndRFeeler","translation":[25.78331184387207,1.7881393432617188e-7,0.00006961822509765625]},{"children":[13],"name":"Armature_RArm","rotation":[0,-0.11449587345123291,0,0.9934237003326416],"translation":[6.5131025314331055,-0.26244765520095825,-0.2621746063232422]},{"children":[14],"name":"Armature_RForeArm","rotation":[0,-1.256677819583274e-7,0,1],"translation":[26.42670249938965,1.1920928955078125e-7,-0.00009007951302919537]},{"children":[15,18],"name":"Armature_RHand","rotation":[0,1.1920928955078125e-7,0,1],"translation":[19.505197525024414,-0.000009179115295410156,0.000007743608875898644]},{"children":[16],"name":"Armature_RFinger1","rotation":[0,-0.9650305509567261,0,0.26213768124580383],"translation":[4.967215061187744,-7.103052139282227,3.7678120136260986]},{"children":[17],"name":"Armature_RFinger2","rotation":[0,-0.013069689273834229,0,0.9999145865440369],"scale":[0.9999998211860657,1,0.9999998211860657],"translation":[0.5443000793457031,-4.855926990509033,-1.5808639526367188]},{"name":"Armature_EndRFinger2","translation":[0.5622024536132812,-5.078702926635742,-1.6435890197753906]},{"name":"Armature_EndRHand","translation":[21.082796096801758,-0.0000010132789611816406,0.00004576345963869244]},{"children":[20,21],"name":"Armature_Head","rotation":[0,-0.008507023565471172,0,0.9999638199806213],"scale":[0.9999999403953552,1,0.9999999403953552],"translation":[19.654491424560547,-2.34688401222229,-2.3305113315582275]},{"name":"Armature_EndHead","translation":[34.992862701416016,-4.797945022583008,-4.754269599914551]},{"children":[22],"name":"Armature_Jaw","rotation":[0,-0.9090126156806946,0,0.41676872968673706],"translation":[2.2779741287231445,-9.00869369506836,-0.3094467222690582]},{"name":"Armature_EndJaw","translation":[6.750444412231445,-7.984057426452637,5.977445125579834]},{"children":[24,31],"name":"Armature_LShoulder","rotation":[0,0.6360850930213928,0,0.7716189622879028],"scale":[0.9999998807907104,1,0.9999998807907104],"translation":[9.284510612487793,-0.7251680493354797,-10.736602783203125]},{"children":[25],"name":"Armature_LArm","rotation":[0,0.15437281131744385,0,0.9880127310752869],"translation":[6.513236045837402,-0.2624664306640625,-0.2622032165527344]},{"children":[26],"name":"Armature_LForeArm","rotation":[0,1.4901161193847656e-8,0,1],"translation":[26.426599502563477,1.1920928955078125e-7,9.547220543026924e-7]},{"children":[27,28],"name":"Armature_LHand","rotation":[0,4.917383193969727e-7,0,1],"translation":[19.50518226623535,-0.000006139278411865234,-0.00005831563612446189]},{"name":"Armature_EndLHand","translation":[21.082788467407227,0,0.00000953406561166048]},{"children":[29],"name":"Armature_LFinger1","rotation":[0,0.0663260743021965,0,0.9977980852127075],"translation":[4.967257022857666,-7.1031646728515625,-3.7676610946655273]},{"children":[30],"name":"Armature_LFinger2","rotation":[0,0.011004526168107986,0,0.9999394416809082],"translation":[0.5442600250244141,-4.855752944946289,-1.5810136795043945]},{"name":"Armature_EndLFinger2","rotation":[0,7.450580596923828e-9,0,1],"translation":[0.5621223449707031,-5.078706741333008,-1.6435785293579102]},{"children":[32],"name":"Armature_LFeeler","rotation":[0,0.02649526484310627,0,0.9996489882469177],"translation":[4.402710914611816,-0.2624553442001343,1.4579834938049316]},{"name":"Armature_EndLFeeler","scale":[0.9999999403953552,1,0.9999999403953552],"translation":[25.78329086303711,7.748603820800781e-7,0.00000762939453125]},{"children":[34,40,41],"name":"Armature_Hips","rotation":[0,0.9999395608901978,0,0.01099475659430027],"translation":[3.7833828514521883e-7,0.000003814697265625,-0.00001720801265037153]},{"children":[35],"name":"Armature_RThigh","rotation":[0,0.005765704438090324,0,0.9999834299087524],"translation":[7.7372565269470215,0.25590258836746216,-7.832928657531738]},{"children":[36],"name":"Armature_RLeg","rotation":[0,0.03092535212635994,0,0.999521791934967],"scale":[0.9999999403953552,1,0.9999999403953552],"translation":[24.110673904418945,0.27807092666625977,0.27803099155426025]},{"children":[37,39],"name":"Armature_RFoot","rotation":[0,-0.7383728623390198,0,0.6743927001953125],"translation":[22.62880516052246,1.6682443618774414,1.6637645959854126]},{"children":[38],"name":"Armature_RToe","rotation":[0,-8.102506399154663e-8,0,1],"translation":[0.00001882016658782959,-13.534282684326172,-5.702713489532471]},{"name":"Armature_EndRToe","rotation":[0,9.313225746154785e-10,0,1],"translation":[6.854534149169922e-7,-14.285296440124512,-0.00004310905933380127]},{"name":"Armature_EndRFoot","rotation":[0,-2.2351741790771484e-8,0,1],"translation":[0.000006362795829772949,-25.494604110717773,-0.00008152425289154053]},{"name":"Armature_EndHips","rotation":[0,6.003983799018897e-8,0,1],"translation":[19.7001953125,-7.450580596923828e-9,-0.000003074077540077269]},{"children":[42],"name":"Armature_LThigh","rotation":[0,0.005765704438090324,0,0.9999834299087524],"translation":[7.73736047744751,0.2559027075767517,7.832935333251953]},{"children":[43],"name":"Armature_LLeg","rotation":[0,0.03092535212635994,0,0.999521791934967],"scale":[0.9999999403953552,1,0.9999999403953552],"translation":[24.110578536987305,0.27806389331817627,0.27802810072898865]},{"children":[44,45],"name":"Armature_LFoot","rotation":[0,-0.7325701713562012,0,0.6806915998458862],"translation":[22.628820419311523,1.6682510375976562,1.6637505292892456]},{"name":"Armature_EndLFoot","rotation":[0,-3.725290298461914e-9,0,1],"translation":[0.000001557964424137026,-25.49469757080078,-0.00004807997902389616]},{"children":[46],"name":"Armature_LToe","rotation":[0,-9.553673407936003e-9,0,1],"translation":[0.000012118629456381314,-13.534278869628906,-5.702735900878906]},{"name":"Armature_EndLToe","rotation":[-5.298191041447353e-8,1.1368683772161603e-13,3.3881317890172014e-21,1],"translation":[2.816232154145837e-7,-14.285299301147461,-0.00002772566040221136]},{"name":"Armature_pm0107_00_BodySkin"},{"name":"Armature_pm0107_00_IrisSkin"}],"samplers":[{}],"scene":0,"scenes":[{"name":"Scene","nodes":[0,3,1]}],"skins":[{"inverseBindMatrices":0,"joints":[4,5,6,7,8,9,10,11,12,13,14,15,16,17,18,19,20,21,22,23,24,25,26,27,28,29,30,31,32,33,34,35,36,37,38,39,40,41,42,43,44,45,46,47,48],"skeleton":0}],"textures":[{"sampler":0,"source":0},{"sampler":0,"source":1},{"sampler":0,"source":2}],"extensionsUsed":["ALI_amc_mesh_compression"],"extensionsRequired":["ALI_amc_mesh_compression"]}