{"accessors":[{"bufferView":0,"componentType":5126,"count":62,"max":[1,5.472883257695571e-10,0.9981757402420044,0,0.9989057183265686,5.9602125901392355e-8,1,0,0,-1,5.960464477539063e-8,0,84.5037841796875,72.46284484863281,41.84299087524414,1],"min":[-0.9999970197677612,0,-0.9989057183265686,0,-0.9981757402420044,0,-0.9999970197677612,0,-1.1102228922762585e-16,-1.0000001192092896,0,0,-126.77068328857422,-93.77941131591797,-76.67770385742188,1],"type":"MAT4","byteOffset":0}],"asset":{"generator":"Khronos Blender glTF 2.0 exporter","version":"2.0"},"bufferViews":[{"buffer":0,"byteLength":3968,"byteOffset":0},{"buffer":0,"byteOffset":3968,"byteLength":36945},{"buffer":0,"byteOffset":40913,"byteLength":5083},{"buffer":0,"byteOffset":45996,"byteLength":95623},{"buffer":0,"byteOffset":141619,"byteLength":46451}],"buffers":[{"byteLength":188070,"uri":"buffer.bin"}],"images":[{"name":"pm0002_00_BodyA1","uri":"pm0002_00_BodyA1.png"},{"name":"pm0002_00_Eye1","uri":"pm0002_00_Eye1.png"},{"name":"pm0002_00_BodyB1","uri":"pm0002_00_BodyB1.png"},{"name":"pm0002_00_BodyC1","uri":"pm0002_00_BodyC1.png"}],"materials":[{"alphaMode":"OPAQUE","name":"Material__46","pbrMetallicRoughness":{"baseColorFactor":[0.6400000190734865,0.6400000190734865,0.6400000190734865,1],"baseColorTexture":{"index":0},"metallicFactor":0}},{"alphaMode":"OPAQUE","name":"Material__47","pbrMetallicRoughness":{"baseColorFactor":[0.6400000190734865,0.6400000190734865,0.6400000190734865,1],"baseColorTexture":{"index":1},"metallicFactor":0}},{"alphaMode":"OPAQUE","name":"Material__48","pbrMetallicRoughness":{"baseColorFactor":[0.6400000190734865,0.6400000190734865,0.6400000190734865,1],"baseColorTexture":{"index":2},"metallicFactor":0}},{"alphaMode":"OPAQUE","name":"Material__49","pbrMetallicRoughness":{"baseColorFactor":[0.6400000190734865,0.6400000190734865,0.6400000190734865,1],"baseColorTexture":{"index":3},"metallicFactor":0}}],"meshes":[{"name":"Ivysaur","primitives":[{"material":3,"extensions":{"ALI_amc_mesh_compression":{"bufferView":1}}},{"material":1,"extensions":{"ALI_amc_mesh_compression":{"bufferView":2}}},{"material":0,"extensions":{"ALI_amc_mesh_compression":{"bufferView":3}}},{"material":2,"extensions":{"ALI_amc_mesh_compression":{"bufferView":4}}}]}],"nodes":[{"children":[2,4],"name":"Armature","scale":[0.02539999969303608,0.02539999969303608,0.02539999969303608]},{"name":"Camera","rotation":[0.483536034822464,0.33687159419059753,-0.20870360732078552,0.7804827094078064],"translation":[7.481131553649902,5.34366512298584,6.5076398849487305]},{"mesh":0,"name":"Ivysaur","skin":0},{"name":"Lamp","rotation":[0.16907575726509094,0.7558802962303162,-0.27217137813568115,0.570947527885437],"scale":[1,1,0.9999999403953552],"translation":[4.076245307922363,5.903861999511719,-1.0054539442062378]},{"children":[5,63,64,65],"name":"Armature_pm0002_00","rotation":[-0.7071068286895752,0,0,0.7071068286895752]},{"children":[6],"name":"Armature_Origin"},{"children":[7,21],"name":"Armature_Waist","rotation":[0,-0.9959506988525391,0,0.0899021327495575],"scale":[1,0.9999999403953552,1],"translation":[0,15.932297706604004,37.83879852294922]},{"children":[8,14,20],"name":"Armature_Hips","rotation":[0,-0.09995600581169128,0,0.9949918985366821],"scale":[0.9999999403953552,1,0.9999999403953552],"translation":[-0.000012040616638842039,0.0000152587890625,0.000029280690796440467]},{"children":[9],"name":"Armature_LThigh","rotation":[0,-0.7361782193183899,0,0.6767877340316772],"translation":[-22.739137649536133,15.44736385345459,6.000463485717773]},{"children":[10],"name":"Armature_LLeg","rotation":[0,0.19688880443572998,0,0.9804258346557617],"translation":[16.516651153564453,-1.4069671630859375,-0.9107695817947388]},{"children":[11,13],"name":"Armature_LFoot","rotation":[0,-0.8025017380714417,0,0.5966498851776123],"translation":[10.347103118896484,2.9846439361572266,1.851581335067749]},{"children":[12],"name":"Armature_LToe","rotation":[0,-0.00010126509732799605,0,1],"translation":[3.305833339691162,-5.7259979248046875,-2.7289891242980957]},{"name":"Armature_EndLToe","scale":[1,0.9999999403953552,1],"translation":[5.774092674255371,-10.001033782958984,-0.0011611306108534336]},{"name":"Armature_EndLFoot","rotation":[0,-1.1605152394622564e-9,0,1],"translation":[6.652934551239014,-11.523258209228516,0.000004974834155291319]},{"children":[15],"name":"Armature_RThigh","rotation":[0,-0.7284532785415649,0,0.6850955486297607],"scale":[0.9999999403953552,1,0.9999999403953552],"translation":[22.73904800415039,15.44748592376709,6.000303268432617]},{"children":[16],"name":"Armature_RLeg","rotation":[0,0.19688893854618073,0,0.9804258346557617],"translation":[16.400814056396484,-1.406951904296875,-2.1550965309143066]},{"children":[17,19],"name":"Armature_RFoot","rotation":[0,-0.8092188835144043,0,0.5875073075294495],"translation":[9.554882049560547,2.9845638275146484,4.381220817565918]},{"children":[18],"name":"Armature_RToe","rotation":[0,0.00030301595688797534,0,0.9999999403953552],"translation":[-3.305882692337036,-5.725883483886719,-2.7290074825286865]},{"name":"Armature_EndRToe","translation":[-5.7741312980651855,-10.001008987426758,-0.003493238240480423]},{"name":"Armature_EndRFoot","rotation":[0,-5.424908522400074e-9,0,1],"translation":[-6.652937889099121,-11.523138046264648,0.000007794136763550341]},{"name":"Armature_EndHips","translation":[-0.000059402475017122924,31.207401275634766,0.00010438112076371908]},{"children":[22,26,30,34,37,41],"name":"Armature_Spine1","rotation":[0,0.000003203749656677246,0,1],"translation":[-0.000011624097169260494,-0.000011444091796875,0.00002935650627478026]},{"children":[23],"name":"Armature_LFeeler1","rotation":[0,0.9529784321784973,0,0.3030383288860321],"translation":[-7.807522296905518,-5.489802360534668,-20.5943546295166]},{"children":[24],"name":"Armature_LFeeler2","rotation":[0,0.10943202674388885,0,0.9939942955970764],"translation":[29.159868240356445,0.27552032470703125,0.00001621246337890625]},{"children":[25],"name":"Armature_LFeeler3","rotation":[0,0.09191720932722092,0,0.9957666993141174],"scale":[0.9999998807907104,0.9999999403953552,0.9999998807907104],"translation":[19.204269409179688,0.1849231719970703,-0.00000858306884765625]},{"name":"Armature_EndLFeeler3","rotation":[0,-1.1175870895385742e-8,0,1],"scale":[1,0.9999999403953552,1],"translation":[25.609947204589844,0.21050167083740234,0.00000858306884765625]},{"children":[27],"name":"Armature_FeelerB1","rotation":[0,0.9567894339561462,0,0.29078173637390137],"translation":[3.5247135162353516,7.2261810302734375,-19.36372184753418]},{"children":[28],"name":"Armature_FeelerB2","rotation":[0,0.15529221296310425,0,0.9878686666488647],"translation":[4.260812282562256,24.589406967163086,9.802319526672363]},{"children":[29],"name":"Armature_FeelerB3","rotation":[0,0.05365912616252899,0,0.9985593557357788],"scale":[0.9999999403953552,0.9999999403953552,0.9999999403953552],"translation":[0.23759150505065918,24.609725952148438,2.412412166595459]},{"name":"Armature_EndFeelerB3","rotation":[2.9802322387695312e-8,9.31322685637781e-10,2.7755573961267688e-17,1],"scale":[0.9999999403953552,0.9999999403953552,0.9999999403953552],"translation":[0.0000428133862442337,21.421791076660156,-1.0656734161784698e-7]},{"children":[31],"name":"Armature_FeelerC1","rotation":[0,0.9446296095848083,0,0.3281386196613312],"translation":[3.8704099655151367,-17.052330017089844,-21.262666702270508]},{"children":[32],"name":"Armature_FeelerC2","rotation":[0,0.143202543258667,0,0.9896934032440186],"translation":[6.062990665435791,-24.297319412231445,11.405138969421387]},{"children":[33],"name":"Armature_FeelerC3","rotation":[0,0.10225711762905121,0,0.9947580695152283],"scale":[0.9999999403953552,1,0.9999999403953552],"translation":[0.8614757657051086,-21.133737564086914,4.2238898277282715]},{"name":"Armature_EndFeelerC3","rotation":[0,7.566995918750763e-9,0,1],"translation":[0.00031955097801983356,-25.91173553466797,-0.09447567909955978]},{"children":[35],"name":"Armature_FeelerA1","rotation":[0,0.6584557294845581,0,0.7526194453239441],"scale":[0.9999999403953552,1,0.9999999403953552],"translation":[2.829470157623291,-6.0744733810424805,-15.544206619262695]},{"children":[36],"name":"Armature_FeelerA2","rotation":[0,1.4901161193847656e-8,0,1],"translation":[13.623428344726562,0.6386051177978516,0.637905478477478]},{"name":"Armature_EndFeelerA2","rotation":[0,1.862645149230957e-9,0,1],"translation":[59.567562103271484,2.792262077331543,2.7892041206359863]},{"children":[38],"name":"Armature_RFeeler1","rotation":[0,-0.9918553233146667,0,0.12737032771110535],"scale":[0.9999999403953552,1,0.9999999403953552],"translation":[14.563785552978516,-5.489802360534668,-16.522245407104492]},{"children":[39],"name":"Armature_RFeeler2","rotation":[0,-0.10942991822957993,0,0.9939945936203003],"translation":[-29.159860610961914,0.2756071090698242,0.0061626434326171875]},{"children":[40],"name":"Armature_RFeeler3","rotation":[0,-0.09181421995162964,0,0.9957762360572815],"translation":[-19.20428466796875,0.18485355377197266,0.003864288330078125]},{"name":"Armature_EndRFeeler3","rotation":[0,-3.725290298461914e-9,0,1],"translation":[-25.60992431640625,0.21055984497070312,-0.000024080276489257812]},{"children":[42,49,56],"name":"Armature_Spine2","rotation":[0,-0.05136267468333244,0,0.9986801743507385],"translation":[0.41298627853393555,-12.668609619140625,-2.268798351287842]},{"children":[43],"name":"Armature_RShoulder","rotation":[0,-0.44326984882354736,0,0.8963882327079773],"translation":[17.196138381958008,-11.550960540771484,2.68601655960083]},{"children":[44],"name":"Armature_RArm","rotation":[0,-0.3236756920814514,0,0.9461681246757507],"translation":[9.361913681030273,-0.8499279022216797,-0.8464374542236328]},{"children":[45],"name":"Armature_RForeArm","rotation":[0,-0.08069092780351639,0,0.9967392086982727],"translation":[15.193735122680664,0.9971332550048828,0.994998574256897]},{"children":[46,48],"name":"Armature_RHand","rotation":[0,-0.6741445660591125,0,0.738599419593811],"translation":[12.95245361328125,-1.2551908493041992,-1.2493886947631836]},{"children":[47],"name":"Armature_RFinger","rotation":[0,0.0000030931307719583856,0,1],"translation":[-0.7472214102745056,-3.844058036804199,-2.7020435333251953]},{"name":"Armature_EndRFinger","translation":[-2.4588258266448975,-12.649337768554688,0.00003146514791296795]},{"name":"Armature_EndRHand","rotation":[0,4.288949639885686e-9,0,1],"translation":[-3.1108665466308594,-16.003751754760742,0.00006004810711601749]},{"children":[50],"name":"Armature_LShoulder","rotation":[0,-0.9577327370643616,0,0.2876597046852112],"translation":[-17.404647827148438,-11.550948143005371,0.006522655487060547]},{"children":[51],"name":"Armature_LArm","rotation":[0,0.4663674235343933,0,0.8845911026000977],"translation":[9.361913681030273,-0.8499574661254883,-0.8465480804443359]},{"children":[52],"name":"Armature_LForeArm","rotation":[0,-0.08069086074829102,0,0.9967392086982727],"translation":[15.193757057189941,0.9971208572387695,0.9949853420257568]},{"children":[53,55],"name":"Armature_LHand","rotation":[0,-0.6704604625701904,0,0.7419452667236328],"translation":[12.952366828918457,-1.2552547454833984,-1.2494122982025146]},{"children":[54],"name":"Armature_LFinger","rotation":[0,-1.877060640254058e-8,0,1],"translation":[0.7472807168960571,-3.8440065383911133,-2.7020299434661865]},{"name":"Armature_EndLFinger","translation":[2.4587085247039795,-12.64936637878418,0.000032114970963448286]},{"name":"Armature_EndLHand","rotation":[0,-1.4148554328130558e-8,0,1],"translation":[3.110811471939087,-16.003662109375,0.00004252746293786913]},{"children":[57,59,61],"name":"Armature_Head","rotation":[0,-0.039855796843767166,0,0.999205470085144],"scale":[0.9999999403953552,1,0.9999999403953552],"translation":[0.1311240941286087,-21.929550170898438,-1.693198323249817]},{"children":[58],"name":"Armature_REar","rotation":[0,0.3762003481388092,0,0.9265384674072266],"translation":[20.653108596801758,-11.588932037353516,-16.652889251708984]},{"name":"Armature_EndREar","translation":[13.951702117919922,-0.8202533721923828,-0.19772720336914062]},{"children":[60],"name":"Armature_LEar","rotation":[0,0.872035026550293,0,0.4894435703754425],"scale":[0.9999999403953552,1,0.9999999403953552],"translation":[-20.733997344970703,-11.588977813720703,-16.55207061767578]},{"name":"Armature_EndLEar","translation":[13.545624732971191,-0.8202571868896484,-3.347043037414551]},{"children":[62],"name":"Armature_Jaw","rotation":[0,-0.2726784944534302,0,0.9621052145957947],"scale":[0.9999999403953552,1,0.9999999403953552],"translation":[0.00008777144830673933,-16.48419189453125,0.040195465087890625]},{"name":"Armature_EndJaw","rotation":[0,-4.470348358154297e-8,0,1],"translation":[9.659714698791504,-29.58966064453125,15.587044715881348]},{"name":"Armature_pm0002_00_BodySkin"},{"name":"Armature_pm0002_00_FlowerSkin"},{"name":"Armature_pm0002_00_LeafSkin"}],"samplers":[{}],"scene":0,"scenes":[{"name":"Scene","nodes":[0,3,1]}],"skins":[{"inverseBindMatrices":0,"joints":[4,5,6,7,8,9,10,11,12,13,14,15,16,17,18,19,20,21,22,23,24,25,26,27,28,29,30,31,32,33,34,35,36,37,38,39,40,41,42,43,44,45,46,47,48,49,50,51,52,53,54,55,56,57,58,59,60,61,62,63,64,65],"skeleton":0}],"textures":[{"sampler":0,"source":0},{"sampler":0,"source":1},{"sampler":0,"source":2},{"sampler":0,"source":3}],"extensionsUsed":["ALI_amc_mesh_compression"],"extensionsRequired":["ALI_amc_mesh_compression"]}