{"accessors":[{"bufferView":0,"componentType":5126,"count":33,"max":[2.8213042924107867e-7,1.0000001192092896,3.139165016818879e-7,0,0.0000013868002497474663,-3.139165016818879e-7,1.0000001192092896,0,1.0000001192092896,2.821300029154372e-7,1.0000001192092896,0,75.99102783203125,67.5601577758789,41.39753723144531,1],"min":[-4.2048466752930835e-7,1.0000001192092896,-4.1151457708110684e-7,0,-1.0000001192092896,-3.139165016818879e-7,-1.0000001192092896,0,-1.0000001192092896,2.821300029154372e-7,-0.0000013868002497474663,0,-49.04460144042969,-67.5600814819336,-54.47835159301758,1],"type":"MAT4","byteOffset":0}],"asset":{"generator":"Khronos Blender glTF 2.0 exporter","version":"2.0"},"bufferViews":[{"buffer":0,"byteLength":2112,"byteOffset":0},{"buffer":0,"byteOffset":2112,"byteLength":99411},{"buffer":0,"byteOffset":101523,"byteLength":7531}],"buffers":[{"byteLength":109054,"uri":"buffer.bin"}],"images":[{"name":"pm0129_00_Body1","uri":"pm0129_00_Body1.png"},{"name":"pm0129_00_Eye1","uri":"pm0129_00_Eye1.png"}],"materials":[{"alphaMode":"OPAQUE","name":"Material__116","pbrMetallicRoughness":{"baseColorFactor":[0.6400000190734865,0.6400000190734865,0.6400000190734865,1],"baseColorTexture":{"index":0},"metallicFactor":0}},{"alphaMode":"OPAQUE","name":"Material__117","pbrMetallicRoughness":{"baseColorFactor":[0.6400000190734865,0.6400000190734865,0.6400000190734865,1],"baseColorTexture":{"index":1},"metallicFactor":0}}],"meshes":[{"name":"MagikarpF","primitives":[{"material":0,"extensions":{"ALI_amc_mesh_compression":{"bufferView":1}}},{"material":1,"extensions":{"ALI_amc_mesh_compression":{"bufferView":2}}}]}],"nodes":[{"name":"Camera","rotation":[0.483536034822464,0.33687159419059753,-0.20870360732078552,0.7804827094078064],"translation":[7.481131553649902,5.34366512298584,6.5076398849487305]},{"name":"EndFeelerA","translation":[28.570009231567383,9.536739753457368e-7,9.999789654102642e-7]},{"name":"EndFeelerB","translation":[16.481809616088867,0,-0.0000020000200038339244]},{"name":"EndHead","translation":[39.198001861572266,0,0.000014999999621068127]},{"name":"EndLFeeler5","translation":[11.333089828491211,0,0]},{"name":"EndLForeArm","translation":[16.12849998474121,0.0000019073499970545527,0.000007629389983776491]},{"name":"EndLowerBeak","translation":[12.198699951171875,-0.000003814699994109105,9.999999974752427e-7]},{"name":"EndRFeeler5","translation":[11.333109855651855,0,-0.000003814699994109105]},{"name":"EndRForeArm","translation":[16.128509521484375,-0.0000019073499970545527,0.000003814699994109105]},{"name":"EndTail3","translation":[9.36846923828125,0.000003814699994109105,9.999789654102642e-7]},{"name":"EndUpperBeak","translation":[11.749500274658203,0.0000019073499970545527,-1.4551899615855568e-11]},{"name":"EnvironmentAmbientLight","scale":[0.02539999969303608,0.02539999969303608,0.02539999969303608]},{"name":"Lamp","rotation":[0.16907575726509094,0.7558802962303162,-0.27217137813568115,0.570947527885437],"scale":[1,1,0.9999999403953552],"translation":[4.076245307922363,5.903861999511719,-1.0054539442062378]},{"mesh":0,"name":"MagikarpF","rotation":[0.5,0.49999985098838806,-0.4999997019767761,0.5000005960464478],"scale":[1.0000001192092896,1.000000238418579,1.0000001192092896],"skin":0,"translation":[-2.8997204303741455,-33.99150848388672,-0.000008500292096869089]},{"children":[21],"name":"Origin"},{"name":"pm0129_00_BodySkin"},{"children":[14,15,19,20],"name":"pm0129_00_koiking","rotation":[0.7071065902709961,0,0,0.7071069478988647],"scale":[0.02539999969303608,0.02539999969303608,0.02539999969303608]},{"name":"pm0129_00_WhiskerSkin"},{"name":"pm0129_01_WhiskerSkin"},{"children":[17],"name":"VriVis00"},{"children":[18],"name":"VriVis01"},{"children":[13,22,46],"name":"Waist","rotation":[-0.5000001788139343,-0.5,0.49999988079071045,0.5000000596046448],"scale":[0.9999999403953552,0.9999999403953552,0.9999999403953552],"translation":[0.0000019999999949504854,2.8997199535369873,-33.99150466918945]},{"children":[23,24,27,33,35,38,44],"name":"Waist_Head","rotation":[-0.5,0.4999999701976776,-0.4999999701976776,0.5],"translation":[31.091781616210938,-36.891212463378906,-0.0000027798662358691217]},{"name":"Waist_EndHead","translation":[39.19800567626953,-0.000006198883056640625,-0.000007651924534002319]},{"children":[25],"name":"Waist_LArm","rotation":[0,0.8878688812255859,0,0.46009665727615356],"translation":[10.821100234985352,13.960003852844238,-1.0698602199554443]},{"children":[26],"name":"Waist_LForeArm","rotation":[0,4.470348358154297e-8,0,1],"translation":[5.100343704223633,12.532756805419922,-7.226551055908203]},{"name":"Waist_EndLForeArm","translation":[5.362592697143555,13.177215576171875,-7.598165512084961]},{"children":[28],"name":"Waist_LFeeler1","rotation":[0,0.671386182308197,0,0.741107702255249],"translation":[22.04890251159668,11.218000411987305,-2.671154737472534]},{"children":[29],"name":"Waist_LFeeler2","rotation":[0,0.039265431463718414,0,0.999228835105896],"translation":[0.0674295425415039,6.915857315063477,0.6811199188232422]},{"children":[30],"name":"Waist_LFeeler3","rotation":[0,0.010046345181763172,0,0.99994957447052],"scale":[0.9999999403953552,1,0.9999999403953552],"translation":[0.005188107490539551,12.75213623046875,0.25626057386398315]},{"children":[31],"name":"Waist_LFeeler4","rotation":[0,6.082245818106458e-11,0,1],"translation":[0.00004089727008249611,12.613296508789062,0.00004410000838106498]},{"children":[32],"name":"Waist_LFeeler5","translation":[0.00003898255818057805,12.727703094482422,0.00002120848512277007]},{"name":"Waist_EndLFeeler5","translation":[0.000035167759051546454,11.333091735839844,0.00003265267878305167]},{"children":[34],"name":"Waist_LowerBeak","rotation":[0,0.4463233947753906,0,0.8948717713356018],"translation":[27.418813705444336,-0.00000476837158203125,-1.397269368171692]},{"name":"Waist_EndLowerBeak","translation":[12.198702812194824,-0.000041961669921875,-0.00000286102294921875]},{"children":[36],"name":"Waist_RArm","rotation":[0,0.8878690600395203,0,0.46009621024131775],"scale":[0.9999999403953552,1,0.9999999403953552],"translation":[10.821203231811523,-13.959993362426758,-1.0698869228363037]},{"children":[37],"name":"Waist_RForeArm","translation":[5.100290298461914,-12.532804489135742,-7.226692199707031]},{"name":"Waist_EndRForeArm","translation":[5.3625335693359375,-13.177207946777344,-7.598239898681641]},{"children":[39],"name":"Waist_RFeeler1","rotation":[0,0.6713870167732239,0,0.7411069869995117],"scale":[0.9999999403953552,1,0.9999999403953552],"translation":[22.04890251159668,-11.217996597290039,-2.671168088912964]},{"children":[40],"name":"Waist_RFeeler2","rotation":[0,0.03926543518900871,0,0.9992288947105408],"scale":[0.9999999403953552,1,0.9999999403953552],"translation":[0.06738519668579102,-6.915898323059082,0.6811885833740234]},{"children":[41],"name":"Waist_RFeeler3","rotation":[0,0.01004682295024395,0,0.9999496340751648],"translation":[0.005099058151245117,-12.752126693725586,0.25615638494491577]},{"children":[42],"name":"Waist_RFeeler4","rotation":[0,6.070877134334296e-11,0,1],"translation":[-0.00005505428998731077,-12.613302230834961,0.000005601978045888245]},{"children":[43],"name":"Waist_RFeeler5","translation":[-0.00004743225872516632,-12.727714538574219,0.000017042330000549555]},{"name":"Waist_EndRFeeler5","translation":[-0.00004171024193055928,-11.333114624023438,0.000005597976269200444]},{"children":[45],"name":"Waist_UpperBeak","rotation":[0,0.2898183763027191,0,0.95708167552948],"translation":[26.866804122924805,-0.00000476837158203125,-1.3972654342651367]},{"name":"Waist_EndUpperBeak","rotation":[0,-1.4901162970204496e-8,0,1],"scale":[0.9999999403953552,1,0.9999999403953552],"translation":[4.517488479614258,0.000010013580322265625,10.846342086791992]},{"children":[47,49,51],"name":"Waist_Hips","rotation":[-0.5000003576278687,-0.49999964237213135,0.49999964237213135,0.5000003576278687],"translation":[31.091785430908203,-36.891212463378906,-0.000002779457418000675]},{"children":[48],"name":"Waist_FeelerA","rotation":[0,-0.5781682729721069,0,0.8159175515174866],"translation":[7.3011369705200195,0.0001233220100402832,-24.469995498657227]},{"name":"Waist_EndFeelerA","rotation":[0,-1.4901161193847656e-8,0,1],"translation":[-22.29288101196289,0.00013691186904907227,-17.868209838867188]},{"children":[50],"name":"Waist_FeelerB","rotation":[0,-0.6355762481689453,0,0.7720382213592529],"translation":[7.468369960784912,-0.00013136863708496094,19.225204467773438]},{"name":"Waist_EndFeelerB","rotation":[0,1.4901161193847656e-8,0,1],"translation":[16.481807708740234,-0.00009658931230660528,-0.0000011324882507324219]},{"children":[52],"name":"Waist_Tail1","translation":[15.661295890808105,-0.00003975629806518555,-8.314236765727401e-7]},{"children":[53],"name":"Waist_Tail2","translation":[14.081398963928223,-0.00003212689989595674,0.00000725257268641144]},{"children":[54],"name":"Waist_Tail3","translation":[12.833098411560059,-0.000028252601623535156,-0.0000016533658708794974]},{"name":"Waist_EndTail3","translation":[9.368470191955566,-0.000022351741790771484,0.0000037094359868206084]}],"samplers":[{}],"scene":0,"scenes":[{"name":"Scene","nodes":[9,2,1,10,7,8,6,4,5,3,16,11,12,0]}],"skins":[{"inverseBindMatrices":0,"joints":[22,23,24,25,26,27,28,29,30,31,32,33,34,35,36,37,38,39,40,41,42,43,44,45,46,47,48,49,50,51,52,53,54],"skeleton":21}],"textures":[{"sampler":0,"source":0},{"sampler":0,"source":1}],"extensionsUsed":["ALI_amc_mesh_compression"],"extensionsRequired":["ALI_amc_mesh_compression"]}