{"accessors":[{"bufferView":0,"componentType":5126,"count":58,"max":[1.0000001192092896,2.9802320611338473e-8,1.000000238418579,0,0.9999998807907104,-1.1920926112907182e-7,0.9999998807907104,0,1.1920927533992653e-7,-0.9999998807907104,1.1920923981278975e-7,0,49.58415603637695,29.85787582397461,82.39720153808594,1],"min":[-0.9999999403953552,-2.980238633654153e-8,-1.0000001192092896,0,-1,-1.1920928955078125e-7,-0.9999997019767761,0,-1.1920926112907182e-7,-1.0000001192092896,-1.1920926112907182e-7,0,-79.73690032958984,-41.17020034790039,-57.017826080322266,1],"type":"MAT4","byteOffset":0}],"asset":{"generator":"Khronos Blender glTF 2.0 exporter","version":"2.0"},"bufferViews":[{"buffer":0,"byteLength":3712,"byteOffset":0},{"buffer":0,"byteOffset":3712,"byteLength":151979},{"buffer":0,"byteOffset":155691,"byteLength":3063}],"buffers":[{"byteLength":158754,"uri":"buffer.bin"}],"images":[{"name":"pm0044_01_Body1","uri":"pm0044_01_Body1.png"},{"name":"pm0044_00_Eye1","uri":"pm0044_00_Eye1.png"}],"materials":[{"alphaMode":"OPAQUE","name":"BodyA_00","pbrMetallicRoughness":{"baseColorFactor":[0.6400000190734865,0.6400000190734865,0.6400000190734865,1],"baseColorTexture":{"index":0},"metallicFactor":0}},{"alphaMode":"OPAQUE","name":"Eye","pbrMetallicRoughness":{"baseColorFactor":[0.6400000190734865,0.6400000190734865,0.6400000190734865,1],"baseColorTexture":{"index":1},"metallicFactor":0}}],"meshes":[{"name":"Gloom","primitives":[{"material":0,"extensions":{"ALI_amc_mesh_compression":{"bufferView":1}}},{"material":1,"extensions":{"ALI_amc_mesh_compression":{"bufferView":2}}}]}],"nodes":[{"children":[1,22],"name":"_01_pm0044_00_kusaihana","rotation":[0.7071068286895752,0,0,0.7071067094802856],"scale":[0.02539999783039093,0.02539999969303608,0.02539999969303608]},{"children":[26,28],"name":"_02_Origin"},{"name":"_06_EndFeelerA","translation":[28.166189193725586,-4.5474699852075806e-13,5.820770254683083e-11]},{"name":"_10_EndHairA3","translation":[12.461910247802734,0.0000028610199933609692,0]},{"name":"_14_EndHairB3","translation":[16.32659912109375,-0.0000022947799607209163,0]},{"name":"_20_EndHairC5","translation":[10.204689979553223,6.25848997515277e-7,0]},{"name":"_26_EndHairD5","translation":[4.833573818206787,0.0000040531199374527205,0]},{"name":"_30_EndFeelerB3","translation":[7.8353729248046875,-0.000003814699994109105,7.152560215217818e-7]},{"name":"_33_EndLHand","translation":[9.612886428833008,-0.0000014305099966804846,0]},{"name":"_35_EndLowerBeak","translation":[2.514169931411743,-0.000007629389983776491,0]},{"name":"_37_EndLBeakB","translation":[3.641000986099243,-0.000007629389983776491,0]},{"name":"_39_EndRBeakB","translation":[3.6409990787506104,-0.000007629389983776491,0.0000019073499970545527]},{"name":"_42_EndRHand","translation":[9.612833023071289,2.0861600091848231e-7,-0.0000019073499970545527]},{"name":"_44_EndUpperBeak","translation":[2.514169931411743,-0.000007629389983776491,1.1920899822825959e-7]},{"name":"_46_EndLBeakA","translation":[3.6413309574127197,-0.000007629389983776491,0]},{"name":"_48_EndRBeakA","translation":[3.6412999629974365,-0.000007629389983776491,-0.0000019073499970545527]},{"name":"_49_LHips","rotation":[-0.120164655148983,0.9927476644515991,-0.0004285573377273977,0.0035404926165938377],"scale":[0.9999999403953552,1.0000001192092896,1],"translation":[11.070799827575684,4.414889812469482,9.383797645568848]},{"name":"_52_EndLFoot","translation":[33.77742004394531,4.768369876728684e-7,0.0000019073499970545527]},{"name":"_54_EndLToe","translation":[13.144109725952148,4.768369876728684e-7,9.536739753457368e-7]},{"name":"_55_RHips","rotation":[-0.12016463279724121,0.9927476048469543,0.00042852931073866785,-0.003540372010320425],"scale":[0.9999999403953552,1.0000001192092896,0.9999998807907104],"translation":[11.070690155029297,4.414889812469482,-9.383797645568848]},{"name":"_58_EndRFoot","translation":[33.77751159667969,0,0.000008583069757150952]},{"name":"_60_EndRToe","translation":[13.144200325012207,-2.3841900542720396e-7,9.536739753457368e-7]},{"children":[23,24],"name":"_61_VriTex00"},{"name":"_62_pm0044_00_BodySkin"},{"name":"_63_pm0044_00_PetalSkin"},{"name":"Camera","rotation":[0.483536034822464,0.33687159419059753,-0.20870360732078552,0.7804827094078064],"translation":[7.481131553649902,5.34366512298584,6.5076398849487305]},{"mesh":0,"name":"Gloom","rotation":[5.960464477539063e-8,0,0,1],"scale":[1.0000001192092896,1,1],"skin":0},{"name":"Lamp","rotation":[0.16907575726509094,0.7558802962303162,-0.27217137813568115,0.570947527885437],"scale":[1,1,0.9999999403953552],"translation":[4.076245307922363,5.903861999511719,-1.0054539442062378]},{"children":[29,74,80],"name":"_02_Origin__03_Waist","rotation":[-0.5,-0.5000000596046448,0.5000000596046448,0.5],"scale":[1,0.9999999403953552,1],"translation":[-2.153279936423073e-15,35.16569900512695,0]},{"children":[30,52,56,59,65,68],"name":"_02_Origin__04_Head","translation":[0,-2.384185791015625e-7,-1.1153355799695119e-13]},{"children":[31,32,36,40,46],"name":"_02_Origin__05_FeelerA","translation":[16.405014038085938,0,0.00005990741919958964]},{"name":"_02_Origin__06_EndFeelerA","translation":[28.166187286376953,0,-0.000001231242549692979]},{"children":[33],"name":"_02_Origin__07_HairA1","rotation":[0,0.649479866027832,0,0.7603787779808044],"scale":[0.9999999403953552,1,0.9999999403953552],"translation":[2.8470492362976074,-4.89122200012207,-11.150592803955078]},{"children":[34],"name":"_02_Origin__08_HairA2","rotation":[0,0.26418158411979675,0,0.9644729495048523],"translation":[15.659168243408203,-6.488747596740723,-6.573670864105225]},{"children":[35],"name":"_02_Origin__09_HairA3","rotation":[0,0.4433102607727051,0,0.8963682055473328],"scale":[0.9999999403953552,1,0.9999999403953552],"translation":[12.75345230102539,-3.962296485900879,-4.832725524902344]},{"name":"_02_Origin__10_EndHairA3","rotation":[0,2.9802322387695312e-8,0,1],"translation":[12.37116813659668,-0.8509464263916016,-1.2366352081298828]},{"children":[37],"name":"_02_Origin__11_HairB1","rotation":[0,-0.9005041718482971,0,0.4348474442958832],"translation":[3.476787805557251,-5.301741600036621,7.093742847442627]},{"children":[38],"name":"_02_Origin__12_HairB2","rotation":[0,-0.17641320824623108,0,0.9843162298202515],"scale":[0.9999999403953552,0.9999999403953552,0.9999999403953552],"translation":[9.45200252532959,-8.15107250213623,-6.358410835266113]},{"children":[39],"name":"_02_Origin__13_HairB3","rotation":[0,-0.21169647574424744,0,0.977335512638092],"scale":[1.0000001192092896,1,1.0000001192092896],"translation":[11.519205093383789,-6.815051078796387,-4.184822082519531]},{"name":"_02_Origin__14_EndHairB3","translation":[16.166181564331055,-2.0277862548828125,-1.0490477085113525]},{"children":[41],"name":"_02_Origin__15_HairC1","rotation":[0,0.9580128788948059,0,0.2867252826690674],"translation":[3.1229894161224365,8.31190013885498,-7.992955207824707]},{"children":[42],"name":"_02_Origin__16_HairC2","rotation":[0,-0.28287553787231445,0,0.9591566324234009],"scale":[0.9999998807907104,0.9999999403953552,0.9999998807907104],"translation":[15.581842422485352,16.54084587097168,9.573551177978516]},{"children":[43],"name":"_02_Origin__17_HairC3","rotation":[0,-0.30454105138778687,0,0.9524992108345032],"translation":[7.049892425537109,10.87083625793457,10.980914115905762]},{"children":[44],"name":"_02_Origin__18_HairC4","rotation":[0,-0.5092708468437195,0,0.8606064319610596],"scale":[0.9999999403953552,1,0.9999999403953552],"translation":[6.410819053649902,4.730690002441406,7.640500068664551]},{"children":[45],"name":"_02_Origin__19_HairC5","rotation":[0,-0.4888637363910675,0,0.8723602890968323],"scale":[1,1.0000001192092896,1],"translation":[7.938471794128418,0.7159309387207031,1.695343017578125]},{"name":"_02_Origin__20_EndHairC5","rotation":[0,1.4901161193847656e-8,0,1],"scale":[1,0.9999999403953552,1],"translation":[8.747268676757812,-2.205852508544922,-4.770246505737305]},{"children":[47],"name":"_02_Origin__21_HairD1","rotation":[0,-0.5573111772537231,0,0.8303037285804749],"scale":[0.9999999403953552,1,0.9999999403953552],"translation":[1.8965953588485718,6.9105730056762695,6.8764967918396]},{"children":[48],"name":"_02_Origin__22_HairD2","rotation":[0,-0.19328933954238892,0,0.9811418056488037],"translation":[17.105121612548828,10.83759880065918,10.274203300476074]},{"children":[49],"name":"_02_Origin__23_HairD3","rotation":[0,-0.5077764987945557,0,0.8614888787269592],"scale":[0.9999999403953552,0.9999999403953552,0.9999999403953552],"translation":[13.857975959777832,7.507623672485352,8.698087692260742]},{"children":[50],"name":"_02_Origin__24_HairD4","rotation":[0,-0.7981950044631958,0,0.6023992896080017],"scale":[0.9999999403953552,0.9999999403953552,0.9999999403953552],"translation":[14.342344284057617,2.015157699584961,3.2909278869628906]},{"children":[51],"name":"_02_Origin__25_HairD5","rotation":[0,-0.6147359013557434,0,0.7887330055236816],"translation":[4.36189603805542,-2.0783767700195312,-2.600377082824707]},{"name":"_02_Origin__26_EndHairD5","scale":[1,0.9999999403953552,1],"translation":[4.462200164794922,-1.5621585845947266,-1.0059242248535156]},{"children":[53],"name":"_02_Origin__27_FeelerB1","rotation":[0,0.741038978099823,0,0.6714619994163513],"scale":[0.9999999403953552,1,0.9999999403953552],"translation":[1.3032108545303345,-24.29680633544922,-7.890623092651367]},{"children":[54],"name":"_02_Origin__28_FeelerB2","rotation":[0,0.6094050407409668,0,0.7928590774536133],"scale":[0.9999999403953552,1,0.9999999403953552],"translation":[0.72347092628479,-3.6492996215820312,-0.2971380352973938]},{"children":[55],"name":"_02_Origin__29_FeelerB3","rotation":[0,0.08078192174434662,0,0.9967318773269653],"translation":[3.4156384468078613,-0.5520668029785156,-0.4514045715332031]},{"name":"_02_Origin__30_EndFeelerB3","rotation":[0,-4.960494237593593e-10,0,1],"translation":[7.835372447967529,0,-1.5599960079271113e-7]},{"children":[57],"name":"_02_Origin__31_LArm","rotation":[0,0.6750257015228271,0,0.7377942800521851],"scale":[0.9999999403953552,1,0.9999999403953552],"translation":[-8.019072532653809,-6.1828718185424805,-24.876331329345703]},{"children":[58],"name":"_02_Origin__32_LHand","rotation":[0,-9.685754776000977e-8,0,1],"translation":[9.356369972229004,-2.2035279273986816,-2.2165780067443848]},{"name":"_02_Origin__33_EndLHand","translation":[9.117621421813965,-2.147298812866211,-2.160020351409912]},{"children":[60,61,63],"name":"_02_Origin__34_LowerBeak","rotation":[0,0.7071068286895752,0,0.7071068286895752],"translation":[0.8766212463378906,-27.343706130981445,0.0000032012269457482034]},{"name":"_02_Origin__35_EndLowerBeak","rotation":[0,2.0036999403422184e-12,0,1],"translation":[0,-2.514169692993164,-0.00000762939453125]},{"children":[62],"name":"_02_Origin__36_LBeakB","rotation":[0,2.6077751069664146e-12,0,1],"translation":[10.615492820739746,2.341899871826172,-2.275959014892578]},{"name":"_02_Origin__37_EndLBeakB","translation":[-1.7610979341498023e-10,-3.641000747680664,-0.000007629339052073192]},{"children":[64],"name":"_02_Origin__38_RBeakB","rotation":[0,2.607775323806849e-12,0,1],"translation":[-10.615507125854492,2.3418502807617188,-2.2760009765625]},{"name":"_02_Origin__39_EndRBeakB","rotation":[0,0,1.4901146982992941e-8,1],"translation":[-0.0000019075248474109685,-3.6409988403320312,-0.000007629450010426808]},{"children":[66],"name":"_02_Origin__40_RArm","rotation":[0,-0.8228423595428467,0,0.5682697296142578],"translation":[-8.01924991607666,-6.182870864868164,24.87626075744629]},{"children":[67],"name":"_02_Origin__41_RHand","rotation":[0,1.4901161193847656e-7,0,1],"translation":[9.387441635131836,-2.2035293579101562,-2.081183433532715]},{"name":"_02_Origin__42_EndRHand","translation":[9.147834777832031,-2.147287368774414,-2.0280189514160156]},{"children":[69,70,72],"name":"_02_Origin__43_UpperBeak","rotation":[0,0.7071068286895752,0,0.7071068286895752],"translation":[3.9561500549316406,-27.183706283569336,0.000014446914974541869]},{"name":"_02_Origin__44_EndUpperBeak","rotation":[-5.662762203526422e-26,2.0036999403422184e-12,2.8261527029748747e-14,1],"translation":[-1.1920928955078125e-7,-2.514169692993164,-0.00000762939453125]},{"children":[71],"name":"_02_Origin__45_LBeakA","rotation":[0,2.60777489012598e-12,0,1],"translation":[10.615494728088379,2.1819210052490234,-1.6789207458496094]},{"name":"_02_Origin__46_EndLBeakA","rotation":[0,0,-1.4901158529312397e-8,1],"translation":[-1.9528556549630594e-10,-3.6413307189941406,-0.000007629339052073192]},{"children":[73],"name":"_02_Origin__47_RBeakA","rotation":[0,2.6077751069664146e-12,0,1],"translation":[-10.61550521850586,2.1818714141845703,-1.6789588928222656]},{"name":"_02_Origin__48_EndRBeakA","rotation":[0,0,1.4901191391913926e-8,1],"translation":[0.0000019071533188252943,-3.6413002014160156,-0.000007629450010426808]},{"children":[75],"name":"_02_Origin__49_LHips","rotation":[0,-0.9923191070556641,0,0.12370514869689941],"translation":[11.07080078125,-4.414890766143799,-9.383798599243164]},{"children":[76],"name":"_02_Origin__50_LThigh","rotation":[0,-0.12014641612768173,0,0.992756187915802],"scale":[0.9999998807907104,1,0.9999998807907104],"translation":[29.967010498046875,7.581394195556641,7.3625078201293945]},{"children":[77,78],"name":"_02_Origin__51_LFoot","rotation":[0,-0.7062630653381348,0,0.7079495787620544],"scale":[0.9999999403953552,1,0.9999999403953552],"translation":[10.520304679870605,0.00044155120849609375,0.00043990835547447205]},{"name":"_02_Origin__52_EndLFoot","rotation":[0,-7.450580596923828e-9,0,1],"translation":[18.07569694519043,-28.533512115478516,-0.15013951063156128]},{"children":[79],"name":"_02_Origin__53_LToe","rotation":[0,-0.01316986232995987,0,0.9999132752418518],"scale":[0.9999999403953552,1,0.9999999403953552],"translation":[8.566577911376953,-13.274802207946777,-1.815666913986206]},{"name":"_02_Origin__54_EndLToe","rotation":[0,9.313225746154785e-10,0,1],"translation":[7.0351176261901855,-11.102448463439941,0.10250869393348694]},{"children":[81],"name":"_02_Origin__55_RHips","rotation":[0,-0.9931761026382446,0,0.11662409454584122],"translation":[11.070690155029297,-4.414890766143799,9.383796691894531]},{"children":[82],"name":"_02_Origin__56_RThigh","rotation":[0,-0.12014640867710114,0,0.992756187915802],"scale":[0.9999999403953552,1,0.9999999403953552],"translation":[29.967073440551758,7.581389904022217,7.36251974105835]},{"children":[83,84],"name":"_02_Origin__57_RFoot","rotation":[0,-0.7011935710906982,0,0.7129709124565125],"translation":[10.520303726196289,0.00045037269592285156,0.00044739246368408203]},{"name":"_02_Origin__58_EndRFoot","rotation":[0,-1.909211277961731e-8,0,1],"translation":[-18.069580078125,-28.533573150634766,-0.495787650346756]},{"children":[85],"name":"_02_Origin__59_RToe","rotation":[0,-0.013169748708605766,0,0.9999132752418518],"scale":[0.9999999403953552,1,0.9999999403953552],"translation":[-8.530278205871582,-13.274812698364258,-1.979156494140625]},{"name":"_02_Origin__60_EndRToe","translation":[-7.02777624130249,-11.102520942687988,0.33848056197166443]}],"samplers":[{}],"scene":0,"scenes":[{"name":"Scene","nodes":[21,20,19,18,17,16,15,14,13,12,11,10,9,8,7,6,5,4,3,2,0,27,25]}],"skins":[{"inverseBindMatrices":0,"joints":[28,29,30,31,32,33,34,35,36,37,38,39,40,41,42,43,44,45,46,47,48,49,50,51,52,53,54,55,56,57,58,59,60,61,62,63,64,65,66,67,68,69,70,71,72,73,74,75,76,77,78,79,80,81,82,83,84,85],"skeleton":1}],"textures":[{"sampler":0,"source":0},{"sampler":0,"source":1}],"extensionsUsed":["ALI_amc_mesh_compression"],"extensionsRequired":["ALI_amc_mesh_compression"]}