{"accessors":[{"bufferView":0,"componentType":5126,"count":21,"max":[4.570535594439207e-8,-1,0.000003500754473861889,0,0.9999924898147583,5.340939357445507e-10,0.9999527931213379,0,0.013208320364356041,0.000003500779030218837,0.9999924302101135,0,94.84239959716797,14.268376350402832,1.581736445426941,1],"min":[-0.0000035006182770302985,-1.0000001192092896,-0.0000035004802612093044,0,-0.9999127984046936,5.340938802333994e-10,-0.013208318501710892,0,-0.9999527335166931,0.000003500778575471486,-0.9999127388000488,0,-175.62965393066406,-14.268787384033203,-163.72906494140625,1],"type":"MAT4","byteOffset":0}],"asset":{"generator":"Khronos Blender glTF 2.0 exporter","version":"2.0"},"bufferViews":[{"buffer":0,"byteLength":1344,"byteOffset":0},{"buffer":0,"byteOffset":1344,"byteLength":78783},{"buffer":0,"byteOffset":80127,"byteLength":583},{"buffer":0,"byteOffset":80710,"byteLength":3735}],"buffers":[{"byteLength":84445,"uri":"buffer.bin"}],"images":[{"name":"pm0147_00_Mouth1","uri":"pm0147_00_Mouth1.png"},{"name":"pm0147_00_Body1","uri":"pm0147_00_Body1.png"},{"name":"pm0147_00_Eye1","uri":"pm0147_00_Eye1.png"}],"materials":[{"alphaMode":"OPAQUE","name":"Material__181","pbrMetallicRoughness":{"baseColorFactor":[0.6400000190734865,0.6400000190734865,0.6400000190734865,1],"baseColorTexture":{"index":0},"metallicFactor":0}},{"alphaMode":"OPAQUE","name":"Material__182","pbrMetallicRoughness":{"baseColorFactor":[0.6400000190734865,0.6400000190734865,0.6400000190734865,1],"baseColorTexture":{"index":1},"metallicFactor":0}},{"alphaMode":"OPAQUE","name":"Material__183","pbrMetallicRoughness":{"baseColorFactor":[0.6400000190734865,0.6400000190734865,0.6400000190734865,1],"baseColorTexture":{"index":2},"metallicFactor":0}}],"meshes":[{"name":"Dratini","primitives":[{"material":1,"extensions":{"ALI_amc_mesh_compression":{"bufferView":1}}},{"material":0,"extensions":{"ALI_amc_mesh_compression":{"bufferView":2}}},{"material":2,"extensions":{"ALI_amc_mesh_compression":{"bufferView":3}}}]}],"nodes":[{"name":"Camera","rotation":[0.483536034822464,0.33687159419059753,-0.20870360732078552,0.7804827094078064],"translation":[7.481131553649902,5.34366512298584,6.5076398849487305]},{"mesh":0,"name":"Dratini","rotation":[0.0017179177375510335,-0.7071059942245483,0.001717912033200264,0.707103431224823],"skin":0,"translation":[-94.852294921875,-0.7898059487342834,-0.00033206617808900774]},{"name":"EndFeeler","translation":[9.530412673950195,-0.00003051759995287284,9.99992948891304e-7]},{"name":"EndHead","translation":[19.781909942626953,9.536739753457368e-7,0]},{"name":"EndLFeeler","rotation":[0.007019944489002228,1.1546263500861187e-8,-5.467720942675669e-9,0.9999753832817078],"scale":[1,0.9999998807907104,0.9999998807907104],"translation":[13.432600021362305,0,-0.0000028610199933609692]},{"name":"EndRFeeler","rotation":[-0.007019942160695791,0.000001500631810813502,-4.936247250952874e-7,0.9999753832817078],"scale":[1,0.9999998807907104,0.9999998807907104],"translation":[13.432600021362305,-0.00003051759995287284,9.536739753457368e-7]},{"name":"EndTail7","rotation":[-0.00006389607005985454,-0.0018653845181688666,-1.1897661522652925e-7,0.9999982714653015],"translation":[6.090382099151611,4.190949809412814e-9,-5.96045985901128e-8]},{"name":"EnvironmentAmbientLight","scale":[0.02539999969303608,0.02539999969303608,0.02539999969303608]},{"name":"Lamp","rotation":[0.16907575726509094,0.7558802962303162,-0.27217137813568115,0.570947527885437],"scale":[1,1,0.9999999403953552],"translation":[4.076245307922363,5.903861999511719,-1.0054539442062378]},{"children":[12],"name":"Origin"},{"children":[9,11],"name":"pm0147_00","rotation":[0.7071065902709961,0,0,0.7071069478988647],"scale":[0.02539999969303608,0.02539999969303608,0.02539999969303608]},{"name":"pm0147_00_Skin"},{"children":[1,13,22],"name":"Waist","rotation":[-0.0017179172718897462,0.7071059346199036,-0.0017179116839542985,0.707103431224823],"scale":[1,0.9999999403953552,1],"translation":[0,0.3289110064506531,-94.8550033569336]},{"children":[14],"name":"Waist_Hips","rotation":[-0.49790823459625244,0.5020830631256104,-0.5020830631256104,0.49790823459625244],"scale":[0.9999999403953552,0.9999998807907104,0.9999999403953552],"translation":[-95.6420669555664,94.06249237060547,-0.0003388345940038562]},{"children":[15],"name":"Waist_Tail1","translation":[14.517372131347656,-0.00009059906005859375,0.24245858192443848]},{"children":[16],"name":"Waist_Tail2","translation":[14.02393913269043,-0.00008678437734488398,0.234214186668396]},{"children":[17],"name":"Waist_Tail3","translation":[15.006619453430176,-0.00009250638686353341,0.25063231587409973]},{"children":[18],"name":"Waist_Tail4","translation":[13.705489158630371,-0.00008440017700195312,0.22889500856399536]},{"children":[19],"name":"Waist_Tail5","translation":[11.651577949523926,-0.00007200241088867188,0.19459182024002075]},{"children":[20],"name":"Waist_Tail6","rotation":[0,0.9999891519546509,0,0.0046617379412055016],"translation":[11.731666564941406,-0.00007247925532283261,0.1959306001663208]},{"children":[21],"name":"Waist_Tail7","rotation":[0,0.00005337750189937651,0,1],"translation":[-9.925686836242676,0.19793081283569336,-0.07320928573608398]},{"name":"Waist_EndTail7","rotation":[0,-0.007108212914317846,0,0.9999747276306152],"scale":[0.9999999403953552,1,0.9999999403953552],"translation":[-6.08941125869751,0.09870244562625885,-0.04556116834282875]},{"children":[23],"name":"Waist_Spine1","rotation":[-0.5000001192092896,-0.4999999701976776,0.4999999701976776,0.5000001192092896],"translation":[-95.6420669555664,94.0625,-0.0003388350596651435]},{"children":[24],"name":"Waist_Spine2","rotation":[0,0.0028234682977199554,0,0.9999960064888],"translation":[14.810906410217285,0.00005334615707397461,-0.0000039698170439805835]},{"children":[25],"name":"Waist_Spine3","rotation":[0,0.010483311489224434,0,0.9999450445175171],"scale":[0.9999998807907104,1,0.9999998807907104],"translation":[16.118505477905273,0.000057756900787353516,0.00000762939453125]},{"children":[26],"name":"Waist_Spine4","rotation":[0,0.008703897707164288,0,0.9999621510505676],"translation":[15.249160766601562,0.00005349513958208263,-0.0000050067901611328125]},{"children":[27,28,30,32],"name":"Waist_Head","translation":[14.972042083740234,0.00005155801773071289,0.0000057220458984375]},{"name":"Waist_EndHead","translation":[19.78191375732422,0.00006809824844822288,-0.000002384185791015625]},{"children":[29],"name":"Waist_Feeler","rotation":[0,0.6931265592575073,0,0.720815896987915],"translation":[3.6193742752075195,0.00005173677345737815,10.530197143554688]},{"name":"Waist_EndFeeler","rotation":[0,-1.7462298274040222e-8,0,1],"translation":[-9.529967308044434,0.000010848045349121094,-0.09268331527709961]},{"children":[31],"name":"Waist_LFeeler","rotation":[0,0.6426283717155457,0,0.7661780714988708],"scale":[0.9999999403953552,1,0.9999999403953552],"translation":[9.004192352294922,-11.514866828918457,1.5072650909423828]},{"name":"Waist_EndLFeeler","rotation":[0,-0.0007273407536558807,0,0.9999997615814209],"translation":[13.147262573242188,-2.7537317276000977,0.036192893981933594]},{"children":[33],"name":"Waist_RFeeler","rotation":[0,0.6426277756690979,0,0.766178548336029],"translation":[9.00396728515625,11.514934539794922,1.5071635246276855]},{"name":"Waist_EndRFeeler","rotation":[0,-0.0007268788176588714,0,0.9999997615814209],"scale":[0.9999999403953552,1,0.9999999403953552],"translation":[13.147281646728516,2.753628730773926,0.03614044189453125]}],"samplers":[{}],"scene":0,"scenes":[{"name":"Scene","nodes":[5,4,2,3,6,10,7,8,0]}],"skins":[{"inverseBindMatrices":0,"joints":[13,14,15,16,17,18,19,20,21,22,23,24,25,26,27,28,29,30,31,32,33],"skeleton":12}],"textures":[{"sampler":0,"source":0},{"sampler":0,"source":1},{"sampler":0,"source":2}],"extensionsUsed":["ALI_amc_mesh_compression"],"extensionsRequired":["ALI_amc_mesh_compression"]}