{"accessors":[{"bufferView":0,"componentType":5126,"count":27,"max":[1,6.397232255039853e-8,1.462538586332468e-14,0,4.736464245445014e-16,9.091013815577544e-22,1,0,6.397232255039853e-8,-1,9.659201674180161e-22,0,99.28682708740234,0,26.12398338317871,1],"min":[1,-6.397232255039853e-8,-4.736464245445014e-16,0,-1.462538586332468e-14,0,1,0,-6.397232255039853e-8,-1.0000001192092896,0,0,-99.2868423461914,-101.95210266113281,-64.00000762939453,1],"type":"MAT4","byteOffset":0}],"asset":{"generator":"Khronos Blender glTF 2.0 exporter","version":"2.0"},"bufferViews":[{"buffer":0,"byteLength":1728,"byteOffset":0},{"buffer":0,"byteOffset":1728,"byteLength":15381},{"buffer":0,"byteOffset":17109,"byteLength":69447},{"buffer":0,"byteOffset":86556,"byteLength":130619}],"buffers":[{"byteLength":217175,"uri":"buffer.bin"}],"images":[{"name":"pm0099_00_BodyA1","uri":"pm0099_00_BodyA1.png"},{"name":"pm0099_00_BodyB1.tga","uri":"pm0099_00_BodyB1.tga.png"},{"name":"pm0099_00_Eye1","uri":"pm0099_00_Eye1.png"}],"materials":[{"name":"BodyASpcVco_mat_001","pbrMetallicRoughness":{"baseColorFactor":[0.6400000190734865,0.6400000190734865,0.6400000190734865,1],"baseColorTexture":{"index":0},"metallicFactor":0}},{"name":"BodyBSpc_mat_001","pbrMetallicRoughness":{"baseColorFactor":[0.6400000190734865,0.6400000190734865,0.6400000190734865,1],"baseColorTexture":{"index":1},"metallicFactor":0}},{"name":"Eye01_mat_001","pbrMetallicRoughness":{"baseColorFactor":[0.6400000190734865,0.6400000190734865,0.6400000190734865,1],"baseColorTexture":{"index":2},"metallicFactor":0}}],"meshes":[{"name":"mesh_0_BodyASpcVco.001","primitives":[{"material":2,"extensions":{"ALI_amc_mesh_compression":{"bufferView":1}}},{"material":1,"extensions":{"ALI_amc_mesh_compression":{"bufferView":2}}},{"material":0,"extensions":{"ALI_amc_mesh_compression":{"bufferView":3}}}]}],"nodes":[{"children":[3,4],"name":"Armature","rotation":[0.7071068286895752,0,0,0.7071067094802856]},{"name":"Camera","rotation":[0.483536034822464,0.33687159419059753,-0.20870360732078552,0.7804827094078064],"translation":[7.481131553649902,5.34366512298584,6.5076398849487305]},{"name":"Lamp","rotation":[0.16907575726509094,0.7558802962303162,-0.27217137813568115,0.570947527885437],"scale":[1,1,0.9999999403953552],"translation":[4.076245307922363,5.903861999511719,-1.0054539442062378]},{"mesh":0,"name":"vsn_mesh_0_BodyASpcVco","skin":0},{"children":[5,29,30],"name":"Armature_pm0099_00","rotation":[-0.7071068286895752,0,0,0.7071068286895752]},{"children":[6],"name":"Armature_Origin"},{"children":[7,12,17,20,23,26],"name":"Armature_Waist","translation":[0,24.992389678955078,0.4469359517097473]},{"children":[8],"name":"Armature_LArm","translation":[37.56025695800781,16.406574249267578,10.504453659057617]},{"children":[9],"name":"Armature_LForeArm","translation":[28.878433227539062,9.475784301757812,32.88315963745117]},{"children":[10,11],"name":"Armature_LHand","rotation":[0,-2.368232122722507e-16,0,1],"translation":[5.547882080078125,32.74413299560547,6.404876708984375]},{"name":"Armature_LFingerA","rotation":[0,0,-2.8987457767470914e-8,1],"translation":[0.15802001953125,10.109451293945312,-2.239410400390625]},{"name":"Armature_LFingerB","rotation":[2.4148004185450404e-22,7.549516567451064e-15,-3.1986161275199265e-8,1],"translation":[5.895896911621094,18.333213806152344,-3.8324241638183594]},{"children":[13],"name":"Armature_RArm","rotation":[0,2.072658387591343e-16,0,1],"translation":[-39.72849655151367,17.82242202758789,13.50113296508789]},{"children":[14],"name":"Armature_RForeArm","rotation":[0,-2.072658387591343e-16,0,1],"translation":[-23.577510833740234,6.256278991699219,26.487836837768555]},{"children":[15,16],"name":"Armature_RHand","rotation":[0,7.105427357601002e-15,0,1],"translation":[-5.631813049316406,24.32727813720703,3.6355247497558594]},{"name":"Armature_RFingerA","rotation":[0,0,3.1986161275199265e-8,1],"translation":[2.914306640625,8.486175537109375,19.928577423095703]},{"name":"Armature_RFingerB","rotation":[0,0,3.1986161275199265e-8,1],"translation":[-6.3587188720703125,2.8378677368164062,-2.659381866455078]},{"children":[18],"name":"Armature_LThigh","translation":[36.40774154663086,-0.8989315032958984,7.244636058807373]},{"children":[19],"name":"Armature_LLeg","translation":[31.317096710205078,10.478311538696289,11.575307846069336]},{"name":"Armature_LFoot","translation":[28.434341430664062,-26.594863891601562,10.382986068725586]},{"children":[21],"name":"Armature_RThigh","translation":[-36.40769958496094,-0.8988895416259766,7.244644641876221]},{"children":[22],"name":"Armature_RLeg","translation":[-31.31707000732422,10.478311538696289,11.575339317321777]},{"name":"Armature_RFoot","translation":[-28.43450164794922,-26.59490966796875,10.382789611816406]},{"children":[24],"name":"Armature_LThigh2","translation":[35.79077911376953,-4.3640594482421875,-4.468199729919434]},{"children":[25],"name":"Armature_LLeg2","translation":[31.272659301757812,10.080650329589844,-11.318685531616211]},{"name":"Armature_LFoot2","translation":[32.22340393066406,-24.316852569580078,-10.784034729003906]},{"children":[27],"name":"Armature_RThigh2","translation":[-35.79079818725586,-4.364091873168945,-4.468174934387207]},{"children":[28],"name":"Armature_RLeg2","scale":[1,0.9999999403953552,1],"translation":[-31.272602081298828,10.080711364746094,-11.318620681762695]},{"name":"Armature_RFoot2","translation":[-32.223426818847656,-24.316883087158203,-10.784112930297852]},{"name":"Armature_pm0099_00_BodySkin"},{"name":"Armature_pm0099_00_IrisSkin"}],"samplers":[{}],"scene":0,"scenes":[{"name":"Scene","nodes":[0,2,1]}],"skins":[{"inverseBindMatrices":0,"joints":[4,5,6,7,8,9,10,11,12,13,14,15,16,17,18,19,20,21,22,23,24,25,26,27,28,29,30],"skeleton":0}],"textures":[{"sampler":0,"source":0},{"sampler":0,"source":1},{"sampler":0,"source":2}],"extensionsUsed":["ALI_amc_mesh_compression"],"extensionsRequired":["ALI_amc_mesh_compression"]}