{"accessors":[{"bufferView":0,"componentType":5126,"count":53,"max":[1,0,0.9968072772026062,0,0.7342427372932434,0,1,0,0,-1,0,0,17.76897430419922,26.94272804260254,26.32947540283203,1],"min":[-0.9958922863006592,0,-0.7342427372932434,0,-0.9968072772026062,0,-0.9958922863006592,0,0,-1.000000238418579,0,0,-42.201900482177734,-16.214235305786133,-42.167484283447266,1],"type":"MAT4","byteOffset":0}],"asset":{"generator":"Khronos Blender glTF 2.0 exporter","version":"2.0"},"bufferViews":[{"buffer":0,"byteLength":3392,"byteOffset":0},{"buffer":0,"byteOffset":3392,"byteLength":2823},{"buffer":0,"byteOffset":6215,"byteLength":123373}],"buffers":[{"byteLength":129588,"uri":"buffer.bin"}],"images":[{"name":"pm0029_00_Body1","uri":"pm0029_00_Body1.png"},{"name":"pm0029_00_Eye1","uri":"pm0029_00_Eye1.png"}],"materials":[{"alphaMode":"OPAQUE","name":"Material__10","pbrMetallicRoughness":{"baseColorFactor":[0.6400000190734865,0.6400000190734865,0.6400000190734865,1],"baseColorTexture":{"index":0},"metallicFactor":0}},{"alphaMode":"OPAQUE","name":"Material__11","pbrMetallicRoughness":{"baseColorFactor":[0.6400000190734865,0.6400000190734865,0.6400000190734865,1],"baseColorTexture":{"index":1},"metallicFactor":0}}],"meshes":[{"name":"NidoranF","primitives":[{"material":1,"extensions":{"ALI_amc_mesh_compression":{"bufferView":1}}},{"material":0,"extensions":{"ALI_amc_mesh_compression":{"bufferView":2}}}]}],"nodes":[{"children":[3,4],"name":"Armature","scale":[0.02539999969303608,0.02539999969303608,0.02539999969303608]},{"name":"Camera","rotation":[0.483536034822464,0.33687159419059753,-0.20870360732078552,0.7804827094078064],"translation":[7.481131553649902,5.34366512298584,6.5076398849487305]},{"name":"Lamp","rotation":[0.16907575726509094,0.7558802962303162,-0.27217137813568115,0.570947527885437],"scale":[1,1,0.9999999403953552],"translation":[4.076245307922363,5.903861999511719,-1.0054539442062378]},{"mesh":0,"name":"NidoranF","skin":0},{"children":[5,56],"name":"Armature_pm0029_00","rotation":[-0.7071068286895752,0,0,0.7071068286895752]},{"children":[6],"name":"Armature_Origin"},{"children":[7,42],"name":"Armature_Waist","rotation":[0,-0.9586443305015564,0,0.28460678458213806],"scale":[1,0.9999999403953552,1],"translation":[0,1.364009141921997,17.925600051879883]},{"children":[8],"name":"Armature_Spine1","rotation":[0,-0.000004395842097437708,0,1],"scale":[1.0000001192092896,1,1.0000001192092896],"translation":[0.000004177854862064123,0.000011920928955078125,-0.00003201102663297206]},{"children":[9,28,35],"name":"Armature_Spine2","rotation":[0,-0.12302359193563461,0,0.9924037456512451],"scale":[0.9999998807907104,0.9999999403953552,0.9999998807907104],"translation":[1.3011138439178467,-3.6618313789367676,-1.9981635808944702]},{"children":[10,12,14,16,19,21,24,26],"name":"Armature_Head","rotation":[0,-0.03183825686573982,0,0.9994930624961853],"translation":[0.39713355898857117,-3.5668725967407227,-1.1574904918670654]},{"children":[11],"name":"Armature_LFeelerB","rotation":[0,-0.9652173519134521,0,0.2614486813545227],"scale":[0.9999999403953552,0.9999999403953552,0.9999999403953552],"translation":[-6.288087368011475,-12.447959899902344,-2.409463882446289]},{"name":"Armature_EndLFeelerB","translation":[7.723786354064941,2.270000457763672,1.9968795776367188]},{"children":[13],"name":"Armature_LFeelerA","rotation":[0,-0.9877957105636597,0,0.15575481951236725],"scale":[1,0.9999999403953552,1],"translation":[-5.927823066711426,-12.340692520141602,-4.8035993576049805]},{"name":"Armature_EndLFeelerA","rotation":[0,1.4901161193847656e-8,0,1],"translation":[11.260102272033691,4.069541931152344,3.4279956817626953]},{"children":[15],"name":"Armature_Jaw","rotation":[0,-0.9563493132591248,0,0.29222628474235535],"scale":[0.9999999403953552,0.9999998807907104,0.9999999403953552],"translation":[0.5047914385795593,-13.354108810424805,-1.8465899229049683]},{"name":"Armature_EndJaw","rotation":[0,1.4901161193847656e-8,0,1],"translation":[3.2861807346343994,-3.733837127685547,-2.8294920921325684]},{"children":[17],"name":"Armature_LEar1","rotation":[0,-0.9675232768058777,0,0.25278231501579285],"scale":[0.9999999403953552,0.9999999403953552,0.9999999403953552],"translation":[-4.070001125335693,-1.5136065483093262,-10.312164306640625]},{"children":[18],"name":"Armature_LEar2","rotation":[0,4.1723257027115324e-7,0,1],"scale":[0.9999999403953552,0.9999999403953552,0.9999999403953552],"translation":[1.7464141845703125,4.432875156402588,5.556417465209961]},{"name":"Armature_EndLEar2","translation":[3.232905387878418,8.206106185913086,10.28604507446289]},{"children":[20],"name":"Armature_Nose","rotation":[0,-1.4901162970204496e-8,0,1],"scale":[0.9999999403953552,0.9999999403953552,0.9999999403953552],"translation":[1.2909685373306274,-17.91179847717285,-4.722845554351807]},{"name":"Armature_EndNose","translation":[0.22820304334163666,-3.1662464141845703,-0.8348518013954163]},{"children":[22],"name":"Armature_REar1","rotation":[0,0.26143431663513184,0,0.9652213454246521],"scale":[0.9999999403953552,0.9999999403953552,0.9999999403953552],"translation":[8.749719619750977,-1.5135693550109863,-6.807850360870361]},{"children":[23],"name":"Armature_REar2","scale":[1,0.9999999403953552,1],"translation":[5.551237106323242,4.4327850341796875,1.7629022598266602]},{"name":"Armature_EndREar2","scale":[1,0.9999999403953552,1],"translation":[10.276333808898926,8.20610237121582,3.2635984420776367]},{"children":[25],"name":"Armature_RFeelerA","rotation":[0,-0.08796372264623642,0,0.9961236715316772],"scale":[1,0.9999999403953552,1],"translation":[7.547118663787842,-12.34072494506836,-1.1202144622802734]},{"name":"Armature_EndRFeelerA","rotation":[0,-1.1175870895385742e-8,0,1],"translation":[10.953434944152832,4.069541931152344,4.308510780334473]},{"children":[27],"name":"Armature_RFeelerB","rotation":[0,-0.2503182590007782,0,0.9681636095046997],"scale":[1,0.9999999403953552,1],"translation":[6.63945198059082,-12.447986602783203,1.124280333518982]},{"name":"Armature_EndRFeelerB","rotation":[0,-1.4901159417490817e-8,0,1],"scale":[1.0000001192092896,1,1.0000001192092896],"translation":[7.612628936767578,2.269989013671875,2.385662078857422]},{"children":[29],"name":"Armature_RShoulder","rotation":[0,-0.8528252243995667,0,0.5221965909004211],"translation":[2.210346221923828,-2.5009922981262207,3.8290345668792725]},{"children":[30],"name":"Armature_RArm","rotation":[0,0.030748071148991585,0,0.9995271563529968],"translation":[4.886723518371582,-3.388416290283203,-3.6899118423461914]},{"children":[31],"name":"Armature_RForeArm","rotation":[0,-0.017469124868512154,0,0.999847412109375],"scale":[0.9999999403953552,0.9999999403953552,0.9999999403953552],"translation":[4.942574501037598,-2.8021373748779297,-3.1531662940979004]},{"children":[32,33],"name":"Armature_RHand","rotation":[0,-0.7182618379592896,0,0.6957730054855347],"translation":[3.161344051361084,-2.010106086730957,-2.2215280532836914]},{"name":"Armature_EndRHand","rotation":[0,2.2351741790771484e-8,0,1],"translation":[0.17418992519378662,-3.3779211044311523,1.9752405881881714]},{"children":[34],"name":"Armature_RFinger","rotation":[0,2.384185791015625e-7,0,1],"translation":[-0.3436294198036194,-1.6367006301879883,0.1461094617843628]},{"name":"Armature_EndRFinger","rotation":[0,7.450581485102248e-9,0,1],"scale":[0.9999999403953552,1,0.9999999403953552],"translation":[0.14409667253494263,-2.793868064880371,1.6337523460388184]},{"children":[36],"name":"Armature_LShoulder","rotation":[0,-0.9854006171226501,0,0.17025195062160492],"translation":[-4.095487594604492,-2.5009818077087402,1.6654871702194214]},{"children":[37],"name":"Armature_LArm","rotation":[0,0.030747929587960243,0,0.9995271563529968],"scale":[0.9999999403953552,1,0.9999999403953552],"translation":[5.657076835632324,-3.3884406089782715,-2.343870162963867]},{"children":[38],"name":"Armature_LForeArm","rotation":[0,-0.01746871881186962,0,0.999847412109375],"translation":[5.509876251220703,-2.8021860122680664,-2.0029101371765137]},{"children":[39,40],"name":"Armature_LHand","rotation":[0,-0.6902970671653748,0,0.7235260605812073],"scale":[0.9999999403953552,1,0.9999999403953552],"translation":[3.5969619750976562,-2.010117530822754,-1.4111249446868896]},{"name":"Armature_EndLHand","translation":[1.532425880432129,-3.3778676986694336,1.2584235668182373]},{"children":[41],"name":"Armature_LFinger","rotation":[0,0.0000024437904357910156,0,1],"translation":[0.31447577476501465,-1.6365776062011719,-0.20122909545898438]},{"name":"Armature_EndLFinger","rotation":[0,-1.4901161193847656e-8,0,1],"translation":[1.267484426498413,-2.793872833251953,1.040848970413208]},{"children":[43,49,55],"name":"Armature_Hips","rotation":[0,-0.545673131942749,0,0.8379981517791748],"translation":[0.000014337081665871665,0.000011920928955078125,-0.000025395713237230666]},{"children":[44],"name":"Armature_RThigh","rotation":[0,-0.5809049010276794,0,0.8139714598655701],"scale":[0.9999998807907104,1,0.9999998807907104],"translation":[8.61594295501709,7.158565521240234,-1.164827823638916]},{"children":[45],"name":"Armature_RLeg","rotation":[0,0.21098551154136658,0,0.977489173412323],"scale":[0.9999999403953552,1,0.9999999403953552],"translation":[5.544772624969482,-1.435873031616211,-1.3926339149475098]},{"children":[46,48],"name":"Armature_RFoot","rotation":[0,-0.7678108215332031,0,0.6406766772270203],"scale":[0.9999999403953552,1,0.9999999403953552],"translation":[5.254289627075195,0.9666814804077148,0.9512184858322144]},{"children":[47],"name":"Armature_RToe","rotation":[0,-1.949956640601158e-9,0,1],"translation":[0.00004932243609800935,-5.723671913146973,-2.312044620513916]},{"name":"Armature_EndRToe","translation":[0.000044038984924554825,-6.257701873779297,-0.00004382617771625519]},{"name":"Armature_EndRFoot","rotation":[0,2.852175384759903e-9,0,1],"translation":[0.00007534329779446125,-10.63119888305664,-0.0000752047635614872]},{"children":[50],"name":"Armature_LThigh","rotation":[0,-0.5809049010276794,0,0.8139714598655701],"scale":[0.9999998807907104,1,0.9999998807907104],"translation":[-4.550389766693115,7.158551216125488,7.40850830078125]},{"children":[51],"name":"Armature_LLeg","rotation":[0,0.21098557114601135,0,0.977489173412323],"translation":[5.544771671295166,-1.4358816146850586,-1.3926348686218262]},{"children":[52,54],"name":"Armature_LFoot","rotation":[0,-0.7678108215332031,0,0.6406766176223755],"translation":[5.254281044006348,0.9666743278503418,0.9512084722518921]},{"children":[53],"name":"Armature_LToe","rotation":[0,1.3009412214159966e-8,0,1],"translation":[0.0000637273769825697,-5.7236738204956055,-2.3120439052581787]},{"name":"Armature_EndLToe","translation":[0.000043637119233608246,-6.257700443267822,-0.00004382804036140442]},{"name":"Armature_EndLFoot","rotation":[0,1.7666025087237358e-8,0,1],"translation":[0.00007503293454647064,-10.63119888305664,-0.00007673725485801697]},{"name":"Armature_EndHips","rotation":[0,1.4901161193847656e-8,0,1],"translation":[5.276480674743652,14.850214004516602,8.103316307067871]},{"name":"Armature_pm0029_00_Skin"}],"samplers":[{}],"scene":0,"scenes":[{"name":"Scene","nodes":[0,2,1]}],"skins":[{"inverseBindMatrices":0,"joints":[4,5,6,7,8,9,10,11,12,13,14,15,16,17,18,19,20,21,22,23,24,25,26,27,28,29,30,31,32,33,34,35,36,37,38,39,40,41,42,43,44,45,46,47,48,49,50,51,52,53,54,55,56],"skeleton":0}],"textures":[{"sampler":0,"source":0},{"sampler":0,"source":1}],"extensionsUsed":["ALI_amc_mesh_compression"],"extensionsRequired":["ALI_amc_mesh_compression"]}