{"accessors":[{"bufferView":0,"componentType":5126,"count":13,"max":[1,1.5983688981743849e-12,0.22869378328323364,0,1,1.3064637005630941e-17,1,0,1.5717913082191615e-12,-1,3.481237379528851e-13,0,2.0523507595062256,39.72648620605469,22.270633697509766,1],"min":[-0.9738380908966064,-1.1405383304463612e-8,-1,0,-0.22869378328323364,-4.8557044607377975e-8,-0.9738380908966064,0,0,-1.0000001192092896,-4.98785475144814e-8,0,-27.227502822875977,-11.714311599731445,-13.987019538879395,1],"type":"MAT4","byteOffset":0},{"bufferView":1,"componentType":5126,"count":13,"max":[1,1.5983688981743849e-12,0.22869378328323364,0,1,1.3064637005630941e-17,1,0,1.5717913082191615e-12,-1,3.481237379528851e-13,0,2.0523507595062256,39.72648620605469,22.270633697509766,1],"min":[-0.9738380908966064,-1.1405383304463612e-8,-1,0,-0.22869378328323364,-4.8557044607377975e-8,-0.9738380908966064,0,0,-1.0000001192092896,-4.98785475144814e-8,0,-27.227502822875977,-11.714311599731445,-13.987019538879395,1],"type":"MAT4","byteOffset":0}],"asset":{"generator":"Khronos Blender glTF 2.0 exporter","version":"2.0"},"bufferViews":[{"buffer":0,"byteLength":832,"byteOffset":0},{"buffer":0,"byteLength":832,"byteOffset":832},{"buffer":0,"byteOffset":1664,"byteLength":2071},{"buffer":0,"byteOffset":3735,"byteLength":89933}],"buffers":[{"byteLength":93668,"uri":"buffer.bin"}],"images":[{"name":"pm0090_00_Body1","uri":"pm0090_00_Body1.png"},{"name":"pm0090_00_Eye1","uri":"pm0090_00_Eye1.png"}],"materials":[{"name":"pm0090_00_Body1-material_001","pbrMetallicRoughness":{"baseColorFactor":[0.6400000190734865,0.6400000190734865,0.6400000190734865,1],"baseColorTexture":{"index":0},"metallicFactor":0}},{"name":"pm0090_00_Eye1-material_001","pbrMetallicRoughness":{"baseColorFactor":[0.6400000190734865,0.6400000190734865,0.6400000190734865,1],"baseColorTexture":{"index":1},"metallicFactor":0}}],"meshes":[{"name":"_001_pm0090_00_004.001","primitives":[{"material":1,"extensions":{"ALI_amc_mesh_compression":{"bufferView":2}}}]},{"name":"_000_pm0090_00_004.001","primitives":[{"material":0,"extensions":{"ALI_amc_mesh_compression":{"bufferView":3}}}]}],"nodes":[{"mesh":1,"name":"_000_pm0090_00_004","skin":0},{"mesh":0,"name":"_001_pm0090_00_004","skin":1},{"children":[0,1,5],"name":"Armature"},{"name":"Camera","rotation":[0.483536034822464,0.33687159419059753,-0.20870360732078552,0.7804827094078064],"translation":[7.481131553649902,5.34366512298584,6.5076398849487305]},{"name":"Lamp","rotation":[0.16907575726509094,0.7558802962303162,-0.27217137813568115,0.570947527885437],"scale":[1,1,0.9999999403953552],"translation":[4.076245307922363,5.903861999511719,-1.0054539442062378]},{"children":[6,17],"name":"Armature_pm0090_00","rotation":[-0.7071068286895752,5.338516118058578e-8,-5.338516118058578e-8,0.7071068286895752]},{"children":[7],"name":"Armature_Origin","rotation":[0,-7.559454218153405e-8,0,1]},{"children":[8,9,11],"name":"Armature_Waist","rotation":[0,-0.7071079015731812,0,0.7071056962013245],"scale":[1,0.9999999403953552,1],"translation":[9.179657922686602e-7,-0.37210702896118164,2.360830307006836]},{"name":"Armature_EndWaist","rotation":[0,1.1930569598916918e-7,0,1],"translation":[24.86667251586914,-0.0000030994415283203125,-0.000004145264028920792]},{"children":[10],"name":"Armature_FeelerB","rotation":[0,-0.6215903759002686,0,0.7833424806594849],"translation":[11.272438049316406,12.086420059204102,-7.925100362626836e-7]},{"name":"Armature_EndFeelerB","rotation":[0,-0.000002384185791015625,0,1],"translation":[2.0989062786102295,-39.5789794921875,-8.994036674499512]},{"children":[12,13],"name":"Armature_Head","rotation":[0,0.7071048617362976,0,0.707108736038208],"translation":[11.626167297363281,-6.381846904754639,0.00001106658783101011]},{"name":"Armature_EndHead","rotation":[0,0.0000028950266823812854,0,1],"translation":[0.00005152573430677876,-14.452648162841797,0.00002193446744058747]},{"children":[14],"name":"Armature_FeelerA1","rotation":[8.761338822407122e-14,0.11511547863483429,-7.560316847392279e-13,0.9933522343635559],"translation":[0.000012251930456841365,-11.82607650756836,-5.012661933898926]},{"children":[15],"name":"Armature_FeelerA2","rotation":[-2.49394496165678e-8,9.015202522277832e-7,-2.23938858586294e-14,1],"translation":[0.325528621673584,-6.058971405029297,-1.3856279850006104]},{"children":[16],"name":"Armature_FeelerA3","rotation":[2.493942119485837e-8,-0.0000023618340492248535,-5.913902722566589e-14,1],"translation":[0.31166917085647583,-5.800999164581299,-1.3266247510910034]},{"name":"Armature_EndFeelerA3","rotation":[5.082197683525802e-21,4.172325134277344e-7,-2.964615315390051e-20,1],"translation":[0.4989258348941803,-9.286487579345703,-2.123734474182129]},{"name":"Armature_pm0090_00_Skin"}],"samplers":[{}],"scene":0,"scenes":[{"name":"Scene","nodes":[2,4,3]}],"skins":[{"inverseBindMatrices":0,"joints":[5,6,7,8,9,10,11,12,13,14,15,16,17],"skeleton":2},{"inverseBindMatrices":1,"joints":[5,6,7,8,9,10,11,12,13,14,15,16,17],"skeleton":2}],"textures":[{"sampler":0,"source":0},{"sampler":0,"source":1}],"extensionsUsed":["ALI_amc_mesh_compression"],"extensionsRequired":["ALI_amc_mesh_compression"]}