{"accessors":[{"bufferView":0,"componentType":5126,"count":43,"max":[1,0,1.4210854715202004e-14,0,7.1054265105680546e-15,0,1,0,0,-1,0,0,30.886552810668945,0,27.831329345703125,1],"min":[1,0,-7.1054265105680546e-15,0,-1.4210854715202004e-14,0,1,0,0,-1,0,0,-32.93653106689453,-66.8923568725586,-20.400461196899414,1],"type":"MAT4","byteOffset":0},{"bufferView":1,"componentType":5126,"count":43,"max":[1,0,1.4210854715202004e-14,0,7.1054265105680546e-15,0,1,0,0,-1,0,0,30.886552810668945,0,27.831329345703125,1],"min":[1,0,-7.1054265105680546e-15,0,-1.4210854715202004e-14,0,1,0,0,-1,0,0,-32.93653106689453,-66.8923568725586,-20.400461196899414,1],"type":"MAT4","byteOffset":0},{"bufferView":2,"componentType":5126,"count":43,"max":[1,0,1.4210854715202004e-14,0,7.1054265105680546e-15,0,1,0,0,-1,0,0,30.886552810668945,0,27.831329345703125,1],"min":[1,0,-7.1054265105680546e-15,0,-1.4210854715202004e-14,0,1,0,0,-1,0,0,-32.93653106689453,-66.8923568725586,-20.400461196899414,1],"type":"MAT4","byteOffset":0}],"asset":{"generator":"Khronos Blender glTF 2.0 exporter","version":"2.0"},"bufferViews":[{"buffer":0,"byteLength":2752,"byteOffset":0},{"buffer":0,"byteLength":2752,"byteOffset":2752},{"buffer":0,"byteLength":2752,"byteOffset":5504},{"buffer":0,"byteOffset":8256,"byteLength":212},{"buffer":0,"byteOffset":8468,"byteLength":2110},{"buffer":0,"byteOffset":10578,"byteLength":74683},{"buffer":0,"byteOffset":85261,"byteLength":1139},{"buffer":0,"byteOffset":86400,"byteLength":1315},{"buffer":0,"byteOffset":87715,"byteLength":284},{"buffer":0,"byteOffset":87999,"byteLength":6199},{"buffer":0,"byteOffset":94198,"byteLength":284},{"buffer":0,"byteOffset":94482,"byteLength":960},{"buffer":0,"byteOffset":95442,"byteLength":4185}],"buffers":[{"byteLength":99627,"uri":"buffer.bin"}],"images":[{"name":"pm0109_00_Body1.tga","uri":"pm0109_00_Body1.tga.png"},{"name":"pm0109_00_Eye1","uri":"pm0109_00_Eye1.png"},{"name":"pm0109_00_FireCoreA1.tga","uri":"pm0109_00_FireCoreA1.tga.png"},{"name":"pm0109_00_FireCoreB1.tga","uri":"pm0109_00_FireCoreB1.tga.png"},{"name":"pm0109_00_FireGeomA.tga","uri":"pm0109_00_FireGeomA.tga.png"},{"name":"pm0109_00_FireStenA.tga","uri":"pm0109_00_FireStenA.tga.png"},{"name":"pm0109_00_Mouth1","uri":"pm0109_00_Mouth1.png"}],"materials":[{"name":"Body_mat","pbrMetallicRoughness":{"baseColorFactor":[0.6400000190734865,0.6400000190734865,0.6400000190734865,1],"baseColorTexture":{"index":0},"metallicFactor":0}},{"name":"Eye_mat","pbrMetallicRoughness":{"baseColorFactor":[0.6400000190734865,0.6400000190734865,0.6400000190734865,1],"baseColorTexture":{"index":1},"metallicFactor":0}},{"name":"FireCoreA_mat","pbrMetallicRoughness":{"baseColorFactor":[0.6400000190734865,0.6400000190734865,0.6400000190734865,1],"baseColorTexture":{"index":2},"metallicFactor":0}},{"name":"FireCoreB1_mat","pbrMetallicRoughness":{"baseColorFactor":[0.6400000190734865,0.6400000190734865,0.6400000190734865,1],"baseColorTexture":{"index":3},"metallicFactor":0}},{"name":"FireGeomA_mat","pbrMetallicRoughness":{"baseColorFactor":[0.6400000190734865,0.6400000190734865,0.6400000190734865,1],"baseColorTexture":{"index":4},"metallicFactor":0}},{"name":"FireGeomB1_mat","pbrMetallicRoughness":{"baseColorFactor":[0.6400000190734865,0.6400000190734865,0.6400000190734865,1],"baseColorTexture":{"index":4},"metallicFactor":0}},{"name":"FireGeomB2_mat","pbrMetallicRoughness":{"baseColorFactor":[0.6400000190734865,0.6400000190734865,0.6400000190734865,1],"baseColorTexture":{"index":4},"metallicFactor":0}},{"name":"FireStenA_mat","pbrMetallicRoughness":{"baseColorFactor":[0.6400000190734865,0.6400000190734865,0.6400000190734865,1],"baseColorTexture":{"index":7},"metallicFactor":0}},{"name":"FireStenB1_mat","pbrMetallicRoughness":{"baseColorFactor":[0.6400000190734865,0.6400000190734865,0.6400000190734865,1],"baseColorTexture":{"index":7},"metallicFactor":0}},{"name":"FireStenB2_mat","pbrMetallicRoughness":{"baseColorFactor":[0.6400000190734865,0.6400000190734865,0.6400000190734865,1],"baseColorTexture":{"index":7},"metallicFactor":0}},{"name":"Mouth_mat","pbrMetallicRoughness":{"baseColorFactor":[0.6400000190734865,0.6400000190734865,0.6400000190734865,1],"baseColorTexture":{"index":10},"metallicFactor":0}}],"meshes":[{"name":"mesh_8_FireStenB2","primitives":[{"material":8,"extensions":{"ALI_amc_mesh_compression":{"bufferView":3}}},{"material":9,"extensions":{"ALI_amc_mesh_compression":{"bufferView":4}}}]},{"name":"mesh_10_Body","primitives":[{"material":0,"extensions":{"ALI_amc_mesh_compression":{"bufferView":5}}},{"material":1,"extensions":{"ALI_amc_mesh_compression":{"bufferView":6}}},{"material":10,"extensions":{"ALI_amc_mesh_compression":{"bufferView":7}}}]},{"name":"mesh_3_FireCoreA","primitives":[{"material":5,"extensions":{"ALI_amc_mesh_compression":{"bufferView":8}}},{"material":3,"extensions":{"ALI_amc_mesh_compression":{"bufferView":9}}},{"material":6,"extensions":{"ALI_amc_mesh_compression":{"bufferView":10}}},{"material":4,"extensions":{"ALI_amc_mesh_compression":{"bufferView":11}}},{"material":2,"extensions":{"ALI_amc_mesh_compression":{"bufferView":12}}}]}],"nodes":[{"children":[3,4,5,6],"name":"Armature","rotation":[0.7071068286895752,0,0,0.7071067094802856]},{"name":"Camera","rotation":[0.483536034822464,0.33687159419059753,-0.20870360732078552,0.7804827094078064],"translation":[7.481131553649902,5.34366512298584,6.5076398849487305]},{"name":"Lamp","rotation":[0.16907575726509094,0.7558802962303162,-0.27217137813568115,0.570947527885437],"scale":[1,1,0.9999999403953552],"translation":[4.076245307922363,5.903861999511719,-1.0054539442062378]},{"mesh":1,"name":"vsn_mesh_10_Body","skin":0},{"mesh":2,"name":"vsn_mesh_3_FireCoreA","skin":1},{"mesh":0,"name":"vsn_mesh_8_FireStenB2","skin":2},{"children":[7,38,39,40,41,42,43,44,45,46,47,48],"name":"Armature_pm0109_00","rotation":[-0.7071068286895752,0,0,0.7071068286895752]},{"children":[8],"name":"Armature_Origin"},{"children":[9,10,11,12,13,14,15,16,21],"name":"Armature_Waist","translation":[0,31.391672134399414,0]},{"name":"Armature_LFeelerA","rotation":[0,3.552713678800501e-15,0,1],"translation":[20.070039749145508,21.57636833190918,-2.7483181953430176]},{"name":"Armature_RFeelerA","translation":[-18.532302856445312,21.106435775756836,11.024962425231934]},{"name":"Armature_FeelerI","rotation":[0,-3.5527132552840273e-15,0,1],"translation":[-30.886552810668945,33.434661865234375,17.09648895263672]},{"name":"Armature_FeelerJ","translation":[32.93653106689453,35.50068664550781,-2.3724780082702637]},{"name":"Armature_FeelerK"},{"name":"Armature_FeelerL"},{"name":"Armature_FeelerM","translation":[-3.1391599009111815e-7,-1.0000019073486328,0]},{"children":[17,18,19,20],"name":"Armature_RootFeelerA"},{"name":"Armature_FeelerG","rotation":[0,-1.832437196772063e-15,0,1],"translation":[8.91604232788086,22.531457901000977,-17.772762298583984]},{"name":"Armature_FeelerB","rotation":[0,3.633185832196159e-16,0,1],"translation":[-2.835247755050659,-12.319480895996094,-26.789281845092773]},{"name":"Armature_LFeelerB","translation":[22.59640884399414,-3.413492202758789,18.841209411621094]},{"name":"Armature_RFeelerB","translation":[-20.357919692993164,-5.164287567138672,20.400461196899414]},{"children":[22,23,24,25,26,27,28,29,30,31,32,33,34,35,36,37],"name":"Armature_RootFeelerB"},{"name":"Armature_FeelerA","translation":[0.000008650559720990714,27.5568790435791,10.792428970336914]},{"name":"Armature_FeelerC","rotation":[0,-1.7763570511584873e-15,0,1],"translation":[-12.69922924041748,11.714677810668945,-23.870298385620117]},{"name":"Armature_FeelerD","rotation":[0,7.105427357601002e-15,0,1],"translation":[21.196447372436523,-4.981916427612305,-19.262897491455078]},{"name":"Armature_FeelerE","translation":[-21.10658073425293,-13.545539855957031,-16.16920280456543]},{"name":"Armature_FeelerF","rotation":[0,1.4119594538431878e-16,0,1],"translation":[9.51530933380127,-21.091691970825195,-16.847412109375]},{"name":"Armature_FeelerH","translation":[-16.929269790649414,20.556230545043945,-13.866458892822266]},{"name":"Armature_LFeelerC","translation":[19.788000106811523,-12.728363037109375,18.339439392089844]},{"name":"Armature_RFeelerC","translation":[-27.134811401367188,-4.4755096435546875,9.405741691589355]},{"name":"Armature_LFeelerD","translation":[23.993600845336914,-16.11665153503418,-1.9245009422302246]},{"name":"Armature_RFeelerD","translation":[-20.915550231933594,-20.75212287902832,-1.320950984954834]},{"name":"Armature_LFeelerE","translation":[11.378649711608887,-25.571882247924805,0.07619296759366989]},{"name":"Armature_RFeelerE","translation":[-8.258683204650879,-26.098276138305664,4.967772006988525]},{"name":"Armature_LFeelerF","rotation":[0,-8.881784197001252e-16,0,1],"translation":[6.133279800415039,7.270597457885742,-27.831329345703125]},{"name":"Armature_RFeelerF","rotation":[0,4.2040688862283754e-15,0,1],"translation":[-18.00813102722168,-5.036306381225586,-22.282312393188477]},{"name":"Armature_LFeelerG","rotation":[0,7.105427357601002e-15,0,1],"translation":[27.65152931213379,2.093069076538086,-5.793249130249023]},{"name":"Armature_RFeelerG","translation":[-26.412029266357422,6.186986923217773,-6.894706726074219]},{"name":"Armature_pm0109_00_BodySkin"},{"name":"Armature_pm0109_00_IrisSkin"},{"name":"Armature_pm0109_00_FireGeomASkin"},{"name":"Armature_pm0109_00_FireGeomB1Skin"},{"name":"Armature_pm0109_00_FireGeomB2Skin"},{"name":"Armature_pm0109_00_FireCoreASkin"},{"name":"Armature_pm0109_00_FireCoreB1Skin"},{"name":"Armature_pm0109_00_FireCoreB2Skin"},{"name":"Armature_pm0109_00_FireStenASkin"},{"name":"Armature_pm0109_00_FireStenB1Skin"},{"name":"Armature_pm0109_00_FireStenB2Skin"}],"samplers":[{}],"scene":0,"scenes":[{"name":"Scene","nodes":[0,2,1]}],"skins":[{"inverseBindMatrices":0,"joints":[6,7,8,9,10,11,12,13,14,15,16,17,18,19,20,21,22,23,24,25,26,27,28,29,30,31,32,33,34,35,36,37,38,39,40,41,42,43,44,45,46,47,48],"skeleton":0},{"inverseBindMatrices":1,"joints":[6,7,8,9,10,11,12,13,14,15,16,17,18,19,20,21,22,23,24,25,26,27,28,29,30,31,32,33,34,35,36,37,38,39,40,41,42,43,44,45,46,47,48],"skeleton":0},{"inverseBindMatrices":2,"joints":[6,7,8,9,10,11,12,13,14,15,16,17,18,19,20,21,22,23,24,25,26,27,28,29,30,31,32,33,34,35,36,37,38,39,40,41,42,43,44,45,46,47,48],"skeleton":0}],"textures":[{"sampler":0,"source":0},{"sampler":0,"source":1},{"sampler":0,"source":2},{"sampler":0,"source":3},{"sampler":0,"source":4},{"sampler":0,"source":4},{"sampler":0,"source":4},{"sampler":0,"source":5},{"sampler":0,"source":5},{"sampler":0,"source":5},{"sampler":0,"source":6}],"extensionsUsed":["ALI_amc_mesh_compression"],"extensionsRequired":["ALI_amc_mesh_compression"]}