{"accessors":[{"bufferView":0,"componentType":5126,"count":104,"max":[1,0,1,0,1,0,1,0,0,-1,0,0,105.5047607421875,46.49103927612305,102.33087158203125,1],"min":[-0.9798637628555298,0,-1,0,-1,0,-0.9798637628555298,0,0,-1.0000001192092896,0,0,-154.76092529296875,-13.923707962036133,-143.18638610839844,1],"type":"MAT4","byteOffset":0}],"asset":{"generator":"Khronos Blender glTF 2.0 exporter","version":"2.0"},"bufferViews":[{"buffer":0,"byteLength":6656,"byteOffset":0},{"buffer":0,"byteOffset":6656,"byteLength":3123},{"buffer":0,"byteOffset":9779,"byteLength":3403},{"buffer":0,"byteOffset":13182,"byteLength":139475}],"buffers":[{"byteLength":152657,"uri":"buffer.bin"}],"images":[{"name":"pm0065_00_Body1","uri":"pm0065_00_Body1.png"},{"name":"pm0065_00_Eye1","uri":"pm0065_00_Eye1.png"},{"name":"pm0065_00_Iris1","uri":"pm0065_00_Iris1.png"}],"materials":[{"alphaMode":"OPAQUE","name":"Material__91","pbrMetallicRoughness":{"baseColorFactor":[0.6400000190734865,0.6400000190734865,0.6400000190734865,1],"baseColorTexture":{"index":0},"metallicFactor":0}},{"alphaMode":"OPAQUE","name":"Material__92","pbrMetallicRoughness":{"baseColorFactor":[0.6400000190734865,0.6400000190734865,0.6400000190734865,1],"baseColorTexture":{"index":1},"metallicFactor":0}},{"alphaMode":"MASK","name":"Material__93","pbrMetallicRoughness":{"baseColorFactor":[0.6400000190734865,0.6400000190734865,0.6400000190734865,1],"baseColorTexture":{"index":2},"metallicFactor":0}}],"meshes":[{"name":"AlakazamF","primitives":[{"material":1,"extensions":{"ALI_amc_mesh_compression":{"bufferView":1}}},{"material":2,"extensions":{"ALI_amc_mesh_compression":{"bufferView":2}}},{"material":0,"extensions":{"ALI_amc_mesh_compression":{"bufferView":3}}}]}],"nodes":[{"mesh":0,"name":"AlakazamF","skin":0},{"children":[0,4],"name":"Armature","scale":[0.02539999969303608,0.02539999969303608,0.02539999969303608]},{"name":"Camera","rotation":[0.483536034822464,0.33687159419059753,-0.20870360732078552,0.7804827094078064],"translation":[7.481131553649902,5.34366512298584,6.5076398849487305]},{"name":"Lamp","rotation":[0.16907575726509094,0.7558802962303162,-0.27217137813568115,0.570947527885437],"scale":[1,1,0.9999999403953552],"translation":[4.076245307922363,5.903861999511719,-1.0054539442062378]},{"children":[5,104,106,107],"name":"Armature_pm0065_00_foodin","rotation":[-0.7071068286895752,0,0,0.7071068286895752]},{"children":[6],"name":"Armature_Origin"},{"children":[7,73,99,100,102],"name":"Armature_Waist","rotation":[0,-0.7071080803871155,0,0.7071055769920349],"scale":[1,0.9999999403953552,1],"translation":[0,6.300756454467773,73.34329986572266]},{"children":[8,41,57],"name":"Armature_Spine","rotation":[0,-0.17177648842334747,0,0.9851359724998474],"translation":[-0.00006103534542489797,-0.000027179718017578125,-0.00005397003405960277]},{"children":[9],"name":"Armature_Neck","rotation":[0,-0.2957228720188141,0,0.9552738070487976],"scale":[0.9999998807907104,1,0.9999998807907104],"translation":[29.513029098510742,-11.280654907226562,-10.615033149719238]},{"children":[10,11,13,15,23,31,35,39],"name":"Armature_Head","rotation":[0,0.1458750218153,0,0.9893031120300293],"translation":[2.4958996772766113,-5.910304069519043,-3.458617925643921]},{"name":"Armature_EndHead","rotation":[0,-1.4901161193847656e-8,0,1],"translation":[21.579036712646484,-20.776447296142578,-16.503280639648438]},{"children":[12],"name":"Armature_Jaw","rotation":[0,-0.9669381976127625,0,0.2550107538700104],"translation":[-1.959629774093628,-27.258235931396484,1.4987263679504395]},{"name":"Armature_EndJaw","rotation":[0,-2.9802322387695312e-8,0,1],"translation":[19.646982192993164,-2.7379226684570312,-2.712196111679077]},{"children":[14],"name":"Armature_LEar","rotation":[0,0.8643633723258972,0,0.5028677582740784],"translation":[6.1325907707214355,-3.2499523162841797,-21.19729232788086]},{"name":"Armature_EndLEar","rotation":[0,-3.725290653733282e-8,0,1],"scale":[0.9999999403953552,0.9999999403953552,0.9999999403953552],"translation":[28.58845329284668,23.462970733642578,19.411273956298828]},{"children":[16],"name":"Armature_LFeelerB1","rotation":[0,0.9646658897399902,0,0.26347649097442627],"translation":[-16.18561553955078,-35.600791931152344,7.2357563972473145]},{"children":[17],"name":"Armature_LFeelerB2","translation":[6.4517412185668945,0.00000762939453125,0.000008106231689453125]},{"children":[18],"name":"Armature_LFeelerB3","translation":[6.869861602783203,0.00000762939453125,0.0000057220458984375]},{"children":[19],"name":"Armature_LFeelerB4","translation":[8.532588958740234,0.000003814697265625,0.000019073486328125]},{"children":[20],"name":"Armature_LFeelerB5","translation":[11.011205673217773,0.0000152587890625,0.00001811981201171875]},{"children":[21],"name":"Armature_LFeelerB6","translation":[9.642601013183594,0.00000762939453125,0.00000762939453125]},{"children":[22],"name":"Armature_LFeelerB7","translation":[12.072601318359375,0.000011444091796875,0.0000152587890625]},{"name":"Armature_EndLFeelerB7","translation":[22.40860366821289,0.000019073486328125,0.0000171661376953125]},{"children":[24],"name":"Armature_RFeelerB1","rotation":[0,-0.6062009930610657,0,0.795311450958252],"translation":[-11.222417831420898,-35.60078430175781,13.725461959838867]},{"children":[25],"name":"Armature_RFeelerB2","translation":[6.451717376708984,0,0.000013828277587890625]},{"children":[26],"name":"Armature_RFeelerB3","translation":[6.869870185852051,0.000026702880859375,0.000010013580322265625]},{"children":[27],"name":"Armature_RFeelerB4","translation":[8.532571792602539,0.000011444091796875,9.5367431640625e-7]},{"children":[28],"name":"Armature_RFeelerB5","translation":[11.011305809020996,0.000011444091796875,0.00001430511474609375]},{"children":[29],"name":"Armature_RFeelerB6","translation":[9.642562866210938,0.000003814697265625,0.0000019073486328125]},{"children":[30],"name":"Armature_RFeelerB7","translation":[12.072710037231445,0.000019073486328125,0.0000476837158203125]},{"name":"Armature_EndRFeelerB7","translation":[22.408599853515625,0.000030517578125,0.000030517578125]},{"children":[32],"name":"Armature_RFeelerC1","rotation":[0,-0.6572569012641907,0,0.7536666393280029],"translation":[-11.22237491607666,-35.60077667236328,13.725455284118652]},{"children":[33],"name":"Armature_RFeelerC2","rotation":[0,-0.08225385844707489,0,0.996611475944519],"scale":[0.9999999403953552,1,0.9999999403953552],"translation":[8.576741218566895,-0.00000762939453125,0.000027179718017578125]},{"children":[34],"name":"Armature_RFeelerC3","rotation":[0,-0.06547174602746964,0,0.9978545308113098],"translation":[9.835535049438477,0.000003814697265625,0.00006961822509765625]},{"name":"Armature_EndRFeelerC3","rotation":[0,1.4901161193847656e-8,0,1],"translation":[22.55790138244629,-0.0000152587890625,-0.000003814697265625]},{"children":[36],"name":"Armature_LFeelerC1","rotation":[0,0.9799215197563171,0,0.19938383996486664],"translation":[-16.185558319091797,-35.60077667236328,7.235724449157715]},{"children":[37],"name":"Armature_LFeelerC2","rotation":[0,0.08225473761558533,0,0.9966113567352295],"scale":[0.9999999403953552,0.9999999403953552,0.9999999403953552],"translation":[8.576656341552734,-0.000011444091796875,-0.000004291534423828125]},{"children":[38],"name":"Armature_LFeelerC3","rotation":[0,0.06547173112630844,0,0.9978545308113098],"scale":[0.9999999403953552,1,0.9999999403953552],"translation":[9.835623741149902,-0.00000762939453125,-0.000080108642578125]},{"name":"Armature_EndLFeelerC3","rotation":[0,-1.4901161193847656e-8,0,1],"translation":[22.557907104492188,-0.000011444091796875,-0.000003814697265625]},{"children":[40],"name":"Armature_REar","rotation":[0,0.20405460894107819,0,0.9789595007896423],"translation":[22.063873291015625,-3.2500829696655273,-0.36667346954345703]},{"name":"Armature_EndREar","rotation":[0,7.450580596923828e-9,0,1],"translation":[28.588420867919922,23.463001251220703,19.41129493713379]},{"children":[42],"name":"Armature_RShoulder","rotation":[0,-0.6543121933937073,0,0.7562245726585388],"translation":[31.288795471191406,-6.667203903198242,3.473482131958008]},{"children":[43],"name":"Armature_RArm","rotation":[0,-0.4115734100341797,0,0.9113765954971313],"scale":[1,0.9999999403953552,1],"translation":[17.261804580688477,-0.43751204013824463,-0.4372081756591797]},{"children":[44,55],"name":"Armature_RForeArm","rotation":[0,0.0014840380754321814,0,0.999998927116394],"scale":[1,0.9999999403953552,1],"translation":[27.52785873413086,1.2136074304580688,1.2125892639160156]},{"children":[45,48,51,54],"name":"Armature_RHand","rotation":[0,-0.026682637631893158,0,0.9996439814567566],"scale":[0.9999999403953552,0.9999999403953552,0.9999999403953552],"translation":[36.293697357177734,1.708399772644043,1.7064476013183594]},{"children":[46],"name":"Armature_RFingerA1","rotation":[0,-0.6842832565307617,0,0.7292163968086243],"scale":[0.9999999403953552,1,0.9999999403953552],"translation":[11.954126358032227,-9.453740119934082,3.2250099182128906]},{"children":[47],"name":"Armature_RFingerA2","rotation":[0,0.06080930680036545,0,0.9981495141983032],"translation":[4.756865501403809,-4.909102439880371,-3.825535297393799]},{"name":"Armature_EndRFingerA2","rotation":[0,1.4901161193847656e-8,0,1],"translation":[8.036504745483398,-6.807920455932617,-5.589000701904297]},{"children":[49],"name":"Armature_RFingerB1","rotation":[0,0.9872491359710693,0,0.15918269753456116],"translation":[16.47368621826172,7.069934844970703,-3.4979591369628906]},{"children":[50],"name":"Armature_RFingerB2","rotation":[0,-0.6507173776626587,0,0.7593201398849487],"scale":[0.9999999403953552,1,0.9999999403953552],"translation":[-11.142667770385742,1.7222166061401367,-0.0003552436828613281]},{"name":"Armature_EndRFingerB2","rotation":[0,-1.4901161193847656e-8,0,1],"translation":[-19.839136123657227,3.013538360595703,0.004805088043212891]},{"children":[52],"name":"Armature_RFingerC1","rotation":[0,0.9512076377868652,0,0.308551549911499],"translation":[17.311145782470703,-4.820625305175781,-3.7066965103149414]},{"children":[53],"name":"Armature_RFingerC2","rotation":[0,-0.5253469347953796,0,0.8508881330490112],"scale":[0.9999999403953552,1,0.9999999403953552],"translation":[-11.719208717346191,0.00818014144897461,2.4547388553619385]},{"name":"Armature_EndRFingerC2","translation":[-19.982629776000977,2.2730584144592285,0.0014386177062988281]},{"name":"Armature_EndRHand","translation":[32.59269332885742,3.725435495376587,3.7016348838806152]},{"children":[56],"name":"Armature_RFeelerD","rotation":[0,-0.7067358493804932,0,0.7074775695800781],"scale":[0.9999999403953552,0.9999999403953552,0.9999999403953552],"translation":[-0.27643775939941406,6.303710460662842,-0.011997222900390625]},{"name":"Armature_EndRFeelerD","rotation":[0,5.960464477539063e-8,0,1],"translation":[0.032390594482421875,-16.79409408569336,-0.7370834350585938]},{"children":[58],"name":"Armature_LShoulder","rotation":[0,0.8589415550231934,0,0.512073814868927],"translation":[21.90835189819336,-6.667181968688965,-22.606956481933594]},{"children":[59],"name":"Armature_LArm","rotation":[0,0.47374194860458374,0,0.8806637525558472],"translation":[17.261489868164062,-0.4375874698162079,-0.4376201629638672]},{"children":[60,71],"name":"Armature_LForeArm","rotation":[0,0.0014839933719485998,0,0.999998927116394],"scale":[1,0.9999999403953552,1],"translation":[27.528087615966797,1.2137233018875122,1.212484359741211]},{"children":[61,64,67,70],"name":"Armature_LHand","rotation":[0,0.09265614300966263,0,0.9956982731819153],"translation":[36.29365539550781,1.7083814144134521,1.7065086364746094]},{"children":[62],"name":"Armature_LFingerA1","rotation":[0,-0.03675505146384239,0,0.9993243217468262],"scale":[0.9999998807907104,0.9999999403953552,0.9999998807907104],"translation":[12.372855186462402,-9.453680992126465,-0.4619636535644531]},{"children":[63],"name":"Armature_LFingerA2","rotation":[0,0.00876703206449747,0,0.9999616146087646],"translation":[4.756977081298828,-4.909116744995117,-3.8256101608276367]},{"name":"Armature_EndLFingerA2","translation":[8.036331176757812,-6.807909965515137,-5.589240550994873]},{"children":[65],"name":"Armature_LFingerB1","rotation":[0,0.04677625745534897,0,0.9989054203033447],"scale":[0.9999999403953552,0.9999999403953552,0.9999999403953552],"translation":[15.269756317138672,7.069825172424316,7.103208541870117]},{"children":[66],"name":"Armature_LFingerB2","rotation":[0,0.6506116390228271,0,0.7594106197357178],"scale":[0.9999999403953552,1,0.9999999403953552],"translation":[11.142699241638184,1.7222728729248047,-0.000003337860107421875]},{"name":"Armature_EndLFingerB2","rotation":[0,-1.4901161193847656e-8,0,1],"translation":[19.839130401611328,3.0134973526000977,0.000027179718017578125]},{"children":[68],"name":"Armature_LFingerC1","rotation":[0,0.09718593209981918,0,0.9952662587165833],"scale":[0.9999999403953552,0.9999999403953552,0.9999999403953552],"translation":[16.03904914855957,-4.820676326751709,7.494328498840332]},{"children":[69],"name":"Armature_LFingerC2","rotation":[0,0.6102128028869629,0,0.7922375798225403],"scale":[0.9999999403953552,1,0.9999999403953552],"translation":[11.973516464233398,0.008263826370239258,0.000044465065002441406]},{"name":"Armature_EndLFingerC2","translation":[19.982542037963867,2.2730424404144287,0.00000858306884765625]},{"name":"Armature_EndLHand","scale":[1,0.9999999403953552,1],"translation":[32.592674255371094,3.725461006164551,3.701662540435791]},{"children":[72],"name":"Armature_LFeelerD","rotation":[0,-0.7096526622772217,0,0.7045516967773438],"scale":[0.9999999403953552,1,0.9999999403953552],"translation":[-0.276397705078125,6.303621292114258,-0.014141082763671875]},{"name":"Armature_EndLFeelerD","rotation":[0,-2.9802322387695312e-8,0,1],"translation":[0.032375335693359375,-16.79409408569336,-0.7370662689208984]},{"children":[74,86,87],"name":"Armature_Hips","rotation":[0,1,0,0.0000012675908465098473],"translation":[-6.980371836107224e-11,0.000004291534423828125,-0.000019940194761147723]},{"children":[75],"name":"Armature_LThigh","rotation":[0,-0.34476250410079956,0,0.9386899471282959],"translation":[11.602636337280273,-1.4328851699829102,6.593918800354004]},{"children":[76],"name":"Armature_LLeg","rotation":[0,0.39903122186660767,0,0.9169373512268066],"scale":[1.0000001192092896,1,1.0000001192092896],"translation":[26.308088302612305,-7.095128059387207,-1.0974903106689453]},{"children":[77,80,81,84],"name":"Armature_LFoot","rotation":[0,-0.7472220063209534,0,0.6645746231079102],"scale":[0.9999999403953552,1,0.9999999403953552],"translation":[29.970151901245117,1.1957833766937256,0.24474632740020752]},{"children":[78],"name":"Armature_LToeA1","rotation":[0,-0.002330429619178176,0,0.9999973773956299],"translation":[16.995454788208008,2.005251169204712,-8.119818687438965]},{"children":[79],"name":"Armature_LToeA2","rotation":[0,-0.0005009512533433735,0,0.9999998807907104],"translation":[8.482378959655762,-2.618685245513916,0.029031574726104736]},{"name":"Armature_EndLToeA2","rotation":[0,2.3283064365386963e-10,0,1],"scale":[1,0.9999999403953552,1],"translation":[14.029314041137695,-5.7530059814453125,0.06479498744010925]},{"name":"Armature_EndLFoot","rotation":[0,-3.2052867027232423e-9,0,1],"translation":[32.17557907104492,-12.642742156982422,-0.000007262977305799723]},{"children":[82],"name":"Armature_LToeB1","rotation":[0,-0.0033956978004425764,0,0.9999943375587463],"translation":[9.644217491149902,-14.76974105834961,-7.491933822631836]},{"children":[83],"name":"Armature_LToeB2","rotation":[0,0.0007105389959178865,0,0.9999997615814209],"translation":[9.22402286529541,-5.124490737915039,0.0625850260257721]},{"name":"Armature_EndLToeB2","rotation":[0,-2.3283064365386963e-10,0,1],"translation":[12.384157180786133,-5.078388214111328,0.06037759780883789]},{"children":[85],"name":"Armature_LToeC","rotation":[0,0.04660358279943466,0,0.9989134669303894],"translation":[-13.181071281433105,6.126523017883301,-7.462658405303955]},{"name":"Armature_EndLToeC","translation":[-11.841614723205566,5.832443714141846,-1.2522034645080566]},{"name":"Armature_EndHips","translation":[25.072097778320312,4.76837158203125e-7,-9.016366675496101e-7]},{"children":[88],"name":"Armature_RThigh","rotation":[0,-0.35952460765838623,0,0.9331356287002563],"translation":[11.60273551940918,-1.432908535003662,-6.593968391418457]},{"children":[89],"name":"Armature_RLeg","rotation":[0,0.3990301191806793,0,0.9169378280639648],"translation":[4.532515525817871,-7.0951128005981445,-25.937843322753906]},{"children":[90,91,94,97],"name":"Armature_RFoot","rotation":[0,-0.7366507053375244,0,0.6762734055519104],"scale":[0.9999998807907104,0.9999999403953552,0.9999998807907104],"translation":[29.407915115356445,1.1957943439483643,5.78347635269165]},{"name":"Armature_EndRFoot","rotation":[0,1.4148099580779672e-8,0,1],"translation":[-32.175655364990234,-12.642788887023926,0.00035980239044874907]},{"children":[92],"name":"Armature_RToeA1","rotation":[0,-0.07097071409225464,0,0.9974784255027771],"translation":[-16.995561599731445,2.0052173137664795,-8.119614601135254]},{"children":[93],"name":"Armature_RToeA2","rotation":[0,0.016785738989710808,0,0.9998592138290405],"translation":[-8.387112617492676,-2.6187095642089844,1.2689101696014404]},{"name":"Armature_EndRToeA2","translation":[-13.930523872375488,-5.7529449462890625,1.6624791622161865]},{"children":[95],"name":"Armature_RToeB1","rotation":[0,-0.043677255511283875,0,0.9990457892417908],"translation":[-9.644292831420898,-14.769851684570312,-7.4918437004089355]},{"children":[96],"name":"Armature_RToeB2","rotation":[0,-0.013866069726645947,0,0.9999039173126221],"translation":[-9.177275657653809,-5.124396324157715,0.9297704696655273]},{"name":"Armature_EndRToeB2","rotation":[0,-3.725290298461914e-9,0,1],"translation":[-12.287116050720215,-5.078390121459961,1.54856276512146]},{"children":[98],"name":"Armature_RToeC","rotation":[0,0.003230063710361719,0,0.9999948740005493],"translation":[13.180948257446289,6.126514434814453,-7.462774753570557]},{"name":"Armature_EndRToeC","translation":[11.90744400024414,5.832452774047852,-0.06743036210536957]},{"name":"Armature_EndWaist","rotation":[0,-1.1368683772161603e-13,0,1],"translation":[77.62870025634766,-0.00000286102294921875,-2.9103830456733704e-11]},{"children":[101],"name":"Armature_LFeelerA","rotation":[0,0.7184815406799316,0,0.69554603099823],"translation":[-52.433082580566406,-1.6562070846557617,-67.78825378417969]},{"name":"Armature_EndLFeelerA","rotation":[0,2.7939677238464355e-8,0,1],"translation":[-0.000005185604095458984,-43.57960510253906,-0.000001430511474609375]},{"children":[103],"name":"Armature_RFeelerA","rotation":[0,0.686782956123352,0,0.7268626093864441],"scale":[0.9999999403953552,1,0.9999999403953552],"translation":[-52.43307113647461,-1.6562066078186035,67.78832244873047]},{"name":"Armature_EndRFeelerA","rotation":[0,-1.862645149230957e-9,0,1],"translation":[-0.00003337860107421875,-43.57950210571289,0.000038623809814453125]},{"children":[105],"name":"Armature_VriVis01"},{"name":"Armature_pm0065_01_HigeSkin"},{"name":"Armature_pm0065_00_BodySkin"},{"name":"Armature_pm0065_00_IrisSkin"}],"samplers":[{}],"scene":0,"scenes":[{"name":"Scene","nodes":[1,3,2]}],"skins":[{"inverseBindMatrices":0,"joints":[4,5,6,7,8,9,10,11,12,13,14,15,16,17,18,19,20,21,22,23,24,25,26,27,28,29,30,31,32,33,34,35,36,37,38,39,40,41,42,43,44,45,46,47,48,49,50,51,52,53,54,55,56,57,58,59,60,61,62,63,64,65,66,67,68,69,70,71,72,73,74,75,76,77,78,79,80,81,82,83,84,85,86,87,88,89,90,91,92,93,94,95,96,97,98,99,100,101,102,103,104,105,106,107],"skeleton":1}],"textures":[{"sampler":0,"source":0},{"sampler":0,"source":1},{"sampler":0,"source":2}],"extensionsUsed":["ALI_amc_mesh_compression"],"extensionsRequired":["ALI_amc_mesh_compression"]}