{"accessors":[{"bufferView":0,"componentType":5126,"count":39,"max":[1.0000001192092896,3.6237693076292266e-13,0.23657314479351044,0,1,-3.71774921958945e-9,1.0000001192092896,0,1.8944830513373256e-12,-1,-1.1366403559467594e-13,0,22.88323402404785,21.85968589782715,-1.1339155435562134,1],"min":[-0.0000030239436910051154,-8.043673460633727e-8,-1,0,-0.23657314479351044,-2.2808393396189786e-7,-0.000003023943918378791,0,-1.798318578494218e-7,-1.0000003576278687,-1.564422973387991e-7,0,-30.812965393066406,-21.85955810546875,-42.1631965637207,1],"type":"MAT4","byteOffset":0},{"bufferView":1,"componentType":5126,"count":39,"max":[0.042535390704870224,-0.9990949630737305,0.04253539443016052,0,0.9990950226783752,0.04253539815545082,0.9990951418876648,0,8.704432730155531e-8,-0.0000028212377856107196,1,0,8.09469223022461,22.432016372680664,14.66601276397705,1],"min":[-0.010060032829642296,-0.9990953207015991,-0.0000029058282962068915,0,-0.23636198043823242,0.042535170912742615,2.736442183959298e-9,0,-1.0000001192092896,-0.0000029016759981459472,-0.23657599091529846,0,-29.93900489807129,-21.287227630615234,-19.223609924316406,1],"type":"MAT4","byteOffset":0}],"asset":{"generator":"Khronos Blender glTF 2.0 exporter","version":"2.0"},"bufferViews":[{"buffer":0,"byteLength":2496,"byteOffset":0},{"buffer":0,"byteLength":2496,"byteOffset":2496},{"buffer":0,"byteOffset":4992,"byteLength":5539},{"buffer":0,"byteOffset":10531,"byteLength":142407}],"buffers":[{"byteLength":152938,"uri":"buffer.bin"}],"images":[{"name":"pm0046_00_BodyA1","uri":"pm0046_00_BodyA1.png"},{"name":"pm0046_00_BodyB1","uri":"pm0046_00_BodyB1.png"}],"materials":[{"alphaMode":"OPAQUE","name":"BodyASpc00","pbrMetallicRoughness":{"baseColorFactor":[0.6400000190734865,0.6400000190734865,0.6400000190734865,1],"baseColorTexture":{"index":0},"metallicFactor":0}},{"alphaMode":"OPAQUE","name":"BodyB","pbrMetallicRoughness":{"baseColorFactor":[0.6400000190734865,0.6400000190734865,0.6400000190734865,1],"baseColorTexture":{"index":1},"metallicFactor":0}}],"meshes":[{"name":"Paras","primitives":[{"material":1,"extensions":{"ALI_amc_mesh_compression":{"bufferView":2}}},{"material":0,"extensions":{"ALI_amc_mesh_compression":{"bufferView":3}}}]}],"nodes":[{"children":[1,17,18],"name":"_01_pm0046_00","rotation":[0.7071068286895752,0,0,0.7071067094802856],"scale":[0.02539999783039093,0.02539999969303608,0.02539999969303608]},{"children":[2],"name":"_02_Origin"},{"children":[3,21,22],"name":"_03_Waist","rotation":[0.5105231404304504,0.5105231404304504,0.48924919962882996,0.4892520308494568],"scale":[0.9999999403953552,0.9999999403953552,1],"translation":[0,-5.826169967651367,-13.454999923706055]},{"name":"_04_EndWaist","rotation":[1.862645149230957e-9,4.872635628316857e-10,5.814229098177748e-9,1],"translation":[28.76639747619629,0,-5.960464477539063e-8]},{"name":"_07_EndHead2","rotation":[0.000001549533408251591,0.0000032040150017564883,-0.07104039192199707,0.9974735379219055],"translation":[9.481670379638672,-1.2557599544525146,-2.7284799853505293e-12]},{"name":"_09_EndLFeelerA","translation":[5.084517002105713,-0.000005722049991163658,4.768369876728684e-7]},{"name":"_11_EndLFeelerB","translation":[3.6066479682922363,0.0000028610199933609692,-0.0000028610199933609692]},{"name":"_13_EndRFeelerA","translation":[5.084521770477295,-0.00009632109868107364,-0.000004291529876354616]},{"name":"_15_EndRFeelerB","translation":[3.6066009998321533,-0.000009536740435578395,0.00004005429946118966]},{"name":"_19_EndLHand","rotation":[0.000632772920653224,0.0009771172190085053,-0.06392622739076614,0.9979539513587952],"scale":[0.9999999403953552,1,1],"translation":[4.374898910522461,0.000007629389983776491,9.536739753457368e-7]},{"name":"_21_EndLFeelerC","rotation":[0.00029593781800940633,-0.003245953004807234,0.000417955539887771,0.999994695186615],"translation":[11.14249038696289,0,-0.0000014305099966804846]},{"name":"_25_EndLFoot","rotation":[-0.00000877086404216243,-0.012104677967727184,-0.0007330005755648017,0.9999265074729919],"scale":[0.9999998807907104,1,0.9999998807907104],"translation":[5.868222236633301,5.96045985901128e-8,0]},{"name":"_29_EndLFoot2","rotation":[1.2013138928068656e-8,0.00021905082394368947,-8.214907865067289e-9,1],"scale":[0.9999998807907104,1,0.9999998807907104],"translation":[5.677751064300537,0,0]},{"name":"_33_EndRHand","rotation":[-0.0006328359013423324,-0.000977413379587233,-0.06392595171928406,0.9979540109634399],"scale":[0.9999999403953552,0.9999998807907104,1],"translation":[4.374882221221924,-0.000045776399929309264,-0.000017166099496535026]},{"name":"_35_EndRFeelerC","rotation":[-0.0002959546691272408,0.0032459767535328865,0.00041795577271841466,0.999994695186615],"translation":[11.142510414123535,-0.0000014305099966804846,0.00001955029983946588]},{"name":"_39_EndRFoot","rotation":[0.000008880888344720006,0.012104813009500504,-0.000733089167624712,0.9999265074729919],"scale":[0.9999998807907104,1,0.9999998807907104],"translation":[5.868213176727295,1.7881400538044545e-7,-0.00005149839853402227]},{"name":"_43_EndRFoot2","rotation":[4.382466178148858e-12,-0.00021886835747864097,-1.9634413206404133e-8,1],"scale":[0.9999998807907104,1,0.9999998807907104],"translation":[5.677749156951904,-0.0000019073499970545527,-0.000005722049991163658]},{"name":"_44_pm0046_00_HghtLight_Skin"},{"name":"_45_pm0046_00_Skin"},{"name":"Camera","rotation":[0.483536034822464,0.33687159419059753,-0.20870360732078552,0.7804827094078064],"translation":[7.481131553649902,5.34366512298584,6.5076398849487305]},{"name":"Lamp","rotation":[0.16907575726509094,0.7558802962303162,-0.27217137813568115,0.570947527885437],"scale":[1,1,0.9999999403953552],"translation":[4.076245307922363,5.903861999511719,-1.0054539442062378]},{"mesh":0,"name":"Paras","rotation":[-0.015040873549878597,-0.7069457769393921,0.015042994171380997,0.7069478034973145],"skin":1,"translation":[5.826131820678711,13.442840576171875,-0.5723305344581604]},{"children":[23,33,37,39,43,47,51,53,57],"name":"_03_Waist__05_Spine","rotation":[-0.4999992251396179,-0.5000007748603821,0.5000007748603821,0.4999992251396179],"scale":[1,0.9999999403953552,1],"translation":[19.281150817871094,7.628887176513672,-0.00005494891229318455]},{"children":[24,25,27,29,31],"name":"_03_Waist__06_Head","rotation":[0,-1.1368683772161603e-13,0,1],"translation":[11.703897476196289,-0.000029563901989604346,-1.2110111713409424]},{"name":"_03_Waist__07_EndHead2","rotation":[0,0.07104039937257767,0,0.9974735379219055],"scale":[1,0.9999999403953552,1],"translation":[9.481669425964355,0.0000019073486328125,-1.2557615041732788]},{"children":[26],"name":"_03_Waist__08_LFeelerA","rotation":[0,0.23621433973312378,0,0.9717009663581848],"scale":[1,0.9999999403953552,1],"translation":[7.207700729370117,-7.463315010070801,-1.5716229677200317]},{"name":"_03_Waist__09_EndLFeelerA","translation":[4.9965667724609375,-0.9416131973266602,-0.0024824142456054688]},{"children":[28],"name":"_03_Waist__10_LFeelerB","rotation":[0,0.0035807418171316385,0,0.9999936819076538],"scale":[1,0.9999999403953552,1],"translation":[8.618831634521484,-3.2819981575012207,4.596642017364502]},{"name":"_03_Waist__11_EndLFeelerB","rotation":[0,2.3283064365386963e-10,0,1],"translation":[2.9542102813720703,2.0687875747680664,-0.02581937611103058]},{"children":[30],"name":"_03_Waist__12_RFeelerA","rotation":[0,0.23621371388435364,0,0.9717011451721191],"translation":[7.20777702331543,7.463286399841309,-1.5715276002883911]},{"name":"_03_Waist__13_EndRFeelerA","rotation":[0,1.4901161193847656e-8,0,1],"translation":[4.996556282043457,0.9416790008544922,-0.00257110595703125]},{"children":[32],"name":"_03_Waist__14_RFeelerB","rotation":[0,0.0035827686078846455,0,0.9999936819076538],"scale":[0.9999999403953552,1,0.9999999403953552],"translation":[8.618877410888672,3.281921625137329,4.59666109085083]},{"name":"_03_Waist__15_EndRFeelerB","scale":[1,0.9999999403953552,1],"translation":[2.9541664123535156,-2.0687689781188965,-0.02584761381149292]},{"children":[34],"name":"_03_Waist__16_LArm","rotation":[0,0.47434791922569275,0,0.8803375363349915],"scale":[0.9999999403953552,0.9999999403953552,0.9999999403953552],"translation":[9.48144817352295,-9.595699310302734,1.6930673122406006]},{"children":[35],"name":"_03_Waist__17_LForeArm","rotation":[0,-0.17231719195842743,0,0.9850415587425232],"scale":[1,1.0000001192092896,1],"translation":[1.4386577606201172,-3.9623451232910156,2.1769046783447266]},{"children":[36],"name":"_03_Waist__18_LHand","rotation":[0,0.1445699781179428,0,0.9894945621490479],"scale":[0.9999999403953552,1,0.9999999403953552],"translation":[4.440805912017822,-0.08892059326171875,15.116864204406738]},{"name":"_03_Waist__19_EndLHand","rotation":[-7.230989496065376e-8,0.06392697244882584,9.473045281538361e-8,0.9979546666145325],"scale":[0.9999999403953552,0.9999999403953552,0.9999999403953552],"translation":[-1.0826292037963867,1.247161865234375,4.051204681396484]},{"children":[38],"name":"_03_Waist__20_LFeelerC","rotation":[0,0.7386462092399597,0,0.6740933060646057],"translation":[-1.083333134651184,-8.423927307128906,-7.410704612731934]},{"name":"_03_Waist__21_EndLFeelerC","rotation":[0,-0.0004179962270427495,0,0.9999999403953552],"translation":[8.535600662231445,-7.158324241638184,-0.23872756958007812]},{"children":[40],"name":"_03_Waist__22_LThigh","rotation":[0,0.683322548866272,0,0.7301166653633118],"scale":[0.9999998807907104,0.9999998807907104,0.9999998807907104],"translation":[3.758094549179077,-5.524893283843994,7.499975204467773]},{"children":[41],"name":"_03_Waist__23_LLeg","rotation":[0,0.0039879498071968555,0,0.9999921321868896],"scale":[0.9999999403953552,0.9999999403953552,0.9999999403953552],"translation":[4.133085250854492,-10.166158676147461,0.4541158676147461]},{"children":[42],"name":"_03_Waist__24_LFoot","rotation":[0,0.028070436790585518,0,0.9996059536933899],"translation":[-4.093445301055908,-6.026594161987305,0.6648590564727783]},{"name":"_03_Waist__25_EndLFoot","rotation":[0,0.0010350794764235616,0,0.999999463558197],"translation":[-5.866466999053955,-0.14209365844726562,0.020720988512039185]},{"children":[44],"name":"_03_Waist__26_LThigh2","rotation":[0,0.7863115668296814,0,0.617830216884613],"translation":[-1.1555465459823608,-5.529189586639404,7.499988079071045]},{"children":[45],"name":"_03_Waist__27_LLeg2","rotation":[0,-0.01802392490208149,0,0.9998375773429871],"scale":[0.9999998807907104,1,0.9999998807907104],"translation":[4.909345626831055,-10.29780387878418,-1.60984206199646]},{"children":[46],"name":"_03_Waist__28_LFoot2","rotation":[0,-0.10121643543243408,0,0.9948644638061523],"translation":[-4.217341423034668,-5.504645347595215,-2.3742001056671143]},{"name":"_03_Waist__29_EndLFoot2","rotation":[-3.7256326912427085e-9,6.923528417246416e-10,-2.579452311634841e-18,1],"translation":[-5.677750587463379,-0.0000171661376953125,-0.00003368734905961901]},{"children":[48],"name":"_03_Waist__30_RArm","rotation":[0,0.4743511974811554,0,0.8803356885910034],"translation":[9.481490135192871,9.5956392288208,1.6930959224700928]},{"children":[49],"name":"_03_Waist__31_RForeArm","rotation":[0,-0.170988991856575,0,0.9852729439735413],"translation":[1.438553810119629,3.962338447570801,2.176938533782959]},{"children":[50],"name":"_03_Waist__32_RHand","rotation":[0,0.14321377873420715,0,0.9896917939186096],"scale":[1.0000001192092896,1,1.0000001192092896],"translation":[4.399945259094238,0.08887958526611328,15.128816604614258]},{"name":"_03_Waist__33_EndRHand","rotation":[0,0.06392576545476913,0,0.9979546666145325],"translation":[-1.0825011730194092,-1.2472076416015625,4.051204681396484]},{"children":[52],"name":"_03_Waist__34_RFeelerC","rotation":[0,0.7386471033096313,0,0.6740924119949341],"scale":[0.9999999403953552,1,0.9999999403953552],"translation":[-1.0832964181900024,8.423975944519043,-7.410683631896973]},{"name":"_03_Waist__35_EndRFeelerC","rotation":[0,-0.0004179776879027486,0,1],"translation":[8.535541534423828,7.158432960510254,-0.23876667022705078]},{"children":[54],"name":"_03_Waist__36_RThigh","rotation":[0,0.6833243370056152,0,0.7301149964332581],"scale":[0.9999999403953552,1,0.9999999403953552],"translation":[3.758125066757202,5.524828910827637,7.500007629394531]},{"children":[55],"name":"_03_Waist__37_RLeg","rotation":[0,0.003991979174315929,0,0.9999921321868896],"scale":[0.9999998807907104,1,0.9999998807907104],"translation":[4.132903575897217,10.1661376953125,0.45406413078308105]},{"children":[56],"name":"_03_Waist__38_RFoot","rotation":[0,0.02825448475778103,0,0.9996008276939392],"scale":[0.9999999403953552,1,0.9999999403953552],"translation":[-4.093528747558594,6.026571273803711,0.6647756099700928]},{"name":"_03_Waist__39_EndRFoot","rotation":[0,0.0008446646970696747,0,0.9999996423721313],"translation":[-5.866466999053955,0.1419658660888672,0.01848622038960457]},{"children":[58],"name":"_03_Waist__40_RThigh2","rotation":[0,0.7863129377365112,0,0.6178284287452698],"translation":[-1.1555250883102417,5.529151916503906,7.500020503997803]},{"children":[59],"name":"_03_Waist__41_RLeg2","rotation":[0,-0.018018588423728943,0,0.9998377561569214],"translation":[4.909253120422363,10.297840118408203,-1.6099040508270264]},{"children":[60],"name":"_03_Waist__42_RFoot2","rotation":[0,-0.10122401267290115,0,0.9948636889457703],"translation":[-4.217409610748291,5.504566192626953,-2.3743155002593994]},{"name":"_03_Waist__43_EndRFoot2","rotation":[0,-0.3965655267238617,0,0.918006420135498],"translation":[-5.677749156951904,-0.00002288818359375,-0.000035293960536364466]}],"samplers":[{}],"scene":0,"scenes":[{"name":"Scene","nodes":[16,15,14,13,12,11,10,9,8,7,6,5,4,0,20,19]}],"skins":[{"inverseBindMatrices":0,"joints":[22,23,24,25,26,27,28,29,30,31,32,33,34,35,36,37,38,39,40,41,42,43,44,45,46,47,48,49,50,51,52,53,54,55,56,57,58,59,60],"skeleton":2},{"inverseBindMatrices":1,"joints":[22,23,24,25,26,27,28,29,30,31,32,33,34,35,36,37,38,39,40,41,42,43,44,45,46,47,48,49,50,51,52,53,54,55,56,57,58,59,60],"skeleton":2}],"textures":[{"sampler":0,"source":0},{"sampler":0,"source":1}],"extensionsUsed":["ALI_amc_mesh_compression"],"extensionsRequired":["ALI_amc_mesh_compression"]}