{"accessors":[{"bufferView":0,"componentType":5126,"count":71,"max":[1,0,1.0000001192092896,0,0.9987735152244568,0,1,0,0,-1,0,0,136.7816162109375,29.722667694091797,122.40662384033203,1],"min":[-0.9999933838844299,0,-0.9987735152244568,0,-1.0000001192092896,0,-0.9999933838844299,0,0,-1.0000001192092896,0,0,-130.88487243652344,-10.896716117858887,-137.0519561767578,1],"type":"MAT4","byteOffset":0}],"asset":{"generator":"Khronos Blender glTF 2.0 exporter","version":"2.0"},"bufferViews":[{"buffer":0,"byteLength":4544,"byteOffset":0},{"buffer":0,"byteOffset":4544,"byteLength":149835},{"buffer":0,"byteOffset":154379,"byteLength":2579}],"buffers":[{"byteLength":156958,"uri":"buffer.bin"}],"images":[{"name":"pm0067_00_Body1","uri":"pm0067_00_Body1.png"},{"name":"pm0067_00_Eye1","uri":"pm0067_00_Eye1.png"}],"materials":[{"alphaMode":"OPAQUE","name":"Material__89","pbrMetallicRoughness":{"baseColorFactor":[0.6400000190734865,0.6400000190734865,0.6400000190734865,1],"baseColorTexture":{"index":0},"metallicFactor":0}},{"alphaMode":"OPAQUE","name":"Material__90","pbrMetallicRoughness":{"baseColorFactor":[0.6400000190734865,0.6400000190734865,0.6400000190734865,1],"baseColorTexture":{"index":1},"metallicFactor":0}}],"meshes":[{"name":"Machoke","primitives":[{"material":0,"extensions":{"ALI_amc_mesh_compression":{"bufferView":1}}},{"material":1,"extensions":{"ALI_amc_mesh_compression":{"bufferView":2}}}]}],"nodes":[{"children":[3,4],"name":"Armature","scale":[0.02539999969303608,0.02539999969303608,0.02539999969303608]},{"name":"Camera","rotation":[0.483536034822464,0.33687159419059753,-0.20870360732078552,0.7804827094078064],"translation":[7.481131553649902,5.34366512298584,6.5076398849487305]},{"name":"Lamp","rotation":[0.16907575726509094,0.7558802962303162,-0.27217137813568115,0.570947527885437],"scale":[1,1,0.9999999403953552],"translation":[4.076245307922363,5.903861999511719,-1.0054539442062378]},{"mesh":0,"name":"Machoke","skin":0},{"children":[5,74],"name":"Armature_pm0067_00","rotation":[-0.7071068286895752,0,0,0.7071068286895752]},{"children":[6],"name":"Armature_Origin"},{"children":[7,21],"name":"Armature_Waist","rotation":[0,-0.7244008183479309,0,0.689379096031189],"scale":[0.9999999403953552,0.9999999403953552,0.9999999403953552],"translation":[0,2.7305963039398193,85.45040130615234]},{"children":[8,14,20],"name":"Armature_Hips","rotation":[0,-0.9996933937072754,0,0.024760916829109192],"scale":[0.9999999403953552,1,0.9999999403953552],"translation":[-6.088885697863589e-7,0.0000040531158447265625,-0.000012759292985720094]},{"children":[9],"name":"Armature_LThigh","rotation":[0,-0.021244805306196213,0,0.9997743368148804],"translation":[20.310043334960938,-2.180737018585205,16.617177963256836]},{"children":[10],"name":"Armature_LLeg","rotation":[0,0.1333533227443695,0,0.9910686612129211],"translation":[28.503992080688477,-1.2130378484725952,-1.2119414806365967]},{"children":[11,13],"name":"Armature_LFoot","rotation":[0,-0.7787685990333557,0,0.6273112893104553],"scale":[0.9999999403953552,1,0.9999999403953552],"translation":[24.649234771728516,5.78777551651001,5.641983509063721]},{"children":[12],"name":"Armature_LToe","rotation":[0,0.010101140476763248,0,0.9999489784240723],"scale":[0.9999999403953552,1,0.9999999403953552],"translation":[0.00008293986320495605,-18.882951736450195,-7.128307342529297]},{"name":"Armature_EndLToe","translation":[0.014957435429096222,-15.964317321777344,-0.4885077476501465]},{"name":"Armature_EndLFoot","rotation":[0,0.001206931541673839,0,0.9999992847442627],"translation":[0.000040508806705474854,-22.88899803161621,-0.00005589425563812256]},{"children":[15],"name":"Armature_RThigh","rotation":[0,-0.021244805306196213,0,0.9997743368148804],"translation":[20.310043334960938,-2.1807355880737305,-16.617225646972656]},{"children":[16],"name":"Armature_RLeg","rotation":[0,0.1333533227443695,0,0.9910686612129211],"translation":[28.503986358642578,-1.2130271196365356,-1.212044358253479]},{"children":[17,19],"name":"Armature_RFoot","rotation":[0,-0.7844511270523071,0,0.6201907396316528],"translation":[24.649181365966797,5.787787437438965,5.641933441162109]},{"children":[18],"name":"Armature_RToe","rotation":[0,0.019209736958146095,0,0.9998154640197754],"translation":[0.00003925338387489319,-18.882976531982422,-7.1282525062561035]},{"name":"Armature_EndRToe","translation":[0.0149545818567276,-15.964235305786133,-0.48848873376846313]},{"name":"Armature_EndRFoot","rotation":[0,0.0074338046833872795,0,0.9999724626541138],"translation":[0.000043272972106933594,-22.889001846313477,-0.000040724873542785645]},{"name":"Armature_EndHips","rotation":[0,-3.2161324270418845e-8,0,1],"translation":[34.55179214477539,0.000003337860107421875,9.798386599868536e-7]},{"children":[22,46,70],"name":"Armature_Spine","rotation":[0,5.960464477539063e-8,0,1],"translation":[-0.000040753780922386795,0.00006413459777832031,-0.00005115382373332977]},{"children":[23],"name":"Armature_LShoulder","rotation":[0,0.7521578073501587,0,0.658983051776886],"translation":[24.126344680786133,4.697668075561523,-13.873579025268555]},{"children":[24],"name":"Armature_LArm","rotation":[0,1.862645326866641e-8,0,1],"scale":[0.9999999403953552,1,0.9999999403953552],"translation":[14.457118034362793,-0.611536979675293,-0.6109893321990967]},{"children":[25],"name":"Armature_LForeArm","rotation":[0,2.6077035641947077e-8,0,1],"scale":[0.9999999403953552,1,0.9999999403953552],"translation":[30.348712921142578,-1.2837309837341309,-1.2826457023620605]},{"children":[26,30,34,38,42],"name":"Armature_LHand","rotation":[0,3.725290298461914e-9,0,1],"translation":[28.465778350830078,-1.2041034698486328,-1.2030019760131836]},{"children":[27],"name":"Armature_LFingerD1","rotation":[0,0.9917486906051636,0,0.1281975358724594],"translation":[15.17287826538086,1.1344356536865234,3.4634923934936523]},{"children":[28],"name":"Armature_LFingerD2","rotation":[0,-3.725290298461914e-8,0,1],"translation":[-5.162425994873047,0.0000019073486328125,1.8817596435546875]},{"children":[29],"name":"Armature_LFingerD3","translation":[-4.070323944091797,0.00000286102294921875,1.483682632446289]},{"name":"Armature_EndLFingerD3","translation":[-5.8631744384765625,0.000003337860107421875,2.1371936798095703]},{"children":[31],"name":"Armature_LFingerE1","rotation":[0,0.9920024871826172,0,0.12621907889842987],"translation":[13.96301555633545,6.567760467529297,3.412626266479492]},{"children":[32],"name":"Armature_LFingerE2","rotation":[0,-3.725290298461914e-8,0,1],"translation":[-4.404727935791016,-0.000003814697265625,1.5658817291259766]},{"children":[33],"name":"Armature_LFingerE3","scale":[1,0.9999999403953552,1],"translation":[-4.420011520385742,-0.000003814697265625,1.5713043212890625]},{"name":"Armature_EndLFingerE3","scale":[1,0.9999999403953552,1],"translation":[-5.880002975463867,-0.00000476837158203125,2.090330123901367]},{"children":[35],"name":"Armature_LFingerC1","rotation":[0,0.9903111457824707,0,0.1388663649559021],"scale":[0.9999999403953552,1,0.9999999403953552],"translation":[16.17003631591797,-5.00853157043457,3.5522289276123047]},{"children":[36],"name":"Armature_LFingerC2","rotation":[0,7.450580596923828e-8,0,1],"translation":[-5.080142974853516,0.0000010728836059570312,2.103700637817383]},{"children":[37],"name":"Armature_LFingerC3","rotation":[0,7.450580596923828e-9,0,1],"translation":[-4.976957321166992,9.5367431640625e-7,2.0609493255615234]},{"name":"Armature_EndLFingerC3","translation":[-5.765707015991211,0.0000011920928955078125,2.3875961303710938]},{"children":[39],"name":"Armature_LFingerB1","rotation":[0,0.9890660643577576,0,0.14747345447540283],"translation":[15.67818832397461,-11.237499237060547,3.4424562454223633]},{"children":[40],"name":"Armature_LFingerB2","rotation":[0,-2.2351741790771484e-8,0,1],"translation":[-5.200658798217773,-0.0000019073486328125,2.368745803833008]},{"children":[41],"name":"Armature_LFingerB3","rotation":[0,-7.450580596923828e-9,0,1],"translation":[-4.968433380126953,0,2.2629337310791016]},{"name":"Armature_EndLFingerB3","translation":[-5.679193496704102,-4.76837158203125e-7,2.5866870880126953]},{"children":[43],"name":"Armature_LFingerA1","rotation":[0,0.4974583089351654,0,0.867487907409668],"translation":[3.2286529541015625,-9.82583236694336,-3.1964735984802246]},{"children":[44],"name":"Armature_LFingerA2","rotation":[0,-0.06971374154090881,0,0.9975670576095581],"translation":[4.932441711425781,-3.799938201904297,3.4863510131835938]},{"children":[45],"name":"Armature_LFingerA3","rotation":[0,-1.4901161193847656e-8,0,1],"translation":[4.91151237487793,-2.4662256240844727,2.439697265625]},{"name":"Armature_EndLFingerA3","rotation":[0,-1.4901161193847656e-8,0,1],"translation":[8.39388656616211,-4.214827537536621,4.169406890869141]},{"children":[47],"name":"Armature_RShoulder","rotation":[0,-0.7473321557044983,0,0.6644507050514221],"translation":[25.38004493713379,4.697603225708008,11.419727325439453]},{"children":[48],"name":"Armature_RArm","rotation":[0,2.2351741790771484e-8,0,1],"translation":[14.457099914550781,-0.6115245819091797,-0.6110067367553711]},{"children":[49],"name":"Armature_RForeArm","translation":[30.348676681518555,-1.2837390899658203,-1.282613754272461]},{"children":[50,54,58,62,66],"name":"Armature_RHand","translation":[28.46575927734375,-1.2040910720825195,-1.2030630111694336]},{"children":[51],"name":"Armature_RFingerB1","rotation":[0,-0.023443223908543587,0,0.9997252821922302],"translation":[15.331974029541016,-11.237482070922852,-4.75316047668457]},{"children":[52],"name":"Armature_RFingerB2","translation":[5.714893341064453,-0.000001430511474609375,0.0000247955322265625]},{"children":[53],"name":"Armature_RFingerB3","translation":[5.459281921386719,9.5367431640625e-7,-0.000003814697265625]},{"name":"Armature_EndRFingerB3","translation":[6.240867614746094,-0.000001430511474609375,-0.000545501708984375]},{"children":[55],"name":"Armature_RFingerC1","rotation":[0,-0.01474803313612938,0,0.9998912811279297],"scale":[0.9999999403953552,1,0.9999999403953552],"translation":[15.812517166137695,-5.008510589599609,-4.904071807861328]},{"children":[56],"name":"Armature_RFingerC2","translation":[5.498497009277344,5.960464477539062e-7,0.0000247955322265625]},{"children":[57],"name":"Armature_RFingerC3","translation":[5.386600494384766,0.0000010728836059570312,-0.00002288818359375]},{"name":"Armature_EndRFingerC3","translation":[6.240879058837891,0.0000011920928955078125,0]},{"children":[59],"name":"Armature_RFingerA1","rotation":[0,0.08513019979000092,0,0.9963698387145996],"scale":[0.9999999403953552,1,0.9999999403953552],"translation":[3.4868812561035156,-9.82573127746582,2.91239070892334]},{"children":[60],"name":"Armature_RFingerA2","rotation":[0,-0.06971413642168045,0,0.9975671172142029],"scale":[0.9999999403953552,1,0.9999999403953552],"translation":[5.265568733215332,-3.8000292778015137,2.9593422412872314]},{"children":[61],"name":"Armature_RFingerA3","rotation":[0,-1.2665987014770508e-7,0,1],"translation":[5.078065872192383,-2.466179847717285,2.070908546447754]},{"name":"Armature_EndRFingerA3","translation":[8.678531646728516,-4.214883804321289,3.539250373840332]},{"children":[63],"name":"Armature_RFingerD1","rotation":[0,-0.003983127418905497,0,0.9999920725822449],"scale":[0.9999999403953552,1,0.9999999403953552],"translation":[14.826404571533203,1.1344833374023438,-4.731498718261719]},{"children":[64],"name":"Armature_RFingerD2","rotation":[0,1.2665987014770508e-7,0,1],"translation":[5.494787216186523,0.00000286102294921875,-0.000019073486328125]},{"children":[65],"name":"Armature_RFingerD3","rotation":[0,-7.450580596923828e-9,0,1],"translation":[4.33189582824707,0.0000019073486328125,0.000019073486328125]},{"name":"Armature_EndRFingerD3","translation":[6.241035461425781,0.000003337860107421875,-0.0002288818359375]},{"children":[67],"name":"Armature_RFingerE1","rotation":[0,-0.00198840769007802,0,0.9999980330467224],"scale":[0.9999998807907104,1,0.9999998807907104],"translation":[13.625232696533203,6.56781005859375,-4.579610824584961]},{"children":[68],"name":"Armature_RFingerE2","rotation":[0,-7.450580596923828e-9,0,1],"translation":[4.674810409545898,-0.0000057220458984375,0.00098419189453125]},{"children":[69],"name":"Armature_RFingerE3","translation":[4.691196441650391,-0.0000019073486328125,0.000019073486328125]},{"name":"Armature_EndRFingerE3","translation":[6.239873886108398,-0.00000286102294921875,0.0004901885986328125]},{"children":[71,72],"name":"Armature_Head","rotation":[0,-0.20501671731472015,0,0.9787585139274597],"translation":[33.469364166259766,-1.6612319946289062,-1.659101128578186]},{"name":"Armature_EndHead","rotation":[0,-1.4901161193847656e-8,0,1],"translation":[24.42178726196289,-13.604899406433105,-12.175631523132324]},{"children":[73],"name":"Armature_Jaw","rotation":[0,-0.7121948003768921,0,0.7019819617271423],"scale":[0.9999999403953552,1,0.9999999403953552],"translation":[9.13295841217041,-0.5770403742790222,-4.55332088470459]},{"name":"Armature_EndJaw","rotation":[0,1.4901161193847656e-8,0,1],"translation":[6.471896648406982,-27.284259796142578,12.524913787841797]},{"name":"Armature_pm0067_00_Skin"}],"samplers":[{}],"scene":0,"scenes":[{"name":"Scene","nodes":[0,2,1]}],"skins":[{"inverseBindMatrices":0,"joints":[4,5,6,7,8,9,10,11,12,13,14,15,16,17,18,19,20,21,22,23,24,25,26,27,28,29,30,31,32,33,34,35,36,37,38,39,40,41,42,43,44,45,46,47,48,49,50,51,52,53,54,55,56,57,58,59,60,61,62,63,64,65,66,67,68,69,70,71,72,73,74],"skeleton":0}],"textures":[{"sampler":0,"source":0},{"sampler":0,"source":1}],"extensionsUsed":["ALI_amc_mesh_compression"],"extensionsRequired":["ALI_amc_mesh_compression"]}