{"accessors":[{"bufferView":0,"componentType":5126,"count":92,"max":[0.9982728362083435,4.173321244138606e-8,1.0000001192092896,0,1.0000001192092896,2.043213243041464e-7,0.9982728362083435,0,0.0000012482433930927073,-1,7.547760105808266e-8,0,112.96712493896484,167.09713745117188,63.870216369628906,1],"min":[-0.7599118947982788,-2.0756173668701194e-8,-1.0000001192092896,0,-1.0000001192092896,-0.000001251952426173375,-0.7599118947982788,0,-4.1608632272982504e-7,-1.0000004768371582,-1.0431229213736515e-8,0,-115.58797454833984,-167.09872436523438,-100.58880615234375,1],"type":"MAT4","byteOffset":0},{"bufferView":1,"componentType":5126,"count":92,"max":[0.042535390704870224,-0.9990950226783752,0.042461756616830826,0,0.99909508228302,0.04253559932112694,0.9973695278167725,0,0.7599138021469116,-0.000002880919737435761,1.0000001192092896,0,90.97065734863281,169.32901000976562,105.88909912109375,1],"min":[-0.04253559187054634,-0.9990954995155334,-0.032321345061063766,0,-0.9990951418876648,0.042534153908491135,-0.7592260837554932,0,-0.9982730150222778,-0.0000029434052066790173,-1.0000001192092896,0,-146.25350952148438,-164.86685180664062,-137.7543487548828,1],"type":"MAT4","byteOffset":0}],"asset":{"generator":"Khronos Blender glTF 2.0 exporter","version":"2.0"},"bufferViews":[{"buffer":0,"byteLength":5888,"byteOffset":0},{"buffer":0,"byteLength":5888,"byteOffset":5888},{"buffer":0,"byteOffset":11776,"byteLength":82915},{"buffer":0,"byteOffset":94691,"byteLength":130983},{"buffer":0,"byteOffset":225674,"byteLength":1475},{"buffer":0,"byteOffset":227149,"byteLength":1475}],"buffers":[{"byteLength":228624,"uri":"buffer.bin"}],"images":[{"name":"pm0018_00_BodyA1","uri":"pm0018_00_BodyA1.png"},{"name":"pm0018_00_BodyB1","uri":"pm0018_00_BodyB1.png"},{"name":"pm0018_00_Eye1","uri":"pm0018_00_Eye1.png"},{"name":"pm0018_00_Iris1","uri":"pm0018_00_Iris1.png"}],"materials":[{"alphaMode":"OPAQUE","name":"BodyA00","pbrMetallicRoughness":{"baseColorFactor":[0.6400000190734865,0.6400000190734865,0.6400000190734865,1],"baseColorTexture":{"index":0},"metallicFactor":0}},{"alphaMode":"OPAQUE","name":"BodyB01","pbrMetallicRoughness":{"baseColorFactor":[0.6400000190734865,0.6400000190734865,0.6400000190734865,1],"baseColorTexture":{"index":1},"metallicFactor":0}},{"alphaMode":"OPAQUE","name":"Eye","pbrMetallicRoughness":{"baseColorFactor":[0.6400000190734865,0.6400000190734865,0.6400000190734865,1],"baseColorTexture":{"index":2},"metallicFactor":0}},{"alphaMode":"MASK","name":"RIris","pbrMetallicRoughness":{"baseColorFactor":[0.6400000190734865,0.6400000190734865,0.6400000190734865,1],"baseColorTexture":{"index":3},"metallicFactor":0}}],"meshes":[{"name":"Pidgeot","primitives":[{"material":1,"extensions":{"ALI_amc_mesh_compression":{"bufferView":2}}},{"material":0,"extensions":{"ALI_amc_mesh_compression":{"bufferView":3}}},{"material":3,"extensions":{"ALI_amc_mesh_compression":{"bufferView":4}}},{"material":2,"extensions":{"ALI_amc_mesh_compression":{"bufferView":5}}}]}],"nodes":[{"name":"_00_pm0018_00_WingRSkin"},{"children":[0,2,27,28,29],"name":"_01_pm0018_00","rotation":[0.7071068286895752,0,0,0.7071067094802856],"scale":[0.02539999783039093,0.02539999969303608,0.02539999969303608]},{"children":[3],"name":"_02_Origin"},{"children":[4,32,33,67],"name":"_03_Waist","rotation":[0.5105231404304504,0.5105231404304504,0.48924919962882996,0.4892520308494568],"scale":[0.9999999403953552,0.9999999403953552,1],"translation":[0,6.03639030456543,-52.471500396728516]},{"name":"_04_EndWaist","rotation":[1.862645149230957e-9,-7.540919000348367e-9,-1.7830751630754094e-7,1],"translation":[53.76089096069336,-0.000034332275390625,0.000001430511474609375]},{"name":"_09_EndLFoot","translation":[10.634889602661133,0,-0.0000019073499970545527]},{"name":"_12_EndLToeA2","translation":[13.361900329589844,0,0]},{"name":"_15_EndLToeB2","translation":[14.282400131225586,-2.3841900542720396e-7,0.0000019073499970545527]},{"name":"_18_EndLToeC2","translation":[13.545510292053223,-2.3841900542720396e-7,-0.0000019073499970545527]},{"name":"_20_EndLToeD","translation":[12.839200019836426,-9.536739753457368e-7,0]},{"name":"_24_EndRFoot","translation":[10.634889602661133,9.536739753457368e-7,-0.0000019073499970545527]},{"name":"_27_EndRToeA2","translation":[13.361800193786621,4.768369876728684e-7,-0.00003433230085647665]},{"name":"_30_EndRToeB2","translation":[14.282400131225586,-9.536739753457368e-7,0]},{"name":"_33_EndRToeC2","translation":[13.545499801635742,0,0.00001525879997643642]},{"name":"_35_EndRToeD","translation":[12.839300155639648,0.000008583069757150952,0]},{"name":"_38_EndTail2","translation":[57.30160903930664,0.000003814699994109105,0]},{"name":"_43_EndLFeeler2","translation":[62.88608169555664,-0.0000019073499970545527,0]},{"name":"_48_EndLHand","translation":[82.2537612915039,-0.000007629389983776491,0.000007629389983776491]},{"name":"_51_EndHead","translation":[38.88420104980469,0,1.1641500263781523e-10]},{"name":"_58_EndHairC6","translation":[40.479209899902344,0,-1.1641500263781523e-10]},{"name":"_60_EndJaw","translation":[15.778200149536133,0,-5.820770254683083e-11]},{"name":"_67_EndLHairA6","translation":[24.518600463867188,0,0]},{"name":"_74_EndLHairB6","translation":[29.36009979248047,-0.000022888199964654632,0]},{"name":"_81_EndRHairA6","translation":[24.51861000061035,-0.000022888199964654632,-0.000045776399929309264]},{"name":"_88_EndRHairB6","translation":[29.360000610351562,0.0005645750206895173,0.0004730219952762127]},{"name":"_91_EndRFeeler2","translation":[62.8861198425293,-0.0000686646017129533,-0.000007629389983776491]},{"name":"_96_EndRHand","translation":[82.25430297851562,-0.00019073499424848706,0.00007629390165675431]},{"name":"_97_pm0018_00_BodySkin"},{"name":"_98_pm0018_00_IrisSkin"},{"name":"_99_pm0018_00_WingLSkin"},{"name":"Camera","rotation":[0.483536034822464,0.33687159419059753,-0.20870360732078552,0.7804827094078064],"translation":[7.481131553649902,5.34366512298584,6.5076398849487305]},{"name":"Lamp","rotation":[0.16907575726509094,0.7558802962303162,-0.27217137813568115,0.570947527885437],"scale":[1,1,0.9999999403953552],"translation":[4.076245307922363,5.903861999511719,-1.0054539442062378]},{"mesh":0,"name":"Pidgeot","rotation":[-0.015041124075651169,-0.7069457769393921,0.015042990446090698,0.7069477438926697],"skin":1,"translation":[-6.036541938781738,52.42399978637695,-2.2318782806396484]},{"children":[34,49,64],"name":"_03_Waist__05_Hips","rotation":[-0.5555247068405151,0.4374840259552002,-0.4374840259552002,0.5555247068405151],"translation":[46.4349365234375,58.50802230834961,-0.00012515706475824118]},{"children":[35],"name":"_03_Waist__06_LThigh","rotation":[0,-0.5684453248977661,0,0.8227211833000183],"translation":[5.113726615905762,-12.457954406738281,-4.235077857971191]},{"children":[36],"name":"_03_Waist__07_LLeg","rotation":[0,-0.09172889590263367,0,0.9957840442657471],"scale":[1.0000001192092896,1,1.0000001192092896],"translation":[-23.86103057861328,-0.00017452239990234375,-6.089348793029785]},{"children":[37,38,41,44,47],"name":"_03_Waist__08_LFoot","rotation":[0,-0.6859893202781677,0,0.7276116609573364],"scale":[0.9999999403953552,1,0.9999999403953552],"translation":[-16.967039108276367,-0.0001049041748046875,2.00396728515625]},{"name":"_03_Waist__09_EndLFoot","rotation":[0,-1.0673829820007086e-8,0,1],"translation":[10.637818336486816,-0.00000286102294921875,0.0009730886667966843]},{"children":[39],"name":"_03_Waist__10_LToeA1","rotation":[0,1,0,0.000034050142858177423],"translation":[7.62148904800415,5.278994560241699,4.787162780761719]},{"children":[40],"name":"_03_Waist__11_LToeA2","rotation":[0,-5.471147233038209e-7,0,1],"translation":[-7.9470133781433105,4.588029861450195,-0.000224882154725492]},{"name":"_03_Waist__12_EndLToeA2","rotation":[0,9.094947017729282e-13,0,1],"translation":[-11.384749412536621,7.0025529861450195,-0.0003149784170091152]},{"children":[42],"name":"_03_Waist__13_LToeB1","rotation":[0,0.000010956580808851868,0,1],"translation":[10.089801788330078,0.01965618133544922,4.808944225311279]},{"children":[43],"name":"_03_Waist__14_LToeB2","rotation":[0,-0.000014603137969970703,0,1],"translation":[8.784775733947754,-0.00004100799560546875,0.0010372665710747242]},{"name":"_03_Waist__15_EndLToeB2","rotation":[0,3.637978807091713e-12,0,1],"translation":[14.286333084106445,0,0.0012098136357963085]},{"children":[45],"name":"_03_Waist__16_LToeC1","rotation":[0,1,0,0.000058845675084739923],"translation":[7.616621494293213,-5.0706892013549805,4.829556941986084]},{"children":[46],"name":"_03_Waist__17_LToeC2","rotation":[-5.215628817722973e-9,4.0655959310242906e-7,1.0401969063877914e-7,1],"scale":[1,0.9999999403953552,1],"translation":[-7.924480438232422,-4.716386795043945,0.00022732466459274292]},{"name":"_03_Waist__18_EndLToeC2","rotation":[5.2145274764825444e-9,9.09675655115516e-13,-1.3869289716694766e-7,1],"translation":[-11.565055847167969,-7.05997371673584,0.00032544531859457493]},{"children":[48],"name":"_03_Waist__19_LToeD","rotation":[0,-0.9958441853523254,0,0.0910738855600357],"translation":[-4.91737699508667,0.01971149444580078,4.806319236755371]},{"name":"_03_Waist__20_EndLToeD","rotation":[0,-3.725290298461914e-8,0,1],"translation":[12.843681335449219,-0.00005817413330078125,-0.00000476837158203125]},{"children":[50],"name":"_03_Waist__21_RThigh","rotation":[0,-0.5684453248977661,0,0.8227211833000183],"scale":[0.9999999403953552,0.9999999403953552,0.9999999403953552],"translation":[5.113836288452148,12.45784854888916,-4.235278129577637]},{"children":[51],"name":"_03_Waist__22_RLeg","rotation":[0,-0.09172890335321426,0,0.9957840442657471],"translation":[-23.861011505126953,-0.00016689300537109375,-6.089351654052734]},{"children":[52,53,56,59,62],"name":"_03_Waist__23_RFoot","rotation":[0,-0.6859919428825378,0,0.7276092171669006],"scale":[0.9999999403953552,0.9999998211860657,0.9999999403953552],"translation":[-16.967145919799805,-0.0001049041748046875,2.003986120223999]},{"name":"_03_Waist__24_EndRFoot","rotation":[8.465403378288272e-11,-1.2547388905659318e-8,2.0803935285584885e-7,1],"translation":[10.63783073425293,-0.0000019073486328125,0.0008996203541755676]},{"children":[54],"name":"_03_Waist__25_RToeA1","rotation":[-1.7336610369511618e-7,1,9.581842264072549e-12,0.0000552694036741741],"translation":[7.621501445770264,-5.2396345138549805,4.830187797546387]},{"children":[55],"name":"_03_Waist__26_RToeA2","rotation":[2.086829375969046e-8,0.0000014775714589632116,-4.5075177013131906e-7,1],"translation":[-7.9471259117126465,-4.587944984436035,0.0002273904246976599]},{"name":"_03_Waist__27_EndRToeA2","rotation":[-2.085176120658616e-8,-9.094955691346662e-13,6.241180017241277e-7,1],"translation":[-11.384740829467773,-7.002407073974609,0.00029921907116658986]},{"children":[57],"name":"_03_Waist__28_RToeB1","rotation":[2.610350561464518e-15,-1.2547388905659318e-8,2.0803933864499413e-7,1],"translation":[10.089864730834961,0.019652366638183594,4.808864593505859]},{"children":[58],"name":"_03_Waist__29_RToeB2","rotation":[2.9289388692177454e-9,-6.093351734640096e-16,-2.0803928180157527e-7,1],"translation":[8.78476619720459,-0.00004125437408220023,0.0007800324819982052]},{"name":"_03_Waist__30_EndRToeB2","rotation":[7.4493238244599524e-9,3.637978807091713e-12,-2.710505754331188e-20,1],"scale":[1,0.9999999403953552,1],"translation":[14.286348342895508,-9.373505349685729e-7,0.0012102080509066582]},{"children":[60],"name":"_03_Waist__31_RToeC1","rotation":[-1.7336608948426147e-7,1,5.262467978744967e-12,0.000030354658520082012],"translation":[7.616736888885498,5.110023498535156,4.787791728973389]},{"children":[61],"name":"_03_Waist__32_RToeC2","rotation":[-2.8356708092758254e-9,-7.278013072209433e-7,2.0803926759072056e-7,1],"translation":[-7.92447566986084,4.716510772705078,-0.00022980174981057644]},{"name":"_03_Waist__33_EndRToeC2","rotation":[8.86935058730387e-9,9.095819800478133e-13,-1.3869285453438351e-7,1],"translation":[-11.564961433410645,7.060126781463623,-0.0003172241849824786]},{"children":[63],"name":"_03_Waist__34_RToeD","rotation":[2.0717469340070238e-7,-0.995843768119812,1.894778378641604e-8,0.09107772260904312],"translation":[-4.9173150062561035,0.019713401794433594,4.80635929107666]},{"name":"_03_Waist__35_EndRToeD","rotation":[-3.467320652816852e-8,-5.21540641784668e-8,2.0803929601242999e-7,1],"translation":[12.843795776367188,-0.00011955977242905647,0.00000764133164921077]},{"children":[65],"name":"_03_Waist__36_Tail1","rotation":[0,-0.005393076688051224,0,0.9999854564666748],"translation":[32.6849250793457,-0.0002636909484863281,-16.737369537353516]},{"children":[66],"name":"_03_Waist__37_Tail2","rotation":[0,-0.09764721244573593,0,0.9952211976051331],"translation":[18.277809143066406,-0.0001549720618641004,-9.863067626953125]},{"name":"_03_Waist__38_EndTail2","translation":[36.247413635253906,-0.00046539306640625,-44.39146423339844]},{"children":[68],"name":"_03_Waist__39_Spine1","rotation":[-0.6384680867195129,-0.3039054572582245,0.3039054572582245,0.6384680867195129],"translation":[46.4349479675293,58.508026123046875,-0.0001251569192390889]},{"children":[69,72,77,117,120],"name":"_03_Waist__40_Spine2","rotation":[0,0.2586057484149933,0,0.965982973575592],"translation":[20.539196014404297,0.0001353621482849121,-0.00000762939453125]},{"children":[70],"name":"_03_Waist__41_LFeeler1","rotation":[0,0.9853919744491577,0,0.17030221223831177],"translation":[24.760574340820312,-20.239322662353516,-5.965337753295898]},{"children":[71],"name":"_03_Waist__42_LFeeler2","rotation":[0,-0.08213180303573608,0,0.9966214895248413],"scale":[0.9999998807907104,1,0.9999998807907104],"translation":[40.930633544921875,-6.297628402709961,-4.718467712402344]},{"name":"_03_Waist__43_EndLFeeler2","rotation":[0,1.4901161193847656e-8,0,1],"translation":[61.81732940673828,9.107521057128906,7.233847141265869]},{"children":[73],"name":"_03_Waist__44_LShoulder","rotation":[0,0.9265937805175781,0,0.37606382369995117],"translation":[24.54693031311035,-5.054032802581787,-3.031953811645508]},{"children":[74],"name":"_03_Waist__45_LArm","rotation":[0,0.036148738116025925,0,0.9993464946746826],"translation":[3.658477783203125,-14.613934516906738,1.1025123596191406]},{"children":[75],"name":"_03_Waist__46_LForeArm","rotation":[0,-0.020359670743346214,0,0.999792754650116],"scale":[0.9999999403953552,1,0.9999999403953552],"translation":[3.2324180603027344,-25.456941604614258,0.3355216979980469]},{"children":[76],"name":"_03_Waist__47_LHand","rotation":[0,-0.01320478692650795,0,0.9999128580093384],"translation":[-29.022659301757812,-40.21612548828125,2.740184783935547]},{"name":"_03_Waist__48_EndLHand","rotation":[0,1.4901161193847656e-8,0,1],"translation":[-5.570140838623047,-81.75635528564453,-7.449626922607422]},{"children":[78],"name":"_03_Waist__49_Neck","rotation":[0,-0.0599973089993,0,0.9981985688209534],"translation":[29.142616271972656,0.00021311640739440918,-0.0000019073486328125]},{"children":[79,80,87,89,96,103,110],"name":"_03_Waist__50_Head","rotation":[0,0.10338757932186127,0,0.9946412444114685],"translation":[9.577075958251953,0.00006958845187909901,0.0000152587890625]},{"name":"_03_Waist__51_EndHead","scale":[0.9999999403953552,1,0.9999999403953552],"translation":[38.89264678955078,0.0002835095510818064,-0.000003814697265625]},{"children":[81],"name":"_03_Waist__52_HairC1","rotation":[0,0.675896167755127,0,0.7369968891143799],"scale":[0.9999998807907104,1,0.9999998807907104],"translation":[29.779048919677734,0.00022548442939296365,5.337749481201172]},{"children":[82],"name":"_03_Waist__53_HairC2","rotation":[0,0.12335843592882156,0,0.9923622012138367],"scale":[0.9999999403953552,1,0.9999999403953552],"translation":[12.398632049560547,-0.000008642615284770727,-0.00003814697265625]},{"children":[83],"name":"_03_Waist__54_HairC3","rotation":[0,0.06512517482042313,0,0.9978771209716797],"translation":[22.668432235717773,-0.000055789947509765625,-0.00004673004150390625]},{"children":[84],"name":"_03_Waist__55_HairC4","rotation":[0,0.030545545741915703,0,0.9995333552360535],"translation":[22.535310745239258,-0.00007742649177089334,-0.000009655952453613281]},{"children":[85],"name":"_03_Waist__56_HairC5","rotation":[0,-0.009266004897654057,0,0.9999570846557617],"translation":[21.736358642578125,-0.00008374458411708474,-7.152557373046875e-7]},{"children":[86],"name":"_03_Waist__57_HairC6","rotation":[0,-0.013709712773561478,0,0.9999061226844788],"scale":[0.9999999403953552,1,0.9999999403953552],"translation":[22.325876235961914,-0.0000821352587081492,0.00006037205457687378]},{"name":"_03_Waist__58_EndHairC6","rotation":[0,-9.313225746154785e-10,0,1],"translation":[40.50107955932617,-0.00014579296112060547,-0.0000016689300537109375]},{"children":[88],"name":"_03_Waist__59_Jaw","rotation":[0,-0.6530691385269165,0,0.7572983503341675],"scale":[0.9999999403953552,1,0.9999999403953552],"translation":[3.2629451751708984,0.00004950171569362283,16.322750091552734]},{"name":"_03_Waist__60_EndJaw","rotation":[0,-7.450580596923828e-9,0,1],"translation":[15.781664848327637,0.000040084123611450195,0.000003814697265625]},{"children":[90],"name":"_03_Waist__61_LHairA1","rotation":[0,0.6817594170570374,0,0.7315765023231506],"scale":[0.9999998807907104,1,0.9999998807907104],"translation":[21.55344009399414,-14.20252799987793,6.319488525390625]},{"children":[91],"name":"_03_Waist__62_LHairA2","rotation":[0,0.1174125000834465,0,0.9930832982063293],"translation":[11.795825958251953,-3.1512928009033203,-1.9378185272216797]},{"children":[92],"name":"_03_Waist__63_LHairA3","rotation":[0,0.05131993815302849,0,0.9986822605133057],"scale":[0.9999998807907104,1,0.9999998807907104],"translation":[21.24689483642578,-1.1967945098876953,-0.7681789398193359]},{"children":[93],"name":"_03_Waist__64_LHairA4","rotation":[0,0.018576089292764664,0,0.9998275637626648],"scale":[0.9999999403953552,1,0.9999999403953552],"translation":[21.539142608642578,0.6869640350341797,0.44166886806488037]},{"children":[94],"name":"_03_Waist__65_LHairA5","rotation":[0,0.031364843249320984,0,0.9995080232620239],"translation":[22.911338806152344,1.696756362915039,1.0882647037506104]},{"children":[95],"name":"_03_Waist__66_LHairA6","rotation":[0,0.009029142558574677,0,0.9999592304229736],"scale":[0.9999999403953552,1,0.9999999403953552],"translation":[21.467805862426758,2.9367284774780273,1.8696788549423218]},{"name":"_03_Waist__67_EndLHairA6","translation":[24.035993576049805,4.1695051193237305,2.645585775375366]},{"children":[97],"name":"_03_Waist__68_LHairB1","rotation":[0,0.6538416147232056,0,0.7566314339637756],"scale":[0.9999998211860657,1,0.9999998211860657],"translation":[25.338468551635742,-10.557181358337402,5.86083984375]},{"children":[98],"name":"_03_Waist__69_LHairB2","rotation":[0,0.1571488231420517,0,0.9875749349594116],"scale":[0.9999998807907104,1,0.9999998807907104],"translation":[11.776988983154297,-2.65484619140625,-0.8856391906738281]},{"children":[99],"name":"_03_Waist__70_LHairB3","rotation":[0,0.05053600296378136,0,0.9987223148345947],"translation":[22.646499633789062,-0.843928337097168,-0.3020815849304199]},{"children":[100],"name":"_03_Waist__71_LHairB4","rotation":[0,0.01322230789810419,0,0.9999126195907593],"translation":[21.01192283630371,0.9710836410522461,0.3467378616333008]},{"children":[101],"name":"_03_Waist__72_LHairB5","rotation":[0,0.0377778522670269,0,0.9992861747741699],"translation":[23.139541625976562,1.5758371353149414,0.5612858533859253]},{"children":[102],"name":"_03_Waist__73_LHairB6","translation":[21.59357452392578,2.8287391662597656,0.9945979118347168]},{"name":"_03_Waist__74_EndLHairB6","translation":[29.103450775146484,3.812501907348633,1.3405320644378662]},{"children":[104],"name":"_03_Waist__75_RHairA1","rotation":[0,0.6817607283592224,0,0.7315753102302551],"scale":[0.9999998807907104,1,0.9999998807907104],"translation":[21.55323028564453,14.202844619750977,6.319391250610352]},{"children":[105],"name":"_03_Waist__76_RHairA2","rotation":[0,0.11741267889738083,0,0.9930832386016846],"scale":[1.0000001192092896,1,1.0000001192092896],"translation":[11.795707702636719,3.151249885559082,-1.9379730224609375]},{"children":[106],"name":"_03_Waist__77_RHairA3","rotation":[0,0.05131993815302849,0,0.9986822605133057],"scale":[0.9999999403953552,1,0.9999999403953552],"translation":[21.246997833251953,1.1967601776123047,-0.7680010795593262]},{"children":[107],"name":"_03_Waist__78_RHairA4","rotation":[0,0.01857597380876541,0,0.9998275637626648],"scale":[0.9999999403953552,1,0.9999999403953552],"translation":[21.539031982421875,-0.6870822906494141,0.4420716166496277]},{"children":[108],"name":"_03_Waist__79_RHairA5","rotation":[0,0.031364839524030685,0,0.9995080232620239],"translation":[22.91135025024414,-1.6969013214111328,1.0879648923873901]},{"children":[109],"name":"_03_Waist__80_RHairA6","rotation":[0,0.009029029868543148,0,0.9999592304229736],"translation":[21.46775245666504,-2.9369373321533203,1.869979739189148]},{"name":"_03_Waist__81_EndRHairA6","translation":[24.035964965820312,-4.169669151306152,2.645679473876953]},{"children":[111],"name":"_03_Waist__82_RHairB1","rotation":[0,0.6538422703742981,0,0.7566308975219727],"scale":[0.9999998211860657,1,0.9999998211860657],"translation":[25.338748931884766,10.557872772216797,5.860877990722656]},{"children":[112],"name":"_03_Waist__83_RHairB2","rotation":[0,0.1571490317583084,0,0.9875749945640564],"translation":[11.77712631225586,2.654536247253418,-0.8858833312988281]},{"children":[113],"name":"_03_Waist__84_RHairB3","rotation":[0,0.05053584650158882,0,0.99872225522995],"scale":[0.9999999403953552,1,0.9999999403953552],"translation":[22.64651107788086,0.8438472747802734,-0.3024468421936035]},{"children":[114],"name":"_03_Waist__85_RHairB4","rotation":[0,0.013222244568169117,0,0.9999126195907593],"translation":[21.011899948120117,-0.9713172912597656,0.3473540246486664]},{"children":[115],"name":"_03_Waist__86_RHairB5","rotation":[0,0.03777797520160675,0,0.9992861747741699],"scale":[0.9999999403953552,1,0.9999999403953552],"translation":[23.139427185058594,-1.5759258270263672,0.5612761974334717]},{"children":[116],"name":"_03_Waist__87_RHairB6","rotation":[0,-3.725290298461914e-9,0,1],"translation":[21.593706130981445,-2.8288869857788086,0.9938439130783081]},{"name":"_03_Waist__88_EndRHairB6","rotation":[0,-3.725290298461914e-9,0,1],"translation":[29.103290557861328,-3.812704086303711,1.341397762298584]},{"children":[118],"name":"_03_Waist__89_RFeeler1","rotation":[0,0.9853928685188293,0,0.1702967882156372],"translation":[24.76025390625,20.239675521850586,-5.96537971496582]},{"children":[119],"name":"_03_Waist__90_RFeeler2","rotation":[0,-0.08213217556476593,0,0.9966214299201965],"translation":[40.93084716796875,6.297092437744141,-4.718059539794922]},{"name":"_03_Waist__91_EndRFeeler2","translation":[61.81714630126953,-9.108402252197266,7.234509468078613]},{"children":[121],"name":"_03_Waist__92_RShoulder","rotation":[0,0.9265947341918945,0,0.3760613203048706],"scale":[0.9999999403953552,1,0.9999999403953552],"translation":[24.546728134155273,5.054385662078857,-3.031963348388672]},{"children":[122],"name":"_03_Waist__93_RArm","rotation":[0,0.0361492894589901,0,0.9993464946746826],"translation":[3.6585845947265625,14.613912582397461,1.1024398803710938]},{"children":[123],"name":"_03_Waist__94_RForeArm","rotation":[0,-0.020354896783828735,0,0.9997928738594055],"scale":[1.0000001192092896,1,1.0000001192092896],"translation":[3.2327346801757812,25.456777572631836,0.3352928161621094]},{"children":[124],"name":"_03_Waist__95_RHand","rotation":[0,-0.013207619078457355,0,0.9999127984046936],"translation":[-29.022323608398438,40.21650695800781,2.739643096923828]},{"name":"_03_Waist__96_EndRHand","scale":[0.9999999403953552,1,0.9999999403953552],"translation":[-5.56903076171875,81.75688171386719,-7.450645446777344]}],"samplers":[{}],"scene":0,"scenes":[{"name":"Scene","nodes":[26,25,24,23,22,21,20,19,18,17,16,15,14,13,12,11,10,9,8,7,6,5,1,31,30]}],"skins":[{"inverseBindMatrices":0,"joints":[33,34,35,36,37,38,39,40,41,42,43,44,45,46,47,48,49,50,51,52,53,54,55,56,57,58,59,60,61,62,63,64,65,66,67,68,69,70,71,72,73,74,75,76,77,78,79,80,81,82,83,84,85,86,87,88,89,90,91,92,93,94,95,96,97,98,99,100,101,102,103,104,105,106,107,108,109,110,111,112,113,114,115,116,117,118,119,120,121,122,123,124],"skeleton":3},{"inverseBindMatrices":1,"joints":[33,34,35,36,37,38,39,40,41,42,43,44,45,46,47,48,49,50,51,52,53,54,55,56,57,58,59,60,61,62,63,64,65,66,67,68,69,70,71,72,73,74,75,76,77,78,79,80,81,82,83,84,85,86,87,88,89,90,91,92,93,94,95,96,97,98,99,100,101,102,103,104,105,106,107,108,109,110,111,112,113,114,115,116,117,118,119,120,121,122,123,124],"skeleton":3}],"textures":[{"sampler":0,"source":0},{"sampler":0,"source":1},{"sampler":0,"source":2},{"sampler":0,"source":3}],"extensionsUsed":["ALI_amc_mesh_compression"],"extensionsRequired":["ALI_amc_mesh_compression"]}