{"accessors":[{"bufferView":0,"componentType":5126,"count":81,"max":[1,0,1,0,1,0,1,0,0,-1,0,0,102.43472290039062,29.038732528686523,88.875,1],"min":[-1,0,-1,0,-1,0,-1,0,0,-1.000000238418579,0,0,-147.45773315429688,-21.1634521484375,-110.90605926513672,1],"type":"MAT4","byteOffset":0}],"asset":{"generator":"Khronos Blender glTF 2.0 exporter","version":"2.0"},"bufferViews":[{"buffer":0,"byteLength":5184,"byteOffset":0},{"buffer":0,"byteOffset":5184,"byteLength":1787},{"buffer":0,"byteOffset":6971,"byteLength":142379}],"buffers":[{"byteLength":149350,"uri":"buffer.bin"}],"images":[{"name":"pm0127_00_Body1","uri":"pm0127_00_Body1.png"},{"name":"pm0127_00_Eye1","uri":"pm0127_00_Eye1.png"}],"materials":[{"alphaMode":"OPAQUE","name":"Material__22","pbrMetallicRoughness":{"baseColorFactor":[0.6400000190734865,0.6400000190734865,0.6400000190734865,1],"baseColorTexture":{"index":0},"metallicFactor":0}},{"alphaMode":"OPAQUE","name":"Material__23","pbrMetallicRoughness":{"baseColorFactor":[0.6400000190734865,0.6400000190734865,0.6400000190734865,1],"baseColorTexture":{"index":1},"metallicFactor":0}}],"meshes":[{"name":"Pinsir","primitives":[{"material":1,"extensions":{"ALI_amc_mesh_compression":{"bufferView":1}}},{"material":0,"extensions":{"ALI_amc_mesh_compression":{"bufferView":2}}}]}],"nodes":[{"children":[3,4],"name":"Armature","scale":[0.02539999969303608,0.02539999969303608,0.02539999969303608]},{"name":"Camera","rotation":[0.483536034822464,0.33687159419059753,-0.20870360732078552,0.7804827094078064],"translation":[7.481131553649902,5.34366512298584,6.5076398849487305]},{"name":"Lamp","rotation":[0.16907575726509094,0.7558802962303162,-0.27217137813568115,0.570947527885437],"scale":[1,1,0.9999999403953552],"translation":[4.076245307922363,5.903861999511719,-1.0054539442062378]},{"mesh":0,"name":"Pinsir","skin":0},{"children":[5,84],"name":"Armature_pm0127_00","rotation":[-0.7071068286895752,0,0,0.7071068286895752]},{"children":[6],"name":"Armature_Origin"},{"children":[7,29],"name":"Armature_Waist","rotation":[0,-0.7071080803871155,0,0.7071055769920349],"scale":[1,0.9999999403953552,1],"translation":[0,0.5887373089790344,37.50429916381836]},{"children":[8,18,19],"name":"Armature_Hips","rotation":[0,1,0,0.0000012675908465098473],"translation":[-3.491607003525132e-11,0.0000016093254089355469,-0.00000997419556370005]},{"children":[9],"name":"Armature_LThigh","rotation":[0,-0.13865430653095245,0,0.9903409481048584],"translation":[5.196245193481445,1.0647468566894531,27.49996566772461]},{"children":[10],"name":"Armature_LLeg","rotation":[0,0.3324939012527466,0,0.9431053996086121],"scale":[0.9999999403953552,0.9999999403953552,0.9999999403953552],"translation":[14.24589729309082,-4.231521129608154,-4.068800926208496]},{"children":[11,12,14,16],"name":"Armature_LFoot","rotation":[0,-0.8349850177764893,0,0.5502728819847107],"translation":[8.401163101196289,3.852522850036621,3.5488996505737305]},{"name":"Armature_EndLFoot","rotation":[0,-1.0244548320770264e-8,0,1],"translation":[0.00004715472459793091,-15.356898307800293,0.0000015348196029663086]},{"children":[13],"name":"Armature_LToeA","rotation":[0,-0.5350083708763123,0,0.844846785068512],"translation":[4.041746616363525,-5.097542762756348,-4.2510294914245605]},{"name":"Armature_EndLToeA","rotation":[0,-1.4901161193847656e-8,0,1],"translation":[2.264374256134033,-11.506427764892578,-4.859776496887207]},{"children":[15],"name":"Armature_LToeB","rotation":[0,-0.839026927947998,0,0.5440899133682251],"translation":[-3.6930007934570312,-5.097567558288574,-4.251022815704346]},{"name":"Armature_EndLToeB","rotation":[0,-1.4901161193847656e-8,0,1],"translation":[2.469388484954834,-13.174385070800781,5.443001747131348]},{"children":[17],"name":"Armature_LToeC","rotation":[0,0.007953502237796783,0,0.999968409538269],"translation":[0.05163024365901947,7.283354759216309,-3.975978374481201]},{"name":"Armature_EndLToeC","rotation":[0,-4.656612873077393e-10,0,1],"translation":[0.00002355128526687622,12.605600357055664,0.000012218952178955078]},{"name":"Armature_EndHips","translation":[29.636600494384766,0,-0.0000010657895472832024]},{"children":[20],"name":"Armature_RThigh","rotation":[0,-0.13865430653095245,0,0.9903409481048584],"translation":[5.19624137878418,1.064699649810791,-27.500036239624023]},{"children":[21],"name":"Armature_RLeg","rotation":[0,0.3324940502643585,0,0.9431054592132568],"scale":[1,0.9999999403953552,1],"translation":[14.245748519897461,-4.231443405151367,-4.068758487701416]},{"children":[22,23,25,27],"name":"Armature_RFoot","rotation":[0,-0.8334044814109802,0,0.5526635050773621],"scale":[0.9999999403953552,0.9999999403953552,0.9999999403953552],"translation":[8.401241302490234,3.85251784324646,3.5489602088928223]},{"name":"Armature_EndRFoot","translation":[0.00002288818359375,-15.356903076171875,0]},{"children":[24],"name":"Armature_RToeA","rotation":[0,0.8433130979537964,0,0.537422776222229],"translation":[-4.041711807250977,-5.097500801086426,-4.251001358032227]},{"name":"Armature_EndRToeA","translation":[2.26444149017334,-11.506402015686035,-4.859810829162598]},{"children":[26],"name":"Armature_RToeB","rotation":[0,0.5416879653930664,0,0.8405796885490417],"translation":[3.692974090576172,-5.097555160522461,-4.251009464263916]},{"name":"Armature_EndRToeB","scale":[1,0.9999999403953552,1],"translation":[2.4693827629089355,-13.17436408996582,5.44303035736084]},{"children":[28],"name":"Armature_RToeC","rotation":[0,-0.02798645570874214,0,0.9996083378791809],"translation":[-0.051647186279296875,7.283336162567139,-3.9759631156921387]},{"name":"Armature_EndRToeC","translation":[0.000013381242752075195,12.605603218078613,4.76837158203125e-7]},{"children":[30],"name":"Armature_Spine","rotation":[0,2.3841846541472478e-7,0,1],"translation":[-9.622880270399037e-11,0.0000016093254089355469,-0.000027487101760925725]},{"children":[31,32,54,67,80,82],"name":"Armature_Head","translation":[6.235301971435547,5.960464477539063e-8,-1.4928991731721908e-7]},{"name":"Armature_EndHead","translation":[56.39960479736328,-5.960464477539063e-8,-0.0000013504322851076722]},{"children":[33,34,36,38,40,42,44,46,48,50,52],"name":"Armature_JawRoot","translation":[-2.6552982035354944e-11,0,-1.8189894035458565e-12]},{"name":"Armature_EndJawRoot","translation":[56.39960479736328,-5.960464477539063e-8,-0.0000013504322851076722]},{"children":[35],"name":"Armature_LFeelerA","rotation":[0,-0.9549323916435242,0,0.29682353138923645],"scale":[0.9999999403953552,1,0.9999999403953552],"translation":[27.249391555786133,-26.395875930786133,-7.046021938323975]},{"name":"Armature_EndLFeelerA","rotation":[0,1.4901161193847656e-8,0,1],"translation":[5.777345657348633,-2.6950302124023438,-2.7215075492858887]},{"children":[37],"name":"Armature_LFeelerB","rotation":[0,-0.8380401134490967,0,0.5456086993217468],"translation":[21.786941528320312,-27.123092651367188,-10.107504844665527]},{"name":"Armature_EndLFeelerB","rotation":[0,-2.9802322387695312e-8,0,1],"scale":[1,0.9999999403953552,1],"translation":[8.595783233642578,-2.2932910919189453,-2.465343952178955]},{"children":[39],"name":"Armature_LFeelerC","rotation":[0,-0.784081220626831,0,0.6206582188606262],"translation":[16.05875015258789,-27.338682174682617,-11.275776863098145]},{"name":"Armature_EndLFeelerC","rotation":[0,-2.2351741790771484e-8,0,1],"translation":[9.444775581359863,-2.2887916564941406,-2.227665662765503]},{"children":[41],"name":"Armature_RFeelerD","rotation":[0,0.5833168625831604,0,0.8122448325157166],"translation":[10.774068832397461,-26.805646896362305,10.618922233581543]},{"name":"Armature_EndRFeelerD","rotation":[0,-2.9802322387695312e-8,0,1],"scale":[1,0.9999999403953552,1],"translation":[9.747984886169434,-2.4701995849609375,-2.398585796356201]},{"children":[43],"name":"Armature_RFeelerE","rotation":[0,0.41264450550079346,0,0.9108921885490417],"translation":[5.14872407913208,-26.350879669189453,8.982778549194336]},{"name":"Armature_EndRFeelerE","scale":[1,0.9999999403953552,1],"translation":[8.536907196044922,-2.3708648681640625,-2.4962620735168457]},{"children":[45],"name":"Armature_LFeelerD","rotation":[0,-0.7604945302009583,0,0.6493443846702576],"translation":[10.774099349975586,-26.80577850341797,-10.618826866149902]},{"name":"Armature_EndLFeelerD","rotation":[0,2.2351741790771484e-8,0,1],"scale":[1,0.9999999403953552,1],"translation":[9.748003005981445,-2.4701309204101562,-2.3985989093780518]},{"children":[47],"name":"Armature_LFeelerE","rotation":[0,-0.6341058611869812,0,0.7732462286949158],"scale":[0.9999999403953552,1,0.9999999403953552],"translation":[5.148738384246826,-26.350910186767578,-8.982633590698242]},{"name":"Armature_EndLFeelerE","translation":[8.64258098602295,-2.370922088623047,-2.101364850997925]},{"children":[49],"name":"Armature_RFeelerA","rotation":[0,0.7632278800010681,0,0.6461294293403625],"scale":[0.9999999403953552,1,0.9999999403953552],"translation":[27.249448776245117,-26.395898818969727,7.046128749847412]},{"name":"Armature_EndRFeelerA","rotation":[0,7.450580596923828e-9,0,1],"translation":[5.972290992736816,-2.6949424743652344,-2.2618978023529053]},{"children":[51],"name":"Armature_RFeelerB","rotation":[0,0.6751992106437683,0,0.7376354336738586],"translation":[21.787017822265625,-27.123088836669922,10.107648849487305]},{"name":"Armature_EndRFeelerB","rotation":[0,7.450580596923828e-9,0,1],"translation":[8.715763092041016,-2.2931976318359375,-2.0002362728118896]},{"children":[53],"name":"Armature_RFeelerC","rotation":[0,0.6206609010696411,0,0.7840790748596191],"translation":[16.058837890625,-27.338502883911133,11.275818824768066]},{"name":"Armature_EndRFeelerC","rotation":[0,1.4901161193847656e-8,0,1],"translation":[9.444775581359863,-2.2887935638427734,-2.2276594638824463]},{"children":[55],"name":"Armature_RArm","rotation":[0,-0.707108199596405,0,0.7071053385734558],"translation":[14.86017894744873,-0.53656005859375,30.107473373413086]},{"children":[56],"name":"Armature_RForeArm","rotation":[0,2.781825969577767e-8,0,1],"translation":[29.67160415649414,3.3527612686157227e-8,-0.000009871379006654024]},{"children":[57,58,61,64],"name":"Armature_RHand","rotation":[0,0.024980368092656136,0,0.9996880292892456],"scale":[0.9999999403953552,1,0.9999999403953552],"translation":[32.10191345214844,0.00009382516145706177,0.00013667583698406816]},{"name":"Armature_EndRHand","translation":[26.505887985229492,-0.35635071992874146,-0.3562788963317871]},{"children":[59],"name":"Armature_RFingerA1","rotation":[0,-0.7680040597915649,0,0.6404449939727783],"translation":[4.923641681671143,-3.536926031112671,3.1726326942443848]},{"children":[60],"name":"Armature_RFingerA2","rotation":[0,-0.0955309197306633,0,0.9954264760017395],"scale":[0.9999999403953552,1,0.9999999403953552],"translation":[2.5711231231689453,-7.676399230957031,-4.088305950164795]},{"name":"Armature_EndRFingerA2","translation":[2.4755516052246094,-5.257806777954102,-3.2105417251586914]},{"children":[62],"name":"Armature_RFingerB1","rotation":[0,0.998966634273529,0,0.04545055329799652],"translation":[13.069865226745605,-2.2311482429504395,0.16956424713134766]},{"children":[63],"name":"Armature_RFingerB2","rotation":[0,-0.15766394138336182,0,0.9874929189682007],"scale":[0.9999999403953552,1,0.9999999403953552],"translation":[-7.571448802947998,-0.27568840980529785,-1.4936823844909668]},{"name":"Armature_EndRFingerB2","translation":[-6.334491729736328,-0.18518900871276855,-1.581817626953125]},{"children":[65],"name":"Armature_RFingerC1","rotation":[0,0.9796414971351624,0,0.20075534284114838],"translation":[11.093778610229492,5.40408992767334,0.4208259582519531]},{"children":[66],"name":"Armature_RFingerC2","rotation":[0,-0.09129437804222107,0,0.9958239793777466],"translation":[-6.988059997558594,2.2155351638793945,0.20554733276367188]},{"name":"Armature_EndRFingerC2","rotation":[0,-2.9802322387695312e-8,0,1],"scale":[1,1.0000001192092896,1],"translation":[-6.367162704467773,1.8618879318237305,0.20222091674804688]},{"children":[68],"name":"Armature_LArm","rotation":[0,0.7071078419685364,0,0.7071056962013245],"translation":[14.860306739807129,-0.53656005859375,-30.107439041137695]},{"children":[69],"name":"Armature_LForeArm","rotation":[0,1.1368683772161603e-13,0,1],"translation":[29.671600341796875,3.3527612686157227e-8,0.0000038146836232044734]},{"children":[70,71,74,77],"name":"Armature_LHand","rotation":[0,-0.03841536492109299,0,0.9992619156837463],"scale":[0.9999999403953552,1,0.9999999403953552],"translation":[32.1019172668457,0.00009457767009735107,-0.000091552734375]},{"name":"Armature_EndLHand","rotation":[0,3.725290298461914e-9,0,1],"translation":[26.505529403686523,-0.35635051131248474,-0.35631370544433594]},{"children":[72],"name":"Armature_LFingerA1","rotation":[0,-0.11980780959129333,0,0.9927971363067627],"translation":[4.836433410644531,-3.537008762359619,-3.3042097091674805]},{"children":[73],"name":"Armature_LFingerA2","rotation":[0,0.18982486426830292,0,0.9818180203437805],"translation":[2.572263717651367,-7.676307678222656,-4.08729362487793]},{"name":"Armature_EndLFingerA2","rotation":[0,-3.725290298461914e-9,0,1],"translation":[2.475552558898926,-5.257880210876465,-3.2105774879455566]},{"children":[75],"name":"Armature_LFingerB1","rotation":[0,0.15562157332897186,0,0.9878167510032654],"scale":[0.9999999403953552,1,0.9999999403953552],"translation":[13.06064224243164,-2.231182813644409,-0.5209951400756836]},{"children":[76],"name":"Armature_LFingerB2","rotation":[0,0.18228115141391754,0,0.9832464456558228],"translation":[7.717608451843262,-0.275543212890625,0.000026702880859375]},{"name":"Armature_EndLFingerB2","rotation":[0,-1.4901161193847656e-8,0,1],"scale":[1,1.0000001192092896,1],"translation":[6.529123306274414,-0.18518328666687012,-0.000316619873046875]},{"children":[78],"name":"Armature_LFingerC1","rotation":[0,0.1999003291130066,0,0.9798162579536438],"scale":[0.9999999403953552,1,0.9999999403953552],"translation":[11.078861236572266,5.404008388519287,-0.719027042388916]},{"children":[79],"name":"Armature_LFingerC2","rotation":[0,0.09009337425231934,0,0.9959334135055542],"translation":[6.990745544433594,2.215573787689209,0.00501251220703125]},{"name":"Armature_EndLFingerC2","rotation":[0,-1.4901161193847656e-8,0,1],"translation":[6.369758605957031,1.8619003295898438,0.004119873046875]},{"children":[81],"name":"Armature_REar","rotation":[0,-0.12771287560462952,0,0.9918112754821777],"translation":[36.90168380737305,-1.1986300945281982,21.27099609375]},{"name":"Armature_EndREar","rotation":[0,-7.450580596923828e-9,0,1],"translation":[64.05840301513672,1.1920928955078125e-7,0.00008772313594818115]},{"children":[83],"name":"Armature_LEar","rotation":[0,0.12771178781986237,0,0.9918113350868225],"translation":[36.901668548583984,-1.1986300945281982,-21.270822525024414]},{"name":"Armature_EndLEar","translation":[64.05841827392578,5.960464477539063e-8,-0.0000018924474716186523]},{"name":"Armature_pm0127_00_Skin"}],"samplers":[{}],"scene":0,"scenes":[{"name":"Scene","nodes":[0,2,1]}],"skins":[{"inverseBindMatrices":0,"joints":[4,5,6,7,8,9,10,11,12,13,14,15,16,17,18,19,20,21,22,23,24,25,26,27,28,29,30,31,32,33,34,35,36,37,38,39,40,41,42,43,44,45,46,47,48,49,50,51,52,53,54,55,56,57,58,59,60,61,62,63,64,65,66,67,68,69,70,71,72,73,74,75,76,77,78,79,80,81,82,83,84],"skeleton":0}],"textures":[{"sampler":0,"source":0},{"sampler":0,"source":1}],"extensionsUsed":["ALI_amc_mesh_compression"],"extensionsRequired":["ALI_amc_mesh_compression"]}