{"accessors":[{"bufferView":0,"componentType":5126,"count":44,"max":[1.0000001192092896,1.0000001192092896,4.131998909695511e-11,0,0.8819215297698975,0.9999997615814209,1,0,1.0000001192092896,-0.00005252658229437657,0.9999998807907104,0,61.490806579589844,56.944976806640625,56.8997802734375,1],"min":[-0.31445077061653137,-0.0002534854575060308,-0.11799771338701248,0,-0.000001880846753010701,0,0.00011250373790971935,0,-0.000253617821726948,-1.0000001192092896,-0.9363039135932922,0,-63.474342346191406,-91.06021881103516,-43.3958625793457,1],"type":"MAT4","byteOffset":0}],"asset":{"generator":"Khronos Blender glTF 2.0 exporter","version":"2.0"},"bufferViews":[{"buffer":0,"byteLength":2816,"byteOffset":0},{"buffer":0,"byteOffset":2816,"byteLength":2979},{"buffer":0,"byteOffset":5795,"byteLength":163141}],"buffers":[{"byteLength":168936,"uri":"buffer.bin"}],"images":[{"name":"pm0096_00_Body1.png","uri":"pm0096_00_Body1.png.png"},{"name":"pm0096_00_Eye1.png","uri":"pm0096_00_Eye1.png.png"}],"materials":[{"name":"Body_mat_003","pbrMetallicRoughness":{"baseColorFactor":[0.6400000190734865,0.6400000190734865,0.6400000190734865,1],"baseColorTexture":{"index":0},"metallicFactor":0}},{"name":"Eye_mat_003","pbrMetallicRoughness":{"baseColorFactor":[0.6400000190734865,0.6400000190734865,0.6400000190734865,1],"baseColorTexture":{"index":1},"metallicFactor":0}}],"meshes":[{"name":"mesh_2_Body.003","primitives":[{"material":1,"extensions":{"ALI_amc_mesh_compression":{"bufferView":1}}},{"material":0,"extensions":{"ALI_amc_mesh_compression":{"bufferView":2}}}]}],"nodes":[{"children":[3,4],"name":"Armature","rotation":[0.7071068286895752,0,0,0.7071067094802856]},{"name":"Camera","rotation":[0.483536034822464,0.33687159419059753,-0.20870360732078552,0.7804827094078064],"translation":[7.481131553649902,5.34366512298584,6.5076398849487305]},{"name":"Lamp","rotation":[0.16907575726509094,0.7558802962303162,-0.27217137813568115,0.570947527885437],"scale":[1,1,0.9999999403953552],"translation":[4.076245307922363,5.903861999511719,-1.0054539442062378]},{"mesh":0,"name":"vsn_mesh_2_Body","skin":0},{"children":[5,47],"name":"Armature_pm0096_00","rotation":[-0.7071068286895752,0,0,0.7071068286895752]},{"children":[6],"name":"Armature_Origin"},{"children":[7,38],"name":"Armature_Waist","translation":[0,40.22016906738281,-14.693670272827148]},{"children":[8],"name":"Armature_Spine1"},{"children":[9,18,28],"name":"Armature_Spine2","translation":[0.0000028448700959415874,9.062515258789062,0.811732292175293]},{"children":[10,11,14,16],"name":"Armature_Head","translation":[0.000006410299647541251,20.420394897460938,3.2662782669067383]},{"name":"Armature_Jaw","translation":[9.332297850050963e-7,2.9729080200195312,7.99153470993042]},{"children":[12],"name":"Armature_Nose1","translation":[0.0000030129303922876716,9.597831726074219,25.820720672607422]},{"children":[13],"name":"Armature_Nose2","translation":[8.019924280233681e-8,-6.722267150878906,3.546140670776367]},{"name":"Armature_Nose3","rotation":[0,-1.6940658945086007e-21,0,1],"translation":[9.450013749301434e-8,-7.9249725341796875,1.0277385711669922]},{"children":[15],"name":"Armature_LEar1","translation":[14.394230842590332,17.7784423828125,-3.140850067138672]},{"name":"Armature_LEar2","translation":[4.907929420471191,3.5786514282226562,-0.9704990386962891]},{"children":[17],"name":"Armature_REar1","translation":[-14.394190788269043,17.778419494628906,-3.1408300399780273]},{"name":"Armature_REar2","translation":[-4.907998085021973,3.5787200927734375,-0.9705114364624023]},{"children":[19],"name":"Armature_LShoulder","translation":[13.136207580566406,9.607742309570312,1.2344188690185547]},{"children":[20],"name":"Armature_LArm","rotation":[1.4901161193847656e-8,0,0,1],"translation":[10.698651313781738,0.000011444091796875,-0.0000019073486328125]},{"children":[21],"name":"Armature_LForeArm","translation":[18.154281616210938,-0.000004191629614069825,-0.00023063691332936287]},{"children":[22,24,26],"name":"Armature_LHand","translation":[11.000007629394531,-3.7692552723456174e-7,0.00022998778149485588]},{"children":[23],"name":"Armature_LFingerA1","rotation":[0,7.105427357601002e-15,0,1],"translation":[3.9405746459960938,-0.8495221138000488,-3.3524796962738037]},{"name":"Armature_LFingerA2","rotation":[0,-7.105427357601002e-15,0,1],"translation":[6.0058746337890625,-1.1428074836730957,-0.9481198787689209]},{"children":[25],"name":"Armature_LFingerB1","rotation":[-0.2977929711341858,-0.49591562151908875,-0.6413213610649109,0.5040773153305054],"scale":[1.0000001192092896,1.0000001192092896,1],"translation":[4.0968475341796875,-0.8495410680770874,-0.08634644746780396]},{"name":"Armature_LFingerB2","rotation":[0.5669991374015808,0.8041425347328186,0.10286127775907516,0.14589866995811462],"scale":[0.9999998807907104,1.0000001192092896,1],"translation":[-1.6018447875976562,6.019400119781494,-1.8216800689697266]},{"children":[27],"name":"Armature_LFingerC1","rotation":[0,-4.58867817197282e-16,0,1],"translation":[3.940441131591797,-0.8495485782623291,4.288965225219727]},{"name":"Armature_LFingerC2","rotation":[0,4.58867817197282e-16,0,1],"translation":[6.544750213623047,-1.1427881717681885,-0.013596323318779469]},{"children":[29],"name":"Armature_RShoulder","translation":[-13.13619327545166,9.607723236083984,1.2344369888305664]},{"children":[30],"name":"Armature_RArm","translation":[-10.698699951171875,0.000026702880859375,9.5367431640625e-7]},{"children":[31],"name":"Armature_RForeArm","translation":[-18.154207229614258,-0.000011444091796875,-0.00022792816162109375]},{"children":[32,34,36],"name":"Armature_RHand","rotation":[0,-7.105427357601002e-15,0,1],"translation":[-10.999996185302734,0.00000762939453125,0.00022983551025390625]},{"children":[33],"name":"Armature_RFingerA1","translation":[-3.9406471252441406,-0.8494987487792969,-4.266400337219238]},{"name":"Armature_RFingerA2","rotation":[0,7.105427357601002e-15,0,1],"translation":[-4.488945007324219,-1.1427955627441406,-0.09345054626464844]},{"children":[35],"name":"Armature_RFingerB1","translation":[-3.940582275390625,-0.8494987487792969,-0.0657510757446289]},{"name":"Armature_RFingerB2","rotation":[0,7.105427357601002e-15,0,1],"translation":[-4.561130523681641,-1.1427688598632812,0.043639183044433594]},{"children":[37],"name":"Armature_RFingerC1","rotation":[4.503998085950145e-13,4.5051402929388584e-13,-0.7070171236991882,0.7071964144706726],"scale":[0.9999998807907104,0.9999998807907104,1],"translation":[-3.970600128173828,-0.8494834899902344,4.233068466186523]},{"name":"Armature_RFingerC2","rotation":[-1.461373383415676e-11,1.4613732099433285e-11,0.7071068286895752,0.7071068286895752],"scale":[1.0000001192092896,1.0000001192092896,1],"translation":[1.1416929960250854,-4.531300067901611,0.10473060607910156]},{"children":[39,43],"name":"Armature_Hips","translation":[0,0.000011444091796875,9.5367431640625e-7]},{"children":[40],"name":"Armature_LThigh","rotation":[0,-7.105428204633949e-15,0,1],"translation":[24.00960922241211,-10.12714958190918,2.2562999725341797]},{"children":[41],"name":"Armature_LLeg","rotation":[0,7.105428204633949e-15,0,1],"translation":[0.04952812194824219,-11.247100830078125,1.4544191360473633]},{"children":[42],"name":"Armature_LFoot","translation":[-3.569896697998047,-12.054880142211914,-12.33087158203125]},{"name":"Armature_LToe","translation":[4.665639877319336,-3.2102773189544678,17.53774642944336]},{"children":[44],"name":"Armature_RThigh","rotation":[0,7.105428204633949e-15,0,1],"translation":[-24.009601593017578,-10.126668930053711,2.2561702728271484]},{"children":[45],"name":"Armature_RLeg","rotation":[0,-7.105428204633949e-15,0,1],"translation":[-0.04949760437011719,-11.247611999511719,1.454599380493164]},{"children":[46],"name":"Armature_RFoot","translation":[1.8137283325195312,-12.112569808959961,-4.5767412185668945]},{"name":"Armature_RToe","translation":[-2.9095382690429688,-3.1525471210479736,9.783557891845703]},{"name":"Armature_pm0096_00_BodySkin"}],"samplers":[{}],"scene":0,"scenes":[{"name":"Scene","nodes":[0,2,1]}],"skins":[{"inverseBindMatrices":0,"joints":[4,5,6,7,8,9,10,11,12,13,14,15,16,17,18,19,20,21,22,23,24,25,26,27,28,29,30,31,32,33,34,35,36,37,38,39,40,41,42,43,44,45,46,47],"skeleton":0}],"textures":[{"sampler":0,"source":0},{"sampler":0,"source":1}],"extensionsUsed":["ALI_amc_mesh_compression"],"extensionsRequired":["ALI_amc_mesh_compression"]}