{"accessors":[{"bufferView":0,"componentType":5126,"count":76,"max":[1,0,1,0,0.9999988079071045,0,1,0,0,-1,0,0,175.71826171875,32.97890090942383,147.2437286376953,1],"min":[-0.9999980926513672,0,-0.9999988079071045,0,-1,0,-0.9999980926513672,0,0,-1.0000005960464478,0,0,-191.75950622558594,-322.8296203613281,-138.69241333007812,1],"type":"MAT4","byteOffset":0}],"asset":{"generator":"Khronos Blender glTF 2.0 exporter","version":"2.0"},"bufferViews":[{"buffer":0,"byteLength":4864,"byteOffset":0},{"buffer":0,"byteOffset":4864,"byteLength":4411},{"buffer":0,"byteOffset":9275,"byteLength":7509},{"buffer":0,"byteOffset":16784,"byteLength":157029}],"buffers":[{"byteLength":173813,"uri":"buffer.bin"}],"images":[{"name":"pm0150_00_Body1","uri":"pm0150_00_Body1.png"},{"name":"pm0150_00_Eye1","uri":"pm0150_00_Eye1.png"},{"name":"pm0150_00_iris1","uri":"pm0150_00_iris1.png"}],"materials":[{"alphaMode":"OPAQUE","name":"Material__35","pbrMetallicRoughness":{"baseColorFactor":[0.6400000190734865,0.6400000190734865,0.6400000190734865,1],"baseColorTexture":{"index":0},"metallicFactor":0}},{"alphaMode":"OPAQUE","name":"Material__36","pbrMetallicRoughness":{"baseColorFactor":[0.6400000190734865,0.6400000190734865,0.6400000190734865,1],"baseColorTexture":{"index":1},"metallicFactor":0}},{"alphaMode":"MASK","name":"Material__37","pbrMetallicRoughness":{"baseColorFactor":[0.6400000190734865,0.6400000190734865,0.6400000190734865,1],"baseColorTexture":{"index":2},"metallicFactor":0}}],"meshes":[{"name":"Mewtwo","primitives":[{"material":2,"extensions":{"ALI_amc_mesh_compression":{"bufferView":1}}},{"material":1,"extensions":{"ALI_amc_mesh_compression":{"bufferView":2}}},{"material":0,"extensions":{"ALI_amc_mesh_compression":{"bufferView":3}}}]}],"nodes":[{"children":[3,4],"name":"Armature","scale":[0.02539999969303608,0.02539999969303608,0.02539999969303608]},{"name":"Camera","rotation":[0.483536034822464,0.33687159419059753,-0.20870360732078552,0.7804827094078064],"translation":[7.481131553649902,5.34366512298584,6.5076398849487305]},{"name":"Lamp","rotation":[0.16907575726509094,0.7558802962303162,-0.27217137813568115,0.570947527885437],"scale":[1,1,0.9999999403953552],"translation":[4.076245307922363,5.903861999511719,-1.0054539442062378]},{"mesh":0,"name":"Mewtwo","skin":0},{"children":[5,78,79],"name":"Armature_pm0150_00","rotation":[-0.7071068286895752,0,0,0.7071068286895752]},{"children":[6],"name":"Armature_Origin"},{"children":[7,39],"name":"Armature_Waist","rotation":[0,-0.6064272522926331,0,0.7951390147209167],"translation":[0,1.6339751482009888,113.052001953125]},{"children":[8,18,28,38],"name":"Armature_Hips","rotation":[0,0.9910566210746765,0,0.1334424465894699],"scale":[1,0.9999999403953552,1],"translation":[0.000005736278126278194,0.000004887580871582031,-0.00002091556234518066]},{"children":[9],"name":"Armature_RThigh","rotation":[0,0.06174937263131142,0,0.9980917572975159],"scale":[0.9999999403953552,1,0.9999999403953552],"translation":[19.681804656982422,-4.120057106018066,-26.663501739501953]},{"children":[10],"name":"Armature_RLeg","rotation":[0,0.1912095844745636,0,0.9815493226051331],"scale":[0.9999999403953552,0.9999999403953552,0.9999999403953552],"translation":[42.015647888183594,5.258854866027832,5.218763828277588]},{"children":[11,12],"name":"Armature_RFoot","rotation":[0,-0.853286862373352,0,0.5214416980743408],"scale":[1.0000001192092896,1,1.0000001192092896],"translation":[19.433744430541992,12.396404266357422,10.828817367553711]},{"name":"Armature_EndRFoot","rotation":[0,2.7939677238464355e-8,0,1],"scale":[1,0.9999999403953552,1],"translation":[0.011748015880584717,-9.783620834350586,-0.338969349861145]},{"children":[13,14,16],"name":"Armature_RToe","rotation":[0,-1.862645149230957e-9,0,1],"scale":[1,0.9999999403953552,1],"translation":[0.7904248237609863,-20.542701721191406,-22.803955078125]},{"name":"Armature_EndRToe","rotation":[0,1.862645149230957e-9,0,1],"scale":[1,0.9999999403953552,1],"translation":[0.024754539132118225,-20.617511749267578,-0.7142075300216675]},{"children":[15],"name":"Armature_RToeA","rotation":[0,1.1175870895385742e-8,0,1],"scale":[1,0.9999999403953552,1],"translation":[5.880463600158691,-8.448490142822266,-0.5985987186431885]},{"name":"Armature_EndRToeA","scale":[1,0.9999999403953552,1],"translation":[0.02065214514732361,-17.198368072509766,-0.5957738161087036]},{"children":[17],"name":"Armature_RToeB","rotation":[0,1.862645149230957e-9,0,1],"scale":[1,0.9999999403953552,1],"translation":[-5.20627498626709,-8.448488235473633,-0.9828852415084839]},{"name":"Armature_EndRToeB","scale":[1,0.9999999403953552,1],"translation":[0.022995904088020325,-19.15689468383789,-0.6636190414428711]},{"children":[19],"name":"Armature_Tail1","rotation":[0,0.6003512740135193,0,0.7997364401817322],"translation":[46.756019592285156,17.71245002746582,-0.000004216039087623358]},{"children":[20],"name":"Armature_Tail2","rotation":[0,0.06228277087211609,0,0.998058557510376],"translation":[2.3908464908599854,29.460180282592773,8.224032402038574]},{"children":[21],"name":"Armature_Tail3","rotation":[0,0.036033689975738525,0,0.9993506669998169],"scale":[1,0.9999999403953552,1],"translation":[0.7653095126152039,30.423389434814453,4.795003890991211]},{"children":[22],"name":"Armature_Tail4","rotation":[0,0.029431970790028572,0,0.9995667934417725],"translation":[0.22216123342514038,29.87030029296875,2.571276903152466]},{"children":[23],"name":"Armature_Tail5","rotation":[0,0.012689251452684402,0,0.9999195337295532],"translation":[0.030447155237197876,40.731964111328125,1.1123178005218506]},{"children":[24],"name":"Armature_Tail6","rotation":[0,4.656612873077393e-10,0,1],"translation":[0.00016302097355946898,41.70393371582031,0.0821959376335144]},{"children":[25],"name":"Armature_Tail7","translation":[0.0001435598242096603,36.95094299316406,0.07283466309309006]},{"children":[26],"name":"Armature_Tail8","translation":[0.00012457184493541718,32.06092834472656,0.06319492310285568]},{"children":[27],"name":"Armature_Tail9","translation":[0.00011214491678401828,28.86700439453125,0.056893039494752884]},{"name":"Armature_EndTail9","translation":[0.00012981914915144444,33.4146728515625,0.06585757434368134]},{"children":[29],"name":"Armature_LThigh","rotation":[0,0.06174936890602112,0,0.9980917572975159],"scale":[0.9999999403953552,1,0.9999999403953552],"translation":[19.681812286376953,-4.120043754577637,26.663497924804688]},{"children":[30],"name":"Armature_LLeg","rotation":[0,0.1912095993757248,0,0.9815493226051331],"scale":[0.9999999403953552,0.9999999403953552,0.9999999403953552],"translation":[42.015663146972656,5.258851051330566,5.2187676429748535]},{"children":[31,32],"name":"Armature_LFoot","rotation":[0,-0.8532871007919312,0,0.5214412808418274],"translation":[19.43377685546875,12.396411895751953,10.828780174255371]},{"name":"Armature_EndLFoot","rotation":[0,-7.264316082000732e-8,0,1],"translation":[0.011756598949432373,-9.783634185791016,-0.33891618251800537]},{"children":[33,34,36],"name":"Armature_LToe","rotation":[0,-5.4016709327697754e-8,0,1],"translation":[0.7904509902000427,-20.542694091796875,-22.803905487060547]},{"name":"Armature_EndLToe","rotation":[0,1.862645149230957e-9,0,1],"translation":[0.024786263704299927,-20.61751937866211,-0.7142054438591003]},{"children":[35],"name":"Armature_LToeA","rotation":[0,9.313225746154785e-9,0,1],"translation":[-5.824901103973389,-8.448503494262695,-1.0043301582336426]},{"name":"Armature_EndLToeA","translation":[0.020668238401412964,-17.198474884033203,-0.5957701802253723]},{"children":[37],"name":"Armature_LToeB","rotation":[0,1.862645149230957e-9,0,1],"translation":[5.2618408203125,-8.448495864868164,-0.6200439929962158]},{"name":"Armature_EndLToeB","translation":[0.023022830486297607,-19.156898498535156,-0.6636120080947876]},{"name":"Armature_EndHips","rotation":[0,5.1657934818649665e-8,0,1],"translation":[70.66680145263672,-0.0000019073486328125,-0.000009842391591519117]},{"children":[40],"name":"Armature_Spine1","rotation":[0,6.407499881788681e-7,0,1],"scale":[0.9999999403953552,1,0.9999999403953552],"translation":[-0.00004675293166656047,-2.384185791015625e-7,-0.00009706006676424295]},{"children":[41,54,65],"name":"Armature_Spine2","rotation":[0,-0.06439244747161865,0,0.9979246854782104],"scale":[0.9999999403953552,0.9999999403953552,0.9999999403953552],"translation":[10.103414535522461,2.8733201026916504,2.7710001468658447]},{"children":[42],"name":"Armature_LShoulder","rotation":[0,0.7836830019950867,0,0.6211611032485962],"scale":[0.9999999403953552,1,0.9999999403953552],"translation":[23.122652053833008,4.598921775817871,-4.264979362487793]},{"children":[43],"name":"Armature_LArm","rotation":[0,0.10462760925292969,0,0.9945114850997925],"translation":[12.032312393188477,0.36026668548583984,0.3605179786682129]},{"children":[44],"name":"Armature_LForeArm","rotation":[0,-0.008109002374112606,0,0.9999672174453735],"translation":[32.39404296875,-0.8407602310180664,-0.8407745361328125]},{"children":[45,48,51],"name":"Armature_LHand","rotation":[0,0.010910877026617527,0,0.9999405145645142],"translation":[27.266307830810547,-1.1111230850219727,-1.1486244201660156]},{"children":[46],"name":"Armature_LFingerA1","rotation":[0,-0.9932153224945068,0,0.11628977209329605],"scale":[0.9999999403953552,0.9999997615814209,0.9999999403953552],"translation":[12.001953125,-0.2406296730041504,-0.2408294677734375]},{"children":[47],"name":"Armature_LFingerA2","rotation":[0,0.2783493101596832,0,0.9604799747467041],"scale":[0.9999999403953552,0.9999999403953552,0.9999999403953552],"translation":[-10.422430038452148,-0.19944477081298828,-0.002368927001953125]},{"name":"Armature_EndLFingerA2","rotation":[0,1.4901161193847656e-8,0,1],"translation":[-10.065332412719727,0.1599888801574707,0.0025491714477539062]},{"children":[49],"name":"Armature_LFingerB1","rotation":[0,0.8055211305618286,0,0.5925672054290771],"scale":[0.9999998807907104,0.9999998211860657,0.9999998807907104],"translation":[9.201488494873047,-6.184377670288086,-2.857166290283203]},{"children":[50],"name":"Armature_LFingerB2","rotation":[0,-0.2121988832950592,0,0.9772266149520874],"scale":[1,0.9999999403953552,1],"translation":[4.9662933349609375,-3.67872953414917,3.1163177490234375]},{"name":"Armature_EndLFingerB2","rotation":[0,-1.4901161193847656e-8,0,1],"scale":[1,0.9999999403953552,1],"translation":[10.058040618896484,-0.9277665615081787,0.9238815307617188]},{"children":[52],"name":"Armature_LFingerC1","rotation":[0,0.7865628004074097,0,0.6175103187561035],"scale":[0.9999998807907104,1,0.9999998807907104],"translation":[9.152610778808594,5.559053421020508,-3.21258544921875]},{"children":[53],"name":"Armature_LFingerC2","rotation":[0,-0.2283247709274292,0,0.9735850691795349],"translation":[5.0032958984375,3.4177770614624023,2.9451980590820312]},{"name":"Armature_EndLFingerC2","rotation":[0,2.9802322387695312e-8,0,1],"translation":[9.709278106689453,0.2603111267089844,0.26021766662597656]},{"children":[55],"name":"Armature_Neck","rotation":[0,-0.07013900578022003,0,0.9975373148918152],"translation":[25.340572357177734,3.5747547149658203,3.540224075317383]},{"children":[56,57,63],"name":"Armature_Head","rotation":[0,-0.10498017817735672,0,0.9944744110107422],"translation":[11.747116088867188,-0.018774032592773438,-0.01863076724112034]},{"name":"Armature_EndHead","rotation":[0,7.450580596923828e-9,0,1],"translation":[34.4964485168457,-7.592300891876221,-7.422431945800781]},{"children":[58],"name":"Armature_Feeler1","rotation":[0,-0.7923938035964966,0,0.6100098490715027],"translation":[4.241277694702148,14.50613784790039,-0.9124743938446045]},{"children":[59],"name":"Armature_Feeler2","rotation":[0,-0.2257220596075058,0,0.9741917848587036],"scale":[0.9999999403953552,1,0.9999999403953552],"translation":[0.5972082614898682,2.589292526245117,1.173997402191162]},{"children":[60],"name":"Armature_Feeler3","rotation":[0,-0.4173497259616852,0,0.9087460041046143],"scale":[1.0000001192092896,1,1.0000001192092896],"translation":[5.49964714050293,5.176092147827148,4.136322498321533]},{"children":[61],"name":"Armature_Feeler4","rotation":[0,-0.2919021248817444,0,0.9564481973648071],"translation":[7.236539840698242,-1.6272048950195312,-1.5894328355789185]},{"children":[62],"name":"Armature_Feeler5","rotation":[0,-0.09244880080223083,0,0.9957175254821777],"translation":[5.221067905426025,-7.921375274658203,-5.469543933868408]},{"name":"Armature_EndFeeler5","rotation":[0,1.4901161193847656e-8,0,1],"translation":[12.919516563415527,-36.38642501831055,-19.849145889282227]},{"children":[64],"name":"Armature_Jaw","rotation":[0,-0.9945623278617859,0,0.10414359718561172],"translation":[14.524561882019043,-17.894134521484375,-3.1250877380371094]},{"name":"Armature_EndJaw","rotation":[0,3.969762474298477e-8,0,1],"translation":[26.662826538085938,-0.0871877670288086,-0.08719149231910706]},{"children":[66],"name":"Armature_RShoulder","rotation":[0,-0.8465384840965271,0,0.5323277115821838],"translation":[21.068721771240234,4.598931312561035,10.43919563293457]},{"children":[67],"name":"Armature_RArm","rotation":[0,-0.16000227630138397,0,0.9871166944503784],"translation":[12.03243637084961,0.36037158966064453,0.3610091209411621]},{"children":[68],"name":"Armature_RForeArm","rotation":[0,-0.008101356215775013,0,0.9999672174453735],"translation":[32.39352798461914,-0.8408784866333008,-0.8411884307861328]},{"children":[69,72,75],"name":"Armature_RHand","rotation":[0,0.01120040100067854,0,0.9999372959136963],"scale":[0.9999999403953552,1,0.9999999403953552],"translation":[27.266014099121094,-1.111159324645996,-1.1513938903808594]},{"children":[70],"name":"Armature_RFingerA1","rotation":[0,-0.09625903517007828,0,0.9953563213348389],"scale":[0.9999999403953552,0.9999999403953552,0.9999999403953552],"translation":[12.00202751159668,-0.24057626724243164,-0.2404937744140625]},{"children":[71],"name":"Armature_RFingerA2","rotation":[0,-0.2785709500312805,0,0.9604156613349915],"translation":[10.422552108764648,-0.19952774047851562,0.0005950927734375]},{"name":"Armature_EndRFingerA2","rotation":[0,-2.2351741790771484e-8,0,1],"scale":[1,0.9999999403953552,1],"translation":[10.065330505371094,0.15999698638916016,0.00001811981201171875]},{"children":[73],"name":"Armature_RFingerB1","rotation":[0,-0.3486570417881012,0,0.9372503757476807],"scale":[0.9999998807907104,0.9999999403953552,0.9999998807907104],"translation":[9.308774948120117,-6.18431282043457,2.48638916015625]},{"children":[74],"name":"Armature_RFingerB2","rotation":[0,-0.25220027565956116,0,0.9676750898361206],"translation":[4.9662322998046875,-3.678630828857422,3.1162033081054688]},{"name":"Armature_EndRFingerB2","scale":[1,1.0000001192092896,1],"translation":[10.058052062988281,-0.927772045135498,0.9238948822021484]},{"children":[76],"name":"Armature_RFingerC1","rotation":[0,-0.3458416759967804,0,0.9382928609848022],"translation":[9.27427864074707,5.559096336364746,2.8437576293945312]},{"children":[77],"name":"Armature_RFingerC2","rotation":[0,-0.27144700288772583,0,0.9624533653259277],"translation":[5.003015518188477,3.417660713195801,2.9451427459716797]},{"name":"Armature_EndRFingerC2","rotation":[0,-5.960463766996327e-8,0,1],"scale":[1.0000001192092896,1.0000001192092896,1.0000001192092896],"translation":[9.709249496459961,0.2602825164794922,0.2601795196533203]},{"name":"Armature_pm0150_00_BodySkin"},{"name":"Armature_pm0150_00_IrisSkin"}],"samplers":[{}],"scene":0,"scenes":[{"name":"Scene","nodes":[0,2,1]}],"skins":[{"inverseBindMatrices":0,"joints":[4,5,6,7,8,9,10,11,12,13,14,15,16,17,18,19,20,21,22,23,24,25,26,27,28,29,30,31,32,33,34,35,36,37,38,39,40,41,42,43,44,45,46,47,48,49,50,51,52,53,54,55,56,57,58,59,60,61,62,63,64,65,66,67,68,69,70,71,72,73,74,75,76,77,78,79],"skeleton":0}],"textures":[{"sampler":0,"source":0},{"sampler":0,"source":1},{"sampler":0,"source":2}],"extensionsUsed":["ALI_amc_mesh_compression"],"extensionsRequired":["ALI_amc_mesh_compression"]}