{"accessors":[{"bufferView":0,"componentType":5126,"count":52,"max":[1,0,7.105428204633949e-15,0,1.4210854715202004e-14,0,1,0,0,-1,0,0,49.96451187133789,0,34.73417663574219,1],"min":[1,0,-1.4210854715202004e-14,0,-7.105428204633949e-15,0,1,0,0,-1,0,0,-46.91468048095703,-92.93594360351562,-19.063968658447266,1],"type":"MAT4","byteOffset":0},{"bufferView":1,"componentType":5126,"count":52,"max":[1,0,7.105428204633949e-15,0,1.4210854715202004e-14,0,1,0,0,-1,0,0,49.96451187133789,0,34.73417663574219,1],"min":[1,0,-1.4210854715202004e-14,0,-7.105428204633949e-15,0,1,0,0,-1,0,0,-46.91468048095703,-92.93594360351562,-19.063968658447266,1],"type":"MAT4","byteOffset":0}],"asset":{"generator":"Khronos Blender glTF 2.0 exporter","version":"2.0"},"bufferViews":[{"buffer":0,"byteLength":3328,"byteOffset":0},{"buffer":0,"byteLength":3328,"byteOffset":3328},{"buffer":0,"byteOffset":6656,"byteLength":76617},{"buffer":0,"byteOffset":83273,"byteLength":108381},{"buffer":0,"byteOffset":191654,"byteLength":2927},{"buffer":0,"byteOffset":194581,"byteLength":1255},{"buffer":0,"byteOffset":195836,"byteLength":6201},{"buffer":0,"byteOffset":202037,"byteLength":960},{"buffer":0,"byteOffset":202997,"byteLength":453},{"buffer":0,"byteOffset":203450,"byteLength":6199}],"buffers":[{"byteLength":209649,"uri":"buffer.bin"}],"images":[{"name":"pm0110_00_BodyA1.tga","uri":"pm0110_00_BodyA1.tga.png"},{"name":"pm0110_00_BodyB1.tga","uri":"pm0110_00_BodyB1.tga.png"},{"name":"pm0110_00_Eye1","uri":"pm0110_00_Eye1.png"},{"name":"pm0110_00_FireCoreA1.tga","uri":"pm0110_00_FireCoreA1.tga.png"},{"name":"pm0110_00_FireCoreB1.tga","uri":"pm0110_00_FireCoreB1.tga.png"},{"name":"pm0110_00_FireGeomA.tga","uri":"pm0110_00_FireGeomA.tga.png"},{"name":"pm0110_00_FireStenA.tga","uri":"pm0110_00_FireStenA.tga.png"}],"materials":[{"name":"BodyA_mat","pbrMetallicRoughness":{"baseColorFactor":[0.6400000190734865,0.6400000190734865,0.6400000190734865,1],"baseColorTexture":{"index":0},"metallicFactor":0}},{"name":"BodyB_mat","pbrMetallicRoughness":{"baseColorFactor":[0.6400000190734865,0.6400000190734865,0.6400000190734865,1],"baseColorTexture":{"index":1},"metallicFactor":0}},{"name":"Eye_mat","pbrMetallicRoughness":{"baseColorFactor":[0.6400000190734865,0.6400000190734865,0.6400000190734865,1],"baseColorTexture":{"index":2},"metallicFactor":0}},{"name":"FireCoreA_mat","pbrMetallicRoughness":{"baseColorFactor":[0.6400000190734865,0.6400000190734865,0.6400000190734865,1],"baseColorTexture":{"index":3},"metallicFactor":0}},{"name":"FireCoreB1_mat","pbrMetallicRoughness":{"baseColorFactor":[0.6400000190734865,0.6400000190734865,0.6400000190734865,1],"baseColorTexture":{"index":4},"metallicFactor":0}},{"name":"FireGeomA_mat","pbrMetallicRoughness":{"baseColorFactor":[0.6400000190734865,0.6400000190734865,0.6400000190734865,1],"baseColorTexture":{"index":5},"metallicFactor":0}},{"name":"FireGeomB1_mat","pbrMetallicRoughness":{"baseColorFactor":[0.6400000190734865,0.6400000190734865,0.6400000190734865,1],"baseColorTexture":{"index":5},"metallicFactor":0}},{"name":"FireStenB2_mat_001","pbrMetallicRoughness":{"baseColorFactor":[0.6400000190734865,0.6400000190734865,0.6400000190734865,1],"baseColorTexture":{"index":7},"metallicFactor":0}}],"meshes":[{"name":"mesh_9_BodyA","primitives":[{"material":0,"extensions":{"ALI_amc_mesh_compression":{"bufferView":2}}},{"material":1,"extensions":{"ALI_amc_mesh_compression":{"bufferView":3}}},{"material":2,"extensions":{"ALI_amc_mesh_compression":{"bufferView":4}}}]},{"name":"mesh_8_FireStenB2.001","primitives":[{"material":7,"extensions":{"ALI_amc_mesh_compression":{"bufferView":5}}}]},{"name":"mesh_2_FireGeomB2","primitives":[{"material":3,"extensions":{"ALI_amc_mesh_compression":{"bufferView":6}}},{"material":5,"extensions":{"ALI_amc_mesh_compression":{"bufferView":7}}},{"material":6,"extensions":{"ALI_amc_mesh_compression":{"bufferView":8}}},{"material":4,"extensions":{"ALI_amc_mesh_compression":{"bufferView":9}}}]}],"nodes":[{"children":[3,5,6],"name":"Armature","rotation":[0.7071068286895752,0,0,0.7071067094802856]},{"name":"Camera","rotation":[0.483536034822464,0.33687159419059753,-0.20870360732078552,0.7804827094078064],"translation":[7.481131553649902,5.34366512298584,6.5076398849487305]},{"name":"Lamp","rotation":[0.16907575726509094,0.7558802962303162,-0.27217137813568115,0.570947527885437],"scale":[1,1,0.9999999403953552],"translation":[4.076245307922363,5.903861999511719,-1.0054539442062378]},{"mesh":2,"name":"vsn_mesh_2_FireGeomB2","skin":0},{"mesh":1,"name":"vsn_mesh_8_FireStenB2","rotation":[0.7071068286895752,0,0,0.7071067094802856]},{"mesh":0,"name":"vsn_mesh_9_BodyA","skin":1},{"children":[7,48,49,50,51,52,53,54,55,56,57],"name":"Armature_pm0110_00","rotation":[-0.7071068286895752,0,0,0.7071068286895752]},{"children":[8],"name":"Armature_Origin"},{"children":[9,34,45,47],"name":"Armature_Waist","translation":[0,38.04983139038086,-0.1954900026321411]},{"children":[10],"name":"Armature_SpineA1","translation":[16.742719650268555,6.383369445800781,-3.2322068214416504]},{"children":[11,12,13,14,15,16,17,18,19,20,21],"name":"Armature_SpineA2","translation":[-31.550100326538086,-4.433200836181641,3.2322206497192383]},{"name":"Armature_LFeelerA","rotation":[0,2.7755575615628914e-17,0,1],"translation":[14.986784934997559,13.80936050415039,16.65326690673828]},{"name":"Armature_RFeelerA","translation":[-14.98678970336914,13.809383392333984,16.65316390991211]},{"name":"Armature_LFeelerB","rotation":[0,-3.552713678800501e-15,0,1],"translation":[35.80284881591797,-3.1747093200683594,-29.555511474609375]},{"name":"Armature_RFeelerB","translation":[-2.3580989837646484,2.8290138244628906,15.337846755981445]},{"name":"Armature_FeelerA","translation":[19.462268829345703,29.640548706054688,6.045307636260986]},{"name":"Armature_FeelerG","translation":[-19.43886947631836,29.595680236816406,6.026047229766846]},{"name":"Armature_Jaw","translation":[0.000011444091796875,-0.815673828125,0.1954902559518814]},{"name":"Armature_FeelerV","translation":[33.539161682128906,52.935943603515625,10.412286758422852]},{"name":"Armature_FeelerW","translation":[-35.15713119506836,51.94264221191406,11.679546356201172]},{"name":"Armature_FeelerX","translation":[9.5367431640625e-7,0.7660865783691406,0.19547608494758606]},{"children":[22,23,24,25,26,27,28,29,30,31,32,33],"name":"Armature_RootFeelerA"},{"name":"Armature_FeelerB","rotation":[0,1.618151625402118e-16,0,1],"translation":[12.25436019897461,21.18680191040039,-26.84003448486328]},{"name":"Armature_FeelerC","translation":[0.1295604705810547,1.2443161010742188,-34.538700103759766]},{"name":"Armature_FeelerD","translation":[23.484169006347656,-14.046943664550781,-23.319629669189453]},{"name":"Armature_FeelerE","translation":[13.49284839630127,-32.97837829589844,-6.405550479888916]},{"name":"Armature_FeelerF","translation":[25.646841049194336,-18.438575744628906,18.186555862426758]},{"name":"Armature_FeelerH","rotation":[0,3.5527141023169746e-15,0,1],"translation":[-17.34368896484375,17.462711334228516,-25.28191375732422]},{"name":"Armature_FeelerI","translation":[-6.468690872192383,-19.744647979736328,-26.325225830078125]},{"name":"Armature_FeelerJ","translation":[-29.902400970458984,-14.655448913574219,-13.22506332397461]},{"name":"Armature_FeelerK","translation":[-34.03764724731445,-8.855659484863281,6.712327003479004]},{"name":"Armature_FeelerL","translation":[-25.34423065185547,-19.355140686035156,19.259445190429688]},{"name":"Armature_FeelerM","translation":[-13.531478881835938,-33.009925842285156,-6.41321325302124]},{"name":"Armature_FeelerN","translation":[-32.365020751953125,12.041988372802734,-6.27294921875]},{"children":[35],"name":"Armature_SpineB1","translation":[16.33612060546875,7.4777374267578125,-2.7092461585998535]},{"children":[36,37],"name":"Armature_SpineB2","rotation":[0,-3.552713678800501e-15,0,1],"translation":[16.372169494628906,0.3630409240722656,-2.0995826721191406]},{"name":"Armature_FeelerY","rotation":[0,3.552713678800501e-15,0,1],"translation":[0.99151611328125,0.12981033325195312,0.000020503997802734375]},{"children":[38,39,40,41,42,43,44],"name":"Armature_RootFeelerB","translation":[-3.552713678800501e-14,0,-2.327027459614328e-13]},{"name":"Armature_FeelerO","rotation":[0,3.552713678800501e-15,0,1],"translation":[-2.301126480102539,17.576812744140625,-14.904048919677734]},{"name":"Armature_FeelerP","rotation":[0,3.552713678800501e-15,0,1],"translation":[-10.190353393554688,20.535850524902344,5.2961602210998535]},{"name":"Armature_FeelerQ","rotation":[0,3.552713678800501e-15,0,1],"translation":[4.699897766113281,21.052627563476562,3.842245578765869]},{"name":"Armature_FeelerR","rotation":[0,3.552713678800501e-15,0,1],"translation":[14.206390380859375,0.8040008544921875,-17.45591163635254]},{"name":"Armature_FeelerS","rotation":[0,3.552713678800501e-15,0,1],"translation":[12.790817260742188,-17.879474639892578,-5.169771671295166]},{"name":"Armature_FeelerT","rotation":[0,-3.552713678800501e-15,0,1],"translation":[-4.1212615966796875,-6.593387603759766,-22.721752166748047]},{"name":"Armature_FeelerU","translation":[-9.031486511230469,-2.2248191833496094,21.001798629760742]},{"children":[46],"name":"Armature_SpineC1","rotation":[0,-6.898162207056137e-15,0,1],"translation":[19.909770965576172,-13.077678680419922,-10.792619705200195]},{"name":"Armature_SpineC2","rotation":[0,6.898162207056137e-15,0,1],"translation":[5.457218170166016,-16.972150802612305,-6.98661994934082]},{"name":"Armature_FeelerZ","rotation":[0,-5.293955920339377e-23,0,1],"translation":[-3.139179796107783e-7,-1,0]},{"name":"Armature_pm0110_00_BodySkin"},{"name":"Armature_pm0110_00_FireGeomASkin"},{"name":"Armature_pm0110_00_FireGeomB1Skin"},{"name":"Armature_pm0110_00_FireGeomB2Skin"},{"name":"Armature_pm0110_00_FireCoreASkin"},{"name":"Armature_pm0110_00_FireCoreB1Skin"},{"name":"Armature_pm0110_00_FireCoreB2Skin"},{"name":"Armature_pm0110_00_FireStenASkin"},{"name":"Armature_pm0110_00_FireStenB1Skin"},{"name":"Armature_pm0110_00_FireStenB2Skin"}],"samplers":[{}],"scene":0,"scenes":[{"name":"Scene","nodes":[4,0,2,1]}],"skins":[{"inverseBindMatrices":0,"joints":[6,7,8,9,10,11,12,13,14,15,16,17,18,19,20,21,22,23,24,25,26,27,28,29,30,31,32,33,34,35,36,37,38,39,40,41,42,43,44,45,46,47,48,49,50,51,52,53,54,55,56,57],"skeleton":0},{"inverseBindMatrices":1,"joints":[6,7,8,9,10,11,12,13,14,15,16,17,18,19,20,21,22,23,24,25,26,27,28,29,30,31,32,33,34,35,36,37,38,39,40,41,42,43,44,45,46,47,48,49,50,51,52,53,54,55,56,57],"skeleton":0}],"textures":[{"sampler":0,"source":0},{"sampler":0,"source":1},{"sampler":0,"source":2},{"sampler":0,"source":3},{"sampler":0,"source":4},{"sampler":0,"source":5},{"sampler":0,"source":5},{"sampler":0,"source":6}],"extensionsUsed":["ALI_amc_mesh_compression"],"extensionsRequired":["ALI_amc_mesh_compression"]}