{"accessors":[{"bufferView":0,"componentType":5126,"count":39,"max":[1,2.6843274270049733e-8,1.0000001192092896,0,0.8205172419548035,1.4207025555990072e-9,1,0,1.1102231569740545e-16,-1,2.688083533541885e-8,0,2.3078391551971436,32.161598205566406,9.190451622009277,1],"min":[-0.9999992251396179,-2.6843267164622375e-8,-0.8205172419548035,0,-1.0000001192092896,0,-0.9999992251396179,0,-2.220446049250313e-16,-1,-2.688083533541885e-8,0,-34.686405181884766,-8.664888381958008,-24.164552688598633,1],"type":"MAT4","byteOffset":0}],"asset":{"generator":"Khronos Blender glTF 2.0 exporter","version":"2.0"},"bufferViews":[{"buffer":0,"byteLength":2496,"byteOffset":0},{"buffer":0,"byteOffset":2496,"byteLength":9059},{"buffer":0,"byteOffset":11555,"byteLength":116333}],"buffers":[{"byteLength":127888,"uri":"buffer.bin"}],"images":[{"name":"pm0138_00_Eye1","uri":"pm0138_00_Eye1.png"},{"name":"pm0138_00_Body1","uri":"pm0138_00_Body1.png"}],"materials":[{"alphaMode":"OPAQUE","name":"Material__10","pbrMetallicRoughness":{"baseColorFactor":[0.6400000190734865,0.6400000190734865,0.6400000190734865,1],"baseColorTexture":{"index":0},"metallicFactor":0}},{"alphaMode":"OPAQUE","name":"Material__11","pbrMetallicRoughness":{"baseColorFactor":[0.6400000190734865,0.6400000190734865,0.6400000190734865,1],"baseColorTexture":{"index":1},"metallicFactor":0}}],"meshes":[{"name":"Omanyte","primitives":[{"material":0,"extensions":{"ALI_amc_mesh_compression":{"bufferView":1}}},{"material":1,"extensions":{"ALI_amc_mesh_compression":{"bufferView":2}}}]}],"nodes":[{"children":[3,4],"name":"Armature","scale":[0.02539999969303608,0.02539999969303608,0.02539999969303608]},{"name":"Camera","rotation":[0.483536034822464,0.33687159419059753,-0.20870360732078552,0.7804827094078064],"translation":[7.481131553649902,5.34366512298584,6.5076398849487305]},{"name":"Lamp","rotation":[0.16907575726509094,0.7558802962303162,-0.27217137813568115,0.570947527885437],"scale":[1,1,0.9999999403953552],"translation":[4.076245307922363,5.903861999511719,-1.0054539442062378]},{"mesh":0,"name":"Omanyte","skin":0},{"children":[5,42],"name":"Armature_pm0138_00","rotation":[-0.7071068286895752,0,0,0.7071068286895752]},{"children":[6],"name":"Armature_Origin"},{"children":[7,10,14,17,20,23,26,27,29,33,36,39],"name":"Armature_Waist","translation":[-0.00000199999976757681,-21.662500381469727,5.752269744873047]},{"children":[8],"name":"Armature_LFeelerD1","rotation":[0,0.6105002164840698,0,0.7920161485671997],"translation":[8.185379028320312,1.7281818389892578,-2.897840738296509]},{"children":[9],"name":"Armature_LFeelerD2","rotation":[0,0.10209325700998306,0,0.9947749376296997],"translation":[3.556540012359619,0.1344451904296875,0.11845457553863525]},{"name":"Armature_EndLFeelerD2","rotation":[1.3440416779531006e-8,3.725290298461914e-9,5.006945423607158e-17,1],"translation":[3.9441142082214355,0.031061172485351562,0.02724386751651764]},{"children":[11],"name":"Armature_RArm","rotation":[0,0.9999998807907104,0,-0.0006343881832435727],"scale":[0.9999999403953552,1,0.9999999403953552],"translation":[-8.430634498596191,-1.0849800109863281,1.213407039642334]},{"children":[12],"name":"Armature_RForeArm","translation":[4.681915760040283,-0.25171470642089844,-0.25134122371673584]},{"children":[13],"name":"Armature_RHand","translation":[3.629737615585327,-0.1951446533203125,-0.19486349821090698]},{"name":"Armature_EndRHand","translation":[4.856731414794922,-0.2611122131347656,-0.2607366442680359]},{"children":[15],"name":"Armature_RFeelerA1","rotation":[0,0.9915858507156372,0,0.12945090234279633],"translation":[-1.6969470977783203,-6.007040023803711,-2.7926089763641357]},{"children":[16],"name":"Armature_RFeelerA2","rotation":[0,-0.6096197962760925,0,0.7926939725875854],"translation":[0.7929050922393799,-0.43830299377441406,2.619483709335327]},{"name":"Armature_EndRFeelerA2","rotation":[0,-7.94670995674096e-9,0,1],"translation":[3.4137799739837646,-0.0000019073486328125,-7.338730938499793e-7]},{"children":[18],"name":"Armature_RFeelerB1","rotation":[0,0.8874799609184265,0,0.4608463943004608],"translation":[-5.146456718444824,-4.721307754516602,-2.85534930229187]},{"children":[19],"name":"Armature_RFeelerB2","rotation":[0,-0.30168357491493225,0,0.9534081220626831],"translation":[2.4294517040252686,-0.4103221893310547,1.4242035150527954]},{"name":"Armature_EndRFeelerB2","rotation":[0,6.954905984457582e-9,0,1],"translation":[3.4137799739837646,0.0000171661376953125,-0.00006418363773263991]},{"children":[21],"name":"Armature_RFeelerC1","rotation":[0,0.7327355742454529,0,0.6805135011672974],"translation":[-7.801642894744873,-3.210172653198242,-2.8607850074768066]},{"children":[22],"name":"Armature_RFeelerC2","rotation":[0,-0.03692544251680374,0,0.99931800365448],"translation":[2.8875491619110107,-0.04694175720214844,0.06413634121417999]},{"name":"Armature_EndRFeelerC2","rotation":[0,-4.960156729794107e-10,0,1],"translation":[3.4137799739837646,0.000003814697265625,-0.000011681930118356831]},{"children":[24],"name":"Armature_RFeelerD1","rotation":[0,0.7920180559158325,0,0.6104976534843445],"translation":[-8.185358047485352,1.7281837463378906,-2.8978607654571533]},{"children":[25],"name":"Armature_RFeelerD2","rotation":[0,-0.1020929366350174,0,0.9947748780250549],"translation":[3.5565202236175537,0.1344451904296875,-0.11849832534790039]},{"name":"Armature_EndRFeelerD2","rotation":[-1.3440417667709426e-8,1.862645149230957e-9,-5.2790309351109603e-17,1],"translation":[3.9441118240356445,0.031061172485351562,-0.027242228388786316]},{"name":"Armature_EndWaist","translation":[0,-10.49909782409668,0]},{"children":[28],"name":"Armature_Hair","rotation":[0,-0.46280568838119507,0,0.8864597678184509],"translation":[-0.000007115616426744964,6.351066589355469,2.105376720428467]},{"name":"Armature_EndHair","translation":[28.23907470703125,23.976322174072266,19.672943115234375]},{"children":[30],"name":"Armature_LArm","rotation":[0,-0.05424043908715248,0,0.998528003692627],"translation":[8.430733680725098,-1.0849933624267578,1.2133941650390625]},{"children":[31],"name":"Armature_LForeArm","translation":[4.6818060874938965,-0.2517242431640625,-0.25135624408721924]},{"children":[32],"name":"Armature_LHand","rotation":[0,-3.3527612686157227e-8,0,1],"translation":[3.6297335624694824,-0.19514846801757812,-0.19487404823303223]},{"name":"Armature_EndLHand","translation":[4.856749057769775,-0.2611255645751953,-0.26074838638305664]},{"children":[34],"name":"Armature_LFeelerA1","rotation":[0,0.12945865094661713,0,0.991584837436676],"translation":[1.6969616413116455,-6.007047653198242,-2.792637825012207]},{"children":[35],"name":"Armature_LFeelerA2","rotation":[0,0.6096160411834717,0,0.7926968932151794],"scale":[0.9999998807907104,1,0.9999998807907104],"translation":[0.7929122447967529,-0.43830108642578125,-2.6194562911987305]},{"name":"Armature_EndLFeelerA2","rotation":[0,6.954564923944417e-9,0,1],"translation":[3.413780689239502,0.00000762939453125,-0.0000016895141925488133]},{"children":[37],"name":"Armature_LFeelerB1","rotation":[0,0.46084967255592346,0,0.887478232383728],"translation":[5.146470546722412,-4.721309661865234,-2.8553476333618164]},{"children":[38],"name":"Armature_LFeelerB2","rotation":[0,0.30168336629867554,0,0.9534081816673279],"translation":[2.429434299468994,-0.4102287292480469,-1.4242327213287354]},{"name":"Armature_EndLFeelerB2","rotation":[0,6.955815479159355e-9,0,1],"translation":[3.4137799739837646,0.0000209808349609375,0.00006590237899217755]},{"children":[40],"name":"Armature_LFeelerC1","rotation":[0,0.6805144548416138,0,0.732734739780426],"translation":[7.801625728607178,-3.2100963592529297,-2.860783815383911]},{"children":[41],"name":"Armature_LFeelerC2","rotation":[0,0.036924973130226135,0,0.9993181228637695],"translation":[2.8875372409820557,-0.04705047607421875,-0.06415843963623047]},{"name":"Armature_EndLFeelerC2","rotation":[0,-4.960440946888411e-10,0,1],"translation":[3.4137799739837646,0.0000019073486328125,0.000002007169314310886]},{"name":"Armature_pm0138_00_Skin"}],"samplers":[{}],"scene":0,"scenes":[{"name":"Scene","nodes":[0,2,1]}],"skins":[{"inverseBindMatrices":0,"joints":[4,5,6,7,8,9,10,11,12,13,14,15,16,17,18,19,20,21,22,23,24,25,26,27,28,29,30,31,32,33,34,35,36,37,38,39,40,41,42],"skeleton":0}],"textures":[{"sampler":0,"source":0},{"sampler":0,"source":1}],"extensionsUsed":["ALI_amc_mesh_compression"],"extensionsRequired":["ALI_amc_mesh_compression"]}