{"accessors":[{"bufferView":0,"componentType":5126,"count":76,"max":[0.0000022297626856015995,-1,0.000003604278390412219,0,0.9956597089767456,3.4773075530125652e-9,1.0000001192092896,0,0.6166590452194214,0.000003620316647356958,0.9956597089767456,0,90.92840576171875,88.04875183105469,76.42292022705078,1],"min":[-0.000003620315965235932,-1.0000003576278687,-0.0000036192395782563835,0,-0.9996784925460815,3.4773062207449357e-9,-0.6166590452194214,0,-1.0000001192092896,0.0000036203152831149055,-0.9996784925460815,0,-115.22742462158203,-88.04847717285156,-97.62407684326172,1],"type":"MAT4","byteOffset":0}],"asset":{"generator":"Khronos Blender glTF 2.0 exporter","version":"2.0"},"bufferViews":[{"buffer":0,"byteLength":4864,"byteOffset":0},{"buffer":0,"byteOffset":4864,"byteLength":113043},{"buffer":0,"byteOffset":117907,"byteLength":38081},{"buffer":0,"byteOffset":155988,"byteLength":3731},{"buffer":0,"byteOffset":159719,"byteLength":3411}],"buffers":[{"byteLength":163130,"uri":"buffer.bin"}],"images":[{"name":"pm0064_00_BodyB1","uri":"pm0064_00_BodyB1.png"},{"name":"pm0064_00_BodyA1","uri":"pm0064_00_BodyA1.png"},{"name":"pm0064_00_Eye1","uri":"pm0064_00_Eye1.png"},{"name":"pm0064_00_Iris1","uri":"pm0064_00_Iris1.png"}],"materials":[{"alphaMode":"OPAQUE","name":"Material__88","pbrMetallicRoughness":{"baseColorFactor":[0.6400000190734865,0.6400000190734865,0.6400000190734865,1],"baseColorTexture":{"index":0},"metallicFactor":0}},{"alphaMode":"OPAQUE","name":"Material__89","pbrMetallicRoughness":{"baseColorFactor":[0.6400000190734865,0.6400000190734865,0.6400000190734865,1],"baseColorTexture":{"index":1},"metallicFactor":0}},{"alphaMode":"OPAQUE","name":"Material__90","pbrMetallicRoughness":{"baseColorFactor":[0.6400000190734865,0.6400000190734865,0.6400000190734865,1],"baseColorTexture":{"index":2},"metallicFactor":0}},{"alphaMode":"MASK","name":"Material__91","pbrMetallicRoughness":{"baseColorFactor":[0.6400000190734865,0.6400000190734865,0.6400000190734865,1],"baseColorTexture":{"index":3},"metallicFactor":0}}],"meshes":[{"name":"KadabraF","primitives":[{"material":1,"extensions":{"ALI_amc_mesh_compression":{"bufferView":1}}},{"material":0,"extensions":{"ALI_amc_mesh_compression":{"bufferView":2}}},{"material":3,"extensions":{"ALI_amc_mesh_compression":{"bufferView":3}}},{"material":2,"extensions":{"ALI_amc_mesh_compression":{"bufferView":4}}}]}],"nodes":[{"name":"Camera","rotation":[0.483536034822464,0.33687159419059753,-0.20870360732078552,0.7804827094078064],"translation":[7.481131553649902,5.34366512298584,6.5076398849487305]},{"name":"EndFeeler","translation":[36.772708892822266,-0.000003814699994109105,0]},{"name":"EndHead","translation":[27.936100006103516,0,-0.0000010000100019169622]},{"name":"EndHips","translation":[25.322200775146484,0,0]},{"name":"EndJaw","translation":[10.081600189208984,0.000007629389983776491,-0.0000010000100019169622]},{"name":"EndLFeelerA3","translation":[24.392719268798828,0,-0.0000019073499970545527]},{"name":"EndLFingerA2","translation":[10.31089973449707,-0.0000019073499970545527,0]},{"name":"EndLFingerB2","translation":[15.70596981048584,0.000011444099982327316,-0.0000019073499970545527]},{"name":"EndLFingerC2","translation":[15.3858003616333,0.0000019073499970545527,0.000003814699994109105]},{"name":"EndLFoot","translation":[16.725299835205078,-0.0000019073499970545527,0.000004768370217789197]},{"name":"EndLHand","translation":[12.943499565124512,0.000003814699994109105,0.000007629389983776491]},{"name":"EndLToeA2","translation":[12.839300155639648,0,7.152560215217818e-7]},{"name":"EndLToeB2","translation":[14.421609878540039,-4.768369876728684e-7,-0.000003814699994109105]},{"name":"EndLToeC","translation":[13.575909614562988,0,9.536739753457368e-7]},{"name":"EndRFeelerA3","translation":[24.392690658569336,0.000007629389983776491,-0.00004768370126839727]},{"name":"EndRFingerA2","translation":[10.31091022491455,-0.000029563900170614943,0.000022888199964654632]},{"name":"EndRFingerB2","translation":[15.705989837646484,0.000022888199964654632,0.000003814699994109105]},{"name":"EndRFingerC2","translation":[15.3858003616333,-0.00003051759995287284,-0.000022888199964654632]},{"name":"EndRFoot","translation":[16.725299835205078,0,0.00000667572021484375]},{"name":"EndRHand","translation":[12.943510055541992,-0.000014305100194178522,0.00001525879997643642]},{"name":"EndRToeA2","translation":[12.839309692382812,-0.000004291529876354616,-0.00005960460111964494]},{"name":"EndRToeB2","translation":[14.421609878540039,-0.000004768370217789197,0.00005340580173651688]},{"name":"EndRToeC","translation":[13.575900077819824,-0.0000020265599687263602,0.000021934500182396732]},{"name":"EndTail6","translation":[24.52379035949707,-0.000007629389983776491,-9.999710073316237e-7]},{"name":"EnvironmentAmbientLight","scale":[0.02539999969303608,0.02539999969303608,0.02539999969303608]},{"mesh":0,"name":"KadabraF","rotation":[-0.03294071927666664,-0.7063403725624084,-0.032940611243247986,0.7063378095626831],"scale":[1,0.9999999403953552,1],"skin":0,"translation":[-56.04190444946289,6.176554203033447,-0.00020409311400726438]},{"name":"Lamp","rotation":[0.16907575726509094,0.7558802962303162,-0.27217137813568115,0.570947527885437],"scale":[1,1,0.9999999403953552],"translation":[4.076245307922363,5.903861999511719,-1.0054539442062378]},{"children":[35],"name":"Origin"},{"name":"pm0064_00_BodySkin"},{"name":"pm0064_00_HigeSkin"},{"name":"pm0064_00_IrisSkin"},{"children":[27,28,30,33,34],"name":"pm0064_00_yungerer","rotation":[0.7071065902709961,0,0,0.7071069478988647],"scale":[0.02539999969303608,0.02539999969303608,0.02539999969303608]},{"name":"pm0064_01_HigeSkin"},{"children":[29],"name":"VriVis00"},{"children":[32],"name":"VriVis01"},{"children":[25,36,69],"name":"Waist","rotation":[0.03294072672724724,0.7063403725624084,0.03294060751795769,0.7063378095626831],"scale":[0.9999999403953552,0.9999999403953552,1],"translation":[0,-0.9339749813079834,-56.37350082397461]},{"children":[37,38,50,62],"name":"Waist_Hips","rotation":[-0.5227497816085815,0.4761645495891571,-0.4761645495891571,0.5227497816085815],"scale":[0.9999999403953552,1,0.9999999403953552],"translation":[-49.865333557128906,62.21845626831055,-0.00019666117441374809]},{"name":"Waist_EndHips","rotation":[0,3.725290298461914e-9,0,1],"translation":[24.883522033691406,-0.00002765655517578125,-4.692987442016602]},{"children":[39],"name":"Waist_LThigh","rotation":[0,-0.4551977217197418,0,0.8903903961181641],"translation":[8.258026123046875,-8.253219604492188,-0.23456239700317383]},{"children":[40],"name":"Waist_LLeg","rotation":[0,0.5467520356178284,0,0.8372946977615356],"scale":[0.9999999403953552,0.9999998807907104,0.9999999403953552],"translation":[-7.545507431030273,-23.820341110229492,-20.313358306884766]},{"children":[41,42,45,48],"name":"Waist_LFoot","rotation":[0,-0.7283223271369934,0,0.685234785079956],"scale":[0.9999999403953552,0.9999998211860657,0.9999999403953552],"translation":[24.836389541625977,1.215230941772461,2.2733235359191895]},{"name":"Waist_EndLFoot","rotation":[0,3.166496753692627e-8,0,1],"translation":[-8.238174438476562,-14.55546760559082,0.0806879997253418]},{"children":[43],"name":"Waist_LToeA1","rotation":[0,0.016848232597112656,0,0.9998580813407898],"translation":[-12.084362983703613,-5.039926528930664,-6.015150547027588]},{"children":[44],"name":"Waist_LToeA2","translation":[-5.631413459777832,-7.533985137939453,-0.5457167625427246]},{"name":"Waist_EndLToeA2","translation":[-7.674001693725586,-10.26666259765625,-0.7436535358428955]},{"children":[46],"name":"Waist_LToeB1","rotation":[0,0.01891225017607212,0,0.9998211860656738],"translation":[1.7755588293075562,-11.539030075073242,-6.092698097229004]},{"children":[47],"name":"Waist_LToeB2","rotation":[0,-7.450580596923828e-9,0,1],"translation":[-4.112721920013428,-8.99178695678711,-0.5226519107818604]},{"name":"Waist_EndLToeB2","rotation":[0,-3.725290298461914e-9,0,1],"translation":[-5.990190029144287,-13.096607208251953,-0.7612442970275879]},{"children":[49],"name":"Waist_LToeC","rotation":[0,0.003232340095564723,0,0.9999948740005493],"translation":[3.6891279220581055,7.805534362792969,-6.5299882888793945]},{"name":"Waist_EndLToeC","rotation":[0,7.450580596923828e-9,0,1],"translation":[6.687177658081055,11.814679145812988,-0.022264957427978516]},{"children":[51],"name":"Waist_RThigh","rotation":[0,-0.4551938772201538,0,0.8903923630714417],"translation":[8.258087158203125,8.253199577331543,-0.23451805114746094]},{"children":[52],"name":"Waist_RLeg","rotation":[0,0.5467520356178284,0,0.8372945785522461],"scale":[1,0.9999998807907104,1],"translation":[-7.545169830322266,23.82037353515625,-20.313430786132812]},{"children":[53,54,57,60],"name":"Waist_RFoot","rotation":[0,-0.7283227443695068,0,0.6852343082427979],"scale":[1,1.0000001192092896,1],"translation":[24.83637809753418,-1.2153167724609375,2.2735443115234375]},{"name":"Waist_EndRFoot","rotation":[0,-2.7939677238464355e-8,0,1],"translation":[-8.238082885742188,14.555526733398438,0.08055925369262695]},{"children":[55],"name":"Waist_RToeA1","rotation":[0,0.016848742961883545,0,0.9998580813407898],"scale":[1,0.9999999403953552,1],"translation":[-12.084253311157227,5.040008544921875,-6.015261173248291]},{"children":[56],"name":"Waist_RToeA2","rotation":[0,-1.1175870895385742e-8,0,1],"translation":[-5.631410598754883,7.534034729003906,-0.5458023548126221]},{"name":"Waist_EndRToeA2","translation":[-7.673985958099365,10.266677856445312,-0.7437715530395508]},{"children":[58],"name":"Waist_RToeB1","rotation":[0,0.018912799656391144,0,0.9998211860656738],"scale":[1,0.9999999403953552,1],"translation":[1.7757155895233154,11.538917541503906,-6.0927348136901855]},{"children":[59],"name":"Waist_RToeB2","rotation":[0,1.4901161193847656e-8,0,1],"translation":[-4.11269998550415,8.991832733154297,-0.5227246284484863]},{"name":"Waist_EndRToeB2","rotation":[0,3.725290298461914e-9,0,1],"translation":[-5.990060329437256,13.096668243408203,-0.7613558769226074]},{"children":[61],"name":"Waist_RToeC","rotation":[0,0.0032270383089780807,0,0.9999948143959045],"translation":[3.68914532661438,-7.805585861206055,-6.529913902282715]},{"name":"Waist_EndRToeC","rotation":[0,1.1175870895385742e-8,0,1],"translation":[6.687072277069092,-11.814723014831543,-0.0222322940826416]},{"children":[63],"name":"Waist_Tail1","rotation":[0,-0.8033694624900818,0,0.5954809784889221],"translation":[19.717750549316406,-0.00006246566772460938,9.643568992614746]},{"children":[64],"name":"Waist_Tail2","rotation":[0,-0.07332055270671844,0,0.9973084330558777],"scale":[0.9999999403953552,1,0.9999999403953552],"translation":[30.205394744873047,-0.00007963180541992188,0.0000133514404296875]},{"children":[65],"name":"Waist_Tail3","rotation":[0,0.30291274189949036,0,0.953018307685852],"translation":[18.545902252197266,-0.000046253204345703125,0.00001049041748046875]},{"children":[66],"name":"Waist_Tail4","rotation":[0,0.45464980602264404,0,0.8906702995300293],"scale":[0.9999999403953552,1,0.9999999403953552],"translation":[18.294828414916992,-0.000051021575927734375,-0.000025510787963867188]},{"children":[67],"name":"Waist_Tail5","rotation":[0,-0.490614652633667,0,0.871376633644104],"scale":[0.9999999403953552,1,0.9999999403953552],"translation":[37.39778137207031,-0.00005912781125516631,-0.000026702880859375]},{"children":[68],"name":"Waist_Tail6","rotation":[0,-0.43927597999572754,0,0.8983522057533264],"translation":[16.794008255004883,-0.00003671645390568301,0.000022009015083312988]},{"name":"Waist_EndTail6","rotation":[0,-4.470348358154297e-8,0,1],"translation":[24.523792266845703,-0.000019073486328125,-0.000003814697265625]},{"children":[70,82,96],"name":"Waist_Spine","rotation":[-0.5000001192092896,-0.4999999701976776,0.4999999701976776,0.5000001192092896],"translation":[-49.865333557128906,62.21844482421875,-0.000196660723304376]},{"children":[71,72,74,78],"name":"Waist_Head","rotation":[0,-0.17632581293582916,0,0.9843319058418274],"translation":[38.722511291503906,0.00015369057655334473,0.0000011694501154124737]},{"name":"Waist_EndHead","translation":[27.936100006103516,0.00013518333435058594,0.000003814697265625]},{"children":[73],"name":"Waist_Jaw","rotation":[0,-0.9998367428779602,0,0.018070906400680542],"scale":[0.9999998807907104,0.9999999403953552,0.9999998807907104],"translation":[3.7859764099121094,0.000060558319091796875,25.577110290527344]},{"name":"Waist_EndJaw","rotation":[0,2.9802322387695312e-8,0,1],"translation":[8.106117248535156,-0.00004875659942626953,-5.994119644165039]},{"children":[75],"name":"Waist_LFeelerA1","rotation":[0,0.9554112553596497,0,0.29527854919433594],"translation":[5.763389587402344,-5.905889987945557,30.211227416992188]},{"children":[76],"name":"Waist_LFeelerA2","rotation":[0,0.17422351241111755,0,0.9847061634063721],"scale":[1.0000001192092896,1,1.0000001192092896],"translation":[2.683197021484375,-8.068878173828125,-4.036563873291016]},{"children":[77],"name":"Waist_LFeelerA3","rotation":[0,0.14791689813137054,0,0.9889997839927673],"scale":[0.9999999403953552,1,0.9999999403953552],"translation":[7.729499816894531,-7.897686004638672,-5.971151351928711]},{"name":"Waist_EndLFeelerA3","scale":[0.9999999403953552,1,0.9999999403953552],"translation":[21.07526969909668,-9.119955062866211,-8.225814819335938]},{"children":[79],"name":"Waist_RFeelerA1","rotation":[0,0.9554121494293213,0,0.29527547955513],"scale":[1.0000001192092896,1,1.0000001192092896],"translation":[5.763357162475586,5.9060444831848145,30.211212158203125]},{"children":[80],"name":"Waist_RFeelerA2","rotation":[0,0.1742238700389862,0,0.9847061038017273],"translation":[2.683300018310547,8.06883430480957,-4.0365753173828125]},{"children":[81],"name":"Waist_RFeelerA3","rotation":[0,0.14791668951511383,0,0.9889998435974121],"translation":[7.729713439941406,7.897705078125,-5.971088409423828]},{"name":"Waist_EndRFeelerA3","rotation":[0,-1.4901161193847656e-8,0,1],"translation":[21.075387954711914,9.119773864746094,-8.225654602050781]},{"children":[83],"name":"Waist_LShoulder","rotation":[0,-0.09969792515039444,0,0.9950177669525146],"translation":[26.313278198242188,-17.718503952026367,-2.49200701713562]},{"children":[84],"name":"Waist_LArm","rotation":[0,0.27182552218437195,0,0.9623465538024902],"translation":[-0.6499595642089844,-17.927600860595703,-2.155458450317383]},{"children":[85],"name":"Waist_LForeArm","rotation":[0,-1.7881393432617188e-7,0,1],"translation":[-14.328384399414062,-20.18661880493164,-10.90341567993164]},{"children":[86,87,90,93],"name":"Waist_LHand","rotation":[0,1.043081283569336e-7,0,1],"translation":[-14.183124542236328,-19.982009887695312,-10.792903900146484]},{"name":"Waist_EndLHand","translation":[-6.8562469482421875,-9.659461975097656,-5.217371940612793]},{"children":[88],"name":"Waist_LFingerA1","rotation":[0,0.1557064652442932,0,0.9878033995628357],"translation":[-8.621474266052246,-3.3817901611328125,2.2013931274414062]},{"children":[89],"name":"Waist_LFingerA2","rotation":[0,7.003545761108398e-7,0,1],"translation":[-5.933385848999023,-0.3013153076171875,-0.23095130920410156]},{"name":"Waist_EndLFingerA2","rotation":[0,-1.4901161193847656e-8,0,1],"translation":[-10.289856910705566,-0.5226058959960938,-0.4005451202392578]},{"children":[91],"name":"Waist_LFingerB1","rotation":[0,0.9052378535270691,0,0.4249052107334137],"translation":[-8.324112892150879,-9.823440551757812,-0.9874963760375977]},{"children":[92],"name":"Waist_LFingerB2","rotation":[0,0.599018394947052,0,0.8007352352142334],"translation":[6.142362594604492,-2.4105682373046875,-2.182941436767578]},{"name":"Waist_EndLFingerB2","translation":[5.965099811553955,12.583633422851562,7.262733459472656]},{"children":[94],"name":"Waist_LFingerC1","rotation":[0,0.8921469449996948,0,0.4517452120780945],"translation":[-3.4437036514282227,-8.460182189941406,-8.79361343383789]},{"children":[95],"name":"Waist_LFingerC2","rotation":[0,0.6057355999946594,0,0.7956660389900208],"translation":[6.400559425354004,-2.3249359130859375,-2.0754833221435547]},{"name":"Waist_EndLFingerC2","rotation":[0,1.4901161193847656e-8,0,1],"translation":[5.537081718444824,12.654823303222656,6.776369094848633]},{"children":[97],"name":"Waist_RShoulder","rotation":[0,-0.09969597309827805,0,0.995017945766449],"translation":[26.31317138671875,17.71869468688965,-2.492110013961792]},{"children":[98],"name":"Waist_RArm","rotation":[0,0.2718307673931122,0,0.9623451232910156],"translation":[-0.6501455307006836,17.92755699157715,-2.155538558959961]},{"children":[99],"name":"Waist_RForeArm","rotation":[0,8.940698137394065e-8,0,1],"scale":[0.9999999403953552,1,0.9999999403953552],"translation":[-14.32834243774414,20.186466217041016,-10.903793334960938]},{"children":[100,101,103,106,109],"name":"Waist_RHand","rotation":[0,-1.4901162970204496e-8,0,1],"scale":[0.9999999403953552,1,0.9999999403953552],"translation":[-14.18303394317627,19.981822967529297,-10.793310165405273]},{"name":"Waist_EndRHand","translation":[-6.856198310852051,9.659400939941406,-5.2175798416137695]},{"children":[102],"name":"Waist_Feeler","rotation":[0,0.6104632616043091,0,0.7920445799827576],"translation":[-11.595026969909668,6.927207946777344,-2.599759101867676]},{"name":"Waist_EndFeeler","rotation":[0,2.60770320892334e-8,0,1],"translation":[-36.759300231933594,0.9932937622070312,-0.005850791931152344]},{"children":[104],"name":"Waist_RFingerA1","rotation":[0,0.15589813888072968,0,0.9877731800079346],"translation":[-8.621511459350586,3.381805419921875,2.201213836669922]},{"children":[105],"name":"Waist_RFingerA2","rotation":[0,3.427267074584961e-7,0,1],"translation":[-5.933258056640625,0.3013153076171875,-0.23329925537109375]},{"name":"Waist_EndRFingerA2","translation":[-10.289701461791992,0.5226058959960938,-0.4047222137451172]},{"children":[107],"name":"Waist_RFingerB1","rotation":[0,0.905236542224884,0,0.4249081015586853],"translation":[-8.324140548706055,9.823471069335938,-0.9877071380615234]},{"children":[108],"name":"Waist_RFingerB2","rotation":[0,0.5990186333656311,0,0.8007351160049438],"scale":[1.0000001192092896,1,1.0000001192092896],"translation":[6.142337799072266,2.4104766845703125,-2.182856559753418]},{"name":"Waist_EndRFingerB2","translation":[5.965028762817383,-12.583732604980469,7.262674331665039]},{"children":[110],"name":"Waist_RFingerC1","rotation":[0,0.8921454548835754,0,0.4517483115196228],"translation":[-3.4435386657714844,8.460136413574219,-8.793708801269531]},{"children":[111],"name":"Waist_RFingerC2","rotation":[0,0.6057363152503967,0,0.795665442943573],"scale":[0.9999999403953552,1,0.9999999403953552],"translation":[6.400613784790039,2.3248138427734375,-2.075448989868164]},{"name":"Waist_EndRFingerC2","rotation":[0,2.9802322387695312e-8,0,1],"translation":[5.536982536315918,-12.654922485351562,6.7762451171875]}],"samplers":[{}],"scene":0,"scenes":[{"name":"Scene","nodes":[17,16,15,1,19,8,7,6,10,14,5,4,2,23,22,21,20,18,13,12,11,9,3,31,24,26,0]}],"skins":[{"inverseBindMatrices":0,"joints":[36,37,38,39,40,41,42,43,44,45,46,47,48,49,50,51,52,53,54,55,56,57,58,59,60,61,62,63,64,65,66,67,68,69,70,71,72,73,74,75,76,77,78,79,80,81,82,83,84,85,86,87,88,89,90,91,92,93,94,95,96,97,98,99,100,101,102,103,104,105,106,107,108,109,110,111],"skeleton":35}],"textures":[{"sampler":0,"source":0},{"sampler":0,"source":1},{"sampler":0,"source":2},{"sampler":0,"source":3}],"extensionsUsed":["ALI_amc_mesh_compression"],"extensionsRequired":["ALI_amc_mesh_compression"]}