{"accessors":[{"bufferView":0,"componentType":5126,"count":29,"max":[1,0,5.960464477539063e-8,0,2.9802320611338473e-8,0,1,0,0,-1,0,0,19.273906707763672,0,30.5633544921875,1],"min":[1,0,-2.9802320611338473e-8,0,-5.960464477539063e-8,0,1,0,0,-1,0,0,-19.2739315032959,-21.189315795898438,-12.301690101623535,1],"type":"MAT4","byteOffset":0}],"asset":{"generator":"Khronos Blender glTF 2.0 exporter","version":"2.0"},"bufferViews":[{"buffer":0,"byteLength":1856,"byteOffset":0},{"buffer":0,"byteOffset":1856,"byteLength":94843},{"buffer":0,"byteOffset":96699,"byteLength":8547},{"buffer":0,"byteOffset":105246,"byteLength":50895}],"buffers":[{"byteLength":156141,"uri":"buffer.bin"}],"images":[{"name":"pm0118_00_BodyA1.tga","uri":"pm0118_00_BodyA1.tga.png"},{"name":"pm0118_00_BodyB1.tga","uri":"pm0118_00_BodyB1.tga.png"},{"name":"pm0118_00_Eye1","uri":"pm0118_00_Eye1.png"}],"materials":[{"name":"BodyA_mat_001","pbrMetallicRoughness":{"baseColorFactor":[0.6400000190734865,0.6400000190734865,0.6400000190734865,1],"baseColorTexture":{"index":0},"metallicFactor":0}},{"name":"BodyTosakinto_Fin_mat_001","pbrMetallicRoughness":{"baseColorFactor":[0.6400000190734865,0.6400000190734865,0.6400000190734865,1],"baseColorTexture":{"index":1},"metallicFactor":0}},{"name":"Eye_mat_001","pbrMetallicRoughness":{"baseColorFactor":[0.6400000190734865,0.6400000190734865,0.6400000190734865,1],"baseColorTexture":{"index":2},"metallicFactor":0}}],"meshes":[{"name":"mesh_0_BodyATattu","primitives":[{"material":1,"extensions":{"ALI_amc_mesh_compression":{"bufferView":1}}},{"material":2,"extensions":{"ALI_amc_mesh_compression":{"bufferView":2}}},{"material":0,"extensions":{"ALI_amc_mesh_compression":{"bufferView":3}}}]}],"nodes":[{"children":[3,4],"name":"Armature","rotation":[0.7071068286895752,0,0,0.7071067094802856]},{"name":"Camera","rotation":[0.483536034822464,0.33687159419059753,-0.20870360732078552,0.7804827094078064],"translation":[7.481131553649902,5.34366512298584,6.5076398849487305]},{"name":"Lamp","rotation":[0.16907575726509094,0.7558802962303162,-0.27217137813568115,0.570947527885437],"scale":[1,1,0.9999999403953552],"translation":[4.076245307922363,5.903861999511719,-1.0054539442062378]},{"mesh":0,"name":"vsn_mesh_0_BodyATattu","skin":0},{"children":[5,29,31,32],"name":"Armature_pm0118_00_tosakinto","rotation":[-0.7071068286895752,0,0,0.7071068286895752]},{"children":[6],"name":"Armature_Origin"},{"children":[7,17],"name":"Armature_Waist","translation":[2,8.668054580688477,0]},{"children":[8,9,12,15,16],"name":"Armature_Head"},{"name":"Armature_FeelerA","translation":[-1.9999964237213135,9.555974960327148,1.7868889570236206]},{"children":[10],"name":"Armature_LArm","translation":[5.873291492462158,3.7094545364379883,1.1613140106201172]},{"children":[11],"name":"Armature_LForeArm","translation":[5.6622185707092285,0.0038909912109375,-0.3055232763290405]},{"name":"Armature_LHand","translation":[3.992159843444824,0.0027399063110351562,0.8764872550964355]},{"children":[13],"name":"Armature_RArm","rotation":[0,3.552713678800501e-15,0,1],"translation":[-9.87328815460205,3.7094459533691406,1.1613221168518066]},{"children":[14],"name":"Armature_RForeArm","rotation":[0,-3.552713678800501e-15,0,1],"translation":[-5.6622114181518555,0.0038995742797851562,-0.3055233955383301]},{"name":"Armature_RHand","translation":[-3.9922008514404297,0.00279998779296875,0.8764971494674683]},{"name":"Armature_JawA","rotation":[0,2.9243988279834887e-20,0,1],"translation":[-1.9983434677124023,-1.0738930702209473,12.29179859161377]},{"name":"Armature_JawB","rotation":[0,2.8911090088547774e-20,0,1],"translation":[-1.998342514038086,-1.0769591331481934,12.301690101623535]},{"children":[18,19],"name":"Armature_Hips","rotation":[0,2.117582241918006e-22,0,1],"translation":[-2.000000238418579,9.5367431640625e-7,0]},{"name":"Armature_FeelerB","rotation":[0,-6.352747609278232e-22,0,1],"translation":[6.570020332219428e-7,7.011026382446289,-5.7533698081970215]},{"children":[20,23,26],"name":"Armature_Tail1","rotation":[0,5.788117071596055e-22,0,1],"translation":[-0.0000020073912310181186,2.2757225036621094,-9.505661010742188]},{"children":[21],"name":"Armature_Tail2","rotation":[0,-1.0121644306159712e-21,0,1],"translation":[-9.663397122494644e-7,3.049013137817383,-6.127349853515625]},{"children":[22],"name":"Armature_Tail3","rotation":[0,-3.572171700297168e-22,0,1],"translation":[-8.379599876207067e-7,3.5587148666381836,-6.228090286254883]},{"name":"Armature_Tail4","rotation":[0,5.127009223858582e-22,0,1],"translation":[-0.0000015898199308139738,3.6378097534179688,-8.702253341674805]},{"children":[24],"name":"Armature_LTail1","rotation":[0,-1.4901160305669237e-8,0,1],"translation":[6.313581466674805,2.774473190307617,-4.319458961486816]},{"children":[25],"name":"Armature_LTail2","rotation":[0,1.4901160305669237e-8,0,1],"translation":[7.813690662384033,-1.324300765991211,-3.501613140106201]},{"name":"Armature_LTail3","rotation":[0,2.9802322387695312e-8,0,1],"translation":[5.146659851074219,-3.6881189346313477,-2.8951568603515625]},{"children":[27],"name":"Armature_RTail1","rotation":[0,1.4901162970204496e-8,0,1],"translation":[-6.313588619232178,2.774515151977539,-4.319438934326172]},{"children":[28],"name":"Armature_RTail2","rotation":[0,-1.4901162970204496e-8,0,1],"translation":[-7.813708305358887,-1.324294090270996,-3.501678943634033]},{"name":"Armature_RTail3","translation":[-5.146607398986816,-3.6881723403930664,-2.8951187133789062]},{"children":[30],"name":"Armature_VriVis01"},{"name":"Armature_pm0118_01_HornSkin"},{"name":"Armature_pm0118_00_BodySkin"},{"name":"Armature_pm0118_00_IrisSkin"}],"samplers":[{}],"scene":0,"scenes":[{"name":"Scene","nodes":[0,2,1]}],"skins":[{"inverseBindMatrices":0,"joints":[4,5,6,7,8,9,10,11,12,13,14,15,16,17,18,19,20,21,22,23,24,25,26,27,28,29,30,31,32],"skeleton":0}],"textures":[{"sampler":0,"source":0},{"sampler":0,"source":1},{"sampler":0,"source":2}],"extensionsUsed":["ALI_amc_mesh_compression"],"extensionsRequired":["ALI_amc_mesh_compression"]}