{"accessors":[{"bufferView":0,"componentType":5126,"count":35,"max":[0.00000272340821538819,-1,0.000003619989911385346,0,0.7523248195648193,0.000003619991275627399,1.0000001192092896,0,1.0000001192092896,-5.897712873625949e-13,0.7523248195648193,0,44.53880310058594,65.93819427490234,53.14683532714844,1],"min":[-0.000003619990366132697,-1.000000238418579,-0.000003619989911385346,0,-1.000000238418579,0.000003619990366132697,-1.0000001192092896,0,-1.0000001192092896,-5.897714499929207e-13,-1.000000238418579,0,-125.43396759033203,-65.93881225585938,-8.569327354431152,1],"type":"MAT4","byteOffset":0}],"asset":{"generator":"Khronos Blender glTF 2.0 exporter","version":"2.0"},"bufferViews":[{"buffer":0,"byteLength":2240,"byteOffset":0},{"buffer":0,"byteOffset":2240,"byteLength":2935},{"buffer":0,"byteOffset":5175,"byteLength":5767},{"buffer":0,"byteOffset":10942,"byteLength":36051},{"buffer":0,"byteOffset":46993,"byteLength":68501},{"buffer":0,"byteOffset":115494,"byteLength":20103},{"buffer":0,"byteOffset":135597,"byteLength":2935},{"buffer":0,"byteOffset":138532,"byteLength":983}],"buffers":[{"byteLength":139515,"uri":"buffer.bin"}],"images":[{"name":"pm0040_00_Body1","uri":"pm0040_00_Body1.png"},{"name":"pm0040_00_Eye1","uri":"pm0040_00_Eye1.png"},{"name":"pm0040_00_Iris1","uri":"pm0040_00_Iris1.png"},{"name":"pm0040_00_Mouth1","uri":"pm0040_00_Mouth1.png"}],"materials":[{"alphaMode":"OPAQUE","name":"Body","pbrMetallicRoughness":{"baseColorFactor":[0.6400000190734865,0.6400000190734865,0.6400000190734865,1],"baseColorTexture":{"index":0},"metallicFactor":0}},{"alphaMode":"OPAQUE","name":"Body.001","pbrMetallicRoughness":{"baseColorFactor":[0.6400000190734865,0.6400000190734865,0.6400000190734865,1],"baseColorTexture":{"index":0},"metallicFactor":0}},{"alphaMode":"OPAQUE","name":"BodyVco","pbrMetallicRoughness":{"baseColorFactor":[0.6400000190734865,0.6400000190734865,0.6400000190734865,1],"baseColorTexture":{"index":0},"metallicFactor":0}},{"alphaMode":"OPAQUE","name":"Eye","pbrMetallicRoughness":{"baseColorFactor":[0.6400000190734865,0.6400000190734865,0.6400000190734865,1],"baseColorTexture":{"index":3},"metallicFactor":0}},{"alphaMode":"OPAQUE","name":"LIris","pbrMetallicRoughness":{"baseColorFactor":[0.6400000190734865,0.6400000190734865,0.6400000190734865,1],"baseColorTexture":{"index":4},"metallicFactor":0}},{"alphaMode":"OPAQUE","name":"Mouth","pbrMetallicRoughness":{"baseColorFactor":[0.6400000190734865,0.6400000190734865,0.6400000190734865,1],"baseColorTexture":{"index":5},"metallicFactor":0}},{"alphaMode":"OPAQUE","name":"RIris","pbrMetallicRoughness":{"baseColorFactor":[0.6400000190734865,0.6400000190734865,0.6400000190734865,1],"baseColorTexture":{"index":4},"metallicFactor":0}}],"meshes":[{"name":"Wigglytuff","primitives":[{"material":4,"extensions":{"ALI_amc_mesh_compression":{"bufferView":1}}},{"material":3,"extensions":{"ALI_amc_mesh_compression":{"bufferView":2}}},{"material":1,"extensions":{"ALI_amc_mesh_compression":{"bufferView":3}}},{"material":0,"extensions":{"ALI_amc_mesh_compression":{"bufferView":4}}},{"material":2,"extensions":{"ALI_amc_mesh_compression":{"bufferView":5}}},{"material":6,"extensions":{"ALI_amc_mesh_compression":{"bufferView":6}}},{"material":5,"extensions":{"ALI_amc_mesh_compression":{"bufferView":7}}}]}],"nodes":[{"children":[1,15,16],"name":"_01_pm0040_00","rotation":[0.7071068286895752,0,0,0.7071067094802856],"scale":[0.02539999783039093,0.02539999969303608,0.02539999969303608]},{"children":[2],"name":"_02_Origin"},{"children":[19,20,32],"name":"_03_Waist","rotation":[-5.024286464438499e-15,0.7071080803871155,0,0.7071055173873901],"scale":[1,0.9999999403953552,1],"translation":[0,-2.1349799633026123,-44.538795471191406]},{"name":"_05_EndHips","translation":[42.11259078979492,0,2.9103799231711136e-11]},{"name":"_08_EndLFoot","translation":[46.48080825805664,0,0]},{"name":"_10_EndLToe","translation":[21.24839973449707,4.768369876728684e-7,-0.0000019073499970545527]},{"name":"_13_EndRFoot","translation":[46.480709075927734,0.0000019073499970545527,-0.00004959110083291307]},{"name":"_15_EndRToe","translation":[21.24839973449707,2.3841900542720396e-7,0.00008201599848689511]},{"name":"_18_EndHead","translation":[43.12321090698242,4.768369876728684e-7,-2.9103799231711136e-11]},{"name":"_20_EndFeelerA1","translation":[27.5360107421875,-0.000007629389983776491,0.000007629389983776491]},{"name":"_22_EndFeelerA2","translation":[16.72760009765625,-0.0000019073499970545527,0.000003814699994109105]},{"name":"_26_EndLEar3","translation":[14.773590087890625,0.0000019073499970545527,0.000003814699994109105]},{"name":"_30_EndREar3","translation":[14.773819923400879,0.000045776399929309264,0.00015258800704032183]},{"name":"_34_EndLHand","translation":[7.9782490730285645,-0.0000028610199933609692,-0.000011444099982327316]},{"name":"_38_EndRHand","translation":[7.978279113769531,0.00001907350088004023,0.00003433230085647665]},{"name":"_39_pm0040_00_IrisSkin"},{"name":"_40_pm0040_00_Skin"},{"name":"Camera","rotation":[0.483536034822464,0.33687159419059753,-0.20870360732078552,0.7804827094078064],"translation":[7.481131553649902,5.34366512298584,6.5076398849487305]},{"name":"Lamp","rotation":[0.16907575726509094,0.7558802962303162,-0.27217137813568115,0.570947527885437],"scale":[1,1,0.9999999403953552],"translation":[4.076245307922363,5.903861999511719,-1.0054539442062378]},{"mesh":0,"name":"Wigglytuff","rotation":[0.49999913573265076,-0.5000008344650269,0.5000009536743164,0.4999990463256836],"scale":[1,1,1.0000001192092896],"skin":0,"translation":[-44.53879928588867,2.1349804401397705,-0.00016123001114465296]},{"children":[21,22,27],"name":"_03_Waist__04_Hips","rotation":[-0.5,0.5000000596046448,-0.5000000596046448,0.5],"scale":[1,0.9999999403953552,1],"translation":[-42.4038200378418,46.67378234863281,-0.0001585563295520842]},{"name":"_03_Waist__05_EndHips","translation":[42.11259841918945,-9.5367431640625e-7,0.0000036153214750811458]},{"children":[23],"name":"_03_Waist__06_LThigh","rotation":[0,-0.9938857555389404,0,0.11041364073753357],"translation":[-6.223310470581055,-9.953054428100586,1.997918725013733]},{"children":[24,25],"name":"_03_Waist__07_LFoot","rotation":[0,0.6246921420097351,0,0.7808712124824524],"scale":[0.9999999403953552,0.9999999403953552,0.9999999403953552],"translation":[-39.062294006347656,-5.758790969848633,-18.609481811523438]},{"name":"_03_Waist__08_EndLFoot","rotation":[0,-3.7971403799019754e-8,0,1],"translation":[-43.74717330932617,-15.705098152160645,0.0020324287470430136]},{"children":[26],"name":"_03_Waist__09_LToe","rotation":[0,-5.236888682702556e-7,0,1],"translation":[-24.764305114746094,-8.890259742736816,-5.506526947021484]},{"name":"_03_Waist__10_EndLToe","translation":[-19.998737335205078,-7.17949104309082,0.0009504419285804033]},{"children":[28],"name":"_03_Waist__11_RThigh","rotation":[0,-0.9938801527023315,0,0.11046439409255981],"translation":[-6.223199844360352,9.953125953674316,1.997998833656311]},{"children":[29,30],"name":"_03_Waist__12_RFoot","rotation":[0,0.6246792674064636,0,0.7808815836906433],"scale":[0.9999999403953552,0.9999998807907104,0.9999999403953552],"translation":[-39.060462951660156,5.758235931396484,-18.6135311126709]},{"name":"_03_Waist__13_EndRFoot","rotation":[0,4.01905708713457e-9,0,1],"translation":[-43.746986389160156,15.705373764038086,-0.0011679839808493853]},{"children":[31],"name":"_03_Waist__14_RToe","rotation":[0,-4.6397144615184516e-7,0,1],"translation":[-24.763896942138672,8.890317916870117,-5.508342742919922]},{"name":"_03_Waist__15_EndRToe","rotation":[0,9.094947017729282e-13,0,1],"translation":[-19.9986572265625,7.179723739624023,-0.000519489636644721]},{"children":[33,47,51],"name":"_03_Waist__16_Spine","rotation":[-0.5,-0.5000000596046448,0.5000000596046448,0.5],"scale":[1,0.9999999403953552,1],"translation":[-42.4038200378418,46.67378234863281,-0.0001585563295520842]},{"children":[34,35,39,43],"name":"_03_Waist__17_Head","translation":[18.55661964416504,0.00006851555372122675,9.633859008317813e-7]},{"name":"_03_Waist__18_EndHead","translation":[43.12321472167969,5.961919669061899e-8,-9.215896170644555e-7]},{"children":[36,37],"name":"_03_Waist__19_FeelerA1","rotation":[0,-0.4130420982837677,0,0.910711944103241],"translation":[26.79367446899414,0.00018772487237583846,24.11300277709961]},{"name":"_03_Waist__20_EndFeelerA1","translation":[25.70398712158203,9.651936531066895,2.0920867919921875]},{"children":[38],"name":"_03_Waist__21_FeelerA2","rotation":[0,0.15744692087173462,0,0.9875275492668152],"scale":[0.9999999403953552,1,0.9999999403953552],"translation":[12.54312515258789,4.709991455078125,1.0208930969238281]},{"name":"_03_Waist__22_EndFeelerA2","translation":[16.32711410522461,3.610653877258301,0.4484710693359375]},{"children":[40],"name":"_03_Waist__23_LEar1","rotation":[0,0.02655879408121109,0,0.9996472597122192],"translation":[27.47465705871582,-24.109878540039062,5.706031799316406]},{"children":[41],"name":"_03_Waist__24_LEar2","rotation":[0,-0.000004112720489501953,0,1],"translation":[12.855199813842773,-15.283950805664062,-5.092463970184326]},{"children":[42],"name":"_03_Waist__25_LEar3","rotation":[0,-5.960464477539063e-8,0,1],"translation":[13.111468315124512,-15.588794708251953,-5.1939592361450195]},{"name":"_03_Waist__26_EndLEar3","translation":[9.214580535888672,-10.955646514892578,-3.650270462036133]},{"children":[44],"name":"_03_Waist__27_REar1","rotation":[0,0.026559634134173393,0,0.999647319316864],"scale":[0.9999999403953552,1,0.9999999403953552],"translation":[27.4744815826416,24.11012840270996,5.7058563232421875]},{"children":[45],"name":"_03_Waist__28_REar2","translation":[12.855411529541016,15.284046173095703,-5.092561721801758]},{"children":[46],"name":"_03_Waist__29_REar3","translation":[13.111238479614258,15.58883285522461,-5.193974018096924]},{"name":"_03_Waist__30_EndREar3","translation":[9.214814186096191,10.955741882324219,-3.6503076553344727]},{"children":[48],"name":"_03_Waist__31_LArm","rotation":[0,-0.3568732738494873,0,0.9341527819633484],"translation":[10.69452953338623,-31.737184524536133,18.990812301635742]},{"children":[49],"name":"_03_Waist__32_LForeArm","translation":[4.192089080810547,-5.873863220214844,3.377838134765625]},{"children":[50],"name":"_03_Waist__33_LHand","translation":[3.9418678283691406,-5.523220062255859,3.176166534423828]},{"name":"_03_Waist__34_EndLHand","translation":[4.197658538818359,-5.881565093994141,3.3822059631347656]},{"children":[52],"name":"_03_Waist__35_RArm","rotation":[0,-0.35687047243118286,0,0.9341539740562439],"scale":[0.9999999403953552,1,0.9999999403953552],"translation":[10.694300651550293,31.737415313720703,18.990583419799805]},{"children":[53],"name":"_03_Waist__36_RForeArm","rotation":[0,1.1920928955078125e-7,0,1],"translation":[4.192008972167969,5.873819351196289,3.377871513366699]},{"children":[54],"name":"_03_Waist__37_RHand","rotation":[0,-0.0000036954884308215696,0,1],"scale":[0.9999999403953552,1,0.9999999403953552],"translation":[3.9417762756347656,5.523319244384766,3.1761322021484375]},{"name":"_03_Waist__38_EndRHand","translation":[4.197589874267578,5.881626129150391,3.3822689056396484]}],"samplers":[{}],"scene":0,"scenes":[{"name":"Scene","nodes":[14,13,12,11,10,9,8,7,6,5,4,3,0,18,17]}],"skins":[{"inverseBindMatrices":0,"joints":[20,21,22,23,24,25,26,27,28,29,30,31,32,33,34,35,36,37,38,39,40,41,42,43,44,45,46,47,48,49,50,51,52,53,54],"skeleton":2}],"textures":[{"sampler":0,"source":0},{"sampler":0,"source":0},{"sampler":0,"source":0},{"sampler":0,"source":1},{"sampler":0,"source":2},{"sampler":0,"source":3},{"sampler":0,"source":2}],"extensionsUsed":["ALI_amc_mesh_compression"],"extensionsRequired":["ALI_amc_mesh_compression"]}