{"accessors":[{"bufferView":0,"componentType":5126,"count":30,"max":[1,0,3.552713678800501e-15,0,7.105427357601002e-15,0,1,0,0,-1,0,0,11.566890716552734,0,13.472250938415527,1],"min":[1,0,-7.105427357601002e-15,0,-3.552713678800501e-15,0,1,0,0,-1,0,0,-11.566889762878418,-37.32592010498047,-8.723397254943848,1],"type":"MAT4","byteOffset":0}],"asset":{"generator":"Khronos Blender glTF 2.0 exporter","version":"2.0"},"bufferViews":[{"buffer":0,"byteLength":1920,"byteOffset":0},{"buffer":0,"byteOffset":1920,"byteLength":108899},{"buffer":0,"byteOffset":110819,"byteLength":5455}],"buffers":[{"byteLength":116274,"uri":"buffer.bin"}],"images":[{"name":"pm0116_00_Body1","uri":"pm0116_00_Body1.png"},{"name":"pm0116_00_Eye1","uri":"pm0116_00_Eye1.png"}],"materials":[{"name":"Body_mat","pbrMetallicRoughness":{"baseColorFactor":[0.6400000190734865,0.6400000190734865,0.6400000190734865,1],"baseColorTexture":{"index":0},"metallicFactor":0}},{"name":"Eye_mat","pbrMetallicRoughness":{"baseColorFactor":[0.6400000190734865,0.6400000190734865,0.6400000190734865,1],"baseColorTexture":{"index":1},"metallicFactor":0}}],"meshes":[{"name":"mesh_3_Body","primitives":[{"material":0,"extensions":{"ALI_amc_mesh_compression":{"bufferView":1}}},{"material":1,"extensions":{"ALI_amc_mesh_compression":{"bufferView":2}}}]}],"nodes":[{"children":[3,4],"name":"Armature","rotation":[0.7071068286895752,0,0,0.7071067094802856]},{"name":"Camera","rotation":[0.483536034822464,0.33687159419059753,-0.20870360732078552,0.7804827094078064],"translation":[7.481131553649902,5.34366512298584,6.5076398849487305]},{"name":"Lamp","rotation":[0.16907575726509094,0.7558802962303162,-0.27217137813568115,0.570947527885437],"scale":[1,1,0.9999999403953552],"translation":[4.076245307922363,5.903861999511719,-1.0054539442062378]},{"mesh":0,"name":"vsn_mesh_3_Body","skin":0},{"children":[5,33],"name":"Armature_pm0116_00","rotation":[-0.7071068286895752,0,0,0.7071068286895752]},{"children":[6],"name":"Armature_Origin"},{"children":[7,28],"name":"Armature_Waist","translation":[0,13.54055118560791,-4.150799751281738]},{"children":[8,25,27],"name":"Armature_Spine"},{"children":[9,11,13,15,17,19,21,23,24],"name":"Armature_Head","translation":[0.000003247439963161014,10.344918251037598,1.5895817279815674]},{"children":[10],"name":"Armature_Nose1","rotation":[0,4.677834096345145e-22,0,1],"translation":[0.0000018471500879968517,5.884218215942383,10.56121826171875]},{"name":"Armature_Nose2","translation":[-7.623296525288703e-21,0,0]},{"children":[12],"name":"Armature_LHairA1","rotation":[0,1.7763568394002505e-15,0,1],"translation":[6.836636066436768,11.705495834350586,0.79442298412323]},{"name":"Armature_LHairA2","translation":[2.646482467651367,1.734954833984375,-1.6318851709365845]},{"children":[14],"name":"Armature_RHairA1","translation":[-6.836630344390869,11.705541610717773,0.79442298412323]},{"name":"Armature_RHairA2","translation":[-2.646479606628418,1.7348899841308594,-1.631893277168274]},{"children":[16],"name":"Armature_LHairB1","rotation":[0,1.7763568394002505e-15,0,1],"translation":[7.713717937469482,8.463998794555664,0.8824050426483154]},{"name":"Armature_LHairB2","rotation":[0,-1.7763568394002505e-15,0,1],"translation":[3.853168487548828,0.33712005615234375,-1.9067659378051758]},{"children":[18],"name":"Armature_RHairB1","rotation":[0,-1.7763568394002505e-15,0,1],"translation":[-7.713705539703369,8.464029312133789,0.8824101686477661]},{"name":"Armature_RHairB2","rotation":[0,3.552713678800501e-15,0,1],"translation":[-3.8531885147094727,0.3371009826660156,-1.9067691564559937]},{"children":[20],"name":"Armature_LHairC1","translation":[7.2909417152404785,4.995349884033203,0.7944291830062866]},{"name":"Armature_LHairC2","rotation":[0,-3.552713678800501e-15,0,1],"translation":[2.764815330505371,-1.507467269897461,-1.578607201576233]},{"children":[22],"name":"Armature_RHairC1","translation":[-7.290926456451416,4.995330810546875,0.7944310903549194]},{"name":"Armature_RHairC2","translation":[-2.764866828918457,-1.5073966979980469,-1.5786100625991821]},{"name":"Armature_LFeeler","translation":[4.040950298309326,3.114522933959961,7.92524528503418]},{"name":"Armature_RFeeler","rotation":[0,-1.2175506752508673e-15,0,1],"translation":[-4.040948390960693,3.114542007446289,7.9252471923828125]},{"children":[26],"name":"Armature_FeelerA1","rotation":[0,1.6940658945086007e-21,0,1],"translation":[0.000002442719960527029,7.781458854675293,-2.3812828063964844]},{"name":"Armature_FeelerA2","rotation":[0,-1.6940658945086007e-21,0,1],"translation":[5.105803211336024e-7,1.6264686584472656,-6.940168380737305]},{"name":"Armature_FeelerB","translation":[0,-0.13706111907958984,4.150799751281738]},{"children":[29],"name":"Armature_Hips","translation":[0,0.0000095367431640625,-0.0000019073486328125]},{"children":[30],"name":"Armature_Tail1","translation":[0.009541628882288933,-5.452985763549805,1.2679150104522705]},{"children":[31],"name":"Armature_Tail2","rotation":[0,1.3877787807814457e-17,0,1],"translation":[-2.3655593395233154e-7,-3.9060721397399902,3.3045787811279297]},{"children":[32],"name":"Armature_Tail3","rotation":[0,-9.301667494854723e-18,0,1],"translation":[5.960464477539063e-8,-1.9552888870239258,3.9516408443450928]},{"name":"Armature_Tail4","rotation":[0,-6.185225659572401e-18,0,1],"translation":[5.373731255531311e-7,1.0286014080047607,4.350064277648926]},{"name":"Armature_pm0116_00_Skin"}],"samplers":[{}],"scene":0,"scenes":[{"name":"Scene","nodes":[0,2,1]}],"skins":[{"inverseBindMatrices":0,"joints":[4,5,6,7,8,9,10,11,12,13,14,15,16,17,18,19,20,21,22,23,24,25,26,27,28,29,30,31,32,33],"skeleton":0}],"textures":[{"sampler":0,"source":0},{"sampler":0,"source":1}],"extensionsUsed":["ALI_amc_mesh_compression"],"extensionsRequired":["ALI_amc_mesh_compression"]}