<svg xmlns="http://www.w3.org/2000/svg" width="1600" height="1000" viewBox="0 0 1600 1000" role="img" aria-labelledby="title desc"><title id="title">场景布局｜二十位居民，小而密的生活空间</title><desc id="desc">六处热点 + 自由小道 · 按常见活动区列出居民，分组不代表固定站位。 拟议设计，非当前实机 · 空间示意，不是渲染截图；动线表示关注与行为传递</desc><defs><marker id="ink-arrow" markerWidth="11" markerHeight="11" refX="9" refY="5" orient="auto" markerUnits="userSpaceOnUse"><path d="M1 1 L9 5 L1 9" fill="none" stroke="#203F35" stroke-width="2.5" stroke-linecap="round" stroke-linejoin="round"/></marker><marker id="muted-arrow" markerWidth="11" markerHeight="11" refX="9" refY="5" orient="auto" markerUnits="userSpaceOnUse"><path d="M1 1 L9 5 L1 9" fill="none" stroke="#60756A" stroke-width="2.5" stroke-linecap="round" stroke-linejoin="round"/></marker><marker id="green-arrow" markerWidth="11" markerHeight="11" refX="9" refY="5" orient="auto" markerUnits="userSpaceOnUse"><path d="M1 1 L9 5 L1 9" fill="none" stroke="#5E9466" stroke-width="2.5" stroke-linecap="round" stroke-linejoin="round"/></marker><marker id="fire-arrow" markerWidth="11" markerHeight="11" refX="9" refY="5" orient="auto" markerUnits="userSpaceOnUse"><path d="M1 1 L9 5 L1 9" fill="none" stroke="#D97C39" stroke-width="2.5" stroke-linecap="round" stroke-linejoin="round"/></marker><marker id="water-arrow" markerWidth="11" markerHeight="11" refX="9" refY="5" orient="auto" markerUnits="userSpaceOnUse"><path d="M1 1 L9 5 L1 9" fill="none" stroke="#548FA6" stroke-width="2.5" stroke-linecap="round" stroke-linejoin="round"/></marker><marker id="purple-arrow" markerWidth="11" markerHeight="11" refX="9" refY="5" orient="auto" markerUnits="userSpaceOnUse"><path d="M1 1 L9 5 L1 9" fill="none" stroke="#937EAC" stroke-width="2.5" stroke-linecap="round" stroke-linejoin="round"/></marker></defs><rect width="1600" height="1000" fill="#FBF8EF"/><g font-family="PingFang SC, Microsoft YaHei, Noto Sans CJK SC, sans-serif"><text x="72" y="78" font-size="42" fill="#203F35" font-weight="500" text-anchor="start">场景布局｜二十位居民，小而密的生活空间</text><text x="74" y="123" font-size="23" fill="#60756A" font-weight="400" text-anchor="start">六处热点 + 自由小道 · 按常见活动区列出居民，分组不代表固定站位。</text><path d="M124 427 C129 294 281 224 501 213 C673 165 839 218 980 229 C1216 222 1396 325 1470 491 C1521 650 1372 826 1157 873 C946 914 783 873 669 864 C454 907 270 859 196 753 C109 653 84 537 124 427" fill="#EAF0DF" stroke="#BAC8B6" stroke-width="2" stroke-linecap="round" stroke-linejoin="round" opacity="1"/><ellipse cx="341" cy="343" rx="170" ry="105" fill="#DDE8D4"/><ellipse cx="354" cy="698" rx="145" ry="85" fill="#E4EAD0"/><path d="M403 355 C475 429 619 440 806 444 C914 481 1008 446 1091 492 C1116 571 1072 653 1154 749" fill="none" stroke="#E7DFCB" stroke-width="44" stroke-linecap="round" stroke-linejoin="round" opacity="1"/><path d="M801 464 C650 566 504 531 424 650" fill="none" stroke="#E7DFCB" stroke-width="40" stroke-linecap="round" stroke-linejoin="round" opacity="1"/><path d="M1176 234 C1121 319 1219 391 1176 470 C1132 558 1195 598 1290 662 C1354 705 1338 789 1232 865" fill="none" stroke="#DFEFF0" stroke-width="94" stroke-linecap="round" stroke-linejoin="round" opacity="1"/><path d="M1176 234 C1121 319 1219 391 1176 470 C1132 558 1195 598 1290 662 C1354 705 1338 789 1232 865" fill="none" stroke="#548FA6" stroke-width="2" stroke-linecap="round" stroke-linejoin="round" opacity="0.48"/><path d="M1187 280 C1170 303 1179 326 1192 340" fill="none" stroke="#548FA6" stroke-width="2" stroke-linecap="round" stroke-linejoin="round" opacity="1"/><path d="M1292 698 C1322 718 1329 740 1314 762" fill="none" stroke="#548FA6" stroke-width="2" stroke-linecap="round" stroke-linejoin="round" opacity="1"/><rect x="328" y="317" width="27" height="88" rx="7" fill="#A9AE83" stroke="none" stroke-width="0"/><circle cx="300" cy="302" r="54" fill="#AEC8A2" stroke="none" stroke-width="2"/><circle cx="379" cy="300" r="55" fill="#B8CFA9" stroke="none" stroke-width="2"/><circle cx="340" cy="261" r="64" fill="#A7C19C" stroke="none" stroke-width="2"/><ellipse cx="503" cy="365" rx="60" ry="31" fill="#D7E3CE"/><text x="460" y="412" font-size="20" fill="#60756A">树荫睡眠</text><circle cx="283" cy="289" r="7" fill="#D97C39"/><circle cx="326" cy="268" r="7" fill="#D97C39"/><circle cx="374" cy="295" r="7" fill="#D97C39"/><circle cx="348" cy="326" r="7" fill="#D97C39"/><circle cx="412" cy="396" r="6" fill="#D97C39"/><circle cx="437" cy="381" r="6" fill="#D97C39"/><circle cx="555" cy="322" r="23" fill="none" stroke="#D97C39" stroke-width="2" stroke-dasharray="5 5"/><circle cx="555" cy="322" r="7" fill="#D97C39"/><text x="511" y="286" font-size="21" fill="#D97C39">投果落点</text><text x="154" y="247" font-size="27" fill="#203F35" font-weight="500" text-anchor="start">果树 / 树荫 / 树洞</text><text x="162" y="437" font-size="24" fill="#203F35" font-weight="500" text-anchor="start">卡比兽 · 伊布 · 喵喵</text><text x="162" y="475" font-size="22" fill="#203F35" font-weight="400" text-anchor="start">鬼斯（树洞旁） · 波波（树枝）</text><circle cx="807" cy="445" r="66" fill="#F7E6CE" stroke="none" stroke-width="2"/><path d="M775 474 L839 450 M776 450 L839 474" fill="none" stroke="#9F8864" stroke-width="11" stroke-linecap="round" stroke-linejoin="round" opacity="1"/><path d="M802 474 C770 450 789 426 803 407 C797 438 822 426 820 406 C847 440 841 467 818 476 Z" fill="#D97C39" stroke="#D97C39" stroke-width="1" stroke-linecap="round" stroke-linejoin="round" opacity="1"/><text x="778" y="552" font-size="28" fill="#203F35" font-weight="500" text-anchor="start">篝火</text><text x="652" y="590" font-size="24" fill="#203F35" font-weight="500" text-anchor="start">小火龙 · 皮皮 · 胖丁</text><circle cx="272" cy="661" r="14" fill="#EAC879" stroke="none" stroke-width="2"/><circle cx="272" cy="661" r="5" fill="#5E9466" stroke="none" stroke-width="2"/><circle cx="310" cy="639" r="14" fill="#D5ADBF" stroke="none" stroke-width="2"/><circle cx="310" cy="639" r="5" fill="#5E9466" stroke="none" stroke-width="2"/><circle cx="362" cy="651" r="14" fill="#F0D990" stroke="none" stroke-width="2"/><circle cx="362" cy="651" r="5" fill="#5E9466" stroke="none" stroke-width="2"/><circle cx="396" cy="687" r="14" fill="#DBC0CC" stroke="none" stroke-width="2"/><circle cx="396" cy="687" r="5" fill="#5E9466" stroke="none" stroke-width="2"/><circle cx="326" cy="708" r="14" fill="#E8C47A" stroke="none" stroke-width="2"/><circle cx="326" cy="708" r="5" fill="#5E9466" stroke="none" stroke-width="2"/><circle cx="262" cy="714" r="14" fill="#E0BECC" stroke="none" stroke-width="2"/><circle cx="262" cy="714" r="5" fill="#5E9466" stroke="none" stroke-width="2"/><text x="304" y="774" font-size="28" fill="#203F35" font-weight="500" text-anchor="start">花丛</text><text x="219" y="812" font-size="24" fill="#203F35" font-weight="500" text-anchor="start">妙蛙种子 · 皮卡丘</text><text x="231" y="849" font-size="24" fill="#203F35" font-weight="500" text-anchor="start">走路草 · 巴大蝶</text><g transform="rotate(-12 1171 484)"><rect x="1075" y="444" width="191" height="82" rx="5" fill="#D9C8A9" stroke="#A49372" stroke-width="2"/><path d="M1090 449 V521" fill="none" stroke="#A49372" stroke-width="2" stroke-linecap="round" stroke-linejoin="round" opacity="1"/><path d="M1114 449 V521" fill="none" stroke="#A49372" stroke-width="2" stroke-linecap="round" stroke-linejoin="round" opacity="1"/><path d="M1138 449 V521" fill="none" stroke="#A49372" stroke-width="2" stroke-linecap="round" stroke-linejoin="round" opacity="1"/><path d="M1162 449 V521" fill="none" stroke="#A49372" stroke-width="2" stroke-linecap="round" stroke-linejoin="round" opacity="1"/><path d="M1186 449 V521" fill="none" stroke="#A49372" stroke-width="2" stroke-linecap="round" stroke-linejoin="round" opacity="1"/><path d="M1210 449 V521" fill="none" stroke="#A49372" stroke-width="2" stroke-linecap="round" stroke-linejoin="round" opacity="1"/><path d="M1234 449 V521" fill="none" stroke="#A49372" stroke-width="2" stroke-linecap="round" stroke-linejoin="round" opacity="1"/><path d="M1075 444 H1266" fill="none" stroke="#8F856A" stroke-width="5" stroke-linecap="round" stroke-linejoin="round" opacity="1"/><path d="M1075 526 H1266" fill="none" stroke="#8F856A" stroke-width="5" stroke-linecap="round" stroke-linejoin="round" opacity="1"/></g><text x="1096" y="424" font-size="27" fill="#203F35" font-weight="500" text-anchor="start">桥</text><text x="1265" y="285" font-size="27" fill="#548FA6" font-weight="500" text-anchor="start">溪流 · 水中</text><text x="1244" y="329" font-size="24" fill="#203F35" font-weight="400" text-anchor="start">蚊香蝌蚪</text><text x="1237" y="367" font-size="24" fill="#203F35" font-weight="400" text-anchor="start">角金鱼 · 鲤鱼王</text><text x="1289" y="467" font-size="27" fill="#203F35" font-weight="500" text-anchor="start">岸边</text><text x="1275" y="509" font-size="24" fill="#203F35" font-weight="500" text-anchor="start">杰尼龟 · 可达鸭</text><text x="1281" y="547" font-size="24" fill="#203F35" font-weight="400" text-anchor="start">呆呆兽</text><ellipse cx="1114" cy="742" rx="76" ry="43" fill="#D1CAB1" stroke="#B8B298" stroke-width="2"/><text x="1011" y="831" font-size="27" fill="#203F35" font-weight="500" text-anchor="start">暖石</text><text x="1090" y="832" font-size="24" fill="#203F35" font-weight="400" text-anchor="start">六尾 · 卡蒂狗</text><path d="M1142 588 C1058 636 972 564 875 476" fill="none" stroke="#D97C39" stroke-width="4" stroke-linecap="round" stroke-linejoin="round" opacity="1" marker-end="url(#fire-arrow)"/><text x="937" y="647" font-size="22" fill="#D97C39" font-weight="500" text-anchor="start">火光聚集</text><ellipse cx="1171" cy="650" rx="48" ry="30" fill="#DDEAD5"/><circle cx="1148" cy="648" r="10" fill="#D5ADBF"/><circle cx="1148" cy="648" r="4" fill="#5E9466"/><circle cx="1173" cy="635" r="10" fill="#EAC879"/><circle cx="1173" cy="635" r="4" fill="#5E9466"/><circle cx="1185" cy="659" r="10" fill="#D5ADBF"/><circle cx="1185" cy="659" r="4" fill="#5E9466"/><text x="1093" y="696" font-size="21" fill="#60756A">湿润小花丛</text><path d="M1278 635 C1252 627 1228 650 1204 650" fill="none" stroke="#548FA6" stroke-width="4" stroke-linecap="round" stroke-linejoin="round" opacity="1" stroke-dasharray="12 10" marker-end="url(#water-arrow)"/><text x="1295" y="703" font-size="21" fill="#548FA6" font-weight="500" text-anchor="start">短程浇花</text><path d="M1147 652 C930 740 685 606 429 646" fill="none" stroke="#5E9466" stroke-width="4" stroke-linecap="round" stroke-linejoin="round" opacity="1" stroke-dasharray="2 11" marker-end="url(#green-arrow)"/><text x="611" y="709" font-size="22" fill="#5E9466" font-weight="500" text-anchor="start">巴大蝶移动 / 关注</text><text x="652" y="379" font-size="21" fill="#60756A" font-weight="400" text-anchor="start">自由小道</text><text x="74" y="169" font-size="22" fill="#60756A" font-weight="400" text-anchor="start">20 位居民 · 同时最多 2 处主戏 · 气泡常态最多 2 个，关键时刻最多 3 个</text><path d="M105 907 H165" fill="none" stroke="#D97C39" stroke-width="4" stroke-linecap="round" stroke-linejoin="round" opacity="1" marker-end="url(#fire-arrow)"/><text x="180" y="915" font-size="20" fill="#203F35" font-weight="400" text-anchor="start">火光聚集</text><path d="M525 907 H585" fill="none" stroke="#548FA6" stroke-width="4" stroke-linecap="round" stroke-linejoin="round" opacity="1" stroke-dasharray="12 10" marker-end="url(#water-arrow)"/><text x="600" y="915" font-size="20" fill="#203F35" font-weight="400" text-anchor="start">水到花（短程）</text><path d="M970 907 H1030" fill="none" stroke="#5E9466" stroke-width="4" stroke-linecap="round" stroke-linejoin="round" opacity="1" stroke-dasharray="2 11" marker-end="url(#green-arrow)"/><text x="1045" y="915" font-size="20" fill="#203F35" font-weight="400" text-anchor="start">蝶花关注</text><path d="M72 932 H1528" fill="none" stroke="#BAC8B6" stroke-width="1" stroke-linecap="round" stroke-linejoin="round" opacity="1"/><text x="74" y="972" font-size="19" fill="#60756A" font-weight="400" text-anchor="start">拟议设计，非当前实机 · 空间示意，不是渲染截图；动线表示关注与行为传递</text><text x="1526" y="972" font-size="17" fill="#60756A" font-weight="400" text-anchor="end">scene / layout</text></g></svg>