{"accessors":[{"bufferView":0,"componentType":5126,"count":29,"max":[1.0000001192092896,0,0.9881092309951782,0,0.9791615605354309,0,1.0000001192092896,0,0,-1,0,0,18.78988265991211,0,4.295838356018066,1],"min":[-1,0,-0.9791615605354309,0,-0.9881092309951782,0,-1,0,0,-1,0,0,-23.719200134277344,-35.21836853027344,-4.322704792022705,1],"type":"MAT4","byteOffset":0},{"bufferView":1,"componentType":5126,"count":29,"max":[1.0000001192092896,0,0.9881092309951782,0,0.9791615605354309,0,1.0000001192092896,0,0,-1,0,0,18.78988265991211,0,4.295838356018066,1],"min":[-1,0,-0.9791615605354309,0,-0.9881092309951782,0,-1,0,0,-1,0,0,-23.719200134277344,-35.21836853027344,-4.322704792022705,1],"type":"MAT4","byteOffset":0},{"bufferView":2,"componentType":5126,"count":29,"max":[1.0000001192092896,0,0.9881092309951782,0,0.9791615605354309,0,1.0000001192092896,0,0,-1,0,0,18.78988265991211,0,4.295838356018066,1],"min":[-1,0,-0.9791615605354309,0,-0.9881092309951782,0,-1,0,0,-1,0,0,-23.719200134277344,-35.21836853027344,-4.322704792022705,1],"type":"MAT4","byteOffset":0}],"asset":{"generator":"Khronos Blender glTF 2.0 exporter","version":"2.0"},"bufferViews":[{"buffer":0,"byteLength":1856,"byteOffset":0},{"buffer":0,"byteLength":1856,"byteOffset":1856},{"buffer":0,"byteLength":1856,"byteOffset":3712},{"buffer":0,"byteOffset":5568,"byteLength":97525},{"buffer":0,"byteOffset":103093,"byteLength":1431},{"buffer":0,"byteOffset":104524,"byteLength":687}],"buffers":[{"byteLength":105211,"uri":"buffer.bin"}],"images":[{"name":"pm0132_00_Body1","uri":"pm0132_00_Body1.png"},{"name":"pm0132_00_Eye1","uri":"pm0132_00_Eye1.png"},{"name":"pm0132_00_Mouth1","uri":"pm0132_00_Mouth1.png"}],"materials":[{"name":"BodySpc","pbrMetallicRoughness":{"baseColorFactor":[0.6400000190734865,0.6400000190734865,0.6400000190734865,1],"baseColorTexture":{"index":0},"metallicFactor":0}},{"name":"Eye","pbrMetallicRoughness":{"baseColorFactor":[0.6400000190734865,0.6400000190734865,0.6400000190734865,1],"baseColorTexture":{"index":1},"metallicFactor":0}},{"name":"Mouth","pbrMetallicRoughness":{"baseColorFactor":[0.6400000190734865,0.6400000190734865,0.6400000190734865,1],"baseColorTexture":{"index":2},"metallicFactor":0}}],"meshes":[{"name":"mesh_0_pm0132_00_Skin.001","primitives":[{"material":0,"extensions":{"ALI_amc_mesh_compression":{"bufferView":3}}}]},{"name":"mesh_2_pm0132_00_Skin.001","primitives":[{"material":2,"extensions":{"ALI_amc_mesh_compression":{"bufferView":4}}}]},{"name":"mesh_1_pm0132_00_Skin.001","primitives":[{"material":1,"extensions":{"ALI_amc_mesh_compression":{"bufferView":5}}}]}],"nodes":[{"children":[3,4,5,6],"name":"Armature","rotation":[0.7071068286895752,0,0,0.7071067094802856]},{"name":"Camera","rotation":[0.483536034822464,0.33687159419059753,-0.20870360732078552,0.7804827094078064],"translation":[7.481131553649902,5.34366512298584,6.5076398849487305]},{"name":"Lamp","rotation":[0.16907575726509094,0.7558802962303162,-0.27217137813568115,0.570947527885437],"scale":[1,1,0.9999999403953552],"translation":[4.076245307922363,5.903861999511719,-1.0054539442062378]},{"mesh":0,"name":"mesh_0_pm0132_00_Skin","skin":0},{"mesh":2,"name":"mesh_1_pm0132_00_Skin","skin":1},{"mesh":1,"name":"mesh_2_pm0132_00_Skin","skin":2},{"children":[7,34],"name":"Armature_pm0132_00","rotation":[-0.7071068286895752,0,0,0.7071068286895752]},{"children":[8],"name":"Armature_Origin"},{"children":[9,11,13,15,17,19,21],"name":"Armature_Waist","rotation":[0,1.1972034030804934e-8,0,1],"translation":[8.829294717224712e-13,0,2.117680072784424]},{"children":[10],"name":"Armature_LFootA","rotation":[0,-0.6312353014945984,0,0.7755913734436035],"translation":[5.693090915679932,3.349574327468872,7.401308536529541]},{"name":"Armature_EndLFootA","rotation":[0,-1.4901162970204496e-8,0,1],"scale":[0.9999999403953552,1,0.9999999403953552],"translation":[7.681803226470947,-0.0000057220458984375,0.0000026226043701171875]},{"children":[12],"name":"Armature_LFootB","rotation":[0,-2.0596790051286007e-8,0,1],"translation":[16.808401107788086,3.349623203277588,-1.0149998664855957]},{"name":"Armature_EndLFootB","rotation":[0,8.624756020481072e-9,0,1],"translation":[6.910799026489258,0.000020265579223632812,-7.667724730708869e-7]},{"children":[14],"name":"Armature_LFootC","rotation":[0,0.6504791378974915,0,0.7595241069793701],"translation":[6.162075042724609,3.3495893478393555,-13.604223251342773]},{"name":"Armature_EndLFootC","rotation":[0,4.4703490686970326e-8,0,1],"scale":[0.9999999403953552,1,0.9999999403953552],"translation":[6.361298084259033,0.0000021457672119140625,4.76837158203125e-7]},{"children":[16],"name":"Armature_RFootA","rotation":[0,-0.7755911350250244,0,0.631235659122467],"translation":[-5.665933132171631,3.349534273147583,7.401331424713135]},{"name":"Armature_EndRFootA","rotation":[0,-1.341104507446289e-7,0,1],"translation":[7.681794166564941,-0.00001621246337890625,0.000007867813110351562]},{"children":[18],"name":"Armature_RFootB","rotation":[0,1,0,-0.0000035325672342878534],"translation":[-16.781225204467773,3.34950590133667,-1.0150012969970703]},{"name":"Armature_EndRFootB","rotation":[0,-1.1972133506787941e-8,0,1],"translation":[6.910797119140625,-0.00004887580871582031,0.0000477916473755613]},{"children":[20],"name":"Armature_RFootC","rotation":[0,0.7595245838165283,0,0.650478720664978],"scale":[0.9999999403953552,1,0.9999999403953552],"translation":[-6.1348981857299805,3.3495519161224365,-13.604208946228027]},{"name":"Armature_EndRFootC","rotation":[0,3.725290298461914e-8,0,1],"translation":[6.361294746398926,-0.0000040531158447265625,0.000008106231689453125]},{"children":[22],"name":"Armature_Spine","rotation":[0,-1.197133503438863e-8,0,1],"translation":[-0.000035250704968348145,11.632898330688477,-9.53675112214114e-7]},{"children":[23,24,26,28,31],"name":"Armature_HeadA","rotation":[0,0.00832880474627018,0,0.9999653100967407],"scale":[0.9999999403953552,1,0.9999999403953552],"translation":[-0.000023768952814862132,7.881391525268555,0.0000057220458984375]},{"name":"Armature_EndHeadA","rotation":[0,3.594905138015747e-7,0,1],"translation":[0.004060543142259121,14.795343399047852,-0.24644631147384644]},{"children":[25],"name":"Armature_HeadB","rotation":[0,-0.00832880288362503,0,0.9999653100967407],"scale":[0.9999999403953552,1,0.9999999403953552],"translation":[5.069961071014404,9.810733795166016,0.19036181271076202]},{"name":"Armature_EndHeadB","rotation":[0,-2.0292021396528526e-9,0,1],"translation":[1.361299991607666,3.4302539825439453,-0.000008082264685072005]},{"children":[27],"name":"Armature_HeadC","rotation":[0,-0.008328855969011784,0,0.9999653100967407],"scale":[0.9999999403953552,1,0.9999999403953552],"translation":[-4.480311870574951,11.344196319580078,-0.18053990602493286]},{"name":"Armature_EndHeadC","rotation":[0,5.354312548888629e-8,0,1],"translation":[-0.644336462020874,4.359884262084961,-0.000006856178515590727]},{"children":[29],"name":"Armature_LArm","rotation":[0,-0.008328811265528202,0,0.9999653100967407],"scale":[0.9999999403953552,1,0.9999999403953552],"translation":[13.427998542785645,1.166646957397461,0.011896505951881409]},{"children":[30],"name":"Armature_LHand","rotation":[0,-6.108627559342494e-8,0,1],"translation":[3.720661163330078,2.054706573486328,0.0000032334987736248877]},{"name":"Armature_EndLHand","rotation":[0,1.218556633375556e-7,0,1],"translation":[4.22129487991333,3.3925247192382812,-6.242441941139987e-7]},{"children":[32],"name":"Armature_RArm","rotation":[0,-0.0083287563174963,0,0.9999653100967407],"scale":[0.9999999403953552,1,0.9999999403953552],"translation":[-12.776293754577637,3.4006290435791016,-0.31874334812164307]},{"children":[33],"name":"Armature_RHand","rotation":[0,-5.149025028572396e-8,0,1],"translation":[-3.738994836807251,5.89857292175293,-0.0000013615601801575394]},{"name":"Armature_EndRHand","rotation":[0,4.671172337822327e-9,0,1],"translation":[-2.2710018157958984,5.740837097167969,-0.00000966011248237919]},{"name":"Armature_pm0132_00_Skin"}],"samplers":[{}],"scene":0,"scenes":[{"name":"Scene","nodes":[0,2,1]}],"skins":[{"inverseBindMatrices":0,"joints":[6,7,8,9,10,11,12,13,14,15,16,17,18,19,20,21,22,23,24,25,26,27,28,29,30,31,32,33,34],"skeleton":0},{"inverseBindMatrices":1,"joints":[6,7,8,9,10,11,12,13,14,15,16,17,18,19,20,21,22,23,24,25,26,27,28,29,30,31,32,33,34],"skeleton":0},{"inverseBindMatrices":2,"joints":[6,7,8,9,10,11,12,13,14,15,16,17,18,19,20,21,22,23,24,25,26,27,28,29,30,31,32,33,34],"skeleton":0}],"textures":[{"sampler":0,"source":0},{"sampler":0,"source":1},{"sampler":0,"source":2}],"extensionsUsed":["ALI_amc_mesh_compression"],"extensionsRequired":["ALI_amc_mesh_compression"]}