{"accessors":[{"bufferView":0,"componentType":5126,"count":49,"max":[0.9998317956924438,1.7797616180814657e-7,1.0000001192092896,0,1,0.0000030650708140456118,0.9998315572738647,0,0.000001608989691703755,-0.9999998807907104,5.041585495746403e-7,0,79.98011779785156,20.342208862304688,86.42489624023438,1],"min":[-1.000000238418579,-9.614117857381643e-8,-1.000000238418579,0,-0.9999998807907104,-0.0000016102445670185261,-1,0,-0.0000030623584734712495,-1.0000001192092896,-1.296221796565078e-7,0,-183.45567321777344,-73.85028076171875,-146.15736389160156,1],"type":"MAT4","byteOffset":0}],"asset":{"generator":"Khronos Blender glTF 2.0 exporter","version":"2.0"},"bufferViews":[{"buffer":0,"byteLength":3136,"byteOffset":0},{"buffer":0,"byteOffset":3136,"byteLength":34127},{"buffer":0,"byteOffset":37263,"byteLength":168387},{"buffer":0,"byteOffset":205650,"byteLength":8967}],"buffers":[{"byteLength":214617,"uri":"buffer.bin"}],"images":[{"name":"pm0049_00_BodyA1","uri":"pm0049_00_BodyA1.png"},{"name":"pm0049_00_BodyB1","uri":"pm0049_00_BodyB1.png"},{"name":"pm0049_00_BodyC1","uri":"pm0049_00_BodyC1.png"}],"materials":[{"alphaMode":"OPAQUE","name":"BodyA02","pbrMetallicRoughness":{"baseColorFactor":[0.6400000190734865,0.6400000190734865,0.6400000190734865,1],"baseColorTexture":{"index":0},"metallicFactor":0}},{"alphaMode":"OPAQUE","name":"BodyBKurumiruVco","pbrMetallicRoughness":{"baseColorFactor":[0.6400000190734865,0.6400000190734865,0.6400000190734865,1],"baseColorTexture":{"index":1},"metallicFactor":0}},{"alphaMode":"OPAQUE","name":"BodyCNon","pbrMetallicRoughness":{"baseColorFactor":[0.6400000190734865,0.6400000190734865,0.6400000190734865,1],"baseColorTexture":{"index":2},"metallicFactor":0}}],"meshes":[{"name":"Venomoth","primitives":[{"material":1,"extensions":{"ALI_amc_mesh_compression":{"bufferView":1}}},{"material":0,"extensions":{"ALI_amc_mesh_compression":{"bufferView":2}}},{"material":2,"extensions":{"ALI_amc_mesh_compression":{"bufferView":3}}}]}],"nodes":[{"children":[1,20,21,22,23,24],"name":"_01_pm0049_00","rotation":[0.7071068286895752,0,0,0.7071067094802856],"scale":[0.02539999783039093,0.02539999969303608,0.02539999969303608]},{"children":[28,29],"name":"_02_Origin"},{"name":"_08_EndTail3","translation":[14.25529956817627,0,-3.63798010813432e-12]},{"name":"_11_EndHead","translation":[38.06911087036133,0,-4.365570058229018e-11]},{"name":"_13_EndLFeelerD","translation":[13.521100044250488,0,0]},{"name":"_15_EndRFeelerD","translation":[13.521100044250488,0,0]},{"children":[7],"name":"_16_RootJaw"},{"name":"_17_EndRootJaw","translation":[38.06911087036133,0,4.365570058229018e-11]},{"name":"_19_EndLFeelerC","translation":[9.595237731933594,-0.0000019073499970545527,-3.576280107608909e-7]},{"name":"_21_EndRFeelerC","translation":[9.595252990722656,0.000003814699994109105,9.536739753457368e-7]},{"name":"_24_EndLForeArm","translation":[10.350600242614746,0.0000019073499970545527,0.00001525879997643642]},{"name":"_27_EndLForeArm2","translation":[11.009599685668945,0.0000019073499970545527,0]},{"name":"_30_EndLForeArm3","translation":[10.312000274658203,0.0000019073499970545527,0.000003814699994109105]},{"name":"_33_EndLFeelerA2","translation":[58.499610900878906,0.000011444099982327316,-0.000007629389983776491]},{"name":"_36_EndLFeelerB2","translation":[93.35565948486328,0.000013351400411920622,-0.000011444099982327316]},{"name":"_39_EndRForeArm","translation":[10.35060977935791,0,0.00001525879997643642]},{"name":"_42_EndRForeArm2","translation":[11.009599685668945,0,-0.00001525879997643642]},{"name":"_45_EndRForeArm3","translation":[10.312000274658203,0.0000019073499970545527,0]},{"name":"_48_EndRFeelerA2","translation":[58.49958038330078,-0.00004768370126839727,-0.00002670290086825844]},{"name":"_51_EndRFeelerB2","translation":[93.35598754882812,0.00024604800273664296,-0.0002632139949128032]},{"name":"_52_pm0049_00_BodyASkin"},{"name":"_53_pm0049_00_BodyBSkin"},{"name":"_54_pm0049_00_EyeASkin"},{"name":"_55_pm0049_00_EyeBSkin"},{"name":"_56_pm0049_00_HghtLightSkin"},{"name":"Camera","rotation":[0.483536034822464,0.33687159419059753,-0.20870360732078552,0.7804827094078064],"translation":[7.481131553649902,5.34366512298584,6.5076398849487305]},{"name":"EnvironmentAmbientLight","scale":[0.02539999969303608,0.02539999969303608,0.02539999969303608]},{"name":"Lamp","rotation":[0.16907575726509094,0.7558802962303162,-0.27217137813568115,0.570947527885437],"scale":[1,1,0.9999999403953552],"translation":[4.076245307922363,5.903861999511719,-1.0054539442062378]},{"mesh":0,"name":"Venomoth","rotation":[5.960464477539063e-8,0,0,1],"scale":[1.0000001192092896,1,1],"skin":0},{"children":[30,35],"name":"_02_Origin__03_Waist","rotation":[-0.48410630226135254,-0.5154038667678833,0.5154038667678833,0.48410630226135254],"scale":[0.9999999403953552,0.9999999403953552,0.9999999403953552],"translation":[2.196900716899819e-10,52.299190521240234,1.915749430656433]},{"children":[31],"name":"_02_Origin__04_Hips","rotation":[0,-0.9984194040298462,0,0.05620141327381134],"translation":[-1.5702994460298214e-12,-9.5367431640625e-7,2.3839358220811846e-7]},{"children":[32],"name":"_02_Origin__05_Tail1","rotation":[-5.36580069265824e-9,-0.04540356621146202,0.0000015921322074063937,0.9989687204360962],"translation":[13.364645957946777,0.6677273511886597,0.6668970584869385]},{"children":[33],"name":"_02_Origin__06_Tail2","rotation":[-9.628444530562774e-8,-1.862648257855426e-9,-0.0000023356742531177588,1],"translation":[14.238520622253418,0.584251344203949,-0.5838114023208618]},{"children":[34],"name":"_02_Origin__07_Tail3","rotation":[1.5780058149061915e-8,0.020488794893026352,7.45907811960933e-7,0.9997900724411011],"translation":[13.095786094665527,0.5374422073364258,-0.5369566679000854]},{"name":"_02_Origin__08_EndTail3","rotation":[-1.6818573200794162e-9,-4.960458710456805e-10,-9.002858424737292e-18,1],"translation":[14.25529956817627,9.506737796982634e-7,6.695327670058759e-7]},{"children":[36,48,51,54,57,60,63,66,69,72,75],"name":"_02_Origin__09_Spine","rotation":[0,-1.862645149230957e-9,0,1],"translation":[3.2791547255328624e-11,-9.5367431640625e-7,2.389416806636291e-7]},{"children":[37,38,40,42],"name":"_02_Origin__10_Head","rotation":[0,0.031297456473112106,0,0.9995101690292358],"scale":[0.9999999403953552,1,0.9999999403953552],"translation":[26.750017166137695,-1.6800729036331177,-1.676784634590149]},{"name":"_02_Origin__11_EndHead","rotation":[0,4.960476474025199e-10,0,1],"translation":[38.069129943847656,-0.0000011920928955078125,-0.0000017017705431499053]},{"children":[39],"name":"_02_Origin__12_LFeelerD","rotation":[0,-0.7071068286895752,0,0.7071067094802856],"translation":[7.323188304901123,-3.225283145904541,-14.942869186401367]},{"name":"_02_Origin__13_EndLFeelerD","rotation":[0,2.8314175892774074e-8,0,1],"translation":[0.0000020832721929764375,-13.521102905273438,0.000033620057365624234]},{"children":[41],"name":"_02_Origin__14_RFeelerD","rotation":[0,-0.7071068286895752,0,0.7071067094802856],"translation":[7.3231282234191895,-3.2252840995788574,14.9429292678833]},{"name":"_02_Origin__15_EndRFeelerD","rotation":[0,2.8314175892774074e-8,0,1],"translation":[0.0000011296069715172052,-13.521101951599121,0.000012156256161688361]},{"children":[43,44,46],"name":"_02_Origin__16_RootJaw","rotation":[0,4.960476474025199e-10,0,1],"translation":[0.000007629399078723509,-0.0000011920928955078125,1.5006662579253316e-11]},{"name":"_02_Origin__17_EndRootJaw","rotation":[0,-1.7763568394002505e-15,0,1],"translation":[38.069129943847656,-2.384185791015625e-7,-0.0000016640842659398913]},{"children":[45],"name":"_02_Origin__18_LFeelerC","rotation":[0,0.9992684125900269,0,0.038244836032390594],"translation":[0.7610929608345032,-13.78490924835205,-4.591670513153076]},{"name":"_02_Origin__19_EndLFeelerC","rotation":[2.0188675620147478e-8,-3.725290298461914e-9,1.4908562206983333e-7,1],"translation":[9.558538436889648,-0.6882343292236328,-0.47873830795288086]},{"children":[47],"name":"_02_Origin__20_RFeelerC","rotation":[0,0.999268651008606,0,0.03823920339345932],"translation":[0.7610704302787781,-13.785000801086426,4.591671943664551]},{"name":"_02_Origin__21_EndRFeelerC","rotation":[8.330807052504222e-15,5.587936158235607e-8,-1.4908556522641447e-7,1],"scale":[0.9999999403953552,1,0.9999999403953552],"translation":[9.519845962524414,-0.6882419586181641,-0.9836294651031494]},{"children":[49],"name":"_02_Origin__22_LArm","rotation":[0,-0.1316266506910324,0,0.9912993907928467],"translation":[14.468050956726074,-0.9215925931930542,-17.936771392822266]},{"children":[50],"name":"_02_Origin__23_LForeArm","rotation":[0,-0.3253464102745056,0,0.9455949068069458],"translation":[1.2124686241149902,-11.155595779418945,3.5792436599731445]},{"name":"_02_Origin__24_EndLForeArm","rotation":[0,1.4901161193847656e-8,0,1],"translation":[7.228522777557373,-5.684642791748047,4.750592231750488]},{"children":[52],"name":"_02_Origin__25_LArm2","rotation":[0,-0.12936320900917053,0,0.9915972948074341],"translation":[10.591024398803711,-0.4582098722457886,-17.693744659423828]},{"children":[53],"name":"_02_Origin__26_LForeArm2","rotation":[0,-0.3042255938053131,0,0.9526000618934631],"translation":[0.4746403694152832,-11.052242279052734,3.5039501190185547]},{"name":"_02_Origin__27_EndLForeArm2","rotation":[0,1.4901161193847656e-8,0,1],"translation":[6.786466598510742,-6.63148307800293,5.583788871765137]},{"children":[55],"name":"_02_Origin__28_LArm3","rotation":[0,-0.12569476664066315,0,0.9920690655708313],"translation":[6.492551326751709,0.29673004150390625,-17.43683433532715]},{"children":[56],"name":"_02_Origin__29_LForeArm3","rotation":[0,-0.3506159782409668,0,0.9365193843841553],"translation":[0.45772314071655273,-12.120617866516113,3.757380485534668]},{"name":"_02_Origin__30_EndLForeArm3","translation":[7.277183532714844,-5.43879508972168,4.878474235534668]},{"children":[58],"name":"_02_Origin__31_LFeelerA1","rotation":[0,0.9953089952468872,0,0.096747025847435],"scale":[0.9999998807907104,1,0.9999998807907104],"translation":[10.386943817138672,12.864130020141602,-9.000833511352539]},{"children":[59],"name":"_02_Origin__32_LFeelerA2","rotation":[-4.969519551423218e-8,0,-3.7025811239823356e-16,1],"translation":[23.396984100341797,10.018193244934082,6.16286563873291]},{"name":"_02_Origin__33_EndLFeelerA2","rotation":[9.93904194501738e-8,0,8.88178631458362e-16,1],"translation":[52.26676940917969,22.37969970703125,13.767256736755371]},{"children":[61],"name":"_02_Origin__34_LFeelerB1","rotation":[0,0.7225788831710815,0,0.6912884712219238],"translation":[13.995351791381836,13.175092697143555,-7.607076168060303]},{"children":[62],"name":"_02_Origin__35_LFeelerB2","rotation":[0,9.12696123123169e-8,0,1],"translation":[36.52395248413086,22.16043472290039,28.16440773010254]},{"name":"_02_Origin__36_EndLFeelerB2","rotation":[0,-9.313225746154785e-10,0,1],"translation":[66.6357192993164,40.43035888671875,51.384368896484375]},{"children":[64],"name":"_02_Origin__37_RArm","rotation":[0,0.9912991523742676,0,0.1316283494234085],"scale":[1.0000001192092896,1,1.0000001192092896],"translation":[16.59457778930664,-0.9215906858444214,15.98965835571289]},{"children":[65],"name":"_02_Origin__38_RForeArm","rotation":[0,-0.32534629106521606,0,0.9455950260162354],"scale":[0.9999999403953552,1,0.9999999403953552],"translation":[1.2125086784362793,-11.155694961547852,3.579280376434326]},{"name":"_02_Origin__39_EndRForeArm","translation":[7.228546619415283,-5.68464469909668,4.750576496124268]},{"children":[67],"name":"_02_Origin__40_RArm2","rotation":[0,0.9936580657958984,0,0.1124439612030983],"scale":[0.9999999403953552,1,0.9999999403953552],"translation":[12.717658042907715,-0.45820796489715576,16.232669830322266]},{"children":[68],"name":"_02_Origin__41_RForeArm2","rotation":[0,-0.30422553420066833,0,0.9526000618934631],"translation":[1.618380069732666,-11.052248001098633,3.143864393234253]},{"name":"_02_Origin__42_EndRForeArm2","scale":[1,0.9999999403953552,1],"translation":[7.220461845397949,-6.631487846374512,5.009947299957275]},{"children":[70],"name":"_02_Origin__43_RArm3","rotation":[0,0.9940425753593445,0,0.10899242013692856],"translation":[8.619142532348633,0.29673004150390625,16.489574432373047]},{"children":[71],"name":"_02_Origin__44_RForeArm3","rotation":[0,-0.3506157100200653,0,0.9365194439888],"scale":[0.9999999403953552,1.0000001192092896,0.9999999403953552],"translation":[1.7292447090148926,-12.120625495910645,3.367063522338867]},{"name":"_02_Origin__45_EndRForeArm3","translation":[7.592440128326416,-5.438800811767578,4.371687889099121]},{"children":[73],"name":"_02_Origin__46_RFeelerA1","rotation":[0,-0.8339207172393799,0,0.5518844723701477],"scale":[0.9999999403953552,1,0.9999999403953552],"translation":[11.429741859436035,12.864130020141602,7.633288383483887]},{"children":[74],"name":"_02_Origin__47_RFeelerA2","rotation":[1.987808389003476e-7,-7.450579886381092e-8,-1.777238939511521e-14,1],"scale":[1.0000001192092896,1,1.0000001192092896],"translation":[20.068445205688477,10.01821231842041,13.5152587890625]},{"name":"_02_Origin__48_EndRFeelerA2","rotation":[-1.987808389003476e-7,-1.4901159417490817e-8,-1.6821394588530233e-15,1],"scale":[1.0000001192092896,1.0000001192092896,1.0000001192092896],"translation":[44.83087158203125,22.379756927490234,30.1917667388916]},{"children":[76],"name":"_02_Origin__49_RFeelerB1","rotation":[0,-0.26229819655418396,0,0.9649868607521057],"translation":[14.835747718811035,13.17509651184082,5.799846172332764]},{"children":[77],"name":"_02_Origin__50_RFeelerB2","rotation":[0,4.470348358154297e-8,0,1],"translation":[44.03252029418945,22.16053009033203,13.725044250488281]},{"name":"_02_Origin__51_EndRFeelerB2","rotation":[0,-1.4901161193847656e-8,0,1],"scale":[1,0.9999999403953552,1],"translation":[80.33474731445312,40.43040466308594,25.040987014770508]}],"samplers":[{}],"scene":0,"scenes":[{"name":"Scene","nodes":[19,18,17,16,15,14,13,12,11,10,9,8,6,5,4,3,2,0,26,27,25]}],"skins":[{"inverseBindMatrices":0,"joints":[29,30,31,32,33,34,35,36,37,38,39,40,41,42,43,44,45,46,47,48,49,50,51,52,53,54,55,56,57,58,59,60,61,62,63,64,65,66,67,68,69,70,71,72,73,74,75,76,77],"skeleton":1}],"textures":[{"sampler":0,"source":0},{"sampler":0,"source":1},{"sampler":0,"source":2}],"extensionsUsed":["ALI_amc_mesh_compression"],"extensionsRequired":["ALI_amc_mesh_compression"]}