{"accessors":[{"bufferView":0,"componentType":5126,"count":45,"max":[1,0,2.2737367544323206e-13,0,2.3283064365386963e-10,0,1,0,0,-1,0,0,52.796791076660156,0,71.15543365478516,1],"min":[1,0,-2.3283064365386963e-10,0,-2.2737367544323206e-13,0,1,0,0,-1,0,0,-52.79684829711914,-91.51300048828125,-55.71228790283203,1],"type":"MAT4","byteOffset":0}],"asset":{"generator":"Khronos Blender glTF 2.0 exporter","version":"2.0"},"bufferViews":[{"buffer":0,"byteLength":2880,"byteOffset":0},{"buffer":0,"byteOffset":2880,"byteLength":1139},{"buffer":0,"byteOffset":4019,"byteLength":134849},{"buffer":0,"byteOffset":138868,"byteLength":971}],"buffers":[{"byteLength":139839,"uri":"buffer.bin"}],"images":[{"name":"pm0113_00_Body1","uri":"pm0113_00_Body1.png"},{"name":"pm0113_00_Eye1","uri":"pm0113_00_Eye1.png"},{"name":"pm0113_00_Mouth1","uri":"pm0113_00_Mouth1.png"}],"materials":[{"name":"Body_mat","pbrMetallicRoughness":{"baseColorFactor":[0.6400000190734865,0.6400000190734865,0.6400000190734865,1],"baseColorTexture":{"index":0},"metallicFactor":0}},{"name":"Eye_mat","pbrMetallicRoughness":{"baseColorFactor":[0.6400000190734865,0.6400000190734865,0.6400000190734865,1],"baseColorTexture":{"index":1},"metallicFactor":0}},{"name":"Mouth_mat","pbrMetallicRoughness":{"baseColorFactor":[0.6400000190734865,0.6400000190734865,0.6400000190734865,1],"baseColorTexture":{"index":2},"metallicFactor":0}}],"meshes":[{"name":"mesh_0_Body","primitives":[{"material":1,"extensions":{"ALI_amc_mesh_compression":{"bufferView":1}}},{"material":0,"extensions":{"ALI_amc_mesh_compression":{"bufferView":2}}},{"material":2,"extensions":{"ALI_amc_mesh_compression":{"bufferView":3}}}]}],"nodes":[{"children":[3,4],"name":"Armature","rotation":[0.7071068286895752,0,0,0.7071067094802856]},{"name":"Camera","rotation":[0.483536034822464,0.33687159419059753,-0.20870360732078552,0.7804827094078064],"translation":[7.481131553649902,5.34366512298584,6.5076398849487305]},{"name":"Lamp","rotation":[0.16907575726509094,0.7558802962303162,-0.27217137813568115,0.570947527885437],"scale":[1,1,0.9999999403953552],"translation":[4.076245307922363,5.903861999511719,-1.0054539442062378]},{"mesh":0,"name":"vsn_mesh_0_Body","skin":0},{"children":[5,48],"name":"Armature_pm0113_00","rotation":[-0.7071068286895752,0,0,0.7071068286895752]},{"children":[6],"name":"Armature_Origin"},{"children":[7,35],"name":"Armature_Waist","translation":[0,53.42572021484375,4.3120012283325195]},{"children":[8,27,31],"name":"Armature_Spine"},{"children":[9,12,15,18,21,24],"name":"Armature_Head","rotation":[0,-5.871907478811479e-22,0,1],"translation":[0.000006062360171199543,19.312026977539062,-0.000007152557373046875]},{"children":[10],"name":"Armature_LHairA1","rotation":[0,5.871907478811479e-22,0,1],"translation":[28.44818687438965,16.172134399414062,13.955516815185547]},{"children":[11],"name":"Armature_LHairA2","rotation":[0,-3.4490802564951214e-15,0,1],"translation":[8.94338607788086,-10.177238464355469,2.255046844482422]},{"name":"Armature_LHairA3","rotation":[0,3.4490802564951214e-15,0,1],"translation":[8.904281616210938,-9.362838745117188,2.0026512145996094]},{"children":[13],"name":"Armature_RHairA1","rotation":[0,5.871907478811479e-22,0,1],"translation":[-28.44818687438965,16.172164916992188,13.955499649047852]},{"children":[14],"name":"Armature_RHairA2","translation":[-8.943408966064453,-10.177299499511719,2.2551040649414062]},{"name":"Armature_RHairA3","rotation":[0,7.1054265105680546e-15,0,1],"translation":[-8.904304504394531,-9.362770080566406,2.0025711059570312]},{"children":[16],"name":"Armature_LHairB1","rotation":[0,5.871907478811479e-22,0,1],"translation":[28.347532272338867,17.750755310058594,10.421524047851562]},{"children":[17],"name":"Armature_LHairB2","rotation":[0,-7.389303673609703e-18,0,1],"translation":[11.670021057128906,-7.38555908203125,-0.6302690505981445]},{"name":"Armature_LHairB3","rotation":[0,7.389303673609703e-18,0,1],"translation":[10.437850952148438,-6.766716003417969,-0.5900592803955078]},{"children":[19],"name":"Armature_RHairB1","rotation":[0,1.776357474674961e-15,0,1],"translation":[-28.347505569458008,17.75079345703125,10.421516418457031]},{"children":[20],"name":"Armature_RHairB2","rotation":[0,-5.329070518200751e-15,0,1],"translation":[-11.67007064819336,-7.385528564453125,-0.6302099227905273]},{"name":"Armature_RHairB3","rotation":[0,3.552713678800501e-15,0,1],"translation":[-10.437801361083984,-6.7667999267578125,-0.5901193618774414]},{"children":[22],"name":"Armature_LHairC1","rotation":[0,5.871907478811479e-22,0,1],"translation":[28.31434440612793,18.77521514892578,6.163325786590576]},{"children":[23],"name":"Armature_LHairC2","translation":[12.95969009399414,-3.8843307495117188,-2.784688949584961]},{"name":"Armature_LHairC3","translation":[11.522808074951172,-3.4538803100585938,-2.475994110107422]},{"children":[25],"name":"Armature_RHairC1","rotation":[0,5.871907478811479e-22,0,1],"translation":[-28.31435775756836,18.775253295898438,6.163376331329346]},{"children":[26],"name":"Armature_RHairC2","rotation":[0,-3.5601031942323474e-15,0,1],"translation":[-12.95964241027832,-3.8843612670898438,-2.7846903800964355]},{"name":"Armature_RHairC3","rotation":[0,7.389515431846516e-18,0,1],"translation":[-11.522796630859375,-3.4538116455078125,-2.4760122299194336]},{"children":[28],"name":"Armature_LShoulder","translation":[17.680999755859375,7.671363830566406,19.084789276123047]},{"children":[29],"name":"Armature_LArm","translation":[6.6217803955078125,0.6358680725097656,15.781997680664062]},{"children":[30],"name":"Armature_LForeArm","translation":[3.8735179901123047,0.3467521667480469,8.721614837646484]},{"name":"Armature_LHand","translation":[3.4694900512695312,0.3106422424316406,7.811885833740234]},{"children":[32],"name":"Armature_RShoulder","translation":[-17.68099021911621,7.671413421630859,19.084796905517578]},{"children":[33],"name":"Armature_RArm","translation":[-6.621797561645508,0.6357879638671875,15.78200912475586]},{"children":[34],"name":"Armature_RForeArm","translation":[-3.8734893798828125,0.3467864990234375,8.721595764160156]},{"name":"Armature_RHand","translation":[-3.4694995880126953,0.3106575012207031,7.811882019042969]},{"children":[36,39,42,46],"name":"Armature_Hips","translation":[0,-0.000003814697265625,0]},{"children":[37],"name":"Armature_LThigh","rotation":[0,-3.694651836804851e-18,0,1],"translation":[10.919200897216797,-3.1452713012695312,-3.607271194458008]},{"children":[38],"name":"Armature_LFoot","rotation":[0,3.694651836804851e-18,0,1],"translation":[14.44257926940918,-46.584022521972656,-10.775751113891602]},{"name":"Armature_LToe","translation":[10.239377975463867,-0.46045804023742676,19.782867431640625]},{"children":[40],"name":"Armature_RThigh","translation":[-10.91919994354248,-3.145214080810547,-3.607269763946533]},{"children":[41],"name":"Armature_RFoot","translation":[-14.44265079498291,-46.584041595458984,-10.775751113891602]},{"name":"Armature_RToe","translation":[-10.2393798828125,-0.46044063568115234,19.782852172851562]},{"children":[43],"name":"Armature_Tail1","rotation":[0,-2.842170943040401e-14,0,1],"translation":[-0.000023918197257444263,-37.38623046875,-38.3886604309082]},{"children":[44],"name":"Armature_Tail2","rotation":[0,2.8421706042272218e-14,0,1],"translation":[-4.5589951014335384e-7,-0.27301979064941406,-10.969223022460938]},{"children":[45],"name":"Armature_Tail3","rotation":[0,3.3881317890172014e-21,0,1],"translation":[0.0006281770765781403,-0.14596080780029297,-13.091651916503906]},{"name":"Armature_Tail4","rotation":[0,1.1368683772161603e-13,0,1],"translation":[-0.00042017799569293857,-0.10911846160888672,-13.017898559570312]},{"children":[47],"name":"Armature_FeelerA1","rotation":[0,-1.1641532182693481e-10,0,1],"translation":[0.10130008310079575,-31.167478561401367,38.87284851074219]},{"name":"Armature_FeelerA2","rotation":[0,1.1641532182693481e-10,0,1],"translation":[0.000004414849172462709,14.36613655090332,6.447364807128906]},{"name":"Armature_pm0113_00_Skin"}],"samplers":[{}],"scene":0,"scenes":[{"name":"Scene","nodes":[0,2,1]}],"skins":[{"inverseBindMatrices":0,"joints":[4,5,6,7,8,9,10,11,12,13,14,15,16,17,18,19,20,21,22,23,24,25,26,27,28,29,30,31,32,33,34,35,36,37,38,39,40,41,42,43,44,45,46,47,48],"skeleton":0}],"textures":[{"sampler":0,"source":0},{"sampler":0,"source":1},{"sampler":0,"source":2}],"extensionsUsed":["ALI_amc_mesh_compression"],"extensionsRequired":["ALI_amc_mesh_compression"]}