{"accessors":[{"bufferView":0,"componentType":5126,"count":89,"max":[1,0,5.684342563707159e-14,0,2.9802322387695312e-8,0,1,0,0,-1,0,0,109.46900177001953,0,51.46583938598633,1],"min":[1,0,-2.9802322387695312e-8,0,-5.684342563707159e-14,0,1,0,0,-1,0,0,-109.4686050415039,-115.85432434082031,-47.8524284362793,1],"type":"MAT4","byteOffset":0}],"asset":{"generator":"Khronos Blender glTF 2.0 exporter","version":"2.0"},"bufferViews":[{"buffer":0,"byteLength":5696,"byteOffset":0},{"buffer":0,"byteOffset":5696,"byteLength":203813},{"buffer":0,"byteOffset":209509,"byteLength":2287}],"buffers":[{"byteLength":211796,"uri":"buffer.bin"}],"images":[{"name":"pm0124_00_Body1","uri":"pm0124_00_Body1.png"},{"name":"pm0124_00_Eye1","uri":"pm0124_00_Eye1.png"}],"materials":[{"name":"Body01_mat","pbrMetallicRoughness":{"baseColorFactor":[0.6400000190734865,0.6400000190734865,0.6400000190734865,1],"baseColorTexture":{"index":0},"metallicFactor":0}},{"name":"Eye_mat","pbrMetallicRoughness":{"baseColorFactor":[0.6400000190734865,0.6400000190734865,0.6400000190734865,1],"baseColorTexture":{"index":1},"metallicFactor":0}}],"meshes":[{"name":"mesh_3_Body01","primitives":[{"material":0,"extensions":{"ALI_amc_mesh_compression":{"bufferView":1}}},{"material":1,"extensions":{"ALI_amc_mesh_compression":{"bufferView":2}}}]}],"nodes":[{"children":[3,4],"name":"Armature","rotation":[0.7071068286895752,0,0,0.7071067094802856]},{"name":"Camera","rotation":[0.483536034822464,0.33687159419059753,-0.20870360732078552,0.7804827094078064],"translation":[7.481131553649902,5.34366512298584,6.5076398849487305]},{"name":"Lamp","rotation":[0.16907575726509094,0.7558802962303162,-0.27217137813568115,0.570947527885437],"scale":[1,1,0.9999999403953552],"translation":[4.076245307922363,5.903861999511719,-1.0054539442062378]},{"mesh":0,"name":"vsn_mesh_3_Body01","skin":0},{"children":[5,92],"name":"Armature_pm0124_00","rotation":[-0.7071068286895752,0,0,0.7071068286895752]},{"children":[6],"name":"Armature_Origin"},{"children":[7,67],"name":"Armature_Waist","translation":[0,52.693321228027344,0]},{"children":[8,41,54],"name":"Armature_Spine"},{"children":[9,14,17,20,23,26,29,32,35,38],"name":"Armature_Head","translation":[0.0000070763398980489,22.54212188720703,0]},{"children":[10,11,12,13],"name":"Armature_RootJaw"},{"name":"Armature_UpperJaw","rotation":[0,1.6940658945086007e-21,0,1],"translation":[0.000008045159120229073,25.62834930419922,30.54545783996582]},{"name":"Armature_LowerJaw","translation":[0.000003554459908627905,11.323104858398438,31.6099910736084]},{"name":"Armature_LFeeler","rotation":[0,-5.554046915914467e-16,0,1],"translation":[5.187801837921143,18.589202880859375,31.314115524291992]},{"name":"Armature_RFeeler","translation":[-5.187794208526611,18.589157104492188,31.314102172851562]},{"children":[15],"name":"Armature_Hair1","translation":[0.000012750957466778345,40.618873596191406,-35.07636642456055]},{"children":[16],"name":"Armature_Hair2","translation":[-0.000009253197276848368,-29.476478576660156,-9.76324462890625]},{"name":"Armature_Hair3","rotation":[0,4.235165241142481e-22,0,1],"translation":[-0.000005986430096527329,-19.070213317871094,-2.284130096435547]},{"children":[18],"name":"Armature_LHairA1","translation":[23.536664962768555,40.61888122558594,21.216632843017578]},{"children":[19],"name":"Armature_LHairA2","rotation":[0,-1.7763566276420137e-15,0,1],"translation":[6.83184814453125,-29.147003173828125,3.3917484283447266]},{"name":"Armature_LHairA3","rotation":[0,1.7763566276420137e-15,0,1],"translation":[-0.6045627593994141,-18.71709442138672,1.1932296752929688]},{"children":[21],"name":"Armature_RHairA1","rotation":[0,-1.7763566276420137e-15,0,1],"translation":[-23.536678314208984,40.618553161621094,21.21659278869629]},{"children":[22],"name":"Armature_RHairA2","rotation":[0,5.329069671167804e-15,0,1],"translation":[-6.831830978393555,-29.146568298339844,3.3918075561523438]},{"name":"Armature_RHairA3","rotation":[0,-3.5527130435257905e-15,0,1],"translation":[0.6044979095458984,-18.717140197753906,1.1932010650634766]},{"children":[24],"name":"Armature_LHairB1","rotation":[0,1.7763568394002505e-15,0,1],"translation":[30.593032836914062,40.618858337402344,7.666835784912109]},{"children":[25],"name":"Armature_LHairB2","rotation":[0,-1.7763568394002505e-15,0,1],"translation":[9.364788055419922,-29.28826904296875,2.032900810241699]},{"name":"Armature_LHairB3","translation":[-0.6560783386230469,-17.31085205078125,1.3950023651123047]},{"children":[27],"name":"Armature_RHairB1","translation":[-30.592987060546875,40.618553161621094,7.666789531707764]},{"children":[28],"name":"Armature_RHairB2","translation":[-9.364791870117188,-29.28791046142578,2.032958507537842]},{"name":"Armature_RHairB3","translation":[0.6559982299804688,-17.310867309570312,1.394942283630371]},{"children":[30],"name":"Armature_LHairC1","rotation":[0,1.7763568394002505e-15,0,1],"translation":[32.74508285522461,40.618865966796875,-12.214879989624023]},{"children":[31],"name":"Armature_LHairC2","rotation":[0,-1.7763568394002505e-15,0,1],"translation":[7.3010101318359375,-27.267974853515625,-3.6954689025878906]},{"name":"Armature_LHairC3","translation":[2.998149871826172,-19.79711151123047,-1.1571712493896484]},{"children":[33],"name":"Armature_RHairC1","translation":[-32.745086669921875,40.618553161621094,-12.21483039855957]},{"children":[34],"name":"Armature_RHairC2","translation":[-7.301002502441406,-27.26764678955078,-3.695540428161621]},{"name":"Armature_RHairC3","translation":[-2.998119354248047,-19.79712677001953,-1.1571130752563477]},{"children":[36],"name":"Armature_LHairD1","rotation":[0,-1.1620394181404911e-15,0,1],"translation":[18.428783416748047,40.618858337402344,-28.62078285217285]},{"children":[37],"name":"Armature_LHairD2","rotation":[0,2.9383964692989784e-15,0,1],"translation":[7.98759651184082,-27.634521484375,-7.87803840637207]},{"name":"Armature_LHairD3","rotation":[0,-1.7763570511584873e-15,0,1],"translation":[1.444112777709961,-19.16962432861328,-1.7093238830566406]},{"children":[39],"name":"Armature_RHairD1","translation":[-18.428796768188477,40.618560791015625,-28.620803833007812]},{"children":[40],"name":"Armature_RHairD2","rotation":[0,7.105427357601002e-15,0,1],"translation":[-7.987621307373047,-27.63416290283203,-7.87799072265625]},{"name":"Armature_RHairD3","rotation":[0,-7.105427357601002e-15,0,1],"translation":[-1.4440994262695312,-19.16960906982422,-1.7092781066894531]},{"children":[42],"name":"Armature_LArm","rotation":[0,-3.552713678800501e-15,0,1],"translation":[30.731590270996094,17.306678771972656,0]},{"children":[43],"name":"Armature_LForeArm","rotation":[0,3.552713678800501e-15,0,1],"translation":[24.522090911865234,0.0909271240234375,-0.000005999999757477781]},{"children":[44,46,48,50,52],"name":"Armature_LHand","translation":[27.477130889892578,0.1096343994140625,0.000005999999757477781]},{"children":[45],"name":"Armature_LFingerA1","translation":[7.706390380859375,7.446746826171875,9.99999429041054e-7]},{"name":"Armature_LFingerA2","translation":[1.414276123046875,4.973350524902344,0]},{"children":[47],"name":"Armature_LFingerB1","translation":[17.08275604248047,5.755897521972656,-1.2509911060333252]},{"name":"Armature_LFingerB2","translation":[8.711532592773438,2.7083816528320312,0.0000021457672119140625]},{"children":[49],"name":"Armature_LFingerC1","translation":[17.399688720703125,0.9669265747070312,-1.2509909868240356]},{"name":"Armature_LFingerC2","translation":[9.338104248046875,0.30133819580078125,0.0000019073486328125]},{"children":[51],"name":"Armature_LFingerD1","translation":[17.117774963378906,-3.7107696533203125,-1.2509909868240356]},{"name":"Armature_LFingerD2","translation":[8.825607299804688,-2.630481719970703,0.0000020265579223632812]},{"children":[53],"name":"Armature_LFingerE1","translation":[15.920127868652344,-7.756160736083984,-1.2509909868240356]},{"name":"Armature_LFingerE2","translation":[6.584266662597656,-3.9652099609375,9.5367431640625e-7]},{"children":[55],"name":"Armature_RArm","translation":[-30.731599807739258,17.30670166015625,0]},{"children":[56],"name":"Armature_RForeArm","translation":[-24.522096633911133,0.09088134765625,-0.00000599999930273043]},{"children":[57,59,61,63,65],"name":"Armature_RHand","translation":[-27.47708511352539,0.10971832275390625,0.000006000000212225132]},{"children":[58],"name":"Armature_RFingerA1","translation":[-7.7064056396484375,7.446807861328125,9.999985195463523e-7]},{"name":"Armature_RFingerA2","translation":[-1.4143295288085938,4.9733428955078125,0]},{"children":[60],"name":"Armature_RFingerB1","translation":[-17.08281707763672,5.7558746337890625,-1.2509900331497192]},{"name":"Armature_RFingerB2","translation":[-8.711402893066406,2.708404541015625,0]},{"children":[62],"name":"Armature_RFingerC1","translation":[-17.399215698242188,0.966888427734375,-1.2509900331497192]},{"name":"Armature_RFingerC2","translation":[-9.339004516601562,0.30139923095703125,-1.1920928955078125e-7]},{"children":[64],"name":"Armature_RFingerD1","translation":[-17.11780548095703,-3.7108306884765625,-1.2509900331497192]},{"name":"Armature_RFingerD2","translation":[-8.825408935546875,-2.630390167236328,1.1920928955078125e-7]},{"children":[66],"name":"Armature_RFingerE1","translation":[-15.92022705078125,-7.756202697753906,-1.2509899139404297]},{"name":"Armature_RFingerE2","translation":[-6.583992004394531,-3.9651947021484375,-1.1920928955078125e-7]},{"children":[68,71,74,77,80,83,86,89],"name":"Armature_Hips"},{"children":[69],"name":"Armature_FeelerA1","rotation":[0,-1.6940658945086007e-21,0,1],"translation":[-0.000009906469131237827,-15.484703063964844,28.826032638549805]},{"children":[70],"name":"Armature_FeelerA2","rotation":[0,6.782368074019816e-22,0,1],"translation":[-0.000009500332453171723,-14.849899291992188,8.353067398071289]},{"name":"Armature_FeelerA3","rotation":[0,2.842170265414043e-14,0,1],"translation":[-0.00000883239772520028,-13.805788040161133,10.673328399658203]},{"children":[72],"name":"Armature_FeelerB1","translation":[-0.000009428639714315068,-14.737812042236328,-32.27229690551758]},{"children":[73],"name":"Armature_FeelerB2","rotation":[0,-2.8421712818535796e-14,0,1],"translation":[-0.00001062355931935599,-16.60563850402832,-9.381153106689453]},{"name":"Armature_FeelerB3","rotation":[0,5.684342563707159e-14,0,1],"translation":[-0.000008517105925420765,-14.125600814819336,-9.812389373779297]},{"children":[75],"name":"Armature_LFeeler1","translation":[27.898021697998047,-8.2568359375,-10.600201606750488]},{"children":[76],"name":"Armature_LFeeler2","translation":[9.836658477783203,-20.509796142578125,1.064112663269043]},{"name":"Armature_LFeeler3","translation":[12.469558715820312,-15.895294189453125,-3.1512413024902344]},{"children":[78],"name":"Armature_RFeeler1","translation":[-27.86775016784668,-8.193069458007812,-17.662269592285156]},{"children":[79],"name":"Armature_RFeeler2","translation":[-11.350709915161133,-22.464828491210938,24.618898391723633]},{"name":"Armature_RFeeler3","translation":[-13.502670288085938,-17.212223052978516,-18.648569107055664]},{"children":[81],"name":"Armature_LFeelerA1","rotation":[0,-3.552713678800501e-15,0,1],"translation":[24.217451095581055,-13.97018051147461,16.269302368164062]},{"children":[82],"name":"Armature_LFeelerA2","rotation":[0,3.552713678800501e-15,0,1],"translation":[5.506490707397461,-15.353771209716797,4.92283821105957]},{"name":"Armature_LFeelerA3","translation":[7.381809234619141,-14.462100982666016,6.393468856811523]},{"children":[84],"name":"Armature_RFeelerA1","rotation":[0,3.552713678800501e-15,0,1],"translation":[-24.217517852783203,-13.970100402832031,16.26930046081543]},{"children":[85],"name":"Armature_RFeelerA2","rotation":[0,-3.552713678800501e-15,0,1],"translation":[-5.506502151489258,-15.353799819946289,4.922908782958984]},{"name":"Armature_RFeelerA3","translation":[-7.381799697875977,-14.462098121643066,6.393392562866211]},{"children":[87],"name":"Armature_LFeelerB1","translation":[13.899690628051758,-13.970134735107422,-32.347320556640625]},{"children":[88],"name":"Armature_LFeelerB2","rotation":[0,-5.714453515602954e-17,0,1],"translation":[3.409059524536133,-14.996313095092773,-7.333789825439453]},{"name":"Armature_LFeelerB3","rotation":[0,5.714453515602954e-17,0,1],"translation":[4.26593017578125,-13.995391845703125,-9.510494232177734]},{"children":[90],"name":"Armature_RFeelerB1","rotation":[0,1.7763568394002505e-15,0,1],"translation":[-13.899710655212402,-13.970088958740234,-32.34730529785156]},{"children":[91],"name":"Armature_RFeelerB2","rotation":[0,-1.4901162970204496e-8,0,1],"translation":[-3.4091196060180664,-14.996309280395508,-7.333782196044922]},{"name":"Armature_RFeelerB3","rotation":[0,1.4901161193847656e-8,0,1],"translation":[-4.265906810760498,-13.995403289794922,-9.510466575622559]},{"name":"Armature_pm0124_00_Skin"}],"samplers":[{}],"scene":0,"scenes":[{"name":"Scene","nodes":[0,2,1]}],"skins":[{"inverseBindMatrices":0,"joints":[4,5,6,7,8,9,10,11,12,13,14,15,16,17,18,19,20,21,22,23,24,25,26,27,28,29,30,31,32,33,34,35,36,37,38,39,40,41,42,43,44,45,46,47,48,49,50,51,52,53,54,55,56,57,58,59,60,61,62,63,64,65,66,67,68,69,70,71,72,73,74,75,76,77,78,79,80,81,82,83,84,85,86,87,88,89,90,91,92],"skeleton":0}],"textures":[{"sampler":0,"source":0},{"sampler":0,"source":1}],"extensionsUsed":["ALI_amc_mesh_compression"],"extensionsRequired":["ALI_amc_mesh_compression"]}