{"accessors":[{"bufferView":0,"componentType":5126,"count":60,"max":[1,-6.1767240898953465e-24,1,0,1,0,1,0,6.1767240898953465e-24,-1,6.1767240898953465e-24,0,67.43730163574219,12.306532859802246,153.19105529785156,1],"min":[-1,-6.176725667617157e-24,-1,0,-1,0,-1,0,-6.1767240898953465e-24,-1.000000238418579,-6.1767240898953465e-24,0,-215.45797729492188,-35.15740203857422,-164.54232788085938,1],"type":"MAT4","byteOffset":0},{"bufferView":1,"componentType":5126,"count":60,"max":[1,-6.1767240898953465e-24,1,0,1,0,1,0,6.1767240898953465e-24,-1,6.1767240898953465e-24,0,67.43730163574219,12.306532859802246,153.19105529785156,1],"min":[-1,-6.176725667617157e-24,-1,0,-1,0,-1,0,-6.1767240898953465e-24,-1.000000238418579,-6.1767240898953465e-24,0,-215.45797729492188,-35.15740203857422,-164.54232788085938,1],"type":"MAT4","byteOffset":0},{"bufferView":2,"componentType":5126,"count":60,"max":[1,-6.1767240898953465e-24,1,0,1,0,1,0,6.1767240898953465e-24,-1,6.1767240898953465e-24,0,67.43730163574219,12.306532859802246,153.19105529785156,1],"min":[-1,-6.176725667617157e-24,-1,0,-1,0,-1,0,-6.1767240898953465e-24,-1.000000238418579,-6.1767240898953465e-24,0,-215.45797729492188,-35.15740203857422,-164.54232788085938,1],"type":"MAT4","byteOffset":0},{"bufferView":3,"componentType":5126,"count":60,"max":[1,-6.1767240898953465e-24,1,0,1,0,1,0,6.1767240898953465e-24,-1,6.1767240898953465e-24,0,67.43730163574219,12.306532859802246,153.19105529785156,1],"min":[-1,-6.176725667617157e-24,-1,0,-1,0,-1,0,-6.1767240898953465e-24,-1.000000238418579,-6.1767240898953465e-24,0,-215.45797729492188,-35.15740203857422,-164.54232788085938,1],"type":"MAT4","byteOffset":0},{"bufferView":4,"componentType":5126,"count":60,"max":[1,-6.1767240898953465e-24,1,0,1,0,1,0,6.1767240898953465e-24,-1,6.1767240898953465e-24,0,67.43730163574219,12.306532859802246,153.19105529785156,1],"min":[-1,-6.176725667617157e-24,-1,0,-1,0,-1,0,-6.1767240898953465e-24,-1.000000238418579,-6.1767240898953465e-24,0,-215.45797729492188,-35.15740203857422,-164.54232788085938,1],"type":"MAT4","byteOffset":0}],"asset":{"generator":"Khronos Blender glTF 2.0 exporter","version":"2.0"},"bufferViews":[{"buffer":0,"byteLength":3840,"byteOffset":0},{"buffer":0,"byteLength":3840,"byteOffset":3840},{"buffer":0,"byteLength":3840,"byteOffset":7680},{"buffer":0,"byteLength":3840,"byteOffset":11520},{"buffer":0,"byteLength":3840,"byteOffset":15360},{"buffer":0,"byteOffset":19200,"byteLength":1203},{"buffer":0,"byteOffset":20403,"byteLength":915},{"buffer":0,"byteOffset":21318,"byteLength":80517},{"buffer":0,"byteOffset":101835,"byteLength":40153},{"buffer":0,"byteOffset":141988,"byteLength":28325}],"buffers":[{"byteLength":170313,"uri":"buffer.bin"}],"images":[{"name":"Body1_0","uri":"Body1_0.png"},{"name":"Eye1_0","uri":"Eye1_0.png"},{"name":"Mouth1_0","uri":"Mouth1_0.png"}],"materials":[{"name":"Body00","pbrMetallicRoughness":{"baseColorFactor":[0.6400000190734865,0.6400000190734865,0.6400000190734865,1],"baseColorTexture":{"index":0},"metallicFactor":0}},{"name":"Body01","pbrMetallicRoughness":{"baseColorFactor":[0.6400000190734865,0.6400000190734865,0.6400000190734865,1],"baseColorTexture":{"index":0},"metallicFactor":0}},{"name":"Eye","pbrMetallicRoughness":{"baseColorFactor":[0.6400000190734865,0.6400000190734865,0.6400000190734865,1],"baseColorTexture":{"index":2},"metallicFactor":0}},{"name":"Mouth","pbrMetallicRoughness":{"baseColorFactor":[0.6400000190734865,0.6400000190734865,0.6400000190734865,1],"baseColorTexture":{"index":3},"metallicFactor":0}}],"meshes":[{"name":"Mesh_4__Eye_","primitives":[{"material":2,"extensions":{"ALI_amc_mesh_compression":{"bufferView":5}}}]},{"name":"Mesh_5__Mouth_","primitives":[{"material":3,"extensions":{"ALI_amc_mesh_compression":{"bufferView":6}}}]},{"name":"Mesh_2__Body01_","primitives":[{"material":1,"extensions":{"ALI_amc_mesh_compression":{"bufferView":7}}}]},{"name":"Mesh_1__Body01_","primitives":[{"material":1,"extensions":{"ALI_amc_mesh_compression":{"bufferView":8}}}]},{"name":"Mesh_3__Body00_","primitives":[{"material":0,"extensions":{"ALI_amc_mesh_compression":{"bufferView":9}}}]}],"nodes":[{"children":[3,4,5,6,7,8],"name":"Armature","rotation":[1,-1.1102250098586267e-16,-5.551124387548643e-17,-1.9470718370939721e-7]},{"name":"Camera","rotation":[0.483536034822464,0.33687159419059753,-0.20870360732078552,0.7804827094078064],"translation":[7.481131553649902,5.34366512298584,6.5076398849487305]},{"name":"Lamp","rotation":[0.16907575726509094,0.7558802962303162,-0.27217137813568115,0.570947527885437],"scale":[1,1,0.9999999403953552],"translation":[4.076245307922363,5.903861999511719,-1.0054539442062378]},{"mesh":3,"name":"Mesh_1__Body01_","skin":0},{"mesh":2,"name":"Mesh_2__Body01_","skin":1},{"mesh":4,"name":"Mesh_3__Body00_","skin":2},{"mesh":0,"name":"Mesh_4__Eye_","skin":3},{"mesh":1,"name":"Mesh_5__Mouth_","skin":4},{"children":[9,67],"name":"Armature_pm0143_00","rotation":[-0.7071068286895752,7.850476717442717e-17,-7.850476717442717e-17,0.7071068286895752]},{"children":[10],"name":"Armature_Origin","rotation":[0,3.986810881428937e-13,0,1]},{"children":[11,25],"name":"Armature_Waist","rotation":[0,0.7071078419685364,0,0.7071056962013245],"scale":[1,0.9999999403953552,1],"translation":[0.00005118745320942253,-0.958424985408783,-67.43729400634766]},{"children":[12,13,15,20],"name":"Armature_Hips","rotation":[0,1,0,-0.0000015060094256114098],"translation":[0.000007629304036527174,0,-0.000021311851014615968]},{"name":"Armature_EndHips","rotation":[0,-4.547473508864641e-13,0,1],"translation":[57.484004974365234,-1.1920928955078125e-7,0.00000640685175312683]},{"children":[14],"name":"Armature_FeelerA","rotation":[0,-4.547473508864641e-13,0,1],"translation":[1.531645921204472e-10,-5.960464477539063e-8,0.000004499184797168709]},{"name":"Armature_EndFeelerA","translation":[63.02030563354492,-4.76837158203125e-7,0.0000032334392017219216]},{"children":[16],"name":"Armature_LThigh","rotation":[0,-4.547473508864641e-13,0,1],"translation":[11.650400161743164,-3.4677858352661133,-50.31087112426758]},{"children":[17,18],"name":"Armature_LFoot","rotation":[0,-0.7071089744567871,0,0.7071045637130737],"translation":[44.11750411987305,0.000001430511474609375,-0.00007425257354043424]},{"name":"Armature_EndLFoot","rotation":[0,2.7817968373256008e-8,0,1],"translation":[0.000013855421457265038,38.58441925048828,-0.0000029555303626693785]},{"children":[19],"name":"Armature_LToe","rotation":[0,2.7817968373256008e-8,0,1],"translation":[0.000013292990843183361,17.914215087890625,-2.7219038009643555]},{"name":"Armature_EndLToe","rotation":[0,1.5099580252808664e-7,0,1],"translation":[-0.0000024636165107949637,21.66939353942871,0.000005689446425094502]},{"children":[21],"name":"Armature_RThigh","rotation":[0,-4.547473508864641e-13,0,1],"translation":[11.650407791137695,-3.467785358428955,50.31093215942383]},{"children":[22,23],"name":"Armature_RFoot","rotation":[0,-0.7071089744567871,0,0.7071045637130737],"translation":[44.11749267578125,-4.76837158203125e-7,-0.00006661954103037715]},{"name":"Armature_EndRFoot","rotation":[0,2.7817968373256008e-8,0,1],"translation":[-0.0000014034903870197013,38.58441162109375,0.000003909368388121948]},{"children":[24],"name":"Armature_RToe","rotation":[0,1.788137637959153e-7,0,1],"translation":[-0.000001965935098269256,17.914207458496094,-2.7219619750976562]},{"name":"Armature_EndRToe","rotation":[0,-1.5099578831723193e-7,0,1],"translation":[-0.000001350979232483951,21.669404983520508,-0.000003847418156510685]},{"children":[26,28],"name":"Armature_Spine1","rotation":[0,-3.410605131648481e-13,0,1],"translation":[-1.5478462955798022e-10,-1.1920928955078125e-7,1.8189894035458565e-11]},{"children":[27],"name":"Armature_FeelerB","rotation":[0,5.960464477539063e-8,0,1],"translation":[0.000007629253559571225,5.960464477539063e-8,-0.000004530218575382605]},{"name":"Armature_EndFeelerB","translation":[138.75167846679688,-0.0000027418136596679688,1.1944212019443512e-7]},{"children":[29,31,37,52],"name":"Armature_Spine2","translation":[31.783798217773438,5.960464477539063e-8,-0.0000016385783965233713]},{"children":[30],"name":"Armature_FeelerC","rotation":[0,5.960464477539063e-8,0,1],"translation":[1.609237187949475e-10,-5.960464477539063e-8,-0.00000665090192342177]},{"name":"Armature_EndFeelerC","translation":[116.23688507080078,-0.000002384185791015625,9.764335118234158e-8]},{"children":[32,33,35],"name":"Armature_Head","translation":[34.84990692138672,1.1920928955078125e-7,-0.000001796244760043919]},{"name":"Armature_EndHead","translation":[56.54200744628906,-2.384185791015625e-7,-0.000002915126970037818]},{"children":[34],"name":"Armature_LEar","rotation":[0,-0.22350811958312988,0,0.9747021794319153],"scale":[0.9999999403953552,1,0.9999999403953552],"translation":[53.56587600708008,-3.1584866046905518,29.21452522277832]},{"name":"Armature_EndLEar","rotation":[0,1.4901161193847656e-8,0,1],"translation":[17.60440444946289,-3.5139365196228027,3.4485206604003906]},{"children":[36],"name":"Armature_REar","rotation":[0,0.4067074656486511,0,0.9135584235191345],"translation":[53.56618881225586,-3.1584832668304443,-29.214948654174805]},{"name":"Armature_EndREar","rotation":[0,-2.2351741790771484e-7,0,1],"translation":[17.604389190673828,-3.51401424407959,3.448223114013672]},{"children":[38],"name":"Armature_LShoulder","rotation":[0,-0.7071079611778259,0,0.7071056365966797],"translation":[19.257755279541016,0.46460607647895813,34.12110900878906]},{"children":[39],"name":"Armature_LArm","rotation":[0,1.1903729557616316e-7,0,1],"translation":[19.283205032348633,0.000004172325134277344,0.0009562005870975554]},{"children":[40],"name":"Armature_LForeArm","rotation":[0,3.720736003742786e-7,0,1],"translation":[31.533599853515625,5.960464477539063e-8,-2.9198275797170936e-8]},{"children":[41,42,44,46,48,50],"name":"Armature_LHand","rotation":[0,7.513327204833331e-8,0,1],"translation":[17.865184783935547,-0.0000025033950805664062,0.000023059459635987878]},{"name":"Armature_EndLHand","rotation":[0,1.339316213488928e-8,0,1],"translation":[27.27599334716797,-0.000002115964889526367,-0.000005770591087639332]},{"children":[43],"name":"Armature_LFingerA","rotation":[0,-0.03584105893969536,0,0.9993575215339661],"translation":[13.36652946472168,9.293976783752441,1.4222840070724487]},{"name":"Armature_EndLFingerA","rotation":[0,-3.0174851417541504e-7,0,1],"translation":[7.854523658752441,3.6534976959228516,-0.5642328262329102]},{"children":[45],"name":"Armature_LFingerB","rotation":[0,-0.1265290230512619,0,0.9919629096984863],"scale":[0.9999999403953552,1,0.9999999403953552],"translation":[16.496049880981445,6.361005783081055,-3.968010187149048]},{"name":"Armature_EndLFingerB","rotation":[0,1.4901161193847656e-7,0,1],"translation":[8.73642349243164,2.3405399322509766,-2.265594482421875]},{"children":[47],"name":"Armature_LFingerC","rotation":[0,-0.0353328138589859,0,0.9993756413459778],"translation":[18.03194808959961,1.509421706199646,-5.398924350738525]},{"name":"Armature_EndLFingerC","rotation":[0,2.5704503059387207e-7,0,1],"translation":[9.173025131225586,0.651045560836792,-0.6495246887207031]},{"children":[49],"name":"Armature_LFingerD","rotation":[0,0.08205313235521317,0,0.9966279864311218],"translation":[17.815570831298828,-4.144969940185547,-5.199095726013184]},{"name":"Armature_EndLFingerD","rotation":[0,-7.450580596923828e-9,0,1],"translation":[9.369457244873047,-1.5745368003845215,1.5534172058105469]},{"children":[51],"name":"Armature_LFingerE","rotation":[0,0.21863296627998352,0,0.9758071899414062],"translation":[16.435916900634766,-8.825342178344727,-4.2161102294921875]},{"name":"Armature_EndLFingerE","rotation":[0,-7.599592208862305e-7,0,1],"scale":[1,0.9999998807907104,1],"translation":[5.725517272949219,-2.986825942993164,2.7012710571289062]},{"children":[53],"name":"Armature_RShoulder","rotation":[0,0.7071083784103394,0,0.7071051597595215],"translation":[19.256786346435547,0.4646068811416626,-34.12123489379883]},{"children":[54],"name":"Armature_RArm","rotation":[0,-0.000001577539023855934,0,1],"translation":[19.283218383789062,-0.00011628866195678711,0.000031906558433547616]},{"children":[55],"name":"Armature_RForeArm","rotation":[0,0.000001430511474609375,0,1],"translation":[31.533592224121094,-0.00019040703773498535,-0.000042276427848264575]},{"children":[56,57,59,61,63,65],"name":"Armature_RHand","rotation":[0,-1.1920928955078125e-7,0,1],"translation":[17.86563491821289,-0.00010785460472106934,0.00005655799759551883]},{"name":"Armature_EndRHand","translation":[27.27501106262207,-2.980232238769531e-7,-0.000019391358364373446]},{"children":[58],"name":"Armature_RFingerA","rotation":[0,-0.8052108883857727,0,0.5929885506629944],"translation":[13.36552906036377,9.294082641601562,-1.4232820272445679]},{"name":"Armature_EndRFingerA","rotation":[0,-4.917383193969727e-7,0,1],"translation":[-2.337024688720703,3.653721809387207,-7.52093505859375]},{"children":[60],"name":"Armature_RFingerB","rotation":[0,-0.1265288144350052,0,0.9919629096984863],"translation":[16.495121002197266,6.361041069030762,3.9679219722747803]},{"name":"Armature_EndRFingerB","rotation":[0,-2.2351741790771484e-7,0,1],"translation":[8.73642349243164,2.340548038482666,-2.2655296325683594]},{"children":[62],"name":"Armature_RFingerC","rotation":[0,-0.03533262759447098,0,0.9993756413459778],"translation":[18.031084060668945,1.5094448328018188,5.398985862731934]},{"name":"Armature_EndRFingerC","translation":[9.173995971679688,0.6510885953903198,-0.6494731903076172]},{"children":[64],"name":"Armature_RFingerD","rotation":[0,0.08205321431159973,0,0.9966279864311218],"translation":[17.814525604248047,-4.14501953125,5.198911190032959]},{"name":"Armature_EndRFingerD","rotation":[0,-1.2665987014770508e-7,0,1],"scale":[1,1.0000001192092896,1],"translation":[9.370357513427734,-1.5746564865112305,1.5535316467285156]},{"children":[66],"name":"Armature_RFingerE","rotation":[0,0.21863238513469696,0,0.9758073091506958],"translation":[16.43490219116211,-8.825197219848633,4.214953899383545]},{"name":"Armature_EndRFingerE","rotation":[0,-1.1920928955078125e-7,0,1],"scale":[1,1.0000001192092896,1],"translation":[5.726356506347656,-2.9871044158935547,2.701618194580078]},{"name":"Armature_pm0143_00_Skin"}],"samplers":[{}],"scene":0,"scenes":[{"name":"Scene","nodes":[0,2,1]}],"skins":[{"inverseBindMatrices":0,"joints":[8,9,10,11,12,13,14,15,16,17,18,19,20,21,22,23,24,25,26,27,28,29,30,31,32,33,34,35,36,37,38,39,40,41,42,43,44,45,46,47,48,49,50,51,52,53,54,55,56,57,58,59,60,61,62,63,64,65,66,67],"skeleton":0},{"inverseBindMatrices":1,"joints":[8,9,10,11,12,13,14,15,16,17,18,19,20,21,22,23,24,25,26,27,28,29,30,31,32,33,34,35,36,37,38,39,40,41,42,43,44,45,46,47,48,49,50,51,52,53,54,55,56,57,58,59,60,61,62,63,64,65,66,67],"skeleton":0},{"inverseBindMatrices":2,"joints":[8,9,10,11,12,13,14,15,16,17,18,19,20,21,22,23,24,25,26,27,28,29,30,31,32,33,34,35,36,37,38,39,40,41,42,43,44,45,46,47,48,49,50,51,52,53,54,55,56,57,58,59,60,61,62,63,64,65,66,67],"skeleton":0},{"inverseBindMatrices":3,"joints":[8,9,10,11,12,13,14,15,16,17,18,19,20,21,22,23,24,25,26,27,28,29,30,31,32,33,34,35,36,37,38,39,40,41,42,43,44,45,46,47,48,49,50,51,52,53,54,55,56,57,58,59,60,61,62,63,64,65,66,67],"skeleton":0},{"inverseBindMatrices":4,"joints":[8,9,10,11,12,13,14,15,16,17,18,19,20,21,22,23,24,25,26,27,28,29,30,31,32,33,34,35,36,37,38,39,40,41,42,43,44,45,46,47,48,49,50,51,52,53,54,55,56,57,58,59,60,61,62,63,64,65,66,67],"skeleton":0}],"textures":[{"sampler":0,"source":0},{"sampler":0,"source":0},{"sampler":0,"source":1},{"sampler":0,"source":2}],"extensionsUsed":["ALI_amc_mesh_compression"],"extensionsRequired":["ALI_amc_mesh_compression"]}