{"accessors":[{"bufferView":0,"componentType":5126,"count":52,"max":[1.000000238418579,2.5354117028086876e-8,0.9893175363540649,0,0.9999998807907104,0.0000013382208408074803,1,0,0.0000013303157402333454,-0.9999998807907104,0.000001331047315034084,0,102.88023376464844,20.93769073486328,25.11924934387207,1],"min":[-1.000000238418579,-1.5071600500959903e-7,-1.0000001192092896,0,-0.9893172979354858,-1.5405149156322295e-7,-1,0,-1.6101242295007978e-7,-1.0000001192092896,-1.5405234421450587e-7,0,-104.02935791015625,-5.991583347320557,-79.57213592529297,1],"type":"MAT4","byteOffset":0}],"asset":{"generator":"Khronos Blender glTF 2.0 exporter","version":"2.0"},"bufferViews":[{"buffer":0,"byteLength":3328,"byteOffset":0},{"buffer":0,"byteOffset":3328,"byteLength":2231},{"buffer":0,"byteOffset":5559,"byteLength":2231},{"buffer":0,"byteOffset":7790,"byteLength":132207},{"buffer":0,"byteOffset":139997,"byteLength":4359}],"buffers":[{"byteLength":144356,"uri":"buffer.bin"}],"images":[{"name":"pm0074_00_Body1","uri":"pm0074_00_Body1.png"},{"name":"pm0074_00_Eye1","uri":"pm0074_00_Eye1.png"},{"name":"pm0074_00_Iris1","uri":"pm0074_00_Iris1.png"}],"materials":[{"alphaMode":"OPAQUE","name":"Body","pbrMetallicRoughness":{"baseColorFactor":[0.6400000190734865,0.6400000190734865,0.6400000190734865,1],"baseColorTexture":{"index":0},"metallicFactor":0}},{"alphaMode":"OPAQUE","name":"Eye","pbrMetallicRoughness":{"baseColorFactor":[0.6400000190734865,0.6400000190734865,0.6400000190734865,1],"baseColorTexture":{"index":1},"metallicFactor":0}},{"alphaMode":"MASK","name":"LIris","pbrMetallicRoughness":{"baseColorFactor":[0.6400000190734865,0.6400000190734865,0.6400000190734865,1],"baseColorTexture":{"index":2},"metallicFactor":0}},{"alphaMode":"MASK","name":"RIris","pbrMetallicRoughness":{"baseColorFactor":[0.6400000190734865,0.6400000190734865,0.6400000190734865,1],"baseColorTexture":{"index":2},"metallicFactor":0}}],"meshes":[{"name":"Geodude","primitives":[{"material":3,"extensions":{"ALI_amc_mesh_compression":{"bufferView":1}}},{"material":2,"extensions":{"ALI_amc_mesh_compression":{"bufferView":2}}},{"material":0,"extensions":{"ALI_amc_mesh_compression":{"bufferView":3}}},{"material":1,"extensions":{"ALI_amc_mesh_compression":{"bufferView":4}}}]}],"nodes":[{"children":[1,17,18],"name":"_01_pm0074_00","rotation":[0.7071068286895752,0,0,0.7071067094802856],"scale":[0.02539999783039093,0.02539999969303608,0.02539999969303608]},{"children":[20,22],"name":"_02_Origin"},{"name":"_04_EndWaist","translation":[27.7893009185791,0,7.27596021626864e-12]},{"name":"_06_EndHead","translation":[25.463600158691406,0,-2.9103799231711136e-11]},{"name":"_08_EndJaw","translation":[26.891510009765625,-0.0000019073499970545527,0]},{"name":"_12_EndLHand","translation":[42.57381057739258,0,0]},{"name":"_15_EndLFingerA2","translation":[11.516300201416016,0.000003814699994109105,0]},{"name":"_19_EndLFingerB3","translation":[8.298759460449219,0,-0.0000019073499970545527]},{"name":"_23_EndLFingerC3","translation":[9.264877319335938,0,-0.0000019073499970545527]},{"name":"_27_EndLFingerD3","translation":[8.911209106445312,4.768369876728684e-7,0]},{"name":"_31_EndLFingerE3","translation":[6.937163829803467,0,-9.536739753457368e-7]},{"name":"_35_EndRHand","translation":[42.574119567871094,0,0]},{"name":"_38_EndRFingerA2","translation":[11.516300201416016,0.000011444099982327316,0.000011444099982327316]},{"name":"_42_EndRFingerB3","translation":[8.298385620117188,0.000038623798900516704,-0.00005531309943762608]},{"name":"_46_EndRFingerC3","translation":[9.264869689941406,0.0000405311984650325,0.000009536740435578395]},{"name":"_50_EndRFingerD3","translation":[8.911529541015625,0.000037670099118258804,-0.0000019073499970545527]},{"name":"_54_EndRFingerE3","translation":[6.937187194824219,0.000032901800295803696,0.00003337860107421875]},{"name":"_55_pm0074_00_BodySkin"},{"name":"_56_pm0074_00_IrisSkin"},{"name":"Camera","rotation":[0.483536034822464,0.33687159419059753,-0.20870360732078552,0.7804827094078064],"translation":[7.481131553649902,5.34366512298584,6.5076398849487305]},{"mesh":0,"name":"Geodude","rotation":[5.960464477539063e-8,0,0,1],"scale":[1.0000001192092896,1,1],"skin":0},{"name":"Lamp","rotation":[0.16907575726509094,0.7558802962303162,-0.27217137813568115,0.570947527885437],"scale":[1,1,0.9999999403953552],"translation":[4.076245307922363,5.903861999511719,-1.0054539442062378]},{"children":[23,24,28,51],"name":"_02_Origin__03_Waist","rotation":[-0.5,-0.5000000596046448,0.5000000596046448,0.5],"scale":[1,0.9999999403953552,1],"translation":[-1.5916998452505503e-15,24.319000244140625,-1.6755000352859497]},{"name":"_02_Origin__04_EndWaist","rotation":[-3.06598686326473e-14,0,-6.85849613546452e-7,1],"translation":[27.789291381835938,-0.0000013113021850585938,-0.0000012147156667197123]},{"children":[25,26],"name":"_02_Origin__05_Head","rotation":[-3.168037731563107e-14,0,-7.247625717354822e-7,1],"translation":[-0.00000762939453125,-0.0000013113021850585938,3.4265220326921975e-13]},{"name":"_02_Origin__06_EndHead","rotation":[3.06598686326473e-14,4.929996450816045e-22,6.858497272332897e-7,1],"translation":[25.463607788085938,0.00003770964394789189,-0.0000011130205166409723]},{"children":[27],"name":"_02_Origin__07_Jaw","rotation":[5.413358508121746e-7,-0.7892923951148987,4.2112370124414156e-7,0.6140174865722656],"scale":[0.9999999403953552,1,0.9999999403953552],"translation":[-5.437614440917969,3.452232837677002,-0.000019856521248584613]},{"name":"_02_Origin__08_EndJaw","rotation":[-2.4534902240283887e-16,-2.9802322387695312e-8,-7.86690320091904e-17,1],"translation":[1.6268067359924316,-26.065427780151367,6.410958766937256]},{"children":[29],"name":"_02_Origin__09_LArm","rotation":[5.412654218162061e-7,0.7427667379379272,-4.879114499090065e-7,0.6695502400398254],"translation":[-3.1787538528442383,1.9599196910858154,-20.230112075805664]},{"children":[30],"name":"_02_Origin__10_LForeArm","rotation":[-7.249703912748373e-7,-0.10125226527452469,7.378407218538996e-8,0.9948608875274658],"scale":[0.9999999403953552,1,0.9999999403953552],"translation":[18.424907684326172,-0.000001768600668583531,0.000014518771422444843]},{"children":[31,32,35,39,43,47],"name":"_02_Origin__11_LHand","rotation":[-2.1406410866120495e-8,0.0496114119887352,-1.0633098845858058e-9,0.9987686276435852],"translation":[21.857202529907227,0.000013251697964733467,-0.000001036230628415069]},{"name":"_02_Origin__12_EndLHand","rotation":[1.7421347919821528e-8,3.727164799016691e-9,-1.2308851973021366e-15,1],"translation":[42.57382583618164,0.00001017446174955694,7.493575537864672e-8]},{"children":[33],"name":"_02_Origin__13_LFingerA1","rotation":[1.2091803114344657e-7,0.7568938136100769,8.860829403545267e-9,0.6535378694534302],"translation":[9.448573112487793,-5.283493518829346,10.219417572021484]},{"children":[34],"name":"_02_Origin__14_LFingerA2","rotation":[-1.86016566733338e-14,-2.086162567138672e-7,-8.573123011501593e-8,1],"translation":[-5.102542877197266,-5.497570991516113,7.198312759399414]},{"name":"_02_Origin__15_EndLFingerA2","rotation":[8.261620554339544e-17,1.4901161193847656e-8,4.286561150479429e-8,1],"translation":[-5.6524481773376465,-6.090068817138672,7.97409725189209]},{"children":[36],"name":"_02_Origin__16_LFingerB1","rotation":[-3.3022122079190734e-16,-0.03392453491687775,7.413543638977753e-16,0.999424397945404],"translation":[19.18831443786621,1.8220590353012085,9.179821014404297]},{"children":[37],"name":"_02_Origin__17_LFingerB2","rotation":[1.0716400211663313e-8,1.1175870895385742e-8,-8.573121590416122e-8,1],"scale":[1,0.9999999403953552,1],"translation":[7.769794464111328,0.00004240507405484095,0.00002874574602174107]},{"children":[38],"name":"_02_Origin__18_LFingerB3","rotation":[2.679100497005038e-9,-0.0000023990869522094727,-5.259681579161679e-15,1],"scale":[1,0.9999999403953552,1],"translation":[5.889081954956055,-0.000016974800018942915,0.00003292031033197418]},{"name":"_02_Origin__19_EndLFingerB3","rotation":[1.1102230246251565e-16,0,-9.783840404509192e-16,1],"translation":[8.2987642288208,0.0000048081706154334825,0.000006188186489453074]},{"children":[40],"name":"_02_Origin__20_LFingerC1","rotation":[2.1429874763612133e-8,-0.01653495617210865,-3.5438674217402877e-10,0.9998633861541748],"translation":[19.253110885620117,1.833546757698059,3.3634185791015625]},{"children":[41],"name":"_02_Origin__21_LFingerC2","rotation":[-5.358194776761138e-9,7.82310962677002e-8,-8.573121590416122e-8,1],"translation":[8.61776065826416,0.000042123803723370656,0.00002734779627644457]},{"children":[42],"name":"_02_Origin__22_LFingerC3","rotation":[-1.3395503595248215e-9,-0.000002210959792137146,2.9969516451844314e-15,1],"translation":[5.812320232391357,-0.000019484752556309104,0.000029790589906042442]},{"name":"_02_Origin__23_EndLFingerC3","rotation":[-1.6543612251060553e-24,0,-5.941433199176485e-17,1],"scale":[1,0.9999999403953552,1],"translation":[9.264884948730469,0.000005009546384826535,0.000006678641057078494]},{"children":[44],"name":"_02_Origin__24_LFingerD1","rotation":[2.1432674301991028e-8,-0.0034762141294777393,-7.450230710137618e-11,0.9999939799308777],"translation":[18.999603271484375,2.2665345668792725,-2.346683979034424]},{"children":[45],"name":"_02_Origin__25_LFingerD2","rotation":[-4.3538843641499625e-9,-0.0000040351878851652145,-8.57312016933065e-8,1],"scale":[1,0.9999999403953552,1],"translation":[8.555497169494629,0.000027339818188920617,0.000040477796574123204]},{"children":[46],"name":"_02_Origin__26_LFingerD3","rotation":[1.3877787807814457e-17,0.0000018540304154157639,3.169665051261372e-16,1],"translation":[5.562008380889893,-0.000017676127754384652,-0.000015320365491788834]},{"name":"_02_Origin__27_EndLFingerD3","rotation":[3.469446951953614e-18,2.3283064365386963e-10,-9.990923019453923e-17,1],"translation":[8.91120719909668,0.000004481735231820494,0.000002143795427400619]},{"children":[48],"name":"_02_Origin__28_LFingerE1","rotation":[-2.0052319180119405e-16,0.0000024472826680721482,1.8338263308055602e-18,1],"translation":[18.498512268066406,2.3561012744903564,-8.181625366210938]},{"children":[49],"name":"_02_Origin__29_LFingerE2","rotation":[1.7421347919821528e-8,1.564990270708222e-8,-8.573121590416122e-8,1],"translation":[7.7457966804504395,0.00003883873432641849,0.00004575800630846061]},{"children":[50],"name":"_02_Origin__30_LFingerE3","rotation":[3.270386619933646e-13,-0.0000023074812816048507,-4.4365915534087385e-16,1],"translation":[5.595274925231934,-0.000020107247109990567,0.000017358574041281827]},{"name":"_02_Origin__31_EndLFingerE3","rotation":[-8.175965872207758e-14,-1.1368683772161603e-13,-4.441368554533457e-16,1],"translation":[6.937163352966309,0.0000024775717974989675,0.000004142652869632002]},{"children":[52],"name":"_02_Origin__32_RArm","rotation":[5.412672408056096e-7,0.742769181728363,-4.879095172327652e-7,0.6695476174354553],"translation":[-3.1789064407348633,1.9599196910858154,20.230085372924805]},{"children":[53],"name":"_02_Origin__33_RForeArm","rotation":[-7.249703912748373e-7,-0.10125219076871872,7.37840153419711e-8,0.9948608875274658],"translation":[-18.030921936035156,-0.000002484293190718745,-3.7902956008911133]},{"children":[54,55,58,62,66,70],"name":"_02_Origin__34_RHand","rotation":[2.267962215311115e-16,0.0496114045381546,5.305510720289347e-15,0.9987686276435852],"scale":[0.9999999403953552,1,0.9999999403953552],"translation":[-21.427963256835938,0.000019269862605142407,4.310474872589111]},{"name":"_02_Origin__35_EndRHand","rotation":[-3.9087653114222576e-9,-3.726199793163687e-9,7.80316227757226e-15,1],"translation":[-42.57413101196289,0.00002258701715618372,-0.000742749311029911]},{"children":[56],"name":"_02_Origin__36_RFingerA1","rotation":[-8.245302041132163e-8,-0.9617618918418884,-2.348066097113133e-8,0.27388688921928406],"translation":[-9.448770523071289,-5.283474922180176,10.219260215759277]},{"children":[57],"name":"_02_Origin__37_RFingerA2","rotation":[-2.220446049250313e-16,-7.450580596923828e-8,5.551115123125783e-16,1],"scale":[1,1.0000001192092896,1],"translation":[8.791841506958008,-5.497585773468018,0.744979739189148]},{"name":"_02_Origin__38_EndRFingerA2","rotation":[1.1102230246251565e-16,-1.4901161193847656e-8,-4.440892098500626e-16,1],"translation":[9.73934555053711,-6.090071201324463,0.8253200054168701]},{"children":[59],"name":"_02_Origin__39_RFingerB1","rotation":[1.460289375044329e-14,-0.9994245171546936,-6.334494560833459e-14,0.033920224756002426],"translation":[-19.188453674316406,1.8220733404159546,9.17946720123291]},{"children":[60],"name":"_02_Origin__40_RFingerB2","rotation":[-3.3861802251067274e-15,4.0978193283081055e-8,8.573120879873386e-8,1],"translation":[7.769894123077393,0.00003628065314842388,0.00005959141344646923]},{"children":[61],"name":"_02_Origin__41_RFingerB3","rotation":[-5.551115123125783e-17,0,4.649058915617843e-16,1],"translation":[5.889064788818359,-0.000016320460417773575,4.636049482087401e-7]},{"name":"_02_Origin__42_EndRFingerB3","rotation":[-5.551115123125783e-17,0,4.649058915617843e-16,1],"translation":[8.298395156860352,0.000005920241164858453,0.0000972615453065373]},{"children":[63],"name":"_02_Origin__43_RFingerC1","rotation":[1.3174564961377939e-14,-0.9998633861541748,-6.155133047263403e-15,0.01652907393872738],"translation":[-19.25315284729004,1.8335611820220947,3.3630568981170654]},{"children":[64],"name":"_02_Origin__44_RFingerC2","rotation":[2.6790969442913593e-9,4.0978193283081055e-8,8.573121590416122e-8,1],"translation":[8.617813110351562,0.00004781694951816462,0.0000338708923663944]},{"children":[65],"name":"_02_Origin__45_RFingerC3","rotation":[-1.339550026457914e-9,-1.1734664440155029e-7,4.709774237277031e-16,1],"translation":[5.81227970123291,-0.000026800906198332086,0.000043139913032064214]},{"name":"_02_Origin__46_EndRFingerC3","rotation":[1.734723475976807e-17,1.862645149230957e-9,4.49293380277993e-16,1],"translation":[9.26486873626709,0.000005492696800502017,0.000033140986488433555]},{"children":[67],"name":"_02_Origin__47_RFingerD1","rotation":[-6.2491096586953735e-15,0.9999939799308777,3.56569133528318e-16,-0.0034721584524959326],"translation":[-18.999547958374023,2.2665417194366455,-2.347040891647339]},{"children":[68],"name":"_02_Origin__48_RFingerD2","rotation":[3.3488720685426188e-9,4.0978193283081055e-8,8.573121590416122e-8,1],"translation":[8.555523872375488,0.00003532588016241789,0.000059644575230777264]},{"children":[69],"name":"_02_Origin__49_RFingerD3","rotation":[0,-2.3283064365386963e-10,3.2526065174565133e-18,1],"translation":[5.562013149261475,-0.00001862421413534321,0.00001806060754461214]},{"name":"_02_Origin__50_EndRFingerD3","rotation":[0,-2.3283064365386963e-10,3.2526065174565133e-18,1],"translation":[8.911534309387207,0.000003125863258901518,0.00004386941873235628]},{"children":[71],"name":"_02_Origin__51_RFingerE1","rotation":[-8.492980827618478e-15,1,4.210770187390578e-16,0.00000853935671329964],"translation":[-18.49835968017578,2.3561201095581055,-8.182024002075195]},{"children":[72],"name":"_02_Origin__52_RFingerE2","rotation":[3.9074534718963605e-9,4.097728378837928e-8,8.573121590416122e-8,1],"translation":[7.745799541473389,0.00003460544758127071,-7.329840627789963e-7]},{"children":[73],"name":"_02_Origin__53_RFingerE3","rotation":[-7.623296525288703e-21,-4.547473508864641e-13,8.881749256892178e-16,1],"translation":[5.595204830169678,-0.000017170486898976378,0.000006842660241090925]},{"name":"_02_Origin__54_EndRFingerE3","rotation":[-7.623296525288703e-21,-4.547473508864641e-13,8.881749256892178e-16,1],"translation":[6.93720006942749,0.0000017590772358744289,-8.482600151182851e-7]}],"samplers":[{}],"scene":0,"scenes":[{"name":"Scene","nodes":[16,15,14,13,12,11,10,9,8,7,6,5,4,3,2,0,21,19]}],"skins":[{"inverseBindMatrices":0,"joints":[22,23,24,25,26,27,28,29,30,31,32,33,34,35,36,37,38,39,40,41,42,43,44,45,46,47,48,49,50,51,52,53,54,55,56,57,58,59,60,61,62,63,64,65,66,67,68,69,70,71,72,73],"skeleton":1}],"textures":[{"sampler":0,"source":0},{"sampler":0,"source":1},{"sampler":0,"source":2},{"sampler":0,"source":2}],"extensionsUsed":["ALI_amc_mesh_compression"],"extensionsRequired":["ALI_amc_mesh_compression"]}