{"accessors":[{"bufferView":0,"componentType":5126,"count":13,"max":[1,6.248867379099465e-8,1,0,1,0,1,0,3.5527141023169746e-15,-1,0,0,22.919204711914062,17.911884307861328,25.88804817199707,1],"min":[-0.34574487805366516,0,-1,0,-1,-7.197618856480403e-8,-0.34574487805366516,0,0,-1.0000001192092896,-9.531741085311296e-8,0,-70.25884246826172,-78.0682144165039,-42.1982307434082,1],"type":"MAT4","byteOffset":0}],"asset":{"generator":"Khronos Blender glTF 2.0 exporter","version":"2.0"},"bufferViews":[{"buffer":0,"byteLength":832,"byteOffset":0},{"buffer":0,"byteOffset":832,"byteLength":9349},{"buffer":0,"byteOffset":10181,"byteLength":579}],"buffers":[{"byteLength":10760,"uri":"buffer.bin"}],"images":[{"name":"pm0137_00_Body1","uri":"pm0137_00_Body1.png"},{"name":"pm0137_00_Eye1","uri":"pm0137_00_Eye1.png"}],"materials":[{"alphaMode":"OPAQUE","name":"Material__114","pbrMetallicRoughness":{"baseColorFactor":[0.6400000190734865,0.6400000190734865,0.6400000190734865,1],"baseColorTexture":{"index":0},"metallicFactor":0}},{"alphaMode":"OPAQUE","name":"Material__115","pbrMetallicRoughness":{"baseColorFactor":[0.6400000190734865,0.6400000190734865,0.6400000190734865,1],"baseColorTexture":{"index":1},"metallicFactor":0}}],"meshes":[{"name":"Porygon","primitives":[{"material":0,"extensions":{"ALI_amc_mesh_compression":{"bufferView":1}}},{"material":1,"extensions":{"ALI_amc_mesh_compression":{"bufferView":2}}}]}],"nodes":[{"children":[3,4],"name":"Armature","scale":[0.02539999969303608,0.02539999969303608,0.02539999969303608]},{"name":"Camera","rotation":[0.483536034822464,0.33687159419059753,-0.20870360732078552,0.7804827094078064],"translation":[7.481131553649902,5.34366512298584,6.5076398849487305]},{"name":"Lamp","rotation":[0.16907575726509094,0.7558802962303162,-0.27217137813568115,0.570947527885437],"scale":[1,1,0.9999999403953552],"translation":[4.076245307922363,5.903861999511719,-1.0054539442062378]},{"mesh":0,"name":"Porygon","skin":0},{"children":[5,16],"name":"Armature_pm0137_00","rotation":[-0.7071068286895752,0,0,0.7071068286895752]},{"children":[6],"name":"Armature_Origin"},{"children":[7,9,11,13,15],"name":"Armature_Waist","rotation":[0,-0.7071078419685364,0,0.7071056962013245],"scale":[1,0.9999999403953552,1],"translation":[0.00001624209835426882,6.513999938964844,22.919300079345703]},{"children":[8],"name":"Armature_RFoot","rotation":[0,1,0,-0.0000015060094256114098],"translation":[-0.00003248830034863204,6.967000484466553,21.424516677856445]},{"name":"Armature_EndRFoot","rotation":[0,2.781811403451684e-8,0,1],"translation":[-0.0000021628322883771034,-26.203399658203125,2.7330784746482095e-7]},{"children":[10],"name":"Armature_Tail","rotation":[0,0.4149801731109619,0,0.9098304510116577],"translation":[-5.681253433227539,27.042034149169922,1.3602766557596624e-7]},{"name":"Armature_EndTail","rotation":[-4.76587018738428e-8,-1.4901161193847656e-8,-1.7763568394002505e-15,1],"translation":[25.334739685058594,44.51218032836914,29.181434631347656]},{"children":[12],"name":"Armature_Head","rotation":[0,-0.17559953033924103,0,0.9844617247581482],"translation":[23.588550567626953,-13.97299575805664,-5.647816578857601e-7]},{"name":"Armature_EndHead","rotation":[0,-1.4901161193847656e-8,0,1],"translation":[26.61918067932129,-10.452888488769531,-9.808246612548828]},{"children":[14],"name":"Armature_LFoot","rotation":[0,0.0000014901161193847656,0,1],"translation":[0.00003630299761425704,6.967000484466553,-21.424482345581055]},{"name":"Armature_EndLFoot","rotation":[0,3.197442310920451e-14,0,1],"translation":[-9.364960078528384e-7,-26.203399658203125,9.055082728082198e-7]},{"name":"Armature_EndWaist","rotation":[0,-1.1368683772161603e-13,0,1],"translation":[20.010501861572266,-0.000001430511474609375,-4.791218088939786e-7]},{"name":"Armature_pm0137_00_Skin"}],"samplers":[{}],"scene":0,"scenes":[{"name":"Scene","nodes":[0,2,1]}],"skins":[{"inverseBindMatrices":0,"joints":[4,5,6,7,8,9,10,11,12,13,14,15,16],"skeleton":0}],"textures":[{"sampler":0,"source":0},{"sampler":0,"source":1}],"extensionsUsed":["ALI_amc_mesh_compression"],"extensionsRequired":["ALI_amc_mesh_compression"]}