{"accessors":[{"bufferView":0,"componentType":5126,"count":29,"max":[1,4.991719038116571e-9,0.9908799529075623,0,0.9976321458816528,9.939200396047454e-8,1,0,9.881335216732623e-8,-1,9.948319501518199e-8,0,5.671939849853516,4.939957618713379,5.317650318145752,1],"min":[-0.4154389798641205,-1.0658247617811867e-9,-0.9976321458816528,0,-0.9908799529075623,-1.9358949998604658e-9,-0.4154389798641205,0,-9.752564977816292e-8,-1.0000001192092896,-4.1918571724863796e-8,0,-14.27229118347168,-4.996790409088135,-6.5184831619262695,1],"type":"MAT4","byteOffset":0}],"asset":{"generator":"Khronos Blender glTF 2.0 exporter","version":"2.0"},"bufferViews":[{"buffer":0,"byteLength":1856,"byteOffset":0},{"buffer":0,"byteOffset":1856,"byteLength":115335}],"buffers":[{"byteLength":117191,"uri":"buffer.bin"}],"images":[{"name":"pm0010_00_Body1","uri":"pm0010_00_Body1.png"}],"materials":[{"alphaMode":"OPAQUE","name":"Material__35","pbrMetallicRoughness":{"baseColorFactor":[0.6400000190734865,0.6400000190734865,0.6400000190734865,1],"baseColorTexture":{"index":0},"metallicFactor":0}}],"meshes":[{"name":"Caterpie","primitives":[{"material":0,"extensions":{"ALI_amc_mesh_compression":{"bufferView":1}}}]}],"nodes":[{"children":[2,4],"name":"Armature","scale":[0.02539999969303608,0.02539999969303608,0.02539999969303608]},{"name":"Camera","rotation":[0.483536034822464,0.33687159419059753,-0.20870360732078552,0.7804827094078064],"translation":[7.481131553649902,5.34366512298584,6.5076398849487305]},{"mesh":0,"name":"Caterpie","skin":0},{"name":"Lamp","rotation":[0.16907575726509094,0.7558802962303162,-0.27217137813568115,0.570947527885437],"scale":[1,1,0.9999999403953552],"translation":[4.076245307922363,5.903861999511719,-1.0054539442062378]},{"children":[5,32],"name":"Armature_pm0010_00","rotation":[-0.7071068286895752,0,0,0.7071068286895752]},{"children":[6],"name":"Armature_Origin"},{"children":[7,27],"name":"Armature_Waist","rotation":[0,-0.7532451152801514,0,0.6577398777008057],"translation":[0,1.3267501592636108,-1.8453999757766724]},{"children":[8,15],"name":"Armature_Spine1","rotation":[-9.169960790700316e-9,-2.905726432800293e-7,-4.890637583798707e-8,1],"translation":[0.0000024466867216688115,-0.000003933906555175781,1.3175136359677708e-7]},{"children":[9],"name":"Armature_FeelerB1","rotation":[2.4950797534968117e-15,0.7777990698814392,-1.6118656880214255e-15,0.628512978553772],"scale":[0.9999999403953552,1,0.9999999403953552],"translation":[2.056197166442871,0.5783311128616333,-0.27963101863861084]},{"children":[10,11,13],"name":"Armature_FeelerB2","rotation":[3.41004919004388e-15,-0.038164686411619186,-9.619264814533438e-17,0.9992715120315552],"scale":[0.9999998807907104,1,0.9999998807907104],"translation":[0.005921512376517057,-1.014874815940857,-0.07740844786167145]},{"name":"Armature_EndFeelerB2","rotation":[-5.06639494801675e-8,1.4209369866445467e-14,2.514570995870713e-9,1],"translation":[1.3336748594383607e-8,-2.6717495918273926,-4.6368035100385896e-7]},{"children":[12],"name":"Armature_LFeelerB","rotation":[-4.7202391328937665e-8,0.1417262852191925,-6.758035908660531e-9,0.9899058938026428],"translation":[1.7075486183166504,-1.577707290649414,0.000001937583192557213]},{"name":"Armature_EndLFeelerB","rotation":[-5.551115123125783e-17,0,0,1],"translation":[0.9241514205932617,-0.9336704611778259,-0.1153566911816597]},{"children":[14],"name":"Armature_RFeelerB","rotation":[-4.8412712061463026e-8,0.14172692596912384,-6.931351048677925e-9,0.9899058938026428],"scale":[0.9999999403953552,1,0.9999999403953552],"translation":[-1.7075508832931519,-1.57770836353302,-0.0000017115156651925645]},{"name":"Armature_EndRFeelerB","rotation":[0,1.4901161193847656e-8,-6.938893903907228e-18,1],"translation":[-0.7164976000785828,-0.9336795210838318,-0.5949817299842834]},{"children":[16,23],"name":"Armature_Spine2","rotation":[-2.2216686883701155e-16,0.03316337615251541,-2.2494393517601173e-15,0.9994500279426575],"scale":[0.9999999403953552,1,0.9999999403953552],"translation":[3.750077724456787,-0.514678418636322,-0.5099896192550659]},{"children":[17],"name":"Armature_FeelerA1","rotation":[-4.247210815330879e-15,0.789079487323761,-9.036618643385786e-16,0.6142911911010742],"scale":[1,0.9999999403953552,1],"translation":[2.812767744064331,1.3439786434173584,-0.19389604032039642]},{"children":[18,19,21],"name":"Armature_FeelerA2","rotation":[4.438821526461063e-15,-0.08911871910095215,-1.9245270158442447e-16,0.996021032333374],"translation":[0.08804439753293991,-2.733272075653076,-0.48662543296813965]},{"name":"Armature_EndFeelerA2","rotation":[-1.7600395967043436e-15,-6.7229848355054855e-9,-1.1449176264935907e-16,1],"scale":[1,0.9999999403953552,1],"translation":[0.0009454187820665538,-1.9963687658309937,-0.0009434043313376606]},{"children":[20],"name":"Armature_LFeelerA","rotation":[-1.5511993883940596e-15,0.1438431590795517,-4.838151609554077e-16,0.9896005392074585],"scale":[0.9999998807907104,0.9999999403953552,0.9999998807907104],"translation":[1.9155715703964233,-0.6358618140220642,-0.17530687153339386]},{"name":"Armature_EndLFeelerA","rotation":[3.3584246494910985e-15,0,2.220446049250313e-16,1],"translation":[0.843374490737915,-1.1648842096328735,-0.18002517521381378]},{"children":[22],"name":"Armature_RFeelerA","rotation":[-5.414642762850946e-16,0.14341510832309723,-8.203307629877006e-16,0.9896626472473145],"scale":[0.9999999403953552,0.9999999403953552,0.9999999403953552],"translation":[-1.9148108959197998,-0.6376776099205017,-0.17711009085178375]},{"name":"Armature_EndRFeelerA","rotation":[3.219646771412954e-15,0,2.220446049250313e-16,1],"translation":[-0.6082863211631775,-1.1648789644241333,-0.6112760305404663]},{"children":[24,25],"name":"Armature_Head","rotation":[-2.245900448106489e-16,-0.15013013780117035,5.965673164544535e-16,0.9886662364006042],"translation":[5.309531211853027,-0.36688172817230225,-0.3660137355327606]},{"name":"Armature_EndHead","rotation":[-1.1102230246251565e-16,-1.4901161193847656e-8,-3.913536161803677e-15,1],"translation":[6.931601524353027,-2.8858425617218018,-2.6903162002563477]},{"children":[26],"name":"Armature_Nose","rotation":[-2.5168379652689657e-16,0.9753736257553101,-1.0696553980559485e-14,0.22055944800376892],"scale":[0.9999999403953552,0.9999999403953552,0.9999999403953552],"translation":[0.9400720596313477,-3.7646865844726562,-0.36485710740089417]},{"name":"Armature_EndNose","rotation":[3.885781644979232e-16,0,-3.3306685444798776e-16,1],"scale":[1,0.9999999403953552,1],"translation":[1.047479510307312,-1.6204564571380615,-1.1114133596420288]},{"children":[28],"name":"Armature_Hips","rotation":[-4.92841074617445e-8,-0.9908792972564697,-5.327264740451199e-10,0.13475239276885986],"scale":[0.9999999403953552,1,0.9999999403953552],"translation":[0.0000023744314603391103,-0.000003933906555175781,-3.995506858700537e-7]},{"children":[29],"name":"Armature_Tail1","rotation":[4.440892098500626e-16,-2.9802322387695312e-8,-3.5388358909926865e-15,1],"translation":[3.322100877761841,0.4559454619884491,0.4517875909805298]},{"children":[30],"name":"Armature_Tail2","rotation":[1.3896795756546435e-16,0.05228399485349655,-4.36706809494973e-15,0.9986323714256287],"translation":[3.0662028789520264,0.4208275377750397,0.4169866740703583]},{"children":[31],"name":"Armature_Tail3","rotation":[1.393975356186203e-16,0.09418538212776184,-7.736563359182324e-16,0.9955546855926514],"scale":[0.9999999403953552,1,0.9999999403953552],"translation":[2.679849147796631,0.674474835395813,0.6551815271377563]},{"name":"Armature_EndTail3","rotation":[-4.163336342344337e-16,0,-1.9637069748057456e-15,1],"translation":[4.219836235046387,2.1187965869903564,1.9272996187210083]},{"name":"Armature_pm0010_00_BodySkin"}],"samplers":[{}],"scene":0,"scenes":[{"name":"Scene","nodes":[0,3,1]}],"skins":[{"inverseBindMatrices":0,"joints":[4,5,6,7,8,9,10,11,12,13,14,15,16,17,18,19,20,21,22,23,24,25,26,27,28,29,30,31,32],"skeleton":0}],"textures":[{"sampler":0,"source":0}],"extensionsUsed":["ALI_amc_mesh_compression"],"extensionsRequired":["ALI_amc_mesh_compression"]}