{"accessors":[{"bufferView":0,"componentType":5126,"count":76,"max":[1,0,1,0,1,0,1,0,0,-1,0,0,42.56555938720703,17.492603302001953,47.47885513305664,1],"min":[-0.9995917677879333,0,-1,0,-1,0,-0.9995917677879333,0,0,-1.0000001192092896,0,0,-80.20179748535156,-26.58776092529297,-46.30059814453125,1],"type":"MAT4","byteOffset":0}],"asset":{"generator":"Khronos Blender glTF 2.0 exporter","version":"2.0"},"bufferViews":[{"buffer":0,"byteLength":4864,"byteOffset":0},{"buffer":0,"byteOffset":4864,"byteLength":4331},{"buffer":0,"byteOffset":9195,"byteLength":4331},{"buffer":0,"byteOffset":13526,"byteLength":118045}],"buffers":[{"byteLength":131571,"uri":"buffer.bin"}],"images":[{"name":"pm0066_00_Eye1","uri":"pm0066_00_Eye1.png"},{"name":"pm0066_00_Body1","uri":"pm0066_00_Body1.png"},{"name":"pm0066_00_Iris1","uri":"pm0066_00_Iris1.png"}],"materials":[{"alphaMode":"OPAQUE","name":"Material__76","pbrMetallicRoughness":{"baseColorFactor":[0.6400000190734865,0.6400000190734865,0.6400000190734865,1],"baseColorTexture":{"index":0},"metallicFactor":0}},{"alphaMode":"OPAQUE","name":"Material__77","pbrMetallicRoughness":{"baseColorFactor":[0.6400000190734865,0.6400000190734865,0.6400000190734865,1],"baseColorTexture":{"index":1},"metallicFactor":0}},{"alphaMode":"MASK","name":"Material__78","pbrMetallicRoughness":{"baseColorFactor":[0.6400000190734865,0.6400000190734865,0.6400000190734865,1],"baseColorTexture":{"index":2},"metallicFactor":0}}],"meshes":[{"name":"Machop","primitives":[{"material":2,"extensions":{"ALI_amc_mesh_compression":{"bufferView":1}}},{"material":0,"extensions":{"ALI_amc_mesh_compression":{"bufferView":2}}},{"material":1,"extensions":{"ALI_amc_mesh_compression":{"bufferView":3}}}]}],"nodes":[{"children":[3,4],"name":"Armature","scale":[0.02539999969303608,0.02539999969303608,0.02539999969303608]},{"name":"Camera","rotation":[0.483536034822464,0.33687159419059753,-0.20870360732078552,0.7804827094078064],"translation":[7.481131553649902,5.34366512298584,6.5076398849487305]},{"name":"Lamp","rotation":[0.16907575726509094,0.7558802962303162,-0.27217137813568115,0.570947527885437],"scale":[1,1,0.9999999403953552],"translation":[4.076245307922363,5.903861999511719,-1.0054539442062378]},{"mesh":0,"name":"Machop","skin":0},{"children":[5,78,79],"name":"Armature_pm0066_00","rotation":[-0.7071068286895752,0,0,0.7071068286895752]},{"children":[6],"name":"Armature_Origin"},{"children":[7,24],"name":"Armature_Waist","rotation":[0,-0.6585569977760315,0,0.7525309324264526],"scale":[0.9999999403953552,1,0.9999999403953552],"translation":[0,-5.2291412353515625,29.86199951171875]},{"children":[8,14,20,21],"name":"Armature_Hips","rotation":[0,0.9977895617485046,0,0.06645222753286362],"scale":[1,0.9999999403953552,1],"translation":[2.424012279789167e-7,0.000001430511474609375,-0.0000015734243561382755]},{"children":[9],"name":"Armature_LThigh","rotation":[0,0.0007864231010898948,0,0.9999997019767761],"translation":[4.465348243713379,0.000025272369384765625,7.129611968994141]},{"children":[10],"name":"Armature_LLeg","rotation":[0,0.07791171967983246,0,0.9969602823257446],"scale":[0.9999999403953552,1,0.9999999403953552],"translation":[10.858643531799316,1.1157546043395996,1.1100001335144043]},{"children":[11,13],"name":"Armature_LFoot","rotation":[0,-0.7605624794960022,0,0.6492648124694824],"translation":[8.164270401000977,2.2266931533813477,2.153097629547119]},{"children":[12],"name":"Armature_LToe","rotation":[0,0.000646705855615437,0,0.9999998807907104],"translation":[0.4161110818386078,-8.845412254333496,-3.609773635864258]},{"name":"Armature_EndLToe","rotation":[0,-5.820766091346741e-11,0,1],"translation":[0.38517430424690247,-6.760440826416016,-0.008264570496976376]},{"name":"Armature_EndLFoot","rotation":[0,6.5201675170101225e-9,0,1],"translation":[0.7214033603668213,-12.662168502807617,0.000034349082852713764]},{"children":[15],"name":"Armature_RThigh","rotation":[0,0.1009090468287468,0,0.9948957562446594],"translation":[4.465378761291504,-0.000003337860107421875,-7.129627704620361]},{"children":[16],"name":"Armature_RLeg","rotation":[0,0.07791277021169662,0,0.9969602823257446],"translation":[10.858641624450684,1.1157808303833008,1.10996675491333]},{"children":[17,19],"name":"Armature_RFoot","rotation":[0,-0.821746826171875,0,0.5698527693748474],"translation":[8.164178848266602,2.2266764640808105,2.153062105178833]},{"children":[18],"name":"Armature_RToe","rotation":[0,0.0006489187362603843,0,0.9999998807907104],"translation":[-0.41613632440567017,-8.845417022705078,-3.609809637069702]},{"name":"Armature_EndRToe","translation":[-0.38515907526016235,-6.760500907897949,-0.009268457069993019]},{"name":"Armature_EndRFoot","rotation":[0,2.6549741960479878e-8,0,1],"translation":[-0.7214016914367676,-12.662169456481934,0.000023110096663003787]},{"name":"Armature_EndHips","rotation":[0,-4.961293598171324e-10,0,1],"translation":[13.824100494384766,0,-4.834437277168036e-7]},{"children":[22],"name":"Armature_Tail1","rotation":[0,-0.6698302030563354,0,0.7425143122673035],"scale":[0.9999999403953552,1,0.9999999403953552],"translation":[5.962299346923828,8.92562484741211,0.000013891811249777675]},{"children":[23],"name":"Armature_Tail2","rotation":[0,-0.13955488801002502,0,0.9902143478393555],"translation":[0.09694582968950272,9.151129722595215,-0.9393880367279053]},{"name":"Armature_EndTail2","rotation":[0,-2.9802322387695312e-8,0,1],"translation":[0.43366754055023193,13.740147590637207,2.4218525886535645]},{"children":[25],"name":"Armature_Spine1","rotation":[0,7.674098014831543e-7,0,1],"translation":[-0.000016631676771794446,0.000013828277587890625,-0.00002039722676272504]},{"children":[26,50,74],"name":"Armature_Spine2","rotation":[0,0.037732113152742386,0,0.9992879033088684],"translation":[5.96251106262207,0.8048653602600098,0.7977335453033447]},{"children":[27],"name":"Armature_LShoulder","rotation":[0,0.6481541395187378,0,0.7615091800689697],"translation":[8.585485458374023,1.7580180168151855,-1.5484704971313477]},{"children":[28],"name":"Armature_LArm","rotation":[0,0.035498056560754776,0,0.9993698000907898],"scale":[1.0000001192092896,1,1.0000001192092896],"translation":[5.783836841583252,0.22174334526062012,0.2216486632823944]},{"children":[29],"name":"Armature_LForeArm","rotation":[0,-0.0071329763159155846,0,0.9999745488166809],"translation":[11.695581436157227,0.1667773723602295,0.16676735877990723]},{"children":[30,31,34,38,42,46],"name":"Armature_LHand","rotation":[0,-0.004812020342797041,0,0.9999884366989136],"translation":[11.285867691040039,-0.00009179115295410156,-0.0001049041748046875]},{"name":"Armature_EndLHand","scale":[0.9999999403953552,1,0.9999999403953552],"translation":[22.312114715576172,-0.0001800060272216797,-0.00017786026000976562]},{"children":[32],"name":"Armature_LFingerA1","rotation":[0,0.9999411702156067,0,0.010851146653294563],"scale":[0.9999999403953552,1,0.9999999403953552],"translation":[3.8875479698181152,-4.309750556945801,-2.031055212020874]},{"children":[33],"name":"Armature_LFingerA2","rotation":[0,-0.00664933305233717,0,0.9999778866767883],"scale":[0.9999998807907104,1,0.9999998807907104],"translation":[-5.314746379852295,-2.5354056358337402,0.00003314018249511719]},{"name":"Armature_EndLFingerA2","translation":[-4.05148458480835,-1.2470779418945312,0.00006651878356933594]},{"children":[35],"name":"Armature_LFingerB1","rotation":[0,0.004809956531971693,0,0.9999884366989136],"translation":[10.016256332397461,2.2603490352630615,1.001209020614624]},{"children":[36],"name":"Armature_LFingerB2","rotation":[0,1.4901161193847656e-8,0,1],"translation":[3.633596897125244,-0.000029226765036582947,-0.000041484832763671875]},{"children":[37],"name":"Armature_LFingerB3","rotation":[0,-7.450580596923828e-9,0,1],"translation":[2.9500927925109863,-0.000023778527975082397,-0.000026226043701171875]},{"name":"Armature_EndLFingerB3","translation":[3.398947238922119,-0.000027395784854888916,-0.00003528594970703125]},{"children":[39],"name":"Armature_LFingerC1","rotation":[0,0.004809971433132887,0,0.9999884366989136],"translation":[10.274040222167969,-0.7043824195861816,1.5928549766540527]},{"children":[40],"name":"Armature_LFingerC2","rotation":[0,-7.450580596923828e-9,0,1],"translation":[3.616393566131592,-0.000028371810913085938,-0.000034809112548828125]},{"children":[41],"name":"Armature_LFingerC3","rotation":[0,3.725290298461914e-9,0,1],"translation":[3.077700614929199,-0.000024557113647460938,-0.0000286102294921875]},{"name":"Armature_EndLFingerC3","translation":[4.0515666007995605,-0.0000324249267578125,-0.000034809112548828125]},{"children":[43],"name":"Armature_LFingerD1","rotation":[0,-0.012799868360161781,0,0.9999181032180786],"scale":[0.9999999403953552,1,0.9999999403953552],"translation":[9.70725154876709,-3.2893950939178467,1.1744916439056396]},{"children":[44],"name":"Armature_LFingerD2","rotation":[0,7.450580596923828e-9,0,1],"translation":[3.7776081562042236,-0.13321590423583984,-0.1331324577331543]},{"children":[45],"name":"Armature_LFingerD3","rotation":[0,0.017609287053346634,0,0.9998449683189392],"translation":[2.9246456623077393,-0.10312891006469727,-0.10309004783630371]},{"name":"Armature_EndLFingerD3","translation":[3.731822967529297,-0.00002956390380859375,-0.0000362396240234375]},{"children":[47],"name":"Armature_LFingerE1","rotation":[0,0.004809952806681395,0,0.9999884366989136],"translation":[8.390424728393555,4.916893482208252,0.016808271408081055]},{"children":[48],"name":"Armature_LFingerE2","rotation":[0,1.4901161193847656e-8,0,1],"translation":[4.0005011558532715,-0.00003337860107421875,-0.00003719329833984375]},{"children":[49],"name":"Armature_LFingerE3","rotation":[0,-7.450580596923828e-9,0,1],"translation":[2.448094367980957,-0.000019788742065429688,-0.000014781951904296875]},{"name":"Armature_EndLFingerE3","translation":[3.3989477157592773,-0.00002765655517578125,-0.000030994415283203125]},{"children":[51],"name":"Armature_RShoulder","rotation":[0,-0.7677685618400574,0,0.6407272815704346],"translation":[7.222762107849121,1.7580277919769287,4.892876625061035]},{"children":[52],"name":"Armature_RArm","rotation":[0,-0.05950072407722473,0,0.9982283115386963],"translation":[5.783884048461914,0.2217273712158203,0.2215348184108734]},{"children":[53],"name":"Armature_RForeArm","rotation":[0,-0.007132950704544783,0,0.9999746084213257],"scale":[0.9999999403953552,1,0.9999999403953552],"translation":[11.695527076721191,0.16683506965637207,0.16682279109954834]},{"children":[54,58,62,66,70,71],"name":"Armature_RHand","rotation":[0,0.004811632912606001,0,0.9999884366989136],"translation":[11.285876274108887,-0.00003361701965332031,0.000012874603271484375]},{"children":[55],"name":"Armature_RFingerD1","rotation":[0,-0.022417690604925156,0,0.9997487664222717],"translation":[9.707256317138672,-3.2893614768981934,-1.1746904850006104]},{"children":[56],"name":"Armature_RFingerD2","rotation":[0,-7.450580596923828e-9,0,1],"translation":[3.777615547180176,-0.13319778442382812,-0.13311529159545898]},{"children":[57],"name":"Armature_RFingerD3","rotation":[0,0.017609156668186188,0,0.9998449683189392],"translation":[2.9246459007263184,-0.10310983657836914,-0.10305500030517578]},{"name":"Armature_EndRFingerD3","translation":[3.731851100921631,-0.000012874603271484375,-0.0000019073486328125]},{"children":[59],"name":"Armature_RFingerE1","rotation":[0,-0.004809598904103041,0,0.9999884366989136],"translation":[8.390400886535645,4.916934967041016,-0.01710057258605957]},{"children":[60],"name":"Armature_RFingerE2","rotation":[0,1.1548399925231934e-7,0,1],"translation":[4.000494956970215,-0.000022411346435546875,0.00009679794311523438]},{"children":[61],"name":"Armature_RFingerE3","rotation":[0,3.725290298461914e-9,0,1],"translation":[2.4481048583984375,-0.000007152557373046875,-0.000006198883056640625]},{"name":"Armature_EndRFingerE3","translation":[3.3989615440368652,-0.000012159347534179688,-0.00001430511474609375]},{"children":[63],"name":"Armature_RFingerB1","rotation":[0,-0.0048094759695231915,0,0.9999884366989136],"translation":[10.016234397888184,2.2603960037231445,-1.0014026165008545]},{"children":[64],"name":"Armature_RFingerB2","rotation":[0,-3.725290298461914e-9,0,1],"translation":[3.6336026191711426,-0.00001101754605770111,-0.00001239776611328125]},{"children":[65],"name":"Armature_RFingerB3","translation":[2.950098991394043,-0.000008802860975265503,-0.00000762939453125]},{"name":"Armature_EndRFingerB3","translation":[3.398960590362549,-0.00001014024019241333,-0.00001239776611328125]},{"children":[67],"name":"Armature_RFingerC1","rotation":[0,-0.0048094759695231915,0,0.9999884366989136],"translation":[10.274026870727539,-0.7043311595916748,-1.5930557250976562]},{"children":[68],"name":"Armature_RFingerC2","rotation":[0,-3.725290298461914e-9,0,1],"translation":[3.6164073944091797,-0.000010728836059570312,-0.00000667572021484375]},{"children":[69],"name":"Armature_RFingerC3","translation":[3.077697277069092,-0.000009059906005859375,-0.000003337860107421875]},{"name":"Armature_EndRFingerC3","translation":[4.051598072052002,-0.000015020370483398438,-0.0000762939453125]},{"name":"Armature_EndRHand","translation":[22.31209945678711,-0.0000667572021484375,-0.0000820159912109375]},{"children":[72],"name":"Armature_RFingerA1","rotation":[0,0.010855691507458687,0,0.9999411106109619],"translation":[3.887532949447632,-4.309760570526123,2.0309958457946777]},{"children":[73],"name":"Armature_RFingerA2","rotation":[0,0.0066482555121183395,0,0.9999778866767883],"translation":[5.314735412597656,-2.5353517532348633,-0.00004863739013671875]},{"name":"Armature_EndRFingerA2","rotation":[0,1.862645149230957e-9,0,1],"translation":[4.051584243774414,-1.247096061706543,0.00009083747863769531]},{"children":[75,76],"name":"Armature_Head","rotation":[0,-0.10405335575342178,0,0.9945717453956604],"translation":[11.619499206542969,2.5125620365142822,2.4582009315490723]},{"name":"Armature_EndHead","rotation":[0,7.946482583065517e-9,0,1],"translation":[32.4474983215332,-1.1920928955078125e-7,-0.0000022926178644411266]},{"children":[77],"name":"Armature_Jaw","rotation":[0,-0.8760210275650024,0,0.4822729229927063],"translation":[8.436256408691406,-2.584277868270874,0.000010112671589013189]},{"name":"Armature_EndJaw","translation":[4.240809917449951,-12.527610778808594,6.700039863586426]},{"name":"Armature_pm0066_00_BodySkin"},{"name":"Armature_pm0066_00_IrisSkin"}],"samplers":[{}],"scene":0,"scenes":[{"name":"Scene","nodes":[0,2,1]}],"skins":[{"inverseBindMatrices":0,"joints":[4,5,6,7,8,9,10,11,12,13,14,15,16,17,18,19,20,21,22,23,24,25,26,27,28,29,30,31,32,33,34,35,36,37,38,39,40,41,42,43,44,45,46,47,48,49,50,51,52,53,54,55,56,57,58,59,60,61,62,63,64,65,66,67,68,69,70,71,72,73,74,75,76,77,78,79],"skeleton":0}],"textures":[{"sampler":0,"source":0},{"sampler":0,"source":1},{"sampler":0,"source":2}],"extensionsUsed":["ALI_amc_mesh_compression"],"extensionsRequired":["ALI_amc_mesh_compression"]}