{"accessors":[{"bufferView":0,"componentType":5126,"count":21,"max":[1,0,1,0,1,0,1,0,0,-1,0,0,49.2824821472168,0,15.426997184753418,1],"min":[-1.0728441424134871e-7,0,-1,0,-1,0,-1.0728441424134871e-7,0,0,-1.0000001192092896,0,0,-83.4997329711914,-112.59809112548828,-52.230201721191406,1],"type":"MAT4","byteOffset":0},{"bufferView":1,"componentType":5126,"count":21,"max":[1,0,1,0,1,0,1,0,0,-1,0,0,49.2824821472168,0,15.426997184753418,1],"min":[-1.0728441424134871e-7,0,-1,0,-1,0,-1.0728441424134871e-7,0,0,-1.0000001192092896,0,0,-83.4997329711914,-112.59809112548828,-52.230201721191406,1],"type":"MAT4","byteOffset":0},{"bufferView":2,"componentType":5126,"count":21,"max":[1,0,1,0,1,0,1,0,0,-1,0,0,49.2824821472168,0,15.426997184753418,1],"min":[-1.0728441424134871e-7,0,-1,0,-1,0,-1.0728441424134871e-7,0,0,-1.0000001192092896,0,0,-83.4997329711914,-112.59809112548828,-52.230201721191406,1],"type":"MAT4","byteOffset":0},{"bufferView":3,"componentType":5126,"count":21,"max":[1,0,1,0,1,0,1,0,0,-1,0,0,49.2824821472168,0,15.426997184753418,1],"min":[-1.0728441424134871e-7,0,-1,0,-1,0,-1.0728441424134871e-7,0,0,-1.0000001192092896,0,0,-83.4997329711914,-112.59809112548828,-52.230201721191406,1],"type":"MAT4","byteOffset":0}],"asset":{"generator":"Khronos Blender glTF 2.0 exporter","version":"2.0"},"bufferViews":[{"buffer":0,"byteLength":1344,"byteOffset":0},{"buffer":0,"byteLength":1344,"byteOffset":1344},{"buffer":0,"byteLength":1344,"byteOffset":2688},{"buffer":0,"byteLength":1344,"byteOffset":4032},{"buffer":0,"byteOffset":5376,"byteLength":31511},{"buffer":0,"byteOffset":36887,"byteLength":98223},{"buffer":0,"byteOffset":135110,"byteLength":995},{"buffer":0,"byteOffset":136105,"byteLength":2075}],"buffers":[{"byteLength":138180,"uri":"buffer.bin"}],"images":[{"name":"pm0091_00_BodyA1","uri":"pm0091_00_BodyA1.png"},{"name":"pm0091_00_BodyB1","uri":"pm0091_00_BodyB1.png"},{"name":"pm0091_00_Eye1","uri":"pm0091_00_Eye1.png"},{"name":"pm0091_00_Mouth1","uri":"pm0091_00_Mouth1.png"}],"materials":[{"name":"assets_textures_pm0091_00_BodyA1-material","pbrMetallicRoughness":{"baseColorFactor":[0.6400000190734865,0.6400000190734865,0.6400000190734865,1],"baseColorTexture":{"index":0},"metallicFactor":0}},{"name":"assets_textures_pm0091_00_BodyB1-material","pbrMetallicRoughness":{"baseColorFactor":[0.6400000190734865,0.6400000190734865,0.6400000190734865,1],"baseColorTexture":{"index":1},"metallicFactor":0}},{"name":"assets_textures_pm0091_00_Eye1-material","pbrMetallicRoughness":{"baseColorFactor":[0.6400000190734865,0.6400000190734865,0.6400000190734865,1],"baseColorTexture":{"index":2},"metallicFactor":0}},{"name":"assets_textures_pm0091_00_Mouth1-material","pbrMetallicRoughness":{"baseColorFactor":[0.6400000190734865,0.6400000190734865,0.6400000190734865,1],"baseColorTexture":{"index":3},"metallicFactor":0}}],"meshes":[{"name":"_003_pm0091_00_002","primitives":[{"material":1,"extensions":{"ALI_amc_mesh_compression":{"bufferView":4}}}]},{"name":"_000_pm0091_00_002","primitives":[{"material":0,"extensions":{"ALI_amc_mesh_compression":{"bufferView":5}}}]},{"name":"_002_pm0091_00_002","primitives":[{"material":3,"extensions":{"ALI_amc_mesh_compression":{"bufferView":6}}}]},{"name":"_001_pm0091_00_002","primitives":[{"material":2,"extensions":{"ALI_amc_mesh_compression":{"bufferView":7}}}]}],"nodes":[{"mesh":1,"name":"_000_pm0091_00_002","skin":0},{"mesh":3,"name":"_001_pm0091_00_002","skin":1},{"mesh":2,"name":"_002_pm0091_00_002","skin":2},{"mesh":0,"name":"_003_pm0091_00_002","skin":3},{"children":[0,1,2,3,7,8,9,10,11],"name":"Armature","rotation":[0.7071068286895752,0,0,0.7071067094802856]},{"name":"Camera","rotation":[0.483536034822464,0.33687159419059753,-0.20870360732078552,0.7804827094078064],"translation":[7.481131553649902,5.34366512298584,6.5076398849487305]},{"name":"Lamp","rotation":[0.16907575726509094,0.7558802962303162,-0.27217137813568115,0.570947527885437],"scale":[1,1,0.9999999403953552],"translation":[4.076245307922363,5.903861999511719,-1.0054539442062378]},{"name":"Armature_mesh0","rotation":[-0.7071068286895752,0,0,0.7071068286895752]},{"name":"Armature_mesh1","rotation":[-0.7071068286895752,0,0,0.7071068286895752]},{"name":"Armature_mesh2","rotation":[-0.7071068286895752,0,0,0.7071068286895752]},{"name":"Armature_mesh3","rotation":[-0.7071068286895752,0,0,0.7071068286895752]},{"children":[12,27],"name":"Armature_pm0091_00","rotation":[-0.7071068286895752,0,0,0.7071068286895752]},{"children":[13],"name":"Armature_Origin"},{"children":[14,15,17,19,21,23,25],"name":"Armature_Waist","rotation":[0,0.7071068286895752,0,0.7071068286895752],"scale":[1,0.9999999403953552,1],"translation":[0,55.26679992675781,0]},{"name":"Armature_EndWaist","translation":[82.29901885986328,0.00000762939453125,0.000016194804629776627]},{"children":[16],"name":"Armature_Feeler","rotation":[0,-0.9914448857307434,0,0.13052597641944885],"translation":[-10.299783706665039,36.92813491821289,-3.503423613437917e-7]},{"name":"Armature_EndFeeler","rotation":[0,-4.6193599700927734e-7,0,1],"translation":[73.55088806152344,20.40313720703125,19.707883834838867]},{"children":[18],"name":"Armature_Head","rotation":[0,1,0,7.549790126404332e-8],"translation":[-10.870216369628906,5.7745361328125,-0.000008433161383436527]},{"name":"Armature_EndHead","rotation":[0,3.178651297730539e-8,0,1],"translation":[47.691287994384766,0.0001068115234375,0.000029489727239706554]},{"children":[20],"name":"Armature_LFeelerA","rotation":[0,-0.9878929257392883,0,0.15513712167739868],"translation":[50.32970428466797,0.000400543212890625,-0.00004595102655002847]},{"name":"Armature_EndLFeelerA","translation":[115.94506072998047,-0.00026702880859375,9.5367431640625e-7]},{"children":[22],"name":"Armature_LFeelerB","rotation":[0,-0.9947848320007324,0,0.10199588537216187],"translation":[50.32966232299805,0,0.000015896526747383177]},{"name":"Armature_EndLFeelerB","rotation":[0,5.960464477539063e-8,0,1],"translation":[105.97093200683594,-0.000232696533203125,0.0000934600830078125]},{"children":[24],"name":"Armature_RFeelerA","rotation":[0,-0.9878929257392883,0,0.15513788163661957],"translation":[50.32966613769531,0.00040435791015625,-8.29211103337002e-7]},{"name":"Armature_EndRFeelerA","rotation":[0,5.960464477539063e-8,0,1],"translation":[94.15805053710938,-0.000392913818359375,67.65719604492188]},{"children":[26],"name":"Armature_RFeelerB","rotation":[0,-0.9947848320007324,0,0.10199588537216187],"translation":[50.32965087890625,0.00000762939453125,-0.000004211646682961145]},{"name":"Armature_EndRFeelerB","rotation":[0,2.5331974029541016e-7,0,1],"translation":[97.24323272705078,-0.0002899169921875,42.11405944824219]},{"name":"Armature_pm0091_00_Skin"}],"samplers":[{}],"scene":0,"scenes":[{"name":"Scene","nodes":[4,6,5]}],"skins":[{"inverseBindMatrices":0,"joints":[7,8,9,10,11,12,13,14,15,16,17,18,19,20,21,22,23,24,25,26,27],"skeleton":4},{"inverseBindMatrices":1,"joints":[7,8,9,10,11,12,13,14,15,16,17,18,19,20,21,22,23,24,25,26,27],"skeleton":4},{"inverseBindMatrices":2,"joints":[7,8,9,10,11,12,13,14,15,16,17,18,19,20,21,22,23,24,25,26,27],"skeleton":4},{"inverseBindMatrices":3,"joints":[7,8,9,10,11,12,13,14,15,16,17,18,19,20,21,22,23,24,25,26,27],"skeleton":4}],"textures":[{"sampler":0,"source":0},{"sampler":0,"source":1},{"sampler":0,"source":2},{"sampler":0,"source":3}],"extensionsUsed":["ALI_amc_mesh_compression"],"extensionsRequired":["ALI_amc_mesh_compression"]}