{"accessors":[{"bufferView":0,"componentType":5126,"count":44,"max":[1.000000238418579,0,0.9974022507667542,0,1,1.1270458344370127e-8,1,0,1.1889957107769078e-7,-1.0000001192092896,1.1920927533992653e-7,0,125.74742126464844,38.96834182739258,125.73294067382812,1],"min":[-1.000000238418579,-7.623301372050105e-21,-1.000000238418579,0,-0.997402012348175,-1.192093463942001e-7,-1,0,-1.1920927533992653e-7,-1.0000005960464478,-1.1920927533992653e-7,0,-129.44863891601562,-4.075860977172852,-118.22402954101562,1],"type":"MAT4","byteOffset":0}],"asset":{"generator":"Khronos Blender glTF 2.0 exporter","version":"2.0"},"bufferViews":[{"buffer":0,"byteLength":2816,"byteOffset":0},{"buffer":0,"byteOffset":2816,"byteLength":13015},{"buffer":0,"byteOffset":15831,"byteLength":32539},{"buffer":0,"byteOffset":48370,"byteLength":35843},{"buffer":0,"byteOffset":84213,"byteLength":3171},{"buffer":0,"byteOffset":87384,"byteLength":43223}],"buffers":[{"byteLength":130607,"uri":"buffer.bin"}],"images":[{"name":"pm0057_00_Body1","uri":"pm0057_00_Body1.png"},{"name":"pm0057_00_Eye1","uri":"pm0057_00_Eye1.png"}],"materials":[{"alphaMode":"OPAQUE","name":"Body","pbrMetallicRoughness":{"baseColorFactor":[0.6400000190734865,0.6400000190734865,0.6400000190734865,1],"baseColorTexture":{"index":0},"metallicFactor":0}},{"alphaMode":"OPAQUE","name":"Body.001","pbrMetallicRoughness":{"baseColorFactor":[0.6400000190734865,0.6400000190734865,0.6400000190734865,1],"baseColorTexture":{"index":0},"metallicFactor":0}},{"alphaMode":"OPAQUE","name":"BodyDodo_Hair","pbrMetallicRoughness":{"baseColorFactor":[0.6400000190734865,0.6400000190734865,0.6400000190734865,1],"baseColorTexture":{"index":0},"metallicFactor":0}},{"alphaMode":"OPAQUE","name":"BodyNutrey_Env","pbrMetallicRoughness":{"baseColorFactor":[0.6400000190734865,0.6400000190734865,0.6400000190734865,1],"baseColorTexture":{"index":0},"metallicFactor":0}},{"alphaMode":"OPAQUE","name":"Eye","pbrMetallicRoughness":{"baseColorFactor":[0.6400000190734865,0.6400000190734865,0.6400000190734865,1],"baseColorTexture":{"index":4},"metallicFactor":0}}],"meshes":[{"name":"Primeape","primitives":[{"material":3,"extensions":{"ALI_amc_mesh_compression":{"bufferView":1}}},{"material":1,"extensions":{"ALI_amc_mesh_compression":{"bufferView":2}}},{"material":0,"extensions":{"ALI_amc_mesh_compression":{"bufferView":3}}},{"material":4,"extensions":{"ALI_amc_mesh_compression":{"bufferView":4}}},{"material":2,"extensions":{"ALI_amc_mesh_compression":{"bufferView":5}}}]}],"nodes":[{"children":[1,18],"name":"_01_pm0057_00","rotation":[0.7071068286895752,0,0,0.7071067094802856],"scale":[0.02539999783039093,0.02539999969303608,0.02539999969303608]},{"children":[21,22],"name":"_02_Origin"},{"name":"_04_EndWaist","translation":[55.44749069213867,2.273740007038838e-13,2.9103799231711136e-11]},{"name":"_08_EndLFeeler","translation":[43.807491302490234,0,0]},{"name":"_10_EndLHand","translation":[43.807491302490234,0,0]},{"name":"_13_EndLFingerA2","translation":[8.70654296875,0.000007629389983776491,0.00001525879997643642]},{"name":"_16_EndLFingerB2","translation":[12.883999824523926,0.000003814699994109105,0]},{"name":"_18_EndLEar","translation":[22.56148910522461,0.000005722049991163658,0.000007629389983776491]},{"name":"_22_EndLFoot","translation":[26.433490753173828,-9.536739753457368e-7,-0.000003814699994109105]},{"name":"_24_EndLToe","translation":[14.652000427246094,-9.536739753457368e-7,-0.000003814699994109105]},{"name":"_26_EndNose","translation":[6.696437835693359,2.9103799231711136e-11,0]},{"name":"_30_EndRFeeler","translation":[43.80799865722656,0,0]},{"name":"_32_EndRHand","translation":[43.80799865722656,0,0]},{"name":"_35_EndRFingerA2","translation":[8.70657730102539,0.00003051759995287284,0.00001525879997643642]},{"name":"_38_EndRFingerB2","translation":[12.884090423583984,0.000022888199964654632,0]},{"name":"_40_EndREar","translation":[22.561609268188477,-0.00008392330346396193,0.00009346009755972773]},{"name":"_44_EndRFoot","translation":[26.433490753173828,0,-0.000003814699994109105]},{"name":"_46_EndRToe","translation":[14.652000427246094,-4.768369876728684e-7,-0.000003814699994109105]},{"name":"_47_pm0057_00_Skin"},{"name":"Camera","rotation":[0.483536034822464,0.33687159419059753,-0.20870360732078552,0.7804827094078064],"translation":[7.481131553649902,5.34366512298584,6.5076398849487305]},{"name":"Lamp","rotation":[0.16907575726509094,0.7558802962303162,-0.27217137813568115,0.570947527885437],"scale":[1,1,0.9999999403953552],"translation":[4.076245307922363,5.903861999511719,-1.0054539442062378]},{"mesh":0,"name":"Primeape","rotation":[5.960464477539063e-8,0,0,1],"scale":[1.0000001192092896,1,1],"skin":0},{"children":[23,24,36,38,44,46,58,60],"name":"_02_Origin__03_Waist","rotation":[-0.5,-0.5000000596046448,0.5000000596046448,0.5],"scale":[0.9999999403953552,0.9999997615814209,0.9999999403953552],"translation":[-4.289370186214567e-15,70.05079650878906,0]},{"name":"_02_Origin__04_EndWaist","rotation":[0,-1.7763568394002505e-15,0,1],"scale":[1,0.9999999403953552,1],"translation":[55.447509765625,-0.000001430511474609375,-0.0000024237160687334836]},{"children":[25],"name":"_02_Origin__05_LArm","rotation":[0,0.7071068286895752,0,0.7071068286895752],"scale":[1,0.9999999403953552,1],"translation":[13.213315963745117,-3.801182746887207,-33.63525390625]},{"children":[26,28],"name":"_02_Origin__06_LForeArm","rotation":[0,1.7763568394002505e-15,0,1],"translation":[13.476203918457031,-7.152557373046875e-7,-1.7053025658242404e-13]},{"children":[27],"name":"_02_Origin__07_LFeeler","translation":[19.800010681152344,-2.384185791015625e-7,0]},{"name":"_02_Origin__08_EndLFeeler","translation":[43.80751037597656,-2.384185791015625e-7,0]},{"children":[29,30,33],"name":"_02_Origin__09_LHand","translation":[19.821510314941406,-2.384185791015625e-7,0]},{"name":"_02_Origin__10_EndLHand","translation":[43.80751037597656,-2.384185791015625e-7,0]},{"children":[31],"name":"_02_Origin__11_LFingerA1","rotation":[0,0.6666703224182129,0,0.7453527450561523],"translation":[13.8671875,-10.601407051086426,-0.396209716796875]},{"children":[32],"name":"_02_Origin__12_LFingerA2","rotation":[0,0.6093940138816833,0,0.7928675413131714],"translation":[8.353857040405273,2.020949363708496,1.9671554565429688]},{"name":"_02_Origin__13_EndLFingerA2","rotation":[0,2.980232594040899e-8,0,1],"scale":[0.9999999403953552,1,0.9999999403953552],"translation":[1.1475582122802734,8.112506866455078,2.945222854614258]},{"children":[34],"name":"_02_Origin__14_LFingerB1","rotation":[0,0.25453364849090576,0,0.9670639038085938],"scale":[1.0000001192092896,1,1.0000001192092896],"translation":[19.214614868164062,-2.384185791015625e-7,3.8353042602539062]},{"children":[35],"name":"_02_Origin__15_LFingerB2","rotation":[0,0.7962382435798645,0,0.6049833297729492],"scale":[0.9999999403953552,0.9999999403953552,0.9999999403953552],"translation":[12.1041259765625,2.384185791015625e-7,-0.000034332275390625]},{"name":"_02_Origin__16_EndLFingerB2","translation":[12.88399887084961,-0.00003719329833984375,0.00000667572021484375]},{"children":[37],"name":"_02_Origin__17_LEar","rotation":[0,0.0757666677236557,0,0.9971256256103516],"translation":[36.759605407714844,-7.271609306335449,-19.735872268676758]},{"name":"_02_Origin__18_EndLEar","translation":[20.882492065429688,-5.557632923126221,-6.484932899475098]},{"children":[39],"name":"_02_Origin__19_LThigh","rotation":[0,-0.999350368976593,0,0.036039773374795914],"scale":[1,0.9999997019767761,1],"translation":[-17.160327911376953,-0.0000019073486328125,-17.289958953857422]},{"children":[40],"name":"_02_Origin__20_LLeg","rotation":[0,0.03261188417673111,0,0.9994680881500244],"translation":[21.49757194519043,1.5566846132278442,1.5526530742645264]},{"children":[41,42],"name":"_02_Origin__21_LFoot","rotation":[0,-0.7637045979499817,0,0.6455658674240112],"translation":[18.05630874633789,2.5191779136657715,2.495450973510742]},{"name":"_02_Origin__22_EndLFoot","rotation":[0,3.073364851502447e-8,0,1],"scale":[0.9999999403953552,1,0.9999999403953552],"translation":[0.000005334615707397461,-26.43350601196289,-0.0000014901161193847656]},{"children":[43],"name":"_02_Origin__23_LToe","rotation":[0,-2.2351741790771484e-8,0,1],"translation":[0.000030800700187683105,-20.481891632080078,-8.367716789245605]},{"name":"_02_Origin__24_EndLToe","scale":[1,0.9999999403953552,1],"translation":[0.000004276633262634277,-14.652009963989258,-9.5367431640625e-7]},{"children":[45],"name":"_02_Origin__25_Nose","rotation":[0,5.960464477539063e-8,0,1],"scale":[1,0.9999999403953552,1],"translation":[0.0000152587890625,-32.271907806396484,4.977409109874209e-12]},{"name":"_02_Origin__26_EndNose","rotation":[4.925477953558917e-15,7.105427357601002e-15,-6.52398881584304e-8,1],"translation":[0.00000762939453125,-6.696445465087891,2.8624241865671252e-11]},{"children":[47],"name":"_02_Origin__27_RArm","rotation":[0,-0.7071093916893005,0,0.7071042060852051],"scale":[1,0.9999999403953552,1],"translation":[13.213090896606445,-3.801173210144043,33.63524627685547]},{"children":[48,50],"name":"_02_Origin__28_RForeArm","rotation":[0,2.7817804948426783e-8,0,1],"translation":[13.476311683654785,-7.152557373046875e-7,0.000004249333869665861]},{"children":[49],"name":"_02_Origin__29_RFeeler","rotation":[0,-2.2737367544323206e-13,0,1],"translation":[19.799985885620117,-0.000009775161743164062,0.000007218681275844574]},{"name":"_02_Origin__30_EndRFeeler","rotation":[0,-2.2737367544323206e-13,0,1],"translation":[43.80801773071289,-2.384185791015625e-7,0.000007699243724346161]},{"children":[51,52,55],"name":"_02_Origin__31_RHand","rotation":[0,-2.2737367544323206e-13,0,1],"translation":[19.82148551940918,-0.000010251998901367188,0.000014691089745610952]},{"name":"_02_Origin__32_EndRHand","rotation":[0,-2.2737367544323206e-13,0,1],"translation":[43.80801773071289,-2.384185791015625e-7,-8.719507604837418e-8]},{"children":[53],"name":"_02_Origin__33_RFingerA1","rotation":[0,-0.47808006405830383,0,0.878316342830658],"translation":[13.86730670928955,-10.601401329040527,0.39621469378471375]},{"children":[54],"name":"_02_Origin__34_RFingerA2","rotation":[0,0.30762994289398193,0,0.9515060782432556],"translation":[8.353803634643555,2.020899772644043,1.9671897888183594]},{"name":"_02_Origin__35_EndRFingerA2","rotation":[0,-2.9802322387695312e-8,0,1],"translation":[1.1475658416748047,8.112529754638672,2.945240020751953]},{"children":[56],"name":"_02_Origin__36_RFingerB1","rotation":[0,-0.9670621156692505,0,0.25454065203666687],"translation":[19.214664459228516,-0.0000021457672119140625,-3.8352773189544678]},{"children":[57],"name":"_02_Origin__37_RFingerB2","rotation":[0,0.796238124370575,0,0.6049833297729492],"scale":[1.0000001192092896,1,1.0000001192092896],"translation":[-6.236930847167969,0.0000011920928955078125,-10.373554229736328]},{"name":"_02_Origin__38_EndRFingerB2","translation":[-0.016632080078125,-0.00003910064697265625,12.884078979492188]},{"children":[59],"name":"_02_Origin__39_REar","rotation":[0,-0.3232715427875519,0,0.9463063478469849],"translation":[36.7591552734375,-7.2715959548950195,19.73613929748535]},{"name":"_02_Origin__40_EndREar","rotation":[0,1.4901161193847656e-8,0,1],"translation":[21.405921936035156,-5.557583332061768,-4.463842391967773]},{"children":[61],"name":"_02_Origin__41_RThigh","rotation":[0,-0.999350368976593,0,0.036039773374795914],"scale":[1,0.9999997019767761,1],"translation":[-17.16045379638672,-0.000001430511474609375,17.28983497619629]},{"children":[62],"name":"_02_Origin__42_RLeg","rotation":[0,0.032611943781375885,0,0.9994680881500244],"translation":[21.497575759887695,1.5566846132278442,1.5526363849639893]},{"children":[63,64],"name":"_02_Origin__43_RFoot","rotation":[0,-0.7637046575546265,0,0.6455658078193665],"scale":[1.0000001192092896,1,1.0000001192092896],"translation":[18.056306838989258,2.5191783905029297,2.4954593181610107]},{"name":"_02_Origin__44_EndRFoot","rotation":[0,-9.313225746154785e-10,0,1],"scale":[1,0.9999999403953552,1],"translation":[0.0000016689300537109375,-26.43350601196289,-4.172325134277344e-7]},{"children":[65],"name":"_02_Origin__45_RToe","rotation":[0,1.5832483768463135e-8,0,1],"scale":[1,0.9999999403953552,1],"translation":[0.000029146671295166016,-20.481992721557617,-8.367711067199707]},{"name":"_02_Origin__46_EndRToe","translation":[0.000004202127456665039,-14.65201187133789,-5.960464477539062e-7]}],"samplers":[{}],"scene":0,"scenes":[{"name":"Scene","nodes":[17,16,15,14,13,12,11,10,9,8,7,6,5,4,3,2,0,20,19]}],"skins":[{"inverseBindMatrices":0,"joints":[22,23,24,25,26,27,28,29,30,31,32,33,34,35,36,37,38,39,40,41,42,43,44,45,46,47,48,49,50,51,52,53,54,55,56,57,58,59,60,61,62,63,64,65],"skeleton":1}],"textures":[{"sampler":0,"source":0},{"sampler":0,"source":0},{"sampler":0,"source":0},{"sampler":0,"source":0},{"sampler":0,"source":1}],"extensionsUsed":["ALI_amc_mesh_compression"],"extensionsRequired":["ALI_amc_mesh_compression"]}